<?xml version="1.0" encoding="utf-8"?>
<!-- Generator: Adobe Illustrator 24.3.0, SVG Export Plug-In . SVG Version: 6.00 Build 0)  -->
<svg version="1.1" id="Layer_1" xmlns="http://www.w3.org/2000/svg" xmlns:xlink="http://www.w3.org/1999/xlink" x="0px" y="0px"
	 viewBox="0 0 1980 2970" style="enable-background:new 0 0 1980 2970;" xml:space="preserve">
<style type="text/css">
	.st0{clip-path:url(#SVGID_2_);}
	.st1{fill:#7D40FD;}
	.st2{fill:#783EF3;}
</style>
<g>
	<defs>
		<rect id="SVGID_1_" x="0" y="0" width="1980" height="2970"/>
	</defs>
	<clipPath id="SVGID_2_">
		<use xlink:href="#SVGID_1_"  style="overflow:visible;"/>
	</clipPath>
	<g class="st0">
		<path class="st1" d="M1980,0v2970H0L0,0H1980z"/>
		<path class="st2" d="M1372.5,1685.8c-86.8,29.4-159,93.3-211,168.8c-52,75.4-85.3,162.1-111.6,249.9
			c-37.2,124-61.5,251.9-72.3,380.9c-6.2,74.1-5.8,155.5,40.4,213.8c47.6,60,133,78.5,208.8,67.2c75.8-11.3,145.2-47.4,214.6-79.7
			c69.5-32.3,143.3-61.9,219.8-58.8c101.8,4,196.2,68.5,248,156.3c33.2,56.2,50,120.6,52.9,186h17.9v-235.1
			c-18.7-24.9-40-47.8-63.7-68c-117.5-99.9-289-128.8-431.8-72.8c-64.2,25.2-121.9,65.8-186.8,88.7c-65,22.9-144,24.7-195.5-21.8
			c-57.1-51.5-59.6-140.1-55.5-217.8c6.6-125.2,19.8-252.1,65.5-368.5c45.8-116.4,128.2-222.5,241.3-271.5
			c188.9-81.9,407.1,9.6,610.1-21.3c5.5-0.8,10.9-1.7,16.3-2.8v-74.6c-83.3,12.4-171.8,0-256-14.5
			C1607.2,1670.2,1484.7,1647.8,1372.5,1685.8z"/>
		<path class="st1" d="M1980,2734.9v-955.7c-5.4,1.1-10.9,2-16.3,2.8c-203,30.9-421.2-60.7-610.1,21.3
			c-113.1,49.1-195.5,155.2-241.3,271.5c-45.8,116.4-58.9,243.3-65.5,368.5c-4.1,77.7-1.6,166.3,55.5,217.8
			c51.5,46.5,130.5,44.8,195.5,21.8c64.9-22.9,122.7-63.5,186.8-88.7c142.8-56,314.3-27.1,431.8,72.8
			C1940,2687.1,1961.3,2709.9,1980,2734.9z"/>
		<path class="st1" d="M1269.7,1658.8c-188.4,99.6-287.3,312-342.7,517.8c-49.4,183.5-72.9,386.5,9.4,557.7
			c25.4,52.9,63,103.3,116.9,126.5c73.9,31.8,159.9,5.7,230.9-32.2c70.9-37.9,137.1-87.9,215.1-107.4
			c102.4-25.6,217.5,8.9,288.9,86.6c41,44.6,66.6,102.2,74.5,162.2h99.4c-2.9-65.4-19.8-129.8-52.9-186
			c-51.8-87.8-146.2-152.3-248-156.3c-76.5-3.1-150.4,26.5-219.8,58.8c-69.4,32.3-138.8,68.4-214.6,79.7
			c-75.8,11.3-161.2-7.2-208.8-67.2c-46.2-58.3-46.6-139.7-40.4-213.8c10.8-129,35-256.9,72.3-380.9
			c26.4-87.8,59.6-174.5,111.6-249.9c52-75.4,124.2-139.4,211-168.8c112.2-38,234.7-15.6,351.4,4.4c84.2,14.4,172.7,26.9,256,14.5
			v-80.9c-55.9,2.9-113.8-4.5-169.4-11.7C1628.1,1588.4,1432.3,1572.8,1269.7,1658.8z"/>
		<path class="st2" d="M970.2-290.1C930,204.5,640.2,672.4,215.3,928.6c-26.5,16-54.2,31.8-72.6,56.7c-18.5,24.8-24.9,61.5-6.3,86.2
			c23,30.4,68.5,27.9,106.2,22.7c165.1-22.7,348.8-35.5,482.5,64c80.6,60,130.9,154.4,152.9,252.4c22,98.1,17.9,200.1,6.1,299.9
			c-28,236.4-98.6,466.9-114.6,704.4c-16.1,237.5,32.3,495.6,204,660.5l-121.2-23.8c-160.3-177.8-187.1-440-159.6-677.8
			c27.5-237.8,100.7-469.9,109.8-709.1c3.9-102.1-4.8-207.3-48.4-299.7c-43.6-92.4-127.3-170.4-228.3-186
			c-85-13.1-169.9,17.8-255.5,27c-85.5,9.3-188-14.2-221.6-93.4c-23.3-54.9-4.4-120.1,31.4-167.8c35.8-47.6,86.4-81.6,134.8-116.3
			C364.8,721.3,504.3,597,611.6,447.2C718.9,297.4,793,120.6,804-63.4c3.4-56.6,1.4-115.9,26.6-166.7
			C855.8-280.8,920.6-317.8,970.2-290.1L970.2-290.1z"/>
		<path class="st2" d="M231.7,1290.1c74.6-19.8,143.9-63.1,221-65.1c82.3-2.2,160.8,45.3,209.8,111.4c49,66.1,71.5,148.7,79.1,230.7
			c28.7,311.7-143.3,610.6-144.9,923.7c-1,208.6,75,412.6,188.6,587.6l-57.5-19.3c-108.4-138.3-168.4-311-185.4-485.9
			c-16.9-174.9,7.8-352.1,56.1-521.1c31-108.5,72-214.8,89.3-326.3c17.3-111.5,8.6-232.2-53.2-326.7
			c-33.7-51.5-87.6-95.2-149.2-95.2c-53.5,0-100.7,32.1-149.6,53.8c-88.4,39.2-191.1,45.1-283.4,16.3
			c-92.3-28.8-173.4-92-223.8-174.6l10.5-47C-73.4,1270.8,89.3,1327.9,231.7,1290.1L231.7,1290.1z"/>
		<path class="st2" d="M252.5,1468.2c47.2-18.1,92.3-46.7,142.8-47.9c64.5-1.5,123.2,44.5,152.6,101.9
			c29.4,57.4,34.2,124.2,31.6,188.7c-8.5,206.5-86.9,404-109.5,609.4c-27.4,248.5,30.1,505.7,160.7,718.9l-32.1,30.8
			c-96.4-32.5-169.4-116.1-208.5-210c-39.1-93.9-48-197.6-47.8-299.2c0.4-174.8,26.5-349.4,77.2-516.7
			c33.4-110.4,77.9-219.7,81.9-334.9c1.7-50.1-6-104.3-40.5-140.8c-33.5-35.4-86.2-46.7-134.8-42.9c-48.6,3.8-95.2,20.6-142.2,33.3
			c-61.2,16.7-125.3,26.8-188.2,18.1c-62.8-8.7-124.7-37.9-163.1-88.4c-38.4-50.5-49.3-123.6-18.1-178.9
			C-103.1,1457.4,94.4,1529,252.5,1468.2L252.5,1468.2z"/>
		<path class="st2" d="M-36.7,1683.2c62.1,3.7,124-9.7,183.4-28.2c40.7-12.8,81.3-28.1,123.8-30.3s88.7,11.5,113.5,46.3
			c23.6,33.3,22.8,77.6,18.7,118.2c-14.3,141.1-138.6,466.3-129.5,819.1c8.6,332.3,218.2,469.4,218.2,469.4l-676.1,26.4
			l-20.5-1490.6C-205.2,1613.3-98.8,1679.5-36.7,1683.2L-36.7,1683.2z"/>
		<path class="st1" d="M-23.3,1769.3c45.4,3.3,90.7-8.8,134.1-25.6c29.7-11.5,59.4-25.5,90.5-27.4c31.1-2,64.9,10.5,83,41.9
			c17.3,30.1,16.7,70.3,13.7,107.1c-10.5,127.8-101.4,422.4-94.7,742c6.3,301.1,159.5,425.3,159.5,425.3l-494.4,23.9l-15-1350.4
			C-146.6,1706.1-68.7,1766.1-23.3,1769.3L-23.3,1769.3z"/>
		<path class="st2" d="M-22.4,1842.3c37.2,3,74.4-8,110-23.4c24.4-10.6,48.7-23.4,74.3-25.1c25.5-1.8,53.2,9.6,68,38.5
			c14.2,27.6,13.7,64.4,11.2,98.2c-8.6,117.1-83.1,387.3-77.7,680.3c5.1,276.1,130.8,389.9,130.8,389.9l-405.5,21.9l-12.3-1238.1
			C-123.5,1784.3-59.6,1839.3-22.4,1842.3L-22.4,1842.3z"/>
		<path class="st1" d="M36,1882.7c38.6,5.9,69.8-25.1,107.8-20.7c20.9,2.4,38.3,16.8,47.4,33.7c9.1,17,11,36.4,10.9,55.3
			c-0.6,87.4-42.1,170.1-66,255c-43.5,154.2-37,317.5-5.9,473.3c38.6,193.8,107.6,307.6,107.6,307.6s-252.3,9.3-306.8,11.6
			c-38.5-350.1-31.4-720.2-34.6-1072.3c-0.2-22.7,1.7-49.2,22.5-62.3c18.7-11.8,44.5-7.1,65.4,1C1.3,1871.4,18.1,1879.9,36,1882.7
			L36,1882.7z"/>
		<path class="st2" d="M24.6,1919.8c28.8,6,51.9-23.4,80.3-18.8c15.6,2.5,28.7,16.3,35.6,32.6c6.9,16.3,8.5,34.8,8.6,52.9
			c0.2,83.5-29.9,162.1-47.1,243c-31.2,147-24.9,302.9-0.4,452.1c30.5,185.4,82.9,294.7,82.9,294.7s-188.1,6.8-228.8,8.6
			c-31.6-334.7-29.5-688.2-34.8-1024.5c-0.4-21.7,0.9-47,16.3-59.3c13.9-11.1,33.1-6.4,48.8,1.5
			C-1.3,1908.8,11.3,1917.1,24.6,1919.8L24.6,1919.8z"/>
		<path class="st1" d="M1966.1,1777.3c-204.7,31.2-424.8-61.2-615.3,21.5c-114,49.5-197.2,156.5-243.4,273.9
			c-46.2,117.4-59.4,245.4-66.1,371.6c-4.2,78.3-1.6,167.7,56,219.7c51.9,46.9,131.6,45.1,197.1,22c65.5-23.1,123.7-64.1,188.4-89.5
			c144-56.5,317-27.4,435.5,73.4c23.9,20.3,45.4,43.4,64.3,68.5c70.1,93.4,103.6,215.6,88.7,332.4l228.3-1491.4
			c-77.9,101.3-192.9,171.8-317,195C1977.2,1775.5,1971.7,1776.5,1966.1,1777.3L1966.1,1777.3z"/>
		<path class="st2" d="M2204.3,1745.4l-129.5,1005.4c-36.1-125.2-159.6-210.1-287.3-236s-259.9-3.1-387.2,24.7
			c-36.5,8-73.4,16.4-110.7,14.9c-37.3-1.4-75.8-14-100.7-41.9c-24.1-27.1-32.3-64.6-37.6-100.5c-11.8-80.8-12.8-164,6.4-243.4
			c19.2-79.3,59.6-154.9,121.5-208.2c81.9-70.6,193.4-96.9,301.4-103.5c107.9-6.5,216.5,4.3,324.3-3.1
			C2012.9,1846.4,2124.2,1818.1,2204.3,1745.4z"/>
		<path class="st1" d="M2022.4,1917.5c48.5-1.9,98.4-16.1,133.3-49.8l-103.8,731c-6-53-56.6-89.2-106-109.3
			c-92.7-37.7-195.2-43.4-295.3-40.9c-100.1,2.5-200.3,12.6-300,4.6c-33.5-2.7-68.5-8.1-95.2-28.5c-29.1-22.2-43.6-58.8-49.9-94.8
			c-17.9-102.1,21.7-209.5,92.2-285.4c70.6-75.9,169.2-122,270.9-141.7c101.7-19.7,206.8-14.6,309.3,0.4
			C1925.8,1910.2,1973.9,1919.4,2022.4,1917.5L2022.4,1917.5z"/>
		<path class="st2" d="M2113.4,1997.7l-58.1,500.8c-55.3-51.9-102.8-65.4-145.7-73.3c-98.6-18-199.2-25.3-299.4-21.7
			c-49,1.8-98.4,6.2-146.9-0.7c-48.6-6.9-97.4-26.7-128.3-64.8c-34.2-42.3-41.4-102.8-25.2-154.7c16.2-52,53.5-95.6,98.1-126.8
			c44.5-31.2,96.2-51,148.4-66.2C1725.8,1941.4,1908.5,1939.2,2113.4,1997.7L2113.4,1997.7z"/>
		<path class="st1" d="M2077.1,2042.2l-38.3,376.4c-171.4-46.5-311.3-67-451.9-74.6c-38.8-2.1-78.3-3.4-114.9-16.2
			c-36.7-12.8-70.8-39.4-81.9-76.7c-10.8-36.2,2.3-76.4,26.3-105.5c24-29.1,57.5-48.8,91.8-64.6
			C1672.9,2004.9,1862.7,2005.9,2077.1,2042.2L2077.1,2042.2z"/>
		<path class="st2" d="M2055.3,2087l-32.5,283.5c-150.7-38.4-269.4-53.8-388.7-59.6c-32.9-1.6-66.4-2.5-97.5-12.2
			c-31.1-9.7-60.1-29.7-69.5-57.7c-9.2-27.2,2-57.5,22.3-79.5c20.4-21.9,48.8-36.8,77.9-48.7C1707,2055.6,1868.1,2056.4,2055.3,2087
			L2055.3,2087z"/>
		<path class="st1" d="M2041.7,2108.2l-26.4,230.5c-129-33.7-225.4-46.3-322.4-51c-26.7-1.3-54-2.1-79.3-9.9
			c-25.3-7.8-48.8-24.1-56.5-47c-7.4-22.1,1.6-46.8,18.1-64.6c16.5-17.9,39.7-29.9,63.3-39.6
			C1752.2,2080.1,1883.1,2080.7,2041.7,2108.2z"/>
		<path class="st1" d="M1100.7-367.4c26.2,120.5,32.2,244.8,19.6,367.4c-27.6,270.1-145.4,531.6-336,725.3
			c-33.9,34.5-72.4,86.2-43.9,125.2c14.1,19.2,39.4,25.6,61.9,33.7c122.5,43.9,199.6,170.3,224.1,298.1c24.5,127.8,6,259.3-7,388.8
			c-3.9,38.6-4.8,83.8,24.8,108.9c25,21.2,63.4,18.8,92.8,4.3c29.4-14.5,52.7-38.7,77.5-60c90.4-77.6,209.9-120.5,329-118.1
			c129,2.6,255.5,55.9,383.7,41c17.9-2.1,35.6-5.5,52.9-10.4c96.5-26.7,181.8-94,228.3-182.9l129.2-1748.7
			C1925-400.5,1512.4-391.4,1100.7-367.4z"/>
		<path class="st2" d="M2151.9,1316.7c-21.1,71.3-90.2,120.7-162.8,137.3c-72.5,16.6-148.4,5.7-221.2-9.5
			c-72.8-15.2-145.5-34.8-219.9-35.4c-81.9-0.8-164,22.1-233.7,65.1c-25.6,15.8-49.9,34.4-78.1,45c-28.2,10.6-62.2,11.7-86.4-6.3
			c-38.3-28.4-33.9-86.1-25.6-133.1c13.8-77.7,27.8-156.3,21.4-234.9c-6.4-78.6-35.5-158.5-95-210.2c-39.2-34.1-93.7-60-104.7-110.8
			c-10.1-46.4,21.6-90.4,49.4-128.9c194-268.3,276.9-614.3,225.8-941.3c332.9-13.7,665.9-27.5,998.9-41.2L2151.9,1316.7
			L2151.9,1316.7z"/>
		<path class="st1" d="M2204.3-166.9l-31.8,1477.3c-135.4,81.9-248.4,98-344.3,81.8c-95.9-16.2-187.4-56.8-284.5-63
			c-64.3-4.1-129.7,7.4-188.7,33.3c-21.8,9.6-45.2,21.3-68.3,15.6c-23.4-5.8-39.3-28.9-44.2-52.5c-4.9-23.6-1.2-48.1,2-72
			c15.4-117,12.3-246-59.3-339.8c-27.6-36.1-65.8-68.9-70.4-114c-4.5-43.6,24.2-82.7,48.5-119.1c158.8-237.4,182.7-538,188.5-823.6
			C1608.8-163.7,1866.8-170.9,2204.3-166.9L2204.3-166.9z"/>
		<path class="st2" d="M2168.7,1273.6c-181.7,37.1-255.3,40.3-320.2,27.2c-64.8-13.1-126.6-39.9-192.1-49.3
			c-66.1-9.5-134.7-0.5-196.1,25.7c-21.1,9-41.7,20-64.3,23.8c-22.6,3.8-48.5-1.2-62.5-19.4c-24.1-31.1-1-74.6,13.2-111.3
			c29.5-76.3,13.8-168.2-39.4-230.3c-28-32.7-66.7-60-76.8-101.8c-10.4-43.5,14-86.8,35.7-126c132.2-238.1,196.5-513.5,183.3-785.6
			c204-4.2,408-8.3,743.6-6.4L2168.7,1273.6L2168.7,1273.6z"/>
		<path class="st1" d="M1873.9-17.1c38.6,2.9,309.8,3.6,309.8,3.6l5.1,1235.9c-0.4,5.4-308.4-18.8-337.7-21.1
			c-107.8-8.4-226.6-33.1-331.2,4c-29.6,10.5-67.8,22.8-88.1-1.1c-20.2-23.7-2.4-58.8,7.6-88.3c14-41.2,10.2-88.1-10.2-126.6
			c-21.6-40.7-61.1-73.2-68.7-118.6c-6.6-39.4,12.7-78,30-114.1c87.3-182.2,136-382.7,142-584.6c1.4-47.1,2.1-98.9,33.1-134.4
			c26.9-30.9,69.9-41.4,110.4-47.4C1741.5-19.6,1808-22.1,1873.9-17.1L1873.9-17.1z"/>
		<path class="st2" d="M1964.1,68c49.1,16.2,108.6,19,160.2,22.5l-32.4,1079.3c-86.3,17.8-168.8-36.2-251.7-65.9
			c-65.1-23.2-135.3-31.9-204-25.1c-33.5,3.3-71.7,8.9-97.2-13.1c-26.2-22.7-25.3-62.9-22.3-97.5c15.6-176.1,31.1-352.3,46.6-528.4
			c7.6-86.6,16.4-176.7,62-250.7C1693.1,79,1841.2,27.6,1964.1,68L1964.1,68z"/>
		<path class="st1" d="M1941.8,152.6c41.5,13.6,91.8,16,135.4,19l-27.4,912.1c-73,15-142.6-30.6-212.8-55.6
			c-55-19.6-114.3-26.9-172.4-21.2c-28.4,2.8-60.6,7.5-82.2-11.1c-22.2-19.2-21.4-53.2-18.9-82.4c13.1-148.9,26.3-297.7,39.4-446.5
			c6.4-73.1,13.9-149.3,52.3-211.9C1712.7,161.9,1837.8,118.5,1941.8,152.6L1941.8,152.6z"/>
		<path class="st1" d="M1175.7,2970h617.8c-0.7-10.4-2.2-20.8-4.6-31c-16.5-69.1-72.9-127.2-141.4-145.7
			C1482.6,2748.9,1334.8,2918.8,1175.7,2970z"/>
		<path class="st2" d="M1120.3,0h-123c-39.3,331.4-224.6,645.2-501,833.5c-42.1,28.6-92.5,73.6-71.5,119.9
			c23.1,51.2,97.7,34.1,153.2,25.6c128.1-19.6,256.9,60,324.7,170.4c67.8,110.4,83.6,245.5,77.8,374.9
			C963.3,1908.9,772,2281.4,822.7,2663c16.7,125.4,77.3,263.2,191.3,307h161.6c159.1-51.2,306.9-221.1,471.7-176.7
			c68.6,18.5,125,76.6,141.4,145.7c2.4,10.2,4,20.6,4.6,31h69.3c-7.9-60-33.5-117.7-74.5-162.2c-71.4-77.7-186.6-112.2-288.9-86.6
			c-78,19.5-144.2,69.5-215.1,107.4c-71,37.9-157,64-230.9,32.2c-53.9-23.2-91.5-73.6-116.9-126.5c-82.4-171.2-58.8-374.2-9.4-557.7
			c55.4-205.8,154.3-418.3,342.7-517.8c162.7-86,358.4-70.4,540.9-46.8c55.6,7.2,113.6,14.6,169.4,11.7v-86.9
			c-17.3,4.8-35,8.3-52.9,10.4c-128.2,14.9-254.7-38.4-383.7-41c-119.2-2.4-238.6,40.5-329,118.1c-24.9,21.3-48.1,45.5-77.5,60
			c-29.4,14.5-67.8,16.9-92.8-4.3c-29.6-25.1-28.6-70.2-24.8-108.9c13.1-129.5,31.5-261,7-388.8
			c-24.5-127.8-101.6-254.3-224.1-298.1c-22.5-8.1-47.8-14.4-61.9-33.7c-28.6-39,9.9-90.7,43.9-125.2
			C975,531.6,1092.7,270.1,1120.3,0z"/>
	</g>
</g>
</svg>
