<?xml version="1.0" encoding="utf-8"?>
<!-- Generator: Adobe Illustrator 24.3.0, SVG Export Plug-In . SVG Version: 6.00 Build 0)  -->
<svg version="1.1" id="Layer_1" xmlns="http://www.w3.org/2000/svg" xmlns:xlink="http://www.w3.org/1999/xlink" x="0px" y="0px"
	 viewBox="0 0 34.49 34.49" style="enable-background:new 0 0 34.49 34.49;" xml:space="preserve">
<style type="text/css">
	.st0{fill:#FFFFFF;}
</style>
<path class="st0" d="M17.25,0C7.72,0,0,7.72,0,17.25c0,9.53,7.72,17.25,17.25,17.25c9.53,0,17.25-7.72,17.25-17.25
	C34.49,7.72,26.77,0,17.25,0z M17.25,8.62c1.19,0,2.16,0.97,2.16,2.16s-0.97,2.16-2.16,2.16c-1.19,0-2.16-0.96-2.16-2.16
	C15.09,9.59,16.05,8.62,17.25,8.62z M19.94,25.87h-5.39c-0.89,0-1.62-0.72-1.62-1.62c0-0.9,0.72-1.62,1.62-1.62h1.08v-4.31h-0.54
	c-0.89,0-1.62-0.72-1.62-1.62c0-0.89,0.73-1.62,1.62-1.62h2.16c0.89,0,1.62,0.72,1.62,1.62v5.93h1.08c0.89,0,1.62,0.72,1.62,1.62
	C21.56,25.15,20.84,25.87,19.94,25.87z"/>
</svg>
