<?xml version="1.0" encoding="utf-8"?>
<!-- Generator: Adobe Illustrator 24.3.0, SVG Export Plug-In . SVG Version: 6.00 Build 0)  -->
<svg version="1.1" id="Layer_1" xmlns="http://www.w3.org/2000/svg" xmlns:xlink="http://www.w3.org/1999/xlink" x="0px" y="0px"
	 viewBox="0 0 21.56 34.49" style="enable-background:new 0 0 21.56 34.49;" xml:space="preserve">
<style type="text/css">
	.st0{fill:#FFFFFF;}
</style>
<path class="st0" d="M0,4.31c0-1.14,0.45-2.24,1.26-3.05S3.17,0,4.31,0h12.94c1.14,0,2.24,0.45,3.05,1.26s1.26,1.91,1.26,3.05v25.87
	c0,1.14-0.45,2.24-1.26,3.05c-0.81,0.81-1.91,1.26-3.05,1.26H4.31c-1.14,0-2.24-0.45-3.05-1.26C0.45,32.42,0,31.33,0,30.18V4.31z
	 M12.94,28.03c0-0.57-0.23-1.12-0.63-1.52c-0.4-0.4-0.95-0.63-1.52-0.63c-0.57,0-1.12,0.23-1.52,0.63c-0.4,0.4-0.63,0.95-0.63,1.52
	c0,0.57,0.23,1.12,0.63,1.52c0.4,0.4,0.95,0.63,1.52,0.63c0.57,0,1.12-0.23,1.52-0.63C12.71,29.15,12.94,28.6,12.94,28.03z"/>
</svg>
