<?xml version="1.0" encoding="utf-8"?>
<!-- Generator: Adobe Illustrator 24.3.0, SVG Export Plug-In . SVG Version: 6.00 Build 0)  -->
<svg version="1.1" id="Layer_1" xmlns="http://www.w3.org/2000/svg" xmlns:xlink="http://www.w3.org/1999/xlink" x="0px" y="0px"
	 viewBox="0 0 39.42 34.49" style="enable-background:new 0 0 39.42 34.49;" xml:space="preserve">
<style type="text/css">
	.st0{fill:#FFFFFF;}
</style>
<path class="st0" d="M36.96,0H9.86C8.49,0,7.39,1.1,7.39,2.46v25.87c0,0.68-0.55,1.23-1.23,1.23c-0.68,0-1.23-0.55-1.23-1.23V4.93
	H2.46C1.1,4.93,0,6.03,0,7.39v22.17c0,2.72,2.21,4.93,4.93,4.93h29.57c2.72,0,4.93-2.21,4.93-4.93V2.46C39.42,1.1,38.32,0,36.96,0z
	 M20.94,29.57h-7.39c-0.68,0-1.23-0.55-1.23-1.23c0-0.68,0.55-1.23,1.23-1.23h7.39c0.68,0,1.23,0.55,1.23,1.23
	C22.17,29.01,21.62,29.57,20.94,29.57z M20.94,22.17h-7.39c-0.68,0-1.23-0.55-1.23-1.23c0-0.68,0.55-1.23,1.23-1.23h7.39
	c0.68,0,1.23,0.55,1.23,1.23C22.17,21.62,21.62,22.17,20.94,22.17z M33.26,29.57h-7.39c-0.68,0-1.23-0.55-1.23-1.23
	c0-0.68,0.55-1.23,1.23-1.23h7.39c0.68,0,1.23,0.55,1.23,1.23C34.49,29.01,33.94,29.57,33.26,29.57z M33.26,22.17h-7.39
	c-0.68,0-1.23-0.55-1.23-1.23c0-0.68,0.55-1.23,1.23-1.23h7.39c0.68,0,1.23,0.55,1.23,1.23C34.49,21.62,33.94,22.17,33.26,22.17z
	 M34.49,13.55c0,0.68-0.55,1.23-1.23,1.23H13.55c-0.68,0-1.23-0.55-1.23-1.23V6.16c0-0.68,0.55-1.23,1.23-1.23h19.71
	c0.68,0,1.23,0.55,1.23,1.23V13.55z"/>
</svg>
