<?xml version="1.0" encoding="utf-8"?>
<!-- Generator: Adobe Illustrator 24.3.0, SVG Export Plug-In . SVG Version: 6.00 Build 0)  -->
<svg version="1.1" id="Layer_1" xmlns="http://www.w3.org/2000/svg" xmlns:xlink="http://www.w3.org/1999/xlink" x="0px" y="0px"
	 viewBox="0 0 34.49 34.49" style="enable-background:new 0 0 34.49 34.49;" xml:space="preserve">
<style type="text/css">
	.st0{fill:#FFFFFF;}
</style>
<path class="st0" d="M0,33.11c0,0.76,0.62,1.38,1.38,1.38h31.73c0.76,0,1.38-0.62,1.38-1.38V15H0V33.11z M33.11,3.1h-7.24V0.34
	c0-0.19-0.16-0.34-0.34-0.34h-2.41c-0.19,0-0.35,0.16-0.35,0.34V3.1H11.73V0.34c0-0.19-0.16-0.34-0.35-0.34H8.97
	C8.78,0,8.62,0.16,8.62,0.34V3.1H1.38C0.62,3.1,0,3.72,0,4.48v7.59h34.49V4.48C34.49,3.72,33.88,3.1,33.11,3.1z"/>
</svg>
