<?xml version="1.0" encoding="utf-8"?>
<!-- Generator: Adobe Illustrator 24.3.0, SVG Export Plug-In . SVG Version: 6.00 Build 0)  -->
<svg version="1.1" id="Layer_1" xmlns="http://www.w3.org/2000/svg" xmlns:xlink="http://www.w3.org/1999/xlink" x="0px" y="0px"
	 viewBox="0 0 36.53 34.49" style="enable-background:new 0 0 36.53 34.49;" xml:space="preserve">
<style type="text/css">
	.st0{fill:#FFFFFF;}
</style>
<path class="st0" d="M35.78,16.96L19.18,0.38c-0.12-0.12-0.26-0.21-0.42-0.28S18.44,0,18.27,0c-0.17,0-0.34,0.03-0.49,0.1
	c-0.16,0.06-0.3,0.16-0.42,0.28L0.76,16.96C0.27,17.45,0,18.1,0,18.79c0,1.42,1.16,2.58,2.58,2.58h1.75V33.2
	c0,0.71,0.58,1.29,1.29,1.29h10.07h4.51h10.72c0.71,0,1.29-0.58,1.29-1.29V21.37h1.75c0.69,0,1.34-0.27,1.83-0.76
	C36.78,19.6,36.78,17.97,35.78,16.96z"/>
</svg>
