<?xml version="1.0" encoding="utf-8"?>
<!-- Generator: Adobe Illustrator 24.3.0, SVG Export Plug-In . SVG Version: 6.00 Build 0)  -->
<svg version="1.1" id="Layer_1" xmlns="http://www.w3.org/2000/svg" xmlns:xlink="http://www.w3.org/1999/xlink" x="0px" y="0px"
	 viewBox="0 0 43.11 34.49" style="enable-background:new 0 0 43.11 34.49;" xml:space="preserve">
<style type="text/css">
	.st0{fill:#FFFFFF;}
</style>
<path class="st0" d="M32.87,12.88H22.63v3.49c0,2.54-1.82,4.85-4.35,5.1c-2.9,0.29-5.35-1.98-5.35-4.82V8.52l-1.65,0.99
	c-2.98,1.8-4.81,5.02-4.81,8.51l-5.39,3.12c-1.03,0.59-1.39,1.91-0.79,2.94l5.39,9.34c0.6,1.03,1.92,1.38,2.95,0.79l6.96-4.02h9.2
	c2.37,0,4.31-1.94,4.31-4.31c1.79,0,3.23-1.45,3.23-3.23V19.4h0.54c0.89,0,1.62-0.72,1.62-1.62v-3.23
	C34.49,13.66,33.77,12.88,32.87,12.88z M42.82,10.41l-5.39-9.34c-0.6-1.03-1.92-1.38-2.95-0.79l-6.96,4.02h-4.21
	c-2.55,0-5.05,0.71-7.21,2.06c-0.62,0.4-1.01,1.08-1.01,1.82v8.51c0,1.49,1.2,2.69,2.69,2.69c1.49,0,2.69-1.2,2.69-2.69v-5.99h12.39
	c2.08,0,3.77,1.69,3.77,3.77v1.92l5.39-3.12C43.06,12.76,43.41,11.44,42.82,10.41z"/>
</svg>
