<?xml version="1.0" encoding="utf-8"?>
<!-- Generator: Adobe Illustrator 24.3.0, SVG Export Plug-In . SVG Version: 6.00 Build 0)  -->
<svg version="1.1" id="Layer_1" xmlns="http://www.w3.org/2000/svg" xmlns:xlink="http://www.w3.org/1999/xlink" x="0px" y="0px"
	 viewBox="0 0 41.39 34.49" style="enable-background:new 0 0 41.39 34.49;" xml:space="preserve">
<style type="text/css">
	.st0{fill:#FFFFFF;}
</style>
<path class="st0" d="M0,8.62c0-2.29,0.91-4.48,2.53-6.1S6.34,0,8.62,0h24.15c2.29,0,4.48,0.91,6.1,2.53s2.53,3.81,2.53,6.1v17.25
	c0,2.29-0.91,4.48-2.53,6.1c-1.62,1.62-3.81,2.53-6.1,2.53H8.62c-2.29,0-4.48-0.91-6.1-2.53C0.91,30.35,0,28.16,0,25.87V8.62z
	 M15.52,9.73v15.04c0,0.86,0.95,1.39,1.68,0.94l11.24-6.87c0.27-0.17,0.5-0.4,0.65-0.68c0.16-0.28,0.24-0.59,0.24-0.91
	c0-0.32-0.08-0.63-0.24-0.91c-0.16-0.28-0.38-0.51-0.65-0.68L17.2,8.79c-0.17-0.1-0.36-0.16-0.55-0.16c-0.2,0-0.39,0.05-0.56,0.14
	c-0.17,0.1-0.31,0.24-0.41,0.4C15.57,9.34,15.52,9.54,15.52,9.73L15.52,9.73z"/>
</svg>
