<?xml version="1.0" encoding="utf-8"?>
<!-- Generator: Adobe Illustrator 24.3.0, SVG Export Plug-In . SVG Version: 6.00 Build 0)  -->
<svg version="1.1" id="Layer_1" xmlns="http://www.w3.org/2000/svg" xmlns:xlink="http://www.w3.org/1999/xlink" x="0px" y="0px"
	 viewBox="0 0 39.51 36.6" style="enable-background:new 0 0 39.51 36.6;" xml:space="preserve">
<style type="text/css">
	.st0{fill-rule:evenodd;clip-rule:evenodd;fill:#FFFFFF;enable-background:new    ;}
</style>
<path class="st0" d="M16.66,0.18c-0.51,0.34-0.53,0.47-0.53,2.8c0,1.83,0.02,2.12,0.14,2.35c0.42,0.83,1.63,0.83,2.05,0
	c0.12-0.24,0.14-0.52,0.14-2.35c0-1.83-0.02-2.12-0.14-2.35C18.11,0.23,17.73,0,17.28,0C17.03,0,16.84,0.06,16.66,0.18z M9.89,2.62
	C9.46,2.88,9.27,3.33,9.37,3.84c0.04,0.24,0.25,0.48,1.15,1.4c0.6,0.61,1.19,1.16,1.3,1.22c0.64,0.34,1.52-0.08,1.65-0.78
	c0.1-0.54,0-0.71-1.15-1.88c-0.6-0.61-1.19-1.16-1.3-1.22C10.72,2.42,10.19,2.44,9.89,2.62z M23.5,2.62
	c-0.13,0.08-0.71,0.63-1.29,1.22c-0.86,0.87-1.06,1.12-1.11,1.35c-0.14,0.76,0.36,1.38,1.12,1.38c0.17,0,0.41-0.05,0.52-0.11
	c0.11-0.06,0.7-0.61,1.3-1.22C25.2,4.07,25.3,3.9,25.2,3.36c-0.06-0.31-0.29-0.62-0.59-0.78C24.31,2.43,23.78,2.44,23.5,2.62z
	 M6.95,9.39C6.37,9.54,5.7,9.91,5.18,10.37c-0.76,0.66-0.89,0.7-2.78,0.73c-1.52,0.03-1.66,0.04-1.89,0.2
	c-0.14,0.09-0.31,0.29-0.39,0.44C0,11.99-0.01,12.48,0.01,19.43c0.02,7.41,0.02,7.43,0.18,7.64c0.09,0.12,0.28,0.29,0.42,0.37
	c0.24,0.14,0.43,0.16,2.7,0.18l2.44,0.02l4.36,4.1c2.4,2.25,4.53,4.21,4.74,4.35c0.88,0.58,2.17,0.66,3.15,0.21
	c0.97-0.46,1.81-1.51,1.95-2.45c0.04-0.29,0.08-0.35,0.26-0.39c0.96-0.21,1.23-0.35,1.81-0.88c0.48-0.44,0.94-1.24,1.02-1.81
	c0.04-0.29,0.08-0.35,0.26-0.39c0.96-0.21,1.23-0.35,1.81-0.88c0.48-0.44,0.94-1.24,1.02-1.81c0.04-0.29,0.08-0.35,0.26-0.39
	c1.26-0.27,2.08-0.89,2.58-1.95c0.23-0.48,0.24-0.57,0.24-1.37c0-0.79-0.02-0.88-0.25-1.37c-0.14-0.29-0.41-0.69-0.61-0.91
	l-0.36-0.39l-0.7,0c-2.62-0.01-4.47-0.39-6.24-1.28l-0.67-0.34l-0.64,0.44c-0.74,0.5-1.2,0.72-2.13,1.01
	c-0.59,0.18-0.79,0.2-1.83,0.2c-0.95,0-1.27-0.03-1.78-0.17c-0.74-0.2-1.55-0.58-2.22-1.02c-0.66-0.44-2.21-2.02-2.47-2.51
	c-0.76-1.42-0.51-3.06,0.63-4.17c0.24-0.23,1.43-1.23,2.67-2.24c1.23-1,2.25-1.86,2.26-1.9c0.02-0.04-1.48-0.07-3.74-0.07
	C8.1,9.27,7.28,9.3,6.95,9.39z M19.4,9.41c-0.69,0.17-1.5,0.55-2.04,0.96c-1.01,0.76-5.89,4.8-5.99,4.96
	c-0.17,0.26-0.22,0.68-0.11,0.99c0.06,0.18,0.38,0.55,0.96,1.12c0.68,0.66,1,0.91,1.44,1.13c1.03,0.51,2.12,0.63,3.17,0.36
	c0.82-0.21,1.26-0.45,2.43-1.33l1.02-0.77l0.6,0.42c1.09,0.76,2.22,1.24,3.59,1.52c0.62,0.13,1.2,0.17,2.66,0.21l1.88,0.04
	l0.65,0.68c0.76,0.8,1.03,1.18,1.4,1.94c0.68,1.44,0.67,3.21-0.04,4.73c-0.54,1.15-1.25,1.91-2.38,2.56
	c-0.51,0.29-0.61,0.39-0.82,0.78c-0.13,0.25-0.3,0.54-0.38,0.66c-0.17,0.26-0.15,0.26,0.7,0.01c0.93-0.27,1.78-0.7,2.66-1.35
	c0.8-0.59,1.5-0.98,2.16-1.2c0.36-0.12,0.82-0.14,3.05-0.18c2.44-0.04,2.64-0.06,2.89-0.2c0.14-0.08,0.34-0.25,0.42-0.37
	c0.16-0.22,0.16-0.23,0.18-7.64c0.02-6.95,0.01-7.44-0.12-7.69c-0.07-0.15-0.23-0.34-0.35-0.42c-0.21-0.15-0.33-0.16-3.71-0.2
	c-3.39-0.04-3.5-0.05-3.99-0.22c-0.28-0.1-0.71-0.32-0.95-0.49c-0.68-0.46-1.45-0.82-2.11-0.99c-0.55-0.14-0.86-0.15-4.46-0.15
	C20.42,9.28,19.88,9.29,19.4,9.41z"/>
<path class="st0" d="M16.66,0.18c-0.51,0.34-0.53,0.47-0.53,2.8c0,1.83,0.02,2.12,0.14,2.35c0.42,0.83,1.63,0.83,2.05,0
	c0.12-0.24,0.14-0.52,0.14-2.35c0-1.83-0.02-2.12-0.14-2.35C18.11,0.23,17.73,0,17.28,0C17.03,0,16.84,0.06,16.66,0.18z M9.89,2.62
	C9.46,2.88,9.27,3.33,9.37,3.84c0.04,0.24,0.25,0.48,1.15,1.4c0.6,0.61,1.19,1.16,1.3,1.22c0.64,0.34,1.52-0.08,1.65-0.78
	c0.1-0.54,0-0.71-1.15-1.88c-0.6-0.61-1.19-1.16-1.3-1.22C10.72,2.42,10.19,2.44,9.89,2.62z M23.5,2.62
	c-0.13,0.08-0.71,0.63-1.29,1.22c-0.86,0.87-1.06,1.12-1.11,1.35c-0.14,0.76,0.36,1.38,1.12,1.38c0.17,0,0.41-0.05,0.52-0.11
	c0.11-0.06,0.7-0.61,1.3-1.22C25.2,4.07,25.3,3.9,25.2,3.36c-0.06-0.31-0.29-0.62-0.59-0.78C24.31,2.43,23.78,2.44,23.5,2.62z
	 M6.95,9.39C6.37,9.54,5.7,9.91,5.18,10.37c-0.76,0.66-0.89,0.7-2.78,0.73c-1.52,0.03-1.66,0.04-1.89,0.2
	c-0.14,0.09-0.31,0.29-0.39,0.44C0,11.99-0.01,12.48,0.01,19.43c0.02,7.41,0.02,7.43,0.18,7.64c0.09,0.12,0.28,0.29,0.42,0.37
	c0.24,0.14,0.43,0.16,2.7,0.18l2.44,0.02l4.36,4.1c2.4,2.25,4.53,4.21,4.74,4.35c0.88,0.58,2.17,0.66,3.15,0.21
	c0.97-0.46,1.81-1.51,1.95-2.45c0.04-0.29,0.08-0.35,0.26-0.39c0.96-0.21,1.23-0.35,1.81-0.88c0.48-0.44,0.94-1.24,1.02-1.81
	c0.04-0.29,0.08-0.35,0.26-0.39c0.96-0.21,1.23-0.35,1.81-0.88c0.48-0.44,0.94-1.24,1.02-1.81c0.04-0.29,0.08-0.35,0.26-0.39
	c1.26-0.27,2.08-0.89,2.58-1.95c0.23-0.48,0.24-0.57,0.24-1.37c0-0.79-0.02-0.88-0.25-1.37c-0.14-0.29-0.41-0.69-0.61-0.91
	l-0.36-0.39l-0.7,0c-2.62-0.01-4.47-0.39-6.24-1.28l-0.67-0.34l-0.64,0.44c-0.74,0.5-1.2,0.72-2.13,1.01
	c-0.59,0.18-0.79,0.2-1.83,0.2c-0.95,0-1.27-0.03-1.78-0.17c-0.74-0.2-1.55-0.58-2.22-1.02c-0.66-0.44-2.21-2.02-2.47-2.51
	c-0.76-1.42-0.51-3.06,0.63-4.17c0.24-0.23,1.43-1.23,2.67-2.24c1.23-1,2.25-1.86,2.26-1.9c0.02-0.04-1.48-0.07-3.74-0.07
	C8.1,9.27,7.28,9.3,6.95,9.39z M19.4,9.41c-0.69,0.17-1.5,0.55-2.04,0.96c-1.01,0.76-5.89,4.8-5.99,4.96
	c-0.17,0.26-0.22,0.68-0.11,0.99c0.06,0.18,0.38,0.55,0.96,1.12c0.68,0.66,1,0.91,1.44,1.13c1.03,0.51,2.12,0.63,3.17,0.36
	c0.82-0.21,1.26-0.45,2.43-1.33l1.02-0.77l0.6,0.42c1.09,0.76,2.22,1.24,3.59,1.52c0.62,0.13,1.2,0.17,2.66,0.21l1.88,0.04
	l0.65,0.68c0.76,0.8,1.03,1.18,1.4,1.94c0.68,1.44,0.67,3.21-0.04,4.73c-0.54,1.15-1.25,1.91-2.38,2.56
	c-0.51,0.29-0.61,0.39-0.82,0.78c-0.13,0.25-0.3,0.54-0.38,0.66c-0.17,0.26-0.15,0.26,0.7,0.01c0.93-0.27,1.78-0.7,2.66-1.35
	c0.8-0.59,1.5-0.98,2.16-1.2c0.36-0.12,0.82-0.14,3.05-0.18c2.44-0.04,2.64-0.06,2.89-0.2c0.14-0.08,0.34-0.25,0.42-0.37
	c0.16-0.22,0.16-0.23,0.18-7.64c0.02-6.95,0.01-7.44-0.12-7.69c-0.07-0.15-0.23-0.34-0.35-0.42c-0.21-0.15-0.33-0.16-3.71-0.2
	c-3.39-0.04-3.5-0.05-3.99-0.22c-0.28-0.1-0.71-0.32-0.95-0.49c-0.68-0.46-1.45-0.82-2.11-0.99c-0.55-0.14-0.86-0.15-4.46-0.15
	C20.42,9.28,19.88,9.29,19.4,9.41z"/>
</svg>
