<svg width="32" height="25" viewBox="0 0 32 25" fill="none" xmlns="http://www.w3.org/2000/svg">
<path d="M30.4 0.999792C30.2637 0.985746 30.1263 0.985746 29.99 0.999792H1.98996C1.8105 1.00256 1.63224 1.02947 1.45996 1.07979L15.91 15.4698L30.4 0.999792Z" fill="#8338EC"/>
<path d="M31.88 2.39014L17.32 16.8901C16.9453 17.2626 16.4384 17.4717 15.91 17.4717C15.3816 17.4717 14.8747 17.2626 14.5 16.8901L0.0700001 2.50014C0.0256394 2.66318 0.00211869 2.83118 0 3.00014V23.0001C0 23.5306 0.210714 24.0393 0.585786 24.4144C0.960859 24.7894 1.46957 25.0001 2 25.0001H30C30.5304 25.0001 31.0391 24.7894 31.4142 24.4144C31.7893 24.0393 32 23.5306 32 23.0001V3.00014C31.992 2.79179 31.9516 2.58597 31.88 2.39014ZM3.37 23.0001H1.98V21.5701L9.25 14.3601L10.66 15.7701L3.37 23.0001ZM29.98 23.0001H28.58L21.29 15.7701L22.7 14.3601L29.97 21.5701L29.98 23.0001Z" fill="#8338EC"/>
</svg>
