<svg width="33" height="27" viewBox="0 0 33 27" fill="none" xmlns="http://www.w3.org/2000/svg">
<path d="M13.5 16.875C15.1875 16.875 16.9594 17.145 18.9 17.6175C17.5331 19.0856 16.875 20.8069 16.875 22.7812C16.875 24.2831 17.2969 25.7006 18.1912 27H0V23.625C0 21.6169 1.53562 19.9969 4.62375 18.765C7.71187 17.5162 10.6819 16.875 13.5 16.875ZM13.5 13.5C11.6775 13.5 10.125 12.8419 8.74125 11.5256C7.39125 10.2094 6.75 8.62313 6.75 6.75C6.75 4.9275 7.39125 3.375 8.74125 1.99125C10.125 0.64125 11.6775 0 13.5 0C15.3731 0 16.9594 0.64125 18.2756 1.99125C19.5919 3.375 20.25 4.9275 20.25 6.75C20.25 8.62313 19.5919 10.2094 18.2756 11.5256C16.9594 12.8419 15.3731 13.5 13.5 13.5ZM26.1562 10.125H32.0625V13.5H28.6875V22.7812C28.6875 23.9001 28.243 24.9732 27.4519 25.7644C26.6607 26.5555 25.5876 27 24.4688 27C23.3499 27 22.2768 26.5555 21.4856 25.7644C20.6945 24.9732 20.25 23.9001 20.25 22.7812C20.25 21.6624 20.6945 20.5893 21.4856 19.7981C22.2768 19.007 23.3499 18.5625 24.4688 18.5625C25.0763 18.5625 25.6331 18.6806 26.1562 18.9169V10.125Z" fill="#8338EC"/>
</svg>
