<svg  viewBox="0 0 15 24" fill="none" xmlns="http://www.w3.org/2000/svg">
<path d="M7.5 0C3.35827 0 0 3.45196 0 7.70924C0 11.4643 2.61329 14.5929 6.07171 15.2788V17.7604H2.85515V20.6952H6.07169V24H8.92683V20.6952H12.1434V17.7604H8.92685V15.2788C12.3859 14.5934 15 11.4648 15 7.70922C15 3.45196 11.6417 0 7.5 0ZM7.5 3.06556C9.99501 3.06556 12.0176 5.14462 12.0176 7.70924C12.0176 10.2739 9.99503 12.3529 7.5 12.3529C5.00497 12.3529 2.98236 10.2739 2.98236 7.70924C2.98236 5.14462 5.00499 3.06556 7.5 3.06556Z" fill="white"/>
</svg>
