<svg width="27" height="27" viewBox="0 0 27 27" fill="none" xmlns="http://www.w3.org/2000/svg">
<path d="M13.4966 8.99808C11.0177 8.99808 8.99471 11.0211 8.99471 13.5C8.99471 15.9789 11.0177 18.0019 13.4966 18.0019C15.9755 18.0019 17.9985 15.9789 17.9985 13.5C17.9985 11.0211 15.9755 8.99808 13.4966 8.99808ZM26.999 13.5C26.999 11.6357 27.0159 9.78837 26.9112 7.92748C26.8065 5.76602 26.3134 3.84773 24.7328 2.26716C23.1489 0.683215 21.234 0.19351 19.0725 0.0888138C17.2083 -0.0158819 15.3609 0.00100455 13.5 0.00100455C11.6357 0.00100455 9.78837 -0.0158819 7.92748 0.0888138C5.76602 0.19351 3.84773 0.686593 2.26716 2.26716C0.683215 3.85111 0.19351 5.76602 0.0888138 7.92748C-0.0158819 9.79174 0.00100455 11.6391 0.00100455 13.5C0.00100455 15.3609 -0.0158819 17.2116 0.0888138 19.0725C0.19351 21.234 0.686593 23.1523 2.26716 24.7328C3.85111 26.3168 5.76602 26.8065 7.92748 26.9112C9.79174 27.0159 11.6391 26.999 13.5 26.999C15.3643 26.999 17.2116 27.0159 19.0725 26.9112C21.234 26.8065 23.1523 26.3134 24.7328 24.7328C26.3168 23.1489 26.8065 21.234 26.9112 19.0725C27.0193 17.2116 26.999 15.3643 26.999 13.5ZM13.4966 20.4268C9.66341 20.4268 6.56982 17.3332 6.56982 13.5C6.56982 9.66679 9.66341 6.57319 13.4966 6.57319C17.3298 6.57319 20.4234 9.66679 20.4234 13.5C20.4234 17.3332 17.3298 20.4268 13.4966 20.4268ZM20.7071 7.90722C19.8121 7.90722 19.0894 7.18448 19.0894 6.2895C19.0894 5.39452 19.8121 4.67179 20.7071 4.67179C21.6021 4.67179 22.3248 5.39452 22.3248 6.2895C22.3251 6.50202 22.2834 6.7125 22.2022 6.90889C22.121 7.10528 22.0019 7.28373 21.8516 7.434C21.7013 7.58427 21.5229 7.70342 21.3265 7.78462C21.1301 7.86583 20.9196 7.90749 20.7071 7.90722Z" fill="#8338EC"/>
</svg>
