<svg width="37" height="27" viewBox="0 0 37 27" fill="none" xmlns="http://www.w3.org/2000/svg">
<path fill-rule="evenodd" clip-rule="evenodd" d="M35.6713 7.07831C35.776 7.18282 35.8592 7.30696 35.9159 7.44364C35.9726 7.58031 36.0018 7.72684 36.0018 7.87481C36.0018 8.02279 35.9726 8.16931 35.9159 8.30599C35.8592 8.44267 35.776 8.56681 35.6713 8.67131L28.9213 15.4213C28.8168 15.5261 28.6926 15.6092 28.5559 15.6659C28.4193 15.7226 28.2727 15.7518 28.1248 15.7518C27.9768 15.7518 27.8303 15.7226 27.6936 15.6659C27.5569 15.6092 27.4328 15.5261 27.3283 15.4213L23.9533 12.0463C23.742 11.8351 23.6234 11.5486 23.6234 11.2498C23.6234 10.9511 23.742 10.6646 23.9533 10.4533C24.1645 10.2421 24.451 10.1234 24.7498 10.1234C25.0485 10.1234 25.335 10.2421 25.5463 10.4533L28.1248 13.0341L34.0783 7.07831C34.1828 6.97355 34.3069 6.89042 34.4436 6.83371C34.5803 6.777 34.7268 6.7478 34.8748 6.7478C35.0227 6.7478 35.1693 6.777 35.3059 6.83371C35.4426 6.89042 35.5668 6.97355 35.6713 7.07831Z" fill="#8338EC"/>
<path d="M2.25 27C2.25 27 0 27 0 24.75C0 22.5 2.25 15.75 13.5 15.75C24.75 15.75 27 22.5 27 24.75C27 27 24.75 27 24.75 27H2.25ZM13.5 13.5C15.2902 13.5 17.0071 12.7888 18.273 11.523C19.5388 10.2571 20.25 8.54021 20.25 6.75C20.25 4.95979 19.5388 3.2429 18.273 1.97703C17.0071 0.711159 15.2902 0 13.5 0C11.7098 0 9.9929 0.711159 8.72703 1.97703C7.46116 3.2429 6.75 4.95979 6.75 6.75C6.75 8.54021 7.46116 10.2571 8.72703 11.523C9.9929 12.7888 11.7098 13.5 13.5 13.5Z" fill="#8338EC"/>
</svg>
