<svg  viewBox="0 0 23 24" fill="none" xmlns="http://www.w3.org/2000/svg">
<path d="M13.9591 0V3.34164H17.4761L12.8402 8.1168C11.5394 7.2439 9.9889 6.73734 8.3241 6.73734C3.72707 6.73734 0 10.6014 0 15.3683C-1.92872e-05 20.1352 3.72707 24 8.3241 24C12.9211 24 16.6475 20.1352 16.6475 15.3683C16.6475 13.5564 16.1093 11.8749 15.1893 10.4865L19.7473 5.76006V9.375H22.9699C22.9699 6.4455 23.0005 2.92188 23 0H13.9591V0ZM8.3241 10.2115C11.0708 10.2115 13.2971 12.52 13.2971 15.3683C13.2971 18.2165 11.0708 20.5258 8.3241 20.5258C5.57736 20.5258 3.35033 18.2165 3.35033 15.3683C3.35033 12.52 5.57734 10.2115 8.3241 10.2115V10.2115Z" fill="white"/>
</svg>
