<svg width="27" height="27" viewBox="0 0 27 27" fill="none" xmlns="http://www.w3.org/2000/svg">
<path d="M13.5 27C17.0804 27 20.5142 25.5777 23.0459 23.0459C25.5777 20.5142 27 17.0804 27 13.5C27 9.91958 25.5777 6.4858 23.0459 3.95406C20.5142 1.42232 17.0804 0 13.5 0C9.91958 0 6.4858 1.42232 3.95406 3.95406C1.42232 6.4858 0 9.91958 0 13.5C0 17.0804 1.42232 20.5142 3.95406 23.0459C6.4858 25.5777 9.91958 27 13.5 27V27ZM15.0694 11.1172L13.3819 19.0569C13.2637 19.6307 13.4308 19.9564 13.8949 19.9564C14.2223 19.9564 14.7167 19.8382 15.0525 19.5412L14.904 20.2433C14.4197 20.8271 13.3515 21.2524 12.4318 21.2524C11.2455 21.2524 10.7409 20.5402 11.0683 19.0266L12.3137 13.1743C12.4217 12.6799 12.3238 12.501 11.8294 12.3812L11.0683 12.2445L11.2067 11.6016L15.0711 11.1172H15.0694ZM13.5 9.28125C13.0524 9.28125 12.6232 9.10346 12.3068 8.78699C11.9903 8.47052 11.8125 8.0413 11.8125 7.59375C11.8125 7.1462 11.9903 6.71697 12.3068 6.40051C12.6232 6.08404 13.0524 5.90625 13.5 5.90625C13.9476 5.90625 14.3768 6.08404 14.6932 6.40051C15.0097 6.71697 15.1875 7.1462 15.1875 7.59375C15.1875 8.0413 15.0097 8.47052 14.6932 8.78699C14.3768 9.10346 13.9476 9.28125 13.5 9.28125V9.28125Z" fill="#8338EC"/>
</svg>
