<svg width="26" height="26" viewBox="0 0 26 26" fill="none" xmlns="http://www.w3.org/2000/svg">
<path d="M17.3344 18.478L19.5733 16.2383C19.8748 15.9403 20.2564 15.7364 20.6715 15.6512C21.0867 15.566 21.5177 15.6032 21.9121 15.7583L24.6407 16.8482C25.0393 17.0101 25.3811 17.2863 25.623 17.6422C25.8649 17.9981 25.9961 18.4176 26 18.848V23.8474C25.9977 24.1402 25.9362 24.4294 25.8192 24.6978C25.7022 24.9661 25.5321 25.208 25.3192 25.4088C25.1063 25.6097 24.8549 25.7654 24.5803 25.8665C24.3057 25.9676 24.0134 26.0121 23.7212 25.9972C4.60096 24.8073 0.742937 8.6091 0.0133106 2.40978C-0.0205591 2.10535 0.0103868 1.79719 0.104112 1.50559C0.197838 1.21398 0.352219 0.94553 0.557099 0.717899C0.76198 0.490267 1.01272 0.308612 1.29281 0.184885C1.57291 0.061157 1.87602 -0.00183896 2.1822 4.08646e-05H7.00973C7.44052 0.00131651 7.86107 0.131494 8.2173 0.373829C8.57354 0.616165 8.84915 0.959576 9.0087 1.35989L10.0981 4.0896C10.2583 4.48262 10.2992 4.91415 10.2156 5.33027C10.1321 5.7464 9.92783 6.12867 9.62839 6.42934L7.38953 8.6691C7.38953 8.6691 8.67887 17.3981 17.3344 18.478Z" fill="#8338EC"/>
</svg>
