<svg xmlns="http://www.w3.org/2000/svg" xmlns:xlink="http://www.w3.org/1999/xlink"  width="" viewBox="0 0 2050 1030.5" >
  <defs>
    <linearGradient id="linear-gradient" x1="0.5" x2="0.5" y2="1" gradientUnits="objectBoundingBox">
      <stop offset="0" stop-color="#e9d100"/>
      <stop offset="0.097" stop-color="#f09f03"/>
      <stop offset="0.549" stop-color="#fa5b07"/>
      <stop offset="1" stop-color="#fb5607"/>
    </linearGradient>
  </defs>
  <path id="Path_366" data-name="Path 366" d="M25.5,65.5H-35a20,20,0,0,0-20,20V917a20,20,0,0,0,20,20H43.5a20,20,0,0,1,20,20v36.5a20,20,0,0,0,20,20H117a20,20,0,0,0,20-20V957a20,20,0,0,1,20-20h38.5a20,20,0,0,1,20,20v36.5a20,20,0,0,0,20,20h80a20,20,0,0,0,20-20V987a20,20,0,0,1,20-20h9a20,20,0,0,0,20-20V901a20,20,0,0,1,20-20h71.25a14.75,14.75,0,0,1,0,29.5H469a20,20,0,0,0-20,20V947a20,20,0,0,0,20,20h63a20,20,0,0,1,20,20v6.5a20,20,0,0,0,20,20h72.75a12.75,12.75,0,0,0,0-25.5H626.5a20,20,0,0,1-20-20V940a20,20,0,0,1,20-20h49.75a18.25,18.25,0,0,1,18.25,18.25,18.25,18.25,0,0,0,18.25,18.25H846.5a20,20,0,0,1,20,20V979a20,20,0,0,1-20,20H827.25a14.75,14.75,0,0,0,0,29.5h160.5a14.75,14.75,0,0,0,0-29.5H936.5a20,20,0,0,1-20-20V945.5a20,20,0,0,1,20-20H993a20,20,0,0,1,20,20V947a20,20,0,0,0,20,20h49a20,20,0,0,0,20-20v-1.5a20,20,0,0,1,20-20h38a20,20,0,0,1,20,20v30.75A11.75,11.75,0,0,1,1168.25,988a11.75,11.75,0,0,0-11.75,11.75v1a12.752,12.752,0,0,0,12.75,12.75h64.5a12.75,12.75,0,0,0,0-25.5h-13a15.75,15.75,0,0,1,0-31.5H1246a20,20,0,0,0,20-20V919a20,20,0,0,1,20-20h50a19,19,0,0,1,19,19,19,19,0,0,0,19,19h126.5a20,20,0,0,1,20,20v11a20,20,0,0,1-20,20H1495a20,20,0,0,0-20,20v.5a19.994,19.994,0,0,0,20,20h51.5a19.994,19.994,0,0,0,20-20V957a20,20,0,0,1,20-20h22.75A18.747,18.747,0,0,1,1628,955.75a18.747,18.747,0,0,0,18.75,18.75h25.75a20,20,0,0,0,20-20v-9a20,20,0,0,1,20-20h26a20,20,0,0,1,20,20v11A10.5,10.5,0,0,1,1748,967a10.5,10.5,0,0,0-10.5,10.5v16a19.994,19.994,0,0,0,20,20h67a19.994,19.994,0,0,0,20-20V987a20,20,0,0,0-20-20H1823a20,20,0,0,1-20-20V873.5a20,20,0,0,1,20-20h30.5a20,20,0,0,1,20,20v22a20,20,0,0,0,20,20H1913a20,20,0,0,0,20-20v-30a20,20,0,0,1,20-20h18a20,20,0,0,0,20-20V145a20,20,0,0,0-20-20h-18a20,20,0,0,1-20-20V96a20,20,0,0,0-20-20h-21.75a17.752,17.752,0,0,0-17.75,17.75,17.752,17.752,0,0,1-17.75,17.75H1837.5a13,13,0,0,1-13-13V95.75a10.251,10.251,0,0,1,10.25-10.25A10.251,10.251,0,0,0,1845,75.25v-5.5A15.749,15.749,0,0,0,1829.25,54h-45.5a15.75,15.75,0,0,0,0,31.5H1790a20,20,0,0,1,20,20v16a20,20,0,0,1-20,20h-15.5a15,15,0,0,1-15-15,15,15,0,0,0-15-15h-23.25a10.748,10.748,0,0,0-10.75,10.75A10.748,10.748,0,0,1,1699.75,133H1645a15.5,15.5,0,0,1-15.5-15.5V112a10,10,0,0,1,10-10h1.75a8.25,8.25,0,0,0,0-16.5h-50.5a8.25,8.25,0,0,0,0,16.5H1595a12.5,12.5,0,0,1,12.5,12.5v24a20,20,0,0,1-20,20h-28a20,20,0,0,1-20-20V96a20,20,0,0,0-20-20h-17.25a17.752,17.752,0,0,0-17.75,17.75,17.752,17.752,0,0,1-17.75,17.75H1442a20,20,0,0,1-20-20V81.25a15.749,15.749,0,0,0-15.75-15.75h-.75a15,15,0,0,0-15,15,15,15,0,0,1-15,15h-38.75a9.753,9.753,0,0,1-9.75-9.75,9.753,9.753,0,0,0-9.75-9.75h-19a14.748,14.748,0,0,1-14.75-14.75,14.748,14.748,0,0,0-14.75-14.75H1208.5a9.5,9.5,0,0,0,0,19h2.5a12,12,0,0,1,12,12v3a15,15,0,0,1-15,15h-78.5a15,15,0,0,1-15-15v-4a11,11,0,0,1,11-11h1.5a9.5,9.5,0,0,0,0-19h-39.75a14.748,14.748,0,0,0-14.75,14.75A14.748,14.748,0,0,1,1057.75,76h-51A17.25,17.25,0,0,1,989.5,58.75v-7.5a9.75,9.75,0,0,1,9.75-9.75,9.753,9.753,0,0,0,9.75-9.75V30a11.5,11.5,0,0,0-11.5-11.5H952A11.5,11.5,0,0,0,940.5,30v4.25a7.25,7.25,0,0,0,7.25,7.25A7.25,7.25,0,0,1,955,48.75V53.5a12,12,0,0,1-12,12h-5.25A17.25,17.25,0,0,0,920.5,82.75v1A18.25,18.25,0,0,1,902.25,102H877a13,13,0,0,1-13-13,13,13,0,0,0-13-13H825.75A14.75,14.75,0,0,1,811,61.25V59.5a13,13,0,0,0-26,0V66a19.5,19.5,0,0,1-19.5,19.5h-34a10,10,0,0,1-10-10v-.25a9.75,9.75,0,0,1,9.75-9.75h.25a9.5,9.5,0,0,0,0-19H662a9.5,9.5,0,0,0,0,19h6.5a15,15,0,0,1,0,30H594.25a9.75,9.75,0,0,1,0-19.5H600a11,11,0,0,0,0-22H584a11,11,0,0,1-11-11,11,11,0,0,0-11-11H515.5a11,11,0,0,0,0,22h5.75A16.75,16.75,0,0,1,538,70.75V91.5a20,20,0,0,1-20,20H500.5a20,20,0,0,1-20-20V78a12.5,12.5,0,0,0-25,0v2.5a15,15,0,0,1-15,15h-8a20,20,0,0,1-20-20v-14a20,20,0,0,0-20-20h-13A11.5,11.5,0,0,1,368,30a11.5,11.5,0,0,0-11.5-11.5h-115A11.5,11.5,0,0,0,230,30v2a9.5,9.5,0,0,0,9.5,9.5A9.5,9.5,0,0,1,249,51v2.5a12,12,0,0,1-12,12H176.5a12,12,0,0,1,0-24H178a11.5,11.5,0,0,0,0-23H163.25A8.25,8.25,0,0,1,155,10.25,8.25,8.25,0,0,0,146.75,2h-34.5a8.25,8.25,0,0,0,0,16.5H117a13,13,0,0,1,13,13v4.75A17.75,17.75,0,0,1,112.25,54h-30A6.25,6.25,0,0,1,76,47.75a6.25,6.25,0,0,0-6.25-6.25H49.5a12,12,0,0,0-12,12A12,12,0,0,1,25.5,65.5Z" transform="translate(57)" stroke="#000" stroke-width="4" fill="url(#linear-gradient)"/>
</svg>

