<svg xmlns="http://www.w3.org/2000/svg" xmlns:xlink="http://www.w3.org/1999/xlink" width="5850.488" height="702.606" viewBox="0 0 5850.488 702.606">
  <defs>
    <linearGradient id="linear-gradient" x1="0.5" x2="0.5" y2="1" gradientUnits="objectBoundingBox">
      <stop offset="0" stop-color="#e9d100"/>
      <stop offset="0.097" stop-color="#f09f03"/>
      <stop offset="0.549" stop-color="#fa5b07"/>
      <stop offset="1" stop-color="#fb5607"/>
    </linearGradient>
  </defs>
  <path id="Path_366" data-name="Path 366" d="M175.03,45.216H2.15C-29.413,45.216-55,51.31-55,58.828V624.722c0,7.518,25.587,13.611,57.15,13.611H226.466c31.563,0,57.15,6.094,57.15,13.611v24.841c0,7.52,25.587,13.611,57.15,13.611h95.727c31.564,0,57.15-6.091,57.15-13.611V651.945c0-7.518,25.586-13.611,57.15-13.611H660.809c31.564,0,57.15,6.094,57.15,13.611v24.841c0,7.52,25.586,13.611,57.15,13.611h228.6c31.564,0,57.15-6.091,57.15-13.611v-4.424c0-7.518,25.586-13.611,57.151-13.611h25.718c31.564,0,57.15-6.094,57.15-13.611V613.833c0-7.518,25.586-13.611,57.15-13.611h203.6c23.277,0,42.148,4.495,42.148,10.038s-18.871,10.038-42.148,10.038h-19.288c-31.564,0-57.151,6.094-57.151,13.611v11.229c0,7.518,25.586,13.611,57.151,13.611h180.024c31.564,0,57.15,6.094,57.15,13.611v4.424c0,7.52,25.586,13.611,57.151,13.611h207.885c20.123,0,36.433-3.886,36.433-8.677s-16.311-8.677-36.433-8.677H1892.4c-31.564,0-57.151-6.094-57.151-13.611V640.375c0-7.518,25.586-13.611,57.151-13.611h142.162c28.8,0,52.15,5.561,52.15,12.42s23.349,12.42,52.15,12.42h382.193c31.564,0,57.15,6.094,57.15,13.611v1.7c0,7.518-25.586,13.611-57.15,13.611h-55.007c-23.277,0-42.148,4.492-42.148,10.038s18.871,10.038,42.148,10.038H2924.68c23.277,0,42.148-4.492,42.148-10.038s-18.871-10.038-42.148-10.038H2778.232c-31.564,0-57.15-6.094-57.15-13.611v-22.8c0-7.518,25.586-13.611,57.15-13.611h161.45c31.576,0,57.15,6.094,57.15,13.611v1.021c0,7.518,25.575,13.611,57.151,13.611H3194c31.576,0,57.151-6.094,57.151-13.611v-1.021c0-7.518,25.575-13.611,57.15-13.611h108.586c31.576,0,57.15,6.094,57.15,13.611v20.928c0,4.416-15.031,8-33.576,8s-33.576,3.581-33.576,8v.681c0,4.791,16.316,8.677,36.433,8.677h184.31c20.117,0,36.433-3.886,36.433-8.677s-16.316-8.677-36.433-8.677h-37.147c-24.861,0-45.006-4.8-45.006-10.719s20.146-10.719,45.006-10.719h72.152c31.576,0,57.15-6.094,57.15-13.611v-11.91c0-7.518,25.575-13.611,57.151-13.611h142.876c29.975,0,54.293,5.79,54.293,12.931s24.318,12.931,54.293,12.931h361.476c31.576,0,57.15,6.094,57.15,13.611v7.486c0,7.518-25.575,13.611-57.15,13.611h-15.716c-31.576,0-57.151,6.094-57.151,13.611v.34c0,7.52,25.575,13.611,57.151,13.611H4521.32c31.575,0,57.15-6.091,57.15-13.611V651.945c0-7.518,25.575-13.611,57.15-13.611h65.009c29.6,0,53.579,5.713,53.579,12.761s23.975,12.761,53.578,12.761h73.582c31.576,0,57.15-6.094,57.15-13.611v-6.125c0-7.518,25.574-13.611,57.15-13.611h74.3c31.576,0,57.15,6.094,57.15,13.611V651.6c0,3.947-13.43,7.146-30,7.146s-30,3.2-30,7.146v10.889c0,7.52,25.575,13.611,57.15,13.611h191.454c31.576,0,57.15-6.091,57.15-13.611v-4.424c0-7.518-25.574-13.611-57.15-13.611h-4.287c-31.576,0-57.15-6.094-57.15-13.611V595.117c0-7.518,25.575-13.611,57.15-13.611h87.154c31.576,0,57.151,6.094,57.151,13.611V610.09c0,7.518,25.575,13.611,57.15,13.611H5568.6c31.576,0,57.151-6.094,57.151-13.611V589.673c0-7.518,25.575-13.611,57.15-13.611h51.436c31.576,0,57.15-6.094,57.15-13.611V99.322c0-7.518-25.575-13.611-57.15-13.611H5682.9c-31.575,0-57.15-6.094-57.15-13.611V65.974c0-7.517-25.575-13.611-57.151-13.611H5506.45c-28,0-50.721,5.408-50.721,12.08s-22.717,12.08-50.721,12.08h-52.15c-20.517,0-37.147-3.961-37.147-8.847V65.8c0-3.853,13.116-6.976,29.289-6.976s29.29-3.123,29.29-6.976V48.109c0-5.92-20.146-10.719-45.006-10.719H5199.267c-24.86,0-45.006,4.8-45.006,10.719s20.146,10.719,45.006,10.719h17.86c31.576,0,57.15,6.094,57.15,13.611V83.328c0,7.518-25.575,13.611-57.15,13.611h-44.292c-23.661,0-42.863-4.571-42.863-10.209s-19.2-10.209-42.863-10.209h-66.437c-16.974,0-30.718,3.276-30.718,7.316s-13.745,7.316-30.718,7.316h-156.45c-24.46,0-44.292-4.723-44.292-10.549V76.863c0-3.759,12.8-6.806,28.575-6.806h5c13.031,0,23.575-2.514,23.575-5.615s-10.544-5.615-23.575-5.615h-144.3c-13.03,0-23.575,2.514-23.575,5.615s10.544,5.615,23.575,5.615h12.145c19.717,0,35.719,3.808,35.719,8.507V94.9c0,7.518-25.575,13.611-57.15,13.611h-80.011c-31.576,0-57.15-6.094-57.15-13.611V65.974c0-7.517-25.575-13.611-57.15-13.611h-49.292c-28,0-50.721,5.408-50.721,12.08s-22.717,12.08-50.721,12.08h-70.724c-31.576,0-57.15-6.094-57.15-13.611V55.935c0-5.92-20.146-10.719-45.006-10.719h-2.144c-23.66,0-42.863,4.571-42.863,10.209s-19.2,10.209-42.863,10.209H3921.955c-15.374,0-27.861-2.971-27.861-6.636s-12.487-6.636-27.861-6.636H3811.94c-23.289,0-42.149-4.494-42.149-10.038s-18.859-10.038-42.148-10.038H3555.478c-15,0-27.146,2.895-27.146,6.465s12.145,6.465,27.146,6.465h7.144c18.945,0,34.29,3.656,34.29,8.167v2.042c0,5.638-19.2,10.209-42.863,10.209H3329.734c-23.66,0-42.863-4.571-42.863-10.209V52.7c0-4.135,14.059-7.486,31.433-7.486h4.286c15,0,27.146-2.895,27.146-6.465s-12.145-6.465-27.146-6.465H3209c-23.289,0-42.148,4.494-42.148,10.038S3148,52.362,3124.707,52.362H2978.973c-27.224,0-49.292-5.256-49.292-11.74v-5.1c0-3.665,12.473-6.636,27.861-6.636s27.861-2.971,27.861-6.636V21.056c0-4.323-14.716-7.827-32.862-7.827H2822.524c-18.148,0-32.862,3.5-32.862,7.827v2.892c0,2.725,9.276,4.934,20.717,4.934s20.717,2.209,20.717,4.934v3.233c0,4.51-15.353,8.167-34.29,8.167h-15c-27.224,0-49.292,5.256-49.292,11.74v.681c0,6.86-23.349,12.42-52.15,12.42H2608.21c-20.517,0-37.148-3.961-37.148-8.847s-16.631-8.847-37.148-8.847h-72.152c-23.277,0-42.149-4.494-42.149-10.038V41.133c0-4.886-16.631-8.847-37.148-8.847s-37.148,3.961-37.148,8.847v4.424c0,7.329-24.946,13.271-55.722,13.271H2192.44c-15.782,0-28.575-3.047-28.575-6.806v-.17c0-3.665,12.473-6.636,27.861-6.636h.715c14.993,0,27.146-2.895,27.146-6.465s-12.153-6.465-27.146-6.465h-198.6c-14.994,0-27.147,2.895-27.147,6.465s12.153,6.465,27.147,6.465h18.574c23.672,0,42.863,4.571,42.863,10.209s-19.191,10.209-42.863,10.209H1800.246c-15.388,0-27.861-2.971-27.861-6.636s12.473-6.636,27.861-6.636h16.431c17.36,0,31.433-3.352,31.433-7.486s-14.073-7.486-31.433-7.486h-45.72c-17.359,0-31.433-3.352-31.433-7.486s-14.073-7.486-31.433-7.486H1575.216c-17.36,0-31.433,3.352-31.433,7.486s14.073,7.486,31.433,7.486h16.431c26.435,0,47.864,5.1,47.864,11.4V62.911c0,7.518-25.586,13.611-57.151,13.611h-50.007c-31.564,0-57.15-6.094-57.15-13.611V53.723c0-4.7-15.991-8.507-35.719-8.507s-35.719,3.809-35.719,8.507v1.7c0,5.638-19.191,10.209-42.863,10.209h-22.86c-31.564,0-57.15-6.094-57.15-13.611V42.494c0-7.517-25.586-13.611-57.151-13.611h-37.148c-18.148,0-32.861-3.5-32.861-7.827s-14.713-7.827-32.862-7.827H792.255c-18.148,0-32.862,3.5-32.862,7.827v1.361c0,3.571,12.153,6.465,27.146,6.465s27.146,2.895,27.146,6.465v1.7c0,4.51-15.353,8.167-34.29,8.167H606.516c-18.937,0-34.29-3.656-34.29-8.167s15.353-8.167,34.29-8.167H610.8c18.148,0,32.862-3.5,32.862-7.827s-14.713-7.827-32.862-7.827H568.654c-13.019,0-23.575-2.514-23.575-5.615S534.524,2,521.5,2H422.92C409.9,2,399.346,4.514,399.346,7.615s10.556,5.615,23.575,5.615h13.573c20.517,0,37.148,3.961,37.148,8.847V25.31c0,6.672-22.709,12.08-50.721,12.08H337.195c-9.864,0-17.86-1.9-17.86-4.254s-8-4.254-17.859-4.254H243.611c-18.938,0-34.29,3.656-34.29,8.167S193.968,45.216,175.03,45.216Z" transform="translate(57)" stroke="#000" stroke-width="4" fill="url(#linear-gradient)"/>
</svg>
