<svg width="281" height="103" viewBox="0 0 281 103" fill="none" xmlns="http://www.w3.org/2000/svg">
<path d="M8.88 79.87L8.34 21.46C8.34 20.62 8.64 19.9 9.24 19.3C9.9 18.64 10.65 18.31 11.49 18.31L22.92 18.49C23.76 18.49 24.45 18.82 24.99 19.48C25.59 20.08 25.89 20.8 25.89 21.64L25.71 64.3H46.68C47.58 64.3 48.33 64.63 48.93 65.29C49.59 65.71 49.92 66.46 49.92 67.54L49.74 79.33C49.74 79.93 49.59 80.47 49.29 80.95C49.05 81.43 48.69 81.82 48.21 82.12C47.79 82.36 47.28 82.48 46.68 82.48L12.12 83.02C11.22 83.02 10.44 82.72 9.78 82.12C9.18 81.46 8.88 80.71 8.88 79.87ZM54.2252 80.95V20.74C54.2252 19.78 54.5852 19.03 55.3052 18.49C55.7852 17.83 56.5352 17.5 57.5552 17.5L69.9752 18.13C70.8152 18.13 71.5052 18.43 72.0452 19.03C72.6452 19.57 72.9452 20.26 72.9452 21.1L74.4752 80.95C74.4752 81.85 74.1452 82.6 73.4852 83.2C73.0052 83.86 72.2552 84.19 71.2352 84.19H57.3752C56.5352 84.19 55.7852 83.89 55.1252 83.29C54.5252 82.69 54.2252 81.91 54.2252 80.95ZM79.1883 80.41L79.0083 21.64C79.0083 20.8 79.3083 20.08 79.9083 19.48C80.5083 18.82 81.2583 18.49 82.1583 18.49L95.5683 18.31C97.4883 18.31 98.7783 19.18 99.4383 20.92C107.418 41.56 113.838 55.54 118.698 62.86L117.708 21.46C117.588 20.62 117.858 19.87 118.518 19.21C119.358 18.61 120.108 18.31 120.768 18.31L131.208 18.13C132.108 18.13 132.858 18.46 133.458 19.12C134.058 19.72 134.358 20.44 134.358 21.28L133.098 80.95C133.098 81.79 132.768 82.54 132.108 83.2C131.508 83.86 130.788 84.19 129.948 84.19L115.008 84.01C113.568 84.01 112.488 83.41 111.768 82.21C102.168 66.01 96.2283 54.49 93.9483 47.65L97.3683 80.77C97.5483 81.67 97.2783 82.54 96.5583 83.38C95.7783 84.04 94.9683 84.37 94.1283 84.37L82.1583 83.65C81.3183 83.59 80.5983 83.26 79.9983 82.66C79.4583 82 79.1883 81.25 79.1883 80.41ZM141.378 80.23C140.298 75.31 139.548 68.5 139.128 59.8C138.708 51.04 138.528 43.78 138.588 38.02C138.648 32.2 138.768 26.74 138.948 21.64C138.948 20.8 139.218 20.08 139.758 19.48C140.358 18.82 141.078 18.49 141.918 18.49L176.388 18.13C177.168 18.13 177.978 18.43 178.818 19.03C179.478 19.87 179.718 20.68 179.538 21.46L179.358 27.22C179.358 28.06 179.058 28.78 178.458 29.38C177.918 29.98 177.228 30.34 176.388 30.46L157.038 30.64L157.848 43.51L171.708 43.96C172.548 43.96 173.268 44.29 173.868 44.95C174.528 45.55 174.858 46.27 174.858 47.11V50.62C174.858 51.22 174.708 51.76 174.408 52.24C174.108 52.66 173.718 53.02 173.238 53.32C172.758 53.62 172.248 53.8 171.708 53.86L157.488 54.4L159.288 68.62L179.898 67.54C180.918 67.54 181.668 67.78 182.148 68.26C182.928 68.98 183.318 69.79 183.318 70.69V80.05C183.318 80.89 182.988 81.64 182.328 82.3C181.728 82.9 180.978 83.2 180.078 83.2L144.348 82.66C142.788 82.66 141.798 81.85 141.378 80.23ZM209.409 83.56C206.349 83.56 203.529 83.08 200.949 82.12C198.429 81.16 196.269 79.9 194.469 78.34C192.669 76.78 191.079 74.8 189.699 72.4C188.379 70 187.299 67.57 186.459 65.11C185.619 62.65 184.959 59.83 184.479 56.65C183.999 53.41 183.669 50.44 183.489 47.74C183.309 44.98 183.219 41.92 183.219 38.56C183.279 35.14 183.369 32.26 183.489 29.92C183.609 27.52 183.789 24.88 184.029 22C184.089 21.46 184.239 20.98 184.479 20.56C184.779 20.08 185.139 19.72 185.559 19.48C186.039 19.18 186.519 19.03 186.999 19.03L198.609 18.49C199.389 18.49 200.199 18.79 201.039 19.39C201.639 20.23 201.939 21.04 201.939 21.82C201.159 35.44 201.159 46.75 201.939 55.75C202.659 63.55 204.609 67.96 207.789 68.98C209.589 69.52 211.179 68.86 212.559 67C212.919 66.46 213.189 65.89 213.369 65.29C214.209 62.41 213.909 47.92 212.469 21.82C212.469 21.04 212.769 20.23 213.369 19.39C214.209 18.79 215.019 18.49 215.799 18.49L227.589 19.03C228.429 19.03 229.119 19.33 229.659 19.93C230.259 20.47 230.559 21.16 230.559 22C231.459 39.58 231.729 53.2 231.369 62.86C231.009 69.22 228.789 74.26 224.709 77.98C220.629 81.64 215.529 83.5 209.409 83.56ZM237.333 80.95L235.083 20.2C235.083 19.36 235.383 18.55 235.983 17.77C236.643 17.11 237.393 16.78 238.233 16.78C240.093 16.78 241.923 16.81 243.723 16.87C245.523 16.93 247.863 17.14 250.743 17.5C253.623 17.8 256.263 18.22 258.663 18.76C261.123 19.24 263.673 19.99 266.313 21.01C268.953 21.97 271.203 23.11 273.063 24.43C274.983 25.75 276.573 27.46 277.833 29.56C279.153 31.6 279.873 33.88 279.993 36.4C280.173 39.46 279.843 42.28 279.003 44.86C278.163 47.44 276.993 49.57 275.493 51.25C274.053 52.93 272.403 54.46 270.543 55.84C268.743 57.16 266.913 58.18 265.053 58.9C263.193 59.62 261.483 60.22 259.923 60.7C258.423 61.18 257.193 61.51 256.233 61.69L254.703 61.87L256.053 80.59C256.173 81.37 255.933 82.18 255.333 83.02C254.673 83.68 253.923 84.01 253.083 84.01L240.483 84.19C239.643 84.19 238.893 83.89 238.233 83.29C237.633 82.69 237.333 81.91 237.333 80.95ZM251.373 33.43L252.633 50.62C252.933 50.62 253.293 50.56 253.713 50.44C254.193 50.32 255.003 50.02 256.143 49.54C257.283 49.06 258.273 48.49 259.113 47.83C260.013 47.17 260.823 46.21 261.543 44.95C262.323 43.69 262.713 42.31 262.713 40.81C262.773 39.25 262.413 37.93 261.633 36.85C260.913 35.77 259.983 35.02 258.843 34.6C257.703 34.18 256.563 33.88 255.423 33.7C254.283 33.46 253.323 33.37 252.543 33.43H251.373Z" fill="black"/>
<path d="M2.88 71.87L2.34 13.46C2.34 12.62 2.64 11.9 3.24 11.3C3.9 10.64 4.65 10.31 5.49 10.31L16.92 10.49C17.76 10.49 18.45 10.82 18.99 11.48C19.59 12.08 19.89 12.8 19.89 13.64L19.71 56.3H40.68C41.58 56.3 42.33 56.63 42.93 57.29C43.59 57.71 43.92 58.46 43.92 59.54L43.74 71.33C43.74 71.93 43.59 72.47 43.29 72.95C43.05 73.43 42.69 73.82 42.21 74.12C41.79 74.36 41.28 74.48 40.68 74.48L6.12 75.02C5.22 75.02 4.44 74.72 3.78 74.12C3.18 73.46 2.88 72.71 2.88 71.87ZM48.2252 72.95V12.74C48.2252 11.78 48.5852 11.03 49.3052 10.49C49.7852 9.83 50.5352 9.49999 51.5552 9.49999L63.9752 10.13C64.8152 10.13 65.5052 10.43 66.0452 11.03C66.6452 11.57 66.9452 12.26 66.9452 13.1L68.4752 72.95C68.4752 73.85 68.1452 74.6 67.4852 75.2C67.0052 75.86 66.2552 76.19 65.2352 76.19H51.3752C50.5352 76.19 49.7852 75.89 49.1252 75.29C48.5252 74.69 48.2252 73.91 48.2252 72.95ZM73.1883 72.41L73.0083 13.64C73.0083 12.8 73.3083 12.08 73.9083 11.48C74.5083 10.82 75.2583 10.49 76.1583 10.49L89.5683 10.31C91.4883 10.31 92.7783 11.18 93.4383 12.92C101.418 33.56 107.838 47.54 112.698 54.86L111.708 13.46C111.588 12.62 111.858 11.87 112.518 11.21C113.358 10.61 114.108 10.31 114.768 10.31L125.208 10.13C126.108 10.13 126.858 10.46 127.458 11.12C128.058 11.72 128.358 12.44 128.358 13.28L127.098 72.95C127.098 73.79 126.768 74.54 126.108 75.2C125.508 75.86 124.788 76.19 123.948 76.19L109.008 76.01C107.568 76.01 106.488 75.41 105.768 74.21C96.1683 58.01 90.2283 46.49 87.9483 39.65L91.3683 72.77C91.5483 73.67 91.2783 74.54 90.5583 75.38C89.7783 76.04 88.9683 76.37 88.1283 76.37L76.1583 75.65C75.3183 75.59 74.5983 75.26 73.9983 74.66C73.4583 74 73.1883 73.25 73.1883 72.41ZM135.378 72.23C134.298 67.31 133.548 60.5 133.128 51.8C132.708 43.04 132.528 35.78 132.588 30.02C132.648 24.2 132.768 18.74 132.948 13.64C132.948 12.8 133.218 12.08 133.758 11.48C134.358 10.82 135.078 10.49 135.918 10.49L170.388 10.13C171.168 10.13 171.978 10.43 172.818 11.03C173.478 11.87 173.718 12.68 173.538 13.46L173.358 19.22C173.358 20.06 173.058 20.78 172.458 21.38C171.918 21.98 171.228 22.34 170.388 22.46L151.038 22.64L151.848 35.51L165.708 35.96C166.548 35.96 167.268 36.29 167.868 36.95C168.528 37.55 168.858 38.27 168.858 39.11V42.62C168.858 43.22 168.708 43.76 168.408 44.24C168.108 44.66 167.718 45.02 167.238 45.32C166.758 45.62 166.248 45.8 165.708 45.86L151.488 46.4L153.288 60.62L173.898 59.54C174.918 59.54 175.668 59.78 176.148 60.26C176.928 60.98 177.318 61.79 177.318 62.69V72.05C177.318 72.89 176.988 73.64 176.328 74.3C175.728 74.9 174.978 75.2 174.078 75.2L138.348 74.66C136.788 74.66 135.798 73.85 135.378 72.23ZM203.409 75.56C200.349 75.56 197.529 75.08 194.949 74.12C192.429 73.16 190.269 71.9 188.469 70.34C186.669 68.78 185.079 66.8 183.699 64.4C182.379 62 181.299 59.57 180.459 57.11C179.619 54.65 178.959 51.83 178.479 48.65C177.999 45.41 177.669 42.44 177.489 39.74C177.309 36.98 177.219 33.92 177.219 30.56C177.279 27.14 177.369 24.26 177.489 21.92C177.609 19.52 177.789 16.88 178.029 14C178.089 13.46 178.239 12.98 178.479 12.56C178.779 12.08 179.139 11.72 179.559 11.48C180.039 11.18 180.519 11.03 180.999 11.03L192.609 10.49C193.389 10.49 194.199 10.79 195.039 11.39C195.639 12.23 195.939 13.04 195.939 13.82C195.159 27.44 195.159 38.75 195.939 47.75C196.659 55.55 198.609 59.96 201.789 60.98C203.589 61.52 205.179 60.86 206.559 59C206.919 58.46 207.189 57.89 207.369 57.29C208.209 54.41 207.909 39.92 206.469 13.82C206.469 13.04 206.769 12.23 207.369 11.39C208.209 10.79 209.019 10.49 209.799 10.49L221.589 11.03C222.429 11.03 223.119 11.33 223.659 11.93C224.259 12.47 224.559 13.16 224.559 14C225.459 31.58 225.729 45.2 225.369 54.86C225.009 61.22 222.789 66.26 218.709 69.98C214.629 73.64 209.529 75.5 203.409 75.56ZM231.333 72.95L229.083 12.2C229.083 11.36 229.383 10.55 229.983 9.77C230.643 9.11 231.393 8.78 232.233 8.78C234.093 8.78 235.923 8.81 237.723 8.87C239.523 8.93 241.863 9.14 244.743 9.49999C247.623 9.79999 250.263 10.22 252.663 10.76C255.123 11.24 257.673 11.99 260.313 13.01C262.953 13.97 265.203 15.11 267.063 16.43C268.983 17.75 270.573 19.46 271.833 21.56C273.153 23.6 273.873 25.88 273.993 28.4C274.173 31.46 273.843 34.28 273.003 36.86C272.163 39.44 270.993 41.57 269.493 43.25C268.053 44.93 266.403 46.46 264.543 47.84C262.743 49.16 260.913 50.18 259.053 50.9C257.193 51.62 255.483 52.22 253.923 52.7C252.423 53.18 251.193 53.51 250.233 53.69L248.703 53.87L250.053 72.59C250.173 73.37 249.933 74.18 249.333 75.02C248.673 75.68 247.923 76.01 247.083 76.01L234.483 76.19C233.643 76.19 232.893 75.89 232.233 75.29C231.633 74.69 231.333 73.91 231.333 72.95ZM245.373 25.43L246.633 42.62C246.933 42.62 247.293 42.56 247.713 42.44C248.193 42.32 249.003 42.02 250.143 41.54C251.283 41.06 252.273 40.49 253.113 39.83C254.013 39.17 254.823 38.21 255.543 36.95C256.323 35.69 256.713 34.31 256.713 32.81C256.773 31.25 256.413 29.93 255.633 28.85C254.913 27.77 253.983 27.02 252.843 26.6C251.703 26.18 250.563 25.88 249.423 25.7C248.283 25.46 247.323 25.37 246.543 25.43H245.373Z" fill="#F9F7F7"/>
</svg>
