<svg xmlns="http://www.w3.org/2000/svg" width="3221.398" height="238.051" viewBox="0 0 3221.398 238.051">
  <path id="Path_377" data-name="Path 377" d="M-102.324,796.645s1.665,90.216,33.827,106.393c8.187,5.247,37.979,4.533,52.768,4.093,17.652-.524,43.983,4.375,47.821-4.093,0,0,4.426-14.322,8.866-31.637,7.982-7.428,21.742-7.55,33.669-6.823,17.716.561,33.1,1.948,34.828,9.446,5.074,22.037,10.148,63.747,10.148,63.747-3.805,20.205,62.621,5.861,62.621,16.734v35.93c0,10.877,13.765,19.688,30.746,19.688h51.5c16.981,0,30.746-8.81,30.746-19.688v-35.93c0-10.873,13.765-19.688,30.746-19.688h59.186c16.981,0,30.746,8.814,30.746,19.688v35.93c0,10.877,13.765,19.688,30.746,19.688H569.621c16.981,0,30.746-8.81,30.746-19.688v-6.4c0-5.121,3.054-9.786,8.387-13.514,5.293-3.707,13.376-6.174,22.359-6.174h13.836c16.981,0,30.746-8.814,30.746-19.688V899.382c0-10.873,13.765-19.688,30.746-19.688H815.972c12.523,0,22.675,6.5,22.675,14.52s-10.152,14.52-22.675,14.52H805.6c-16.981,0-30.746,8.814-30.746,19.688v16.242c0,10.873,13.765,19.688,30.746,19.688h96.849c16.981,0,30.746,8.814,30.746,19.688v6.4c0,10.877,13.765,19.688,30.746,19.688h111.838c10.825,0,19.6-5.621,19.6-12.551s-8.775-12.551-19.6-12.551h-28.056c-16.981,0-30.746-8.814-30.746-19.688V937.772c0-10.873,13.765-19.687,30.746-19.687h76.48c15.495,0,28.056,8.043,28.056,17.965s12.561,17.965,28.056,17.965h205.613c16.981,0,30.746,8.814,30.746,19.688v2.461c0,10.873-13.765,19.688-30.746,19.688l-6.558,4.022c-12.523,0-22.675,6.5-22.675,14.52s10.152,14.52,22.675,14.52h165.58c12.523,0,22.675-6.5,22.675-14.52s-10.152-14.52-22.675-14.52l-20.665-4.022c-16.981,0-30.746-8.814-30.746-19.688V943.187c0-10.873,13.765-19.688,30.746-19.688h97.738c16.987,0,30.746,8.814,30.746,19.688v1.477c0,10.873,13.759,19.688,30.746,19.688h48.021c16.987,0,30.746-8.814,30.746-19.688v-1.477c0-10.873,13.759-19.688,30.746-19.688h74.842c16.987,0,30.746,8.814,30.746,19.688v30.27c0,6.388-2.706,10.582-12.683,10.582s-18.063,5.179-18.063,11.566v.984c0,6.93,8.778,12.551,19.6,12.551h82.153c10.823,0,19.6-5.621,19.6-12.551s-8.778-12.551-19.6-12.551l-8.362.984c-13.374,0-24.213-6.942-24.213-15.5s10.838-15.5,24.213-15.5h38.817c16.987,0,30.746-8.814,30.746-19.687V917.1c0-10.874,13.759-19.688,30.746-19.688l32.048.984c16.126,0,29.208,8.374,29.208,18.7s13.083,18.7,29.208,18.7l239.285-.984c16.987,0,30.746,8.814,30.746,19.688v10.828c0,10.873-13.759,19.688-30.746,19.688h5.858c-16.987,0-30.746,8.814-30.746,19.688v.492c0,10.877,13.758,19.688,30.746,19.688h64.857c16.987,0,30.746-8.81,30.746-19.688v-50.7c0-10.873,13.759-19.688,30.746-19.688h34.973c15.927,0,28.824,8.264,28.824,18.457s12.9,18.457,28.824,18.457h39.585c16.987,0,30.746-8.814,30.746-19.688v-8.859c0-10.873,13.759-19.688,30.746-19.688h39.969c16.987,0,30.746,8.814,30.746,19.688v10.828c0,5.708-7.225,10.336-16.142,10.336s-16.142,4.628-16.142,10.336v15.75c0,10.877,13.758,19.688,30.746,19.688h103c16.987,0,30.746-8.81,30.746-19.688v-6.4c0-10.873-13.759-19.688-30.746-19.688h-2.306c-16.987,0-30.746-8.814-30.746-19.688V872.311c0-10.873,13.759-19.688,30.746-19.688h46.887c16.987,0,30.746,8.814,30.746,19.688v21.656c0,10.873,13.759,19.688,30.746,19.688h29.977c16.987,0,30.746-8.814,30.746-19.688V864.436c0-10.873,13.759-19.688,30.746-19.688,0,0,12.918-.889,21.464-7.157s6.5-48.851,6.207-41.936" transform="translate(104.361 -792.861)" fill="#fa5707" stroke="#000" stroke-linecap="round" stroke-linejoin="bevel" stroke-width="4"/>
</svg>
