<svg xmlns="http://www.w3.org/2000/svg" width="848.376" height="70.04" viewBox="0 0 848.376 70.04">
  <g id="Group_14" data-name="Group 14" transform="translate(-0.601 -1.24)">
    <path id="Path_397" data-name="Path 397" d="M38.44,15.8q2.736,17.708,12.616,49.172a2.5,2.5,0,0,1-.3,2.356,2.476,2.476,0,0,1-2.052,1.14l-11.552.76A2.719,2.719,0,0,1,35.4,68.62a2.808,2.808,0,0,1-.912-1.748l-1.064-6.916-10.64.076L21.72,65.884a3.19,3.19,0,0,1-1.064,1.6,1.947,1.947,0,0,1-1.672.456L7.128,67.48a2.277,2.277,0,0,1-2.052-1.064,2.188,2.188,0,0,1-.3-2.2l14.06-49.02a2.828,2.828,0,0,1,2.736-1.9l14.364.152a2.467,2.467,0,0,1,1.14.456,2.1,2.1,0,0,1,.912.836A2.018,2.018,0,0,1,38.44,15.8Zm-9.8,13.452-3.952,21.2q2.128-.152,7.3-.152ZM53.988,65.58l-1.9-51.3a3.326,3.326,0,0,1,.76-2.052,2.619,2.619,0,0,1,1.9-.836q2.356,0,4.636.076T65.313,12A57.886,57.886,0,0,1,72,13.064a38.339,38.339,0,0,1,6.46,1.9,23.963,23.963,0,0,1,5.7,2.888,13.773,13.773,0,0,1,4.028,4.332,11.439,11.439,0,0,1,1.824,5.776,19.255,19.255,0,0,1-.836,7.144,14.912,14.912,0,0,1-2.964,5.4,25.445,25.445,0,0,1-4.18,3.876A20.166,20.166,0,0,1,77.4,46.96q-2.356.912-4.332,1.52a27.069,27.069,0,0,1-3.116.836l-1.292.152L69.8,65.276a2.777,2.777,0,0,1-.608,2.052,2.619,2.619,0,0,1-1.9.836l-10.64.152a2.747,2.747,0,0,1-1.9-.76A2.673,2.673,0,0,1,53.988,65.58ZM65.844,25.452l1.064,14.516a3.407,3.407,0,0,0,.912-.152,16.646,16.646,0,0,0,2.052-.76,10.847,10.847,0,0,0,2.508-1.444,7.668,7.668,0,0,0,2.052-2.432,6.514,6.514,0,0,0,.988-3.5,5.2,5.2,0,0,0-.912-3.344,4.773,4.773,0,0,0-2.356-1.9,15.2,15.2,0,0,0-2.888-.76,8.836,8.836,0,0,0-2.432-.228ZM93.25,65.58l-1.9-51.3a3.326,3.326,0,0,1,.76-2.052,2.619,2.619,0,0,1,1.9-.836q2.356,0,4.636.076t5.928.532a57.865,57.865,0,0,1,6.688,1.064,38.315,38.315,0,0,1,6.46,1.9,23.94,23.94,0,0,1,5.7,2.888,13.766,13.766,0,0,1,4.028,4.332,11.433,11.433,0,0,1,1.824,5.776,19.243,19.243,0,0,1-.836,7.144,14.9,14.9,0,0,1-2.964,5.4,25.433,25.433,0,0,1-4.18,3.876,20.16,20.16,0,0,1-4.636,2.584q-2.355.912-4.332,1.52a27.02,27.02,0,0,1-3.116.836l-1.292.152,1.14,15.808a2.773,2.773,0,0,1-.608,2.052,2.617,2.617,0,0,1-1.9.836l-10.64.152a2.747,2.747,0,0,1-1.9-.76A2.673,2.673,0,0,1,93.25,65.58Zm11.856-40.128,1.064,14.516a3.4,3.4,0,0,0,.912-.152,16.573,16.573,0,0,0,2.052-.76,10.835,10.835,0,0,0,2.508-1.444,7.668,7.668,0,0,0,2.052-2.432,6.512,6.512,0,0,0,.988-3.5,5.2,5.2,0,0,0-.912-3.344,4.772,4.772,0,0,0-2.356-1.9,15.18,15.18,0,0,0-2.888-.76,8.833,8.833,0,0,0-2.432-.228ZM131.6,64.668l-.456-49.324a2.486,2.486,0,0,1,.76-1.824,2.619,2.619,0,0,1,1.9-.836l9.652.152a2.16,2.16,0,0,1,1.748.836,2.486,2.486,0,0,1,.76,1.824l-.152,36.024H163.52a2.462,2.462,0,0,1,1.9.836,2.076,2.076,0,0,1,.836,1.9l-.152,9.956a2.53,2.53,0,0,1-.38,1.368,2.443,2.443,0,0,1-.912.988,2.565,2.565,0,0,1-1.292.3l-29.184.456a2.84,2.84,0,0,1-1.976-.76A2.746,2.746,0,0,1,131.6,64.668ZM178.769,46.96q-.684-1.444-7.068-12.388-6.309-10.944-10.108-17.328a2.544,2.544,0,0,1-.152-2.66A2.4,2.4,0,0,1,163.8,13.14l12.464-.3a2.186,2.186,0,0,1,1.672.38A2.822,2.822,0,0,1,179,14.584q.987,3.04,3.648,9.5a97.472,97.472,0,0,1,3.876,10.26q4.56-12.084,7.6-20.444a2.635,2.635,0,0,1,2.584-1.748l12.464.38a2.419,2.419,0,0,1,2.356,1.368,2.664,2.664,0,0,1-.152,2.736l-19,30.02,1.6,18.316a2.514,2.514,0,0,1-2.66,2.888l-10.488.152a3.361,3.361,0,0,1-2.052-.836,2.773,2.773,0,0,1-.608-2.052Zm50.742,17.86q-.837-14.136-1.444-49.324a3.4,3.4,0,0,1,.76-1.9,2.745,2.745,0,0,1,1.9-.76l28.956-.3a3.558,3.558,0,0,1,2.052.76,2.4,2.4,0,0,1,.608,2.052l-.152,4.94a2.4,2.4,0,0,1-.76,1.748,2.808,2.808,0,0,1-1.748.912l-16.264.152.608,10.868,11.248-.456a1.915,1.915,0,0,1,1.9.684,2.167,2.167,0,0,1,.912,1.824l.152,6.384a3.408,3.408,0,0,1-.76,1.9,2.749,2.749,0,0,1-1.9.76H244.787q.379,2.888.608,5.7.228,2.736.3,4.1.075,1.292.152,4.94.151,3.572.228,4.712a2.762,2.762,0,0,1-.608,1.9,3.014,3.014,0,0,1-2.052.912H232.171a2.917,2.917,0,0,1-1.9-.684A2.486,2.486,0,0,1,229.511,64.82Zm57.161-53.58a21.6,21.6,0,0,1,12.616,4.028,27.743,27.743,0,0,1,9.12,10.944,34.285,34.285,0,0,1,3.344,15.124,34.114,34.114,0,0,1-3.344,15.048,27.743,27.743,0,0,1-9.12,10.944,22.182,22.182,0,0,1-25.384-.076,27.619,27.619,0,0,1-9.2-10.868,34.285,34.285,0,0,1-3.344-15.124,34.4,34.4,0,0,1,1.976-11.628,30.1,30.1,0,0,1,5.32-9.576,25.561,25.561,0,0,1,8.132-6.384A21.261,21.261,0,0,1,286.672,11.24Zm10.564,30.02a26.6,26.6,0,0,0-1.444-8.892,15.74,15.74,0,0,0-3.8-6.46,7.515,7.515,0,0,0-5.32-2.356q-4.483,0-7.676,5.168a23.861,23.861,0,0,0-3.116,12.54A24.269,24.269,0,0,0,279,53.876q3.192,5.244,7.676,5.244,4.332,0,7.448-5.244A24.269,24.269,0,0,0,297.236,41.26Zm17.688,23.408-.76-49.476a2.633,2.633,0,0,1,.684-1.824,2.785,2.785,0,0,1,1.824-.836q24.4-1.9,32.68,8.056,4.939,6,2.584,14.06a16.4,16.4,0,0,1-6.536,9.5,8.6,8.6,0,0,1-4.712,1.672,7.938,7.938,0,0,0,2.052,3.648,5.991,5.991,0,0,0,3.192,1.6,15.014,15.014,0,0,0,3.344.076,15.678,15.678,0,0,0,3.268-.684,1.7,1.7,0,0,1,1.748.38,2.16,2.16,0,0,1,.836,1.748L354.6,64.212a3.876,3.876,0,0,1-.912,1.748,2.747,2.747,0,0,1-1.9.76,27.773,27.773,0,0,1-6.612-1.216A22.291,22.291,0,0,1,340,63.148a28.221,28.221,0,0,1-3.724-3.116,18.4,18.4,0,0,1-2.66-3.268q-.988-1.6-1.672-2.888a14.561,14.561,0,0,1-.912-2.128l-.3-.836.3,13.3a2.577,2.577,0,0,1-.76,1.9,2.942,2.942,0,0,1-1.9.912l-10.564.3a2.578,2.578,0,0,1-1.9-.76A2.309,2.309,0,0,1,314.924,64.668ZM330.884,23.1V37.46q.379-.076.912-.152a19.78,19.78,0,0,0,2.128-.76,12.04,12.04,0,0,0,2.66-1.444,8.84,8.84,0,0,0,2.28-2.432A7.344,7.344,0,0,0,340.08,29.1a4.858,4.858,0,0,0-.76-3.268,4.054,4.054,0,0,0-2.2-1.824,13.572,13.572,0,0,0-2.812-.76,14.633,14.633,0,0,0-2.356-.228Zm54.6,5.852H373.624a3.553,3.553,0,0,1-2.052-.76,3.372,3.372,0,0,1-.608-1.9l.3-10.108a2.486,2.486,0,0,1,.76-1.824A2.84,2.84,0,0,1,374,13.6l40.432-1.216a3.558,3.558,0,0,1,2.052.76,2.581,2.581,0,0,1,.76,1.9V26.288a2.62,2.62,0,0,1-.836,1.9,2.488,2.488,0,0,1-1.824.76h-12.92l.76,36.632a1.973,1.973,0,0,1-.608,1.9,2.621,2.621,0,0,1-1.9.836h-11.7a2.606,2.606,0,0,1-2.736-2.736ZM419.044,65.58V14.736a2.241,2.241,0,0,1,.912-1.9,2.192,2.192,0,0,1,1.9-.836l10.488.532a2.247,2.247,0,0,1,1.748.76,2.246,2.246,0,0,1,.76,1.748l1.292,50.54a2.462,2.462,0,0,1-.836,1.9,2.192,2.192,0,0,1-1.9.836H421.7a2.747,2.747,0,0,1-1.9-.76A2.672,2.672,0,0,1,419.044,65.58Zm59.308-18.924,6.992,3.952a2.324,2.324,0,0,1,1.216,1.52,2.667,2.667,0,0,1,0,1.976,23.847,23.847,0,0,1-9.576,11.1,25.785,25.785,0,0,1-13.452,3.876,26.2,26.2,0,0,1-7.372-1.064,23.813,23.813,0,0,1-6.764-3.268,27.936,27.936,0,0,1-5.548-5.4A25.951,25.951,0,0,1,439.9,51.9a31.856,31.856,0,0,1-1.52-9.5,36.613,36.613,0,0,1,1.976-13.224A25.685,25.685,0,0,1,446.28,19.6a27.272,27.272,0,0,1,8.284-5.624A24.186,24.186,0,0,1,464.14,12a22.724,22.724,0,0,1,9.88,2.2A21.266,21.266,0,0,1,482,20.436a2.754,2.754,0,0,1,.456,1.976,2.653,2.653,0,0,1-.912,1.824l-5.4,4.256a2.428,2.428,0,0,1-1.672.608,2.5,2.5,0,0,1-1.6-.76,11.681,11.681,0,0,0-5.168-2.736,8.794,8.794,0,0,0-5.244.38,12.677,12.677,0,0,0-4.636,3.04,15.333,15.333,0,0,0-3.5,5.548,24.022,24.022,0,0,0-1.6,7.676,18.2,18.2,0,0,0,.684,6.08,12.1,12.1,0,0,0,2.356,4.56,14.439,14.439,0,0,0,3.5,2.812,9.132,9.132,0,0,0,4.256,1.064,13.518,13.518,0,0,0,4.256-.836,10.618,10.618,0,0,0,3.876-2.888,15.321,15.321,0,0,0,2.888-4.94,3.053,3.053,0,0,1,1.6-1.6A3.136,3.136,0,0,1,478.352,46.656Zm10.463,18.772-.456-50.388a2.568,2.568,0,0,1,.684-1.9,2.485,2.485,0,0,1,1.824-.76l9.956-.152a2.578,2.578,0,0,1,1.9.76,3.364,3.364,0,0,1,.836,2.052l-.684,13.3,17.252-15.656a1.957,1.957,0,0,1,2.052-.608,2.362,2.362,0,0,1,1.9,1.216l6,9.348a2.919,2.919,0,0,1,.3,2.052,2.289,2.289,0,0,1-1.216,1.6L510.019,38.3a14.174,14.174,0,0,0,3.42,5.4,18.263,18.263,0,0,0,5.548,3.572,50.243,50.243,0,0,0,5.548,1.976,39.3,39.3,0,0,0,5.092,1.064,2.4,2.4,0,0,1,1.9,1.064,2.642,2.642,0,0,1,.3,2.2l-3.5,12.388a2.426,2.426,0,0,1-.988,1.444,2.186,2.186,0,0,1-1.672.38,21.26,21.26,0,0,1-12.008-4.712,32.627,32.627,0,0,1-4.1-4.256,35.546,35.546,0,0,1-3.04-4.56q-1.14-2.2-1.976-4.18-.837-2.052-1.216-3.192a9.1,9.1,0,0,1-.3-1.52q0-.38.532,6.612.607,6.916,1.064,13a2.6,2.6,0,0,1-.608,1.9,2.881,2.881,0,0,1-1.9.912l-10.564.38a2.074,2.074,0,0,1-1.9-.836A2.19,2.19,0,0,1,488.815,65.428Zm47.391-.456a109.231,109.231,0,0,1-1.9-17.252q-.533-11.1-.456-18.392.075-7.372.3-13.832a2.633,2.633,0,0,1,.684-1.824,2.379,2.379,0,0,1,1.824-.836l29.108-.3a3.558,3.558,0,0,1,2.052.76,2.4,2.4,0,0,1,.608,2.052l-.152,4.864a2.49,2.49,0,0,1-.76,1.824,2.808,2.808,0,0,1-1.748.912l-16.34.152.684,10.868,11.7.38a2.881,2.881,0,0,1,2.66,2.66v2.964a2.531,2.531,0,0,1-.38,1.368,3.437,3.437,0,0,1-.988.912,3.051,3.051,0,0,1-1.292.456l-12.008.456,1.52,12.008,17.4-.912a2.6,2.6,0,0,1,1.9.608,2.742,2.742,0,0,1,.988,2.052v7.9a2.62,2.62,0,0,1-.836,1.9,2.578,2.578,0,0,1-1.9.76l-30.172-.456A2.409,2.409,0,0,1,536.206,64.972Zm49.739-36.024H574.089a3.553,3.553,0,0,1-2.052-.76,3.372,3.372,0,0,1-.608-1.9l.3-10.108a2.487,2.487,0,0,1,.76-1.824,2.84,2.84,0,0,1,1.976-.76L614.9,12.38a3.558,3.558,0,0,1,2.052.76,2.581,2.581,0,0,1,.76,1.9V26.288a2.62,2.62,0,0,1-.836,1.9,2.489,2.489,0,0,1-1.824.76h-12.92l.76,36.632a1.973,1.973,0,0,1-.608,1.9,2.621,2.621,0,0,1-1.9.836h-11.7a2.606,2.606,0,0,1-2.736-2.736Zm65.712,2.66a22.651,22.651,0,0,0-6.612-5.016,9.961,9.961,0,0,0-6.08-1.292q-6.689,1.52,11.248,11.856a28.627,28.627,0,0,1,9.12,8.436,17.461,17.461,0,0,1,3.572,10.032,10.522,10.522,0,0,1-2.964,7.524,16.805,16.805,0,0,1-7.752,4.484,32.342,32.342,0,0,1-10.336.988,35.362,35.362,0,0,1-12.236-2.66,27.789,27.789,0,0,1-9.88-6.992,2.246,2.246,0,0,1-.76-1.748,2.746,2.746,0,0,1,.76-1.9l6.156-6.764a2.393,2.393,0,0,1,1.748-.912,2.239,2.239,0,0,1,1.9.608q1.368,1.14,2.736,2.2a39.332,39.332,0,0,0,3.344,2.128,20.814,20.814,0,0,0,3.724,1.672,8.9,8.9,0,0,0,3.42.38,4.5,4.5,0,0,0,2.888-1.52A2.01,2.01,0,0,0,645.577,50a16.1,16.1,0,0,0-5.016-3.268q-3.5-1.748-7.448-3.648a46.157,46.157,0,0,1-7.9-5.092,20.454,20.454,0,0,1-5.624-6.84q-3.117-6.688-.912-11.1t8.132-6.384a33.6,33.6,0,0,1,14.06-1.292,32.37,32.37,0,0,1,6.384,1.216,26.347,26.347,0,0,1,5.092,1.9,22.042,22.042,0,0,1,3.952,2.356,20.867,20.867,0,0,1,2.964,2.356,24.088,24.088,0,0,1,1.9,2.128,2.61,2.61,0,0,1,.608,1.9,2.569,2.569,0,0,1-.76,1.672l-5.4,5.7a2.91,2.91,0,0,1-2.052.988A2.183,2.183,0,0,1,651.657,31.608ZM724.048,15.5q.533,31.388,0,49.324a2.392,2.392,0,0,1-.38,1.292,2.478,2.478,0,0,1-.988.912,3.014,3.014,0,0,1-1.368.3H710.14a2.841,2.841,0,0,1-1.976-.76,2.942,2.942,0,0,1-.76-2.052q.077-1.6.076-3.876v-3.8q.077-1.52.152-3.42.076-1.976.228-4.028t.38-4.332H697.6l.684,20.52a2.864,2.864,0,0,1-2.736,2.736h-11.7a2.749,2.749,0,0,1-1.9-.76,2.676,2.676,0,0,1-.76-1.976V15.192a2.633,2.633,0,0,1,.684-1.824,2.382,2.382,0,0,1,1.824-.836L694.18,12a2.819,2.819,0,0,1,1.824.684,3.227,3.227,0,0,1,.836,1.9l.456,18.924,11.4.456q.3-12.92.152-18.62a3.408,3.408,0,0,1,.76-1.9,3.558,3.558,0,0,1,2.052-.76l9.8.152a2.379,2.379,0,0,1,1.824.836A2.487,2.487,0,0,1,724.048,15.5Zm6.462,49.476a109.361,109.361,0,0,1-1.9-17.252q-.531-11.1-.456-18.392.077-7.372.3-13.832a2.632,2.632,0,0,1,.684-1.824,2.381,2.381,0,0,1,1.824-.836l29.108-.3a3.553,3.553,0,0,1,2.052.76,2.4,2.4,0,0,1,.608,2.052l-.152,4.864a2.487,2.487,0,0,1-.76,1.824,2.806,2.806,0,0,1-1.748.912l-16.34.152.684,10.868,11.7.38a2.881,2.881,0,0,1,2.66,2.66v2.964a2.522,2.522,0,0,1-.38,1.368,3.411,3.411,0,0,1-.988.912,3.047,3.047,0,0,1-1.292.456l-12.008.456,1.52,12.008,17.4-.912a2.592,2.592,0,0,1,1.9.608,2.739,2.739,0,0,1,.988,2.052v7.9a2.616,2.616,0,0,1-.836,1.9,2.577,2.577,0,0,1-1.9.76l-30.172-.456A2.41,2.41,0,0,1,730.51,64.972Zm38.187-.3-.76-49.476a2.633,2.633,0,0,1,.684-1.824,2.785,2.785,0,0,1,1.824-.836q24.4-1.9,32.68,8.056,4.941,6,2.584,14.06a16.4,16.4,0,0,1-6.536,9.5,8.6,8.6,0,0,1-4.712,1.672,7.938,7.938,0,0,0,2.052,3.648,5.991,5.991,0,0,0,3.192,1.6,15.014,15.014,0,0,0,3.344.076,15.665,15.665,0,0,0,3.268-.684,1.7,1.7,0,0,1,1.748.38,2.157,2.157,0,0,1,.836,1.748l-.532,11.628a3.877,3.877,0,0,1-.912,1.748,2.745,2.745,0,0,1-1.9.76,27.792,27.792,0,0,1-6.612-1.216,22.31,22.31,0,0,1-5.168-2.356,28.227,28.227,0,0,1-3.724-3.116,18.445,18.445,0,0,1-2.66-3.268q-.987-1.6-1.672-2.888a14.561,14.561,0,0,1-.912-2.128l-.3-.836.3,13.3a2.577,2.577,0,0,1-.76,1.9,2.942,2.942,0,0,1-1.9.912l-10.564.3a2.578,2.578,0,0,1-1.9-.76A2.312,2.312,0,0,1,768.7,64.668ZM784.657,23.1V37.46q.381-.076.912-.152a19.7,19.7,0,0,0,2.128-.76,12.017,12.017,0,0,0,2.66-1.444,8.839,8.839,0,0,0,2.28-2.432,7.335,7.335,0,0,0,1.216-3.572,4.853,4.853,0,0,0-.76-3.268,4.054,4.054,0,0,0-2.2-1.824,13.573,13.573,0,0,0-2.812-.76,14.634,14.634,0,0,0-2.356-.228Zm28.9,41.876a109.355,109.355,0,0,1-1.9-17.252q-.532-11.1-.456-18.392.076-7.372.3-13.832a2.633,2.633,0,0,1,.684-1.824,2.382,2.382,0,0,1,1.824-.836l29.108-.3a3.553,3.553,0,0,1,2.052.76,2.4,2.4,0,0,1,.608,2.052l-.152,4.864a2.486,2.486,0,0,1-.76,1.824,2.808,2.808,0,0,1-1.748.912l-16.34.152.684,10.868,11.7.38a2.881,2.881,0,0,1,2.66,2.66v2.964a2.531,2.531,0,0,1-.38,1.368,3.425,3.425,0,0,1-.988.912,3.047,3.047,0,0,1-1.292.456l-12.008.456,1.52,12.008,17.4-.912a2.593,2.593,0,0,1,1.9.608,2.739,2.739,0,0,1,.988,2.052v7.9a2.62,2.62,0,0,1-.836,1.9,2.578,2.578,0,0,1-1.9.76l-30.172-.456A2.41,2.41,0,0,1,813.561,64.972Z"/>
    <path id="Path_398" data-name="Path 398" d="M34.44,5.8q2.736,17.708,12.616,49.172a2.5,2.5,0,0,1-.3,2.356,2.476,2.476,0,0,1-2.052,1.14l-11.552.76A2.719,2.719,0,0,1,31.4,58.62a2.808,2.808,0,0,1-.912-1.748l-1.064-6.916-10.64.076L17.72,55.884a3.19,3.19,0,0,1-1.064,1.6,1.947,1.947,0,0,1-1.672.456L3.128,57.48a2.277,2.277,0,0,1-2.052-1.064,2.188,2.188,0,0,1-.3-2.2l14.06-49.02a2.828,2.828,0,0,1,2.736-1.9l14.364.152a2.466,2.466,0,0,1,1.14.456,2.1,2.1,0,0,1,.912.836A2.018,2.018,0,0,1,34.44,5.8Zm-9.8,13.452-3.952,21.2q2.128-.152,7.3-.152ZM49.988,55.58l-1.9-51.3a3.326,3.326,0,0,1,.76-2.052,2.619,2.619,0,0,1,1.9-.836q2.356,0,4.636.076T61.313,2A57.893,57.893,0,0,1,68,3.064a38.338,38.338,0,0,1,6.46,1.9,23.962,23.962,0,0,1,5.7,2.888,13.773,13.773,0,0,1,4.028,4.332,11.439,11.439,0,0,1,1.824,5.776,19.255,19.255,0,0,1-.836,7.144,14.912,14.912,0,0,1-2.964,5.4,25.445,25.445,0,0,1-4.18,3.876A20.166,20.166,0,0,1,73.4,36.96q-2.356.912-4.332,1.52a27.069,27.069,0,0,1-3.116.836l-1.292.152L65.8,55.276a2.777,2.777,0,0,1-.608,2.052,2.619,2.619,0,0,1-1.9.836l-10.64.152a2.747,2.747,0,0,1-1.9-.76A2.673,2.673,0,0,1,49.988,55.58ZM61.845,15.452l1.064,14.516a3.407,3.407,0,0,0,.912-.152,16.645,16.645,0,0,0,2.052-.76,10.847,10.847,0,0,0,2.508-1.444,7.668,7.668,0,0,0,2.052-2.432,6.514,6.514,0,0,0,.988-3.5,5.2,5.2,0,0,0-.912-3.344,4.773,4.773,0,0,0-2.356-1.9,15.2,15.2,0,0,0-2.888-.76,8.836,8.836,0,0,0-2.432-.228ZM89.25,55.58l-1.9-51.3a3.326,3.326,0,0,1,.76-2.052,2.619,2.619,0,0,1,1.9-.836q2.356,0,4.636.076T100.574,2a57.872,57.872,0,0,1,6.688,1.064,38.314,38.314,0,0,1,6.46,1.9,23.939,23.939,0,0,1,5.7,2.888,13.766,13.766,0,0,1,4.028,4.332,11.434,11.434,0,0,1,1.824,5.776,19.243,19.243,0,0,1-.836,7.144,14.9,14.9,0,0,1-2.964,5.4,25.433,25.433,0,0,1-4.18,3.876,20.16,20.16,0,0,1-4.636,2.584q-2.355.912-4.332,1.52a27.02,27.02,0,0,1-3.116.836l-1.292.152,1.14,15.808a2.773,2.773,0,0,1-.608,2.052,2.617,2.617,0,0,1-1.9.836l-10.64.152a2.747,2.747,0,0,1-1.9-.76A2.673,2.673,0,0,1,89.25,55.58Zm11.856-40.128,1.064,14.516a3.4,3.4,0,0,0,.912-.152,16.573,16.573,0,0,0,2.052-.76,10.835,10.835,0,0,0,2.508-1.444,7.668,7.668,0,0,0,2.052-2.432,6.512,6.512,0,0,0,.988-3.5,5.2,5.2,0,0,0-.912-3.344,4.772,4.772,0,0,0-2.356-1.9,15.18,15.18,0,0,0-2.888-.76,8.833,8.833,0,0,0-2.432-.228ZM127.6,54.668l-.456-49.324a2.486,2.486,0,0,1,.76-1.824,2.619,2.619,0,0,1,1.9-.836l9.652.152a2.16,2.16,0,0,1,1.748.836,2.486,2.486,0,0,1,.76,1.824l-.152,36.024H159.52a2.462,2.462,0,0,1,1.9.836,2.076,2.076,0,0,1,.836,1.9l-.152,9.956a2.53,2.53,0,0,1-.38,1.368,2.443,2.443,0,0,1-.912.988,2.565,2.565,0,0,1-1.292.3l-29.184.456a2.84,2.84,0,0,1-1.976-.76A2.746,2.746,0,0,1,127.6,54.668ZM174.769,36.96q-.684-1.444-7.068-12.388-6.309-10.944-10.108-17.328a2.544,2.544,0,0,1-.152-2.66A2.4,2.4,0,0,1,159.8,3.14l12.464-.3a2.186,2.186,0,0,1,1.672.38A2.821,2.821,0,0,1,175,4.584q.987,3.04,3.648,9.5a97.472,97.472,0,0,1,3.876,10.26q4.56-12.084,7.6-20.444a2.635,2.635,0,0,1,2.584-1.748l12.464.38A2.419,2.419,0,0,1,207.525,3.9a2.664,2.664,0,0,1-.152,2.736l-19,30.02,1.6,18.316a3.4,3.4,0,0,1-.608,2.052,3.365,3.365,0,0,1-2.052.836l-10.488.152a3.361,3.361,0,0,1-2.052-.836,2.773,2.773,0,0,1-.608-2.052Zm50.742,17.86q-.837-14.136-1.444-49.324a3.4,3.4,0,0,1,.76-1.9,2.746,2.746,0,0,1,1.9-.76l28.956-.3a3.558,3.558,0,0,1,2.052.76,2.4,2.4,0,0,1,.608,2.052l-.152,4.94a2.4,2.4,0,0,1-.76,1.748,2.808,2.808,0,0,1-1.748.912l-16.264.152.608,10.868,11.248-.456a1.915,1.915,0,0,1,1.9.684,2.167,2.167,0,0,1,.912,1.824l.152,6.384a3.408,3.408,0,0,1-.76,1.9,2.749,2.749,0,0,1-1.9.76H240.787q.379,2.888.608,5.7.228,2.736.3,4.1.075,1.292.152,4.94.151,3.572.228,4.712a2.762,2.762,0,0,1-.608,1.9,3.014,3.014,0,0,1-2.052.912H228.171a2.917,2.917,0,0,1-1.9-.684A2.486,2.486,0,0,1,225.511,54.82ZM282.672,1.24a21.6,21.6,0,0,1,12.616,4.028,27.743,27.743,0,0,1,9.12,10.944,34.285,34.285,0,0,1,3.344,15.124,34.114,34.114,0,0,1-3.344,15.048,27.743,27.743,0,0,1-9.12,10.944,22.182,22.182,0,0,1-25.384-.076,27.619,27.619,0,0,1-9.2-10.868,34.285,34.285,0,0,1-3.344-15.124,34.4,34.4,0,0,1,1.976-11.628,30.1,30.1,0,0,1,5.32-9.576,25.56,25.56,0,0,1,8.132-6.384A21.261,21.261,0,0,1,282.672,1.24Zm10.564,30.02a26.6,26.6,0,0,0-1.444-8.892,15.74,15.74,0,0,0-3.8-6.46,7.515,7.515,0,0,0-5.32-2.356q-4.483,0-7.676,5.168a23.861,23.861,0,0,0-3.116,12.54A24.269,24.269,0,0,0,275,43.876q3.192,5.244,7.676,5.244,4.332,0,7.448-5.244A24.269,24.269,0,0,0,293.236,31.26Zm17.688,23.408-.76-49.476a2.632,2.632,0,0,1,.684-1.824,2.784,2.784,0,0,1,1.824-.836q24.4-1.9,32.68,8.056,4.939,6,2.584,14.06a16.4,16.4,0,0,1-6.536,9.5,8.6,8.6,0,0,1-4.712,1.672,7.938,7.938,0,0,0,2.052,3.648,5.991,5.991,0,0,0,3.192,1.6,15.014,15.014,0,0,0,3.344.076,15.678,15.678,0,0,0,3.268-.684,1.7,1.7,0,0,1,1.748.38,2.16,2.16,0,0,1,.836,1.748L350.6,54.212a3.876,3.876,0,0,1-.912,1.748,2.747,2.747,0,0,1-1.9.76,27.773,27.773,0,0,1-6.612-1.216A22.291,22.291,0,0,1,336,53.148a28.221,28.221,0,0,1-3.724-3.116,18.4,18.4,0,0,1-2.66-3.268q-.988-1.6-1.672-2.888a14.561,14.561,0,0,1-.912-2.128l-.3-.836.3,13.3a2.577,2.577,0,0,1-.76,1.9,2.942,2.942,0,0,1-1.9.912l-10.564.3a2.578,2.578,0,0,1-1.9-.76A2.309,2.309,0,0,1,310.924,54.668ZM326.884,13.1V27.46q.379-.076.912-.152a19.781,19.781,0,0,0,2.128-.76,12.04,12.04,0,0,0,2.66-1.444,8.84,8.84,0,0,0,2.28-2.432A7.344,7.344,0,0,0,336.08,19.1a4.858,4.858,0,0,0-.76-3.268,4.054,4.054,0,0,0-2.2-1.824,13.572,13.572,0,0,0-2.812-.76,14.633,14.633,0,0,0-2.356-.228Zm54.6,5.852H369.624a3.553,3.553,0,0,1-2.052-.76,3.372,3.372,0,0,1-.608-1.9l.3-10.108a2.486,2.486,0,0,1,.76-1.824A2.84,2.84,0,0,1,370,3.6L410.436,2.38a3.558,3.558,0,0,1,2.052.76,2.581,2.581,0,0,1,.76,1.9V16.288a2.62,2.62,0,0,1-.836,1.9,2.488,2.488,0,0,1-1.824.76h-12.92l.76,36.632a1.973,1.973,0,0,1-.608,1.9,2.621,2.621,0,0,1-1.9.836h-11.7a2.606,2.606,0,0,1-2.736-2.736ZM415.044,55.58V4.736a2.241,2.241,0,0,1,.912-1.9,2.191,2.191,0,0,1,1.9-.836l10.488.532a2.247,2.247,0,0,1,1.748.76,2.246,2.246,0,0,1,.76,1.748l1.292,50.54a2.462,2.462,0,0,1-.836,1.9,2.192,2.192,0,0,1-1.9.836H417.7a2.747,2.747,0,0,1-1.9-.76A2.672,2.672,0,0,1,415.044,55.58Zm59.308-18.924,6.992,3.952a2.324,2.324,0,0,1,1.216,1.52,2.667,2.667,0,0,1,0,1.976,23.847,23.847,0,0,1-9.576,11.1,25.785,25.785,0,0,1-13.452,3.876,26.2,26.2,0,0,1-7.372-1.064,23.813,23.813,0,0,1-6.764-3.268,27.936,27.936,0,0,1-5.548-5.4A25.951,25.951,0,0,1,435.9,41.9a31.856,31.856,0,0,1-1.52-9.5,36.613,36.613,0,0,1,1.976-13.224A25.685,25.685,0,0,1,442.28,9.6a27.272,27.272,0,0,1,8.284-5.624A24.185,24.185,0,0,1,460.14,2a22.723,22.723,0,0,1,9.88,2.2A21.266,21.266,0,0,1,478,10.436a2.754,2.754,0,0,1,.456,1.976,2.653,2.653,0,0,1-.912,1.824l-5.4,4.256a2.428,2.428,0,0,1-1.672.608,2.5,2.5,0,0,1-1.6-.76,11.681,11.681,0,0,0-5.168-2.736,8.794,8.794,0,0,0-5.244.38,12.677,12.677,0,0,0-4.636,3.04,15.333,15.333,0,0,0-3.5,5.548,24.022,24.022,0,0,0-1.6,7.676,18.2,18.2,0,0,0,.684,6.08,12.1,12.1,0,0,0,2.356,4.56,14.439,14.439,0,0,0,3.5,2.812,9.132,9.132,0,0,0,4.256,1.064,13.518,13.518,0,0,0,4.256-.836,10.618,10.618,0,0,0,3.876-2.888,15.321,15.321,0,0,0,2.888-4.94,3.053,3.053,0,0,1,1.6-1.6A3.136,3.136,0,0,1,474.352,36.656Zm10.463,18.772L484.359,5.04a2.568,2.568,0,0,1,.684-1.9,2.485,2.485,0,0,1,1.824-.76l9.956-.152a2.578,2.578,0,0,1,1.9.76,3.364,3.364,0,0,1,.836,2.052l-.684,13.3L516.127,2.684a1.957,1.957,0,0,1,2.052-.608,2.362,2.362,0,0,1,1.9,1.216l6,9.348a2.919,2.919,0,0,1,.3,2.052,2.289,2.289,0,0,1-1.216,1.6L506.019,28.3a14.175,14.175,0,0,0,3.42,5.4,18.264,18.264,0,0,0,5.548,3.572,50.243,50.243,0,0,0,5.548,1.976,39.3,39.3,0,0,0,5.092,1.064,2.4,2.4,0,0,1,1.9,1.064,2.642,2.642,0,0,1,.3,2.2l-3.5,12.388a2.426,2.426,0,0,1-.988,1.444,2.186,2.186,0,0,1-1.672.38,21.26,21.26,0,0,1-12.008-4.712,32.625,32.625,0,0,1-4.1-4.256,35.546,35.546,0,0,1-3.04-4.56q-1.14-2.2-1.976-4.18-.837-2.052-1.216-3.192a9.1,9.1,0,0,1-.3-1.52q0-.38.532,6.612.607,6.916,1.064,13a2.6,2.6,0,0,1-.608,1.9,2.882,2.882,0,0,1-1.9.912l-10.564.38a2.074,2.074,0,0,1-1.9-.836A2.19,2.19,0,0,1,484.815,55.428Zm47.391-.456a109.231,109.231,0,0,1-1.9-17.252q-.533-11.1-.456-18.392.075-7.372.3-13.832a2.633,2.633,0,0,1,.684-1.824,2.378,2.378,0,0,1,1.824-.836l29.108-.3a3.558,3.558,0,0,1,2.052.76,2.4,2.4,0,0,1,.608,2.052l-.152,4.864a2.49,2.49,0,0,1-.76,1.824,2.808,2.808,0,0,1-1.748.912l-16.34.152.684,10.868,11.7.38a2.881,2.881,0,0,1,2.66,2.66v2.964a2.531,2.531,0,0,1-.38,1.368,3.438,3.438,0,0,1-.988.912,3.051,3.051,0,0,1-1.292.456l-12.008.456,1.52,12.008,17.4-.912a2.6,2.6,0,0,1,1.9.608,2.742,2.742,0,0,1,.988,2.052v7.9a2.62,2.62,0,0,1-.836,1.9,2.578,2.578,0,0,1-1.9.76l-30.172-.456A2.409,2.409,0,0,1,532.206,54.972Zm49.739-36.024H570.089a3.553,3.553,0,0,1-2.052-.76,3.372,3.372,0,0,1-.608-1.9l.3-10.108a2.486,2.486,0,0,1,.76-1.824,2.84,2.84,0,0,1,1.976-.76L610.9,2.38a3.558,3.558,0,0,1,2.052.76,2.581,2.581,0,0,1,.76,1.9V16.288a2.62,2.62,0,0,1-.836,1.9,2.489,2.489,0,0,1-1.824.76h-12.92l.76,36.632a1.973,1.973,0,0,1-.608,1.9,2.62,2.62,0,0,1-1.9.836h-11.7a2.606,2.606,0,0,1-2.736-2.736Zm65.712,2.66a22.651,22.651,0,0,0-6.612-5.016,9.961,9.961,0,0,0-6.08-1.292q-6.689,1.52,11.248,11.856a28.627,28.627,0,0,1,9.12,8.436,17.461,17.461,0,0,1,3.572,10.032,10.522,10.522,0,0,1-2.964,7.524,16.805,16.805,0,0,1-7.752,4.484,32.342,32.342,0,0,1-10.336.988,35.362,35.362,0,0,1-12.236-2.66,27.789,27.789,0,0,1-9.88-6.992,2.246,2.246,0,0,1-.76-1.748,2.746,2.746,0,0,1,.76-1.9l6.156-6.764a2.393,2.393,0,0,1,1.748-.912,2.239,2.239,0,0,1,1.9.608q1.368,1.14,2.736,2.2a39.332,39.332,0,0,0,3.344,2.128,20.814,20.814,0,0,0,3.724,1.672,8.9,8.9,0,0,0,3.42.38,4.5,4.5,0,0,0,2.888-1.52A2.01,2.01,0,0,0,641.577,40a16.1,16.1,0,0,0-5.016-3.268q-3.5-1.748-7.448-3.648a46.157,46.157,0,0,1-7.9-5.092,20.454,20.454,0,0,1-5.624-6.84q-3.117-6.688-.912-11.1T622.8,3.672a33.6,33.6,0,0,1,14.06-1.292A32.367,32.367,0,0,1,643.249,3.6a26.346,26.346,0,0,1,5.092,1.9,22.04,22.04,0,0,1,3.952,2.356,20.867,20.867,0,0,1,2.964,2.356,24.088,24.088,0,0,1,1.9,2.128,2.61,2.61,0,0,1,.608,1.9,2.569,2.569,0,0,1-.76,1.672l-5.4,5.7a2.91,2.91,0,0,1-2.052.988A2.183,2.183,0,0,1,647.657,21.608ZM720.048,5.5q.533,31.388,0,49.324a2.392,2.392,0,0,1-.38,1.292,2.478,2.478,0,0,1-.988.912,3.014,3.014,0,0,1-1.368.3H706.14a2.841,2.841,0,0,1-1.976-.76,2.942,2.942,0,0,1-.76-2.052q.077-1.6.076-3.876v-3.8q.077-1.52.152-3.42.076-1.976.228-4.028t.38-4.332H693.6l.684,20.52a2.864,2.864,0,0,1-2.736,2.736h-11.7a2.749,2.749,0,0,1-1.9-.76,2.676,2.676,0,0,1-.76-1.976V5.192a2.632,2.632,0,0,1,.684-1.824,2.381,2.381,0,0,1,1.824-.836L690.18,2A2.819,2.819,0,0,1,692,2.684a3.227,3.227,0,0,1,.836,1.9l.456,18.924,11.4.456q.3-12.92.152-18.62a3.408,3.408,0,0,1,.76-1.9,3.558,3.558,0,0,1,2.052-.76l9.8.152a2.379,2.379,0,0,1,1.824.836A2.486,2.486,0,0,1,720.048,5.5Zm6.462,49.476a109.361,109.361,0,0,1-1.9-17.252q-.531-11.1-.456-18.392.077-7.372.3-13.832a2.632,2.632,0,0,1,.684-1.824,2.381,2.381,0,0,1,1.824-.836l29.108-.3a3.553,3.553,0,0,1,2.052.76,2.4,2.4,0,0,1,.608,2.052l-.152,4.864a2.487,2.487,0,0,1-.76,1.824,2.806,2.806,0,0,1-1.748.912l-16.34.152.684,10.868,11.7.38a2.881,2.881,0,0,1,2.66,2.66v2.964a2.522,2.522,0,0,1-.38,1.368,3.411,3.411,0,0,1-.988.912,3.047,3.047,0,0,1-1.292.456l-12.008.456,1.52,12.008,17.4-.912a2.592,2.592,0,0,1,1.9.608,2.739,2.739,0,0,1,.988,2.052v7.9a2.616,2.616,0,0,1-.836,1.9,2.577,2.577,0,0,1-1.9.76l-30.172-.456A2.41,2.41,0,0,1,726.51,54.972Zm38.187-.3-.76-49.476a2.632,2.632,0,0,1,.684-1.824,2.785,2.785,0,0,1,1.824-.836q24.4-1.9,32.68,8.056,4.941,6,2.584,14.06a16.4,16.4,0,0,1-6.536,9.5,8.6,8.6,0,0,1-4.712,1.672,7.938,7.938,0,0,0,2.052,3.648,5.991,5.991,0,0,0,3.192,1.6,15.014,15.014,0,0,0,3.344.076,15.665,15.665,0,0,0,3.268-.684,1.7,1.7,0,0,1,1.748.38,2.157,2.157,0,0,1,.836,1.748l-.532,11.628a3.877,3.877,0,0,1-.912,1.748,2.745,2.745,0,0,1-1.9.76,27.792,27.792,0,0,1-6.612-1.216,22.31,22.31,0,0,1-5.168-2.356,28.227,28.227,0,0,1-3.724-3.116,18.445,18.445,0,0,1-2.66-3.268q-.987-1.6-1.672-2.888a14.561,14.561,0,0,1-.912-2.128l-.3-.836.3,13.3a2.577,2.577,0,0,1-.76,1.9,2.942,2.942,0,0,1-1.9.912l-10.564.3a2.578,2.578,0,0,1-1.9-.76A2.312,2.312,0,0,1,764.7,54.668ZM780.657,13.1V27.46q.381-.076.912-.152a19.7,19.7,0,0,0,2.128-.76,12.017,12.017,0,0,0,2.66-1.444,8.839,8.839,0,0,0,2.28-2.432,7.335,7.335,0,0,0,1.216-3.572,4.853,4.853,0,0,0-.76-3.268,4.054,4.054,0,0,0-2.2-1.824,13.573,13.573,0,0,0-2.812-.76,14.634,14.634,0,0,0-2.356-.228Zm28.9,41.876a109.355,109.355,0,0,1-1.9-17.252q-.532-11.1-.456-18.392.076-7.372.3-13.832a2.633,2.633,0,0,1,.684-1.824,2.381,2.381,0,0,1,1.824-.836l29.108-.3a3.553,3.553,0,0,1,2.052.76,2.4,2.4,0,0,1,.608,2.052l-.152,4.864a2.486,2.486,0,0,1-.76,1.824,2.808,2.808,0,0,1-1.748.912l-16.34.152.684,10.868,11.7.38a2.881,2.881,0,0,1,2.66,2.66v2.964a2.531,2.531,0,0,1-.38,1.368,3.425,3.425,0,0,1-.988.912,3.047,3.047,0,0,1-1.292.456l-12.008.456,1.52,12.008,17.4-.912a2.593,2.593,0,0,1,1.9.608,2.739,2.739,0,0,1,.988,2.052v7.9a2.62,2.62,0,0,1-.836,1.9,2.578,2.578,0,0,1-1.9.76l-30.172-.456A2.41,2.41,0,0,1,809.561,54.972Z" fill="#fff"/>
  </g>
</svg>
