<svg xmlns="http://www.w3.org/2000/svg" width="1033" height="339.298" viewBox="0 0 1033 339.298">
  <g id="Group_16" data-name="Group 16" transform="translate(1033 447.298) rotate(180)">
    <path id="Path_403" data-name="Path 403" d="M1047,351.3H351.164a17.43,17.43,0,1,0-34.859,0H26a6,6,0,0,1-6-6V204a22.295,22.295,0,0,0,0-44.59V18a6,6,0,0,1,6-6H316.931a17.43,17.43,0,1,0,33.607,0H1047a6,6,0,0,1,6,6V159.41a22.295,22.295,0,0,0,0,44.59V345.3A6,6,0,0,1,1047,351.3ZM316.3,295.523a17.43,17.43,0,1,1,17.43,17.43A17.43,17.43,0,0,1,316.3,295.523Zm17.43-73.205a17.43,17.43,0,1,0,17.429,17.43A17.43,17.43,0,0,0,333.735,222.318ZM316.3,183.973a17.43,17.43,0,1,1,17.43,17.429A17.43,17.43,0,0,1,316.3,183.973Zm17.43-73.205a17.43,17.43,0,1,0,17.429,17.43A17.43,17.43,0,0,0,333.735,110.768ZM316.3,72.423a17.43,17.43,0,1,1,17.43,17.43A17.429,17.429,0,0,1,316.3,72.423Z" transform="translate(-20 96)" fill="#fa5707" fill-rule="evenodd"/>
  </g>
</svg>
