<svg viewBox="0 0 1073 380" fill="none" xmlns="http://www.w3.org/2000/svg">
<g filter="url(#filter0_d_1_9006)">
<path fill-rule="evenodd" clip-rule="evenodd" d="M1047 351.298L351.164 351.298C351.164 341.672 343.361 333.868 333.735 333.868C324.108 333.868 316.305 341.672 316.305 351.298L26.0001 351.298C22.6864 351.298 20.0001 348.611 20.0001 345.298L20.0006 204C32.3137 204 42.2955 194.018 42.2955 181.705C42.2955 169.391 32.3137 159.41 20.0006 159.41L20.0002 17.9998C20.0002 14.6861 22.6864 11.9998 26.0002 11.9998L316.931 11.9998C316.523 13.4795 316.305 15.0381 316.305 16.6477C316.305 26.2739 324.108 34.0774 333.735 34.0774C343.361 34.0774 351.164 26.2739 351.164 16.6477C351.164 15.0381 350.946 13.4795 350.538 11.9998L1047 11.9999C1050.31 11.9999 1053 14.6862 1053 17.9999L1053 159.41C1040.69 159.41 1030.71 169.392 1030.71 181.705C1030.71 194.018 1040.69 203.999 1053 204L1053 345.298C1053 348.612 1050.31 351.298 1047 351.298ZM316.305 295.523C316.305 285.897 324.108 278.093 333.735 278.093C343.361 278.093 351.164 285.897 351.164 295.523C351.164 305.149 343.361 312.953 333.735 312.953C324.108 312.953 316.305 305.149 316.305 295.523ZM333.735 222.318C324.108 222.318 316.305 230.122 316.305 239.748C316.305 249.374 324.108 257.177 333.735 257.177C343.361 257.177 351.164 249.374 351.164 239.748C351.164 230.122 343.361 222.318 333.735 222.318ZM316.305 183.973C316.305 174.347 324.108 166.543 333.735 166.543C343.361 166.543 351.164 174.347 351.164 183.973C351.164 193.599 343.361 201.402 333.735 201.402C324.108 201.402 316.305 193.599 316.305 183.973ZM333.735 110.768C324.108 110.768 316.305 118.572 316.305 128.198C316.305 137.824 324.108 145.627 333.735 145.627C343.361 145.627 351.164 137.824 351.164 128.198C351.164 118.572 343.361 110.768 333.735 110.768ZM316.305 72.4227C316.305 62.7966 324.108 54.993 333.735 54.993C343.361 54.993 351.164 62.7966 351.164 72.4227C351.164 82.0489 343.361 89.8524 333.735 89.8524C324.108 89.8524 316.305 82.0489 316.305 72.4227Z" fill="#FB5607"/>
</g>
<defs>
<filter id="filter0_d_1_9006" x="0.00012207" y="-0.00012207" width="1073" height="379.298" filterUnits="userSpaceOnUse" color-interpolation-filters="sRGB">
<feFlood flood-opacity="0" result="BackgroundImageFix"/>
<feColorMatrix in="SourceAlpha" type="matrix" values="0 0 0 0 0 0 0 0 0 0 0 0 0 0 0 0 0 0 127 0" result="hardAlpha"/>
<feOffset dy="8"/>
<feGaussianBlur stdDeviation="10"/>
<feComposite in2="hardAlpha" operator="out"/>
<feColorMatrix type="matrix" values="0 0 0 0 0 0 0 0 0 0 0 0 0 0 0 0 0 0 0.25 0"/>
<feBlend mode="normal" in2="BackgroundImageFix" result="effect1_dropShadow_1_9006"/>
<feBlend mode="normal" in="SourceGraphic" in2="effect1_dropShadow_1_9006" result="shape"/>
</filter>
</defs>
</svg>
