<svg  viewBox="0 0 94 78" fill="none" xmlns="http://www.w3.org/2000/svg">
<path d="M49.3547 1.04866C49.079 0.720424 48.734 0.456356 48.3442 0.275143C47.9543 0.0939294 47.5292 0 47.0987 0C46.6682 0 46.243 0.0939294 45.8532 0.275143C45.4634 0.456356 45.1184 0.720424 44.8427 1.04866C37.8115 9.42511 23.9394 19.3649 15.9612 23.7887C15.5648 24.0089 15.2252 24.3173 14.9692 24.6898C14.7131 25.0623 14.5475 25.4886 14.4854 25.9354L8.0699 72.1668H2.9375C2.15843 72.1668 1.41126 72.4741 0.860374 73.0211C0.309486 73.568 0 74.3099 0 75.0834C0 75.8569 0.309486 76.5988 0.860374 77.1458C1.41126 77.6927 2.15843 78 2.9375 78H91.0625C91.8416 78 92.5887 77.6927 93.1396 77.1458C93.6905 76.5988 94 75.8569 94 75.0834C94 74.3099 93.6905 73.568 93.1396 73.0211C92.5887 72.4741 91.8416 72.1668 91.0625 72.1668H86.1275L79.712 25.9377C79.6494 25.4905 79.4831 25.0639 79.2262 24.6914C78.9693 24.3189 78.6288 24.0107 78.2315 23.7911C70.2556 19.3649 56.3835 9.42278 49.3547 1.04866ZM32.3994 72.1668C37.3274 65.055 42.4128 55.9156 47 41.4796C51.1454 54.5016 55.7702 63.5057 61.6005 72.1668H32.3971H32.3994Z" fill="#ED1E70"/>
</svg>
