<svg  viewBox="0 0 88 88" fill="none" xmlns="http://www.w3.org/2000/svg">
<path d="M78.5714 0H9.42857C4.22321 0 0 4.22321 0 9.42857V78.5714C0 83.7768 4.22321 88 9.42857 88H78.5714C83.7768 88 88 83.7768 88 78.5714V9.42857C88 4.22321 83.7768 0 78.5714 0ZM47.1429 56.5714H37.7143V66C37.7143 67.7286 36.3 69.1429 34.5714 69.1429H28.2857C26.5571 69.1429 25.1429 67.7286 25.1429 66V22C25.1429 20.2714 26.5571 18.8571 28.2857 18.8571H47.1429C57.5339 18.8571 66 27.3232 66 37.7143C66 48.1054 57.5339 56.5714 47.1429 56.5714ZM47.1429 31.4286H37.7143V44H47.1429C50.6 44 53.4286 41.1714 53.4286 37.7143C53.4286 34.2571 50.6 31.4286 47.1429 31.4286Z" fill="#FFBE08"/>
</svg>
