<svg width="475" height="156" viewBox="0 0 475 156" fill="none" xmlns="http://www.w3.org/2000/svg">
<g filter="url(#filter0_d_1_433)">
<path fill-rule="evenodd" clip-rule="evenodd" d="M306.349 19.8237C309.806 19.8237 312.608 17.0215 312.608 13.5647C312.608 13.0244 312.539 12.5001 312.411 12H449C452.314 12 455 14.6863 455 18V60.5072C449.815 60.5072 445.612 64.7106 445.612 69.8957C445.612 75.0808 449.815 79.2842 455 79.2842V121.791C455 125.105 452.314 127.791 449 127.791H312.608C312.608 124.335 309.806 121.532 306.349 121.532C302.892 121.532 300.09 124.335 300.09 127.791H26C22.6863 127.791 20 125.105 20 121.791V79.2842C25.1851 79.2842 29.3885 75.0808 29.3885 69.8957C29.3885 64.7106 25.1851 60.5072 20 60.5072V18C20 14.6863 22.6863 12 26 12H300.287C300.158 12.5001 300.09 13.0244 300.09 13.5647C300.09 17.0215 302.892 19.8237 306.349 19.8237ZM306.349 77.7194C309.806 77.7194 312.608 74.9172 312.608 71.4604C312.608 68.0037 309.806 65.2014 306.349 65.2014C302.892 65.2014 300.09 68.0037 300.09 71.4604C300.09 74.9172 302.892 77.7194 306.349 77.7194ZM312.608 90.2374C312.608 93.6942 309.806 96.4964 306.349 96.4964C302.892 96.4964 300.09 93.6942 300.09 90.2374C300.09 86.7807 302.892 83.9784 306.349 83.9784C309.806 83.9784 312.608 86.7807 312.608 90.2374ZM306.349 115.273C309.806 115.273 312.608 112.471 312.608 109.014C312.608 105.558 309.806 102.755 306.349 102.755C302.892 102.755 300.09 105.558 300.09 109.014C300.09 112.471 302.892 115.273 306.349 115.273ZM306.349 57.3777C309.806 57.3777 312.608 54.5755 312.608 51.1187C312.608 47.662 309.806 44.8597 306.349 44.8597C302.892 44.8597 300.09 47.662 300.09 51.1187C300.09 54.5755 302.892 57.3777 306.349 57.3777ZM312.608 33.1241C312.608 36.1488 309.806 38.6007 306.349 38.6007C302.892 38.6007 300.09 36.1488 300.09 33.1241C300.09 30.0994 302.892 27.6475 306.349 27.6475C309.806 27.6475 312.608 30.0994 312.608 33.1241Z" fill="#666"/>
</g>
<defs>
<filter id="filter0_d_1_433" x="0" y="0" width="475" height="155.791" filterUnits="userSpaceOnUse" color-interpolation-filters="sRGB">
<feFlood flood-opacity="0" result="BackgroundImageFix"/>
<feColorMatrix in="SourceAlpha" type="matrix" values="0 0 0 0 0 0 0 0 0 0 0 0 0 0 0 0 0 0 127 0" result="hardAlpha"/>
<feOffset dy="8"/>
<feGaussianBlur stdDeviation="10"/>
<feComposite in2="hardAlpha" operator="out"/>
<feColorMatrix type="matrix" values="0 0 0 0 0 0 0 0 0 0 0 0 0 0 0 0 0 0 0.25 0"/>
<feBlend mode="normal" in2="BackgroundImageFix" result="effect1_dropShadow_1_433"/>
<feBlend mode="normal" in="SourceGraphic" in2="effect1_dropShadow_1_433" result="shape"/>
</filter>
</defs>
</svg>
