<svg xmlns="http://www.w3.org/2000/svg" width="435" height="115.791" viewBox="0 0 435 115.791">
  <g id="Group_17" data-name="Group 17" transform="translate(455 127.791) rotate(180)">
    <path id="Path_573" data-name="Path 573" d="M306.349,19.824A6.265,6.265,0,0,0,312.411,12H449a6,6,0,0,1,6,6V60.507a9.389,9.389,0,0,0,0,18.777v42.507a6,6,0,0,1-6,6H312.608a6.259,6.259,0,0,0-12.518,0H26a6,6,0,0,1-6-6V79.284a9.389,9.389,0,0,0,0-18.777V18a6,6,0,0,1,6-6H300.287a6.265,6.265,0,0,0,6.062,7.824Zm0,57.9a6.259,6.259,0,1,0-6.259-6.259A6.259,6.259,0,0,0,306.349,77.719Zm6.259,12.518a6.259,6.259,0,1,1-6.259-6.259A6.259,6.259,0,0,1,312.608,90.237Zm-6.259,25.036a6.259,6.259,0,1,0-6.259-6.259A6.259,6.259,0,0,0,306.349,115.273Zm0-57.9a6.259,6.259,0,1,0-6.259-6.259A6.259,6.259,0,0,0,306.349,57.378Zm6.259-24.254c0,3.025-2.8,5.477-6.259,5.477s-6.259-2.452-6.259-5.477,2.8-5.477,6.259-5.477S312.608,30.1,312.608,33.124Z" fill="#767676" fill-rule="evenodd"/>
  </g>
</svg>
