<svg xmlns="http://www.w3.org/2000/svg" width="937.056" height="69.04" viewBox="0 0 937.056 69.04">
  <g id="Group_13" data-name="Group 13" transform="translate(-0.204 -1.24)">
    <path id="Path_391" data-name="Path 391" d="M48.068,20.5q.532,31.388,0,49.324a2.4,2.4,0,0,1-.38,1.292,2.483,2.483,0,0,1-.988.912,3.016,3.016,0,0,1-1.368.3H34.16a2.84,2.84,0,0,1-1.976-.76,2.939,2.939,0,0,1-.76-2.052q.076-1.6.076-3.876v-3.8q.076-1.52.152-3.42.076-1.976.228-4.028t.38-4.332H21.62L22.3,70.58a2.192,2.192,0,0,1-.836,1.9,2.192,2.192,0,0,1-1.9.836H7.864a2.747,2.747,0,0,1-1.9-.76A2.673,2.673,0,0,1,5.2,70.58V20.192a2.633,2.633,0,0,1,.684-1.824,2.381,2.381,0,0,1,1.824-.836L18.2,17a2.82,2.82,0,0,1,1.824.684,3.231,3.231,0,0,1,.836,1.9l.456,18.924,11.4.456q.3-12.92.152-18.62a3.4,3.4,0,0,1,.76-1.9,3.554,3.554,0,0,1,2.052-.76l9.8.152a2.381,2.381,0,0,1,1.824.836A2.488,2.488,0,0,1,48.068,20.5Zm28.2-4.256a21.6,21.6,0,0,1,12.616,4.028A27.749,27.749,0,0,1,98,31.212a34.283,34.283,0,0,1,3.344,15.124A34.111,34.111,0,0,1,98,61.384a27.75,27.75,0,0,1-9.12,10.944A22.182,22.182,0,0,1,63.5,72.252a27.618,27.618,0,0,1-9.2-10.868A34.28,34.28,0,0,1,50.958,46.26a34.4,34.4,0,0,1,1.976-11.628,30.094,30.094,0,0,1,5.32-9.576,25.557,25.557,0,0,1,8.132-6.384A21.261,21.261,0,0,1,76.266,16.24ZM86.83,46.26a26.613,26.613,0,0,0-1.444-8.892,15.737,15.737,0,0,0-3.8-6.46,7.515,7.515,0,0,0-5.32-2.356q-4.484,0-7.676,5.168a23.857,23.857,0,0,0-3.116,12.54A24.265,24.265,0,0,0,68.59,58.876q3.192,5.244,7.676,5.244,4.332,0,7.448-5.244A24.266,24.266,0,0,0,86.83,46.26ZM106.8,69.668q-2.28-12.388-3.648-47.576a3.145,3.145,0,0,1,.608-1.9,2.278,2.278,0,0,1,1.6-.912l9.5-1.444a3.4,3.4,0,0,1,2.052.608,2.374,2.374,0,0,1,.912,1.9l1.6,30.172q4.407-9.5,7.3-24.776a2.1,2.1,0,0,1,.988-1.672,2.577,2.577,0,0,1,1.976-.532l12.236,2.2a2.175,2.175,0,0,1,1.6.836,2.429,2.429,0,0,1,.608,1.672,55.2,55.2,0,0,0,.684,7.676,46.5,46.5,0,0,0,1.444,6.384q.835,2.584,1.6,4.636.836,2.052,1.368,3.04l.532,1.064q-.684-18.7,3.8-30.7a2.545,2.545,0,0,1,.988-1.292,2.347,2.347,0,0,1,1.6-.456l10.564.684a2.144,2.144,0,0,1,1.9,1.064,2.814,2.814,0,0,1,.456,2.2q-3.5,13.6-6.156,45.22a3.052,3.052,0,0,1-.38,1.14,2.215,2.215,0,0,1-.836.836,2.367,2.367,0,0,1-.988.38l-13.148,2.2a2.344,2.344,0,0,1-1.748-.228,2.678,2.678,0,0,1-1.216-1.368Q142.821,66.1,140.238,59.1q-2.508-6.992-4.18-11.628l-1.6-4.712q-1.14,3.268-2.508,6.688-1.293,3.42-2.28,5.852t-2.356,5.472q-1.293,3.04-1.976,4.484-.609,1.368-1.748,3.8a24.094,24.094,0,0,0-1.14,2.508,3.086,3.086,0,0,1-2.888,1.6l-10.412-1.292A2.677,2.677,0,0,1,106.8,69.668Zm92.4-35.72H187.34a3.558,3.558,0,0,1-2.052-.76,3.379,3.379,0,0,1-.608-1.9l.3-10.108a2.49,2.49,0,0,1,.76-1.824,2.841,2.841,0,0,1,1.976-.76l40.432-1.216a3.553,3.553,0,0,1,2.052.76,2.577,2.577,0,0,1,.76,1.9V31.288a2.616,2.616,0,0,1-.836,1.9,2.485,2.485,0,0,1-1.824.76h-12.92l.76,36.632a1.97,1.97,0,0,1-.608,1.9,2.617,2.617,0,0,1-1.9.836h-11.7A2.606,2.606,0,0,1,199.2,70.58Zm57.2-17.708a21.6,21.6,0,0,1,12.616,4.028,27.76,27.76,0,0,1,9.12,10.944,34.286,34.286,0,0,1,3.344,15.124,34.114,34.114,0,0,1-3.344,15.048,27.76,27.76,0,0,1-9.12,10.944,22.182,22.182,0,0,1-25.384-.076,27.611,27.611,0,0,1-9.2-10.868,34.272,34.272,0,0,1-3.344-15.124,34.38,34.38,0,0,1,1.976-11.628,30.077,30.077,0,0,1,5.32-9.576,25.55,25.55,0,0,1,8.132-6.384A21.258,21.258,0,0,1,256.395,16.24Zm10.564,30.02a26.628,26.628,0,0,0-1.444-8.892,15.741,15.741,0,0,0-3.8-6.46,7.517,7.517,0,0,0-5.32-2.356q-4.485,0-7.676,5.168A23.852,23.852,0,0,0,245.6,46.26a24.26,24.26,0,0,0,3.116,12.616q3.192,5.244,7.676,5.244,4.332,0,7.448-5.244A24.269,24.269,0,0,0,266.959,46.26ZM333.519,31.9q-6.461-4.56-11.248-3.344a11.878,11.878,0,0,0-7.524,5.852,25.56,25.56,0,0,0-3.192,11.4,27.815,27.815,0,0,0,.076,5.472,18.464,18.464,0,0,0,1.444,4.864,9.148,9.148,0,0,0,3.42,3.8,11.862,11.862,0,0,0,5.624,1.672,17.012,17.012,0,0,0,5.472-.38,9.453,9.453,0,0,0,3.724-1.672,10.208,10.208,0,0,0,2.2-2.508,7.643,7.643,0,0,0,1.14-2.888,18.785,18.785,0,0,0,.38-2.66,12.864,12.864,0,0,0,0-1.976l-.152-.76H324.171a2.269,2.269,0,0,1-1.292-.228,2.639,2.639,0,0,1-.988-.836,4.276,4.276,0,0,1-.456-1.292l-.3-5.7a2.672,2.672,0,0,1,.76-1.976,2.881,2.881,0,0,1,2.128-.836l20.064,1.064a2.934,2.934,0,0,1,1.672.836,2.5,2.5,0,0,1,.836,1.748,15.135,15.135,0,0,1,0,3.724q-.153,2.2-.3,4.864a23.929,23.929,0,0,1-.988,5.4q-.761,2.736-1.748,5.472a19.049,19.049,0,0,1-2.888,5.092,25.577,25.577,0,0,1-4.256,4.18,18.975,18.975,0,0,1-5.928,2.812,25.133,25.133,0,0,1-7.752.836,29.95,29.95,0,0,1-8.284-1.216,21.069,21.069,0,0,1-6.156-2.888,24.059,24.059,0,0,1-4.408-4.1,18.63,18.63,0,0,1-2.888-4.864q-.912-2.508-1.672-5.168a23.157,23.157,0,0,1-.76-5.016q-.076-2.432-.228-4.484a14.678,14.678,0,0,1,.076-3.42,29.418,29.418,0,0,1,2.66-11.172,22.856,22.856,0,0,1,6-8.132,26.666,26.666,0,0,1,8.208-4.788A25.144,25.144,0,0,1,324.627,17a28.55,28.55,0,0,1,9.348,1.6,23.831,23.831,0,0,1,8.208,4.788,2.776,2.776,0,0,1,.76,2.052,3.013,3.013,0,0,1-.912,2.052L336.787,31.9a2.428,2.428,0,0,1-1.672.608A2.327,2.327,0,0,1,333.519,31.9Zm17.737,38.076a109.354,109.354,0,0,1-1.9-17.252q-.531-11.1-.456-18.392.076-7.372.3-13.832a2.633,2.633,0,0,1,.684-1.824,2.382,2.382,0,0,1,1.824-.836l29.108-.3a3.553,3.553,0,0,1,2.052.76,2.4,2.4,0,0,1,.608,2.052l-.152,4.864a2.486,2.486,0,0,1-.76,1.824,2.806,2.806,0,0,1-1.748.912l-16.34.152.684,10.868,11.7.38a2.881,2.881,0,0,1,2.66,2.66v2.964a2.522,2.522,0,0,1-.38,1.368,3.412,3.412,0,0,1-.988.912,3.047,3.047,0,0,1-1.292.456l-12.008.456,1.52,12.008,17.4-.912a2.592,2.592,0,0,1,1.9.608,2.739,2.739,0,0,1,.988,2.052v7.9a2.616,2.616,0,0,1-.836,1.9,2.577,2.577,0,0,1-1.9.76l-30.172-.456A2.41,2.41,0,0,1,351.256,69.972Zm49.815-36.024H389.215a3.558,3.558,0,0,1-2.052-.76,3.379,3.379,0,0,1-.608-1.9l.3-10.108a2.49,2.49,0,0,1,.76-1.824,2.841,2.841,0,0,1,1.976-.76l40.432-1.216a3.553,3.553,0,0,1,2.052.76,2.577,2.577,0,0,1,.76,1.9V31.288a2.616,2.616,0,0,1-.836,1.9,2.485,2.485,0,0,1-1.824.76h-12.92l.76,36.632a1.97,1.97,0,0,1-.608,1.9,2.617,2.617,0,0,1-1.9.836h-11.7a2.606,2.606,0,0,1-2.736-2.736ZM464.886,51.96q-.684-1.444-7.068-12.388-6.307-10.944-10.108-17.328a2.546,2.546,0,0,1-.152-2.66,2.4,2.4,0,0,1,2.356-1.444l12.464-.3a2.186,2.186,0,0,1,1.672.38,2.816,2.816,0,0,1,1.064,1.368q.988,3.04,3.648,9.5a97.473,97.473,0,0,1,3.876,10.26q4.56-12.084,7.6-20.444a2.636,2.636,0,0,1,2.584-1.748l12.464.38a2.418,2.418,0,0,1,2.356,1.368,2.664,2.664,0,0,1-.152,2.736l-19,30.02,1.6,18.316a3.4,3.4,0,0,1-.608,2.052,3.361,3.361,0,0,1-2.052.836l-10.488.152a3.361,3.361,0,0,1-2.052-.836,2.777,2.777,0,0,1-.608-2.052Zm53.5-35.72A21.6,21.6,0,0,1,531,20.268a27.743,27.743,0,0,1,9.12,10.944,34.285,34.285,0,0,1,3.344,15.124,34.114,34.114,0,0,1-3.344,15.048A27.743,27.743,0,0,1,531,72.328a22.182,22.182,0,0,1-25.384-.076,27.619,27.619,0,0,1-9.2-10.868,34.285,34.285,0,0,1-3.344-15.124,34.4,34.4,0,0,1,1.976-11.628,30.1,30.1,0,0,1,5.32-9.576,25.561,25.561,0,0,1,8.132-6.384A21.261,21.261,0,0,1,518.387,16.24Zm10.564,30.02a26.6,26.6,0,0,0-1.444-8.892,15.741,15.741,0,0,0-3.8-6.46,7.515,7.515,0,0,0-5.32-2.356q-4.484,0-7.676,5.168A23.861,23.861,0,0,0,507.6,46.26a24.269,24.269,0,0,0,3.116,12.616q3.192,5.244,7.676,5.244,4.332,0,7.448-5.244A24.27,24.27,0,0,0,528.951,46.26Zm38.36,26.524a20.33,20.33,0,0,1-7.144-1.216,18.1,18.1,0,0,1-5.472-3.192,19.24,19.24,0,0,1-4.028-5.016,38.7,38.7,0,0,1-2.736-6.156,41.166,41.166,0,0,1-1.672-7.144q-.609-4.1-.836-7.524-.228-3.5-.228-7.752.075-4.332.228-7.3.152-3.04.456-6.688a3.1,3.1,0,0,1,.38-1.216,2.611,2.611,0,0,1,.912-.912,2.276,2.276,0,0,1,1.216-.38l9.8-.456a3.558,3.558,0,0,1,2.052.76,3.559,3.559,0,0,1,.76,2.052A205.71,205.71,0,0,0,561,49.3q.912,9.88,4.94,11.172,2.28.684,4.028-1.672a5.38,5.38,0,0,0,.684-1.444q1.063-3.648-.76-36.708a3.552,3.552,0,0,1,.76-2.052,3.553,3.553,0,0,1,2.052-.76l9.956.456a2.6,2.6,0,0,1,2.508,2.508q1.14,22.268.684,34.5-.456,8.056-5.624,12.768A18.924,18.924,0,0,1,567.311,72.784Zm22.82-3.116-.76-49.476a2.633,2.633,0,0,1,.684-1.824,2.784,2.784,0,0,1,1.824-.836q24.4-1.9,32.68,8.056,4.939,6,2.584,14.06a16.4,16.4,0,0,1-6.536,9.5A8.6,8.6,0,0,1,615.9,50.82a7.937,7.937,0,0,0,2.052,3.648,5.991,5.991,0,0,0,3.192,1.6,15.014,15.014,0,0,0,3.344.076,15.677,15.677,0,0,0,3.268-.684,1.7,1.7,0,0,1,1.748.38,2.16,2.16,0,0,1,.836,1.748L629.8,69.212a3.876,3.876,0,0,1-.912,1.748,2.747,2.747,0,0,1-1.9.76,27.773,27.773,0,0,1-6.612-1.216,22.29,22.29,0,0,1-5.168-2.356,28.223,28.223,0,0,1-3.724-3.116,18.4,18.4,0,0,1-2.66-3.268q-.988-1.6-1.672-2.888a14.562,14.562,0,0,1-.912-2.128l-.3-.836.3,13.3a2.577,2.577,0,0,1-.76,1.9,2.942,2.942,0,0,1-1.9.912l-10.564.3a2.578,2.578,0,0,1-1.9-.76A2.309,2.309,0,0,1,590.131,69.668ZM606.091,28.1V42.46q.379-.076.912-.152a19.778,19.778,0,0,0,2.128-.76,12.04,12.04,0,0,0,2.66-1.444,8.839,8.839,0,0,0,2.28-2.432,7.344,7.344,0,0,0,1.216-3.572,4.858,4.858,0,0,0-.76-3.268,4.054,4.054,0,0,0-2.2-1.824,13.572,13.572,0,0,0-2.812-.76,14.633,14.633,0,0,0-2.356-.228Zm54.672,5.852H648.907a3.553,3.553,0,0,1-2.052-.76,3.372,3.372,0,0,1-.608-1.9l.3-10.108a2.487,2.487,0,0,1,.76-1.824,2.84,2.84,0,0,1,1.976-.76l40.432-1.216a3.558,3.558,0,0,1,2.052.76,2.581,2.581,0,0,1,.76,1.9V31.288a2.62,2.62,0,0,1-.836,1.9,2.489,2.489,0,0,1-1.824.76h-12.92l.76,36.632a1.973,1.973,0,0,1-.608,1.9,2.621,2.621,0,0,1-1.9.836H663.5a2.606,2.606,0,0,1-2.736-2.736ZM694.325,70.58V19.736a2.241,2.241,0,0,1,.912-1.9,2.192,2.192,0,0,1,1.9-.836l10.488.532a2.6,2.6,0,0,1,2.508,2.508l1.292,50.54a2.462,2.462,0,0,1-.836,1.9,2.191,2.191,0,0,1-1.9.836h-11.7a2.747,2.747,0,0,1-1.9-.76A2.672,2.672,0,0,1,694.325,70.58Zm59.308-18.924,6.992,3.952a2.324,2.324,0,0,1,1.216,1.52,2.667,2.667,0,0,1,0,1.976,23.836,23.836,0,0,1-9.576,11.1,25.785,25.785,0,0,1-13.452,3.876,26.2,26.2,0,0,1-7.372-1.064,23.826,23.826,0,0,1-6.764-3.268,27.961,27.961,0,0,1-5.548-5.4,25.974,25.974,0,0,1-3.952-7.448,31.888,31.888,0,0,1-1.52-9.5,36.636,36.636,0,0,1,1.976-13.224,25.685,25.685,0,0,1,5.928-9.576,27.285,27.285,0,0,1,8.284-5.624A24.193,24.193,0,0,1,739.421,17a22.724,22.724,0,0,1,9.88,2.2,21.266,21.266,0,0,1,7.98,6.232,2.754,2.754,0,0,1,.456,1.976,2.653,2.653,0,0,1-.912,1.824l-5.4,4.256a2.427,2.427,0,0,1-1.672.608,2.5,2.5,0,0,1-1.6-.76,11.676,11.676,0,0,0-5.168-2.736,8.794,8.794,0,0,0-5.244.38,12.686,12.686,0,0,0-4.636,3.04,15.333,15.333,0,0,0-3.5,5.548,24.021,24.021,0,0,0-1.6,7.676,18.255,18.255,0,0,0,.684,6.08,12.11,12.11,0,0,0,2.356,4.56,14.458,14.458,0,0,0,3.5,2.812,9.134,9.134,0,0,0,4.256,1.064,13.518,13.518,0,0,0,4.256-.836,10.618,10.618,0,0,0,3.876-2.888,15.3,15.3,0,0,0,2.888-4.94,3.053,3.053,0,0,1,1.6-1.6A3.136,3.136,0,0,1,753.633,51.656ZM764.1,70.428,763.64,20.04a2.568,2.568,0,0,1,.684-1.9,2.489,2.489,0,0,1,1.824-.76l9.956-.152a2.578,2.578,0,0,1,1.9.76,3.364,3.364,0,0,1,.836,2.052l-.684,13.3,17.252-15.656a1.957,1.957,0,0,1,2.052-.608,2.36,2.36,0,0,1,1.9,1.216l6,9.348a2.914,2.914,0,0,1,.3,2.052,2.287,2.287,0,0,1-1.216,1.6L785.3,43.3a14.175,14.175,0,0,0,3.42,5.4,18.276,18.276,0,0,0,5.548,3.572,50.31,50.31,0,0,0,5.548,1.976,39.338,39.338,0,0,0,5.092,1.064,2.4,2.4,0,0,1,1.9,1.064,2.639,2.639,0,0,1,.3,2.2l-3.5,12.388a2.422,2.422,0,0,1-.988,1.444,2.186,2.186,0,0,1-1.672.38,21.26,21.26,0,0,1-12.008-4.712,32.757,32.757,0,0,1-4.1-4.256,35.649,35.649,0,0,1-3.04-4.56q-1.14-2.2-1.976-4.18-.836-2.052-1.216-3.192a9.1,9.1,0,0,1-.3-1.52q0-.38.532,6.612.607,6.916,1.064,13a2.6,2.6,0,0,1-.608,1.9,2.881,2.881,0,0,1-1.9.912l-10.564.38a2.075,2.075,0,0,1-1.9-.836A2.192,2.192,0,0,1,764.1,70.428Zm47.391-.456a109.237,109.237,0,0,1-1.9-17.252q-.532-11.1-.456-18.392.075-7.372.3-13.832a2.633,2.633,0,0,1,.684-1.824,2.378,2.378,0,0,1,1.824-.836l29.108-.3a3.558,3.558,0,0,1,2.052.76,2.4,2.4,0,0,1,.608,2.052l-.152,4.864a2.49,2.49,0,0,1-.76,1.824,2.808,2.808,0,0,1-1.748.912l-16.34.152.684,10.868,11.7.38a2.881,2.881,0,0,1,2.66,2.66v2.964a2.531,2.531,0,0,1-.38,1.368,3.437,3.437,0,0,1-.988.912,3.051,3.051,0,0,1-1.292.456l-12.008.456,1.52,12.008,17.4-.912a2.6,2.6,0,0,1,1.9.608,2.742,2.742,0,0,1,.988,2.052v7.9a2.62,2.62,0,0,1-.836,1.9,2.578,2.578,0,0,1-1.9.76l-30.172-.456A2.409,2.409,0,0,1,811.487,69.972ZM861.3,33.948H849.446a3.553,3.553,0,0,1-2.052-.76,3.38,3.38,0,0,1-.608-1.9l.3-10.108a2.487,2.487,0,0,1,.76-1.824,2.84,2.84,0,0,1,1.976-.76l40.432-1.216a3.553,3.553,0,0,1,2.052.76,2.577,2.577,0,0,1,.76,1.9V31.288a2.62,2.62,0,0,1-.836,1.9,2.489,2.489,0,0,1-1.824.76H877.49l.76,36.632a1.973,1.973,0,0,1-.608,1.9,2.619,2.619,0,0,1-1.9.836h-11.7A2.606,2.606,0,0,1,861.3,70.58Zm65.71,2.66a22.653,22.653,0,0,0-6.612-5.016,9.96,9.96,0,0,0-6.08-1.292q-6.688,1.52,11.248,11.856a28.627,28.627,0,0,1,9.12,8.436,17.461,17.461,0,0,1,3.572,10.032,10.523,10.523,0,0,1-2.964,7.524,16.806,16.806,0,0,1-7.752,4.484,32.339,32.339,0,0,1-10.336.988,35.368,35.368,0,0,1-12.236-2.66,27.8,27.8,0,0,1-9.88-6.992,2.246,2.246,0,0,1-.76-1.748,2.746,2.746,0,0,1,.76-1.9l6.156-6.764A2.4,2.4,0,0,1,903,52.644a2.238,2.238,0,0,1,1.9.608q1.368,1.14,2.736,2.2a39.479,39.479,0,0,0,3.344,2.128,20.812,20.812,0,0,0,3.724,1.672,8.9,8.9,0,0,0,3.42.38,4.5,4.5,0,0,0,2.888-1.52A2.009,2.009,0,0,0,920.932,55a16.1,16.1,0,0,0-5.016-3.268q-3.5-1.748-7.448-3.648a46.19,46.19,0,0,1-7.9-5.092,20.454,20.454,0,0,1-5.624-6.84q-3.116-6.688-.912-11.1t8.132-6.384a33.6,33.6,0,0,1,14.06-1.292A32.369,32.369,0,0,1,922.6,18.6a26.322,26.322,0,0,1,5.092,1.9,22.006,22.006,0,0,1,3.952,2.356,20.751,20.751,0,0,1,2.964,2.356,23.934,23.934,0,0,1,1.9,2.128,2.606,2.606,0,0,1,.608,1.9,2.569,2.569,0,0,1-.76,1.672l-5.4,5.7a2.91,2.91,0,0,1-2.052.988A2.183,2.183,0,0,1,927.012,36.608Z" transform="translate(-1 -6)"/>
    <path id="Path_392" data-name="Path 392" d="M43.068,5.5q.532,31.388,0,49.324a2.4,2.4,0,0,1-.38,1.292,2.483,2.483,0,0,1-.988.912,3.016,3.016,0,0,1-1.368.3H29.16a2.84,2.84,0,0,1-1.976-.76,2.939,2.939,0,0,1-.76-2.052q.076-1.6.076-3.876v-3.8q.076-1.52.152-3.42.076-1.976.228-4.028t.38-4.332H16.62L17.3,55.58a2.192,2.192,0,0,1-.836,1.9,2.192,2.192,0,0,1-1.9.836H2.864a2.747,2.747,0,0,1-1.9-.76A2.673,2.673,0,0,1,.2,55.58V5.192A2.632,2.632,0,0,1,.888,3.368a2.38,2.38,0,0,1,1.824-.836L13.2,2a2.82,2.82,0,0,1,1.824.684,3.231,3.231,0,0,1,.836,1.9l.456,18.924,11.4.456q.3-12.92.152-18.62a3.4,3.4,0,0,1,.76-1.9,3.555,3.555,0,0,1,2.052-.76l9.8.152a2.381,2.381,0,0,1,1.824.836A2.487,2.487,0,0,1,43.068,5.5Zm28.2-4.256A21.6,21.6,0,0,1,83.882,5.268,27.75,27.75,0,0,1,93,16.212a34.281,34.281,0,0,1,3.344,15.124A34.11,34.11,0,0,1,93,46.384a27.749,27.749,0,0,1-9.12,10.944A22.182,22.182,0,0,1,58.5,57.252a27.618,27.618,0,0,1-9.2-10.868A34.28,34.28,0,0,1,45.958,31.26a34.4,34.4,0,0,1,1.976-11.628,30.094,30.094,0,0,1,5.32-9.576,25.556,25.556,0,0,1,8.132-6.384A21.261,21.261,0,0,1,71.266,1.24ZM81.83,31.26a26.613,26.613,0,0,0-1.444-8.892,15.737,15.737,0,0,0-3.8-6.46,7.515,7.515,0,0,0-5.32-2.356q-4.484,0-7.676,5.168a23.858,23.858,0,0,0-3.116,12.54A24.265,24.265,0,0,0,63.59,43.876q3.192,5.244,7.676,5.244,4.332,0,7.448-5.244A24.266,24.266,0,0,0,81.83,31.26ZM101.8,54.668Q99.518,42.28,98.15,7.092a3.149,3.149,0,0,1,.608-1.9,2.277,2.277,0,0,1,1.6-.912l9.5-1.444a3.4,3.4,0,0,1,2.052.608,2.374,2.374,0,0,1,.912,1.9l1.6,30.172q4.407-9.5,7.3-24.776a2.1,2.1,0,0,1,.988-1.672,2.577,2.577,0,0,1,1.976-.532l12.236,2.2a2.175,2.175,0,0,1,1.6.836,2.429,2.429,0,0,1,.608,1.672,55.2,55.2,0,0,0,.684,7.676,46.5,46.5,0,0,0,1.444,6.384q.835,2.584,1.6,4.636.836,2.052,1.368,3.04l.532,1.064q-.684-18.7,3.8-30.7a2.545,2.545,0,0,1,.988-1.292,2.347,2.347,0,0,1,1.6-.456l10.564.684a2.144,2.144,0,0,1,1.9,1.064,2.814,2.814,0,0,1,.456,2.2q-3.5,13.6-6.156,45.22a3.052,3.052,0,0,1-.38,1.14,2.215,2.215,0,0,1-.836.836,2.367,2.367,0,0,1-.988.38l-13.148,2.2a2.344,2.344,0,0,1-1.748-.228,2.678,2.678,0,0,1-1.216-1.368Q137.821,51.1,135.238,44.1q-2.508-6.992-4.18-11.628l-1.6-4.712q-1.14,3.268-2.508,6.688-1.293,3.42-2.28,5.852t-2.356,5.472q-1.293,3.04-1.976,4.484-.609,1.368-1.748,3.8a24.094,24.094,0,0,0-1.14,2.508,3.086,3.086,0,0,1-2.888,1.6l-10.412-1.292A2.677,2.677,0,0,1,101.8,54.668Zm92.4-35.72H182.34a3.558,3.558,0,0,1-2.052-.76,3.379,3.379,0,0,1-.608-1.9l.3-10.108a2.49,2.49,0,0,1,.76-1.824,2.842,2.842,0,0,1,1.976-.76L223.152,2.38a3.553,3.553,0,0,1,2.052.76,2.577,2.577,0,0,1,.76,1.9V16.288a2.616,2.616,0,0,1-.836,1.9,2.485,2.485,0,0,1-1.824.76h-12.92l.76,36.632a1.97,1.97,0,0,1-.608,1.9,2.617,2.617,0,0,1-1.9.836h-11.7A2.606,2.606,0,0,1,194.2,55.58ZM251.4,1.24a21.6,21.6,0,0,1,12.616,4.028,27.76,27.76,0,0,1,9.12,10.944,34.286,34.286,0,0,1,3.344,15.124,34.114,34.114,0,0,1-3.344,15.048,27.759,27.759,0,0,1-9.12,10.944,22.182,22.182,0,0,1-25.384-.076,27.611,27.611,0,0,1-9.2-10.868,34.272,34.272,0,0,1-3.344-15.124,34.38,34.38,0,0,1,1.976-11.628,30.077,30.077,0,0,1,5.32-9.576,25.549,25.549,0,0,1,8.132-6.384A21.258,21.258,0,0,1,251.4,1.24Zm10.564,30.02a26.628,26.628,0,0,0-1.444-8.892,15.741,15.741,0,0,0-3.8-6.46,7.517,7.517,0,0,0-5.32-2.356q-4.485,0-7.676,5.168A23.852,23.852,0,0,0,240.6,31.26a24.26,24.26,0,0,0,3.116,12.616q3.192,5.244,7.676,5.244,4.332,0,7.448-5.244A24.269,24.269,0,0,0,261.959,31.26ZM328.519,16.9q-6.461-4.56-11.248-3.344a11.878,11.878,0,0,0-7.524,5.852,25.56,25.56,0,0,0-3.192,11.4,27.815,27.815,0,0,0,.076,5.472,18.464,18.464,0,0,0,1.444,4.864,9.148,9.148,0,0,0,3.42,3.8,11.862,11.862,0,0,0,5.624,1.672,17.012,17.012,0,0,0,5.472-.38,9.453,9.453,0,0,0,3.724-1.672,10.208,10.208,0,0,0,2.2-2.508,7.643,7.643,0,0,0,1.14-2.888,18.785,18.785,0,0,0,.38-2.66,12.864,12.864,0,0,0,0-1.976l-.152-.76H319.171a2.269,2.269,0,0,1-1.292-.228,2.639,2.639,0,0,1-.988-.836,4.276,4.276,0,0,1-.456-1.292l-.3-5.7a2.672,2.672,0,0,1,.76-1.976,2.881,2.881,0,0,1,2.128-.836l20.064,1.064a2.934,2.934,0,0,1,1.672.836,2.5,2.5,0,0,1,.836,1.748,15.135,15.135,0,0,1,0,3.724q-.153,2.2-.3,4.864a23.929,23.929,0,0,1-.988,5.4q-.761,2.736-1.748,5.472a19.049,19.049,0,0,1-2.888,5.092,25.577,25.577,0,0,1-4.256,4.18,18.975,18.975,0,0,1-5.928,2.812,25.133,25.133,0,0,1-7.752.836,29.95,29.95,0,0,1-8.284-1.216,21.069,21.069,0,0,1-6.156-2.888,24.059,24.059,0,0,1-4.408-4.1,18.63,18.63,0,0,1-2.888-4.864q-.912-2.508-1.672-5.168a23.157,23.157,0,0,1-.76-5.016q-.076-2.432-.228-4.484a14.678,14.678,0,0,1,.076-3.42,29.418,29.418,0,0,1,2.66-11.172,22.856,22.856,0,0,1,6-8.132,26.664,26.664,0,0,1,8.208-4.788A25.144,25.144,0,0,1,319.627,2a28.55,28.55,0,0,1,9.348,1.6,23.831,23.831,0,0,1,8.208,4.788,2.776,2.776,0,0,1,.76,2.052,3.013,3.013,0,0,1-.912,2.052L331.787,16.9a2.428,2.428,0,0,1-1.672.608A2.327,2.327,0,0,1,328.519,16.9Zm17.737,38.076a109.354,109.354,0,0,1-1.9-17.252q-.531-11.1-.456-18.392.076-7.372.3-13.832a2.632,2.632,0,0,1,.684-1.824,2.381,2.381,0,0,1,1.824-.836l29.108-.3a3.553,3.553,0,0,1,2.052.76,2.4,2.4,0,0,1,.608,2.052l-.152,4.864a2.486,2.486,0,0,1-.76,1.824,2.806,2.806,0,0,1-1.748.912l-16.34.152.684,10.868,11.7.38a2.881,2.881,0,0,1,2.66,2.66v2.964a2.522,2.522,0,0,1-.38,1.368,3.412,3.412,0,0,1-.988.912,3.047,3.047,0,0,1-1.292.456l-12.008.456,1.52,12.008,17.4-.912a2.592,2.592,0,0,1,1.9.608,2.739,2.739,0,0,1,.988,2.052v7.9a2.616,2.616,0,0,1-.836,1.9,2.577,2.577,0,0,1-1.9.76l-30.172-.456A2.41,2.41,0,0,1,346.256,54.972Zm49.815-36.024H384.215a3.558,3.558,0,0,1-2.052-.76,3.379,3.379,0,0,1-.608-1.9l.3-10.108a2.49,2.49,0,0,1,.76-1.824A2.842,2.842,0,0,1,384.6,3.6L425.027,2.38a3.553,3.553,0,0,1,2.052.76,2.577,2.577,0,0,1,.76,1.9V16.288a2.616,2.616,0,0,1-.836,1.9,2.485,2.485,0,0,1-1.824.76h-12.92l.76,36.632a1.97,1.97,0,0,1-.608,1.9,2.617,2.617,0,0,1-1.9.836h-11.7a2.606,2.606,0,0,1-2.736-2.736ZM459.886,36.96q-.684-1.444-7.068-12.388Q446.511,13.628,442.71,7.244a2.546,2.546,0,0,1-.152-2.66,2.4,2.4,0,0,1,2.356-1.444l12.464-.3a2.186,2.186,0,0,1,1.672.38,2.815,2.815,0,0,1,1.064,1.368q.988,3.04,3.648,9.5a97.473,97.473,0,0,1,3.876,10.26q4.56-12.084,7.6-20.444a2.636,2.636,0,0,1,2.584-1.748l12.464.38A2.418,2.418,0,0,1,492.642,3.9a2.664,2.664,0,0,1-.152,2.736l-19,30.02,1.6,18.316a3.4,3.4,0,0,1-.608,2.052,3.361,3.361,0,0,1-2.052.836l-10.488.152a3.361,3.361,0,0,1-2.052-.836,2.777,2.777,0,0,1-.608-2.052Zm53.5-35.72A21.6,21.6,0,0,1,526,5.268a27.743,27.743,0,0,1,9.12,10.944,34.285,34.285,0,0,1,3.344,15.124,34.114,34.114,0,0,1-3.344,15.048A27.743,27.743,0,0,1,526,57.328a22.182,22.182,0,0,1-25.384-.076,27.619,27.619,0,0,1-9.2-10.868,34.285,34.285,0,0,1-3.344-15.124,34.4,34.4,0,0,1,1.976-11.628,30.1,30.1,0,0,1,5.32-9.576,25.56,25.56,0,0,1,8.132-6.384A21.261,21.261,0,0,1,513.387,1.24Zm10.564,30.02a26.6,26.6,0,0,0-1.444-8.892,15.741,15.741,0,0,0-3.8-6.46,7.515,7.515,0,0,0-5.32-2.356q-4.484,0-7.676,5.168A23.861,23.861,0,0,0,502.6,31.26a24.269,24.269,0,0,0,3.116,12.616q3.192,5.244,7.676,5.244,4.332,0,7.448-5.244A24.27,24.27,0,0,0,523.951,31.26Zm38.36,26.524a20.33,20.33,0,0,1-7.144-1.216,18.1,18.1,0,0,1-5.472-3.192,19.24,19.24,0,0,1-4.028-5.016,38.7,38.7,0,0,1-2.736-6.156,41.166,41.166,0,0,1-1.672-7.144q-.609-4.1-.836-7.524-.228-3.5-.228-7.752.075-4.332.228-7.3.152-3.04.456-6.688a3.1,3.1,0,0,1,.38-1.216,2.61,2.61,0,0,1,.912-.912,2.276,2.276,0,0,1,1.216-.38l9.8-.456a3.558,3.558,0,0,1,2.052.76A3.559,3.559,0,0,1,556,5.648,205.71,205.71,0,0,0,556,34.3q.912,9.88,4.94,11.172,2.28.684,4.028-1.672a5.38,5.38,0,0,0,.684-1.444q1.063-3.648-.76-36.708a3.552,3.552,0,0,1,.76-2.052,3.553,3.553,0,0,1,2.052-.76l9.956.456a2.247,2.247,0,0,1,1.748.76,2.249,2.249,0,0,1,.76,1.748q1.14,22.268.684,34.5-.456,8.056-5.624,12.768A18.924,18.924,0,0,1,562.311,57.784Zm22.82-3.116-.76-49.476a2.633,2.633,0,0,1,.684-1.824,2.784,2.784,0,0,1,1.824-.836q24.4-1.9,32.68,8.056,4.939,6,2.584,14.06a16.4,16.4,0,0,1-6.536,9.5A8.6,8.6,0,0,1,610.9,35.82a7.937,7.937,0,0,0,2.052,3.648,5.991,5.991,0,0,0,3.192,1.6,15.014,15.014,0,0,0,3.344.076,15.677,15.677,0,0,0,3.268-.684,1.7,1.7,0,0,1,1.748.38,2.16,2.16,0,0,1,.836,1.748L624.8,54.212a3.876,3.876,0,0,1-.912,1.748,2.747,2.747,0,0,1-1.9.76,27.773,27.773,0,0,1-6.612-1.216,22.29,22.29,0,0,1-5.168-2.356,28.223,28.223,0,0,1-3.724-3.116,18.4,18.4,0,0,1-2.66-3.268q-.988-1.6-1.672-2.888a14.562,14.562,0,0,1-.912-2.128l-.3-.836.3,13.3a2.577,2.577,0,0,1-.76,1.9,2.942,2.942,0,0,1-1.9.912l-10.564.3a2.578,2.578,0,0,1-1.9-.76A2.309,2.309,0,0,1,585.131,54.668ZM601.091,13.1V27.46q.379-.076.912-.152a19.779,19.779,0,0,0,2.128-.76,12.04,12.04,0,0,0,2.66-1.444,8.839,8.839,0,0,0,2.28-2.432,7.344,7.344,0,0,0,1.216-3.572,4.858,4.858,0,0,0-.76-3.268,4.054,4.054,0,0,0-2.2-1.824,13.572,13.572,0,0,0-2.812-.76,14.633,14.633,0,0,0-2.356-.228Zm54.672,5.852H643.907a3.553,3.553,0,0,1-2.052-.76,3.372,3.372,0,0,1-.608-1.9l.3-10.108a2.486,2.486,0,0,1,.76-1.824,2.84,2.84,0,0,1,1.976-.76L684.719,2.38a3.558,3.558,0,0,1,2.052.76,2.581,2.581,0,0,1,.76,1.9V16.288a2.62,2.62,0,0,1-.836,1.9,2.489,2.489,0,0,1-1.824.76h-12.92l.76,36.632a1.973,1.973,0,0,1-.608,1.9,2.621,2.621,0,0,1-1.9.836H658.5a2.606,2.606,0,0,1-2.736-2.736ZM689.325,55.58V4.736a2.241,2.241,0,0,1,.912-1.9,2.191,2.191,0,0,1,1.9-.836l10.488.532a2.247,2.247,0,0,1,1.748.76,2.246,2.246,0,0,1,.76,1.748l1.292,50.54a2.462,2.462,0,0,1-.836,1.9,2.191,2.191,0,0,1-1.9.836h-11.7a2.747,2.747,0,0,1-1.9-.76A2.672,2.672,0,0,1,689.325,55.58Zm59.308-18.924,6.992,3.952a2.324,2.324,0,0,1,1.216,1.52,2.667,2.667,0,0,1,0,1.976,23.836,23.836,0,0,1-9.576,11.1,25.785,25.785,0,0,1-13.452,3.876,26.2,26.2,0,0,1-7.372-1.064,23.826,23.826,0,0,1-6.764-3.268,27.961,27.961,0,0,1-5.548-5.4,25.974,25.974,0,0,1-3.952-7.448,31.888,31.888,0,0,1-1.52-9.5,36.636,36.636,0,0,1,1.976-13.224A25.684,25.684,0,0,1,716.561,9.6a27.285,27.285,0,0,1,8.284-5.624A24.192,24.192,0,0,1,734.421,2a22.723,22.723,0,0,1,9.88,2.2,21.266,21.266,0,0,1,7.98,6.232,2.754,2.754,0,0,1,.456,1.976,2.653,2.653,0,0,1-.912,1.824l-5.4,4.256a2.427,2.427,0,0,1-1.672.608,2.5,2.5,0,0,1-1.6-.76,11.676,11.676,0,0,0-5.168-2.736,8.794,8.794,0,0,0-5.244.38,12.686,12.686,0,0,0-4.636,3.04,15.333,15.333,0,0,0-3.5,5.548,24.021,24.021,0,0,0-1.6,7.676,18.255,18.255,0,0,0,.684,6.08,12.11,12.11,0,0,0,2.356,4.56,14.458,14.458,0,0,0,3.5,2.812,9.134,9.134,0,0,0,4.256,1.064,13.518,13.518,0,0,0,4.256-.836,10.618,10.618,0,0,0,3.876-2.888,15.3,15.3,0,0,0,2.888-4.94,3.053,3.053,0,0,1,1.6-1.6A3.136,3.136,0,0,1,748.633,36.656ZM759.1,55.428,758.64,5.04a2.568,2.568,0,0,1,.684-1.9,2.489,2.489,0,0,1,1.824-.76l9.956-.152a2.578,2.578,0,0,1,1.9.76,3.365,3.365,0,0,1,.836,2.052l-.684,13.3L790.408,2.684a1.957,1.957,0,0,1,2.052-.608,2.36,2.36,0,0,1,1.9,1.216l6,9.348a2.914,2.914,0,0,1,.3,2.052,2.287,2.287,0,0,1-1.216,1.6L780.3,28.3a14.175,14.175,0,0,0,3.42,5.4,18.276,18.276,0,0,0,5.548,3.572,50.31,50.31,0,0,0,5.548,1.976,39.338,39.338,0,0,0,5.092,1.064,2.4,2.4,0,0,1,1.9,1.064,2.639,2.639,0,0,1,.3,2.2l-3.5,12.388a2.422,2.422,0,0,1-.988,1.444,2.186,2.186,0,0,1-1.672.38,21.26,21.26,0,0,1-12.008-4.712,32.757,32.757,0,0,1-4.1-4.256,35.649,35.649,0,0,1-3.04-4.56q-1.14-2.2-1.976-4.18-.836-2.052-1.216-3.192a9.1,9.1,0,0,1-.3-1.52q0-.38.532,6.612.607,6.916,1.064,13a2.6,2.6,0,0,1-.608,1.9,2.881,2.881,0,0,1-1.9.912l-10.564.38a2.075,2.075,0,0,1-1.9-.836A2.192,2.192,0,0,1,759.1,55.428Zm47.391-.456a109.237,109.237,0,0,1-1.9-17.252q-.532-11.1-.456-18.392.075-7.372.3-13.832a2.633,2.633,0,0,1,.684-1.824,2.378,2.378,0,0,1,1.824-.836l29.108-.3a3.558,3.558,0,0,1,2.052.76,2.4,2.4,0,0,1,.608,2.052l-.152,4.864a2.49,2.49,0,0,1-.76,1.824,2.808,2.808,0,0,1-1.748.912l-16.34.152.684,10.868,11.7.38a2.881,2.881,0,0,1,2.66,2.66v2.964a2.531,2.531,0,0,1-.38,1.368,3.438,3.438,0,0,1-.988.912,3.051,3.051,0,0,1-1.292.456l-12.008.456,1.52,12.008,17.4-.912a2.6,2.6,0,0,1,1.9.608,2.742,2.742,0,0,1,.988,2.052v7.9a2.62,2.62,0,0,1-.836,1.9,2.578,2.578,0,0,1-1.9.76l-30.172-.456A2.409,2.409,0,0,1,806.487,54.972ZM856.3,18.948H844.446a3.553,3.553,0,0,1-2.052-.76,3.38,3.38,0,0,1-.608-1.9l.3-10.108a2.486,2.486,0,0,1,.76-1.824,2.84,2.84,0,0,1,1.976-.76L885.258,2.38a3.553,3.553,0,0,1,2.052.76,2.577,2.577,0,0,1,.76,1.9V16.288a2.62,2.62,0,0,1-.836,1.9,2.489,2.489,0,0,1-1.824.76H872.49l.76,36.632a1.973,1.973,0,0,1-.608,1.9,2.619,2.619,0,0,1-1.9.836h-11.7A2.606,2.606,0,0,1,856.3,55.58Zm65.71,2.66a22.653,22.653,0,0,0-6.612-5.016,9.96,9.96,0,0,0-6.08-1.292q-6.688,1.52,11.248,11.856a28.627,28.627,0,0,1,9.12,8.436,17.461,17.461,0,0,1,3.572,10.032,10.523,10.523,0,0,1-2.964,7.524,16.806,16.806,0,0,1-7.752,4.484,32.339,32.339,0,0,1-10.336.988,35.368,35.368,0,0,1-12.236-2.66,27.8,27.8,0,0,1-9.88-6.992,2.246,2.246,0,0,1-.76-1.748,2.746,2.746,0,0,1,.76-1.9l6.156-6.764A2.4,2.4,0,0,1,898,37.644a2.238,2.238,0,0,1,1.9.608q1.368,1.14,2.736,2.2a39.479,39.479,0,0,0,3.344,2.128,20.812,20.812,0,0,0,3.724,1.672,8.9,8.9,0,0,0,3.42.38,4.5,4.5,0,0,0,2.888-1.52A2.009,2.009,0,0,0,915.932,40a16.1,16.1,0,0,0-5.016-3.268q-3.5-1.748-7.448-3.648a46.19,46.19,0,0,1-7.9-5.092,20.454,20.454,0,0,1-5.624-6.84q-3.116-6.688-.912-11.1t8.132-6.384A33.6,33.6,0,0,1,911.22,2.38,32.366,32.366,0,0,1,917.6,3.6,26.322,26.322,0,0,1,922.7,5.5a22,22,0,0,1,3.952,2.356,20.751,20.751,0,0,1,2.964,2.356,23.934,23.934,0,0,1,1.9,2.128,2.606,2.606,0,0,1,.608,1.9,2.569,2.569,0,0,1-.76,1.672l-5.4,5.7a2.91,2.91,0,0,1-2.052.988A2.183,2.183,0,0,1,922.012,21.608Z" fill="#fff"/>
  </g>
</svg>
