<svg xmlns="http://www.w3.org/2000/svg" width="444" height="452" viewBox="0 0 444 452">
  <path id="Path_393" data-name="Path 393" d="M35.31,87.229H43.86a4.285,4.285,0,0,0,4.285-4.285,4.285,4.285,0,0,1,4.285-4.285h9.743a6.428,6.428,0,0,0,0-12.856H38.4a5,5,0,0,1,0-10H49.568a5.238,5.238,0,0,0,0-10.475H42.437A12.369,12.369,0,0,1,30.068,32.96V22.706a7.374,7.374,0,1,1,14.747,0v.721a8.094,8.094,0,0,0,8.094,8.094h6.409a6.9,6.9,0,0,0,6.9-6.9,6.9,6.9,0,0,1,6.9-6.9h7.365A3.809,3.809,0,0,1,84.3,21.522a3.809,3.809,0,0,0,3.809,3.809h6.181a9.991,9.991,0,0,1,9.991,9.99v1.437a11.427,11.427,0,0,0,11.427,11.427h8.543A11.428,11.428,0,0,0,135.68,36.758V31.04a5.709,5.709,0,0,0-5.709-5.709,5.709,5.709,0,0,1-5.709-5.709V15.57a9.761,9.761,0,0,1,9.761-9.761h20.682a4.761,4.761,0,0,1,0,9.523h-1.661a6.423,6.423,0,0,0-6.423,6.422V22a6.666,6.666,0,0,0,6.666,6.666h13.068a10.713,10.713,0,0,1,10.713,10.713A10.713,10.713,0,0,0,187.781,50.09h22.583a5.237,5.237,0,1,0,0-10.475h-4.039a9.276,9.276,0,0,1-9.276-9.277V22.944a7.611,7.611,0,0,1,7.611-7.612h2.612a5,5,0,0,1,5,5,5,5,0,0,0,5,5h13.786a6.9,6.9,0,0,0,6.9-6.9,6.9,6.9,0,0,1,6.9-6.9h6.648a6.9,6.9,0,0,1,6.9,6.9v2.385a4.519,4.519,0,0,1-4.519,4.52,4.519,4.519,0,0,0-4.519,4.519v4.527a9.046,9.046,0,0,0,9.046,9.047H294.8a7.38,7.38,0,0,0,7.38-7.38V35.8a7.135,7.135,0,0,0-7.135-7.136h-3.565a3.571,3.571,0,0,1,0-7.142h11.885a5,5,0,0,0,5-5V14.615a3.092,3.092,0,0,0-3.092-3.092,3.093,3.093,0,0,1-3.093-3.092V6.761A4.762,4.762,0,0,1,306.946,2h15.691A4.761,4.761,0,0,1,327.4,6.761v.48a4.282,4.282,0,0,1-4.281,4.282,4.282,4.282,0,0,0-4.282,4.282v.718a5,5,0,0,0,5,5h.472a5.471,5.471,0,0,1,5.471,5.471v9.056a5.471,5.471,0,0,1-5.471,5.471h-.234a5.238,5.238,0,0,0,0,10.475h25.681a5.238,5.238,0,0,0,0-10.475h-4.51a6.428,6.428,0,0,1,0-12.856h17.111a11.665,11.665,0,0,1,11.665,11.666v.724a10.942,10.942,0,0,0,10.942,10.942h3.8a7.142,7.142,0,0,0,7.142-7.142V42.944a5.233,5.233,0,0,0-5.233-5.233,5.233,5.233,0,0,1-5.233-5.233V32a5.714,5.714,0,0,1,5.714-5.714h9.5a7.618,7.618,0,0,1,7.618,7.618v.958a6.66,6.66,0,0,0,6.66,6.66,6.66,6.66,0,0,1,6.66,6.66v4.3a6.66,6.66,0,0,1-6.66,6.66,6.66,6.66,0,0,0-6.66,6.66v.958a7.618,7.618,0,0,0,7.618,7.618h3.086a10.7,10.7,0,0,1,10.7,10.7v5.255a9.277,9.277,0,0,1-9.277,9.277,9.277,9.277,0,0,0-9.277,9.276v11.441a6.423,6.423,0,0,0,6.423,6.423h4.517a1.905,1.905,0,0,0,1.9-1.9,1.9,1.9,0,0,1,1.9-1.9h7.367a6.427,6.427,0,1,1,0,12.855H427.3a1.9,1.9,0,0,1-1.9-1.9,1.905,1.905,0,0,0-1.9-1.905H412.559a6.666,6.666,0,0,0,0,13.332h10.448A14.284,14.284,0,0,1,437.291,159.6v7.624a6.66,6.66,0,0,1-6.66,6.661,6.66,6.66,0,0,0-6.66,6.66v1.917a8.563,8.563,0,0,0,8.563,8.564,8.563,8.563,0,0,1,8.563,8.563v4.773a5.709,5.709,0,0,1-5.709,5.709,5.709,5.709,0,0,0-5.708,5.709v9.3a9.277,9.277,0,0,1-9.277,9.276,9.278,9.278,0,0,0-9.277,9.277v22.153a5.233,5.233,0,0,0,5.233,5.233,5.233,5.233,0,0,1,5.233,5.233V304.83a5.709,5.709,0,0,0,5.709,5.709h1.185a4.523,4.523,0,0,0,4.524-4.524,4.523,4.523,0,0,1,4.523-4.523h.472A5,5,0,0,1,443,306.487v5.964a8.563,8.563,0,0,1-8.563,8.563,8.563,8.563,0,0,0-8.563,8.563v9.773a5,5,0,0,0,4.995,4.995,5,5,0,0,1,5,4.995v1.909a6.9,6.9,0,0,1-6.9,6.9h-8.073a9.761,9.761,0,0,0-9.761,9.761v1.2a8.563,8.563,0,0,0,8.563,8.563,8.563,8.563,0,0,1,8.563,8.564v.959a9.522,9.522,0,0,1-9.522,9.523H401.858a9.285,9.285,0,0,0-9.285,9.285,9.285,9.285,0,0,1-9.285,9.285H371.169a4.285,4.285,0,0,0-4.286,4.285,4.285,4.285,0,0,1-4.285,4.285h-8.551a10,10,0,0,0-10,10,10,10,0,0,1-10,10H299.336a6.666,6.666,0,0,1,0-13.332h2.848a9.515,9.515,0,0,0,9.515-9.515v-1.674a11.19,11.19,0,0,0-11.189-11.19H286.73A7.857,7.857,0,0,0,278.874,416a7.857,7.857,0,0,1-7.857,7.856H252.953a6.9,6.9,0,0,0-6.9,6.9v1.2a5.708,5.708,0,0,0,5.708,5.709,5.709,5.709,0,0,1,5.709,5.709v.957A6.665,6.665,0,0,1,250.8,451H214.893a5.475,5.475,0,1,1,0-10.951h4.277a9.753,9.753,0,0,0,9.752-9.753V419.807a6.9,6.9,0,0,0-6.9-6.9H220.6a5.476,5.476,0,0,0-5.476,5.475,5.475,5.475,0,0,1-5.475,5.476h-3.326a8.8,8.8,0,0,1-8.8-8.8v-6.674a15.474,15.474,0,0,0-15.474-15.474h-9.257a7.618,7.618,0,0,0-7.618,7.618,7.618,7.618,0,0,1-7.618,7.618H146.864a5.951,5.951,0,0,0-5.951,5.952,5.952,5.952,0,0,1-5.952,5.952H121.18a11.665,11.665,0,0,1-11.665-11.666A11.666,11.666,0,0,0,97.849,396.72h-16.4a8.094,8.094,0,0,0-8.094,8.094v1.435a6.66,6.66,0,0,0,6.66,6.66H81.2a5.475,5.475,0,1,1,0,10.951H51.728A16.427,16.427,0,0,1,35.3,407.433v-5.247a11.18,11.18,0,0,1,11.18-11.18,11.179,11.179,0,0,0,11.18-11.179V379.1a11.9,11.9,0,0,0-11.9-11.9H38.4a13.094,13.094,0,0,1-.011-26.187,13.083,13.083,0,0,0,13.083-13.083v-8.35a7.136,7.136,0,0,0-7.136-7.136,7.136,7.136,0,0,1-7.136-7.136v-1.672a8.809,8.809,0,0,1,8.809-8.809h5.225a14.034,14.034,0,0,0,14.034-14.034V262.921a3.806,3.806,0,0,0-7.612,0v2.861a6.666,6.666,0,0,1-6.666,6.666H30.79a10.237,10.237,0,0,1-10.237-10.237v-2.864a7.374,7.374,0,0,1,7.374-7.374A7.373,7.373,0,0,0,35.3,244.6v-.245a7.618,7.618,0,0,1,7.618-7.618h7.6a10,10,0,1,0,0-20H48.859A11.655,11.655,0,0,1,37.2,205.084V186.023a5.947,5.947,0,0,0-5.947-5.947h-.709a5.238,5.238,0,0,0-5.238,5.238,5.237,5.237,0,0,1-5.238,5.237H19.6a5.708,5.708,0,0,1-5.709-5.708v-12.39a5.709,5.709,0,0,1,5.709-5.709,5.708,5.708,0,0,0,5.709-5.708v-5A10.714,10.714,0,0,0,14.6,145.318H12.951a10.951,10.951,0,1,1,0-21.9H27.207a8.1,8.1,0,0,0,8.094-8.1v-3.1a5,5,0,0,0-5-5,5,5,0,0,1-5-4.995v-5A10,10,0,0,1,35.31,87.229Z" transform="translate(-0.5 -0.5)" fill="#fb5607" stroke="#000" stroke-width="3"/>
</svg>
