<svg xmlns="http://www.w3.org/2000/svg" width="431" height="426" viewBox="0 0 431 426">
  <path id="Path_394" data-name="Path 394" d="M15.345,279.8v-3.079a3.813,3.813,0,0,1,3.813-3.813,3.813,3.813,0,0,0,3.813-3.813V250.6a10.485,10.485,0,0,0-10.486-10.485A10.486,10.486,0,0,1,2,229.63v-4.694a10.485,10.485,0,0,1,10.486-10.485h1.455a9.03,9.03,0,0,0,9.03-9.031v-1.643a7.387,7.387,0,0,0-7.388-7.387A7.388,7.388,0,0,1,8.2,189V187.36a9.03,9.03,0,0,1,9.03-9.031H32.992a4.277,4.277,0,1,0,0-8.555H32.5a4.766,4.766,0,0,1-4.766-4.766v-.7a5.466,5.466,0,0,0-5.466-5.465H17.233a6.654,6.654,0,0,1-6.654-6.654v-1.411a5.243,5.243,0,0,1,5.243-5.243,5.243,5.243,0,0,0,5.243-5.243v-.7a5.941,5.941,0,0,1,5.941-5.941h3.137a8.08,8.08,0,0,0,0-16.16H25.326a9.981,9.981,0,0,1-9.981-9.981v-3.785a6.2,6.2,0,0,1,6.2-6.2h.73A5.466,5.466,0,0,1,27.737,103a5.466,5.466,0,0,0,5.466,5.466h5.272a4.99,4.99,0,0,0,4.991-4.991v-.939a4.051,4.051,0,0,0-4.051-4.051,4.051,4.051,0,0,1-4.051-4.051V91.59A6.891,6.891,0,0,0,28.472,84.7h-4.1a9.03,9.03,0,0,1-9.03-9.03v-.451a8.579,8.579,0,0,1,8.579-8.579H28.7a3.8,3.8,0,0,1,3.8,3.8,3.8,3.8,0,0,0,3.8,3.8H38.7a6.2,6.2,0,0,0,6.2-6.2V58.1a4.766,4.766,0,0,0-4.766-4.766H38.452a3.089,3.089,0,0,0-3.089,3.089,3.089,3.089,0,0,1-3.089,3.089H21.524a6.179,6.179,0,0,1-6.179-6.179v-.221A5.958,5.958,0,0,1,21.3,47.152h.967a4.99,4.99,0,1,0,0-9.981H19.854a6.892,6.892,0,1,1,0-13.783H32.762a7.367,7.367,0,0,1,7.367,7.367A7.367,7.367,0,0,0,47.5,38.121H60.871a3.089,3.089,0,0,0,0-6.179H55.857a8.1,8.1,0,0,1-8.1-8.1V20.085a8.579,8.579,0,0,1,8.579-8.579H60.16a4.753,4.753,0,0,1,4.753,4.753,4.753,4.753,0,0,0,4.753,4.753H90.9a2.614,2.614,0,0,0,0-5.228h-.971a3.565,3.565,0,1,1,0-7.129h16.7a3.565,3.565,0,1,1,0,7.129,3.579,3.579,0,0,0-3.58,3.575v5.456a9.03,9.03,0,0,0,9.031,9.03H133.8a5.941,5.941,0,1,0,0-11.882h-7.183a5.941,5.941,0,0,1,0-11.882h7.176a3.565,3.565,0,0,1,3.565,3.565,3.565,3.565,0,0,0,3.564,3.565h10.519a8.317,8.317,0,0,1,8.317,8.317,8.318,8.318,0,0,0,8.318,8.317h12.909a5.941,5.941,0,0,0,5.941-5.941V26.251a4.29,4.29,0,0,0-4.29-4.29h-1.2a3.089,3.089,0,1,1,0-6.179h8.6a3.564,3.564,0,0,0,3.564-3.565V11.99a3.34,3.34,0,0,0-3.341-3.336,3.327,3.327,0,1,1,0-6.654H212.2a3.327,3.327,0,1,1,0,6.654H204.79a3.565,3.565,0,1,0,0,7.129h6.682A10.247,10.247,0,0,1,221.719,26.03v5.912A11.882,11.882,0,0,0,233.6,43.825H247.71a5.466,5.466,0,1,0,0-10.931h-3.843a5.466,5.466,0,1,1,0-10.931h17.917a10.457,10.457,0,0,1,10.457,10.456A10.456,10.456,0,0,0,282.7,42.874h13.4a9.506,9.506,0,0,0,9.506-9.506V27.676a3.813,3.813,0,0,0-7.626,0V30.5a6.2,6.2,0,1,1-12.392,0V24.576A12.119,12.119,0,0,1,297.7,12.456h11.26A9.03,9.03,0,0,1,318,21.486a9.03,9.03,0,0,0,9.03,9.03h5.287a6.654,6.654,0,0,0,6.654-6.654,6.654,6.654,0,0,1,6.654-6.654h7.671a9.5,9.5,0,0,1,9.505,9.506V40.95a8.1,8.1,0,0,0,8.1,8.1h4.062a4.039,4.039,0,0,0,4.04-4.04,4.04,4.04,0,0,1,4.04-4.04h5.016a9.056,9.056,0,0,1,9.056,9.056V52.6a7.388,7.388,0,0,1-7.388,7.388,7.387,7.387,0,0,0-7.387,7.388V69.49A9.5,9.5,0,0,0,391.844,79h5.27a11.438,11.438,0,0,1,11.438,11.439V109.4a5.719,5.719,0,0,1-5.719,5.72,5.719,5.719,0,0,0-5.719,5.719V131.5a4.051,4.051,0,0,0,4.051,4.051h.486a3.565,3.565,0,0,0,3.565-3.565,3.565,3.565,0,0,1,3.565-3.564h5.491A8.579,8.579,0,0,1,422.851,137v8.044a4.29,4.29,0,0,1-4.29,4.289h-1.675a2.614,2.614,0,0,1-2.614-2.614,2.614,2.614,0,0,0-2.614-2.614h-3.821a6.435,6.435,0,0,0-6.434,6.434v7.574a4.528,4.528,0,0,0,4.528,4.528,4.528,4.528,0,0,1,4.528,4.528v1.651A6.186,6.186,0,0,0,416.646,175a6.2,6.2,0,0,1,6.205,6.2v4.736a10.931,10.931,0,0,1-10.932,10.931h-10.31a11.645,11.645,0,0,0-11.645,11.645v1.4a10.248,10.248,0,0,0,10.248,10.247h.741a9.506,9.506,0,0,1,9.506,9.506v11.617a9.77,9.77,0,0,0,9.77,9.77A9.771,9.771,0,0,1,430,260.818v8.975a9.77,9.77,0,0,1-9.771,9.771h-2.641a7.129,7.129,0,0,1-7.129-7.129,7.129,7.129,0,0,0-7.129-7.129h-.259a7.387,7.387,0,0,0-7.387,7.387v7.079A10.724,10.724,0,0,1,384.96,290.5a10.723,10.723,0,0,0-10.724,10.723v7.8a5.719,5.719,0,1,0,11.439,0v-.7a6.417,6.417,0,0,1,6.416-6.417h5.522a8.081,8.081,0,0,1,8.08,8.08v4.029a4.052,4.052,0,0,1-4.052,4.051,4.051,4.051,0,0,0-4.051,4.051v7.107a4.051,4.051,0,0,0,4.051,4.051,4.052,4.052,0,0,1,4.052,4.051v4.029a8.08,8.08,0,0,1-8.08,8.079h-6.006a9.268,9.268,0,1,0,0,18.536h1.24a8.081,8.081,0,0,1,8.08,8.08v3.314a4.766,4.766,0,0,0,4.766,4.766,4.766,4.766,0,0,1,4.766,4.766v7.591A12.357,12.357,0,0,1,398.1,408.84H386.854a4.514,4.514,0,0,1-4.515-4.515,4.516,4.516,0,0,0-4.516-4.515h-9.8a6.655,6.655,0,0,1-6.654-6.654,6.654,6.654,0,0,0-6.653-6.654H342.99a9.743,9.743,0,0,0-9.743,9.744V401.7a4.29,4.29,0,0,0,4.29,4.29,4.289,4.289,0,0,1,4.289,4.289v5.216a9.506,9.506,0,0,1-9.5,9.506H315.358a5.941,5.941,0,1,1,0-11.882h.254a6.2,6.2,0,0,0,6.2-6.2v-.458a6.654,6.654,0,0,0-6.653-6.654H304.632a6.654,6.654,0,0,1-6.654-6.654,6.654,6.654,0,0,0-6.654-6.654H271.975a9.743,9.743,0,0,0-9.743,9.744v4.262a5.481,5.481,0,0,0,5.481,5.481h.253a5.228,5.228,0,0,1,0,10.456H257.2a8.318,8.318,0,0,1-8.318-8.317,8.317,8.317,0,0,0-8.317-8.318h-9.11a11.168,11.168,0,0,1-11.169-11.169,11.17,11.17,0,0,0-11.17-11.169h-17.2a5.466,5.466,0,1,0,0,10.931h3.351a8.818,8.818,0,0,1,8.818,8.818v5.411A10.486,10.486,0,0,1,193.6,413.118h-5.257a5.228,5.228,0,0,1-5.228-5.228,5.229,5.229,0,0,0-5.229-5.228H161.646a7.129,7.129,0,0,1-7.129-7.129,7.13,7.13,0,0,0-7.13-7.13H128.76a7.13,7.13,0,0,0-7.13,7.13v3.316a3.813,3.813,0,0,0,3.813,3.813,3.813,3.813,0,0,1,3.813,3.813v1.415a5.228,5.228,0,0,1-5.228,5.228h-5.019a10.247,10.247,0,0,1-10.247-10.247V390.089a7.864,7.864,0,0,0-15.729,0v.928a8.792,8.792,0,0,1-8.793,8.793H68.231a6.654,6.654,0,0,1-6.654-6.654,6.654,6.654,0,0,0-6.654-6.654h-1.21a7.864,7.864,0,0,0-7.864,7.864v3.3A11.169,11.169,0,0,1,34.679,408.84h-3.4a10.218,10.218,0,0,1-10.219-10.218v-2.116a8.1,8.1,0,0,1,8.1-8.1h.26a7.842,7.842,0,1,0,0-15.684H12.7a7.367,7.367,0,0,1-7.367-7.367V364.9a6.911,6.911,0,0,1,6.911-6.911h1.445a5.466,5.466,0,0,0,5.466-5.465,5.466,5.466,0,0,1,5.466-5.466h3.59A9.056,9.056,0,0,0,37.27,338V335.41a11.645,11.645,0,0,0-11.644-11.645H21.278a8.793,8.793,0,1,1,.012-17.585,8.828,8.828,0,0,0,8.83-8.818v-3.281a7.388,7.388,0,0,0-7.388-7.388h-.5A6.891,6.891,0,0,1,15.345,279.8Z" transform="translate(-0.5 -0.5)" fill="#ed1e70" stroke="#000" stroke-width="3"/>
</svg>
