<svg xmlns="http://www.w3.org/2000/svg" width="412" height="414" viewBox="0 0 412 414">
  <path id="Path_396" data-name="Path 396" d="M4.857,290V258.035a4.286,4.286,0,0,1,4.285-4.286,4.285,4.285,0,0,0,4.285-4.285V202.247a5.713,5.713,0,0,0-5.714-5.713A5.714,5.714,0,0,1,2,190.82V169.833a5.245,5.245,0,0,1,5.245-5.245h4.983a6.913,6.913,0,0,0,6.914-6.913v-.486a6.428,6.428,0,0,1,6.428-6.428h.945a5.483,5.483,0,1,0,0-10.966H9.39a7.39,7.39,0,0,1,0-14.781h1.18a8.571,8.571,0,0,0,8.57-8.571V104.03a3.81,3.81,0,0,1,3.809-3.81,3.809,3.809,0,0,0,3.809-3.809V67.077a4.523,4.523,0,0,0-4.523-4.523,4.523,4.523,0,0,1-4.523-4.523V55.64a6.914,6.914,0,0,1,6.913-6.914H30.8a4.053,4.053,0,1,0,0-8.105H10.819a7.39,7.39,0,0,1-7.39-7.39V30.125A4.285,4.285,0,0,1,7.714,25.84,4.285,4.285,0,0,0,12,21.555V19.4a6.437,6.437,0,0,1,6.437-6.437h.943a7.38,7.38,0,0,1,7.38,7.38V20.6a7.629,7.629,0,0,0,7.629,7.629H52.462a6.2,6.2,0,0,0,0-12.4H43.667a4.053,4.053,0,1,1,0-8.106H69.6a5.722,5.722,0,0,1,5.722,5.722,5.722,5.722,0,0,0,5.722,5.721h3.087a8.814,8.814,0,0,1,8.809,8.815,8.826,8.826,0,0,0,8.821,8.827h10.455a5.483,5.483,0,0,0,0-10.966h-.469a5.952,5.952,0,0,1-5.952-5.952V18.449a7.391,7.391,0,0,1,7.391-7.39h10.456A6.437,6.437,0,0,1,130.08,17.5a6.437,6.437,0,0,0,6.437,6.437h9.03a5.483,5.483,0,0,0,5.483-5.483V16.537a3.571,3.571,0,0,0-3.571-3.571,3.576,3.576,0,0,1,.005-7.152h14.272a5.007,5.007,0,0,1,5.007,5.006,5.006,5.006,0,0,0,5.006,5.006h21.89a4.052,4.052,0,0,0,4.052-4.053v-.958A3.094,3.094,0,0,0,194.6,7.722h-.234a2.861,2.861,0,1,1,0-5.722h19.989a2.861,2.861,0,1,1,0,5.722h-3.567a6.428,6.428,0,0,0-6.428,6.428v4.07a5.714,5.714,0,0,0,5.714,5.714h1.661a4.053,4.053,0,0,0,4.053-4.053,4.052,4.052,0,0,1,4.052-4.053H228.4a5.007,5.007,0,0,1,5.007,5.006,5.006,5.006,0,0,0,5.006,5.006h9.985a5.006,5.006,0,0,0,5.006-5.006v-.721a4.285,4.285,0,0,0-4.285-4.285h-1.9a2.384,2.384,0,1,1,0-4.768h13.561a4.053,4.053,0,0,1,4.053,4.053,4.052,4.052,0,0,0,4.052,4.053h19.036a3.1,3.1,0,0,0,0-6.2h-.234a3.333,3.333,0,0,1-3.333-3.333V9.39a3.576,3.576,0,0,1,3.576-3.576H309.34a3.576,3.576,0,0,1,0,7.152h-2.852a6.427,6.427,0,0,0-6.427,6.428v5.98a8.094,8.094,0,0,0,8.094,8.094h3.326a4.768,4.768,0,0,0,4.768-4.768,4.768,4.768,0,0,1,4.768-4.768h7.132a2.861,2.861,0,0,1,2.86,2.861,2.861,2.861,0,0,0,2.861,2.861h2.377a5.237,5.237,0,0,0,5.237-5.238V19.153a8.094,8.094,0,0,1,8.1-8.094h4.756a3.338,3.338,0,0,1,3.338,3.338,3.337,3.337,0,0,0,3.337,3.338h8.083a4.768,4.768,0,0,0,4.768-4.768A4.768,4.768,0,0,1,378.629,8.2h6.177a4.768,4.768,0,0,1,4.768,4.768,4.768,4.768,0,0,0,4.768,4.768h6.18a2.384,2.384,0,0,0,2.384-2.384,2.384,2.384,0,0,1,2.384-2.384h1.663A4.047,4.047,0,0,1,411,17.014v10.5a4.047,4.047,0,0,1-4.047,4.047h-1.425a2.622,2.622,0,0,1-2.622-2.622,2.622,2.622,0,0,0-2.623-2.622h-2.139a4.761,4.761,0,0,0-4.761,4.761v1.684a6.428,6.428,0,0,1-6.428,6.428,6.428,6.428,0,0,0-6.428,6.428V50.4a4.523,4.523,0,0,0,4.524,4.523h.709a3.814,3.814,0,0,0,3.814-3.814v-.481a3.333,3.333,0,1,1,6.666,0V61.37a5.952,5.952,0,0,1-5.952,5.952,5.952,5.952,0,0,0-5.952,5.952V84.728a2.619,2.619,0,0,0,5.238,0v-1.2a3.333,3.333,0,0,1,6.666,0v7.4a5,5,0,0,1-5,5,5,5,0,0,0-5,5v8.361a7.143,7.143,0,0,1-7.142,7.142,7.142,7.142,0,0,0-7.142,7.142v9.555a7.142,7.142,0,0,0,7.142,7.142H381a5.244,5.244,0,0,0,5.245-5.244,5.245,5.245,0,0,1,5.245-5.245h1.9a7.143,7.143,0,0,1,7.142,7.142v7.408a5.475,5.475,0,0,1-5.476,5.475,5.476,5.476,0,0,0-5.475,5.476v7.166a4.523,4.523,0,0,1-4.523,4.523,4.523,4.523,0,0,0-4.524,4.523v5.264a9.285,9.285,0,0,1-9.284,9.285,9.285,9.285,0,0,0-9.285,9.285v1.693a8.571,8.571,0,0,0,8.571,8.571h3.087a5.483,5.483,0,0,0,5.483-5.483v-.722a4.762,4.762,0,1,1,9.523,0v15.747a4.762,4.762,0,0,1-4.762,4.762,4.761,4.761,0,0,0-4.761,4.761v12.173a5.952,5.952,0,0,1-5.952,5.952,5.951,5.951,0,0,0-5.951,5.952v4.543a3.809,3.809,0,0,0,3.809,3.809,3.809,3.809,0,0,1,3.809,3.809v5.735a5.714,5.714,0,0,0,5.713,5.714h1.9a3.815,3.815,0,0,0,3.814-3.815v-.243a3.571,3.571,0,0,1,7.142,0v8.36a8.094,8.094,0,0,1-8.094,8.094,8.1,8.1,0,0,0-8.1,8.1v17.419a3.571,3.571,0,0,0,3.571,3.571H381a3.337,3.337,0,0,0,3.337-3.338,3.338,3.338,0,0,1,3.338-3.337h.472a3.809,3.809,0,0,1,3.809,3.809v13.6a6.428,6.428,0,0,1-6.428,6.428h-2.375a4.053,4.053,0,0,1-4.053-4.053,4.054,4.054,0,0,0-4.053-4.053h-.232a4.285,4.285,0,0,0-4.285,4.285v6.454a7.856,7.856,0,0,0,7.856,7.856,7.857,7.857,0,0,1,7.856,7.857v9.553a5,5,0,0,1-5,5,5,5,0,0,0-5,5v6.688a4.047,4.047,0,0,0,4.047,4.047h1.187a2.86,2.86,0,0,0,2.86-2.861,2.86,2.86,0,0,1,2.861-2.86h.949a3.809,3.809,0,0,1,3.809,3.809v1.912a5.722,5.722,0,0,1-5.722,5.722h-3.079a5.96,5.96,0,0,0-5.96,5.96,5.96,5.96,0,0,1-5.96,5.96h-3.792a5.96,5.96,0,0,1-5.96-5.96,5.96,5.96,0,0,0-5.96-5.96h-7.127a4.53,4.53,0,0,0-4.53,4.529v1.911a2.619,2.619,0,0,0,2.619,2.619,2.618,2.618,0,0,1,2.618,2.619V398.7a4.291,4.291,0,0,1-4.291,4.291H332.927a9.536,9.536,0,0,1-9.536-9.536,9.536,9.536,0,0,0-9.536-9.536h-7.6a2.861,2.861,0,1,0,0,5.722h1.182a3.1,3.1,0,1,1,0,6.2h-8.8a5.244,5.244,0,0,1-5.244-5.245,5.245,5.245,0,0,0-5.245-5.244H277.213a5.244,5.244,0,0,0-5.244,5.244v.96a4.284,4.284,0,0,0,4.285,4.285,4.286,4.286,0,0,1,4.285,4.285v1.2a5.483,5.483,0,0,1-5.483,5.484h-17.6a5.483,5.483,0,0,1-5.483-5.484v-1.2a4.285,4.285,0,0,1,4.285-4.285,4.284,4.284,0,0,0,4.285-4.285v-2.39a6.675,6.675,0,0,0-6.675-6.675H230.554a6.676,6.676,0,0,0-6.675,6.675V390.6a5.237,5.237,0,0,0,5.237,5.237h1.662a3.576,3.576,0,1,1,0,7.152h-20.94a3.576,3.576,0,0,1-3.576-3.576,3.576,3.576,0,0,0-3.576-3.576H182.7a3.576,3.576,0,1,0,0,7.152h3.323a4.053,4.053,0,0,1,0,8.106H161.273a4.053,4.053,0,1,1,0-8.106h2.375a6.428,6.428,0,0,0,6.428-6.428v-5.742a8.332,8.332,0,0,0-8.333-8.332h-1.657a6.676,6.676,0,0,0-6.675,6.675,6.675,6.675,0,0,1-6.675,6.675h-8.318a3.576,3.576,0,0,0-3.576,3.576,3.576,3.576,0,0,1-3.576,3.576H124.61a3.576,3.576,0,0,1-3.576-3.576,3.576,3.576,0,0,0-3.576-3.576h-6.891a6.2,6.2,0,0,0-6.2,6.2v3.579a2.618,2.618,0,0,0,2.619,2.619h.235a2.384,2.384,0,0,1,0,4.768h-11.9a2.384,2.384,0,0,1,0-4.768h.235a2.619,2.619,0,0,0,2.619-2.619V403.7a4.529,4.529,0,0,0-4.53-4.529h-.232a4.762,4.762,0,0,1-4.761-4.762v-.96a5.721,5.721,0,0,0-5.722-5.721H75.566a2.622,2.622,0,0,1-2.622-2.623,2.622,2.622,0,0,0-2.622-2.622H64.85a8.094,8.094,0,0,0-8.094,8.094v.25a8.344,8.344,0,0,1-8.344,8.344H43.191a3.576,3.576,0,0,1-3.576-3.576,3.576,3.576,0,0,0-3.576-3.576H27.957a5.483,5.483,0,0,0-5.483,5.483,5.483,5.483,0,0,1-5.483,5.483h-1.9a7.38,7.38,0,0,1-7.38-7.38v-8.593A.715.715,0,0,0,7,386.3a.714.714,0,0,1-.714-.714V371.276a3.1,3.1,0,0,1,3.095-3.1,3.1,3.1,0,0,0,3.095-3.1v-4.539a3.809,3.809,0,0,1,3.809-3.809,3.809,3.809,0,0,0,3.809-3.809v-2.39a6.2,6.2,0,0,0-6.2-6.2h-.706a6.9,6.9,0,0,1-6.9-6.9v-4.306a3.571,3.571,0,0,1,3.571-3.571,3.57,3.57,0,0,0,3.571-3.571v-6.446c0-1.841.659-3.333,2.5-3.333s4.166-1.492,4.166-3.333v-7.644a7.618,7.618,0,0,0-7.618-7.618A7.618,7.618,0,0,1,4.857,290Z" transform="translate(-0.5 -0.5)" fill="#3a86ff" stroke="#000" stroke-width="3"/>
</svg>
