<svg xmlns="http://www.w3.org/2000/svg" width="421" height="425" viewBox="0 0 421 425">
  <path id="Path_395" data-name="Path 395" d="M17.235,234.847v-.224a7.841,7.841,0,0,1,7.841-7.841h3.347a11.188,11.188,0,0,0,11.188-11.188V196.855a7.141,7.141,0,0,0-7.141-7.141h-.726a6.415,6.415,0,0,1-6.416-6.416v-2.844a3.571,3.571,0,0,0-3.571-3.571,3.571,3.571,0,0,1-3.571-3.571V162.883A10.712,10.712,0,0,1,28.9,152.171a10.712,10.712,0,0,0,10.712-10.712V130.553a2.618,2.618,0,0,0-5.237,0v1.183a3.8,3.8,0,0,1-3.8,3.8H25.09a9.283,9.283,0,0,1-9.284-9.283v-1.87a8.331,8.331,0,0,1,8.331-8.331h.728a7.6,7.6,0,1,0,0-15.207H16.51a5.94,5.94,0,0,1-5.94-5.94v-.7a5.237,5.237,0,0,1,5.237-5.237,5.237,5.237,0,0,0,5.237-5.237V78.511A10.455,10.455,0,0,1,31.5,68.056h2.652a8.316,8.316,0,0,0,8.316-8.316V54.28a2.856,2.856,0,0,0-5.713,0v2.371a5.227,5.227,0,0,1-5.228,5.227H22.462a5.227,5.227,0,0,1-5.227-5.227v-.467a4.764,4.764,0,0,0-4.765-4.761,4.752,4.752,0,1,1,0-9.5h2.389A7.141,7.141,0,0,0,22,34.778V22.916a3.333,3.333,0,1,0-6.665,0v.707a4.039,4.039,0,0,1-4.039,4.04H8.653a6.653,6.653,0,0,1,0-13.306H26.77a7.6,7.6,0,0,1,7.6,7.6,7.6,7.6,0,0,0,7.6,7.6H45.81a5.7,5.7,0,0,0,5.7-5.7V21.728a3.571,3.571,0,0,0-3.571-3.571,3.571,3.571,0,0,1-3.571-3.571v-.944a4.515,4.515,0,0,1,4.515-4.515H63.657a2.614,2.614,0,1,1,0,5.228H62.224A4.047,4.047,0,0,0,58.178,18.4V20.3a5.94,5.94,0,0,0,5.94,5.94H69.85a4.515,4.515,0,0,0,4.515-4.515,4.515,4.515,0,0,1,4.515-4.515h1.674A6.189,6.189,0,0,1,86.743,23.4v1.89a8.079,8.079,0,0,0,8.079,8.079h3.121a6.891,6.891,0,0,0,6.891-6.891V23.63a4.047,4.047,0,0,0-4.047-4.047,4.047,4.047,0,0,1-4.047-4.047V14.356a5.228,5.228,0,0,1,5.228-5.228h10.018a6.178,6.178,0,0,1,6.178,6.178,6.178,6.178,0,0,0,6.178,6.178h8.119a8.079,8.079,0,0,0,8.079-8.079,9.5,9.5,0,0,1,9.5-9.5h31.447a4.752,4.752,0,1,1,0,9.5h-6.2a10.95,10.95,0,0,0-10.95,10.95v3.767a8.57,8.57,0,0,0,8.569,8.569h2.154a6.415,6.415,0,0,0,6.416-6.415A6.415,6.415,0,0,1,187.9,23.86h23.357a9.267,9.267,0,0,0,9.267-9.267,9.267,9.267,0,0,1,9.267-9.267h10.975a4.99,4.99,0,0,1,4.99,4.99V11.5a3.809,3.809,0,0,1-3.809,3.809,3.808,3.808,0,0,0-3.808,3.809v2.607a6.415,6.415,0,0,0,6.415,6.416h29.064a6.415,6.415,0,0,0,6.416-6.416V18.163a2.857,2.857,0,0,0-2.857-2.856,2.856,2.856,0,0,1-2.856-2.857V9.6a5.7,5.7,0,0,1,5.7-5.7H311.94a5.7,5.7,0,0,1,0,11.405H301.431a13.782,13.782,0,0,0-13.782,13.781v5.45a8.331,8.331,0,0,0,8.332,8.332h.965a7.366,7.366,0,0,0,7.366-7.366,7.366,7.366,0,0,1,7.366-7.366h7.4a4.277,4.277,0,0,1,4.277,4.277,4.277,4.277,0,0,0,4.277,4.277H330.5a7.141,7.141,0,0,0,7.141-7.141v-.462a7.6,7.6,0,0,1,7.6-7.6H351.7a9.742,9.742,0,0,0,9.742-9.742A9.742,9.742,0,0,1,371.184,2h28.364a10.93,10.93,0,0,1,10.93,10.93v5.217a5.712,5.712,0,0,1-5.713,5.713h-.485a5.228,5.228,0,0,1-5.228-5.227,5.227,5.227,0,0,0-5.227-5.227h-3.834a8.554,8.554,0,0,0,0,17.108h15.027a7.841,7.841,0,0,1,7.841,7.841v2.6a5.237,5.237,0,0,1-5.237,5.237,5.237,5.237,0,0,0-5.237,5.237V57.35a7.379,7.379,0,0,0,7.379,7.379,7.379,7.379,0,0,1,7.379,7.379v1.874a7.379,7.379,0,0,1-7.379,7.379,7.379,7.379,0,0,0-7.379,7.379v8.294a5.238,5.238,0,0,0,5.237,5.237h.247a4.991,4.991,0,0,0,4.99-4.99V95.863a3.57,3.57,0,1,1,7.141,0v27.551a3.57,3.57,0,0,1-7.141,0v-1.9a5.465,5.465,0,0,0-5.465-5.465h-1.688a6.654,6.654,0,0,0-6.654,6.653v2.607a4.046,4.046,0,0,0,4.047,4.046,4.047,4.047,0,0,1,4.047,4.047v2.844a6.891,6.891,0,0,1-6.891,6.891h-1.931a7.842,7.842,0,0,0-7.841,7.841v1.89a5.951,5.951,0,0,0,5.951,5.951,5.951,5.951,0,0,1,5.951,5.951v6.871a5.237,5.237,0,0,0,5.237,5.237,5.237,5.237,0,0,1,5.237,5.237v5.674a10.474,10.474,0,0,1-10.474,10.474,10.474,10.474,0,0,0-10.474,10.474V220.59a7.617,7.617,0,0,0,7.617,7.617,7.618,7.618,0,0,1,7.618,7.618V261.7a5.475,5.475,0,0,0,5.475,5.475,5.475,5.475,0,0,1,5.475,5.475v3.07a4.762,4.762,0,0,1-4.761,4.761,4.761,4.761,0,0,0-4.761,4.761V288.8a8.317,8.317,0,0,1-8.316,8.317H398.1a10.474,10.474,0,0,0-10.474,10.474v7.572a7.142,7.142,0,0,0,7.142,7.141h2.151a4.99,4.99,0,0,0,4.99-4.99v-2.371a2.618,2.618,0,1,1,5.237,0V326.32a11.664,11.664,0,0,1-11.664,11.664H388.57a4.752,4.752,0,0,0-4.752,4.752v.706a4.047,4.047,0,0,0,4.046,4.047,4.047,4.047,0,0,1,4.047,4.046v2.835a5.475,5.475,0,0,1-5.475,5.475,5.475,5.475,0,0,0-5.475,5.475v3.554a9.029,9.029,0,0,0,9.03,9.029H394.3a7.6,7.6,0,1,1,0,15.207h-8.591a4.753,4.753,0,1,0,0,9.505,4.764,4.764,0,0,1,4.765,4.761v.942a5.7,5.7,0,0,1-5.7,5.7H367.855a7.84,7.84,0,0,1-7.841-7.841,7.841,7.841,0,0,0-7.842-7.841h-5.495a3.8,3.8,0,0,0-3.8,3.8,3.8,3.8,0,0,1-3.8,3.8h-6.919a4.99,4.99,0,0,1-4.99-4.989,4.99,4.99,0,0,0-4.99-4.99H312.64A2.139,2.139,0,0,0,310.5,398.1a2.139,2.139,0,0,1-2.138,2.139h-8.82a4.752,4.752,0,1,0,0,9.5h.722a5.475,5.475,0,0,1,5.475,5.475v1.654A7.128,7.128,0,0,1,298.612,424H277.639a7.128,7.128,0,0,1-7.129-7.128v-1.178a5.952,5.952,0,0,1,5.951-5.951h2.387a3.564,3.564,0,0,0,0-7.128h-2.387a5.951,5.951,0,0,1-5.951-5.951v-1.653a7.6,7.6,0,0,0-7.6-7.6H258.6a4.277,4.277,0,0,0-4.277,4.277,4.277,4.277,0,0,1-4.277,4.277h-5.968a5.465,5.465,0,0,1-5.465-5.465,5.465,5.465,0,0,0-5.465-5.465h-6.925a6.653,6.653,0,0,0-6.654,6.653v1.178a5.475,5.475,0,0,0,5.475,5.475h1.674a3.8,3.8,0,0,1,0,7.6h-7.625a11.426,11.426,0,0,1-11.426-11.425v-3.307a14.732,14.732,0,0,0-14.732-14.732H179.571a4.278,4.278,0,0,0,0,8.555h1.2a5.475,5.475,0,0,1,5.475,5.475v1.178a6.653,6.653,0,0,1-6.653,6.653h-9.07a6.653,6.653,0,0,1-6.653-6.653,6.665,6.665,0,0,0-13.33.012v3.79a10.454,10.454,0,0,1-10.455,10.454H130.056a5.7,5.7,0,1,1,0-11.4h2.867a8.57,8.57,0,0,0,8.569-8.569V382.2a8.57,8.57,0,0,0-8.569-8.57h-2.867a5.7,5.7,0,0,0-5.7,5.7,5.7,5.7,0,0,1-5.7,5.7h-6.211a6.653,6.653,0,0,0-6.653,6.653,6.654,6.654,0,0,1-6.653,6.653H84.357a2.851,2.851,0,0,0-2.851,2.851,2.852,2.852,0,0,1-2.851,2.852H72.448a6.653,6.653,0,0,1-6.653-6.654,6.653,6.653,0,0,0-6.653-6.653H56.979a4.515,4.515,0,0,0-4.515,4.515,4.515,4.515,0,0,1-4.515,4.515H41.5a8.554,8.554,0,0,1-8.554-8.555v-1.65a6.9,6.9,0,0,1,6.9-6.9,6.9,6.9,0,0,0,6.9-6.9v-5.443a5.237,5.237,0,1,0-10.474,0v.466a5.7,5.7,0,0,1-5.7,5.7h-.962a6.665,6.665,0,0,1-6.665-6.665v-2.355a4.761,4.761,0,0,0-4.761-4.761,4.761,4.761,0,0,1-4.761-4.761V356.05a3.809,3.809,0,0,1,3.809-3.809,3.809,3.809,0,0,0,3.809-3.809v-.706a4.514,4.514,0,0,1,4.515-4.514h3.1a7.618,7.618,0,0,0,7.617-7.618v-2.823a8.093,8.093,0,0,0-8.093-8.093H24.843a4.753,4.753,0,0,1,0-9.505h5.732a5.7,5.7,0,0,0,5.7-5.7,5.7,5.7,0,0,1,5.7-5.7h.963a6.665,6.665,0,0,0,6.665-6.665V285.244a5.237,5.237,0,0,0-5.237-5.237h-.247a4.99,4.99,0,0,0-4.99,4.99,4.99,4.99,0,0,1-4.99,4.989h-5.96a10.949,10.949,0,0,1-10.95-10.949V262.912a7.617,7.617,0,0,1,7.617-7.617h1.2a6.415,6.415,0,1,0,0-12.831h-1.2A7.617,7.617,0,0,1,17.235,234.847Z" transform="translate(-0.5 -0.5)" fill="#8338ec" stroke="#000" stroke-width="3"/>
</svg>
