<svg xmlns="http://www.w3.org/2000/svg" width="889.083" height="67.04" viewBox="0 0 889.083 67.04">
  <g id="Group_12" data-name="Group 12" transform="translate(-0.601 -1.24)">
    <path id="Path_389" data-name="Path 389" d="M39.44,12.8q2.736,17.708,12.616,49.172a2.5,2.5,0,0,1-.3,2.356,2.476,2.476,0,0,1-2.052,1.14l-11.552.76A2.719,2.719,0,0,1,36.4,65.62a2.808,2.808,0,0,1-.912-1.748l-1.064-6.916-10.64.076L22.72,62.884a3.19,3.19,0,0,1-1.064,1.6,1.947,1.947,0,0,1-1.672.456L8.128,64.48a2.277,2.277,0,0,1-2.052-1.064,2.188,2.188,0,0,1-.3-2.2l14.06-49.02a2.828,2.828,0,0,1,2.736-1.9l14.364.152a2.467,2.467,0,0,1,1.14.456,2.1,2.1,0,0,1,.912.836A2.018,2.018,0,0,1,39.44,12.8Zm-9.8,13.452-3.952,21.2q2.128-.152,7.3-.152Zm25.276,36.48L53.165,12.8a2.26,2.26,0,0,1,.608-1.748,2.808,2.808,0,0,1,1.748-.912,72.92,72.92,0,0,1,8.208-.456,65.026,65.026,0,0,1,8.74.608,44.253,44.253,0,0,1,8.36,1.748,19.35,19.35,0,0,1,6.612,3.572,12.361,12.361,0,0,1,3.952,5.4q1.216,3.116,0,7.828a35.46,35.46,0,0,1-4.864,10.412,12.978,12.978,0,0,1,5.32,4.788A14.2,14.2,0,0,1,94.356,50.8a9.92,9.92,0,0,1-1.824,6.612A11.881,11.881,0,0,1,89.188,60.3a26.1,26.1,0,0,1-4.332,2.052,35.644,35.644,0,0,1-5.4,1.444q-3.116.532-5.624.836t-5.928.456q-3.42.152-5.472.228H57.572a2.747,2.747,0,0,1-1.9-.76A2.488,2.488,0,0,1,54.912,62.732ZM66.921,21.388,67.909,35.3q.3-.076.836-.228a16.645,16.645,0,0,0,2.052-.76,15.465,15.465,0,0,0,2.584-1.368,7.908,7.908,0,0,0,2.052-2.356,6.957,6.957,0,0,0,.988-3.344,5.1,5.1,0,0,0-.988-3.192,4.369,4.369,0,0,0-2.356-1.824,13.578,13.578,0,0,0-2.812-.76,9.955,9.955,0,0,0-2.356-.152Zm1.292,22.268.912,12.312q.38-.076.912-.152.608-.152,2.052-.684a14.442,14.442,0,0,0,2.66-1.216A7.893,7.893,0,0,0,76.8,51.864a5.515,5.515,0,0,0,1.064-3.04,4.142,4.142,0,0,0-.988-2.812,5.249,5.249,0,0,0-2.432-1.6,13.251,13.251,0,0,0-2.812-.608A16.044,16.044,0,0,0,69.2,43.58ZM120.754,8.24a21.6,21.6,0,0,1,12.616,4.028,27.743,27.743,0,0,1,9.12,10.944,34.286,34.286,0,0,1,3.344,15.124,34.114,34.114,0,0,1-3.344,15.048,27.743,27.743,0,0,1-9.12,10.944,22.182,22.182,0,0,1-25.384-.076,27.618,27.618,0,0,1-9.2-10.868A34.28,34.28,0,0,1,95.446,38.26a34.4,34.4,0,0,1,1.976-11.628,30.1,30.1,0,0,1,5.32-9.576,25.562,25.562,0,0,1,8.132-6.384A21.261,21.261,0,0,1,120.754,8.24Zm10.564,30.02a26.6,26.6,0,0,0-1.444-8.892,15.74,15.74,0,0,0-3.8-6.46,7.515,7.515,0,0,0-5.32-2.356q-4.483,0-7.676,5.168a23.861,23.861,0,0,0-3.116,12.54,24.269,24.269,0,0,0,3.116,12.616q3.192,5.244,7.676,5.244,4.332,0,7.448-5.244A24.269,24.269,0,0,0,131.318,38.26Zm38.36,26.524a20.334,20.334,0,0,1-7.144-1.216,18.1,18.1,0,0,1-5.472-3.192,19.241,19.241,0,0,1-4.028-5.016A38.7,38.7,0,0,1,150.3,49.2a41.257,41.257,0,0,1-1.672-7.144q-.608-4.1-.836-7.524-.228-3.5-.228-7.752.077-4.332.228-7.3.152-3.04.456-6.688a3.116,3.116,0,0,1,.38-1.216,2.61,2.61,0,0,1,.912-.912,2.279,2.279,0,0,1,1.216-.38l9.8-.456a3.553,3.553,0,0,1,2.052.76,3.552,3.552,0,0,1,.76,2.052,205.71,205.71,0,0,0,0,28.652q.912,9.88,4.94,11.172,2.28.684,4.028-1.672a5.379,5.379,0,0,0,.684-1.444q1.063-3.648-.76-36.708a3.552,3.552,0,0,1,.76-2.052,3.553,3.553,0,0,1,2.052-.76l9.956.456a2.247,2.247,0,0,1,1.748.76,2.246,2.246,0,0,1,.76,1.748q1.14,22.268.684,34.5-.456,8.056-5.624,12.768A18.922,18.922,0,0,1,169.678,64.784Zm34.448-38.836H192.27a3.553,3.553,0,0,1-2.052-.76,3.379,3.379,0,0,1-.608-1.9l.3-10.108a2.486,2.486,0,0,1,.76-1.824,2.84,2.84,0,0,1,1.976-.76L233.082,9.38a3.553,3.553,0,0,1,2.052.76,2.577,2.577,0,0,1,.76,1.9V23.288a2.62,2.62,0,0,1-.836,1.9,2.489,2.489,0,0,1-1.824.76h-12.92l.76,36.632a1.973,1.973,0,0,1-.608,1.9,2.619,2.619,0,0,1-1.9.836h-11.7a2.606,2.606,0,0,1-2.736-2.736ZM254.261,61.82q-.837-14.136-1.444-49.324a3.4,3.4,0,0,1,.76-1.9,2.745,2.745,0,0,1,1.9-.76l28.956-.3a3.558,3.558,0,0,1,2.052.76,2.4,2.4,0,0,1,.608,2.052l-.152,4.94a2.4,2.4,0,0,1-.76,1.748,2.808,2.808,0,0,1-1.748.912l-16.264.152.608,10.868,11.248-.456a1.915,1.915,0,0,1,1.9.684,2.167,2.167,0,0,1,.912,1.824l.152,6.384a3.408,3.408,0,0,1-.76,1.9,2.749,2.749,0,0,1-1.9.76H269.537q.38,2.888.608,5.7.228,2.736.3,4.1.075,1.292.152,4.94.151,3.572.228,4.712a2.763,2.763,0,0,1-.608,1.9,3.014,3.014,0,0,1-2.052.912H256.921a2.917,2.917,0,0,1-1.9-.684A2.486,2.486,0,0,1,254.261,61.82Zm35.167-.152-.76-49.476a2.633,2.633,0,0,1,.684-1.824,2.78,2.78,0,0,1,1.824-.836q24.4-1.9,32.68,8.056,4.939,6,2.584,14.06a16.4,16.4,0,0,1-6.536,9.5,8.6,8.6,0,0,1-4.712,1.672,7.938,7.938,0,0,0,2.052,3.648,5.991,5.991,0,0,0,3.192,1.6,15.013,15.013,0,0,0,3.344.076,15.677,15.677,0,0,0,3.268-.684,1.705,1.705,0,0,1,1.748.38,2.16,2.16,0,0,1,.836,1.748L329.1,61.212a3.876,3.876,0,0,1-.912,1.748,2.749,2.749,0,0,1-1.9.76,27.773,27.773,0,0,1-6.612-1.216,22.271,22.271,0,0,1-5.168-2.356,28.16,28.16,0,0,1-3.724-3.116,18.356,18.356,0,0,1-2.66-3.268q-.988-1.6-1.672-2.888a14.561,14.561,0,0,1-.912-2.128l-.3-.836.3,13.3a2.58,2.58,0,0,1-.76,1.9,2.945,2.945,0,0,1-1.9.912l-10.564.3a2.577,2.577,0,0,1-1.9-.76A2.309,2.309,0,0,1,289.428,61.668ZM305.388,20.1V34.46q.379-.076.912-.152a19.859,19.859,0,0,0,2.128-.76,12.04,12.04,0,0,0,2.66-1.444,8.869,8.869,0,0,0,2.28-2.432,7.355,7.355,0,0,0,1.216-3.572,4.858,4.858,0,0,0-.76-3.268,4.057,4.057,0,0,0-2.2-1.824,13.59,13.59,0,0,0-2.812-.76,14.644,14.644,0,0,0-2.356-.228Zm28.9,41.876a109.238,109.238,0,0,1-1.9-17.252q-.533-11.1-.456-18.392.075-7.372.3-13.832a2.633,2.633,0,0,1,.684-1.824,2.379,2.379,0,0,1,1.824-.836l29.108-.3a3.558,3.558,0,0,1,2.052.76,2.4,2.4,0,0,1,.608,2.052l-.152,4.864a2.49,2.49,0,0,1-.76,1.824,2.808,2.808,0,0,1-1.748.912l-16.34.152.684,10.868,11.7.38a2.881,2.881,0,0,1,2.66,2.66v2.964a2.53,2.53,0,0,1-.38,1.368,3.437,3.437,0,0,1-.988.912,3.052,3.052,0,0,1-1.292.456L347.9,40.16l1.52,12.008,17.4-.912a2.6,2.6,0,0,1,1.9.608,2.742,2.742,0,0,1,.988,2.052v7.9a2.62,2.62,0,0,1-.836,1.9,2.578,2.578,0,0,1-1.9.76L336.8,64.024A2.409,2.409,0,0,1,334.292,61.972ZM403.335,12.8q2.736,17.708,12.616,49.172a2.505,2.505,0,0,1-.3,2.356,2.478,2.478,0,0,1-2.052,1.14l-11.552.76a2.717,2.717,0,0,1-1.748-.608,2.8,2.8,0,0,1-.912-1.748l-1.064-6.916-10.64.076-1.064,5.852a3.2,3.2,0,0,1-1.064,1.6,1.948,1.948,0,0,1-1.672.456l-11.856-.456a2.277,2.277,0,0,1-2.052-1.064,2.187,2.187,0,0,1-.3-2.2l14.06-49.02a2.828,2.828,0,0,1,2.736-1.9l14.364.152a2.469,2.469,0,0,1,1.14.456,2.1,2.1,0,0,1,.912.836A2.022,2.022,0,0,1,403.335,12.8Zm-9.8,13.452-3.952,21.2q2.127-.152,7.3-.152Zm24.514,36.176-.456-50.388a2.568,2.568,0,0,1,.684-1.9,2.489,2.489,0,0,1,1.824-.76l9.956-.152a2.577,2.577,0,0,1,1.9.76,3.358,3.358,0,0,1,.836,2.052l-.684,13.3L449.357,9.684a1.958,1.958,0,0,1,2.052-.608,2.358,2.358,0,0,1,1.9,1.216l6,9.348a2.913,2.913,0,0,1,.3,2.052,2.287,2.287,0,0,1-1.216,1.6L439.249,35.3a14.2,14.2,0,0,0,3.42,5.4,18.288,18.288,0,0,0,5.548,3.572,50.384,50.384,0,0,0,5.548,1.976,39.372,39.372,0,0,0,5.092,1.064,2.4,2.4,0,0,1,1.9,1.064,2.635,2.635,0,0,1,.3,2.2l-3.5,12.388a2.422,2.422,0,0,1-.988,1.444,2.185,2.185,0,0,1-1.672.38A21.26,21.26,0,0,1,442.9,60.072a32.755,32.755,0,0,1-4.1-4.256,35.652,35.652,0,0,1-3.04-4.56q-1.14-2.2-1.976-4.18-.836-2.052-1.216-3.192a9.217,9.217,0,0,1-.3-1.52q0-.38.532,6.612.609,6.916,1.064,13a2.59,2.59,0,0,1-.608,1.9,2.879,2.879,0,0,1-1.9.912l-10.564.38a2.075,2.075,0,0,1-1.9-.836A2.192,2.192,0,0,1,418.045,62.428Zm77.639-33.82a22.652,22.652,0,0,0-6.612-5.016,9.96,9.96,0,0,0-6.08-1.292Q476.3,23.82,494.24,34.156a28.627,28.627,0,0,1,9.12,8.436,17.461,17.461,0,0,1,3.572,10.032,10.522,10.522,0,0,1-2.964,7.524,16.806,16.806,0,0,1-7.752,4.484,32.339,32.339,0,0,1-10.336.988,35.367,35.367,0,0,1-12.236-2.66,27.8,27.8,0,0,1-9.88-6.992A2.246,2.246,0,0,1,463,54.22a2.746,2.746,0,0,1,.76-1.9l6.156-6.764a2.4,2.4,0,0,1,1.748-.912,2.238,2.238,0,0,1,1.9.608q1.368,1.14,2.736,2.2a39.485,39.485,0,0,0,3.344,2.128,20.811,20.811,0,0,0,3.724,1.672,8.9,8.9,0,0,0,3.42.38,4.5,4.5,0,0,0,2.888-1.52A2.009,2.009,0,0,0,489.6,47a16.1,16.1,0,0,0-5.016-3.268q-3.5-1.748-7.448-3.648a46.192,46.192,0,0,1-7.9-5.092,20.455,20.455,0,0,1-5.624-6.84q-3.115-6.688-.912-11.1t8.132-6.384a33.6,33.6,0,0,1,14.06-1.292,32.366,32.366,0,0,1,6.384,1.216,26.323,26.323,0,0,1,5.092,1.9,22.007,22.007,0,0,1,3.952,2.356,20.749,20.749,0,0,1,2.964,2.356,23.924,23.924,0,0,1,1.9,2.128,2.606,2.606,0,0,1,.608,1.9,2.569,2.569,0,0,1-.76,1.672l-5.4,5.7a2.91,2.91,0,0,1-2.052.988A2.184,2.184,0,0,1,495.684,28.608ZM548.848,8.24a21.6,21.6,0,0,1,12.616,4.028,27.759,27.759,0,0,1,9.12,10.944,34.285,34.285,0,0,1,3.344,15.124,34.114,34.114,0,0,1-3.344,15.048,27.759,27.759,0,0,1-9.12,10.944,22.182,22.182,0,0,1-25.384-.076,27.611,27.611,0,0,1-9.2-10.868A34.272,34.272,0,0,1,523.54,38.26a34.38,34.38,0,0,1,1.976-11.628,30.078,30.078,0,0,1,5.32-9.576,25.551,25.551,0,0,1,8.132-6.384A21.258,21.258,0,0,1,548.848,8.24Zm10.564,30.02a26.628,26.628,0,0,0-1.444-8.892,15.74,15.74,0,0,0-3.8-6.46,7.517,7.517,0,0,0-5.32-2.356q-4.485,0-7.676,5.168a23.852,23.852,0,0,0-3.116,12.54,24.26,24.26,0,0,0,3.116,12.616q3.192,5.244,7.676,5.244,4.332,0,7.448-5.244A24.27,24.27,0,0,0,559.412,38.26Zm18.22,23.56q-.837-14.136-1.444-49.324a3.4,3.4,0,0,1,.76-1.9,2.745,2.745,0,0,1,1.9-.76l28.956-.3a3.558,3.558,0,0,1,2.052.76,2.4,2.4,0,0,1,.608,2.052l-.152,4.94a2.4,2.4,0,0,1-.76,1.748,2.808,2.808,0,0,1-1.748.912L591.54,20.1l.608,10.868,11.248-.456a1.915,1.915,0,0,1,1.9.684,2.167,2.167,0,0,1,.912,1.824l.152,6.384a3.407,3.407,0,0,1-.76,1.9,2.749,2.749,0,0,1-1.9.76H592.908q.379,2.888.608,5.7.228,2.736.3,4.1.075,1.292.152,4.94.152,3.572.228,4.712a2.762,2.762,0,0,1-.608,1.9,3.014,3.014,0,0,1-2.052.912H580.292a2.917,2.917,0,0,1-1.9-.684A2.486,2.486,0,0,1,577.632,61.82Zm50.523.3L628,12.5a2.486,2.486,0,0,1,.76-1.824,2.462,2.462,0,0,1,1.9-.836l11.324-.152a3.2,3.2,0,0,1,3.268,2.2Q655.364,38.032,661.519,47.3l-.836-34.96a2.151,2.151,0,0,1,.684-1.9,3.4,3.4,0,0,1,1.9-.76l8.816-.152a2.461,2.461,0,0,1,1.9.836,2.486,2.486,0,0,1,.76,1.824L673.679,62.58a2.62,2.62,0,0,1-.836,1.9,2.382,2.382,0,0,1-1.824.836L658.4,65.164a2.986,2.986,0,0,1-2.736-1.52q-12.16-20.52-15.048-29.184l2.888,27.968a2.528,2.528,0,0,1-.684,2.2,3.151,3.151,0,0,1-2.052.836l-10.108-.608a2.784,2.784,0,0,1-1.824-.836A2.919,2.919,0,0,1,628.155,62.124ZM710.006,12.8q2.736,17.708,12.616,49.172a2.5,2.5,0,0,1-.3,2.356,2.475,2.475,0,0,1-2.052,1.14l-11.552.76a2.721,2.721,0,0,1-1.748-.608,2.815,2.815,0,0,1-.912-1.748l-1.064-6.916-10.64.076-1.064,5.852a3.183,3.183,0,0,1-1.064,1.6,1.947,1.947,0,0,1-1.672.456l-11.856-.456a2.277,2.277,0,0,1-2.052-1.064,2.19,2.19,0,0,1-.3-2.2l14.06-49.02a2.83,2.83,0,0,1,2.736-1.9l14.364.152a2.461,2.461,0,0,1,1.14.456,2.087,2.087,0,0,1,.912.836A2.006,2.006,0,0,1,710.006,12.8Zm-9.8,13.452-3.952,21.2q2.129-.152,7.3-.152Zm31.768-.3H720.114a3.553,3.553,0,0,1-2.052-.76,3.372,3.372,0,0,1-.608-1.9l.3-10.108a2.486,2.486,0,0,1,.76-1.824,2.84,2.84,0,0,1,1.976-.76L760.926,9.38a3.558,3.558,0,0,1,2.052.76,2.581,2.581,0,0,1,.76,1.9V23.288a2.62,2.62,0,0,1-.836,1.9,2.488,2.488,0,0,1-1.824.76h-12.92l.76,36.632a1.973,1.973,0,0,1-.608,1.9,2.621,2.621,0,0,1-1.9.836h-11.7a2.606,2.606,0,0,1-2.736-2.736Zm54.614,38.836a20.335,20.335,0,0,1-7.144-1.216,18.1,18.1,0,0,1-5.472-3.192,19.24,19.24,0,0,1-4.028-5.016A38.705,38.705,0,0,1,767.2,49.2a41.261,41.261,0,0,1-1.672-7.144q-.607-4.1-.836-7.524-.228-3.5-.228-7.752.076-4.332.228-7.3.152-3.04.456-6.688a3.117,3.117,0,0,1,.38-1.216,2.611,2.611,0,0,1,.912-.912,2.279,2.279,0,0,1,1.216-.38l9.8-.456a3.553,3.553,0,0,1,2.052.76,3.552,3.552,0,0,1,.76,2.052,205.71,205.71,0,0,0,0,28.652q.912,9.88,4.94,11.172,2.28.684,4.028-1.672a5.38,5.38,0,0,0,.684-1.444q1.064-3.648-.76-36.708a3.553,3.553,0,0,1,.76-2.052,3.553,3.553,0,0,1,2.052-.76l9.956.456a2.247,2.247,0,0,1,1.748.76,2.246,2.246,0,0,1,.76,1.748q1.14,22.268.684,34.5-.456,8.056-5.624,12.768A18.922,18.922,0,0,1,786.584,64.784Zm22.82-3.116-.76-49.476a2.633,2.633,0,0,1,.684-1.824,2.784,2.784,0,0,1,1.824-.836q24.4-1.9,32.68,8.056,4.941,6,2.584,14.06a16.4,16.4,0,0,1-6.536,9.5,8.6,8.6,0,0,1-4.712,1.672,7.938,7.938,0,0,0,2.052,3.648,5.991,5.991,0,0,0,3.192,1.6,15.014,15.014,0,0,0,3.344.076,15.664,15.664,0,0,0,3.268-.684,1.7,1.7,0,0,1,1.748.38,2.157,2.157,0,0,1,.836,1.748l-.532,11.628a3.876,3.876,0,0,1-.912,1.748,2.745,2.745,0,0,1-1.9.76,27.792,27.792,0,0,1-6.612-1.216,22.31,22.31,0,0,1-5.168-2.356,28.223,28.223,0,0,1-3.724-3.116,18.443,18.443,0,0,1-2.66-3.268q-.987-1.6-1.672-2.888a14.567,14.567,0,0,1-.912-2.128l-.3-.836.3,13.3a2.577,2.577,0,0,1-.76,1.9,2.942,2.942,0,0,1-1.9.912l-10.564.3a2.578,2.578,0,0,1-1.9-.76A2.312,2.312,0,0,1,809.4,61.668ZM825.364,20.1V34.46q.381-.076.912-.152a19.7,19.7,0,0,0,2.128-.76,12.017,12.017,0,0,0,2.66-1.444,8.839,8.839,0,0,0,2.28-2.432A7.334,7.334,0,0,0,834.56,26.1a4.852,4.852,0,0,0-.76-3.268,4.054,4.054,0,0,0-2.2-1.824,13.572,13.572,0,0,0-2.812-.76,14.634,14.634,0,0,0-2.356-.228Zm28.9,41.876a109.361,109.361,0,0,1-1.9-17.252q-.532-11.1-.456-18.392.077-7.372.3-13.832a2.632,2.632,0,0,1,.684-1.824,2.381,2.381,0,0,1,1.824-.836l29.108-.3a3.553,3.553,0,0,1,2.052.76,2.4,2.4,0,0,1,.608,2.052l-.152,4.864a2.487,2.487,0,0,1-.76,1.824,2.808,2.808,0,0,1-1.748.912l-16.34.152.684,10.868,11.7.38A2.881,2.881,0,0,1,882.54,34v2.964a2.53,2.53,0,0,1-.38,1.368,3.424,3.424,0,0,1-.988.912,3.046,3.046,0,0,1-1.292.456l-12.008.456,1.52,12.008,17.4-.912a2.593,2.593,0,0,1,1.9.608,2.739,2.739,0,0,1,.988,2.052v7.9a2.62,2.62,0,0,1-.836,1.9,2.578,2.578,0,0,1-1.9.76l-30.172-.456A2.41,2.41,0,0,1,854.268,61.972Z"/>
    <path id="Path_390" data-name="Path 390" d="M34.44,5.8q2.736,17.708,12.616,49.172a2.5,2.5,0,0,1-.3,2.356,2.476,2.476,0,0,1-2.052,1.14l-11.552.76A2.719,2.719,0,0,1,31.4,58.62a2.808,2.808,0,0,1-.912-1.748l-1.064-6.916-10.64.076L17.72,55.884a3.19,3.19,0,0,1-1.064,1.6,1.947,1.947,0,0,1-1.672.456L3.128,57.48a2.277,2.277,0,0,1-2.052-1.064,2.188,2.188,0,0,1-.3-2.2l14.06-49.02a2.828,2.828,0,0,1,2.736-1.9l14.364.152a2.466,2.466,0,0,1,1.14.456,2.1,2.1,0,0,1,.912.836A2.018,2.018,0,0,1,34.44,5.8Zm-9.8,13.452-3.952,21.2q2.128-.152,7.3-.152Zm25.276,36.48L48.165,5.8a2.26,2.26,0,0,1,.608-1.748,2.808,2.808,0,0,1,1.748-.912,72.92,72.92,0,0,1,8.208-.456,65.026,65.026,0,0,1,8.74.608,44.253,44.253,0,0,1,8.36,1.748A19.35,19.35,0,0,1,82.44,8.612a12.361,12.361,0,0,1,3.952,5.4q1.216,3.116,0,7.828a35.46,35.46,0,0,1-4.864,10.412,12.978,12.978,0,0,1,5.32,4.788A14.2,14.2,0,0,1,89.356,43.8a9.92,9.92,0,0,1-1.824,6.612A11.881,11.881,0,0,1,84.188,53.3a26.1,26.1,0,0,1-4.332,2.052,35.644,35.644,0,0,1-5.4,1.444q-3.116.532-5.624.836t-5.928.456q-3.42.152-5.472.228H52.572a2.747,2.747,0,0,1-1.9-.76A2.488,2.488,0,0,1,49.912,55.732ZM61.921,14.388,62.909,28.3q.3-.076.836-.228a16.645,16.645,0,0,0,2.052-.76,15.465,15.465,0,0,0,2.584-1.368,7.909,7.909,0,0,0,2.052-2.356,6.957,6.957,0,0,0,.988-3.344,5.1,5.1,0,0,0-.988-3.192,4.369,4.369,0,0,0-2.356-1.824,13.578,13.578,0,0,0-2.812-.76,9.955,9.955,0,0,0-2.356-.152Zm1.292,22.268.912,12.312q.38-.076.912-.152.608-.152,2.052-.684a14.442,14.442,0,0,0,2.66-1.216A7.893,7.893,0,0,0,71.8,44.864a5.515,5.515,0,0,0,1.064-3.04,4.142,4.142,0,0,0-.988-2.812,5.249,5.249,0,0,0-2.432-1.6,13.251,13.251,0,0,0-2.812-.608A16.044,16.044,0,0,0,64.2,36.58ZM115.754,1.24A21.6,21.6,0,0,1,128.37,5.268a27.743,27.743,0,0,1,9.12,10.944,34.286,34.286,0,0,1,3.344,15.124,34.114,34.114,0,0,1-3.344,15.048,27.743,27.743,0,0,1-9.12,10.944,22.182,22.182,0,0,1-25.384-.076,27.619,27.619,0,0,1-9.2-10.868A34.28,34.28,0,0,1,90.446,31.26a34.4,34.4,0,0,1,1.976-11.628,30.094,30.094,0,0,1,5.32-9.576,25.559,25.559,0,0,1,8.132-6.384A21.261,21.261,0,0,1,115.754,1.24Zm10.564,30.02a26.6,26.6,0,0,0-1.444-8.892,15.74,15.74,0,0,0-3.8-6.46,7.515,7.515,0,0,0-5.32-2.356q-4.483,0-7.676,5.168a23.861,23.861,0,0,0-3.116,12.54,24.269,24.269,0,0,0,3.116,12.616q3.192,5.244,7.676,5.244,4.332,0,7.448-5.244A24.269,24.269,0,0,0,126.318,31.26Zm38.36,26.524a20.334,20.334,0,0,1-7.144-1.216,18.1,18.1,0,0,1-5.472-3.192,19.241,19.241,0,0,1-4.028-5.016A38.7,38.7,0,0,1,145.3,42.2a41.257,41.257,0,0,1-1.672-7.144q-.608-4.1-.836-7.524-.228-3.5-.228-7.752.077-4.332.228-7.3.152-3.04.456-6.688a3.116,3.116,0,0,1,.38-1.216,2.61,2.61,0,0,1,.912-.912,2.278,2.278,0,0,1,1.216-.38l9.8-.456a3.553,3.553,0,0,1,2.052.76,3.552,3.552,0,0,1,.76,2.052,205.71,205.71,0,0,0,0,28.652q.912,9.88,4.94,11.172,2.28.684,4.028-1.672a5.379,5.379,0,0,0,.684-1.444q1.063-3.648-.76-36.708a3.552,3.552,0,0,1,.76-2.052,3.553,3.553,0,0,1,2.052-.76l9.956.456a2.247,2.247,0,0,1,1.748.76,2.246,2.246,0,0,1,.76,1.748q1.14,22.268.684,34.5-.456,8.056-5.624,12.768A18.922,18.922,0,0,1,164.678,57.784Zm34.448-38.836H187.27a3.553,3.553,0,0,1-2.052-.76,3.379,3.379,0,0,1-.608-1.9l.3-10.108a2.486,2.486,0,0,1,.76-1.824,2.84,2.84,0,0,1,1.976-.76L228.082,2.38a3.553,3.553,0,0,1,2.052.76,2.577,2.577,0,0,1,.76,1.9V16.288a2.62,2.62,0,0,1-.836,1.9,2.489,2.489,0,0,1-1.824.76h-12.92l.76,36.632a1.973,1.973,0,0,1-.608,1.9,2.619,2.619,0,0,1-1.9.836h-11.7a2.606,2.606,0,0,1-2.736-2.736ZM249.261,54.82q-.837-14.136-1.444-49.324a3.4,3.4,0,0,1,.76-1.9,2.746,2.746,0,0,1,1.9-.76l28.956-.3a3.558,3.558,0,0,1,2.052.76,2.4,2.4,0,0,1,.608,2.052l-.152,4.94a2.4,2.4,0,0,1-.76,1.748,2.808,2.808,0,0,1-1.748.912l-16.264.152.608,10.868,11.248-.456a1.915,1.915,0,0,1,1.9.684,2.167,2.167,0,0,1,.912,1.824l.152,6.384a3.408,3.408,0,0,1-.76,1.9,2.749,2.749,0,0,1-1.9.76H264.537q.38,2.888.608,5.7.228,2.736.3,4.1.075,1.292.152,4.94.151,3.572.228,4.712a2.763,2.763,0,0,1-.608,1.9,3.014,3.014,0,0,1-2.052.912H251.921a2.917,2.917,0,0,1-1.9-.684A2.486,2.486,0,0,1,249.261,54.82Zm35.167-.152-.76-49.476a2.632,2.632,0,0,1,.684-1.824,2.78,2.78,0,0,1,1.824-.836q24.4-1.9,32.68,8.056,4.939,6,2.584,14.06a16.4,16.4,0,0,1-6.536,9.5,8.6,8.6,0,0,1-4.712,1.672,7.938,7.938,0,0,0,2.052,3.648,5.991,5.991,0,0,0,3.192,1.6,15.013,15.013,0,0,0,3.344.076,15.677,15.677,0,0,0,3.268-.684,1.705,1.705,0,0,1,1.748.38,2.16,2.16,0,0,1,.836,1.748L324.1,54.212a3.876,3.876,0,0,1-.912,1.748,2.749,2.749,0,0,1-1.9.76,27.773,27.773,0,0,1-6.612-1.216,22.271,22.271,0,0,1-5.168-2.356,28.16,28.16,0,0,1-3.724-3.116,18.356,18.356,0,0,1-2.66-3.268q-.988-1.6-1.672-2.888a14.561,14.561,0,0,1-.912-2.128l-.3-.836.3,13.3a2.58,2.58,0,0,1-.76,1.9,2.945,2.945,0,0,1-1.9.912l-10.564.3a2.577,2.577,0,0,1-1.9-.76A2.309,2.309,0,0,1,284.428,54.668ZM300.388,13.1V27.46q.379-.076.912-.152a19.86,19.86,0,0,0,2.128-.76,12.04,12.04,0,0,0,2.66-1.444,8.869,8.869,0,0,0,2.28-2.432,7.355,7.355,0,0,0,1.216-3.572,4.858,4.858,0,0,0-.76-3.268,4.057,4.057,0,0,0-2.2-1.824,13.59,13.59,0,0,0-2.812-.76,14.644,14.644,0,0,0-2.356-.228Zm28.9,41.876a109.238,109.238,0,0,1-1.9-17.252q-.533-11.1-.456-18.392.075-7.372.3-13.832a2.632,2.632,0,0,1,.684-1.824,2.378,2.378,0,0,1,1.824-.836l29.108-.3a3.558,3.558,0,0,1,2.052.76,2.4,2.4,0,0,1,.608,2.052l-.152,4.864a2.49,2.49,0,0,1-.76,1.824,2.808,2.808,0,0,1-1.748.912l-16.34.152.684,10.868,11.7.38a2.881,2.881,0,0,1,2.66,2.66v2.964a2.53,2.53,0,0,1-.38,1.368,3.437,3.437,0,0,1-.988.912,3.052,3.052,0,0,1-1.292.456L342.9,33.16l1.52,12.008,17.4-.912a2.6,2.6,0,0,1,1.9.608,2.742,2.742,0,0,1,.988,2.052v7.9a2.62,2.62,0,0,1-.836,1.9,2.578,2.578,0,0,1-1.9.76L331.8,57.024A2.409,2.409,0,0,1,329.292,54.972ZM398.335,5.8q2.736,17.708,12.616,49.172a2.505,2.505,0,0,1-.3,2.356,2.478,2.478,0,0,1-2.052,1.14l-11.552.76a2.717,2.717,0,0,1-1.748-.608,2.8,2.8,0,0,1-.912-1.748l-1.064-6.916-10.64.076-1.064,5.852a3.2,3.2,0,0,1-1.064,1.6,1.948,1.948,0,0,1-1.672.456l-11.856-.456a2.277,2.277,0,0,1-2.052-1.064,2.187,2.187,0,0,1-.3-2.2l14.06-49.02a2.828,2.828,0,0,1,2.736-1.9l14.364.152a2.469,2.469,0,0,1,1.14.456,2.1,2.1,0,0,1,.912.836A2.022,2.022,0,0,1,398.335,5.8Zm-9.8,13.452-3.952,21.2q2.127-.152,7.3-.152Zm24.514,36.176L412.589,5.04a2.568,2.568,0,0,1,.684-1.9,2.489,2.489,0,0,1,1.824-.76l9.956-.152a2.577,2.577,0,0,1,1.9.76,3.358,3.358,0,0,1,.836,2.052l-.684,13.3L444.357,2.684a1.958,1.958,0,0,1,2.052-.608,2.358,2.358,0,0,1,1.9,1.216l6,9.348a2.913,2.913,0,0,1,.3,2.052,2.287,2.287,0,0,1-1.216,1.6L434.249,28.3a14.2,14.2,0,0,0,3.42,5.4,18.288,18.288,0,0,0,5.548,3.572,50.384,50.384,0,0,0,5.548,1.976,39.372,39.372,0,0,0,5.092,1.064,2.4,2.4,0,0,1,1.9,1.064,2.635,2.635,0,0,1,.3,2.2l-3.5,12.388a2.422,2.422,0,0,1-.988,1.444,2.185,2.185,0,0,1-1.672.38A21.26,21.26,0,0,1,437.9,53.072a32.755,32.755,0,0,1-4.1-4.256,35.652,35.652,0,0,1-3.04-4.56q-1.14-2.2-1.976-4.18-.836-2.052-1.216-3.192a9.217,9.217,0,0,1-.3-1.52q0-.38.532,6.612.609,6.916,1.064,13a2.59,2.59,0,0,1-.608,1.9,2.879,2.879,0,0,1-1.9.912l-10.564.38a2.075,2.075,0,0,1-1.9-.836A2.192,2.192,0,0,1,413.045,55.428Zm77.639-33.82a22.652,22.652,0,0,0-6.612-5.016,9.96,9.96,0,0,0-6.08-1.292Q471.3,16.82,489.24,27.156a28.627,28.627,0,0,1,9.12,8.436,17.461,17.461,0,0,1,3.572,10.032,10.522,10.522,0,0,1-2.964,7.524,16.806,16.806,0,0,1-7.752,4.484,32.339,32.339,0,0,1-10.336.988,35.367,35.367,0,0,1-12.236-2.66,27.8,27.8,0,0,1-9.88-6.992A2.246,2.246,0,0,1,458,47.22a2.746,2.746,0,0,1,.76-1.9l6.156-6.764a2.4,2.4,0,0,1,1.748-.912,2.238,2.238,0,0,1,1.9.608q1.368,1.14,2.736,2.2a39.485,39.485,0,0,0,3.344,2.128,20.811,20.811,0,0,0,3.724,1.672,8.9,8.9,0,0,0,3.42.38,4.5,4.5,0,0,0,2.888-1.52A2.009,2.009,0,0,0,484.6,40a16.1,16.1,0,0,0-5.016-3.268q-3.5-1.748-7.448-3.648a46.193,46.193,0,0,1-7.9-5.092,20.455,20.455,0,0,1-5.624-6.84q-3.115-6.688-.912-11.1t8.132-6.384a33.6,33.6,0,0,1,14.06-1.292A32.366,32.366,0,0,1,486.276,3.6a26.322,26.322,0,0,1,5.092,1.9,22,22,0,0,1,3.952,2.356,20.749,20.749,0,0,1,2.964,2.356,23.924,23.924,0,0,1,1.9,2.128,2.606,2.606,0,0,1,.608,1.9,2.569,2.569,0,0,1-.76,1.672l-5.4,5.7a2.91,2.91,0,0,1-2.052.988A2.184,2.184,0,0,1,490.684,21.608ZM543.848,1.24a21.6,21.6,0,0,1,12.616,4.028,27.759,27.759,0,0,1,9.12,10.944,34.285,34.285,0,0,1,3.344,15.124,34.114,34.114,0,0,1-3.344,15.048,27.759,27.759,0,0,1-9.12,10.944,22.182,22.182,0,0,1-25.384-.076,27.611,27.611,0,0,1-9.2-10.868A34.272,34.272,0,0,1,518.54,31.26a34.38,34.38,0,0,1,1.976-11.628,30.078,30.078,0,0,1,5.32-9.576,25.549,25.549,0,0,1,8.132-6.384A21.258,21.258,0,0,1,543.848,1.24Zm10.564,30.02a26.628,26.628,0,0,0-1.444-8.892,15.741,15.741,0,0,0-3.8-6.46,7.517,7.517,0,0,0-5.32-2.356q-4.485,0-7.676,5.168a23.852,23.852,0,0,0-3.116,12.54,24.26,24.26,0,0,0,3.116,12.616q3.192,5.244,7.676,5.244,4.332,0,7.448-5.244A24.27,24.27,0,0,0,554.412,31.26Zm18.22,23.56q-.837-14.136-1.444-49.324a3.4,3.4,0,0,1,.76-1.9,2.746,2.746,0,0,1,1.9-.76l28.956-.3a3.558,3.558,0,0,1,2.052.76,2.4,2.4,0,0,1,.608,2.052l-.152,4.94a2.4,2.4,0,0,1-.76,1.748,2.808,2.808,0,0,1-1.748.912L586.54,13.1l.608,10.868,11.248-.456a1.915,1.915,0,0,1,1.9.684,2.167,2.167,0,0,1,.912,1.824l.152,6.384a3.407,3.407,0,0,1-.76,1.9,2.749,2.749,0,0,1-1.9.76H587.908q.379,2.888.608,5.7.228,2.736.3,4.1.075,1.292.152,4.94.152,3.572.228,4.712a2.762,2.762,0,0,1-.608,1.9,3.014,3.014,0,0,1-2.052.912H575.292a2.917,2.917,0,0,1-1.9-.684A2.486,2.486,0,0,1,572.632,54.82Zm50.523.3L623,5.5a2.486,2.486,0,0,1,.76-1.824,2.462,2.462,0,0,1,1.9-.836l11.324-.152a3.2,3.2,0,0,1,3.268,2.2Q650.364,31.032,656.519,40.3l-.836-34.96a2.151,2.151,0,0,1,.684-1.9,3.4,3.4,0,0,1,1.9-.76l8.816-.152a2.461,2.461,0,0,1,1.9.836,2.486,2.486,0,0,1,.76,1.824L668.679,55.58a2.62,2.62,0,0,1-.836,1.9,2.382,2.382,0,0,1-1.824.836L653.4,58.164a2.986,2.986,0,0,1-2.736-1.52q-12.16-20.52-15.048-29.184l2.888,27.968a2.528,2.528,0,0,1-.684,2.2,3.151,3.151,0,0,1-2.052.836l-10.108-.608a2.784,2.784,0,0,1-1.824-.836A2.919,2.919,0,0,1,623.155,55.124ZM705.006,5.8q2.736,17.708,12.616,49.172a2.5,2.5,0,0,1-.3,2.356,2.475,2.475,0,0,1-2.052,1.14l-11.552.76a2.721,2.721,0,0,1-1.748-.608,2.815,2.815,0,0,1-.912-1.748l-1.064-6.916-10.64.076-1.064,5.852a3.183,3.183,0,0,1-1.064,1.6,1.947,1.947,0,0,1-1.672.456l-11.856-.456a2.277,2.277,0,0,1-2.052-1.064,2.19,2.19,0,0,1-.3-2.2L685.4,5.192a2.83,2.83,0,0,1,2.736-1.9l14.364.152a2.46,2.46,0,0,1,1.14.456,2.087,2.087,0,0,1,.912.836A2.006,2.006,0,0,1,705.006,5.8Zm-9.8,13.452-3.952,21.2q2.129-.152,7.3-.152Zm31.768-.3H715.114a3.553,3.553,0,0,1-2.052-.76,3.372,3.372,0,0,1-.608-1.9l.3-10.108a2.486,2.486,0,0,1,.76-1.824,2.84,2.84,0,0,1,1.976-.76L755.926,2.38a3.558,3.558,0,0,1,2.052.76,2.58,2.58,0,0,1,.76,1.9V16.288a2.62,2.62,0,0,1-.836,1.9,2.488,2.488,0,0,1-1.824.76h-12.92l.76,36.632a1.973,1.973,0,0,1-.608,1.9,2.621,2.621,0,0,1-1.9.836h-11.7a2.606,2.606,0,0,1-2.736-2.736Zm54.614,38.836a20.335,20.335,0,0,1-7.144-1.216,18.1,18.1,0,0,1-5.472-3.192,19.24,19.24,0,0,1-4.028-5.016A38.705,38.705,0,0,1,762.2,42.2a41.261,41.261,0,0,1-1.672-7.144q-.607-4.1-.836-7.524-.228-3.5-.228-7.752.076-4.332.228-7.3.152-3.04.456-6.688a3.117,3.117,0,0,1,.38-1.216,2.61,2.61,0,0,1,.912-.912,2.279,2.279,0,0,1,1.216-.38l9.8-.456a3.553,3.553,0,0,1,2.052.76,3.552,3.552,0,0,1,.76,2.052,205.71,205.71,0,0,0,0,28.652q.912,9.88,4.94,11.172,2.28.684,4.028-1.672a5.38,5.38,0,0,0,.684-1.444q1.064-3.648-.76-36.708a3.553,3.553,0,0,1,.76-2.052,3.553,3.553,0,0,1,2.052-.76l9.956.456a2.247,2.247,0,0,1,1.748.76,2.246,2.246,0,0,1,.76,1.748q1.14,22.268.684,34.5-.456,8.056-5.624,12.768A18.922,18.922,0,0,1,781.584,57.784Zm22.82-3.116-.76-49.476a2.633,2.633,0,0,1,.684-1.824,2.784,2.784,0,0,1,1.824-.836q24.4-1.9,32.68,8.056,4.941,6,2.584,14.06a16.4,16.4,0,0,1-6.536,9.5,8.6,8.6,0,0,1-4.712,1.672,7.938,7.938,0,0,0,2.052,3.648,5.991,5.991,0,0,0,3.192,1.6,15.014,15.014,0,0,0,3.344.076,15.664,15.664,0,0,0,3.268-.684,1.7,1.7,0,0,1,1.748.38,2.157,2.157,0,0,1,.836,1.748l-.532,11.628a3.876,3.876,0,0,1-.912,1.748,2.745,2.745,0,0,1-1.9.76,27.792,27.792,0,0,1-6.612-1.216,22.31,22.31,0,0,1-5.168-2.356,28.223,28.223,0,0,1-3.724-3.116,18.443,18.443,0,0,1-2.66-3.268q-.987-1.6-1.672-2.888a14.567,14.567,0,0,1-.912-2.128l-.3-.836.3,13.3a2.577,2.577,0,0,1-.76,1.9,2.942,2.942,0,0,1-1.9.912l-10.564.3a2.578,2.578,0,0,1-1.9-.76A2.312,2.312,0,0,1,804.4,54.668ZM820.364,13.1V27.46q.381-.076.912-.152a19.7,19.7,0,0,0,2.128-.76,12.017,12.017,0,0,0,2.66-1.444,8.839,8.839,0,0,0,2.28-2.432A7.334,7.334,0,0,0,829.56,19.1a4.852,4.852,0,0,0-.76-3.268,4.054,4.054,0,0,0-2.2-1.824,13.572,13.572,0,0,0-2.812-.76,14.634,14.634,0,0,0-2.356-.228Zm28.9,41.876a109.361,109.361,0,0,1-1.9-17.252q-.532-11.1-.456-18.392.077-7.372.3-13.832a2.632,2.632,0,0,1,.684-1.824,2.381,2.381,0,0,1,1.824-.836l29.108-.3a3.553,3.553,0,0,1,2.052.76,2.4,2.4,0,0,1,.608,2.052l-.152,4.864a2.487,2.487,0,0,1-.76,1.824,2.808,2.808,0,0,1-1.748.912l-16.34.152.684,10.868,11.7.38A2.881,2.881,0,0,1,877.54,27v2.964a2.53,2.53,0,0,1-.38,1.368,3.424,3.424,0,0,1-.988.912,3.046,3.046,0,0,1-1.292.456l-12.008.456,1.52,12.008,17.4-.912a2.593,2.593,0,0,1,1.9.608,2.739,2.739,0,0,1,.988,2.052v7.9a2.62,2.62,0,0,1-.836,1.9,2.578,2.578,0,0,1-1.9.76l-30.172-.456A2.41,2.41,0,0,1,849.268,54.972Z" fill="#fff"/>
  </g>
</svg>
