<svg xmlns="http://www.w3.org/2000/svg" width="1095.034" height="944.443" viewBox="0 0 1095.034 944.443">
  <g id="Group_11" data-name="Group 11" transform="translate(72.034 0.982)">
    <path id="Path_378" data-name="Path 378" d="M969.219,56.736H364.144a53.821,53.821,0,0,0-53.782,53.735v238.3a53.821,53.821,0,0,0,53.782,53.735H969.219A53.821,53.821,0,0,0,1023,348.775v-238.3a53.821,53.821,0,0,0-53.781-53.735Zm40.691,292.039a40.718,40.718,0,0,1-40.691,40.654H364.144a40.715,40.715,0,0,1-40.689-40.654v-238.3a40.715,40.715,0,0,1,40.689-40.654H969.219a40.718,40.718,0,0,1,40.691,40.654Z" fill="#010101"/>
    <path id="Path_379" data-name="Path 379" d="M-67.847,580.46a125.473,125.473,0,0,0,16.9-18.854,125.082,125.082,0,0,0,9.618-15.448c2.456-3.9,4.612-7.265,6.357-9.971,8.119-12.606,10.844-16.318,15.007-20.16a55.065,55.065,0,0,1,6.139-4.9,32.127,32.127,0,0,0,6.188-2.853,34.438,34.438,0,0,0,9.755-8.96c4.749-6.089,10.592-11.266,15.379-17.323,13.213-16.716,6.494-7.019,29.479-36.193,12.266-15.569,23.706-31.121,46.592-62.225a133.628,133.628,0,0,0,8.667-13.256,133.723,133.723,0,0,0,6.116-12.053c3.661-8.134,2.129-3.739,26.245-52.549,8.984-18.182,11.484-23.424,14.559-30.257,3.879-8.637,6.314-14.049,9.268-21.915,4.984-13.267,4.722-15.568,9.367-26.966a131.626,131.626,0,0,1,10.138-20.958c3.671-5.986,4.645-6.276,15-19.882,12.3-16.159,14.148-19.963,15.045-21.964,3.633-8.112,3.841-13.639,5.187-22.33,1.762-11.392,5.438-22.773,12.8-45.53,11.129-34.406,12.973-29.36,15.506-41.791.569-2.8,1.882-9.938,7.539-16.017a29.37,29.37,0,0,1,8.491-6.177,141.653,141.653,0,0,1,28.516-10.731c11.675-3.088,20.391-5.827,35.994-10.736C330.545,7.773,338.954,5,351.057,2.711c7.342-1.388,11.358-1.706,15.4-1.607,3.808.093,9.624.618,20.922,4.3,6.045,1.973,7.561,2.859,30.047,12.693,12.009,5.253,18.044,7.883,19.609,8.058,0,0,9.049,1.044,15.483,4.876a10.849,10.849,0,0,1,2.549,2.072,12.137,12.137,0,0,1,2.758,5.822,21.331,21.331,0,0,1-1.62,13.48c-4.015,8.4-12.255,11.25-13.885,11.818-3.8,1.317-7.545,1.192-14.882.886a135.037,135.037,0,0,1-19.477-2.258c-9.717-1.848-12.19-3.34-20.736-4.051-1.214-.1-3.8-.175-8.978-.317-8.655-.235-13.918-.372-20.517,0a71.343,71.343,0,0,0-9.733.885,45.433,45.433,0,0,0-17.814,7.976,46.875,46.875,0,0,0-11.347,12.135,49.776,49.776,0,0,0-6.363,14.994c-1.143,4.668-1.236,7.9-1.269,21.86-.022,10.189-.038,15.284,0,16.787.388,15.842-.126,34.707,0,166.661.011,13.048.038,32.985.087,57.578,2.052.323,5.121.754,8.858,1.1a149.167,149.167,0,0,0,15.828.618c8.9-.076,17.8.4,26.7.536,33.073.5,33.134,1.35,46.188.743,3.983-.186,1.767-.164,24.516-2.011s19.034-1.394,38.79-2.963c12.551-1,22.809-1.881,37.111-1.826,6.921.027,13.661.268,21.562,3.231,4.229,1.585,10.537,4.039,15.8,10.364a31.832,31.832,0,0,1,6.38,12.617c.18.721,3.261,14-4.322,25.839-1.784,2.783-6.139,8.588-24.183,15.8-12.381,4.948-14.34,3.816-41.613,10.627-16.7,4.171-23.712,6.527-38.824,8.976-6.007.973-5.017.618-14.81,2.023-19.22,2.749-21.693,3.919-47.276,8.374-18.837,3.28-22.06,3.439-29,6.33-3.414,1.422-8.207,3.958-17.787,9.031-8.343,4.417-11.631,6.418-15.16,9.145A72.008,72.008,0,0,0,310,485.414c-9.159,10.206-18.673,20.09-27.69,30.421-8.267,9.474-5.011,5.335-25.008,27.524-14.269,15.831-21.4,23.741-28.735,32.071,0,0-20.227,22.976-38.861,34.947a24.9,24.9,0,0,1-8.24,3.756c-2.56.568-3.715.306-12.386.721-4.4.214-5.089.323-5.959.585a17.027,17.027,0,0,0-7.889,5.587c-4.437,5.062-3.857,2.143-18.088,14.694,0,0-8.972,7.91-17.288,16.508-17.076,17.652-34.217,42.043-45.772,58.633-11.353,16.3-22.377,32.149-39.19,57.185C18.756,792.076,10.478,804.431.16,821.07c-6.9,11.13-16.539,26.72-28.182,47.821-5.438,9.861-12.036,22.5-25.233,47.777-5.827,11.167-10.6,20.357-13.771,26.484-8.726.246,7.636.063-1.09.309-1.308-37.358,1.308-75.2,0-112.556-1.926-49.509-1.992-97.606-3.917-147.116,3.436-33.924,1.1-68.774,4.536-102.7,8.251-.35-8.583-.276-.327-.626Z" fill="#ed2271"/>
    <path id="Path_380" data-name="Path 380" d="M-68.284,579.388a125.019,125.019,0,0,0,16.463-18.422,124.509,124.509,0,0,0,9.536-15.317c2.506-3.979,4.661-7.347,6.407-10.053,8.305-12.9,11-16.514,15.182-20.373a56.187,56.187,0,0,1,6.259-5l.268-.137a30.825,30.825,0,0,0,5.975-2.755,33.259,33.259,0,0,0,9.356-8.56c2.55-3.274,5.312-6.2,7.988-9.036,2.55-2.7,5.181-5.494,7.5-8.429,5.652-7.145,7.621-9.43,9.908-12.076,3-3.465,6.4-7.4,19.57-24.118,12.255-15.552,23.723-31.142,46.57-62.191a133.138,133.138,0,0,0,8.6-13.153,131.134,131.134,0,0,0,6-11.813c1.608-3.58,2.216-4.761,4.229-8.658,2.829-5.494,8.1-15.722,22.1-44.071,9.132-18.476,11.528-23.522,14.543-30.224,3.923-8.735,6.292-14.005,9.241-21.849,2.33-6.2,3.523-10.053,4.579-13.448a143.19,143.19,0,0,1,4.8-13.545,132.076,132.076,0,0,1,10.215-21.117,73.584,73.584,0,0,1,6.363-8.818c1.92-2.41,4.552-5.7,8.7-11.151,12.561-16.5,14.154-20.046,14.914-21.751,2.9-6.472,3.584-11.348,4.443-17.515.2-1.426.41-2.93.656-4.537,1.773-11.474,5.466-22.9,12.83-45.666,6.215-19.209,9.531-26.146,11.725-30.738A38.148,38.148,0,0,0,240.4,53.9l.055-.262c.618-3.039,2.057-10.157,7.758-16.279a30.452,30.452,0,0,1,8.787-6.4,140.677,140.677,0,0,1,28.63-10.791c11.73-3.1,20.325-5.805,35.929-10.709l2.019-.634a216.211,216.211,0,0,1,27.274-7.177C358.7.169,362.65-.055,366.48.027c3.977.1,9.985.683,21.228,4.357,4.623,1.509,6.521,2.345,17.064,6.986,3.359,1.481,7.594,3.345,13.082,5.745,10.756,4.7,17.863,7.812,19.291,7.976,0,0,9.2,1.017,15.921,5.018a11.8,11.8,0,0,1,2.8,2.285,13.331,13.331,0,0,1,3.015,6.308,22.354,22.354,0,0,1-1.7,14.185,24.627,24.627,0,0,1-14.515,12.376c-4.081,1.41-8.059,1.241-15.281.946a135.629,135.629,0,0,1-19.635-2.28c-3.781-.722-6.473-1.383-8.842-1.968A64.827,64.827,0,0,0,387.128,59.9c-1.166-.1-3.677-.164-8.688-.306h-.23c-8.289-.235-13.76-.383-20.424-.011a72.269,72.269,0,0,0-9.58.864,44.029,44.029,0,0,0-17.382,7.784,45.952,45.952,0,0,0-11.079,11.851,48.807,48.807,0,0,0-6.22,14.661c-1.106,4.5-1.2,7.626-1.237,21.6v.388c-.022,9.922-.038,14.9,0,16.372.186,7.664.164,15.782.1,37.484-.06,22.8-.17,60.967-.1,129.2.011,12.885.033,32.482.088,56.644,2.576.382,5.219.705,7.873.956a146.348,146.348,0,0,0,15.494.613h.224c5.531-.055,11.128.12,16.545.278,3.392.1,6.784.2,10.176.252,14.6.224,22.618.5,28.472.711,7.134.251,10.4.366,17.65.032,1.948-.093,2.4-.131,5.072-.371,2.763-.246,7.884-.706,19.406-1.64,12.326-1.006,16.889-1.329,21.616-1.668,4-.284,8.119-.579,17.18-1.3l1.92-.153c11.626-.929,21.638-1.716,35.283-1.678,6.992.027,13.93.3,21.945,3.3,4,1.5,10.691,4,16.255,10.687a32.908,32.908,0,0,1,6.6,13.048c.142.58,3.441,14.344-4.459,26.693-2.347,3.668-7.463,9.336-24.7,16.224-7.522,3.007-11.341,3.816-18.946,5.428-5.034,1.066-11.933,2.531-22.8,5.243-4.36,1.087-8.053,2.05-11.407,2.93a261.69,261.69,0,0,1-27.5,6.067c-3.113.5-4.36.656-6.177.875-1.7.208-3.906.47-8.649,1.153-11.178,1.6-16.715,2.668-24.38,4.155-5.427,1.05-12.184,2.356-22.869,4.215-3.463.6-6.4,1.1-8.918,1.53-11.265,1.908-14.3,2.422-19.844,4.734-3.354,1.394-8.114,3.914-17.6,8.938-8.228,4.357-11.6,6.385-15.1,9.1a72.192,72.192,0,0,0-9.887,9.326c-3.851,4.291-7.741,8.5-11.631,12.709-5.329,5.762-10.833,11.726-16.08,17.728-3.983,4.564-5.34,6.024-7.813,8.681-2.714,2.919-6.817,7.33-17.207,18.853-14.23,15.787-21.375,23.714-28.723,32.061-.2.23-20.539,23.227-39.086,35.149a27.269,27.269,0,0,1-8.6,3.9,26.632,26.632,0,0,1-5.586.487c-1.6.043-3.775.1-6.987.257-4.437.213-4.979.328-5.69.541a15.736,15.736,0,0,0-7.26,5.122,21.027,21.027,0,0,1-5.126,4.482c-2.172,1.449-5.461,3.646-13.18,10.452-.088.077-9.039,7.987-17.229,16.454-16.216,16.76-32.072,38.981-45.662,58.5C64.172,727,52.994,743.053,35.8,768.653c-16.764,24.97-24.6,36.7-34.709,52.991-6.489,10.463-16.293,26.272-28.155,47.771-5.438,9.851-12.047,22.522-25.222,47.761-5.827,11.162-12.272,18.841-15.44,24.963ZM-70.03,942.139l2.309-.058c3.168-6.117,7.824-15.093,13.475-25.917,13.18-25.249,19.795-37.926,25.244-47.8C-17.118,846.817-7.292,830.975-.792,820.5,9.335,804.168,17.18,792.432,33.96,767.439c17.2-25.616,28.384-41.671,39.2-57.2,13.639-19.586,29.555-41.889,45.881-58.769,8.25-8.534,17.261-16.493,17.354-16.569,7.835-6.91,11.194-9.151,13.416-10.632a18.267,18.267,0,0,0,4.574-3.964,17.959,17.959,0,0,1,8.392-5.914c.98-.3,1.724-.416,6.221-.634,3.228-.154,5.422-.219,7.03-.263a24.821,24.821,0,0,0,5.176-.437,25.375,25.375,0,0,0,7.889-3.608c18.29-11.753,38.43-34.526,38.632-34.75,7.359-8.358,14.5-16.285,28.74-32.083,10.4-11.539,14.509-15.956,17.234-18.881,2.533-2.728,3.808-4.094,7.764-8.626,5.263-6.029,10.783-12,16.118-17.777,3.879-4.2,7.763-8.4,11.582-12.655a73.379,73.379,0,0,1,10.2-9.626c3.627-2.8,7.063-4.876,15.319-9.249,9.64-5.106,14.433-7.642,17.88-9.074,5.783-2.411,9.153-2.98,20.319-4.871,2.523-.426,5.455-.924,8.913-1.525,10.663-1.859,17.409-3.16,22.826-4.209,7.692-1.487,13.256-2.564,24.483-4.171,4.771-.684,6.986-.951,8.7-1.159,1.794-.213,3.025-.366,6.089-.858a258.366,258.366,0,0,0,27.3-6.03c3.36-.874,7.064-1.842,11.43-2.935,10.914-2.723,17.83-4.193,22.88-5.259,7.72-1.634,11.243-2.383,18.591-5.319,16.648-6.653,21.479-11.96,23.668-15.377,7.4-11.562,4.317-24.451,4.18-24.993a30.767,30.767,0,0,0-6.155-12.179c-5.192-6.237-11.55-8.615-15.347-10.036-7.687-2.881-14.143-3.138-21.184-3.16-13.508-.043-23.52.749-35.1,1.668l-1.921.153c-9.065.721-13.191,1.016-17.2,1.3-4.722.338-9.28.661-21.6,1.661-11.511.935-16.627,1.394-19.39,1.64-2.719.241-3.179.285-5.165.378a176.375,176.375,0,0,1-17.83-.028c-5.843-.208-13.842-.492-28.428-.71-3.4-.05-6.806-.154-10.209-.252-5.4-.158-10.981-.328-16.463-.279h-.224a147.916,147.916,0,0,1-15.719-.617c-3.014-.285-6.018-.656-8.929-1.116l-.919-.142v-.929c-.054-24.588-.076-44.53-.093-57.578-.065-68.243.038-106.41.1-129.21.06-21.68.082-29.792-.1-37.424-.038-1.5-.022-6.494,0-16.432v-.382c.033-14.2.142-17.389,1.3-22.118A51.14,51.14,0,0,1,317.9,78.9a48.034,48.034,0,0,1,11.61-12.42,46.281,46.281,0,0,1,18.246-8.167,72.6,72.6,0,0,1,9.843-.9c6.8-.383,12.31-.23,20.653,0h.23c5.05.148,7.583.213,8.808.317A66.927,66.927,0,0,1,399.4,59.852c2.347.579,5,1.235,8.726,1.946a133.587,133.587,0,0,0,19.319,2.241c7.479.317,10.942.4,14.477-.825a22.474,22.474,0,0,0,13.262-11.255,20.14,20.14,0,0,0,1.537-12.775,11.16,11.16,0,0,0-2.5-5.324,9.777,9.777,0,0,0-2.3-1.87c-6.155-3.673-14.958-4.717-15.046-4.728-1.69-.191-7-2.493-19.92-8.145-5.488-2.4-9.728-4.269-13.087-5.745-10.455-4.6-12.343-5.434-16.862-6.91-10.975-3.581-16.78-4.154-20.61-4.247-3.687-.093-7.506.142-15.166,1.585a215.088,215.088,0,0,0-27.022,7.117l-1.893.6c-15.762,4.953-24.374,7.664-36.044,10.752a138.375,138.375,0,0,0-28.291,10.649,28.032,28.032,0,0,0-8.19,5.948c-5.28,5.669-6.637,12.365-7.217,15.229l-.054.262A40.407,40.407,0,0,1,238.6,65.816c-2.172,4.537-5.449,11.4-11.6,30.437-7.337,22.691-11.013,34.061-12.759,45.361-.246,1.6-.454,3.083-.651,4.5-.886,6.341-1.586,11.348-4.612,18.105-.859,1.919-2.456,5.483-15.171,22.177-4.164,5.467-6.8,8.774-8.727,11.19a71.12,71.12,0,0,0-6.21,8.6,130.4,130.4,0,0,0-10.056,20.8c-2.445,6-3.507,9.419-4.732,13.371-1.067,3.428-2.271,7.314-4.623,13.574-2.977,7.909-5.351,13.2-9.3,21.975-3.025,6.729-5.427,11.785-14.575,30.3-14.011,28.36-19.286,38.6-22.12,44.1-1.991,3.865-2.587,5.03-4.114,8.413a134.538,134.538,0,0,1-6.16,12.147,135.3,135.3,0,0,1-8.738,13.365C71.585,415.3,60.112,430.892,47.835,446.477c-13.2,16.755-16.616,20.707-19.63,24.194-2.271,2.624-4.229,4.893-9.848,12-2.38,3.018-5.05,5.844-7.627,8.577-2.637,2.793-5.367,5.685-7.747,8.741A35.5,35.5,0,0,1-7.073,509.21a33.039,33.039,0,0,1-6.254,2.9,54.081,54.081,0,0,0-5.892,4.723c-4.016,3.706-6.647,7.248-14.832,19.952-1.74,2.7-3.9,6.068-6.352,9.96a126.108,126.108,0,0,1-9.657,15.514,126.95,126.95,0,0,1-17.048,19.017l-.3.268Z" fill="#010101" stroke="#000" stroke-width="2"/>
    <path id="Path_381" data-name="Path 381" d="M270.494,484.25l-.022-2.181c3.9-.038,7.873-.18,11.8-.426l.717-.044c8.2-.514,14.115-.886,20.834-2.373a81.7,81.7,0,0,0,20.2-7.428l1.012,1.935a83.933,83.933,0,0,1-20.741,7.625c-6.882,1.52-12.873,1.9-21.168,2.416l-.716.044c-3.961.252-7.972.394-11.911.432Z" fill="#231f20" stroke="#000" stroke-width="1"/>
    <path id="Path_382" data-name="Path 382" d="M100.582,598.045c-2.21,0-4.5-.093-6.9-.29a95.7,95.7,0,0,1-35-10.173,104.719,104.719,0,0,1-26.393-19.854A107.357,107.357,0,0,1,20.348,553l1.811-1.219a105.125,105.125,0,0,0,11.692,14.431,102.381,102.381,0,0,0,25.818,19.428,93.381,93.381,0,0,0,34.178,9.944c12.743,1.044,22.186-1.006,34.14-3.6,13.158-2.859,22.295-6.4,33.861-10.867a374.151,374.151,0,0,0,43.791-20.335c14.28-7.779,23.909-14.224,36.11-22.38,18.448-12.343,29.478-19.723,41.613-31.645.919-.907,1.822-1.809,2.823-2.81,2.063-2.072,4.634-4.657,8.634-8.478,7.249-6.932,14.734-13.688,22.24-20.078l1.417,1.661c-7.474,6.358-14.92,13.087-22.147,19.991-3.978,3.8-6.538,6.374-8.6,8.44-1,1.006-1.91,1.919-2.834,2.826-12.283,12.065-23.379,19.488-41.756,31.788-12.414,8.3-22.082,14.776-36.449,22.6a375.9,375.9,0,0,1-44.048,20.455c-11.654,4.51-20.861,8.074-34.184,10.966-9.9,2.153-18.1,3.936-27.875,3.936Z" fill="#231f20" stroke="#000" stroke-width="1"/>
    <path id="Path_383" data-name="Path 383" d="M160.491,614.543c-2.325-.52-5.652-1.252-9.667-2.083-12.622-2.618-15.281-2.771-17.875-2.662a38.69,38.69,0,0,0-10.865,1.99l-.684-2.072a40.815,40.815,0,0,1,11.478-2.1c2.758-.088,5.526.043,18.389,2.706,4.027.83,7.369,1.563,9.7,2.088l-.476,2.132Z" fill="#231f20" stroke="#000" stroke-width="1"/>
    <path id="Path_384" data-name="Path 384" d="M503.034,420.369a4.019,4.019,0,0,1-2.32-.688c-1.74-1.176-2.057-3.313-2.232-4.467-.5-3.34.492-5.838,1.45-8.254.24-.612.492-1.235.716-1.88,2.134-6.106,1.467-11.879,1.067-15.323a76.625,76.625,0,0,0-1.723-10.424l-.137-.47a11.367,11.367,0,0,1-.454-6.555l1.05.29-1.05-.29a10.061,10.061,0,0,1,2.741-4.537c2.063-1.951,4.1-2.236,11.566-3.023,5.477-.579,6.39-.634,7.452-.694.793-.049,1.663-.1,4.727-.4l1.143-.109c3.983-.394,5.329-.531,7.375.12,3.07.973,4.968,2.87,6.981,4.887a25.756,25.756,0,0,1,6.26,8.872c2.555,6.336,1.449,11.955.722,15.678-.837,4.264-1.625,8.287-4.892,11.687-1.772,1.842-5.246,3.313-11.544,5.98-3.184,1.345-6.357,2.6-9.711,3.827a56.112,56.112,0,0,1-7.824,2.476,39.688,39.688,0,0,0-5.361,1.651l-.832.306a16.6,16.6,0,0,1-5.176,1.361Zm28.422-54.987c-.957,0-2.2.121-4.2.317l-1.149.115c-3.119.3-4,.356-4.81.4-1.034.06-1.925.115-7.347.689-7.26.765-8.814,1.038-10.291,2.438a7.789,7.789,0,0,0-2.14,3.531,9.341,9.341,0,0,0,.443,5.373l.137.487a78.547,78.547,0,0,1,1.789,10.763c.422,3.63,1.122,9.714-1.176,16.3-.235.672-.492,1.323-.75,1.968-.93,2.345-1.734,4.373-1.318,7.133.131.875.35,2.34,1.291,2.98,1.018.683,2.593.158,5.52-.913l.838-.306a40.408,40.408,0,0,1,5.613-1.728,54.678,54.678,0,0,0,7.561-2.4c3.316-1.213,6.462-2.449,9.607-3.782,5.838-2.471,9.362-3.958,10.822-5.483,2.818-2.936,3.513-6.483,4.322-10.589.679-3.471,1.708-8.708-.6-14.447a23.737,23.737,0,0,0-5.778-8.14c-1.9-1.9-3.534-3.542-6.1-4.351a7,7,0,0,0-2.3-.345Z" fill="#231f20"/>
    <path id="Path_385" data-name="Path 385" d="M335.13,360.184c-7.752-.328-15.653-.886-23.471-1.657-9.782-.967-14.674-1.448-21.179-2.864-7.555-1.64-12.715-3.548-22.076-7.008l-1.685-.623c-6.067-2.241-12.244-4.871-24.543-10.108-5.335-2.274-9.679-4.154-12.683-5.466l.876-1.995c3,1.306,7.337,3.187,12.572,5.417,12.354,5.259,18.515,7.883,24.533,10.107l1.685.624c9.268,3.427,14.373,5.313,21.781,6.92,6.379,1.389,11.232,1.864,20.894,2.821,7.818.771,15.675,1.323,23.389,1.651l-.093,2.181Z" fill="#231f20" stroke="#000" stroke-width="1"/>
    <path id="Path_386" data-name="Path 386" d="M276.583,351.591a260.152,260.152,0,0,1-21.452-17c-7.37-6.51-12.906-12.162-17.792-17.153-4.317-4.412-8.6-8.96-12.71-13.524l1.62-1.46c4.1,4.543,8.354,9.074,12.649,13.459,4.859,4.963,10.368,10.588,17.677,17.044a257.226,257.226,0,0,0,21.272,16.853Z" fill="#231f20" stroke="#000" stroke-width="1"/>
    <path id="Path_387" data-name="Path 387" d="M365.676,59.327a38.113,38.113,0,0,1-4.777-4.614c-7.676-8.823-9.5-19.215-10.958-27.567a94.233,94.233,0,0,1-1.33-12.267l2.178-.093a92.835,92.835,0,0,0,1.3,11.988c1.417,8.085,3.178,18.143,10.455,26.512a35.572,35.572,0,0,0,4.5,4.346l-1.373,1.695Z" fill="#231f20" stroke="#000" stroke-width="1"/>
    <path id="Path_388" data-name="Path 388" d="M313.185,90.737c-1.11-1.935-2.954-5.193-5.192-9.287-.968-1.771-1.767-3.263-2.456-4.548a59.376,59.376,0,0,0-5.264-8.757,47.075,47.075,0,0,0-7.78-8l1.379-1.689a48.828,48.828,0,0,1,8.147,8.375,61.9,61.9,0,0,1,5.449,9.041c.689,1.279,1.483,2.766,2.451,4.537,2.227,4.083,4.065,7.325,5.17,9.249L313.2,90.737Z" fill="#231f20" stroke="#000" stroke-width="1"/>
  </g>
</svg>
