<svg xmlns="http://www.w3.org/2000/svg" width="575.269" height="188.816" viewBox="0 0 575.269 188.816">
  <path id="Path_316" data-name="Path 316" d="M200.25.706c-1.238.238-2.25.635-2.25.882C198,2.505,208.037,22,208.509,22c.27,0,.491-4.95.491-11V0l-3.25.136A46.188,46.188,0,0,0,200.25.706ZM182.174,16.314A9.68,9.68,0,0,0,180,19.3c0,.624,9.31,5.7,10.456,5.7.287,0-.692-2.475-2.175-5.5s-2.975-5.5-3.315-5.5A9.281,9.281,0,0,0,182.174,16.314ZM526.095,38.533c-2.973,5.78-5.9,11.17-6.5,11.978-.951,1.276-15.424,1.477-109.944,1.529-95.6.053-109.13-.124-111.16-1.454-1.608-1.054-10.473-2.291-29.151-4.068-14.762-1.405-27.515-2.7-28.34-2.869-2.259-.474,4.6-1.327,37.5-4.666,16.5-1.674,44.175-4.577,61.5-6.452l31.5-3.408-67.554.189-67.555.188-7.1,6.311-7.1,6.311-12.346-1.075c-6.79-.592-21.12-1.969-31.845-3.061s-29.175-2.878-41-3.971-28.475-2.686-37-3.542C76.7,28.134,77.66,27.394,87.027,40.5c4.325,6.05,7.887,11.338,7.918,11.75S80.6,53,63,53c-18.155,0-32,.387-32,.9a67.178,67.178,0,0,0,1.91,7.25C33.96,64.64,36.915,75.15,39.476,84.5s5.268,19.025,6.016,21.5,3.465,12.15,6.037,21.5c5.8,21.1,9.445,33.826,9.743,34.047.126.093,48.6.686,107.728,1.318l107.5,1.149,21,2.954c11.55,1.625,41.925,5.928,67.5,9.561,67.412,9.579,81.33,11.474,81.683,11.121.173-.173-4.718-5-10.869-10.732L424.631,166.5l36.934-.5,36.935-.5,32.788-56,32.788-56L547.788,53,531.5,52.5l8.336-6c4.585-3.3,12.226-8.812,16.98-12.25L565.461,28l-16.981.012-16.98.013ZM96.718,68.635c4.939,3.682,6.643,7.893,7.105,17.551L104.245,95H93.269l-.5-6.985C92.2,80.108,90.978,78,86.949,78,81.123,78,81,78.607,81,107.349,81,135.676,81.407,138,86.366,138c4.759,0,5.945-2.1,6.431-11.362L93.251,118h10.976l-.38,10.257c-.6,16.281-4.654,21.243-17.347,21.243-8.72,0-11.766-1.7-15.25-8.52C69.072,136.717,69,135.663,69,108s.073-28.721,2.25-33.03a20.935,20.935,0,0,1,5.75-6.8c3-2.008,4.467-2.292,10.218-1.978C92.032,66.458,94.724,67.149,96.718,68.635Zm41.931.115C145.186,73.4,145.5,75.205,145.5,108c0,27.814-.118,29.729-2.058,33.5-3.927,7.634-15.042,10.681-24.046,6.593-3.212-1.459-4.678-3.018-6.75-7.175L110,135.607V108.453c0-17.872.394-28.316,1.153-30.554,3-8.834,8.025-12.116,17.869-11.661C133.8,66.459,136.373,67.13,138.649,68.75Zm164.361-.5c6.256,4.258,7.454,6.9,7.837,17.321L311.193,95H300V88.723C300,81.168,298.227,78,294,78c-5.667,0-6,1.667-6,30s.333,30,6,30c4.689,0,6-3,6-13.723,0-9.229-.013-9.277-2.5-9.277-2.389,0-2.5-.267-2.5-6v-6h16.159l-.33,18.43c-.3,16.761-.516,18.679-2.391,21.188-3.788,5.069-7.039,6.765-13.7,7.145-7.9.452-12.251-1.723-15.739-7.862-2.471-4.35-2.5-4.715-2.811-31.379-.328-28.38.2-33.446,4.017-38.811,2.755-3.87,7.053-5.624,13.9-5.672C298.311,66.01,300.527,66.56,303.01,68.25Zm58.639.338c3.777,2.819,6.381,8.3,7.057,14.85L369.28,89H357V85.434C357,80.3,355.463,78,352.036,78,348.03,78,346,80.389,346,85.1c0,6.083,2.194,10.079,10.282,18.728C366.277,114.52,368.5,119.2,368.49,129.5c-.012,9.265-1.941,14.259-6.863,17.77-4.377,3.122-16.154,3.22-20.242.168-5.5-4.108-6.85-7-7.237-15.506l-.36-7.932H345v4.777c0,5.684,2.132,9.223,5.557,9.223,3.6,0,6.443-3.353,6.443-7.6,0-5.373-2.593-9.882-10.621-18.465-9.6-10.266-11.62-14.337-12.122-24.436-.343-6.889-.076-8.624,1.922-12.492A21.546,21.546,0,0,1,342,68.172c3-2.008,4.467-2.292,10.218-1.978C356.977,66.455,359.728,67.153,361.649,68.588Zm41.069.037a23.065,23.065,0,0,1,5.016,5.969c2.169,3.794,2.234,4.742,2.25,32.944.016,28.159-.052,29.172-2.234,33.442-3.484,6.819-6.53,8.52-15.25,8.52-5.867,0-7.911-.417-10.115-2.062C375.016,141.937,374,137.157,374,108c0-29.787,1.033-34.311,9.092-39.837,2.923-2,4.365-2.284,10.126-1.969C398.013,66.457,400.732,67.152,402.718,68.625Zm41.292-.375c4.594,3.127,7.075,6.786,8.061,11.892,1.249,6.466,1.116,49.886-.171,55.888-2.088,9.737-9.034,14.621-19.554,13.749-6.6-.548-10.07-2.878-13.1-8.8-2.177-4.26-2.25-5.326-2.25-32.724,0-29.711.374-32.647,4.788-37.606C426.276,65.608,438.231,64.317,444.01,68.25ZM170,67.407c0,2.9,7.929,53.845,8.466,54.389.161.162.6-2.313.98-5.5s2.008-15.192,3.621-26.677S186,68.348,186,67.869,189.825,67,194.5,67H203v82H191l-.089-25.25-.088-25.25-1.813,12c-1,6.6-2.6,17.963-3.558,25.25L183.707,149H172.262l-.627-3.75c-.344-2.062-1.991-12.95-3.659-24.195s-3.245-20.657-3.5-20.916S164,110.767,164,124.333V149H153V67h8.5C166.175,67,170,67.183,170,67.407ZM223,108v41H211V67h12Zm29.143-18,5.643,22.5.107-22.75L258,67h11v82H256.423l-6.332-26.25c-3.482-14.437-6.727-26.678-7.211-27.2-.508-.549-.88,10.54-.88,26.25V149H231V66.916l7.75.292,7.75.292ZM475.914,70.75c.544,2.063,2.873,11.625,5.175,21.25s4.573,17.927,5.048,18.45.863-8.748.863-21.3V66.895l5.25.3,5.25.3v81l-6.265.3c-6.149.293-6.277.246-6.846-2.5-.319-1.539-3.417-14.048-6.885-27.8l-6.3-25-.1,27.75L471,149H460V67h14.923ZM123.557,80.223C122.246,82.093,122,86.489,122,108c0,28.333.333,30,6,30s6-1.667,6-30-.333-30-6-30A5.281,5.281,0,0,0,123.557,80.223Zm264.315-.571c-1.049,1.263-1.451,6.948-1.707,24.187-.361,24.215.1,30.281,2.466,32.649a5.45,5.45,0,0,0,7.714-.317c1.453-1.605,1.655-5.08,1.655-28.428,0-22.849-.222-26.822-1.571-28.172C394.373,77.515,389.61,77.56,387.872,79.652Zm42.753-.135C429.206,80.937,429,84.539,429,108c0,23.082.221,27.078,1.571,28.429,1.954,1.953,5.432,2.02,7.988.153,1.822-1.331,1.957-3,2.209-27.25.3-28.811-.013-30.606-5.415-31.136A6.106,6.106,0,0,0,430.625,79.517Zm133.2,15.426c-5.873.856-10.964,1.848-11.313,2.2-.611.622,16.8,6.854,19.144,6.854,1.04,0,4.065-9.764,3.21-10.361A108.53,108.53,0,0,0,563.822,94.943ZM.851,106.068c.227,3.279.757,4.92,1.5,4.648.632-.232,5.777-1.462,11.433-2.735s9.931-2.629,9.5-3.016C22.449,104.216,5.479,101,2.357,101,.746,101,.546,101.67.851,106.068ZM17.29,124.314a40.942,40.942,0,0,1,1.278,5.195c.376,2.008,1.222,3.857,1.879,4.109,1.452.557,15.083-5.421,14.253-6.251-.323-.323-3.65-1.224-7.394-2s-7.662-1.68-8.707-2C17.172,122.917,16.846,123.155,17.29,124.314Zm537.96,12.95c-6.737.527-12.249,1.246-12.248,1.6s2.138,1.969,4.75,3.594,8.481,5.392,13.043,8.371,8.505,5.208,8.761,4.952c.576-.577,6.444-17.846,6.444-18.966C576,135.865,572.031,135.951,555.25,137.264ZM18.24,165.282C12.653,170.352,8,174.947,7.9,175.493c-.19,1.025,9.771,7.4,11.671,7.468.916.033,9.77-25.955,9.077-26.647C28.51,156.177,23.827,160.213,18.24,165.282Zm500.76,2.3a52.059,52.059,0,0,0,1.95,6.977c1.072,3.269,2.428,7.815,3.013,10.1l1.065,4.158,4.986-2.106c2.742-1.159,4.986-2.591,4.986-3.182s-3.6-4.654-8-9.028S519,167.011,519,167.579ZM67.769,178.673c-5.9,5.334-10.6,9.834-10.43,10s7.245-.57,15.731-1.635,32.755-4,53.93-6.526c52.632-6.273,51.139-5.992,36.5-6.865-15.424-.92-62.038-3.508-75-4.166l-10-.507Zm403.724,1.705a44.987,44.987,0,0,0,1.194,6.25c.6,1.56,3.129,1.774,5.234.442,1.573-1,.735-2.6-4.478-8.57l-2.619-3Z" transform="translate(-0.731)" fill-rule="evenodd"/>
</svg>
