<svg xmlns="http://www.w3.org/2000/svg" width="482.347" height="146.583" viewBox="0 0 482.347 146.583">
  <g id="Group_4" data-name="Group 4" transform="translate(-2.824 -5.761)">
    <path id="Path_338" data-name="Path 338" d="M212.982,17.14H449.2L337.913,111.2,84.461,132.378Z"/>
    <path id="Path_339" data-name="Path 339" d="M205.084,29.705,430.893,6.011,365.556,132.737,84.1,118.377Z" fill="#f26624"/>
    <path id="Path_340" data-name="Path 340" d="M99.539,17.14l157.6,15.437,108.776,100.16-220.066-28.72Z" fill="#3a86ff"/>
    <path id="Path_341" data-name="Path 341" d="M64.716,35.449H448.125L402.533,117.3,86.974,113.71Z" fill="#ed1e70"/>
    <path id="Path_342" data-name="Path 342" d="M132.05,88.925q-.506-8.547-.873-29.823a2.058,2.058,0,0,1,.459-1.149,1.661,1.661,0,0,1,1.149-.46l17.508-.184a2.149,2.149,0,0,1,1.24.46,1.453,1.453,0,0,1,.368,1.241L151.809,62a1.454,1.454,0,0,1-.459,1.057,1.7,1.7,0,0,1-1.057.551l-9.834.092.368,6.571,6.8-.276a1.158,1.158,0,0,1,1.149.414,1.31,1.31,0,0,1,.552,1.1l.092,3.86a2.061,2.061,0,0,1-.46,1.149,1.661,1.661,0,0,1-1.149.459h-6.525q.229,1.746.368,3.446.138,1.654.184,2.481.045.781.091,2.987.093,2.16.138,2.849a1.67,1.67,0,0,1-.367,1.149,1.824,1.824,0,0,1-1.241.551h-6.8a1.765,1.765,0,0,1-1.149-.414A1.5,1.5,0,0,1,132.05,88.925Z"/>
    <path id="Path_343" data-name="Path 343" d="M153.313,88.833l-.46-29.915a1.591,1.591,0,0,1,.414-1.1,1.683,1.683,0,0,1,1.1-.506q14.75-1.149,19.759,4.871a8.752,8.752,0,0,1,1.562,8.5,9.914,9.914,0,0,1-3.951,5.744,5.2,5.2,0,0,1-2.849,1.011,4.8,4.8,0,0,0,1.24,2.206,3.625,3.625,0,0,0,1.93.965,9.082,9.082,0,0,0,2.022.046,9.49,9.49,0,0,0,1.976-.414,1.031,1.031,0,0,1,1.057.23,1.305,1.305,0,0,1,.505,1.057l-.321,7.031a2.343,2.343,0,0,1-.552,1.057,1.661,1.661,0,0,1-1.149.46,16.789,16.789,0,0,1-4-.735,13.467,13.467,0,0,1-3.125-1.424,17.057,17.057,0,0,1-2.252-1.884,11.106,11.106,0,0,1-1.608-1.976q-.6-.965-1.011-1.746a8.775,8.775,0,0,1-.551-1.287l-.184-.506.184,8.042a1.56,1.56,0,0,1-.46,1.149,1.781,1.781,0,0,1-1.149.551l-6.387.184a1.561,1.561,0,0,1-1.149-.459A1.4,1.4,0,0,1,153.313,88.833Zm9.65-25.136v8.685q.229-.046.551-.092a12.011,12.011,0,0,0,1.287-.46,7.277,7.277,0,0,0,1.608-.873,5.357,5.357,0,0,0,1.379-1.47,4.436,4.436,0,0,0,.735-2.16,2.935,2.935,0,0,0-.46-1.976,2.452,2.452,0,0,0-1.332-1.1,8.222,8.222,0,0,0-1.7-.459,8.864,8.864,0,0,0-1.425-.138Z"/>
    <path id="Path_344" data-name="Path 344" d="M180.439,89.017a65.97,65.97,0,0,1-1.149-10.431q-.321-6.709-.276-11.12.046-4.457.184-8.363a1.591,1.591,0,0,1,.414-1.1,1.438,1.438,0,0,1,1.1-.505l17.6-.184a2.151,2.151,0,0,1,1.241.46,1.452,1.452,0,0,1,.367,1.241l-.092,2.941a1.505,1.505,0,0,1-.459,1.1,1.7,1.7,0,0,1-1.057.551l-9.88.092.414,6.571,7.076.23a1.743,1.743,0,0,1,1.609,1.608V73.9a1.53,1.53,0,0,1-.23.827,2.066,2.066,0,0,1-.6.551,1.843,1.843,0,0,1-.782.276l-7.26.276.919,7.26,10.523-.551a1.568,1.568,0,0,1,1.149.368,1.657,1.657,0,0,1,.6,1.241v4.779a1.583,1.583,0,0,1-.505,1.149,1.561,1.561,0,0,1-1.149.46l-18.243-.276A1.457,1.457,0,0,1,180.439,89.017Z"/>
    <path id="Path_345" data-name="Path 345" d="M222.184,59.286q1.654,10.707,7.628,29.731a1.584,1.584,0,0,1-1.425,2.114l-6.984.46a1.645,1.645,0,0,1-1.057-.368,1.7,1.7,0,0,1-.551-1.057l-.644-4.182-6.433.046-.643,3.538a1.929,1.929,0,0,1-.644.965,1.176,1.176,0,0,1-1.011.276l-7.168-.276a1.378,1.378,0,0,1-1.241-.643,1.326,1.326,0,0,1-.184-1.333l8.5-29.639a1.711,1.711,0,0,1,1.655-1.149l8.685.092a1.492,1.492,0,0,1,.689.276,1.262,1.262,0,0,1,.551.505A1.224,1.224,0,0,1,222.184,59.286Zm-5.928,8.133L213.867,80.24q1.287-.092,4.411-.092Z"/>
    <path id="Path_346" data-name="Path 346" d="M231.034,89.293l-.276-30.466a1.552,1.552,0,0,1,.414-1.149,1.5,1.5,0,0,1,1.1-.46l6.02-.092a1.56,1.56,0,0,1,1.149.46,2.032,2.032,0,0,1,.505,1.241l-.413,8.042L249.966,57.4a1.182,1.182,0,0,1,1.24-.368,1.427,1.427,0,0,1,1.149.735l3.63,5.652a1.759,1.759,0,0,1,.184,1.241,1.384,1.384,0,0,1-.735.965l-11.58,7.26a8.573,8.573,0,0,0,2.068,3.263,11.044,11.044,0,0,0,3.354,2.16,30.437,30.437,0,0,0,3.355,1.195,23.757,23.757,0,0,0,3.079.643,1.448,1.448,0,0,1,1.148.643,1.59,1.59,0,0,1,.184,1.333l-2.113,7.49a1.468,1.468,0,0,1-.6.873,1.32,1.32,0,0,1-1.011.23,12.85,12.85,0,0,1-7.26-2.849,19.752,19.752,0,0,1-2.482-2.573,21.647,21.647,0,0,1-1.838-2.757q-.688-1.333-1.194-2.527-.506-1.241-.736-1.93a5.548,5.548,0,0,1-.183-.919q0-.23.321,4,.367,4.182.644,7.858a1.568,1.568,0,0,1-.368,1.149,1.741,1.741,0,0,1-1.149.551l-6.387.23a1.255,1.255,0,0,1-1.149-.505A1.325,1.325,0,0,1,231.034,89.293Z"/>
    <path id="Path_347" data-name="Path 347" d="M268.559,88.925q-.506-8.547-.874-29.823a2.061,2.061,0,0,1,.46-1.149,1.661,1.661,0,0,1,1.149-.46L286.8,57.31a2.149,2.149,0,0,1,1.241.46,1.453,1.453,0,0,1,.368,1.241L288.318,62a1.451,1.451,0,0,1-.46,1.057,1.7,1.7,0,0,1-1.057.551l-9.833.092.367,6.571,6.8-.276a1.158,1.158,0,0,1,1.149.414,1.309,1.309,0,0,1,.551,1.1l.092,3.86a2.059,2.059,0,0,1-.459,1.149,1.661,1.661,0,0,1-1.149.459H277.8q.229,1.746.367,3.446.138,1.654.184,2.481.047.781.092,2.987.092,2.16.138,2.849a1.67,1.67,0,0,1-.368,1.149,1.82,1.82,0,0,1-1.24.551h-6.8a1.765,1.765,0,0,1-1.149-.414A1.5,1.5,0,0,1,268.559,88.925Z"/>
    <path id="Path_348" data-name="Path 348" d="M290.741,89.017a65.968,65.968,0,0,1-1.149-10.431q-.322-6.709-.276-11.12.046-4.457.184-8.363a1.591,1.591,0,0,1,.414-1.1,1.437,1.437,0,0,1,1.1-.505l17.6-.184a2.151,2.151,0,0,1,1.241.46,1.452,1.452,0,0,1,.367,1.241l-.092,2.941a1.505,1.505,0,0,1-.459,1.1,1.7,1.7,0,0,1-1.057.551l-9.88.092.414,6.571,7.076.23a1.743,1.743,0,0,1,1.609,1.608V73.9a1.53,1.53,0,0,1-.23.827,2.067,2.067,0,0,1-.6.551,1.848,1.848,0,0,1-.782.276l-7.26.276.919,7.26,10.523-.551a1.568,1.568,0,0,1,1.149.368,1.657,1.657,0,0,1,.6,1.241v4.779a1.583,1.583,0,0,1-.505,1.149,1.561,1.561,0,0,1-1.149.46l-18.243-.276A1.457,1.457,0,0,1,290.741,89.017Z"/>
    <path id="Path_349" data-name="Path 349" d="M333.037,68.844a13.694,13.694,0,0,0-4-3.033,6.025,6.025,0,0,0-3.677-.781q-4.043.919,6.8,7.169a17.3,17.3,0,0,1,5.514,5.1,10.555,10.555,0,0,1,2.16,6.066,6.361,6.361,0,0,1-1.792,4.549,10.162,10.162,0,0,1-4.687,2.711,19.55,19.55,0,0,1-6.249.6,21.388,21.388,0,0,1-7.4-1.608,16.806,16.806,0,0,1-5.973-4.228,1.357,1.357,0,0,1-.46-1.057,1.659,1.659,0,0,1,.46-1.149l3.722-4.09a1.446,1.446,0,0,1,1.057-.551,1.351,1.351,0,0,1,1.148.368q.828.689,1.655,1.333a23.709,23.709,0,0,0,2.022,1.287,12.584,12.584,0,0,0,2.251,1.011,5.382,5.382,0,0,0,2.068.23,2.719,2.719,0,0,0,1.746-.919,1.214,1.214,0,0,0-.046-1.884,9.724,9.724,0,0,0-3.033-1.976q-2.113-1.057-4.5-2.206a27.931,27.931,0,0,1-4.779-3.079,12.366,12.366,0,0,1-3.4-4.136q-1.884-4.044-.552-6.709A7.959,7.959,0,0,1,318.011,58a20.318,20.318,0,0,1,8.5-.781,19.557,19.557,0,0,1,3.86.735,15.9,15.9,0,0,1,3.079,1.149,13.3,13.3,0,0,1,2.389,1.424,12.589,12.589,0,0,1,1.793,1.424,14.6,14.6,0,0,1,1.148,1.287,1.574,1.574,0,0,1,.368,1.149,1.553,1.553,0,0,1-.46,1.011l-3.262,3.446a1.759,1.759,0,0,1-1.241.6A1.322,1.322,0,0,1,333.037,68.844Z"/>
    <path id="Path_350" data-name="Path 350" d="M348.637,67.236h-7.169a2.151,2.151,0,0,1-1.241-.46,2.042,2.042,0,0,1-.367-1.149l.184-6.112a1.5,1.5,0,0,1,.459-1.1,1.717,1.717,0,0,1,1.2-.459l24.446-.735a2.151,2.151,0,0,1,1.241.46,1.56,1.56,0,0,1,.459,1.149v6.8a1.583,1.583,0,0,1-.505,1.149,1.505,1.505,0,0,1-1.1.46h-7.812l.46,22.149a1.192,1.192,0,0,1-.368,1.149,1.584,1.584,0,0,1-1.149.505h-7.076a1.575,1.575,0,0,1-1.654-1.654Z"/>
    <path id="Path_351" data-name="Path 351" d="M62.024,99.039,48.429,111.1,43.9,100.456Z" fill="#ed1e70"/>
    <path id="Path_352" data-name="Path 352" d="M58.735,72.962,47.209,86.395l-4.77-6.526Z" fill="#ed1e70"/>
    <path id="Path_353" data-name="Path 353" d="M35.854,58.837,31.617,76.022l-7.2-3.676Z" fill="#ed1e70"/>
    <path id="Path_354" data-name="Path 354" d="M13.933,86.349l-1.266,17.976-9.843-3.787Z" fill="#ed1e70"/>
    <path id="Path_355" data-name="Path 355" d="M35.1,39.87l-12.22-3.489,4.576-6.663Z" fill="#ed1e70"/>
    <path id="Path_356" data-name="Path 356" d="M73.606,23.757l-13.951-6.7,8.828-7.9Z" fill="#ed1e70"/>
    <path id="Path_357" data-name="Path 357" d="M438.152,83.323l14.534.578-4.478,9.932Z" fill="#ed1e70"/>
    <path id="Path_358" data-name="Path 358" d="M423.251,112.571l7.293,10.033-7.759,2.361Z" fill="#ed1e70"/>
    <path id="Path_359" data-name="Path 359" d="M465.168,118.551l-6.615,16.417-6.61-4.654Z" fill="#ed1e70"/>
    <path id="Path_360" data-name="Path 360" d="M444.954,104.51l16.771-6.133.8,9.334Z" fill="#ed1e70"/>
    <path id="Path_361" data-name="Path 361" d="M474.191,100.977l10.98,9.231-7.769,4.75Z" fill="#ed1e70"/>
    <path id="Path_362" data-name="Path 362" d="M478.263,76.615,466.431,89.778l-4.619-6.634Z" fill="#ed1e70"/>
    <path id="Path_363" data-name="Path 363" d="M454.27,55.056l13.9,10.962-6.323,5.036Z" fill="#ed1e70"/>
    <path id="Path_364" data-name="Path 364" d="M399.962,133.995l12.968,13.041-11.707,5.308Z" fill="#ed1e70"/>
    <path id="Path_365" data-name="Path 365" d="M46.063,23.111l-3.5-17.351,8.079.255Z" fill="#ed1e70"/>
  </g>
</svg>
