<svg xmlns="http://www.w3.org/2000/svg" width="2115.782" height="856.5" viewBox="0 0 2115.782 856.5">
  <g id="Group_1" data-name="Group 1" transform="translate(90)">
    <path id="Path_1" data-name="Path 1" d="M284.227,161.029c-6.78-14.958-13.144-29-18.146-37.255a36.039,36.039,0,0,0-4.338-6.082,5.449,5.449,0,0,0-2.572-1.73c-5.771-1.186-15.022,1.762-25.4,34.227-8.048,25.094,4.964,60.068,13.432,82.826h0c2.488,6.685,4.583,12.315,5.637,16.332,4.171,15.992.344,42.5-.471,47.559-.063.577-.125.866-.125.866s-21.891-25.2-48.67-69.581q-.991-1.643-1.989-3.32c-18.786-31.632-31.174-54.515-35.5-66.725a41.518,41.518,0,0,0,4.139-12.5,42.2,42.2,0,0,0,.469-6.89c.25-5.168-.123-11.391-3.063-12.893a13.148,13.148,0,0,1-4.457-3.995,4.274,4.274,0,0,1-.384-3.955q.408-.927.818-1.848c.023-.045.04-.086.058-.125a1.338,1.338,0,0,1,.1-.195c3.826-8.621,8.938-21.152,11.635-31.888.565-2.275,1.035-4.487,1.348-6.57l.049-.335v0c.109-.746.214-1.47.3-2.194v-.064c.94-8.012.251-14.39-1.38-19.261l-.189-.514c-.125-.343-.251-.685-.376-1.025-.031-.032-.031-.032-.031-.064-.408-.961-.847-1.859-1.317-2.724l-.009-.009a.161.161,0,0,1-.055-.119c-.059-.095-.118-.188-.178-.282,0,0,0-.01,0-.015-.565-.9-1.128-1.731-1.724-2.5-.314-.385-.659-.769-1-1.122a13.276,13.276,0,0,0-1-.929,6.413,6.413,0,0,0-.565-.449,8.163,8.163,0,0,0-.941-.641c-.236-.145-.489-.271-.734-.393l-.238-.12c-2.321-1.09-5.269.833-8.061,3.718-3.558,3.636-7.87,8.748-9.925,11.226a44.094,44.094,0,0,0-14.114-16.765A30.669,30.669,0,0,0,121.9,35.9a9.416,9.416,0,0,0-3.67-.228c-.972.163-1.757,2.4-2.446,6.06-1.63,8.91-2.478,26.344-2.885,43.137-.533,19.485-.471,38.105-.439,41.7v.608l-7.526,15.352s-1.788,1.89-4.768,5.223c-3.01,3.334-7.245,8.106-12.106,13.845h0a5.964,5.964,0,0,0-.6.669c-4.7,5.548-9.942,11.89-15.211,18.623-.471.577-.91,1.154-1.349,1.763-4.14,5.352-8.311,10.961-12.169,16.537-5.112,7.371-7.5,13.941-8.186,19.646a1.272,1.272,0,0,0-.026.147c0,.02,0,.041-.007.062-.007.064-.015.132-.03.207a29.087,29.087,0,0,0,3.861,18.431,25.577,25.577,0,0,0,2.49,3.493,5.113,5.113,0,0,1,.389.522,4.831,4.831,0,0,1-.494,5.62c-1.612,1.726-3.713,4.065-6,6.835q-.141.188-.282.385C44.309,262.07,37,272.707,34.461,283c-2.007,8.3.627,19.517,5.457,31.311.941,2.275,1.976,4.583,3.042,6.826.655,1.365,1.333,2.711,2.017,4.051,2.557,5.086,5.372,10.12,8.286,14.944q1.261,2.1,2.544,4.133c.58.94,1.151,1.846,1.7,2.712.847,1.282,1.631,2.5,2.352,3.621,2.885,4.391,4.83,7.083,4.83,7.083,12.471,17.639,72.707,104.449,104.042,156.387,6.329,10.5,11.464,19.56,14.768,26.312,6.842,13.959,12.4,31.6,16.767,48.676a12.536,12.536,0,0,1-2.652.283h-3.866a13.844,13.844,0,0,0-13.692,13.992V606.2a11.008,11.008,0,0,1-10.887,11.125,11.008,11.008,0,0,0-10.888,11.125V636a13.358,13.358,0,0,0,13.211,13.5,13.5,13.5,0,0,1,0,27H151.426a8.411,8.411,0,0,1-8.318-8.5,8.41,8.41,0,0,0-8.318-8.5H127.7a15.585,15.585,0,0,0-15.413,15.75V688a8.411,8.411,0,0,0,8.318,8.5h2.691a5.751,5.751,0,0,1,0,11.5H97.6a13.852,13.852,0,0,0-13.7,14v.75A13.11,13.11,0,0,1,70.937,736H66.778a8.9,8.9,0,0,1-8.807-9,8.9,8.9,0,0,0-8.807-9h-.245a9.152,9.152,0,0,0-9.052,9.25V744A10.884,10.884,0,0,1,29.1,755a10.884,10.884,0,0,0-10.764,11v4.25A6.679,6.679,0,0,1,11.732,777a6.679,6.679,0,0,1-6.605-6.75V758.081A12.944,12.944,0,0,0-7.674,745a12.662,12.662,0,0,1-9.052-3.832l-3.1-3.168a24.168,24.168,0,0,1-6.85-16.9V707.107A25.893,25.893,0,0,0-34.017,689l-2.881-2.944a15.73,15.73,0,0,1-4.459-11V669.25a9.647,9.647,0,0,1,9.541-9.75,9.647,9.647,0,0,0,9.541-9.75V635.777a23.474,23.474,0,0,0-23.215-23.724H-82.845A5.213,5.213,0,0,0-88,617.321v20.708A11.35,11.35,0,0,0-76.775,649.5h6.55c7.584,0,11.382,9.37,6.019,14.849a8.834,8.834,0,0,0,0,12.3l19.93,20.365a37.921,37.921,0,0,1,10.748,26.517V826c0,15.74,12.487,28.5,27.89,28.5H-.5a23,23,0,0,0,22.752-23.25v-12A11.132,11.132,0,0,1,33.261,808H36.2a8.163,8.163,0,0,1,8.073,8.25,8.163,8.163,0,0,0,8.073,8.25h6.85a15.09,15.09,0,0,0,14.924-15.25V789.5A19.294,19.294,0,0,1,93.2,770h10.03a9.152,9.152,0,0,1,9.052,9.25v5.356a3.852,3.852,0,0,1-3.811,3.894,3.853,3.853,0,0,0-3.811,3.894v4.356a8.164,8.164,0,0,0,8.073,8.25H145.8a8.252,8.252,0,0,0,0-16.5h-4.4a12.616,12.616,0,0,1-12.477-12.75V760A14.842,14.842,0,0,1,143.6,745h4.893a9.894,9.894,0,0,1,9.786,10,9.894,9.894,0,0,0,9.786,10h3.425A13.358,13.358,0,0,0,184.7,751.5v-8.75A17.563,17.563,0,0,1,202.068,725h5.382a12.12,12.12,0,0,1,11.988,12.25,12.122,12.122,0,0,0,11.988,12.25H256.38a9.152,9.152,0,0,0,9.052-9.25V739a7.915,7.915,0,0,0-7.829-8,7.916,7.916,0,0,1-7.829-8V701.02a19.315,19.315,0,0,1,19.1-19.52h9.805a9.4,9.4,0,0,1,9.3,9.5,9.4,9.4,0,0,0,9.3,9.5h11.7a9.4,9.4,0,0,0,9.3-9.5v-2.25a7.174,7.174,0,0,0-7.095-7.25,7.174,7.174,0,0,1-7.095-7.25V652.3a15.638,15.638,0,0,1,15.466-15.8h3.5a12.094,12.094,0,0,0,11.961-12.223,12.1,12.1,0,0,1,11.961-12.224H381.25a11.361,11.361,0,0,0,0-22.716h-7.41a12.868,12.868,0,0,1-12.727-13v-.494a12.379,12.379,0,0,1,12.243-12.511,12.378,12.378,0,0,0,12.242-12.51v-.823a13.209,13.209,0,0,0-12.48-13.322c-8.237-20.39-17.227-43.588-19.587-53.236-4.641-18.909-13.863-112.778-13.863-112.778s-2.885-45.448-11.573-78.487c-8.656-33.074-27.128-94.446-39.265-121.015-1.546-3.379-3.082-6.767-4.6-10.11l-.008-.017Z" transform="translate(-0.043)" fill="#ed1e70" fill-rule="evenodd"/>
    <path id="Path_2" data-name="Path 2" d="M266.037,123.774l-1.668,1.045,0,.008Zm18.146,37.255,1.8-.8-.01-.021-.01-.022ZM261.7,117.692l-1.406,1.391.006.006Zm-2.572-1.73.4-1.958-.013,0Zm-25.4,34.227,1.86.623v0Zm13.432,82.826,1.857-.633-.014-.039-.014-.039Zm0,0-1.856.632.013.04.015.039Zm5.637,16.332,1.891-.515v0Zm-.471,47.56-1.932-.325-.008.052-.006.052Zm-.125.865-1.464,1.328,2.543,2.927.831-3.821Zm-48.67-69.581-1.667,1.049h0Zm-1.989-3.32-1.672,1.037v0Zm-35.5-66.725-1.73-.936-.406.783.3.834Zm4.139-12.5,1.931.326,0-.01v-.01Zm.469-6.89-1.954-.1,0,.063v.063Zm-3.063-12.893-.954,1.746.039.023.04.02Zm-4.457-3.995-1.691,1.007.024.041.025.041Zm-.384-3.955,1.785.82Zm.818-1.848-1.751-.894-.016.031-.014.032Zm.035-.075-1.778-.836h0Zm.023-.05-1.784-.823h0Zm.1-.195,1.628,1.109.088-.135.067-.148Zm11.635-31.888,1.9.5,0-.006Zm1.348-6.57,1.935.3v-.01Zm.049-.336-1.936-.294h0Zm.3-2.2,1.943.229.014-.114v-.115Zm0-.064-1.943-.238-.014.119v.119Zm-1.38-19.261,1.851-.647-.009-.027-.01-.027Zm-.188-.512-1.833.7h0Zm-.377-1.026,1.831-.706-.149-.4-.3-.3Zm-.031-.064h1.957v-.415l-.161-.381ZM173.752,51.1l1.711-.971-.113-.206-.156-.174Zm-.008-.009,1.442-1.352,0-.006Zm-.056-.119h1.957v-.587l-.31-.494Zm-.178-.282-1.95.172.043.5.268.421Zm0-.016h1.957v-.587l-.31-.494Zm-1.724-2.5,1.534-1.241-.016-.02-.016-.019Zm-1-1.122,1.384-1.414h0Zm-1-.929-1.268,1.524.015.012.014.012Zm-.565-.449-1.223,1.562.067.054.07.048Zm-.941-.641-1.007,1.715h0Zm-.735-.393.858-1.8h0Zm-.115-.057.862-1.8h0Zm-.122-.062.875-1.789-.028-.015-.029-.014Zm-8.061,3.718,1.385,1.414.007-.008ZM149.314,59.47l-1.774.843,1.29,2.835,1.978-2.385ZM135.2,42.705l-1.249,1.539.052.045.056.041Zm-13.344-6.8-.407,1.956h0Zm-3.67-.228.318,1.973.023,0,.024,0Zm-2.446,6.06-1.922-.379,0,.011Zm-2.885,43.137,1.956.056v-.006Zm-.439,41.7h1.957v-.018Zm0,.608,1.75.9.207-.423v-.473Zm-7.526,15.352,1.407,1.389.208-.22.134-.273Zm-4.768,5.223,1.439,1.357.007-.008ZM88.016,161.6l1.384,1.415.05-.051.046-.055Zm-.6.67,1.479,1.31.056-.066.05-.07ZM72.209,180.891l1.5,1.281.013-.016.012-.015Zm-1.349,1.763,1.535,1.24.021-.026.02-.027ZM58.692,199.191l1.6,1.157v0Zm-8.186,19.646,1.9.484.029-.118.015-.121Zm-.033.209-1.944-.233h0Zm-.018.143-1.932-.318h0Zm-.011.064-1.919-.392-.016.084-.009.085Zm3.861,18.431,1.673-1.037-.007-.012-.007-.011Zm2.49,3.493,1.479-1.31Zm.389.522,1.7-.991-.033-.059-.036-.056Zm-.493,5.62,1.416,1.38h0Zm-6,6.835-1.5-1.288-.028.034-.026.035Zm-.282.385,1.5,1.281.04-.049.037-.051ZM34.418,283l-1.9-.49,0,.01Zm5.457,31.311-1.805.772,0,.006Zm3.042,6.826-1.76.874,0,.007Zm2.017,4.051,1.741-.914-.006-.011ZM53.22,340.13l1.667-1.048v0Zm2.544,4.134,1.655-1.068,0-.007,0-.007Zm1.7,2.711-1.645,1.083.011.018.012.018Zm2.352,3.621-1.636,1.1.005.008.005.008Zm4.83,7.083,1.586-1.171-.006-.009-.006-.008ZM168.684,514.066l1.667-1.049h0Zm14.768,26.312-1.751.894v0Zm16.767,48.676.406,1.957,2.006-.435-.519-2.027ZM-16.769,741.168l1.384-1.414h0ZM-19.87,738l-1.384,1.414h0Zm-14.19-49-1.384,1.414h0Zm-2.881-2.944-1.384,1.415h0Zm-27.308-21.707-1.384-1.414h0Zm0,12.3-1.384,1.414h0Zm19.93,20.365-1.384,1.415ZM373.076,536.673l-1.808.764.477,1.18,1.249.055Zm-19.587-53.236,1.9-.485v0ZM339.626,370.659l-1.953.129,0,.035,0,.035Zm-11.573-78.487-1.891.517v0ZM288.788,171.158l1.773-.847h0Zm-4.6-10.128-1.795.8.009.022.01.021Zm-19.811-36.2c4.923,8.123,11.229,22.028,18.034,37.042l3.551-1.681c-6.754-14.9-13.178-29.086-18.259-37.468Zm-4.074-5.738a34.141,34.141,0,0,1,4.069,5.73l3.337-2.091a37.794,37.794,0,0,0-4.6-6.432Zm-1.571-1.17a3.785,3.785,0,0,1,1.565,1.164l2.813-2.782a7.317,7.317,0,0,0-3.58-2.3ZM235.585,150.81c5.162-16.142,9.96-24.653,13.988-28.974a12.944,12.944,0,0,1,5.221-3.692,7.413,7.413,0,0,1,3.949-.222l.772-3.921a11.226,11.226,0,0,0-5.94.343,16.78,16.78,0,0,0-6.836,4.733c-4.636,4.973-9.655,14.169-14.874,30.491Zm13.4,81.494c-4.24-11.4-9.561-25.7-12.831-40.273-3.279-14.607-4.428-29.192-.571-41.219l-3.72-1.246c-4.191,13.067-2.857,28.516.475,43.359,3.341,14.88,8.76,29.439,12.988,40.8Zm.027.079h0l-3.714,1.265h0Zm5.669,16.446c-1.085-4.139-3.226-9.885-5.7-16.525l-3.659,1.422c2.5,6.729,4.553,12.245,5.575,16.139Zm-.43,48.4c.415-2.573,1.585-10.538,2.128-19.888.539-9.3.473-20.19-1.7-28.511l-3.782,1.03c2,7.671,2.107,18.026,1.573,27.244-.532,9.167-1.682,16.986-2.083,19.476Zm-2.056.541c1.91.434,1.91.433,1.91.433h0s0,0,0,0a.008.008,0,0,1,0,0,.052.052,0,0,1,0-.009c0-.006,0-.014,0-.023s.008-.04.013-.067c.01-.053.023-.125.038-.215.029-.18.066-.432.1-.757l-3.891-.441c-.027.252-.054.432-.071.541-.009.054-.016.091-.02.109s0,.014,0,.014v0s0,0,0,0a0,0,0,0,1,0,0h0Zm-50.337-68.531c13.428,22.255,25.632,39.7,34.486,51.6,4.427,5.946,8.017,10.5,10.5,13.578,1.243,1.538,2.211,2.7,2.869,3.489.329.393.581.689.752.889l.194.227.051.058.014.016,0,0a0,0,0,0,1,0,0s0,0,1.465-1.327l1.463-1.328h0s0,0,0,0l-.011-.012-.045-.052-.183-.214c-.163-.191-.408-.479-.73-.862-.643-.767-1.6-1.915-2.822-3.434-2.455-3.036-6.012-7.551-10.405-13.452-8.787-11.8-20.917-29.144-34.269-51.273Zm-1.994-3.331q1,1.682,1.994,3.33l3.333-2.1q-.988-1.638-1.984-3.311ZM164.2,158.827c4.407,12.433,16.908,35.492,35.67,67.081l3.346-2.075c-18.81-31.674-31.086-54.38-35.335-66.368Zm4.049-13.506a39.465,39.465,0,0,1-3.939,11.889l3.459,1.872a43.521,43.521,0,0,0,4.341-13.109Zm.442-6.536a40.131,40.131,0,0,1-.445,6.556l3.867.612a44.151,44.151,0,0,0,.492-7.223Zm-1.981-11.132a2.256,2.256,0,0,1,.891,1.054,9.6,9.6,0,0,1,.786,2.59,34.514,34.514,0,0,1,.306,7.362l3.909.2a38.424,38.424,0,0,0-.366-8.281,13.582,13.582,0,0,0-1.161-3.71,6.143,6.143,0,0,0-2.616-2.789Zm-5.224-4.695a15.09,15.09,0,0,0,5.144,4.652l1.909-3.491a11.24,11.24,0,0,1-3.771-3.34Zm-.527-5.864a6.3,6.3,0,0,0,.478,5.782l3.382-2.015a2.257,2.257,0,0,1-.29-2.127Zm.823-1.859q-.415.928-.823,1.859l3.57,1.64c.272-.618.541-1.229.813-1.836Zm.037-.08-.008.017,3.5,1.788c.024-.05.045-.1.063-.133Zm.017-.037c-.008.016-.012.027-.017.037l3.556,1.672.027-.063Zm.254-.482a3.212,3.212,0,0,0-.254.482l3.567,1.646c.009-.019.013-.027.015-.033s0,0,0,.009a1.109,1.109,0,0,1-.067.115ZM173.455,83.36c-2.653,10.56-7.706,22.962-11.522,31.56l3.565,1.652c3.836-8.644,9.007-21.3,11.748-32.217Zm1.309-6.377c-.3,2-.756,4.146-1.311,6.383l3.795.983c.573-2.314,1.06-4.591,1.386-6.757Zm.048-.326-.049.336,3.871.588.049-.336Zm.288-2.131c-.077.687-.178,1.379-.288,2.13l3.871.589c.108-.74.218-1.5.3-2.261Zm-.013.165v.064H179v-.064Zm-1.275-18.614c1.517,4.531,2.2,10.6,1.289,18.375l3.886.477c.969-8.246.274-14.935-1.471-20.147Zm-.168-.458.187.512,3.667-1.4-.188-.512Zm-.376-1.021c.125.337.25.677.376,1.021l3.666-1.4c-.125-.343-.252-.688-.379-1.031Zm-.157-.77v.051c0,.028,0,.09.01.167a2.068,2.068,0,0,0,.5,1.165l.065.07.024.025,2.768-2.828c-.023-.023.015.014.053.057a1.944,1.944,0,0,1,.287.431,2.009,2.009,0,0,1,.193.682c.012.117.01.225.01.18Zm-1.072-1.753c.442.813.852,1.652,1.232,2.548l3.592-1.59c-.435-1.027-.9-1.983-1.4-2.9Zm.26.371.008.009,2.886-2.7-.008-.009Zm-.57-1.471a2.174,2.174,0,0,0,.574,1.477l2.876-2.714a1.811,1.811,0,0,1,.233.333,1.9,1.9,0,0,1,.231.9Zm.14.812c.058.089.114.179.171.27l3.293-2.163-.186-.294Zm-.319-1.109c0,.066,0,.128.008.188l3.9-.344c0,.049.006.1.006.156Zm-1.3-1.258c.543.7,1.07,1.477,1.613,2.34l3.293-2.163c-.586-.932-1.189-1.823-1.837-2.66Zm-.853-.949c.3.312.61.652.884.988l3.007-2.561c-.353-.433-.738-.862-1.123-1.255Zm-.859-.8a11.277,11.277,0,0,1,.859.8l2.767-2.829a15.043,15.043,0,0,0-1.148-1.063Zm-.411-.332a4.445,4.445,0,0,1,.383.308l2.536-3.048a8.192,8.192,0,0,0-.747-.589Zm-.862-.59a6.283,6.283,0,0,1,.725.488l2.445-3.123a9.921,9.921,0,0,0-1.157-.794Zm-.586-.311c.258.129.435.218.586.311l2.014-3.43c-.321-.2-.652-.361-.884-.476Zm-.118-.059.118.06,1.716-3.6-.111-.055Zm-.136-.068.136.069,1.724-3.591-.11-.055Zm-5.793,3.335a15.248,15.248,0,0,1,3.692-2.968,2.446,2.446,0,0,1,2.16-.339l1.634-3.635a6.19,6.19,0,0,0-5.549.4,19.023,19.023,0,0,0-4.721,3.731Zm-9.823,11.113c2.054-2.477,6.32-7.533,9.816-11.105l-2.768-2.828c-3.621,3.7-7.978,8.868-10.034,11.348ZM134.059,44.33A42.125,42.125,0,0,1,147.54,60.313l3.549-1.687A46.092,46.092,0,0,0,136.342,41.08Zm-12.607-6.468a28.745,28.745,0,0,1,12.5,6.383l2.5-3.079a32.614,32.614,0,0,0-14.19-7.218Zm-2.9-.22a7.646,7.646,0,0,1,2.9.219l.814-3.912a11.25,11.25,0,0,0-4.443-.236Zm-.891,4.474a24.271,24.271,0,0,1,1.014-3.98,3.286,3.286,0,0,1,.36-.729,1.014,1.014,0,0,1-.531.243l-.636-3.947a3.1,3.1,0,0,0-1.922,1.247,7.048,7.048,0,0,0-.907,1.708,27.856,27.856,0,0,0-1.221,4.7Zm-2.851,42.808c.409-16.828,1.257-34.1,2.853-42.819l-3.848-.735c-1.665,9.1-2.511,26.7-2.918,43.455Zm-.438,41.628c-.031-3.574-.094-22.168.438-41.622l-3.912-.112c-.534,19.517-.472,38.163-.44,41.768Zm0,.626v-.608h-3.914v.608Zm-7.734,16.248,7.526-15.352-3.5-1.791-7.527,15.351Zm-5.072,5.676c1.483-1.658,2.668-2.957,3.481-3.839.406-.442.72-.779.932-1.005.1-.113.185-.2.239-.255l.06-.064.015-.015,0,0h0l-1.407-1.389-1.408-1.39h0l0,.005-.017.017-.065.068-.247.264c-.217.233-.537.577-.95,1.025-.825.9-2.024,2.209-3.52,3.884ZM89.5,162.907c4.845-5.72,9.064-10.476,12.064-13.8L98.684,146.4c-3.022,3.345-7.27,8.133-12.148,13.893Zm-.1.106h0l-2.768-2.829h0Zm0,0h0l-2.768-2.828h0Zm-.394.429a4.642,4.642,0,0,1,.394-.429l-2.768-2.828a7.652,7.652,0,0,0-.8.91Zm-15.267,18.7c5.249-6.708,10.469-13.03,15.161-18.563l-2.958-2.62c-4.716,5.562-9.971,11.925-15.26,18.684Zm-1.3,1.7c.419-.582.834-1.127,1.276-1.669l-3.007-2.561c-.5.611-.962,1.22-1.421,1.857Zm-12.146,16.5c3.832-5.54,7.981-11.119,12.106-16.452l-3.071-2.48c-4.155,5.371-8.348,11.009-12.231,16.623Zm-7.841,18.736c.644-5.321,2.881-11.584,7.84-18.734L57.1,198.035c-5.265,7.591-7.795,14.469-8.531,20.556Zm-.031.2c0-.02,0-.03,0-.038v-.005c0,.007-.006.039-.017.085l-3.8-.969a3.638,3.638,0,0,0-.078.461Zm-.03.228c.016-.1.025-.187.03-.229l-3.888-.465-.005.047a.063.063,0,0,1,0,.011Zm-.025.139c.01-.05.018-.1.025-.14l-3.865-.634,0-.011Zm3.6,16.978a27.059,27.059,0,0,1-3.575-17.148l-3.89-.446a31.122,31.122,0,0,0,4.147,19.715Zm2.31,3.243a23.624,23.624,0,0,1-2.3-3.22l-3.346,2.075a27.567,27.567,0,0,0,2.685,3.765Zm.54.726a7.17,7.17,0,0,0-.54-.726l-2.957,2.62a3.163,3.163,0,0,1,.237.318Zm-.708,8.106a6.861,6.861,0,0,0,.777-7.991l-3.4,1.983a2.8,2.8,0,0,1-.21,3.247Zm-5.915,6.743c2.252-2.732,4.325-5.04,5.915-6.743l-2.832-2.761c-1.635,1.751-3.763,4.121-6.076,6.928Zm-.2.278q.128-.179.254-.347l-3.1-2.438q-.156.207-.311.423ZM36.316,283.487c2.427-9.833,9.489-20.181,15.6-27.667l-3.006-2.562c-6.183,7.575-13.736,18.5-16.389,29.25Zm5.365,30.05c-4.811-11.747-7.206-22.434-5.362-30.06l-3.8-.959c-2.17,8.975.7,20.722,5.552,32.563Zm3,6.724c-1.054-2.217-2.074-4.492-3-6.731l-3.606,1.557c.956,2.313,2.006,4.652,3.085,6.922Zm1.991,4c-.681-1.334-1.35-2.663-1.995-4.007l-3.514,1.762c.666,1.387,1.352,2.749,2.038,4.1Zm8.216,14.819c-2.891-4.786-5.681-9.774-8.211-14.808L43.193,326.1c2.583,5.139,5.425,10.219,8.362,15.081Zm2.525,4.1q-1.271-2.021-2.523-4.1l-3.334,2.1q1.271,2.112,2.564,4.167Zm1.7,2.709c-.545-.864-1.112-1.765-1.687-2.695l-3.31,2.135c.585.948,1.161,1.861,1.706,2.727Zm2.343,3.607c-.721-1.122-1.511-2.349-2.366-3.642l-3.244,2.238c.839,1.27,1.617,2.479,2.339,3.6Zm3.194,8.181,1.575-1.188h0l0-.005-.016-.022-.064-.089c-.057-.079-.142-.2-.254-.357-.224-.316-.553-.784-.972-1.389-.839-1.21-2.037-2.967-3.469-5.147l-3.25,2.23c1.453,2.211,2.67,3.995,3.524,5.229.428.617.765,1.1,1,1.422.116.164.2.288.265.373l.069.1.018.025,0,.007v0h0S63.067,358.867,64.642,357.679ZM170.349,513.016C138.974,461.01,78.7,374.147,66.229,356.508l-3.173,2.342c12.471,17.639,72.669,104.4,103.961,156.265ZM185.2,539.484c-3.344-6.833-8.516-15.953-14.852-26.467l-3.333,2.1c6.321,10.487,11.419,19.486,14.684,26.157Zm16.91,49.065c-4.375-17.133-9.979-34.924-16.911-49.067l-3.5,1.792c6.753,13.775,12.274,31.255,16.624,48.285Zm-2.3-1.451a10.629,10.629,0,0,1-2.246.239v4a14.436,14.436,0,0,0,3.058-.326Zm-2.246.239H193.7v4h3.866Zm-3.866,0a15.824,15.824,0,0,0-15.65,15.992h3.914A11.866,11.866,0,0,1,193.7,591.337Zm-15.65,15.992V606.2h3.914v-2.867Zm0,2.867a9.029,9.029,0,0,1-8.93,9.125v4A12.986,12.986,0,0,0,181.965,606.2Zm-8.93,9.125a12.988,12.988,0,0,0-12.845,13.125h3.914a9.03,9.03,0,0,1,8.931-9.125Zm-12.845,13.125V636h3.914v-7.554Zm0,7.554a15.337,15.337,0,0,0,15.168,15.5v-4A11.379,11.379,0,0,1,160.19,636Zm15.168,15.5A11.379,11.379,0,0,1,182.7,663h3.914a15.337,15.337,0,0,0-15.168-15.5ZM182.7,663a11.379,11.379,0,0,1-11.254,11.5v4A15.337,15.337,0,0,0,186.612,663Zm-11.254,11.5H151.383v4h20.061Zm-20.061,0a6.431,6.431,0,0,1-6.361-6.5h-3.914a10.389,10.389,0,0,0,10.275,10.5Zm-6.361-6.5a10.389,10.389,0,0,0-10.275-10.5v4a6.431,6.431,0,0,1,6.361,6.5Zm-10.275-10.5h-7.095v4h7.095Zm-7.095,0a17.563,17.563,0,0,0-17.37,17.75H114.2a13.605,13.605,0,0,1,13.456-13.75Zm-17.37,17.75V688H114.2V675.25Zm0,12.75a10.389,10.389,0,0,0,10.275,10.5v-4A6.431,6.431,0,0,1,114.2,688Zm10.275,10.5h2.691v-4h-2.691Zm2.691,0a3.711,3.711,0,0,1,3.67,3.75h3.914a7.668,7.668,0,0,0-7.584-7.75Zm3.67,3.75a3.711,3.711,0,0,1-3.67,3.75v4a7.668,7.668,0,0,0,7.584-7.75Zm-3.67,3.75H97.561v4h25.688Zm-25.688,0A15.831,15.831,0,0,0,81.9,722h3.914a11.874,11.874,0,0,1,11.743-12ZM81.9,722v.75h3.914V722Zm0,.75A11.132,11.132,0,0,1,70.894,734v4a15.09,15.09,0,0,0,14.924-15.25ZM70.894,734H66.735v4h4.159Zm-4.159,0a6.926,6.926,0,0,1-6.85-7H55.971a10.884,10.884,0,0,0,10.764,11Zm-6.85-7a10.884,10.884,0,0,0-10.764-11v4a6.926,6.926,0,0,1,6.85,7ZM49.121,716h-.245v4h.245Zm-.245,0a11.132,11.132,0,0,0-11.009,11.25h3.914A7.174,7.174,0,0,1,48.876,720ZM37.867,727.25V744h3.914V727.25Zm0,16.75a8.9,8.9,0,0,1-8.807,9v4a12.863,12.863,0,0,0,12.722-13Zm-8.807,9a12.863,12.863,0,0,0-12.722,13h3.914a8.9,8.9,0,0,1,8.807-9ZM16.338,766v4.25h3.914V766Zm0,4.25A4.7,4.7,0,0,1,11.69,775v4a8.658,8.658,0,0,0,8.563-8.75ZM11.69,775a4.7,4.7,0,0,1-4.648-4.75H3.127A8.658,8.658,0,0,0,11.69,779Zm-4.648-4.75V758.081H3.127V770.25Zm0-12.169A14.922,14.922,0,0,0-7.717,743v4A10.964,10.964,0,0,1,3.127,758.081ZM-7.717,743a10.725,10.725,0,0,1-7.668-3.246l-2.768,2.829A14.6,14.6,0,0,0-7.717,747Zm-7.668-3.246-3.1-3.168-2.768,2.828,3.1,3.169Zm-3.1-3.168A22.145,22.145,0,0,1-24.763,721.1h-3.914a26.19,26.19,0,0,0,7.423,18.314ZM-24.763,721.1V707.107h-3.914V721.1Zm0-13.993a27.915,27.915,0,0,0-7.913-19.521l-2.768,2.828a23.872,23.872,0,0,1,6.766,16.693Zm-7.913-19.521-2.881-2.944-2.768,2.829,2.881,2.943Zm-2.881-2.944a13.707,13.707,0,0,1-3.886-9.586h-3.914a17.755,17.755,0,0,0,5.032,12.415Zm-3.886-9.586V669.25h-3.914v5.806Zm0-5.806a7.669,7.669,0,0,1,7.584-7.75v-4a11.627,11.627,0,0,0-11.5,11.75Zm7.584-7.75a11.626,11.626,0,0,0,11.5-11.75h-3.914a7.669,7.669,0,0,1-7.584,7.75Zm11.5-11.75V635.777h-3.914V649.75Zm0-13.973c0-14.207-11.27-25.724-25.173-25.724v4a21.5,21.5,0,0,1,21.258,21.724Zm-25.173-25.724H-82.888v4h37.356Zm-37.356,0A7.191,7.191,0,0,0-90,617.321h3.914a3.233,3.233,0,0,1,3.2-3.268ZM-90,617.321v11.194h3.914V617.321Zm0,11.194v9.514h3.914v-9.514Zm0,9.514A13.329,13.329,0,0,0-76.817,651.5v-4a9.371,9.371,0,0,1-9.268-9.471ZM-76.817,651.5h6.55v-4h-6.55Zm6.55,0c5.84,0,8.765,7.215,4.635,11.435l2.768,2.828c6.6-6.739,1.924-18.263-7.4-18.263Zm4.635,11.435a10.865,10.865,0,0,0,0,15.13l2.768-2.828a6.8,6.8,0,0,1,0-9.474Zm0,15.13,19.93,20.366,2.768-2.829-19.93-20.365Zm19.93,20.366a35.9,35.9,0,0,1,10.175,25.1h3.914A39.944,39.944,0,0,0-42.935,695.6Zm10.175,25.1V826h3.914V723.533Zm0,102.467c0,16.845,13.363,30.5,29.847,30.5v-4C-20,852.5-31.613,840.636-31.613,826ZM-5.68,856.5H-.543v-4H-5.68Zm5.138,0c13.647,0,24.709-11.3,24.709-25.25H20.252A21.026,21.026,0,0,1-.543,852.5Zm24.709-25.25v-12H20.252v12Zm0-12A9.152,9.152,0,0,1,33.219,810v-4a13.11,13.11,0,0,0-12.966,13.25ZM33.219,810h2.936v-4H33.219Zm2.936,0a6.184,6.184,0,0,1,6.116,6.25h3.914A10.142,10.142,0,0,0,36.154,806Zm6.116,6.25A10.142,10.142,0,0,0,52.3,826.5v-4a6.184,6.184,0,0,1-6.116-6.25ZM52.3,826.5h6.85v-4H52.3Zm6.85,0a17.068,17.068,0,0,0,16.881-17.25H72.118A13.11,13.11,0,0,1,59.151,822.5Zm16.881-17.25V789.5H72.118v19.75Zm0-19.75A17.316,17.316,0,0,1,93.157,772v-4a21.274,21.274,0,0,0-21.04,21.5ZM93.157,772h10.03v-4H93.157Zm10.03,0a7.174,7.174,0,0,1,7.095,7.25H114.2A11.131,11.131,0,0,0,103.188,768Zm7.095,7.25v5.356H114.2V779.25Zm0,5.356a1.874,1.874,0,0,1-1.853,1.894v4a5.831,5.831,0,0,0,5.768-5.894Zm-1.853,1.894a5.832,5.832,0,0,0-5.768,5.894h3.914a1.874,1.874,0,0,1,1.853-1.894Zm-5.768,5.894v4.356h3.914v-4.356Zm0,4.356A10.142,10.142,0,0,0,112.692,807v-4a6.185,6.185,0,0,1-6.116-6.25ZM112.692,807h33.065v-4H112.692Zm33.065,0a10.142,10.142,0,0,0,10.031-10.25h-3.914a6.184,6.184,0,0,1-6.116,6.25Zm10.031-10.25a10.142,10.142,0,0,0-10.031-10.25v4a6.184,6.184,0,0,1,6.116,6.25ZM145.756,786.5h-4.4v4h4.4Zm-4.4,0a10.637,10.637,0,0,1-10.52-10.75h-3.914a14.6,14.6,0,0,0,14.434,14.75Zm-10.52-10.75V760h-3.914v15.75Zm0-15.75a12.863,12.863,0,0,1,12.722-13v-4a16.821,16.821,0,0,0-16.636,17Zm12.722-13h4.893v-4h-4.893Zm4.893,0a7.915,7.915,0,0,1,7.829,8h3.914a11.874,11.874,0,0,0-11.743-12Zm7.829,8a11.874,11.874,0,0,0,11.743,12v-4a7.916,7.916,0,0,1-7.829-8Zm11.743,12h3.425v-4h-3.425Zm3.425,0a15.337,15.337,0,0,0,15.168-15.5H182.7A11.379,11.379,0,0,1,171.444,763Zm15.168-15.5v-8.75H182.7v8.75Zm0-8.75A15.585,15.585,0,0,1,202.025,727v-4A19.542,19.542,0,0,0,182.7,742.75ZM202.025,727h5.382v-4h-5.382Zm5.382,0a10.142,10.142,0,0,1,10.031,10.25h3.914A14.1,14.1,0,0,0,207.407,723Zm10.031,10.25a14.1,14.1,0,0,0,13.945,14.25v-4a10.142,10.142,0,0,1-10.031-10.25Zm13.945,14.25h24.954v-4H231.383Zm24.954,0a11.131,11.131,0,0,0,11.009-11.25h-3.914a7.174,7.174,0,0,1-7.095,7.25Zm11.009-11.25V739h-3.914v1.25Zm0-1.25a9.894,9.894,0,0,0-9.786-10v4a5.936,5.936,0,0,1,5.872,6Zm-9.786-10a5.937,5.937,0,0,1-5.872-6h-3.914a9.894,9.894,0,0,0,9.786,10Zm-5.872-6V701.02h-3.914V723Zm0-21.98a17.336,17.336,0,0,1,17.146-17.52v-4a21.294,21.294,0,0,0-21.06,21.52Zm17.146-17.52h9.805v-4h-9.805Zm9.805,0a7.421,7.421,0,0,1,7.339,7.5h3.914a11.379,11.379,0,0,0-11.254-11.5Zm7.339,7.5a11.379,11.379,0,0,0,11.254,11.5v-4a7.421,7.421,0,0,1-7.339-7.5Zm11.254,11.5h11.7v-4h-11.7Zm11.7,0A11.379,11.379,0,0,0,320.19,691h-3.914a7.421,7.421,0,0,1-7.339,7.5ZM320.19,691v-2.25h-3.914V691Zm0-2.25a9.152,9.152,0,0,0-9.052-9.25v4a5.2,5.2,0,0,1,5.138,5.25Zm-9.052-9.25A5.2,5.2,0,0,1,306,674.25h-3.914a9.153,9.153,0,0,0,9.052,9.25ZM306,674.25V652.3h-3.914V674.25Zm0-21.946a13.659,13.659,0,0,1,13.508-13.8v-4a17.616,17.616,0,0,0-17.423,17.8Zm13.508-13.8h3.5v-4h-3.5Zm3.5,0a14.073,14.073,0,0,0,13.918-14.223h-3.914a10.115,10.115,0,0,1-10,10.223Zm13.918-14.223a10.116,10.116,0,0,1,10-10.224v-4a14.074,14.074,0,0,0-13.918,14.224Zm10-10.224h34.271v-4H346.936Zm34.271,0A13.217,13.217,0,0,0,394.279,600.7h-3.914a9.259,9.259,0,0,1-9.158,9.358ZM394.279,600.7a13.218,13.218,0,0,0-13.072-13.358v4a9.26,9.26,0,0,1,9.158,9.358Zm-13.072-13.358H373.8v4h7.41Zm-7.41,0a10.889,10.889,0,0,1-10.769-11h-3.914a14.847,14.847,0,0,0,14.684,15Zm-10.769-11v-.494h-3.914v.494Zm0-.494a10.4,10.4,0,0,1,10.286-10.511v-4a14.358,14.358,0,0,0-14.2,14.511Zm10.286-10.511a14.357,14.357,0,0,0,14.2-14.51H383.6a10.4,10.4,0,0,1-10.285,10.51Zm14.2-14.51v-.823H383.6v.823Zm0-.823a15.19,15.19,0,0,0-14.353-15.32l-.167,4A11.226,11.226,0,0,1,383.6,549.995Zm-35.924-66.073c2.4,9.826,11.465,33.186,19.678,53.515l3.618-1.527c-8.262-20.452-17.181-43.487-19.5-52.958ZM339.626,370.659c-1.947.2-1.947.2-1.947.2s0,0,0,0a.076.076,0,0,0,0,.013c0,.011,0,.028,0,.051,0,.045.012.113.021.2.018.179.043.444.077.79.069.693.17,1.711.3,3.014.261,2.6.64,6.348,1.109,10.9.936,9.1,2.235,21.431,3.679,34.354,2.877,25.757,6.357,54.122,8.718,63.739l3.8-.973c-2.281-9.292-5.733-37.315-8.626-63.22-1.441-12.908-2.738-25.226-3.675-34.318-.469-4.546-.846-8.285-1.108-10.887-.13-1.3-.232-2.318-.3-3.009-.034-.346-.061-.61-.078-.788-.009-.089-.015-.157-.02-.2,0-.022,0-.039,0-.05a.074.074,0,0,1,0-.013s0,0,0,0Zm-13.462-77.968c4.307,16.38,7.187,35.89,8.99,51.351.9,7.72,1.531,14.412,1.936,19.172.2,2.38.348,4.277.444,5.577.048.65.082,1.15.106,1.488.012.169.02.3.025.382q0,.064.006.1c0,.011,0,.019,0,.024v.007l1.953-.129,1.953-.131v0a.018.018,0,0,0,0-.006c0-.006,0-.015,0-.026s0-.057-.007-.1c-.006-.089-.015-.22-.026-.392-.023-.344-.059-.852-.107-1.509-.1-1.315-.244-3.227-.448-5.624-.407-4.794-1.041-11.529-1.948-19.3-1.81-15.523-4.717-35.257-9.1-51.915ZM287.015,172c12.056,26.392,30.492,87.611,39.148,120.685l3.782-1.034c-8.657-33.074-27.166-94.6-39.383-121.344Zm-4.607-10.134c1.518,3.348,3.057,6.745,4.607,10.134l3.546-1.693c-1.547-3.382-3.084-6.773-4.6-10.122Zm-.02-.044h0l3.589-1.6h0Z"/>
    <path id="Path_3" data-name="Path 3" d="M118.753,82c3.946.013,6.057-1.659,8.86-4.5a24.847,24.847,0,0,0,5.815-10.39,29.283,29.283,0,0,0,.04-17.652c-1.913-5.653-5.714-10.39-11.171-12.563" transform="translate(-4.469)" fill="none" stroke="#00020a" stroke-linecap="round" stroke-linejoin="round" stroke-miterlimit="10" stroke-width="4"/>
    <path id="Path_4" data-name="Path 4" d="M110.193,144.554s15.06-31.847,30.659-59.889,22.018-40.2,29.911-40.2" transform="translate(-4.286)" fill="none" stroke="#00020a" stroke-linecap="round" stroke-linejoin="round" stroke-miterlimit="10" stroke-width="4"/>
    <path id="Path_5" data-name="Path 5" d="M142.856,83.418c4.691,1.064,9.71-.494,13.567-3.423a30.9,30.9,0,0,0,8.769-11.512c3.44-7.2,5.727-15,1.437-21.709" transform="translate(-4.985)" fill="none" stroke="#00020a" stroke-linecap="round" stroke-linejoin="round" stroke-miterlimit="10" stroke-width="4"/>
    <path id="Path_6" data-name="Path 6" d="M63.091,244.346S48.36,233.424,55,214.535s42.458-63.754,56.035-70.542,56.324-23.725,59.789-17.822,5.2,12.8,1.157,23.136-9.533,16.527-21.953,22.135a144.888,144.888,0,0,0-21.951,12.4L119.414,210.7" transform="translate(-3.068)" fill="none" stroke="#00020a" stroke-linecap="round" stroke-linejoin="round" stroke-miterlimit="10" stroke-width="4"/>
    <path id="Path_7" data-name="Path 7" d="M129.2,137.219a11.459,11.459,0,0,0,4.31,3.394,24.761,24.761,0,0,0,20.762.6,25.61,25.61,0,0,0,13.974-15.7" transform="translate(-4.693)" fill="none" stroke="#00020a" stroke-linecap="round" stroke-linejoin="round" stroke-miterlimit="10" stroke-width="4"/>
    <path id="Path_8" data-name="Path 8" d="M68.983,359.867s-38.83-53.538-31.9-76.562,42.949-58.44,53.346-63.164,60.655-18.594,64.12-13.87,3.757,16.822-6.931,28.923-41.016,27.453-41.016,27.453L95.921,291.865l15.6,36.894" transform="translate(-2.703)" fill="none" stroke="#00020a" stroke-linecap="round" stroke-linejoin="round" stroke-miterlimit="10" stroke-width="4"/>
    <path id="Path_9" data-name="Path 9" d="M109.206,214.679c4.751,5.73,12.849,6.625,19.921,4.571s12.953-7.124,17.772-12.794" transform="translate(-4.265)" fill="none" stroke="#00020a" stroke-linecap="round" stroke-linejoin="round" stroke-miterlimit="10" stroke-width="4"/>
    <path id="Path_10" data-name="Path 10" d="M155.1,170.563a179.186,179.186,0,0,0,19.433,85.316" transform="translate(-5.246)" fill="none" stroke="#00020a" stroke-linecap="round" stroke-linejoin="round" stroke-miterlimit="10" stroke-width="4"/>
    <path id="Path_11" data-name="Path 11" d="M123.362,254.845c6.247,8.829,12.762,17.508,19.009,26.338" transform="translate(-4.568)" fill="none" stroke="#00020a" stroke-linecap="round" stroke-linejoin="round" stroke-miterlimit="10" stroke-width="4"/>
    <path id="Path_12" data-name="Path 12" d="M131.179,294.835c14.928-19.059,33.491-32.9,54.1-45.252" transform="translate(-4.735)" fill="none" stroke="#00020a" stroke-linecap="round" stroke-linejoin="round" stroke-miterlimit="10" stroke-width="4"/>
    <path id="Path_13" data-name="Path 13" d="M266.216,116.57c-4.219,8.753-2.91,19.425,1.063,28.292,4.971,11.092,17.659,20.572,28.551,25.559" transform="translate(-7.571)" fill="none" stroke="#00020a" stroke-linecap="round" stroke-linejoin="round" stroke-miterlimit="10" stroke-width="4"/>
    <path id="Path_14" data-name="Path 14" d="M310.336,379.16c.658-1.009,1.173-1.837,1.545-2.45-.294-.321-.654-.709-1.077-1.155-1.349-1.423-3.342-3.443-5.9-5.812a141.171,141.171,0,0,0-21.474-16.412c-18.012-11.11-42.251-19.721-67.958-10.661-25.647,9.038-38.135,31.222-44.213,51.495a138.6,138.6,0,0,0-5.09,26.713c-.324,3.514-.457,6.391-.51,8.382-.017.654-.025,1.213-.029,1.667,48.931,16.191,85.5,2.5,109.95-15.294A144.027,144.027,0,0,0,303.4,388.757C306.487,384.852,308.8,381.514,310.336,379.16Z" transform="translate(-5.473)" fill="#fff" stroke="#000" stroke-width="4"/>
    <path id="Path_15" data-name="Path 15" d="M269.128,378.358c6.523,20.495-4.448,42.512-24.5,49.175s-41.6-4.547-48.119-25.042,4.451-42.506,24.5-49.169S262.608,357.867,269.128,378.358Z" transform="translate(-6.094)" fill="#ffbe08"/>
    <path id="Path_16" data-name="Path 16" d="M258.243,382.06c4.519,14.207-3.083,29.465-16.985,34.087A26.356,26.356,0,0,1,207.9,398.789c-4.519-14.207,3.086-29.465,16.986-34.083A26.351,26.351,0,0,1,258.243,382.06Z" transform="translate(-6.35)" fill="#00020a"/>
    <path id="Path_17" data-name="Path 17" d="M214.01,384.09A20.581,20.581,0,0,0,226.873,409.9Zm0,0a19.956,19.956,0,0,1,25.257-13.141,20.578,20.578,0,0,1,12.863,25.81Zm38.12,12.67A19.958,19.958,0,0,1,226.873,409.9Z" transform="translate(-6.487)" fill="none" stroke="#3a86ff" stroke-width="5"/>
    <path id="Path_18" data-name="Path 18" d="M1597.89,548.944a306.964,306.964,0,0,0,71.32,35.83c6.146,2.147,12.418,4.1,18.75,5.833a299.131,299.131,0,0,0,51.973,9.614c.528.064,1.057.1,1.6.128a3.8,3.8,0,0,0,.626.064c.626.064,1.282.128,1.947.161a7.514,7.514,0,0,0,.842.1c1.194.1,2.417.192,3.64.256,6.84.481,13.769.7,20.727.7,1.106,0,2.2,0,3.3-.029,4.707-20.575,11.224-43.586,19.728-60.924,19.631-40.128,103.965-161.748,118.987-183,0,0,1.947-2.692,4.834-7.083.714-1.121,1.5-2.339,2.349-3.621.548-.865,1.116-1.772,1.693-2.711,3.748-5.961,7.408-12.329,10.657-18.781.675-1.339,1.36-2.685,2.016-4.051,1.067-2.243,2.094-4.551,3.044-6.826,4.824-11.794,7.457-23.011,5.451-31.311-2.535-10.291-9.845-20.928-15.99-28.459-.1-.132-.2-.26-.284-.385-2.28-2.77-4.384-5.108-6-6.835a4.932,4.932,0,0,1,.078-6.439,28.411,28.411,0,0,0,6.175-21.626c-.039-.161-.039-.289-.069-.417-.685-5.705-3.073-12.275-8.181-19.646-3.865-5.576-8.034-11.185-12.174-16.537-.44-.609-.881-1.185-1.35-1.762-5.265-6.734-10.5-13.076-15.207-18.624a5.457,5.457,0,0,0-.6-.669c-4.864-5.74-9.091-10.512-12.105-13.845-2.975-3.333-4.766-5.224-4.766-5.224l-7.525-15.351v-.609c.029-3.59.088-22.21-.44-41.7-.411-16.793-1.253-34.228-2.887-43.137-.685-3.657-1.478-5.9-2.446-6.06a9.423,9.423,0,0,0-3.67.228c-8.025,1.731-22.234,10.832-27.821,24.517a4.105,4.105,0,0,0-.274.641s-4.423-7.852-9.287-12.819c-2.789-2.884-5.744-4.807-8.064-3.718-.313.16-.656.32-.969.513a8.148,8.148,0,0,0-.939.641,6.3,6.3,0,0,0-.568.449,13.218,13.218,0,0,0-1,.929A14.989,14.989,0,0,0,1804,48.477a29.26,29.26,0,0,0-1.722,2.5.155.155,0,0,1-.068.128,29.452,29.452,0,0,0-1.311,2.724c0,.032,0,.032-.029.064-.2.51-.382,1.026-.568,1.538-1.634,4.871-2.319,11.249-1.38,19.261v.064c.088.833.215,1.666.343,2.532.313,2.083.783,4.294,1.35,6.57,2.7,10.736,7.809,23.267,11.635,31.888.059.1.088.192.157.32.274.613.548,1.23.812,1.848,1.409,3.2-2.016,6.535-5.02,8.248h0a2.169,2.169,0,0,0-1.155,1.314c-.157.509-.411,1.282-.656,2.339a42.7,42.7,0,0,0-.6,15.832,41.408,41.408,0,0,0,4.139,12.5c-4.335,12.21-16.714,35.093-35.5,66.725-27.753,46.63-50.838,73.2-50.838,73.2a7.429,7.429,0,0,1-.127-.865c-.812-5.064-4.639-31.568-.47-47.56,4.639-17.691,29.475-66.693,19.063-99.158-10.373-32.465-19.63-35.413-25.394-34.227a5.448,5.448,0,0,0-2.574,1.73c-6.243,6.538-16.342,30.062-26.911,53.169-12.135,26.568-30.61,87.94-39.261,121.014-8.69,33.039-11.577,78.487-11.577,78.487s-9.218,93.869-13.867,112.778C1619.625,495.1,1607.079,526.574,1597.89,548.944Z" transform="translate(-36.136)" fill="#ed1e70"/>
    <path id="Path_19" data-name="Path 19" d="M1597.784,548.944l-3.611-1.549-1.252,3.053,2.7,1.83Zm71.32,35.83,1.262-3.785-.01,0Zm18.75,5.833,1.027-3.859-.01,0-.01,0Zm51.973,9.614.45-3.973-.049-.005-.039-.005Zm1.6.128.646-3.945-.205-.035-.215-.013Zm.626.064.391-3.98-.2-.02h-.2Zm1.947.161.851-3.9-.333-.075-.333-.016Zm.842.1-.431,3.975.059.007.068.005Zm3.64.256.274-3.99-.039,0-.029,0Zm24.024.673.1,4,3.024-.08.685-3.009Zm19.728-60.924,3.494,1.792.01,0Zm118.987-183-3.151-2.375-.01.016-.01.017Zm4.834-7.083,3.249,2.23.01-.016.01-.017Zm2.349-3.621,3.239,2.238.029-.036.02-.035Zm1.693-2.711L1916.8,342.1l-.01.014-.01.013Zm10.657-18.781-3.474-1.849-.01.011v.011Zm2.016-4.051,3.513,1.762v-.014Zm3.044-6.826,3.6,1.557.01-.013Zm5.451-31.311,3.807-.96-.01-.009v-.01Zm-15.99-28.459-3.161,2.362.068.1.088.1Zm-.284-.385,3.1-2.439-.049-.07-.059-.067Zm.254-34.9,3.885-.446-.02-.171-.029-.168Zm-.069-.417-3.885.491.029.242.059.237Zm-8.181-19.646-3.2,2.309v0Zm-12.174-16.537-3.151,2.373.039.055.039.053Zm-1.35-1.762-3.053,2.5.02.031.029.031Zm-15.207-18.624-3.171,2.348.1.14.117.132Zm-.6-.669-2.955,2.617.088.109.1.1Zm-12.105-13.845-2.887,2.7v.008l.01.008Zm-4.766-5.224-3.5,1.792.274.547.411.44Zm-7.525-15.351h-3.914v.946l.411.846Zm0-.609-3.914-.036v.036Zm-.44-41.7-3.914.1v.013Zm-2.887-43.137,3.846-.735v-.022Zm-2.446-6.06-.734,3.93.049.009.049.008Zm-3.67.228.812,3.914h0ZM1826,60.719l3.259,2.219.215-.322.147-.358Zm-.274.641-3.4,2,3.9,6.935,3.083-7.355Zm-9.287-12.819-2.779,2.813v.008l.01.008Zm-8.064-3.718-1.634-3.635-.059.028-.059.029Zm-1.908,1.154,2.172,3.328.137-.1.137-.108Zm-.568.449,2.476,3.1.029-.024.029-.024Zm-2.006,2.051-3-2.561-.029.039-.039.039Zm-1.722,2.5-3.3-2.163-.616.988v1.175Zm-.068.128-2.9-2.691-.3.343-.215.405Zm-1.311,2.724-3.591-1.591-.323.761v.83Zm-.029.064-2.77-2.828-.6.61-.3.807Zm-.568,1.538-3.67-1.4-.02.055-.02.055Zm-1.38,19.261h3.914v-.239l-.029-.237Zm0,.064H1794.9v.23l.02.229Zm.343,2.532-3.875.586.01.011V77.9Zm1.35,6.57-3.8.983v.012Zm11.635,31.888-3.562,1.652.127.3.176.271Zm.157.32,3.562-1.663-.029-.063-.029-.062Zm-5.363,11.41-3.738-1.2v0Zm-.656,2.339-3.807-.942v.013l-.01.013Zm-.6,15.832-3.875.612.01.02v.02Zm4.139,12.5,3.679,1.362.587-1.667-.812-1.567Zm-35.5,66.725,3.347,2.078v0Zm-50.838,73.2-3.826.868,1.664,7.643,5.089-5.855Zm-.127-.865,3.895-.442-.02-.1-.01-.1Zm-.47-47.56-3.777-1.036-.01.006Zm19.063-99.158-3.719,1.243v0Zm-25.394-34.227-.773-3.922-.02,0-.01,0Zm-2.574,1.73,2.8,2.793.01,0v-.006Zm-26.911,53.169-3.542-1.694v0Zm-39.261,121.014,3.777,1.038v0Zm-11.577,78.487,3.895.4.01-.07v-.07Zm-13.867,112.778-3.8-.973v0Zm190.747-365.523-3.562,1.64Zm105.952,123.263,2.955,2.621Zm-323.444,311.1a310.743,310.743,0,0,0,72.22,36.282l2.515-7.573a303.039,303.039,0,0,1-70.41-35.377Zm72.21,36.281c6.234,2.176,12.594,4.157,19.014,5.912l2.016-7.729c-6.243-1.707-12.428-3.635-18.5-5.753Zm18.995,5.906a302.818,302.818,0,0,0,52.629,9.739l.734-7.966a295.415,295.415,0,0,1-51.307-9.49Zm52.54,9.729c.666.08,1.311.117,1.82.148l.46-7.986c-.548-.033-.969-.059-1.37-.108Zm1.409.1a7.661,7.661,0,0,0,1.272.118v-8c.039,0,.068,0,.078,0l.029,0-.02,0-.069-.01Zm.881.1c.636.065,1.38.139,2.153.176l.372-7.991c-.548-.027-1.116-.081-1.742-.145Zm1.487.085a6.776,6.776,0,0,0,.949.142l.235.019.059,0,.02,0h0l.861-7.951c-.137-.016-.254-.026-.343-.032l-.108-.009c-.039,0-.059,0-.078-.006-.078-.007-.01,0,.108.022Zm1.39.179c1.194.1,2.456.2,3.748.264l.4-7.99c-1.164-.061-2.339-.153-3.533-.249Zm3.68.26c6.928.487,13.955.711,20.991.711v-8c-6.88,0-13.72-.219-20.453-.692Zm20.991.711c1.1,0,2.241,0,3.4-.03l-.2-8c-1.037.028-2.094.028-3.2.028Zm7.1-3.119c4.688-20.5,11.136-43.136,19.415-60.042l-7-3.583c-8.709,17.77-15.315,41.153-20.042,61.805Zm19.425-60.045c9.669-19.77,35.484-59.963,60.956-98.113,25.385-38.046,50.212-73.733,57.7-84.33l-6.341-4.684c-7.535,10.651-32.391,46.4-57.825,84.506-25.375,38-51.533,78.686-61.495,99.043Zm115.484-184.785,3.151,2.375h0v0s0-.005.01-.008.01-.015.02-.027a.974.974,0,0,1,.068-.1c.059-.088.157-.215.274-.381.235-.331.568-.816,1.008-1.439.861-1.245,2.084-3.044,3.552-5.27l-6.508-4.46c-1.419,2.165-2.6,3.908-3.435,5.106-.421.6-.744,1.062-.959,1.372-.117.156-.2.273-.254.35a.711.711,0,0,0-.059.085c-.01.01-.01.016-.02.02v0h0Zm8.1-4.886c.724-1.122,1.488-2.321,2.319-3.58l-6.488-4.476c-.861,1.3-1.654,2.541-2.378,3.663Zm2.368-3.651c.548-.867,1.125-1.787,1.713-2.743l-6.615-4.271c-.568.922-1.135,1.816-1.673,2.68Zm1.7-2.716c3.807-6.051,7.525-12.531,10.833-19.115l-6.958-3.655c-3.18,6.319-6.772,12.575-10.461,18.445Zm10.823-19.093c.695-1.351,1.39-2.731,2.065-4.139l-7.026-3.523c-.636,1.322-1.3,2.634-1.977,3.963Zm2.065-4.153c1.1-2.3,2.163-4.668,3.131-7.017l-7.212-3.114c-.91,2.2-1.918,4.445-2.955,6.636Zm3.141-7.03c4.864-11.888,7.975-24.164,5.646-33.815l-7.6,1.919c1.683,6.95-.48,17.108-5.265,28.808Zm5.637-33.834c-2.769-11.207-10.569-22.422-16.783-30.042l-6.009,5.124c6.067,7.442,12.888,17.5,15.2,26.875Zm-16.626-29.842c-.117-.157-.225-.31-.342-.462l-6.2,4.878c.068.1.147.2.225.308Zm-.45-.6c-2.349-2.845-4.5-5.246-6.155-7.02l-5.666,5.522c1.566,1.679,3.611,3.956,5.832,6.651Zm1.1-33.109c.019.106.029.2.019.1-.01-.035-.019-.131-.039-.241a2.775,2.775,0,0,0-.088-.458l-7.594,1.94a1.4,1.4,0,0,1-.049-.265c-.01-.045-.01-.075-.01-.041a.481.481,0,0,1,.01.065c0,.03.01.07.01.116.02.093.029.215.059.356Zm-.02-.123c-.783-6.471-3.454-13.655-8.876-21.468l-6.39,4.626c4.8,6.93,6.9,12.885,7.5,17.824Zm-8.876-21.464c-3.9-5.65-8.122-11.318-12.291-16.708l-6.146,4.961c4.11,5.314,8.24,10.863,12.047,16.365Zm-12.213-16.6c-.479-.665-.969-1.3-1.488-1.951l-6.018,5.121c.411.508.8,1.022,1.2,1.575Zm-1.439-1.888c-5.314-6.785-10.579-13.169-15.315-18.745l-5.911,5.239c4.678,5.519,9.884,11.82,15.11,18.5Zm-15.1-18.473a9.38,9.38,0,0,0-1-1.151l-5.539,5.657c.059.058.1.1.147.144s.059.07.078.091.029.028.029.024a.281.281,0,0,1-.059-.07Zm-.8-.94c-4.9-5.779-9.16-10.583-12.193-13.94l-5.754,5.426c2.994,3.308,7.193,8.048,12.027,13.749Zm-12.183-13.925c-1.5-1.682-2.7-3-3.533-3.906-.421-.451-.744-.8-.959-1.034-.117-.118-.2-.208-.254-.269-.029-.03-.049-.054-.068-.07s-.01-.014-.02-.019v-.007h0l-2.818,2.779-2.818,2.779h0s0,0,.01,0,0,.008.01.015a.621.621,0,0,0,.059.061c.049.055.127.139.235.251.206.223.519.557.92.995.812.876,1.987,2.167,3.464,3.817Zm-4.149-4.318-7.535-15.351-7,3.584,7.525,15.351Zm-7.114-13.559v-.609h-7.829v.609Zm0-.574c.029-3.62.088-22.292-.44-41.842l-7.829.224c.528,19.421.47,37.989.44,41.547Zm-.44-41.829c-.411-16.724-1.253-34.491-2.955-43.773l-7.692,1.471c1.566,8.537,2.407,25.638,2.818,42.5Zm-2.955-43.8a30.532,30.532,0,0,0-1.321-5.061,9.4,9.4,0,0,0-1.184-2.2,5.058,5.058,0,0,0-3.151-1.992l-1.272,7.894a2.844,2.844,0,0,1-1.761-.988c-.1-.131-.049-.11.088.24a22.672,22.672,0,0,1,.91,3.619Zm-5.558-9.233a13.1,13.1,0,0,0-5.216.245l1.625,7.825a6.091,6.091,0,0,1,2.124-.21Zm-5.206.243c-4.756,1.023-10.843,4.069-16.44,8.54a46.673,46.673,0,0,0-14.19,18.352l7.232,3.078a38.65,38.65,0,0,1,11.792-15.131c4.913-3.934,9.933-6.3,13.221-7.012ZM1822.752,58.5a6.066,6.066,0,0,0-.528,1.018c-.039.1-.068.2-.088.229-.02.049-.02.05-.01.037l7.193,3.151c.029-.065.049-.123.069-.173s.039-.093.049-.126a.108.108,0,0,0,.02-.044.046.046,0,0,0,.01-.032.022.022,0,0,0,.01-.019v-.006a.064.064,0,0,1-.01.028c-.01.018-.02.045-.039.079a2.318,2.318,0,0,1-.166.294Zm2.975,2.86,3.386-2h0v-.009c-.01-.006-.01-.013-.02-.023s-.02-.045-.039-.078c-.039-.067-.1-.162-.166-.282-.137-.241-.343-.586-.6-1.013-.519-.853-1.252-2.039-2.143-3.388a62.437,62.437,0,0,0-6.938-8.857l-5.539,5.657a54.666,54.666,0,0,1,5.989,7.688c.822,1.235,1.5,2.322,1.967,3.1.225.387.411.694.528.9.059.1.108.182.137.233.01.025.029.044.029.055s.01.009.01.011h0Zm-6.508-15.632a20.847,20.847,0,0,0-5.236-4.112,8.089,8.089,0,0,0-7.241-.428l3.269,7.269c-.352.167-.362-.117.47.31a13.669,13.669,0,0,1,3.18,2.586Zm-12.594-4.483c-.127.069-.744.363-1.233.661l4.032,6.86c.137-.087.215-.113.7-.365Zm-1.233.661a11.711,11.711,0,0,0-1.37.947l4.893,6.247a3.943,3.943,0,0,1,.509-.334Zm-1.1.743a9.711,9.711,0,0,0-.93.729l5.069,6.1c.078-.067.127-.111.166-.143s.049-.036.039-.025Zm-.871.681a15.213,15.213,0,0,0-1.292,1.2l5.529,5.657a9.7,9.7,0,0,1,.714-.662Zm-1.292,1.2c-.43.434-.851.908-1.243,1.389l6.009,5.122c.235-.288.5-.583.763-.854Zm-1.311,1.467c-.695.9-1.341,1.853-1.947,2.82l6.586,4.326a24.739,24.739,0,0,1,1.507-2.18Zm-2.564,4.983a4.02,4.02,0,0,1,.91-2.518c.029-.033.137-.151.039-.045L1805,53.8c-.078.088.049-.046.088-.1a4.341,4.341,0,0,0,.4-.559,4.171,4.171,0,0,0,.6-2.163Zm.431-1.814a33.937,33.937,0,0,0-1.487,3.076l7.183,3.181c.352-.831.734-1.611,1.145-2.372Zm-1.81,4.667a2.247,2.247,0,0,1,.02-.379,4.057,4.057,0,0,1,.969-2.252,1.264,1.264,0,0,1,.127-.134l5.529,5.657c.01,0,.01-.007.02-.012s.01-.015.02-.027.068-.069.127-.132a4.149,4.149,0,0,0,.6-.9,4.258,4.258,0,0,0,.4-1.4c.01-.152.02-.273.02-.326v-.091Zm.215-1.348c-.186.514-.382,1.044-.568,1.546l7.33,2.809c.2-.523.382-1.026.568-1.53Zm-.607,1.656c-1.859,5.552-2.554,12.553-1.556,21.032l7.77-.953c-.891-7.545-.206-13.3,1.194-17.49ZM1794.9,74.692v.064h7.829v-.064Zm.02.523c.108.914.245,1.829.362,2.66l7.75-1.172c-.137-.9-.245-1.652-.333-2.4Zm.372,2.682c.333,2.248.832,4.591,1.419,6.945l7.594-1.966c-.548-2.2-.988-4.277-1.282-6.2Zm1.419,6.956c2.789,11.088,8.024,23.879,11.87,32.546l7.124-3.3c-3.807-8.575-8.8-20.846-11.41-31.231Zm12.174,33.112a2.238,2.238,0,0,1-.215-.394v.01a.183.183,0,0,1,.029.055c.019.05.059.128.1.219l7.007-3.577c.01.027.02.044.02.038s-.01-.01-.02-.029a.581.581,0,0,0-.029-.069,4.939,4.939,0,0,0-.372-.691Zm-2.535,4.619a6.145,6.145,0,0,0-3.151,3.687l7.467,2.409a1.96,1.96,0,0,1-.421.736,1.408,1.408,0,0,1-.4.323Zm-3.151,3.692c-.137.47-.44,1.382-.724,2.6l7.6,1.885c.215-.9.421-1.534.587-2.082Zm-.734,2.623a46.955,46.955,0,0,0-.656,17.36l7.741-1.224a38.64,38.64,0,0,1,.538-14.3Zm-.646,17.4a45.373,45.373,0,0,0,4.541,13.718l6.919-3.743a37.7,37.7,0,0,1-3.738-11.279Zm4.325,10.485c-4.179,11.765-16.333,34.295-35.171,66.011l6.693,4.151c18.73-31.547,31.344-54.782,35.836-67.438Zm-35.171,66.008c-13.8,23.184-26.432,41.372-35.6,53.75-4.589,6.188-8.308,10.923-10.872,14.1-1.282,1.589-2.28,2.79-2.946,3.589-.333.4-.587.7-.753.9-.088.1-.147.171-.2.219-.02.023-.029.041-.039.051s-.01.01-.01.012v0h0s0,0,2.926,2.655,2.926,2.655,2.926,2.655v0s0,0,.01,0,.01-.011.01-.018c.02-.015.029-.037.059-.065.049-.056.117-.138.205-.245.186-.215.46-.532.8-.95.7-.836,1.732-2.075,3.043-3.7,2.632-3.259,6.42-8.081,11.078-14.363,9.306-12.564,22.087-30.975,36.051-54.422Zm-47.491,75.277,3.817-.867h0v.005s.01,0,.01.006v.038a.242.242,0,0,0-.01-.057c-.01-.073-.029-.217-.049-.433l-7.79.883c.039.362.088.65.117.865.02.108.039.2.049.268.01.036.01.067.02.093a.048.048,0,0,0,.01.036v.028h0S1719.657,298.937,1723.484,298.069Zm3.738-1.515c-.4-2.448-1.536-10.194-2.065-19.269-.528-9.178-.4-19.265,1.507-26.611l-7.564-2.06c-2.251,8.647-2.3,19.807-1.752,29.145.548,9.441,1.722,17.479,2.143,20.094Zm-.558-45.874c1.1-4.172,3.415-10.294,6.283-18.008,2.818-7.6,6.077-16.5,8.866-25.907,5.51-18.6,9.473-40.022,3.865-57.524l-7.447,2.491c4.8,14.963,1.556,34.272-3.914,52.714-2.7,9.117-5.871,17.8-8.69,25.387-2.77,7.464-5.294,14.1-6.517,18.775Zm19.014-101.436c-5.255-16.412-10.383-25.95-15.325-31.249a18.659,18.659,0,0,0-7.643-5.255,13.131,13.131,0,0,0-6.928-.4l1.536,7.843a5.5,5.5,0,0,1,2.955.162,11.013,11.013,0,0,1,4.413,3.17c3.729,4,8.416,12.164,13.544,28.217Zm-29.925-36.9a9.22,9.22,0,0,0-4.589,2.865l5.627,5.563a5.076,5.076,0,0,1,.685-.613c.147-.1.1-.032-.127.017Zm-4.58,2.853a46.817,46.817,0,0,0-5.93,8.594c-2.055,3.6-4.276,7.973-6.605,12.8-4.648,9.636-9.864,21.387-15.109,32.873l7.085,3.387c5.323-11.621,10.442-23.185,15.041-32.722,2.3-4.759,4.433-8.939,6.351-12.308a39.54,39.54,0,0,1,4.776-7.039Zm-27.645,54.27c-12.3,26.919-30.845,88.6-39.506,121.673l7.564,2.067c8.651-33.074,27.058-94.14,39.026-120.356Zm-39.506,121.668c-4.413,16.8-7.33,36.643-9.15,52.2-.91,7.8-1.546,14.554-1.957,19.364-.206,2.406-.352,4.326-.45,5.647-.039.661-.078,1.172-.108,1.52-.01.174-.02.307-.02.4a.451.451,0,0,0-.01.1v.037s0,0,3.9.26l3.9.259h0v-.028c0-.02.01-.052.01-.093a3.562,3.562,0,0,1,.029-.378c.02-.334.049-.831.1-1.478.1-1.293.245-3.181.44-5.553.411-4.743,1.037-11.413,1.938-19.109,1.791-15.429,4.658-34.827,8.934-51.068Zm-7.79,79.525c-3.895-.4-3.895-.4-3.895-.4v.016a.113.113,0,0,1-.01.05c0,.045-.01.112-.02.2-.02.178-.039.442-.078.787-.068.691-.166,1.707-.293,3.007-.264,2.6-.646,6.338-1.106,10.881-.939,9.089-2.241,21.4-3.679,34.3-2.9,25.979-6.341,53.831-8.582,62.961l7.594,1.946c2.407-9.779,5.9-38.316,8.768-64,1.448-12.931,2.74-25.268,3.68-34.371.47-4.552.851-8.3,1.106-10.9.137-1.3.235-2.323.3-3.016.039-.347.059-.612.078-.791.01-.09.02-.157.02-.2a.388.388,0,0,1,.01-.051v-.017Zm-17.664,111.808c-1.35,5.54-5.1,16.082-9.766,28.252-4.619,12.078-10.04,25.505-14.63,36.676l7.222,3.1c4.6-11.2,10.04-24.692,14.7-36.858,4.629-12.075,8.572-23.1,10.07-29.227ZM1922.02,243.8a32.4,32.4,0,0,0,7.1-24.693l-7.78.891a24.34,24.34,0,0,1-5.235,18.561ZM1808.739,117.729c.274.6.538,1.208.812,1.825l7.134-3.28c-.274-.619-.548-1.245-.822-1.871Zm.812,1.825a.026.026,0,0,1-.01-.023.109.109,0,0,1-.01-.056v-.023a2.331,2.331,0,0,1-.411.753,9.8,9.8,0,0,1-2.936,2.465l3.826,6.983a17.637,17.637,0,0,0,5.392-4.665,8.648,8.648,0,0,0,1.282-8.714Zm112.274,125.3a.443.443,0,0,1-.088-.327,1.23,1.23,0,0,1,.284-.73l-5.911-5.241a8.974,8.974,0,0,0,.049,11.82Z" transform="translate(-36.03)"/>
    <path id="Path_20" data-name="Path 20" d="M1636.572,370.361c1.947.2,1.947.2,1.947.2v.068l-.02.2-.078.79c-.068.693-.176,1.711-.3,3.014-.264,2.605-.646,6.348-1.106,10.9-.94,9.1-2.241,21.431-3.68,34.354-2.877,25.756-6.361,54.119-8.719,63.738h0l-1.9-.486Zm0,0s2.887-45.447,11.577-78.486c8.651-33.074,27.127-94.446,39.261-121.015Zm0,0,1.947.2.01-.035v-.066l.01-.1.01-.145c0-.067.01-.146.01-.237.029-.338.059-.838.108-1.488.1-1.3.245-3.2.44-5.577.411-4.76,1.037-11.452,1.938-19.172,1.81-15.461,4.687-34.971,8.993-51.351v0c8.661-33.073,27.088-94.292,39.153-120.685Zm87.124-73.454c-.069-.429-.157-1.011-.264-1.728a.242.242,0,0,1-.049.059c-.333.4-.6.708-.763.909-.088.1-.157.176-.2.226l-.049.055-.01.013v0h0l.6.546m.734-.083-.734.083m.734-.083-.695.117m.695-.117c.068.576.127.865.127.865m-.861-.782-1.2.138v.053c0,.017.01.034.01.05l1.233-.207m-.039-.034c.01.011.029.023.039.034m0,0c.205.185.47.428.822.748m0,0,1.908-.433v0c0-.018-.01-.055-.02-.109-.01-.109-.039-.289-.068-.541v-.052l-.01-.052c-.039-.225-.078-.494-.127-.8-.313.371-.577.691-.8.959-.02.02-.029.04-.049.06C1724.107,297.444,1723.823,297.772,1723.823,297.772Zm139.782-171.2c.029-3.59.1-22.21-.44-41.7Zm0,0v.609m0-.609v.609m0,0,7.525,15.351m-7.525-15.351,7.525,15.351m0,0s1.791,1.891,4.766,5.224c3.014,3.333,7.251,8.1,12.105,13.844a5.536,5.536,0,0,1,.6.67c4.707,5.548,9.943,11.89,15.217,18.624.47.576.91,1.153,1.341,1.762,4.149,5.352,8.318,10.961,12.174,16.537,5.108,7.371,7.5,13.941,8.181,19.646a1.434,1.434,0,0,1,.039.209,1.791,1.791,0,0,0,.029.207,28.374,28.374,0,0,1-6.175,21.627,4.92,4.92,0,0,0-.068,6.439c1.6,1.727,3.709,4.065,5.989,6.835Zm-43.224-81.6c.284-.676.587-1.351.9-2.022.127.155.235.288.323.4s.167.2.215.257l.049.067.02.017v0h0Zm0,0s-.529-.655-1.4-1.705c-.137.306-.264.611-.4.917Zm29.563-23.289a.9.9,0,0,1-.489-.246s0,.007.01.012c.02.034.059.094.108.186A3.12,3.12,0,0,1,1857.469,37.642Zm0,0,.049.008-.029,0Zm-55.006,16.479-1.36-.526,1.38,1.414.029-.025c.01-.012.029-.037.059-.07a2.155,2.155,0,0,0,.294-.423l.059-.167m-.46-.2.46.2m-.46-.2-1.331-.59h1.957v.051a1.292,1.292,0,0,1-.01.167,2.224,2.224,0,0,1-.088.432l-.059.145-.01,0m-.46-.2.47.18c0,.008-.01.015-.01.023M1670.069,582.583a304.914,304.914,0,0,1-69.509-34.693L1909.981,356.2l-.01.009c-7.516,10.637-32.372,46.369-57.8,84.462-25.385,38.04-51.464,78.6-61.358,98.809-8.386,17.124-14.845,39.617-19.533,59.845-.568,0-1.145,0-1.732,0-6.928,0-13.808-.22-20.6-.7l-.02,0h-.01c-1.184-.062-2.378-.156-3.562-.251-.088-.01-.176-.017-.245-.022l-.088-.007-.108-.009c-.108-.009-.147-.016-.166-.019l-.157-.037-.166-.008c-.607-.03-1.223-.089-1.85-.153l-.1-.01h-.1a.879.879,0,0,1-.108-.008c-.049-.006-.117-.015-.2-.029l-.1-.017-.108-.006c-.538-.033-1.018-.062-1.488-.118l-.019,0-.029,0a297.247,297.247,0,0,1-51.63-9.553l-.01,0c-6.292-1.718-12.516-3.66-18.623-5.793Zm47.217-464.662h.01l-.4-1.958.382,1.96Zm84.149-41.229v-.006l-1.938.3,1.938-.293Zm1.311,6.371-1.9.5,1.9-.491Zm55.613-40.953v.005l1.918-.379-1.918.368Zm-65.791,498.267c19.63-40.128,103.965-161.748,118.987-183Zm16.969-494.035c.01,0,.02-.007.02-.01a.141.141,0,0,0,.039-.018l-.871-1.789Zm-3.8,3.117c.01-.007.01-.013.02-.019s.01-.013.01-.02l-1.536-1.242Zm-1.272,1.219h-1.957l1.644,1.082c.049-.067.088-.133.127-.2A2.205,2.205,0,0,0,1804.469,50.679Zm-.519,1.412c.029-.037.078-.1.137-.176.02-.046.049-.091.068-.137l-1.7-.971,1.448,1.345C1803.862,52.193,1803.931,52.121,1803.95,52.091Zm-1.585,3.745a.033.033,0,0,0,.01-.028.031.031,0,0,0,.01-.027l-1.85-.647Zm-1.253,18.559v-.053c0-.037-.01-.075-.01-.113l-1.4.165-.548.064h1.957Zm13.152,40.228c-.01-.034-.029-.068-.039-.1-.029-.056-.068-.118-.108-.182l-1.634,1.11Zm-6.3,30.421s0-.007-.01-.011v-.009l-1.928.326Z" transform="translate(-36.194)" fill="#ed1e70" stroke="#000" stroke-width="4"/>
    <path id="Path_21" data-name="Path 21" d="M1867.1,84.965c-3.944.013-6.057-1.659-8.856-4.5a24.831,24.831,0,0,1-5.813-10.39,29.29,29.29,0,0,1-.049-17.652c1.918-5.653,5.715-10.39,11.175-12.563" transform="translate(-41.556)" fill="none" stroke="#00020a" stroke-linecap="round" stroke-linejoin="round" stroke-miterlimit="10" stroke-width="4"/>
    <path id="Path_22" data-name="Path 22" d="M1874.688,144.554s-15.061-31.847-30.659-59.889-21.852-38.878-29.749-38.878" transform="translate(-40.769)" fill="none" stroke="#00020a" stroke-linecap="round" stroke-linejoin="round" stroke-miterlimit="10" stroke-width="4"/>
    <path id="Path_23" data-name="Path 23" d="M1844.749,85.722c-4.687,1.064-9.708-.493-13.563-3.423a30.875,30.875,0,0,1-8.768-11.512c-3.445-7.2-5.725-15-1.438-21.709" transform="translate(-40.862)" fill="none" stroke="#00020a" stroke-linecap="round" stroke-linejoin="round" stroke-miterlimit="10" stroke-width="4"/>
    <path id="Path_24" data-name="Path 24" d="M1920.467,244.346s14.728-10.922,8.083-29.811-42.451-63.754-56.034-70.542-56.318-23.725-59.782-17.822-5.206,12.8-1.165,23.136,9.541,16.527,21.96,22.135a144.969,144.969,0,0,1,21.95,12.4l8.661,26.859" transform="translate(-40.661)" fill="none" stroke="#00020a" stroke-linecap="round" stroke-linejoin="round" stroke-miterlimit="10" stroke-width="4"/>
    <path id="Path_25" data-name="Path 25" d="M1856.146,137.219a11.423,11.423,0,0,1-4.306,3.394,24.748,24.748,0,0,1-20.756.6,25.633,25.633,0,0,1-13.984-15.7" transform="translate(-40.829)" fill="none" stroke="#00020a" stroke-linecap="round" stroke-linejoin="round" stroke-miterlimit="10" stroke-width="4"/>
    <path id="Path_26" data-name="Path 26" d="M1913.945,358.55s36.668-52.221,29.739-75.245-40.152-58.44-50.544-63.164-60.653-18.594-64.127-13.87-3.758,16.822,6.938,28.923,41.013,27.453,41.013,27.453l10.686,29.218-15.6,36.894" transform="translate(-41.039)" fill="none" stroke="#00020a" stroke-linecap="round" stroke-linejoin="round" stroke-miterlimit="10" stroke-width="4"/>
    <path id="Path_27" data-name="Path 27" d="M1876.175,214.679c-4.756,5.73-12.849,6.625-19.924,4.571s-12.947-7.124-17.771-12.794" transform="translate(-41.287)" fill="none" stroke="#00020a" stroke-linecap="round" stroke-linejoin="round" stroke-miterlimit="10" stroke-width="4"/>
    <path id="Path_28" data-name="Path 28" d="M1830.675,170.563a179.153,179.153,0,0,1-19.435,85.316" transform="translate(-40.704)" fill="none" stroke="#00020a" stroke-linecap="round" stroke-linejoin="round" stroke-miterlimit="10" stroke-width="4"/>
    <path id="Path_29" data-name="Path 29" d="M1862.424,254.844c-6.243,8.83-12.761,17.509-19,26.338" transform="translate(-41.393)" fill="none" stroke="#00020a" stroke-linecap="round" stroke-linejoin="round" stroke-miterlimit="10" stroke-width="4"/>
    <path id="Path_30" data-name="Path 30" d="M1853.847,294.835c-14.933-19.059-33.5-32.9-54.1-45.252" transform="translate(-40.458)" fill="none" stroke="#00020a" stroke-linecap="round" stroke-linejoin="round" stroke-miterlimit="10" stroke-width="4"/>
    <path id="Path_31" data-name="Path 31" d="M1720.6,117.37c4.218,8.753,2.906,19.425-1.067,28.293-4.971,11.092-17.654,20.572-28.546,25.558" transform="translate(-38.13)" fill="none" stroke="#00020a" stroke-linecap="round" stroke-linejoin="round" stroke-miterlimit="10" stroke-width="4"/>
    <path id="Path_32" data-name="Path 32" d="M1672.666,379.159c-.656-1.008-1.174-1.836-1.546-2.45.294-.321.656-.708,1.076-1.155,1.35-1.422,3.347-3.442,5.9-5.812a141.363,141.363,0,0,1,21.48-16.411c18.006-11.11,42.246-19.721,67.953-10.661,25.649,9.038,38.136,31.221,44.213,51.495a138.426,138.426,0,0,1,5.089,26.712c.323,3.515.46,6.391.509,8.383.02.654.029,1.213.029,1.666-48.93,16.192-85.5,2.5-109.945-15.293a144.2,144.2,0,0,1-27.821-26.876C1676.522,384.851,1674.2,381.513,1672.666,379.159Z" transform="translate(-37.704)" fill="#fff" stroke="#000" stroke-width="4"/>
    <path id="Path_33" data-name="Path 33" d="M1715.409,378.358c-6.527,20.495,4.443,42.512,24.5,49.175s41.6-4.548,48.117-25.043-4.453-42.505-24.5-49.168S1721.926,357.866,1715.409,378.358Z" transform="translate(-38.612)" fill="#ffcd6c"/>
    <path id="Path_34" data-name="Path 34" d="M1726.8,382.06c-4.521,14.207,3.083,29.465,16.988,34.087a26.353,26.353,0,0,0,33.35-17.358c4.521-14.207-3.083-29.465-16.979-34.083A26.357,26.357,0,0,0,1726.8,382.06Z" transform="translate(-38.868)" fill="#00020a"/>
    <path id="Path_35" data-name="Path 35" d="M1691.689,161.03c6.782-14.969,13.152-29.023,18.153-37.273a35.649,35.649,0,0,1,4.325-6.065,5.449,5.449,0,0,1,2.574-1.73c5.774-1.186,15.021,1.762,25.4,34.227,8.044,25.094-4.971,60.068-13.436,82.826-2.486,6.684-4.58,12.315-5.637,16.332-4.169,15.992-.342,42.5.47,47.559.068.577.127.866.127.866s21.842-25.138,48.577-69.426q1.042-1.717,2.084-3.475c18.789-31.632,31.168-54.515,35.5-66.725a41.408,41.408,0,0,1-4.139-12.5,42.208,42.208,0,0,1-.47-6.891c-.255-5.168.117-11.39,3.063-12.892a13.1,13.1,0,0,0,4.453-3.994,4.255,4.255,0,0,0,.382-3.956c-.264-.618-.538-1.235-.812-1.848-.02-.045-.039-.086-.059-.125a1.246,1.246,0,0,0-.1-.195c-3.826-8.621-8.934-21.152-11.635-31.888-.568-2.275-1.037-4.487-1.35-6.57l-.049-.334h0c-.108-.746-.215-1.472-.294-2.2v-.064c-.939-8.012-.254-14.39,1.38-19.261l.186-.514c.127-.343.255-.685.382-1.025.01-.018.019-.026.019-.036s.01-.015.01-.028a29.452,29.452,0,0,1,1.311-2.724l.01-.009a.16.16,0,0,0,.059-.119l.176-.282v-.015c.568-.9,1.125-1.731,1.722-2.5.313-.385.666-.769,1.008-1.122a13.24,13.24,0,0,1,1-.929c.2-.164.382-.321.568-.449a8.157,8.157,0,0,1,.939-.641c.235-.145.489-.271.734-.393.088-.04.166-.08.245-.119,2.319-1.09,5.265.833,8.054,3.718,3.562,3.636,7.878,8.748,9.933,11.226A44.062,44.062,0,0,1,1840.669,42.7a30.654,30.654,0,0,1,13.338-6.8,9.421,9.421,0,0,1,3.67-.228c.979.163,1.762,2.4,2.447,6.06,1.634,8.91,2.486,26.344,2.887,43.137.538,19.485.47,38.105.44,41.7v.608l7.525,15.352s1.791,1.89,4.766,5.223c3.014,3.334,7.251,8.106,12.105,13.845h0a5.457,5.457,0,0,1,.6.669c4.707,5.548,9.943,11.89,15.217,18.623.47.577.91,1.154,1.35,1.763,4.14,5.352,8.308,10.961,12.164,16.537,5.108,7.371,7.5,13.941,8.181,19.646a1.434,1.434,0,0,1,.039.209,1.791,1.791,0,0,0,.029.207,29.075,29.075,0,0,1-3.865,18.436,26.12,26.12,0,0,1-2.486,3.488,4.37,4.37,0,0,0-.391.521,4.821,4.821,0,0,0,.5,5.621c1.6,1.726,3.709,4.065,5.989,6.835.1.125.186.253.284.385,6.146,7.531,13.456,18.168,16,28.459,2.006,8.3-.636,19.517-5.461,31.311-.939,2.275-1.977,4.583-3.043,6.826-.656,1.365-1.331,2.711-2.016,4.051-2.564,5.1-5.392,10.159-8.318,15q-1.248,2.067-2.515,4.078c-.577.94-1.145,1.846-1.693,2.712-.851,1.282-1.634,2.5-2.349,3.621-2.887,4.391-4.834,7.083-4.834,7.083-12.458,17.618-72.572,104.248-103.936,156.206-6.371,10.577-11.547,19.7-14.875,26.493-6.067,12.376-11.127,27.642-15.237,42.85a13.25,13.25,0,0,1,4.971,10.389v15.689A11.567,11.567,0,0,0,1793.589,621h2.632a9,9,0,0,1,0,18h-6a8.252,8.252,0,0,0,0,16.5h25.326a8.161,8.161,0,0,0,8.073-8.25A8.167,8.167,0,0,1,1831.7,639h5.177a13.4,13.4,0,0,1,13.25,13.539v7.172a9.685,9.685,0,0,1-9.58,9.789h-2a7.752,7.752,0,0,0,0,15.5h11.743a6.179,6.179,0,0,1,6.116,6.25,6.185,6.185,0,0,0,6.116,6.25h7.339a6.179,6.179,0,0,0,6.116-6.25,6.185,6.185,0,0,1,6.116-6.25h5.382a11.626,11.626,0,0,1,11.5,11.75v.5a12.125,12.125,0,0,0,11.988,12.25h3.425a11.127,11.127,0,0,1,11.009,11.25V721a10.887,10.887,0,0,0,10.765,11h1.468a9.4,9.4,0,0,0,9.3-9.5,9.4,9.4,0,0,1,9.3-9.5h1.468a10.881,10.881,0,0,0,10.765-11v-3a13.854,13.854,0,0,1,13.7-14h75.263a2.5,2.5,0,0,1,0,5h-37.627c-22.136,0-40.083,18.335-40.083,40.952V796.5c0,14.083-11.166,25.5-24.954,25.5h-13.7a11.38,11.38,0,0,1-11.254-11.5,11.374,11.374,0,0,0-11.254-11.5h-1.517a12.922,12.922,0,0,1-12.78-13.056v-8.25A19.481,19.481,0,0,0,1884.98,758H1873.53a7.921,7.921,0,0,0-7.829,8v2.75a5.2,5.2,0,0,0,5.138,5.25,5.194,5.194,0,0,1,5.138,5.25V782a7.915,7.915,0,0,1-7.829,8H1846.13a7.921,7.921,0,0,1-7.829-8v-1.961a5.98,5.98,0,0,1,5.911-6.039,5.973,5.973,0,0,0,5.911-6.039V766a7.915,7.915,0,0,0-7.829-8h-11.332a15.835,15.835,0,0,0-15.657,16,15.83,15.83,0,0,1-15.657,16h-15.168a10.4,10.4,0,0,1-10.275-10.5V778a8.9,8.9,0,0,1,8.807-9,8.9,8.9,0,0,0,8.807-9V736.25a17.559,17.559,0,0,0-17.37-17.75h-5.872a11.632,11.632,0,0,0-11.5,11.75,11.626,11.626,0,0,1-11.5,11.75h-25.688a8.5,8.5,0,0,1,0-17h3.611a12.062,12.062,0,0,0,11.929-12.187V697.187A12.061,12.061,0,0,0,1723.5,685h-5.813a6.185,6.185,0,0,0-6.116,6.25,6.179,6.179,0,0,1-6.116,6.25h-13.025a7.669,7.669,0,0,0-7.584,7.75,7.669,7.669,0,0,1-7.584,7.75h-8.044a15.792,15.792,0,0,1-15.618-15.967V684.374a6.8,6.8,0,0,1,6.723-6.874,6.8,6.8,0,0,0,6.723-6.874V661a13.355,13.355,0,0,0-13.211-13.5h-3.914a9.394,9.394,0,0,1-9.3-9.493,9.392,9.392,0,0,0-9.287-9.492h-9.277a11.4,11.4,0,0,1-11.283-11.523v-4.133a7.313,7.313,0,0,1,7.232-7.39,7.307,7.307,0,0,0,7.232-7.39V574.851a13.679,13.679,0,0,0-13.524-13.827h-10.794a7.758,7.758,0,0,1-1.84-15.245c9.042-22.079,20.57-51.217,23.291-62.342,4.648-18.909,13.867-112.778,13.867-112.778s2.887-45.448,11.577-78.487c8.651-33.074,27.127-94.446,39.261-121.015C1688.626,167.772,1690.162,164.378,1691.689,161.03Z" transform="translate(-36.039)" fill="#ed1e70" fill-rule="evenodd"/>
    <path id="Path_36" data-name="Path 36" d="M1709.8,123.756l1.663,1.054V124.8Zm-18.153,37.273-1.781-.84Zm22.478-43.337,1.4,1.4.01-.006Zm2.574-1.73-.391-1.961-.01,0Zm25.4,34.227-1.859.621v0Zm-13.436,82.826,1.752.894.049-.09.029-.093Zm0,0-1.752-.894-.039.089-.039.094Zm-5.637,16.332-1.889-.518v0Zm.47,47.56,1.947-.221v-.052l-.01-.052Zm.127.865-1.908.434.832,3.821,2.544-2.927Zm48.577-69.425,1.664,1.05h0Zm2.084-3.476,1.673,1.039v0Zm35.5-66.725,1.84.681.294-.834-.411-.783Zm-4.139-12.5-1.938.306v.02Zm-.47-6.891,1.957.027v-.126Zm3.063-12.892.871,1.789.039-.02.039-.023Zm4.453-3.994,1.644,1.09.029-.041.02-.041Zm.382-3.956-1.781.82Zm-.812-1.848,1.781-.831-.02-.032-.01-.031Zm-.157-.32-1.781.826.059.148.088.135Zm-11.635-31.888-1.9.491v.006Zm-1.35-6.57-1.938.294v.01Zm-.049-.334-1.937.248v.046Zm0,0,1.947-.248-.01-.023v-.023Zm-.294-2.2h-1.957v.115l.01.114Zm0-.064h1.957v-.119l-.019-.119Zm1.38-19.261-1.83-.7-.01.027-.01.027Zm.186-.512,1.83.7h0Zm.382-1.026-1.39-1.414-.294.3-.156.4Zm.029-.064-1.8-.8-.157.381v.415Zm1.311-2.724-1.439-1.353-.156.174-.108.207Zm.01-.009-1.438-1.356v0Zm.059-.119-1.644-1.081-.313.494v.587Zm.176-.282,1.634,1.094.274-.42.039-.5Zm0-.015-1.644-1.082-.313.494v.587Zm1.722-2.5-1.5-1.28-.02.019-.01.02Zm1.008-1.122-1.39-1.414h0Zm1-.929,1.243,1.548.02-.012.01-.012Zm.568-.449,1.086,1.664.068-.048.068-.054Zm.939-.641,1.008,1.715h0Zm.734-.394.861,1.8h0Zm.245-.119-.822-1.817-.029.014-.029.015Zm8.054,3.718-1.39,1.406.01.008Zm9.933,11.226-1.5,1.293,1.977,2.385,1.292-2.834ZM1840.626,42.7l1.135,1.625.059-.041.059-.045Zm13.338-6.8.411,1.957h0Zm3.67-.228-.362,1.965.02,0,.029,0Zm2.447,6.06,1.928-.368v-.011Zm2.887,43.137-1.957.05v.006Zm.44,41.7-1.957-.018v.018Zm0,.608h-1.957v.473l.206.423Zm7.525,15.352-1.752.9.137.273.205.22Zm4.766,5.223-1.439,1.349v.008ZM1887.8,161.6l-1.478,1.309.02.024.019.024Zm.01,0-1.439,1.357.039.053.059.049Zm0,0,1.38-1.414-.02-.023-.029-.022Zm.587.669-1.585,1.174.059.07.049.066Zm15.217,18.623-1.536,1.25.02.015.01.016Zm1.35,1.763-1.585,1.187.029.027.02.026Zm12.164,16.537-1.6,1.155v0Zm8.181,19.646-1.938.245.01.121.029.119Zm.039.209,1.938-.233h0Zm.029.207,1.947-.223-.01-.085-.02-.084Zm-3.865,18.436-1.664-1.061v.012l-.01.011Zm-2.486,3.488-1.478-1.31h0Zm-.391.521-1.625-1.106-.039.056-.039.059Zm.5,5.621-1.419,1.38h0Zm5.989,6.835,1.556-1.22-.029-.034-.029-.034Zm.284.385-1.575,1.181.029.051.039.049Zm16,28.459,1.9-.48-.01-.01Zm-5.461,31.311,1.8.778v-.006Zm-3.043,6.826,1.761.881v-.007Zm-2.016,4.051-1.732-.925-.01.011Zm-8.318,15-1.664-1.051v0Zm-2.515,4.079-1.644-1.082v.007l-.01.007Zm-1.693,2.711,1.625,1.119.01-.018.01-.018Zm-2.349,3.621,1.625,1.115V351.7l.01-.008Zm-4.834,7.083-1.576-1.188-.01.008v.009ZM1807.247,513.885l-1.664-1.05h0Zm-14.875,26.493,1.752.9v0Zm-15.237,42.85-1.889-.533-.343,1.288,1.027.822Zm-178.094-37.449.48,1.94.949-.242.382-.927Zm23.291-62.342-1.9-.487v0ZM1636.2,370.659l1.947.2v-.035l.01-.035Zm11.577-78.487,1.889.519v0Zm39.261-121.014-1.771-.847h0Zm21.1-48.455c-5.079,8.38-11.508,22.573-18.27,37.486l3.552,1.681c6.811-15.025,13.123-28.939,18.045-37.06Zm4.59-6.407a38.237,38.237,0,0,0-4.6,6.415l3.337,2.091a34.1,34.1,0,0,1,4.061-5.713ZM1716.3,114a7.356,7.356,0,0,0-3.582,2.3l2.818,2.782a3.772,3.772,0,0,1,1.566-1.164Zm27.665,35.564c-5.216-16.322-10.236-25.518-14.875-30.491a16.753,16.753,0,0,0-6.84-4.733,11.222,11.222,0,0,0-5.94-.343l.773,3.921a7.432,7.432,0,0,1,3.953.222,12.947,12.947,0,0,1,5.216,3.692c4.032,4.321,8.827,12.832,13.994,28.974ZM1730.5,233.726c4.228-11.362,9.649-25.921,12.986-40.8,3.337-14.843,4.668-30.292.479-43.359l-3.719,1.246c3.856,12.027,2.711,26.612-.577,41.219-3.269,14.57-8.582,28.877-12.829,40.273Zm-.078.183h0l-3.5-1.789h0Zm-5.5,15.956c1.028-3.894,3.073-9.41,5.578-16.139l-3.66-1.422c-2.466,6.64-4.609,12.386-5.7,16.525Zm.519,46.717c-.4-2.49-1.556-10.309-2.084-19.476-.538-9.218-.43-19.573,1.576-27.244l-3.787-1.03c-2.172,8.321-2.241,19.213-1.693,28.511.538,9.35,1.713,17.315,2.124,19.888Zm-1.81,1.19,1.908-.434h0s0,0,.01,0v.006s0-.005-.01-.014-.01-.055-.02-.109c-.01-.109-.039-.289-.068-.541l-3.885.441c.029.325.068.577.1.757.01.09.029.162.039.215,0,.027.01.049.01.067s0,.017.01.023v.015h0S1721.718,298.206,1723.626,297.772ZM1770.54,227.3c-13.328,22.081-25.443,39.383-34.211,51.159-4.384,5.888-7.927,10.393-10.383,13.422-1.223,1.515-2.172,2.66-2.809,3.425q-.484.574-.734.861l-.176.213a.267.267,0,0,0-.049.052c-.01.005-.01.009-.01.012v0h0l1.458,1.328c1.468,1.328,1.468,1.327,1.468,1.327h0v0c.01,0,.01-.009.02-.016s.029-.033.049-.058c.039-.051.108-.127.2-.226.166-.2.421-.495.744-.887.656-.783,1.624-1.947,2.867-3.481,2.476-3.068,6.057-7.615,10.481-13.548,8.837-11.865,21.01-29.275,34.417-51.481Zm2.075-3.466c-.695,1.168-1.39,2.324-2.075,3.466l3.327,2.1c.695-1.149,1.39-2.311,2.094-3.486Zm35.337-66.366c-4.257,11.988-16.528,34.694-35.337,66.368l3.347,2.075c18.76-31.589,31.256-54.648,35.67-67.081Zm-4.237-11.492a43.7,43.7,0,0,0,4.345,13.109l3.454-1.872a39.666,39.666,0,0,1-3.934-11.889Zm-.489-7.245a44.245,44.245,0,0,0,.489,7.225l3.865-.612a40.1,40.1,0,0,1-.44-6.558Zm4.139-14.652a6.17,6.17,0,0,0-2.613,2.788,13.486,13.486,0,0,0-1.165,3.71,38.411,38.411,0,0,0-.362,8.28l3.914-.2a34,34,0,0,1,.3-7.36,9.665,9.665,0,0,1,.783-2.59,2.3,2.3,0,0,1,.891-1.054Zm3.7-3.3a11.306,11.306,0,0,1-3.777,3.339l1.908,3.491a15.075,15.075,0,0,0,5.147-4.65Zm.235-2.046a2.252,2.252,0,0,1-.294,2.128l3.386,2.016a6.278,6.278,0,0,0,.479-5.784Zm-.812-1.836c.274.607.538,1.218.812,1.836l3.572-1.64-.822-1.859Zm-.01-.043c-.049-.08-.078-.143-.069-.123.01,0,.01.012.01.025a.3.3,0,0,1,.029.049,1.1,1.1,0,0,0,.069.155l3.5-1.789a.047.047,0,0,1-.01-.026c-.01-.01-.01-.019-.02-.035a.392.392,0,0,1-.029-.055,2.165,2.165,0,0,0-.225-.42Zm-11.9-32.5c2.74,10.912,7.917,23.573,11.753,32.217l3.562-1.652c-3.817-8.6-8.866-21-11.518-31.56Zm-1.39-6.763c.333,2.166.812,4.443,1.39,6.757l3.8-.983c-.558-2.236-1.008-4.382-1.311-6.383Zm-.049-.344.049.334,3.875-.588-.049-.334Zm0-.046h0l3.885-.5h0Zm-.3-2.217c.088.764.2,1.522.3,2.263l3.875-.589c-.108-.752-.215-1.445-.284-2.132Zm-.01-.293v.064h3.914v-.064Zm1.487-19.908c-1.752,5.212-2.446,11.9-1.478,20.147l3.885-.477c-.91-7.779-.225-13.845,1.292-18.375Zm.206-.566-.186.512,3.66,1.4.186-.512Zm.372-1.031c-.127.343-.245.689-.372,1.031l3.66,1.4q.191-.515.382-1.021Zm-.088.642c0,.045,0-.063.01-.18a1.868,1.868,0,0,1,.186-.682,1.79,1.79,0,0,1,.294-.431c.039-.043.068-.081.049-.057l2.769,2.828a.188.188,0,0,1,.02-.025.4.4,0,0,0,.069-.07,2.158,2.158,0,0,0,.3-.457,2.064,2.064,0,0,0,.206-.708c0-.077.01-.139.01-.167v-.051Zm1.566-3.7c-.5.917-.969,1.874-1.409,2.9l3.592,1.59c.382-.9.793-1.735,1.233-2.548Zm.274-.39-.01.009,2.887,2.706v-.009Zm-.46,1.233a1.97,1.97,0,0,1,.225-.9,2.03,2.03,0,0,1,.235-.332l2.877,2.713a2.165,2.165,0,0,0,.577-1.476Zm.5-1.375c-.069.1-.127.2-.186.294l3.288,2.163c.059-.091.117-.181.166-.269Zm-.323,1.078a.888.888,0,0,1,.01-.159l3.895.348a1.24,1.24,0,0,0,.01-.189Zm2.153-3.741a31.578,31.578,0,0,0-1.84,2.66l3.288,2.163c.548-.863,1.076-1.638,1.615-2.34Zm1.145-1.294c-.382.393-.763.823-1.116,1.256l3,2.561c.274-.336.577-.676.881-.988Zm1.155-1.063a14.222,14.222,0,0,0-1.155,1.063l2.769,2.829c.3-.305.568-.549.861-.8Zm.714-.565a8.551,8.551,0,0,0-.744.589l2.535,3.048a4.024,4.024,0,0,1,.382-.308Zm1.018-.692a9.93,9.93,0,0,0-1.155.794l2.447,3.124a6.441,6.441,0,0,1,.724-.488Zm.891-.476c-.235.115-.568.279-.891.476l2.016,3.43c.156-.093.333-.182.587-.311Zm.215-.111-.215.111,1.713,3.595.254-.128Zm10.324,4.1a18.867,18.867,0,0,0-4.717-3.731,6.189,6.189,0,0,0-5.549-.4l1.634,3.635a2.452,2.452,0,0,1,2.163.339,15.356,15.356,0,0,1,3.689,2.968ZM1828,58.177c-2.055-2.479-6.41-7.647-10.031-11.348l-2.77,2.828c3.494,3.572,7.76,8.628,9.815,11.105Zm11.479-17.1a46.108,46.108,0,0,0-14.747,17.547l3.552,1.687a42.19,42.19,0,0,1,13.475-15.984Zm14.082-7.132a32.613,32.613,0,0,0-14.19,7.217l2.505,3.079a28.677,28.677,0,0,1,12.5-6.382Zm4.443-.235a11.246,11.246,0,0,0-4.443.236l.812,3.912a7.646,7.646,0,0,1,2.9-.219Zm4,7.646a28.23,28.23,0,0,0-1.223-4.7,7.064,7.064,0,0,0-.91-1.708,3.066,3.066,0,0,0-1.918-1.247l-.636,3.947a.954.954,0,0,1-.528-.243,3.372,3.372,0,0,1,.352.729,23.687,23.687,0,0,1,1.018,3.98Zm2.916,43.466c-.4-16.758-1.253-34.359-2.916-43.455l-3.846.735c1.6,8.723,2.446,25.991,2.848,42.819Zm.44,41.762c.029-3.6.1-22.251-.44-41.768l-3.914.112c.538,19.454.47,38.048.44,41.622Zm0,.591v-.608h-3.914v.608Zm7.32,14.456-7.525-15.351-3.5,1.791,7.525,15.352Zm4.462,4.771c-1.5-1.675-2.691-2.988-3.523-3.884-.411-.448-.734-.792-.949-1.025-.108-.116-.186-.2-.245-.264-.029-.03-.049-.052-.068-.068,0-.007-.01-.013-.01-.017s-.01,0-.01-.005h0l-1.409,1.39-1.409,1.389h.01v0s.01.008.01.015a.245.245,0,0,1,.059.064c.059.056.137.142.245.255.206.226.519.563.93,1.005.812.882,2,2.181,3.484,3.839Zm12.144,13.885c-4.883-5.76-9.13-10.548-12.154-13.893l-2.877,2.713c3,3.321,7.222,8.077,12.066,13.8Zm-.049-.048h0l-2.877,2.713h.01Zm-.1-.1h0l-2.672,2.918h0Zm.842.955a7.835,7.835,0,0,0-.793-.91l-2.769,2.829a3.042,3.042,0,0,1,.391.428Zm15.158,18.547c-5.294-6.759-10.549-13.122-15.256-18.684l-2.965,2.62c4.7,5.533,9.913,11.855,15.158,18.563Zm1.4,1.826c-.46-.637-.93-1.246-1.429-1.857l-3,2.561c.44.542.861,1.087,1.272,1.669Zm12.183,16.569c-3.885-5.614-8.073-11.252-12.232-16.623l-3.063,2.48c4.12,5.333,8.269,10.912,12.105,16.452Zm8.533,20.554c-.734-6.087-3.268-12.965-8.533-20.556l-3.19,2.313c4.961,7.15,7.193,13.413,7.839,18.734Zm.029.222a2.2,2.2,0,0,0-.078-.461l-3.8.97a.416.416,0,0,1-.01-.086v.043Zm.01.048v-.011a.065.065,0,0,0-.01-.037l-3.885.466a3.5,3.5,0,0,0,.059.366Zm-4.12,19.889a31.182,31.182,0,0,0,4.149-19.72l-3.895.446a27.029,27.029,0,0,1-3.582,17.152Zm-2.672,3.737a27.8,27.8,0,0,0,2.681-3.76l-3.347-2.076a23.528,23.528,0,0,1-2.29,3.216Zm-.235.318a2.421,2.421,0,0,1,.235-.318l-2.955-2.62a6.287,6.287,0,0,0-.538.725Zm.274,3.133a2.817,2.817,0,0,1-.205-3.248l-3.406-1.983a6.872,6.872,0,0,0,.783,7.992Zm6.077,6.928c-2.309-2.807-4.443-5.177-6.077-6.928l-2.828,2.761c1.585,1.7,3.66,4.011,5.911,6.743Zm.362.492c-.1-.144-.205-.285-.3-.424l-3.1,2.44c.078.111.166.227.255.346Zm16.313,29.15c-2.652-10.749-10.2-21.675-16.382-29.25l-3.014,2.562c6.116,7.486,13.182,17.834,15.609,27.667Zm-5.549,32.573c4.854-11.841,7.721-23.588,5.558-32.563l-3.807.959c1.849,7.626-.548,18.313-5.363,30.06Zm-3.083,6.928c1.076-2.27,2.124-4.609,3.083-6.922l-3.6-1.557c-.93,2.239-1.947,4.514-3,6.731Zm-2.045,4.1c.685-1.346,1.38-2.708,2.045-4.1l-3.523-1.762c-.636,1.344-1.311,2.673-1.986,4.007Zm-8.386,15.125c2.946-4.879,5.8-9.978,8.4-15.136l-3.484-1.828c-2.535,5.053-5.343,10.06-8.24,14.862Zm-2.525,4.109c.842-1.351,1.693-2.723,2.525-4.111l-3.327-2.1q-1.248,2.049-2.5,4.045Zm-1.7,2.713c.548-.866,1.125-1.779,1.7-2.727L1918.4,343.2c-.578.93-1.145,1.831-1.683,2.695Zm-2.358,3.637c.714-1.122,1.5-2.331,2.339-3.6l-3.249-2.238c-.851,1.293-1.644,2.52-2.368,3.642Zm-6.469,5.984c1.576,1.188,1.576,1.188,1.576,1.187h0v0s0,0,.01-.007.01-.014.01-.025c.02-.022.039-.055.078-.1q.088-.127.264-.373c.225-.326.568-.8.988-1.422.861-1.234,2.075-3.018,3.533-5.229l-3.259-2.23c-1.429,2.18-2.623,3.937-3.464,5.147-.421.605-.754,1.073-.969,1.389-.117.158-.206.278-.254.357a.811.811,0,0,1-.069.089.027.027,0,0,0-.01.022c-.01,0-.01,0-.01.005h0ZM1808.92,514.935c31.315-51.89,91.391-138.467,103.848-156.085l-3.171-2.342c-12.458,17.619-72.611,104.3-104.014,156.327Zm-14.8,26.337c3.278-6.709,8.426-15.774,14.8-26.338l-3.337-2.1c-6.39,10.59-11.6,19.775-14.963,26.648Zm-15.1,42.488c4.091-15.152,9.111-30.277,15.1-42.486l-3.5-1.792c-6.146,12.543-11.244,27.95-15.374,43.213Zm-3.092,1.045a11.22,11.22,0,0,1,4.218,8.812h3.914a15.251,15.251,0,0,0-5.725-11.966Zm4.218,8.812v15.689h3.914V593.617Zm0,15.689a13.548,13.548,0,0,0,13.4,13.694v-4a9.591,9.591,0,0,1-9.482-9.694Zm13.4,13.694h2.632v-4h-2.632Zm2.632,0a6.924,6.924,0,0,1,6.85,7h3.914a10.881,10.881,0,0,0-10.765-11Zm6.85,7a6.924,6.924,0,0,1-6.85,7v4a10.881,10.881,0,0,0,10.765-11Zm-6.85,7h-6v4h6Zm-6,0a10.143,10.143,0,0,0-10.031,10.25h3.914a6.185,6.185,0,0,1,6.116-6.25Zm-10.031,10.25a10.143,10.143,0,0,0,10.031,10.25v-4a6.185,6.185,0,0,1-6.116-6.25Zm10.031,10.25h25.326v-4H1790.18Zm25.326,0a10.136,10.136,0,0,0,10.031-10.25h-3.914a6.179,6.179,0,0,1-6.116,6.25Zm10.031-10.25a6.185,6.185,0,0,1,6.116-6.25v-4a10.143,10.143,0,0,0-10.031,10.25Zm6.116-6.25h5.177v-4h-5.177Zm5.177,0a11.414,11.414,0,0,1,11.293,11.539h3.914A15.371,15.371,0,0,0,1836.829,637Zm11.293,11.539v7.172h3.914v-7.172Zm0,7.172a7.7,7.7,0,0,1-7.623,7.789v4a11.666,11.666,0,0,0,11.538-11.789ZM1840.5,667.5h-2v4h2Zm-2,0a9.65,9.65,0,0,0-9.541,9.75h3.914a5.693,5.693,0,0,1,5.627-5.75Zm-9.541,9.75A9.65,9.65,0,0,0,1838.5,687v-4a5.693,5.693,0,0,1-5.627-5.75ZM1838.5,687h11.743v-4H1838.5Zm11.743,0a4.2,4.2,0,0,1,4.159,4.25h3.914a8.161,8.161,0,0,0-8.073-8.25Zm4.159,4.25a8.167,8.167,0,0,0,8.073,8.25v-4a4.21,4.21,0,0,1-4.159-4.25Zm8.073,8.25h7.339v-4h-7.339Zm7.339,0a8.161,8.161,0,0,0,8.073-8.25h-3.914a4.2,4.2,0,0,1-4.159,4.25Zm8.073-8.25a4.21,4.21,0,0,1,4.159-4.25v-4a8.167,8.167,0,0,0-8.073,8.25Zm4.159-4.25h5.382v-4h-5.382Zm5.382,0a9.644,9.644,0,0,1,9.541,9.75h3.914A13.6,13.6,0,0,0,1887.432,683Zm9.541,9.75v.5h3.914v-.5Zm0,.5a14.1,14.1,0,0,0,13.945,14.25v-4a10.143,10.143,0,0,1-10.031-10.25Zm13.945,14.25h3.425v-4h-3.425Zm3.425,0a9.152,9.152,0,0,1,9.052,9.25h3.914a13.109,13.109,0,0,0-12.966-13.25Zm9.052,9.25V721h3.914v-.25Zm0,.25a12.863,12.863,0,0,0,12.722,13v-4a8.9,8.9,0,0,1-8.807-9Zm12.722,13h1.468v-4h-1.468Zm1.468,0a11.374,11.374,0,0,0,11.254-11.5h-3.914a7.416,7.416,0,0,1-7.339,7.5Zm11.254-11.5a7.422,7.422,0,0,1,7.339-7.5v-4a11.38,11.38,0,0,0-11.254,11.5Zm7.339-7.5h1.468v-4h-1.468Zm1.468,0a12.863,12.863,0,0,0,12.722-13h-3.914a8.9,8.9,0,0,1-8.807,9Zm12.722-13v-3h-3.914v3Zm0-3a11.879,11.879,0,0,1,11.743-12v-4a15.835,15.835,0,0,0-15.657,16Zm11.743-12h75.264v-4h-75.264Zm75.264,0a.5.5,0,0,1,.489.5h3.914a4.456,4.456,0,0,0-4.4-4.5Zm.489.5a.5.5,0,0,1-.489.5v4a4.456,4.456,0,0,0,4.4-4.5Zm-.489.5h-37.627v4h37.627Zm-37.627,0c-23.222,0-42.04,19.23-42.04,42.952h3.914c0-21.513,17.067-38.952,38.126-38.952Zm-42.04,42.952V796.5h3.914V730.952Zm0,65.548a23.252,23.252,0,0,1-23,23.5v4c14.865,0,26.911-12.312,26.911-27.5Zm-23,23.5h-13.7v4h13.7Zm-13.7,0a9.4,9.4,0,0,1-9.3-9.5H1927.8A13.361,13.361,0,0,0,1941.01,824Zm-9.3-9.5A13.355,13.355,0,0,0,1918.5,797v4a9.4,9.4,0,0,1,9.3,9.5ZM1918.5,797h-1.517v4h1.517Zm-1.517,0a10.94,10.94,0,0,1-10.823-11.056h-3.914A14.9,14.9,0,0,0,1916.986,801Zm-10.823-11.056v-8.25h-3.914v8.25Zm0-8.25A21.463,21.463,0,0,0,1884.937,756v4a17.506,17.506,0,0,1,17.311,17.694ZM1884.937,756h-11.449v4h11.449Zm-11.449,0a9.9,9.9,0,0,0-9.786,10h3.914a5.939,5.939,0,0,1,5.872-6Zm-9.786,10v2.75h3.914V766Zm0,2.75A7.176,7.176,0,0,0,1870.8,776v-4a3.219,3.219,0,0,1-3.18-3.25ZM1870.8,776a3.213,3.213,0,0,1,3.18,3.25h3.914A7.17,7.17,0,0,0,1870.8,772Zm3.18,3.25V782h3.914v-2.75Zm0,2.75a5.933,5.933,0,0,1-5.871,6v4a9.89,9.89,0,0,0,9.786-10Zm-5.871,6h-22.018v4h22.018Zm-22.018,0a5.939,5.939,0,0,1-5.872-6H1836.3a9.9,9.9,0,0,0,9.786,10Zm-5.872-6v-1.961H1836.3V782Zm0-1.961a4,4,0,0,1,3.953-4.039v-4a7.955,7.955,0,0,0-7.868,8.039Zm3.953-4.039a7.955,7.955,0,0,0,7.868-8.039h-3.914a4,4,0,0,1-3.953,4.039Zm7.868-8.039V766h-3.914v1.961Zm0-1.961a9.89,9.89,0,0,0-9.786-10v4a5.933,5.933,0,0,1,5.872,6Zm-9.786-10h-11.332v4h11.332Zm-11.332,0a17.811,17.811,0,0,0-17.615,18h3.914a13.854,13.854,0,0,1,13.7-14ZM1813.3,774a13.848,13.848,0,0,1-13.7,14v4a17.8,17.8,0,0,0,17.615-18Zm-13.7,14h-15.168v4H1799.6Zm-15.168,0a8.414,8.414,0,0,1-8.318-8.5H1772.2a12.37,12.37,0,0,0,12.232,12.5Zm-8.318-8.5V778H1772.2v1.5Zm0-1.5a6.93,6.93,0,0,1,6.85-7v-4a10.887,10.887,0,0,0-10.765,11Zm6.85-7a10.881,10.881,0,0,0,10.765-11h-3.914a6.924,6.924,0,0,1-6.85,7Zm10.765-11V736.25h-3.914V760Zm0-23.75a19.54,19.54,0,0,0-19.327-19.75v4a15.583,15.583,0,0,1,15.413,15.75Zm-19.327-19.75h-5.872v4h5.872Zm-5.872,0a13.607,13.607,0,0,0-13.456,13.75h3.914a9.65,9.65,0,0,1,9.541-9.75Zm-13.456,13.75a9.644,9.644,0,0,1-9.541,9.75v4a13.6,13.6,0,0,0,13.456-13.75Zm-9.541,9.75h-25.688v4h25.688Zm-25.688,0a6.431,6.431,0,0,1-6.361-6.5h-3.914a10.4,10.4,0,0,0,10.275,10.5Zm-6.361-6.5a6.431,6.431,0,0,1,6.361-6.5v-4a10.4,10.4,0,0,0-10.275,10.5Zm6.361-6.5h3.611v-4h-3.611Zm3.611,0a14.037,14.037,0,0,0,13.886-14.187h-3.914A10.08,10.08,0,0,1,1723.46,723Zm13.886-14.187V697.187h-3.914v15.626Zm0-15.626A14.037,14.037,0,0,0,1723.46,683v4a10.08,10.08,0,0,1,9.972,10.187ZM1723.46,683h-5.813v4h5.813Zm-5.813,0a8.167,8.167,0,0,0-8.073,8.25h3.914a4.21,4.21,0,0,1,4.159-4.25Zm-8.073,8.25a4.2,4.2,0,0,1-4.159,4.25v4a8.161,8.161,0,0,0,8.073-8.25Zm-4.159,4.25H1692.39v4h13.025Zm-13.025,0a9.65,9.65,0,0,0-9.541,9.75h3.914a5.693,5.693,0,0,1,5.627-5.75Zm-9.541,9.75a5.686,5.686,0,0,1-5.627,5.75v4a9.644,9.644,0,0,0,9.541-9.75Zm-5.627,5.75h-8.044v4h8.044Zm-8.044,0a13.816,13.816,0,0,1-13.661-13.967H1651.6A17.774,17.774,0,0,0,1669.177,715Zm-13.661-13.967V684.374H1651.6v12.659Zm0-12.659a4.82,4.82,0,0,1,4.766-4.874v-4a8.778,8.778,0,0,0-8.68,8.874Zm4.766-4.874a8.778,8.778,0,0,0,8.68-8.874h-3.914a4.821,4.821,0,0,1-4.766,4.874Zm8.68-8.874V661h-3.914v9.626Zm0-9.626a15.337,15.337,0,0,0-15.168-15.5v4a11.374,11.374,0,0,1,11.254,11.5Zm-15.168-15.5h-3.914v4h3.914Zm-3.914,0a7.419,7.419,0,0,1-7.339-7.493h-3.914A11.376,11.376,0,0,0,1649.88,649.5Zm-7.339-7.493a11.367,11.367,0,0,0-11.244-11.492v4a7.41,7.41,0,0,1,7.33,7.492ZM1631.3,626.515h-9.277v4h9.277Zm-9.277,0a9.428,9.428,0,0,1-9.326-9.523h-3.914a13.386,13.386,0,0,0,13.24,13.523Zm-9.326-9.523v-4.133h-3.914v4.133Zm0-4.133a5.337,5.337,0,0,1,5.275-5.39v-4a9.3,9.3,0,0,0-9.189,9.39Zm5.275-5.39a9.289,9.289,0,0,0,9.189-9.39h-3.914a5.331,5.331,0,0,1-5.274,5.39Zm9.189-9.39V574.851h-3.914v23.228Zm0-23.228a15.655,15.655,0,0,0-15.481-15.827v4a11.7,11.7,0,0,1,11.567,11.827Zm-15.481-15.827h-10.794v4h10.794Zm-10.794,0a5.678,5.678,0,0,1-5.617-5.737h-3.914a9.636,9.636,0,0,0,9.531,9.737Zm-5.617-5.737a5.719,5.719,0,0,1,4.257-5.568l-.949-3.881a9.7,9.7,0,0,0-7.222,9.449Zm25.169-70.335c-2.672,10.94-14.131,39.9-23.193,62.055l3.611,1.543c9-22.005,20.619-51.318,23.378-62.628ZM1636.2,370.659l-1.948-.2v.016a.114.114,0,0,1-.01.05c0,.045-.01.113-.02.2-.02.178-.039.442-.078.788-.068.691-.166,1.708-.293,3.009-.264,2.6-.646,6.341-1.116,10.887-.93,9.092-2.231,21.41-3.67,34.318-2.9,25.9-6.341,53.928-8.631,63.22l3.8.973c2.368-9.617,5.842-37.982,8.719-63.739,1.448-12.923,2.74-25.254,3.68-34.354.47-4.549.851-8.292,1.116-10.9.127-1.3.225-2.321.294-3.014.039-.346.059-.611.078-.79.01-.089.02-.157.02-.2a.119.119,0,0,0,.01-.051v-.017S1638.146,370.858,1636.2,370.659Zm9.678-79.006c-4.374,16.658-7.281,36.392-9.091,51.915-.91,7.771-1.546,14.506-1.947,19.3-.206,2.4-.352,4.309-.45,5.624-.049.657-.088,1.165-.108,1.509-.01.172-.02.3-.029.392v.1c0,.011-.01.02-.01.026v.008l1.957.131,1.957.129v-.127c.01-.085.02-.213.029-.382.02-.338.059-.838.108-1.488.1-1.3.235-3.2.44-5.577.411-4.76,1.037-11.452,1.938-19.172,1.8-15.461,4.688-34.971,8.993-51.351Zm39.388-121.342c-12.223,26.744-30.728,88.27-39.388,121.344l3.787,1.034c8.651-33.074,27.087-94.293,39.144-120.685Zm4.6-10.122c-1.517,3.349-3.053,6.74-4.6,10.122l3.543,1.693c1.556-3.389,3.092-6.786,4.609-10.134Z" transform="translate(-35.996)"/>
    <path id="Path_37" data-name="Path 37" d="M1867.1,84.965c-3.944.013-6.057-1.659-8.856-4.5a24.831,24.831,0,0,1-5.813-10.39,29.29,29.29,0,0,1-.049-17.652c1.918-5.653,5.715-10.39,11.175-12.563" transform="translate(-41.556)" fill="none" stroke="#00020a" stroke-linecap="round" stroke-linejoin="round" stroke-miterlimit="10" stroke-width="4"/>
    <path id="Path_38" data-name="Path 38" d="M1874.688,144.554s-15.061-31.847-30.659-59.889-21.852-38.878-29.749-38.878" transform="translate(-40.769)" fill="none" stroke="#00020a" stroke-linecap="round" stroke-linejoin="round" stroke-miterlimit="10" stroke-width="4"/>
    <path id="Path_39" data-name="Path 39" d="M1844.749,85.722c-4.687,1.064-9.708-.493-13.563-3.423a30.875,30.875,0,0,1-8.768-11.512c-3.445-7.2-5.725-15-1.438-21.709" transform="translate(-40.862)" fill="none" stroke="#00020a" stroke-linecap="round" stroke-linejoin="round" stroke-miterlimit="10" stroke-width="4"/>
    <path id="Path_40" data-name="Path 40" d="M1920.467,244.346s14.728-10.922,8.083-29.811-42.451-63.754-56.034-70.542-56.318-23.725-59.782-17.822-5.206,12.8-1.165,23.136,9.541,16.527,21.96,22.136a144.918,144.918,0,0,1,21.95,12.4l8.661,26.86" transform="translate(-40.661)" fill="none" stroke="#00020a" stroke-linecap="round" stroke-linejoin="round" stroke-miterlimit="10" stroke-width="4"/>
    <path id="Path_41" data-name="Path 41" d="M1856.156,137.219a11.532,11.532,0,0,1-4.316,3.394,24.748,24.748,0,0,1-20.756.6,25.633,25.633,0,0,1-13.984-15.7" transform="translate(-40.829)" fill="none" stroke="#00020a" stroke-linecap="round" stroke-linejoin="round" stroke-miterlimit="10" stroke-width="4"/>
    <path id="Path_42" data-name="Path 42" d="M1914.728,359.538s38.507-53.209,31.569-76.233-42.765-58.44-53.157-63.164-60.653-18.594-64.127-13.87-3.758,16.822,6.938,28.923,41.013,27.453,41.013,27.453l10.686,29.219-15.6,36.894" transform="translate(-41.039)" fill="none" stroke="#00020a" stroke-linecap="round" stroke-linejoin="round" stroke-miterlimit="10" stroke-width="4"/>
    <path id="Path_43" data-name="Path 43" d="M1876.175,214.679c-4.756,5.73-12.849,6.625-19.924,4.571s-12.947-7.124-17.771-12.794" transform="translate(-41.287)" fill="none" stroke="#00020a" stroke-linecap="round" stroke-linejoin="round" stroke-miterlimit="10" stroke-width="4"/>
    <path id="Path_44" data-name="Path 44" d="M1830.675,170.563a179.153,179.153,0,0,1-19.435,85.316" transform="translate(-40.704)" fill="none" stroke="#00020a" stroke-linecap="round" stroke-linejoin="round" stroke-miterlimit="10" stroke-width="4"/>
    <path id="Path_45" data-name="Path 45" d="M1862.424,254.845c-6.243,8.829-12.761,17.508-19,26.338" transform="translate(-41.393)" fill="none" stroke="#00020a" stroke-linecap="round" stroke-linejoin="round" stroke-miterlimit="10" stroke-width="4"/>
    <path id="Path_46" data-name="Path 46" d="M1853.847,294.835c-14.933-19.059-33.5-32.9-54.1-45.252" transform="translate(-40.458)" fill="none" stroke="#00020a" stroke-linecap="round" stroke-linejoin="round" stroke-miterlimit="10" stroke-width="4"/>
    <path id="Path_47" data-name="Path 47" d="M1720.6,117.37c4.218,8.753,2.906,19.425-1.067,28.293-4.971,11.092-17.654,20.572-28.546,25.558" transform="translate(-38.13)" fill="none" stroke="#00020a" stroke-linecap="round" stroke-linejoin="round" stroke-miterlimit="10" stroke-width="4"/>
    <path id="Path_48" data-name="Path 48" d="M1672.666,379.16c-.656-1.009-1.174-1.837-1.546-2.45.294-.321.656-.709,1.076-1.155,1.35-1.423,3.347-3.443,5.9-5.812a141.361,141.361,0,0,1,21.48-16.412c18.006-11.11,42.246-19.721,67.953-10.661,25.649,9.038,38.136,31.222,44.213,51.495a138.434,138.434,0,0,1,5.089,26.713c.323,3.514.46,6.391.509,8.382.02.654.029,1.213.029,1.667-48.93,16.191-85.5,2.5-109.945-15.294a144.2,144.2,0,0,1-27.821-26.876C1676.522,384.852,1674.2,381.514,1672.666,379.16Z" transform="translate(-37.704)" fill="#fff" stroke="#000" stroke-width="4"/>
    <path id="Path_49" data-name="Path 49" d="M1715.409,378.358c-6.527,20.495,4.443,42.512,24.5,49.175s41.6-4.547,48.117-25.042-4.453-42.506-24.5-49.169S1721.926,357.867,1715.409,378.358Z" transform="translate(-38.612)" fill="#ffbe08"/>
    <path id="Path_50" data-name="Path 50" d="M1726.8,382.06c-4.521,14.207,3.083,29.465,16.988,34.087a26.353,26.353,0,0,0,33.35-17.358c4.521-14.207-3.083-29.465-16.979-34.083A26.357,26.357,0,0,0,1726.8,382.06Z" transform="translate(-38.868)" fill="#00020a"/>
    <path id="Path_51" data-name="Path 51" d="M1733.058,384.09a20.574,20.574,0,0,0,12.859,25.813Zm0,0a19.951,19.951,0,0,1,25.257-13.141,20.578,20.578,0,0,1,12.859,25.81Zm38.116,12.67a19.961,19.961,0,0,1-25.258,13.144Z" transform="translate(-39.009)" fill="none" stroke="#3a86ff" stroke-width="5"/>
    <path id="Path_52" data-name="Path 52" d="M250.161,400.033h21.264a6.515,6.515,0,0,1,6.443,6.584,6.515,6.515,0,0,0,6.444,6.585h8.7a11.075,11.075,0,0,1,10.953,11.193,11.076,11.076,0,0,0,10.954,11.194h12.726a7,7,0,0,1,6.927,7.078,7,7,0,0,0,6.926,7.079h18.686a13.666,13.666,0,0,0,0-27.326H346.17a11.855,11.855,0,0,1,0-23.7h62.5a8.562,8.562,0,0,0,0-17.12H382.253a10.208,10.208,0,0,1,0-20.412h16.432a13.831,13.831,0,0,0,0-27.655h-14.5a16.794,16.794,0,0,1,0-33.581H428a13.356,13.356,0,0,1,13.209,13.5,13.357,13.357,0,0,0,13.209,13.5h4.833a18.242,18.242,0,0,1,18.041,18.436v4.445a22.641,22.641,0,0,0,22.392,22.881h3.865a23.617,23.617,0,0,0,23.358-23.869v-6.749a16.94,16.94,0,0,1,16.753-17.12,16.938,16.938,0,0,0,16.753-17.119V278.22a11.076,11.076,0,0,0-10.953-11.194,11.076,11.076,0,0,1-10.954-11.194v-16.3c0-13.546,10.746-24.528,24-24.528h2.417a21.825,21.825,0,0,0,21.586-22.058v-7.9a14.008,14.008,0,0,0-13.854-14.157h-1.289a12.842,12.842,0,0,1,0-25.679h46.716a8.562,8.562,0,0,0,0-17.12H616.8a9.773,9.773,0,0,1-9.666-9.877v-3.127a12.868,12.868,0,0,1,12.726-13h54.771a13.008,13.008,0,0,1,0,26.009h-8.86a8.562,8.562,0,0,0,0,17.12h29.962a10.75,10.75,0,0,0,10.631-10.865,10.75,10.75,0,0,1,10.632-10.864H851.181a13.666,13.666,0,0,1,0,27.326H839.743a11.855,11.855,0,0,0,0,23.7H986.822c13.612,0,24.641-11.276,24.641-25.186v-3.951a21.015,21.015,0,0,1,20.785-21.235H1044a9.123,9.123,0,0,0,9.023-9.218,9.123,9.123,0,0,1,9.023-9.218h21.911a12.705,12.705,0,0,1,12.565,12.84V119.7a11.569,11.569,0,0,1-11.44,11.687h-6.126a5.434,5.434,0,0,0,0,10.865h116.149a10.747,10.747,0,0,0,10.627-10.865,10.755,10.755,0,0,1,10.637-10.864h14.336a11.891,11.891,0,0,0,11.763-12.017v-2.8a9.124,9.124,0,0,0-9.023-9.218,9.123,9.123,0,0,1-9.023-9.218v-2.14a11.236,11.236,0,0,1,11.117-11.358h74.578a14.16,14.16,0,0,1,0,28.313h-10.471a11.032,11.032,0,0,0,0,22.058h29.964a11.564,11.564,0,0,1,11.44,11.688,11.563,11.563,0,0,0,11.44,11.687h18.525a17.59,17.59,0,0,1,17.39,17.778v4.445a13.193,13.193,0,0,1-13.045,13.334h-6.116a7.08,7.08,0,0,0,0,14.156h101a16.465,16.465,0,0,1,0,32.923h-15.471a6.915,6.915,0,0,0,0,13.827H1496.5a10.914,10.914,0,0,0,10.794-11.029,10.914,10.914,0,0,1,10.794-11.029h.646a11.562,11.562,0,0,1,11.43,11.688v.987a12.545,12.545,0,0,0,12.409,12.675h1.928a14.325,14.325,0,0,1,0,28.643h-28.506a18.112,18.112,0,0,0,0,36.215h41.717a12.349,12.349,0,0,1,0,24.692h-10.148a14.16,14.16,0,0,0,0,28.313h34.309a9.612,9.612,0,0,0,9.512-9.712,9.6,9.6,0,0,1,9.5-9.712h6.283a15.96,15.96,0,0,1,15.785,16.132V386.7a15.145,15.145,0,0,1-14.982,15.309h-7.9a7.165,7.165,0,0,1-7.085-7.243,7.164,7.164,0,0,0-7.085-7.243h-10.148a17.432,17.432,0,0,0-17.243,17.614v.823a18.246,18.246,0,0,0,18.045,18.436h30.121a10.259,10.259,0,0,1,10.148,10.371,10.268,10.268,0,0,0,10.158,10.371h9.825a6.844,6.844,0,0,0,6.762-6.914V437.4a6.028,6.028,0,0,0-5.96-6.091h-.323a5.763,5.763,0,0,1,0-11.523h14.816a7,7,0,0,1,6.928,7.079,7,7,0,0,0,6.928,7.078h7.9a9.443,9.443,0,0,0,9.336-9.548,9.45,9.45,0,0,1,9.346-9.547h3.386a6.356,6.356,0,0,0,6.283-6.42,6.349,6.349,0,0,1,6.283-6.42h4.668a11.082,11.082,0,0,0,10.96-11.194V389.5a12.452,12.452,0,0,0-12.33-12.511,12.6,12.6,0,0,1-12.477-12.675v-3.457a9.115,9.115,0,0,1,9.013-9.218h1.781a7.409,7.409,0,0,0,0-14.815H1683.04a6.349,6.349,0,0,0-6.283,6.419,6.35,6.35,0,0,1-6.283,6.42H1646.96a5.433,5.433,0,0,1,0-10.864h9.659a8.068,8.068,0,0,0,0-16.132H1620.7a5.269,5.269,0,0,1,0-10.535h9.659a9.55,9.55,0,0,0,0-19.1H1615.87a6.518,6.518,0,0,1-6.449-6.585,6.515,6.515,0,0,0-6.439-6.584h-13.211a12.513,12.513,0,0,1,0-25.021h3.063a14,14,0,0,0,0-27.984h-38.185a7.9,7.9,0,0,1,0-15.8h2.74a10.587,10.587,0,0,0,10.471-10.7v-2.305a12.865,12.865,0,0,0-12.722-13h-2.094a14.985,14.985,0,0,1-14.826-15.144V162.5a8.309,8.309,0,0,1,8.22-8.395h.646a7.739,7.739,0,0,0,0-15.474H1490.7a6.092,6.092,0,0,0,0,12.182h7.731a9.055,9.055,0,0,1,0,18.107h-70.39a11.526,11.526,0,0,1,0-23.046h17.722a10.867,10.867,0,0,0,0-21.729h-66.534a12.019,12.019,0,0,1,0-24.033h5.637a17.592,17.592,0,0,0,17.4-17.778V80.52a19.383,19.383,0,0,0-19.171-19.589h-16.431a15.473,15.473,0,0,1-15.305-15.638,15.471,15.471,0,0,0-15.3-15.638H1271.3a13.52,13.52,0,0,0-13.368,13.663,13.52,13.52,0,0,1-13.368,13.663H1176.58a11.361,11.361,0,0,0,0,22.716h.969a12.216,12.216,0,0,1,12.076,12.346v2.14a14.329,14.329,0,0,1-14.17,14.486H1123.58a13.361,13.361,0,0,1-13.211-13.5,13.354,13.354,0,0,0-13.211-13.5h-24.641a12.349,12.349,0,0,1,0-24.692h9.825a18.574,18.574,0,0,0,18.368-18.766,18.574,18.574,0,0,0-18.368-18.766H982.468a13.831,13.831,0,0,0,0,27.655h4.354A18.079,18.079,0,0,1,1004.7,65.376v26.5c0,15.456-12.262,27.984-27.388,27.984H960.721a11.031,11.031,0,0,1,0-22.058h13.854a16.63,16.63,0,0,0,0-33.252H925.6a12.541,12.541,0,0,0-12.4,12.675v5.6a6.929,6.929,0,1,1-13.854,0v-8.56a10.8,10.8,0,1,0-21.586,0,10.913,10.913,0,0,1-10.793,11.029h-1.934a12.867,12.867,0,0,1-12.726-13V61.425a23.617,23.617,0,0,0-23.358-23.869H774.664a9.121,9.121,0,0,0-9.021,9.218,9.122,9.122,0,0,1-9.022,9.218h-55.9a13.666,13.666,0,0,1,0-27.326h4.51a13.193,13.193,0,0,0,13.049-13.334A13.193,13.193,0,0,0,705.235,2H618.569a13.193,13.193,0,0,0-13.048,13.334,13.193,13.193,0,0,0,13.048,13.334h22.069a10.867,10.867,0,0,1,0,21.729H516.923a17.453,17.453,0,0,0,0,34.9h44.46a19.429,19.429,0,0,1,0,38.848H540.6a15.474,15.474,0,0,0-15.3,15.639A15.474,15.474,0,0,1,510,155.419H466.02c-13.7,0-24.808,11.432-24.808,25.433,0,13.909,11.035,25.267,24.647,25.267S490.5,217.4,490.5,231.3v16.461c0,18.637-14.786,33.746-33.024,33.746H434.445a10.208,10.208,0,0,1,0-20.412h5.317a14.325,14.325,0,0,0,0-28.643H365.983a14.822,14.822,0,0,0-14.658,14.98v.494A14.333,14.333,0,0,0,365.5,262.417h4.833a9.55,9.55,0,0,1,0,19.1H317.979a18.276,18.276,0,0,0,0,36.544h10.953a10.043,10.043,0,0,1,0,20.082H276.579a17.592,17.592,0,0,0-17.4,17.779V362.5A11.076,11.076,0,0,1,248.228,373.7a11.075,11.075,0,0,0-10.954,11.193v1.976A13.03,13.03,0,0,0,250.161,400.033Z" transform="translate(-7.007)" fill="#3a86ff" stroke="#000" stroke-width="4"/>
    <ellipse id="Ellipse_1" data-name="Ellipse 1" cx="14.474" cy="14.79" rx="14.474" ry="14.79" transform="translate(714.201 75.771)" fill="#ffbe08" stroke="#000" stroke-width="4"/>
    <ellipse id="Ellipse_2" data-name="Ellipse 2" cx="12.541" cy="12.815" rx="12.541" ry="12.815" transform="translate(917.171 21.12)" fill="#3a86ff" stroke="#000" stroke-width="4"/>
    <ellipse id="Ellipse_3" data-name="Ellipse 3" cx="6.742" cy="6.889" rx="6.742" ry="6.889" transform="translate(1329.555 185.074)" fill="#3a86ff" stroke="#000" stroke-width="4"/>
    <ellipse id="Ellipse_4" data-name="Ellipse 4" cx="10.608" cy="10.84" rx="10.608" ry="10.84" transform="translate(787.012 152.151)" fill="#3a86ff" stroke="#000" stroke-width="4"/>
    <ellipse id="Ellipse_5" data-name="Ellipse 5" cx="6.742" cy="6.889" rx="6.742" ry="6.889" transform="translate(1563.457 140.299)" fill="#3a86ff" stroke="#000" stroke-width="4"/>
    <ellipse id="Ellipse_6" data-name="Ellipse 6" cx="12.541" cy="12.815" rx="12.541" ry="12.815" transform="translate(1458.429 281.866)" fill="#3a86ff" stroke="#000" stroke-width="4"/>
    <ellipse id="Ellipse_7" data-name="Ellipse 7" cx="19.306" cy="19.729" rx="19.306" ry="19.729" transform="translate(377.204 160.711)" fill="#3a86ff" stroke="#000" stroke-width="4"/>
    <ellipse id="Ellipse_8" data-name="Ellipse 8" cx="19.629" cy="20.058" rx="19.629" ry="20.058" transform="translate(475.146 395.119)" fill="#3a86ff" stroke="#000" stroke-width="4"/>
  </g>
</svg>
