<svg id="Component_1_1" data-name="Component 1 – 1" xmlns="http://www.w3.org/2000/svg" width="154.701" height="75.612" viewBox="0 0 154.701 75.612">
  <path id="Path_323" data-name="Path 323" d="M17.059,29.26,9.4,18.726H6.053V29.26H0V0H12.741a10.182,10.182,0,0,1,7.408,2.592A9.07,9.07,0,0,1,22.858,9.53a9.013,9.013,0,0,1-1.735,5.727,8.676,8.676,0,0,1-4.91,3.01l8.3,10.993ZM6.053,5.685V13.5h6.011a5.144,5.144,0,0,0,3.471-1A3.645,3.645,0,0,0,16.72,9.614,3.645,3.645,0,0,0,15.535,6.73a5.1,5.1,0,0,0-3.471-1.045Z"/>
  <path id="Path_324" data-name="Path 324" d="M28.193,29.26V0h6.053V29.26Z"/>
  <path id="Path_325" data-name="Path 325" d="M65.61,0,55.155,19.6V29.26h-6.1l.042-9.614L38.6,0h6.815l6.688,12.916L58.795,0Z"/>
  <path id="Path_326" data-name="Path 326" d="M87.559,29.26l-2.5-6.9H73.082l-2.54,6.9H64.15L75.241,0H82.9l11.09,29.26Zm-12.4-12.582h7.789L79.051,6.061Z"/>
  <path id="Path_327" data-name="Path 327" d="M109.094,0a14.9,14.9,0,0,1,10.794,4.18,13.877,13.877,0,0,1,4.36,10.45,13.877,13.877,0,0,1-4.36,10.45,14.9,14.9,0,0,1-10.794,4.18H98.385V0Zm0,23.575a8.939,8.939,0,0,0,6.561-2.508,8.653,8.653,0,0,0,2.54-6.437,8.653,8.653,0,0,0-2.54-6.437,8.939,8.939,0,0,0-6.561-2.508h-4.656v17.89Z"/>
  <path id="Path_328" data-name="Path 328" d="M148.648,0H154.7V29.26h-6.053V17.138H135.483V29.26H129.43V0h6.053V11.453h13.165Z"/>
  <path id="Path_329" data-name="Path 329" d="M84.717,74.974H75.46l-13.6-17.4v17.4h-7.4V37.721h7.4v16.5l12.877-16.5H83.89L69.668,55.762Z"/>
  <path id="Path_330" data-name="Path 330" d="M101.079,52.249a54.571,54.571,0,0,1,6.413,1.7,20.136,20.136,0,0,1,4.448,2.182,7.124,7.124,0,0,1,2.844,3.193,11.048,11.048,0,0,1,.879,4.63,11.355,11.355,0,0,1-1.293,5.482,9.081,9.081,0,0,1-3.361,3.619,16.787,16.787,0,0,1-4.4,1.916,17.337,17.337,0,0,1-4.706.639q-7.4,0-11.274-3.566A14.514,14.514,0,0,1,86.134,63h7.447a7.259,7.259,0,0,0,2.637,4.2,9.87,9.87,0,0,0,5.637,1.331,8.216,8.216,0,0,0,4.706-1.118,3.576,3.576,0,0,0,1.655-3.14,2.452,2.452,0,0,0-.931-2.022,5.394,5.394,0,0,0-2.172-1.171q-1.293-.373-4.6-1.118a2.175,2.175,0,0,0-.414-.053,1.571,1.571,0,0,0-.362-.106l-.414-.106a35.483,35.483,0,0,1-4.706-1.277,18.05,18.05,0,0,1-3.775-1.916A8.18,8.18,0,0,1,88,53.367a10.382,10.382,0,0,1-.931-4.577A10.237,10.237,0,0,1,91.1,40.169a15.366,15.366,0,0,1,9.619-3.087q6.826,0,10.343,3.246a13.018,13.018,0,0,1,4.241,8.3h-7.5q-1.344-4.47-7.033-4.47a7.528,7.528,0,0,0-4.706,1.224,3.683,3.683,0,0,0-1.551,3.087A2.35,2.35,0,0,0,95.8,50.706,25.052,25.052,0,0,0,101.079,52.249Z"/>
  <path id="Path_331" data-name="Path 331" d="M146.84,74.974l-3.051-8.781H129.153l-3.1,8.781h-7.809l13.549-37.253h9.36L154.7,74.974ZM131.687,58.955H141.2l-4.758-13.517Z"/>
  <path id="Path_332" data-name="Path 332" d="M7.722,44.544a6.424,6.424,0,0,1,4.515,1.668,5.677,5.677,0,0,1,1.844,4.423,6.076,6.076,0,0,1-1.95,4.635,6.9,6.9,0,0,1-4.863,1.8,7.879,7.879,0,0,1-4.836-1.51A6.177,6.177,0,0,1,0,51.3H2.244a4.363,4.363,0,0,0,1.763,2.728,5.541,5.541,0,0,0,3.26.953,4.488,4.488,0,0,0,3.26-1.245,4.1,4.1,0,0,0,1.309-3.1,3.953,3.953,0,0,0-1.283-3.072A4.662,4.662,0,0,0,7.294,46.4a4.777,4.777,0,0,0-4.435,2.41H.721L2.992,38.241H13.2v2.092H4.676L3.447,46.107A6.1,6.1,0,0,1,7.722,44.544Z"/>
  <path id="Path_333" data-name="Path 333" d="M26.271,47.749v2.092H17.614V47.749Z"/>
  <path id="Path_334" data-name="Path 334" d="M37.359,44.306a6.546,6.546,0,0,1,4.515,1.669,5.682,5.682,0,0,1,1.87,4.5,6.151,6.151,0,0,1-2,4.767,7.135,7.135,0,0,1-5,1.827,7.161,7.161,0,0,1-4.97-1.8,6.275,6.275,0,0,1-2-4.873,8.666,8.666,0,0,1,1.309-4.423,89.713,89.713,0,0,1,5.21-7.363q.187-.238.294-.371h2.592l-5.317,7.045A7.058,7.058,0,0,1,37.359,44.306Zm-.615,10.673a4.878,4.878,0,0,0,3.42-1.245,4.205,4.205,0,0,0,1.363-3.258,4.073,4.073,0,0,0-1.363-3.231,5.409,5.409,0,0,0-6.84,0A4.237,4.237,0,0,0,32.016,50.5a4.194,4.194,0,0,0,1.336,3.258A4.9,4.9,0,0,0,36.745,54.979Z"/>
  <path id="Path_335" data-name="Path 335" d="M13.033,59.679H15.2V74.743H13.437V61.981l-5.029,7.7h-.17l-5.029-7.7V74.743H1.448V59.679H3.613l4.71,7.188Z"/>
  <path id="Path_336" data-name="Path 336" d="M30.079,74.743l-1.761-4.519h-6.9l-1.761,4.519H17.794l5.941-15.064H26l5.941,15.064ZM22.1,68.523H27.66L24.88,61.379Z"/>
  <path id="Path_337" data-name="Path 337" d="M44.035,59.679l-5.5,9.663v5.4H36.778V69.384l-5.5-9.706h1.994l4.371,7.7,4.371-7.7Z"/>
</svg>
