<?xml version="1.0" encoding="utf-8"?>
<!-- Generator: Adobe Illustrator 24.3.0, SVG Export Plug-In . SVG Version: 6.00 Build 0)  -->
<svg version="1.1" id="Layer_1" xmlns="http://www.w3.org/2000/svg" xmlns:xlink="http://www.w3.org/1999/xlink" x="0px" y="0px"
	 viewBox="0 0 2822.3 3570.6" style="enable-background:new 0 0 2822.3 3570.6;" xml:space="preserve">
<style type="text/css">
	.st0{fill:#FCBE0C;}
	.st1{fill:#1C448C;}
	.st2{fill:#F5B909;}
</style>
<g>
	<path class="st0" d="M964.9,2152.5c86.8,29.4,159,93.3,210.9,168.8c52,75.4,85.3,162.1,111.6,249.9c37.2,124,61.5,251.9,72.3,380.9
		c6.2,74.1,5.8,155.5-40.4,213.8c-47.6,60-133,78.5-208.8,67.2c-75.8-11.3-145.2-47.4-214.6-79.7c-69.5-32.3-143.3-61.9-219.8-58.8
		c-101.8,4-196.2,68.5-248,156.3c-33.2,56.2-50,120.6-52.9,186h-17.9v-235.1c18.7-24.9,40-47.8,63.7-67.9
		c117.5-99.9,289-128.8,431.8-72.8c64.2,25.2,121.9,65.8,186.8,88.7c65,22.9,144,24.7,195.5-21.8c57.1-51.5,59.6-140.1,55.5-217.8
		c-6.6-125.2-19.8-252.1-65.5-368.5c-45.8-116.4-128.2-222.5-241.3-271.5c-188.9-81.9-407.1,9.6-610.1-21.3
		c-5.5-0.8-10.9-1.7-16.4-2.8v-74.6c83.3,12.4,171.8,0,256-14.4C730.3,2136.9,852.7,2114.5,964.9,2152.5L964.9,2152.5z"/>
	<path class="st1" d="M357.5,3201.6v-955.7c5.4,1.1,10.9,2,16.4,2.8c203,30.9,421.2-60.7,610.1,21.3
		c113.1,49.1,195.5,155.1,241.3,271.5c45.8,116.4,58.9,243.3,65.5,368.5c4.1,77.7,1.6,166.3-55.5,217.8
		c-51.5,46.5-130.5,44.8-195.5,21.8c-64.9-22.9-122.7-63.5-186.8-88.7c-142.8-56-314.3-27.1-431.8,72.8
		C397.5,3153.8,376.2,3176.6,357.5,3201.6z"/>
	<path class="st2" d="M1067.8,2125.5c188.4,99.6,287.3,312.1,342.7,517.8c49.4,183.5,72.9,386.5-9.4,557.7
		c-25.4,52.9-63,103.3-116.9,126.5c-73.9,31.8-159.9,5.7-230.9-32.2c-70.9-37.9-137.1-88-215.1-107.4
		c-102.4-25.6-217.5,8.9-288.9,86.6c-41,44.6-66.6,102.2-74.5,162.2h-99.4c2.9-65.4,19.8-129.8,52.9-186
		c51.8-87.8,146.2-152.3,248-156.3c76.5-3.1,150.4,26.5,219.8,58.8c69.4,32.3,138.8,68.3,214.6,79.7c75.8,11.3,161.2-7.2,208.8-67.2
		c46.2-58.3,46.6-139.7,40.4-213.8c-10.8-129-35.1-256.9-72.3-380.9c-26.4-87.8-59.6-174.5-111.6-249.9
		c-52-75.4-124.2-139.4-210.9-168.8c-112.2-38-234.7-15.6-351.5,4.4c-84.2,14.4-172.7,26.9-256,14.4l0-80.9
		c55.9,2.8,113.8-4.5,169.4-11.7C709.4,2055.1,905.1,2039.4,1067.8,2125.5L1067.8,2125.5z"/>
	<path class="st0" d="M1367.3,176.6c40.1,494.6,329.9,962.4,754.8,1218.7c26.5,16,54.2,31.8,72.6,56.7c18.5,24.8,24.9,61.5,6.3,86.2
		c-23,30.4-68.5,27.9-106.2,22.7c-165.1-22.7-348.8-35.5-482.5,64c-80.6,60-130.9,154.4-152.9,252.4c-22,98.1-17.9,200.1-6.1,299.9
		c28,236.4,98.6,466.9,114.6,704.4c16.1,237.5-32.3,495.6-204,660.5l121.2-23.8c160.3-177.8,187.1-440,159.6-677.8
		c-27.5-237.8-100.8-469.9-109.8-709.1c-3.9-102.1,4.8-207.3,48.4-299.7s127.3-170.4,228.2-186c85-13.2,169.9,17.8,255.5,27.1
		c85.5,9.3,188-14.2,221.6-93.4c23.3-54.9,4.4-120.1-31.4-167.8s-86.4-81.6-134.8-116.3c-149.8-107.4-289.3-231.7-396.6-381.5
		c-107.3-149.8-181.3-326.6-192.3-510.5c-3.4-56.6-1.4-115.9-26.6-166.7C1481.7,185.9,1416.8,148.9,1367.3,176.6L1367.3,176.6z"/>
	<path class="st0" d="M2105.8,1756.8c-74.6-19.8-143.9-63.1-221.1-65.1c-82.3-2.2-160.8,45.3-209.8,111.4
		c-49,66.1-71.5,148.7-79.1,230.7c-28.7,311.7,143.3,610.6,144.9,923.7c1,208.6-75,412.6-188.6,587.6l57.5-19.3
		c108.4-138.3,168.4-311,185.4-485.9c16.9-174.9-7.8-352.1-56.1-521.1c-31-108.5-72-214.8-89.3-326.3
		c-17.3-111.5-8.6-232.2,53.2-326.7c33.7-51.5,87.6-95.2,149.2-95.2c53.5,0,100.8,32.1,149.6,53.8c88.4,39.2,191.1,45.1,283.4,16.3
		c92.3-28.8,173.4-92,223.8-174.6l-10.5-47C2410.9,1737.5,2248.1,1794.6,2105.8,1756.8L2105.8,1756.8z"/>
	<path class="st0" d="M2085,1934.9c-47.2-18.1-92.3-46.7-142.8-47.9c-64.5-1.5-123.2,44.5-152.6,101.9
		c-29.4,57.4-34.2,124.2-31.6,188.7c8.5,206.5,86.9,404,109.5,609.4c27.4,248.5-30.1,505.7-160.7,718.9l32.1,30.8
		c96.4-32.5,169.4-116.1,208.5-210c39.1-93.9,48-197.6,47.8-299.2c-0.4-174.8-26.5-349.4-77.2-516.7
		c-33.4-110.4-77.9-219.7-81.9-334.9c-1.7-50.1,6-104.4,40.6-140.8c33.5-35.4,86.2-46.7,134.8-42.9c48.6,3.8,95.2,20.6,142.2,33.3
		c61.2,16.7,125.3,26.8,188.2,18.1c62.8-8.7,124.7-37.9,163.1-88.4c38.4-50.5,49.3-123.6,18.1-178.9
		C2440.5,1924.1,2243.1,1995.7,2085,1934.9L2085,1934.9z"/>
	<path class="st0" d="M2374.2,2149.9c-62.1,3.7-124-9.7-183.4-28.2c-40.7-12.8-81.3-28.1-123.8-30.3s-88.7,11.5-113.5,46.2
		c-23.6,33.3-22.8,77.6-18.7,118.2c14.3,141.1,138.6,466.3,129.5,819.1c-8.6,332.3-218.2,469.4-218.2,469.4l676,26.4l20.5-1490.6
		C2542.7,2080,2436.2,2146.2,2374.2,2149.9L2374.2,2149.9z"/>
	<path class="st2" d="M2360.8,2236c-45.4,3.3-90.7-8.8-134.1-25.6c-29.7-11.5-59.4-25.5-90.5-27.4c-31.1-2-64.9,10.5-83,41.9
		c-17.3,30.1-16.7,70.3-13.7,107.1c10.4,127.8,101.4,422.4,94.7,742c-6.2,301.1-159.6,425.3-159.6,425.3l494.4,23.9l15-1350.4
		C2484.1,2172.8,2406.2,2232.8,2360.8,2236L2360.8,2236z"/>
	<path class="st0" d="M2359.9,2309c-37.2,3-74.4-8-110-23.4c-24.4-10.6-48.7-23.4-74.2-25.1c-25.5-1.8-53.2,9.6-68,38.4
		c-14.2,27.6-13.7,64.4-11.2,98.2c8.6,117.1,83.1,387.3,77.6,680.3c-5.1,276-130.8,389.9-130.8,389.9l405.5,21.9L2461,2251
		C2461,2251,2397.1,2306,2359.9,2309L2359.9,2309z"/>
	<path class="st2" d="M2301.5,2349.4c-38.6,5.9-69.8-25.1-107.8-20.7c-20.9,2.4-38.3,16.8-47.4,33.7s-11,36.4-10.9,55.3
		c0.6,87.4,42.1,170.1,66,255c43.5,154.2,37,317.5,5.9,473.3c-38.7,193.8-107.6,307.6-107.6,307.6s252.3,9.3,306.8,11.6
		c38.4-350.1,31.4-720.2,34.6-1072.3c0.2-22.7-1.7-49.2-22.5-62.3c-18.7-11.8-44.5-7.1-65.4,0.9
		C2336.2,2338.1,2319.4,2346.5,2301.5,2349.4L2301.5,2349.4z"/>
	<path class="st0" d="M2312.9,2386.5c-28.8,6-51.9-23.4-80.3-18.8c-15.6,2.5-28.7,16.3-35.6,32.6c-6.9,16.3-8.5,34.9-8.6,52.9
		c-0.2,83.5,29.9,162.1,47.1,243c31.2,147,24.9,302.9,0.4,452.1c-30.5,185.4-82.9,294.7-82.9,294.7s188.1,6.8,228.8,8.5
		c31.6-334.7,29.5-688.2,34.8-1024.5c0.4-21.7-0.9-47-16.3-59.3c-13.9-11.1-33.1-6.4-48.8,1.5
		C2338.7,2375.5,2326.1,2383.8,2312.9,2386.5L2312.9,2386.5z"/>
	<path class="st2" d="M1794.3,111.8c-98.7,83.8-151.4,214.6-157.4,344.3c-14.1,306,184.2,605.1,447.6,749.5
		c42.1,23,86.2,42.2,131.8,57.2c91.4,30.3,191.3,44.4,283.7,17.7c120.3-34.8,213.4-136.1,262.8-251.2s60.4-243,59.4-368.2
		c-1.3-176.1-30.9-365.1-153.1-492C2558.3,54,2391,12.1,2231.4,2.2c-149.7-9.3-310.3,8.6-427.7,102
		C1800.5,106.7,1797.4,109.3,1794.3,111.8L1794.3,111.8z"/>
	<path class="st0" d="M1822,145.9c-92.4,78.4-141.8,201-147.3,322.4c-13.2,286.5,172.5,566.6,419.2,701.9
		c39.4,21.6,80.8,39.5,123.4,53.6c85.5,28.3,179.2,41.6,265.7,16.6c112.7-32.6,199.8-127.5,246.1-235.2
		c46.3-107.8,56.5-227.5,55.6-344.8c-1.3-164.9-29-341.9-143.3-460.7c-103.9-107.9-260.6-147.1-410-156.4
		c-140.2-8.7-290.6,8.1-400.5,95.5C1827.9,141,1825,143.4,1822,145.9L1822,145.9z"/>
	<path class="st2" d="M1860.2,192.9c-83.8,71.1-128.5,182.1-133.5,292.1c-11.9,259.7,156.3,513.5,379.8,636
		c35.7,19.6,73.2,35.8,111.8,48.6c77.5,25.7,162.3,37.7,240.8,15c102.1-29.5,181-115.5,223-213.2c42-97.6,51.2-206.2,50.4-312.4
		c-1.2-149.4-26.3-309.8-129.9-417.4c-94.1-97.7-236.1-133.3-371.6-141.7c-127-7.9-263.3,7.3-362.9,86.5
		C1865.4,188.5,1862.8,190.7,1860.2,192.9L1860.2,192.9z"/>
	<path class="st0" d="M1889.7,229.3c-77.1,65.4-118.2,167.5-122.8,268.8c-11,238.9,143.8,472.4,349.5,585.1
		c32.8,18,67.3,32.9,102.8,44.7c71.3,23.6,149.3,34.7,221.5,13.8c93.9-27.2,166.6-106.3,205.2-196.1
		c38.6-89.8,47.1-189.7,46.4-287.5c-1-137.4-24.2-285-119.5-384c-86.6-89.9-217.2-122.6-341.8-130.4
		c-116.9-7.3-242.3,6.7-333.9,79.6C1894.6,225.2,1892.2,227.2,1889.7,229.3L1889.7,229.3z"/>
	<path class="st2" d="M1913.5,258.5c-71.7,60.8-109.9,155.8-114.2,250c-10.2,222.2,133.8,439.4,325,544.2
		c30.5,16.8,62.6,30.6,95.7,41.5c66.3,21.9,138.9,32.3,206,12.9c87.4-25.3,154.9-98.8,190.8-182.4c35.9-83.6,43.8-176.4,43.1-267.4
		c-0.9-127.8-22.4-265.1-111.1-357.2c-80.6-83.6-202-114.1-317.9-121.3c-108.7-6.8-225.3,6.3-310.6,74.1
		C1917.9,254.7,1915.7,256.5,1913.5,258.5L1913.5,258.5z"/>
	<path class="st0" d="M2157.3,227.3c-29.3,3.8-58.2,10.2-85.9,18.9c-71.2,22.4-137,60.3-182.1,113.7
		c-118.9,140.8-33.9,329.2,71.6,457.8c67.9,82.7,156.1,152.4,255.7,204c40.3,20.9,83.1,39.3,128.9,46.5
		c45.8,7.2,95.2,2.3,133.2-20.6c38.1-22.8,61-60.6,78.6-98.3c54.4-116.2,71.9-246.2,50.1-371.7c-11.4-65.7-33.7-130.8-72.3-188.3
		c-38.6-57.5-94.3-107.2-162.4-136.1C2305.9,224.9,2230.2,217.9,2157.3,227.3z"/>
	<path class="st2" d="M2165.2,278.4c-25.7,3.3-51,8.9-75.4,16.6c-62.4,19.7-120.2,52.9-159.7,99.7
		c-104.2,123.4-29.8,288.6,62.8,401.3c59.5,72.5,136.9,133.6,224.1,178.8c35.3,18.3,72.8,34.4,113,40.7c40.2,6.3,83.4,2,116.8-18
		c33.4-20,53.5-53.1,68.9-86.2c47.6-101.9,63-215.9,44-325.9c-10-57.7-29.6-114.7-63.4-165.1c-33.9-50.4-82.7-94-142.4-119.3
		C2295.4,276.3,2229.1,270.2,2165.2,278.4L2165.2,278.4z"/>
	<path class="st0" d="M2174.7,339.4c-21.4,2.7-42.4,7.4-62.6,13.8c-51.9,16.4-99.9,44-132.8,82.9c-86.7,102.7-24.8,240.1,52.2,333.8
		c49.5,60.3,113.9,111.1,186.4,148.7c29.4,15.2,60.6,28.6,94,33.9c33.4,5.3,69.4,1.6,97.1-15c27.8-16.6,44.5-44.2,57.3-71.7
		c39.6-84.7,52.4-179.5,36.6-271c-8.3-48-24.6-95.4-52.7-137.3c-28.2-41.9-68.7-78.1-118.4-99.2
		C2283,337.7,2227.9,332.6,2174.7,339.4L2174.7,339.4z"/>
	<path class="st2" d="M2200.1,367c-17.7,2.3-35.1,6.1-51.8,11.4c-42.9,13.5-82.7,36.4-109.9,68.6c-71.7,84.9-20.5,198.6,43.2,276.2
		c40.9,49.9,94.2,92,154.2,123.1c24.3,12.6,50.1,23.7,77.7,28c27.6,4.4,57.4,1.3,80.3-12.4c23-13.8,36.8-36.6,47.4-59.3
		c32.8-70.1,43.4-148.6,30.3-224.3c-6.9-39.7-20.3-78.9-43.6-113.6c-23.3-34.7-56.9-64.7-98-82.1
		C2289.7,365.6,2244.1,361.4,2200.1,367L2200.1,367z"/>
	<path class="st0" d="M2209.6,416.6c-13.7,1.7-27.1,4.8-40,8.8c-33.2,10.5-63.8,28.1-84.9,53c-55.4,65.6-15.8,153.4,33.4,213.3
		c31.6,38.5,72.7,71,119.1,95c18.8,9.7,38.7,18.3,60,21.7c21.3,3.4,44.4,1,62.1-9.6c17.7-10.7,28.4-28.2,36.6-45.8
		c25.3-54.2,33.5-114.7,23.4-173.2c-5.3-30.6-15.7-60.9-33.7-87.7c-18-26.8-43.9-49.9-75.6-63.4
		C2278.8,415.5,2243.6,412.3,2209.6,416.6L2209.6,416.6z"/>
	<path class="st2" d="M2218.7,475.1c-9.5,1.2-18.9,3.3-27.9,6.1c-23.1,7.3-44.5,19.6-59.1,36.9c-38.6,45.7-11,106.9,23.2,148.6
		c22,26.8,50.7,49.5,83,66.2c13.1,6.8,27,12.8,41.8,15.1c14.9,2.3,30.9,0.7,43.2-6.7c12.4-7.4,19.8-19.7,25.5-31.9
		c17.6-37.7,23.3-79.9,16.3-120.7c-3.7-21.3-10.9-42.5-23.5-61.1c-12.6-18.7-30.6-34.8-52.7-44.2
		C2266.9,474.3,2242.3,472.1,2218.7,475.1L2218.7,475.1z"/>
	<path class="st2" d="M371.3,2244c204.7,31.2,424.8-61.2,615.3,21.5c114,49.5,197.2,156.5,243.4,273.9
		c46.2,117.4,59.4,245.4,66.1,371.6c4.2,78.3,1.6,167.7-56,219.7c-51.9,46.9-131.6,45.2-197.1,22c-65.5-23.1-123.7-64.1-188.4-89.5
		c-144-56.5-317-27.4-435.5,73.4c-23.9,20.3-45.4,43.4-64.3,68.6c-70.1,93.4-103.6,215.6-88.7,332.4L37.9,2046.1
		c77.9,101.2,192.9,171.8,317,195C360.3,2242.2,365.8,2243.2,371.3,2244L371.3,2244z"/>
	<path class="st0" d="M133.2,2212.1l129.5,1005.4c36.1-125.2,159.5-210.1,287.3-236c127.7-25.9,259.9-3.1,387.2,24.7
		c36.5,8,73.4,16.4,110.7,14.9c37.3-1.4,75.8-14,100.7-41.9c24.1-27.1,32.4-64.6,37.6-100.5c11.8-80.8,12.8-164-6.5-243.4
		c-19.2-79.3-59.6-154.9-121.5-208.2c-81.9-70.7-193.4-96.9-301.4-103.5c-107.9-6.5-216.5,4.3-324.3-3.1
		C324.6,2313.1,213.2,2284.8,133.2,2212.1L133.2,2212.1z"/>
	<path class="st2" d="M315.1,2384.2c-48.5-1.9-98.4-16.1-133.3-49.8l103.8,731c6-53,56.6-89.2,106-109.3
		c92.7-37.7,195.2-43.4,295.3-40.9c100.1,2.5,200.3,12.6,300,4.6c33.5-2.7,68.5-8.1,95.2-28.5c29.1-22.2,43.6-58.8,49.9-94.8
		c17.9-102.1-21.7-209.5-92.2-285.4c-70.6-75.9-169.2-122-270.9-141.7c-101.7-19.7-206.8-14.6-309.4,0.4
		C411.6,2376.9,363.6,2386.1,315.1,2384.2L315.1,2384.2z"/>
	<path class="st0" d="M224,2464.4l58.1,500.8c55.3-51.9,102.8-65.4,145.7-73.3c98.6-18.1,199.2-25.3,299.4-21.7
		c49,1.8,98.4,6.2,147-0.7c48.5-6.9,97.4-26.7,128.3-64.8c34.3-42.3,41.4-102.8,25.2-154.7c-16.2-52-53.5-95.6-98.1-126.8
		c-44.5-31.2-96.1-51.1-148.4-66.2C611.7,2408,429,2405.9,224,2464.4L224,2464.4z"/>
	<path class="st2" d="M260.3,2508.9l38.3,376.4c171.4-46.5,311.3-67,451.9-74.7c38.8-2.1,78.3-3.4,114.9-16.1
		c36.7-12.8,70.8-39.4,81.9-76.7c10.8-36.2-2.3-76.4-26.3-105.5c-24-29.2-57.5-48.8-91.8-64.6
		C664.5,2471.6,474.8,2472.6,260.3,2508.9L260.3,2508.9z"/>
	<path class="st0" d="M282.2,2553.7l32.5,283.5c150.7-38.4,269.4-53.8,388.7-59.6c32.9-1.6,66.4-2.5,97.5-12.2
		c31.1-9.7,60.1-29.7,69.5-57.7c9.1-27.2-2-57.5-22.3-79.5c-20.4-21.9-48.8-36.8-77.9-48.7C630.4,2522.3,469.4,2523.1,282.2,2553.7
		L282.2,2553.7z"/>
	<path class="st2" d="M295.7,2574.9l26.4,230.5c129-33.7,225.4-46.3,322.4-51c26.7-1.3,54-2.1,79.3-9.9c25.3-7.8,48.8-24.2,56.5-47
		c7.4-22.1-1.6-46.8-18.1-64.6c-16.6-17.9-39.7-29.9-63.3-39.6C585.3,2546.8,454.4,2547.4,295.7,2574.9L295.7,2574.9z"/>
	<path class="st2" d="M1236.8,99.3c-26.2,120.5-32.2,244.8-19.6,367.4c27.6,270.1,145.4,531.6,336,725.3
		c33.9,34.5,72.4,86.2,43.9,125.2c-14.1,19.2-39.4,25.6-61.9,33.7c-122.5,43.9-199.6,170.3-224.1,298.2c-24.5,127.8-6,259.3,7,388.8
		c3.9,38.6,4.8,83.7-24.8,108.9c-25,21.2-63.4,18.8-92.8,4.3c-29.4-14.5-52.7-38.7-77.5-60c-90.4-77.6-209.9-120.5-329-118.1
		c-129,2.6-255.5,55.9-383.7,41c-17.9-2.1-35.6-5.5-52.9-10.4c-96.5-26.7-181.8-94-228.3-182.9L0,72
		C412.4,66.2,825.1,75.3,1236.8,99.3L1236.8,99.3z"/>
	<path class="st0" d="M185.6,1783.4c21.1,71.3,90.2,120.7,162.8,137.2c72.5,16.6,148.4,5.7,221.2-9.5
		c72.8-15.2,145.5-34.8,219.9-35.4c81.9-0.8,164,22.1,233.7,65.1c25.6,15.8,49.9,34.4,78.1,45c28.2,10.6,62.2,11.7,86.4-6.2
		c38.3-28.4,33.9-86.1,25.5-133.1c-13.8-77.6-27.8-156.3-21.4-234.9c6.4-78.6,35.5-158.5,95-210.2c39.2-34.1,93.7-60,104.7-110.8
		c10.1-46.4-21.6-90.4-49.4-128.9c-194-268.2-276.9-614.3-225.8-941.3c-333-13.7-666-27.5-998.9-41.2L185.6,1783.4L185.6,1783.4z"/>
	<path class="st2" d="M133.2,299.8L165,1777.1c135.4,81.9,248.4,98,344.3,81.8c95.9-16.2,187.4-56.8,284.5-63
		c64.3-4.1,129.7,7.4,188.7,33.3c21.8,9.6,45.2,21.3,68.3,15.6c23.4-5.8,39.3-28.9,44.2-52.6c5-23.6,1.1-48.1-2-72
		c-15.4-117-12.4-246,59.3-339.8c27.6-36.1,65.8-68.9,70.4-114c4.5-43.6-24.2-82.7-48.5-119.1c-158.8-237.4-182.7-538-188.5-823.6
		C728.7,303,470.7,295.7,133.2,299.8L133.2,299.8z"/>
	<path class="st0" d="M168.7,1740.3c181.7,37.1,255.3,40.3,320.2,27.2c64.8-13.1,126.6-39.9,192.1-49.3
		c66.1-9.5,134.7-0.5,196.1,25.7c21.1,9,41.7,20,64.3,23.8c22.6,3.8,48.5-1.2,62.5-19.4c24.1-31.1,1-74.6-13.1-111.3
		c-29.5-76.3-13.8-168.2,39.4-230.3c28-32.7,66.7-60,76.7-101.8c10.4-43.5-14-86.8-35.7-126C939,940.9,874.7,665.4,887.9,393.4
		c-204-4.2-408-8.3-743.6-6.4L168.7,1740.3L168.7,1740.3z"/>
	<path class="st2" d="M463.5,449.6c-38.6,2.9-309.8,3.6-309.8,3.6l-5.1,1235.9c0.4,5.4,308.4-18.8,337.7-21.1
		c107.8-8.4,226.6-33.1,331.2,4c29.6,10.5,67.8,22.8,88.1-1.2c20.2-23.7,2.4-58.8-7.6-88.3c-14-41.2-10.2-88.2,10.2-126.6
		c21.6-40.7,61.1-73.2,68.7-118.6c6.6-39.4-12.7-78-30-114.1c-87.3-182.2-136-382.7-142-584.6c-1.4-47.1-2.1-98.9-33.1-134.4
		c-26.9-30.9-69.9-41.4-110.4-47.4C595.9,447.1,529.5,444.6,463.5,449.6L463.5,449.6z"/>
	<path class="st0" d="M373.4,534.7c-49.1,16.2-108.6,19-160.2,22.5l32.4,1079.3c86.3,17.8,168.8-36.2,251.7-65.8
		c65.1-23.2,135.3-31.9,204-25.1c33.5,3.3,71.7,8.9,97.2-13.1c26.3-22.7,25.3-62.9,22.3-97.5c-15.6-176.1-31.1-352.3-46.6-528.4
		c-7.6-86.6-16.4-176.7-62-250.7C644.4,545.7,496.3,494.3,373.4,534.7L373.4,534.7z"/>
	<path class="st2" d="M395.7,619.3c-41.5,13.6-91.8,16-135.4,19l27.4,912.1c72.9,15.1,142.6-30.6,212.8-55.6
		c55-19.7,114.3-26.9,172.4-21.2c28.4,2.8,60.6,7.5,82.2-11.1c22.2-19.2,21.4-53.2,18.8-82.4c-13.1-148.9-26.3-297.7-39.4-446.5
		c-6.5-73.1-13.9-149.3-52.4-211.9C624.8,628.6,499.7,585.2,395.7,619.3L395.7,619.3z"/>
	<path class="st0" d="M408.2,705.1c-11.5,2.4-22.9,5.1-34.2,8.4c-21.1,6-43,14.1-57,31.8c-16.4,20.6-18.7,49.4-19.9,76.3
		c-7.9,179.7,1.4,360.2,28.2,537.8c3,19.6,6.3,39.7,15.4,57.1c32.7,62.3,94.6,15.8,140.2-0.3c36.8-13,76.9-15.4,114.8-7
		c30.5,6.8,63.7,20,91.1,4.4c30.2-17.2,36.1-59.5,37.5-95.6c6.6-165-5.3-332.4-53.5-489.6c-12.3-40-28.4-81.5-60.7-106.1
		c-29.4-22.4-67.6-27.2-104-27.1C473.3,695.1,440.4,698.5,408.2,705.1L408.2,705.1z"/>
	<path class="st2" d="M429.3,781c-9.1,1.9-18.2,4.1-27.1,6.6c-16.8,4.8-34.1,11.2-45.2,25.2c-13,16.3-14.8,39.2-15.8,60.5
		c-6.3,142.5,1.1,285.6,22.3,426.5c2.3,15.6,5,31.5,12.2,45.3c25.9,49.3,75,12.5,111.2-0.2c29.2-10.3,60.9-12.3,91-5.6
		c24.2,5.3,50.5,15.9,72.3,3.5c24-13.6,28.6-47.2,29.8-75.8c5.2-130.8-4.2-263.7-42.4-388.3c-9.7-31.7-22.5-64.6-48.2-84.2
		c-23.3-17.8-53.7-21.5-82.4-21.5C480.9,773,454.9,775.7,429.3,781L429.3,781z"/>
	<path class="st0" d="M449.8,854.5c-6.8,1.4-13.5,3-20.2,5c-12.5,3.5-25.5,8.4-33.8,18.8c-9.7,12.2-11.1,29.3-11.8,45.1
		c-4.7,106.4,0.8,213.3,16.7,318.5c1.7,11.6,3.7,23.5,9.1,33.8c19.4,36.9,56,9.3,83-0.2c21.8-7.7,45.5-9.1,68-4.2
		c18.1,4,37.7,11.8,53.9,2.6c17.9-10.2,21.4-35.2,22.3-56.6c3.9-97.7-3.2-196.9-31.7-289.9c-7.2-23.7-16.8-48.2-36-62.8
		c-17.4-13.3-40-16.1-61.5-16C488.4,848.6,468.9,850.6,449.8,854.5L449.8,854.5z"/>
	<path class="st2" d="M1161.8,3436.7H544c0.7-10.4,2.2-20.8,4.6-31c16.5-69.1,72.9-127.2,141.5-145.7
		C854.8,3215.6,1002.7,3385.5,1161.8,3436.7z"/>
	<path class="st0" d="M1217.1,466.7h123c39.3,331.4,224.6,645.2,501,833.5c42.1,28.6,92.5,73.6,71.5,119.9
		c-23.1,51.2-97.7,34.1-153.2,25.6c-128.1-19.6-256.9,60-324.7,170.4c-67.8,110.4-83.6,245.5-77.8,374.9
		c17.2,384.6,208.5,757.1,157.8,1138.7c-16.7,125.4-77.3,263.2-191.3,307h-161.6c-159.1-51.2-306.9-221.1-471.7-176.7
		c-68.6,18.5-125,76.6-141.5,145.7c-2.4,10.2-4,20.6-4.6,31h-69.3c7.9-60,33.5-117.7,74.5-162.2c71.4-77.7,186.6-112.2,288.9-86.6
		c78,19.5,144.2,69.5,215.1,107.4c71,37.9,157,64,230.9,32.2c53.9-23.2,91.5-73.6,116.9-126.5c82.4-171.2,58.8-374.2,9.4-557.7
		c-55.4-205.8-154.3-418.3-342.7-517.8c-162.7-86-358.4-70.4-540.9-46.8c-55.6,7.2-113.6,14.6-169.4,11.7v-86.9
		c17.3,4.8,35,8.3,52.9,10.4c128.2,14.9,254.7-38.4,383.7-41c119.2-2.4,238.6,40.5,329,118.1c24.9,21.3,48.1,45.5,77.5,60
		c29.4,14.4,67.8,16.9,92.8-4.3c29.6-25.1,28.6-70.2,24.8-108.9c-13.1-129.5-31.5-261-7-388.8c24.5-127.8,101.6-254.3,224.1-298.2
		c22.5-8.1,47.8-14.4,61.9-33.7c28.6-39-9.9-90.7-43.9-125.2C1362.5,998.2,1244.8,736.8,1217.1,466.7L1217.1,466.7z"/>
</g>
</svg>
