<svg width="1980" height="761" viewBox="0 0 1980 761" fill="none" xmlns="http://www.w3.org/2000/svg">
<g clip-path="url(#clip0_1_539)">
<path d="M1980 2970L1980 0L0 -2.36113e-05L-3.54169e-05 2970L1980 2970Z" fill="#FB5607"/>
<path d="M1372.54 1284.23C1285.77 1254.81 1213.58 1190.89 1161.59 1115.45C1109.59 1040.05 1076.33 953.33 1049.95 865.577C1012.73 741.55 988.456 613.681 977.684 484.664C971.467 410.573 971.863 329.155 1018.04 270.904C1065.64 210.91 1151.05 192.416 1226.81 203.742C1302.56 215.068 1371.98 251.104 1441.4 283.417C1510.86 315.731 1584.67 345.312 1661.22 342.263C1763.03 338.224 1857.4 273.715 1909.2 185.962C1942.38 129.769 1959.21 65.3796 1962.14 -2.12974e-07L1980 0L1980 235.105C1961.31 260.053 1940 282.902 1916.28 303.059C1798.75 402.97 1627.24 431.878 1484.49 375.844C1420.33 350.658 1362.6 310.068 1297.65 287.14C1232.67 264.211 1153.67 262.469 1102.19 308.959C1045.12 360.479 1042.59 449.104 1046.71 526.759C1053.32 651.974 1066.47 778.853 1112.25 895.237C1158.02 1011.62 1240.47 1117.71 1353.57 1166.77C1542.42 1248.71 1760.7 1157.15 1963.65 1188.04C1969.11 1188.87 1974.57 1189.78 1980 1190.85L1980 1265.42C1896.68 1252.98 1808.22 1265.46 1723.99 1279.87C1607.21 1299.83 1484.72 1322.24 1372.54 1284.23Z" fill="#FF6014"/>
<path d="M1980 235.105L1980 1190.85C1974.57 1189.78 1969.11 1188.87 1963.65 1188.04C1760.7 1157.15 1542.42 1248.71 1353.57 1166.77C1240.47 1117.71 1158.02 1011.62 1112.25 895.237C1066.47 778.853 1053.32 651.974 1046.71 526.759C1042.59 449.104 1045.12 360.479 1102.19 308.959C1153.67 262.469 1232.67 264.211 1297.65 287.14C1362.6 310.068 1420.33 350.658 1484.49 375.844C1627.24 431.878 1798.75 402.97 1916.28 303.059C1940 282.902 1961.31 260.053 1980 235.105Z" fill="#1C438D"/>
<path d="M1269.66 1311.24C1081.28 1211.68 982.397 999.187 926.996 793.426C877.576 609.959 854.053 406.969 936.421 235.739C961.844 182.833 999.464 132.462 1053.36 109.217C1127.25 77.418 1213.26 103.514 1284.23 141.412C1355.15 179.309 1421.32 229.363 1499.34 248.846C1601.7 274.468 1716.86 239.936 1788.26 162.241C1829.24 117.691 1854.82 59.994 1862.74 -1.39826e-06L1962.14 -2.12974e-07C1959.21 65.3796 1942.38 129.769 1909.2 185.962C1857.4 273.715 1763.03 338.224 1661.22 342.263C1584.67 345.312 1510.86 315.731 1441.4 283.417C1371.98 251.104 1302.56 215.068 1226.81 203.742C1151.05 192.416 1065.64 210.91 1018.04 270.904C971.863 329.155 971.467 410.573 977.684 484.664C988.456 613.681 1012.73 741.55 1049.95 865.577C1076.33 953.33 1109.59 1040.05 1161.59 1115.45C1213.58 1190.89 1285.77 1254.81 1372.54 1284.23C1484.72 1322.24 1607.21 1299.83 1723.99 1279.87C1808.22 1265.46 1896.68 1252.98 1980 1265.42L1980 1346.28C1924.12 1343.43 1866.15 1350.8 1810.55 1358C1628.07 1381.64 1432.33 1397.25 1269.66 1311.24Z" fill="#FB5607"/>
<path d="M970.16 3260.07C930.006 2765.51 640.213 2297.63 215.345 2041.38C188.853 2025.42 161.133 2009.54 142.719 1984.71C124.265 1959.88 117.81 1923.17 136.422 1898.5C159.39 1868.09 204.93 1870.59 242.669 1875.77C407.722 1898.5 591.466 1911.25 725.155 1811.82C805.781 1751.82 856.073 1657.42 878.051 1559.37C900.029 1461.32 895.95 1359.23 884.11 1259.44C856.113 1023.07 785.545 792.515 769.468 555.034C753.39 317.552 801.781 59.4 973.447 -105.494L852.271 -81.6552C691.971 96.1092 665.201 358.38 692.683 596.178C720.166 833.976 793.426 1066.07 802.494 1305.26C806.375 1407.34 797.742 1512.52 754.103 1604.91C710.464 1697.3 626.789 1775.27 525.849 1790.87C440.867 1804.02 355.925 1773.09 270.389 1763.82C184.892 1754.56 82.4078 1778.04 48.7873 1857.24C25.5025 1912.13 44.3521 1977.39 80.1901 2025.03C116.028 2072.66 166.597 2106.6 215.028 2141.33C364.795 2248.69 504.346 2373.03 611.622 2522.84C718.938 2672.64 792.95 2849.42 803.959 3033.36C807.365 3089.95 805.385 3149.23 830.57 3200.04C855.756 3250.8 920.621 3287.79 970.121 3260.11L970.16 3260.07Z" fill="#FF6014"/>
<path d="M231.7 1679.91C306.266 1699.75 375.606 1742.99 452.747 1745.05C535.036 1747.23 613.562 1699.75 662.587 1633.62C711.612 1567.49 734.105 1484.88 741.668 1402.91C770.378 1091.22 598.356 792.277 596.772 479.239C595.743 270.626 671.774 66.6468 785.347 -108.306L727.808 -89.0208C619.423 49.302 559.39 221.998 542.441 396.911C525.532 571.824 550.202 749.034 598.554 917.968C629.6 1026.47 670.507 1132.72 687.812 1244.23C705.118 1355.75 696.366 1476.45 634.63 1570.89C600.97 1622.37 546.995 1666.13 485.456 1666.13C431.957 1666.13 384.714 1634.01 335.808 1612.35C247.421 1573.15 144.738 1567.25 52.4304 1596.04C-39.8772 1624.83 -120.978 1688.07 -171.389 1770.6L-160.934 1817.64C-73.4184 1699.2 89.3376 1642.09 231.66 1679.95L231.7 1679.91Z" fill="#FF6014"/>
<path d="M252.49 1501.79C299.653 1519.93 344.758 1548.52 395.287 1549.67C459.756 1551.13 518.483 1505.2 547.906 1447.82C577.328 1390.44 582.12 1323.59 579.467 1259.16C570.953 1052.69 492.585 855.162 469.933 649.796C442.53 401.267 499.99 144.144 630.63 -69.0624L598.554 -99.8316C502.168 -67.3596 429.145 16.2756 390.02 110.167C350.935 204.059 342.025 307.732 342.263 409.424C342.659 584.179 368.755 758.855 419.443 926.086C452.866 1036.45 497.376 1145.75 501.376 1260.98C503.118 1311.12 495.356 1365.33 460.825 1401.76C427.284 1437.16 374.616 1448.45 325.987 1444.65C277.359 1440.85 230.828 1424.1 183.784 1411.3C122.562 1394.63 58.4498 1384.5 -4.39546 1393.17C-67.2407 1401.84 -129.056 1431.06 -167.468 1481.59C-205.88 1532.08 -216.77 1605.19 -185.605 1660.47C-103.079 1512.56 94.4064 1441.04 252.529 1501.79L252.49 1501.79Z" fill="#FF6014"/>
<path d="M-36.7487 1286.8C25.3441 1283.12 87.2785 1296.46 146.639 1315.04C187.308 1327.79 227.898 1343.15 270.468 1345.33C313.038 1347.51 359.212 1333.81 383.922 1299.08C407.563 1265.81 406.771 1221.5 402.653 1180.91C388.357 1039.86 264.053 714.661 273.161 361.865C281.754 29.5416 491.317 -107.554 491.317 -107.554L-184.734 -133.927L-205.247 1356.66C-205.247 1356.66 -98.7623 1290.48 -36.6696 1286.84L-36.7487 1286.8Z" fill="#FF6014"/>
<path d="M-23.3244 1200.67C22.0572 1197.35 67.3597 1209.42 110.761 1226.25C140.501 1237.78 170.161 1251.72 201.287 1253.7C232.412 1255.68 266.191 1243.24 284.249 1211.76C301.554 1181.62 300.96 1141.47 297.95 1104.68C287.496 976.892 196.575 682.268 203.227 362.657C209.484 61.578 362.776 -62.6472 362.776 -62.6472L-131.591 -86.526L-146.599 1263.87C-146.599 1263.87 -68.7456 1203.92 -23.3244 1200.59L-23.3244 1200.67Z" fill="#FB5607"/>
<path d="M-22.4136 1127.73C14.8104 1124.68 51.9552 1135.77 87.5556 1151.17C111.949 1161.75 136.303 1174.54 161.806 1176.32C187.348 1178.1 215.028 1166.73 229.838 1137.87C244.015 1110.27 243.54 1073.44 241.085 1039.7C232.492 922.561 157.964 652.41 163.429 359.41C168.577 83.358 294.268 -30.492 294.268 -30.492L-111.197 -52.3908L-123.512 1185.66C-123.512 1185.66 -59.6376 1130.7 -22.4136 1127.65L-22.4136 1127.73Z" fill="#FF6014"/>
<path d="M35.9569 1087.34C74.5273 1081.4 105.772 1112.4 143.788 1108.01C164.696 1105.59 182.081 1091.26 191.149 1074.27C200.218 1057.28 202.158 1037.88 202.039 1018.99C201.406 931.59 159.984 848.905 136.026 764.003C92.5057 609.761 99.0001 446.49 130.126 290.664C168.775 96.9012 237.759 -16.9092 237.759 -16.9092C237.759 -16.9092 -14.5331 -26.2152 -69.0226 -28.5516C-107.474 321.552 -100.465 691.693 -103.593 1043.78C-103.791 1066.47 -101.891 1092.96 -81.061 1106.07C-62.3302 1117.87 -36.5507 1113.16 -15.6419 1105.12C1.26726 1098.62 18.0577 1090.15 35.9173 1087.42L35.9569 1087.34Z" fill="#FB5607"/>
<path d="M24.5916 1050.19C53.4204 1044.21 76.4677 1073.56 104.861 1069C120.503 1066.51 133.571 1052.69 140.501 1036.37C147.431 1020.06 149.015 1001.52 149.094 983.466C149.332 899.989 119.156 821.344 102.01 740.441C70.8445 593.446 77.0616 437.501 101.574 288.367C132.026 102.96 184.457 -6.33599 184.457 -6.33599C184.457 -6.33599 -3.68279 -13.1076 -44.3124 -14.8896C-75.9132 319.849 -73.8143 673.358 -79.0811 1009.64C-79.4375 1031.34 -78.2099 1056.61 -62.7659 1068.96C-48.8663 1080.09 -29.6207 1075.34 -13.9391 1067.5C-1.26715 1061.16 11.3257 1052.92 24.6709 1050.15L24.5916 1050.19Z" fill="#FF6014"/>
<path d="M1966.14 1192.71C1761.45 1161.55 1541.31 1253.89 1350.84 1171.25C1236.79 1121.75 1153.63 1014.75 1107.45 897.376C1061.28 780.001 1048.01 652.014 1041.36 525.73C1037.2 447.401 1039.78 358.024 1097.32 306.068C1149.23 259.182 1228.91 260.924 1294.45 284.051C1359.94 307.177 1418.16 348.124 1482.86 373.507C1626.85 430.016 1799.82 400.871 1918.34 300.089C1942.26 279.774 1963.76 256.727 1982.61 231.541C2052.67 138.164 2086.21 15.9588 2071.28 -100.822L2299.61 1390.55C2221.72 1289.3 2106.68 1218.73 1982.65 1195.52C1977.19 1194.45 1971.68 1193.54 1966.14 1192.67L1966.14 1192.71Z" fill="#FB5607"/>
<path d="M2204.29 1224.59L2074.8 219.226C2038.69 344.441 1915.25 429.304 1787.54 455.202C1659.83 481.1 1527.65 458.291 1400.34 430.492C1363.82 422.532 1326.92 414.097 1289.61 415.562C1252.27 416.988 1213.78 429.581 1188.95 457.459C1164.83 484.546 1156.6 522.007 1151.37 557.924C1139.61 638.748 1138.62 721.948 1157.83 801.306C1177.03 880.664 1217.46 956.182 1279.28 1009.52C1361.17 1080.17 1472.68 1106.46 1580.67 1113C1688.62 1119.53 1797.13 1108.68 1905 1116.13C2012.91 1123.57 2124.22 1151.88 2204.29 1224.59Z" fill="#FF6014"/>
<path d="M2022.41 1052.49C2070.88 1054.35 2120.78 1068.57 2155.67 1102.27L2051.87 371.25C2045.89 424.274 1995.25 460.469 1945.83 480.586C1853.12 518.285 1750.6 523.948 1650.57 521.453C1550.5 518.958 1450.31 508.82 1350.56 516.82C1317.06 519.512 1282.05 524.898 1255.32 545.292C1226.25 567.468 1211.72 604.098 1205.38 640.134C1187.49 742.183 1227.05 849.658 1297.61 925.492C1368.18 1001.37 1466.78 1047.46 1568.48 1067.18C1670.21 1086.9 1775.31 1081.79 1877.83 1066.78C1925.83 1059.78 1973.9 1050.59 2022.37 1052.45L2022.41 1052.49Z" fill="#FB5607"/>
<path d="M2113.45 972.299L2055.4 471.517C2000.12 523.393 1952.56 536.936 1909.71 544.777C1811.11 562.835 1710.52 570.121 1610.33 566.438C1561.31 564.617 1511.97 560.221 1463.38 567.151C1414.83 574.081 1365.96 593.842 1335.11 631.976C1300.86 674.269 1293.73 734.738 1309.93 786.654C1326.12 838.609 1363.47 882.209 1408.02 913.453C1452.57 944.698 1504.17 964.498 1556.44 979.625C1725.81 1028.65 1908.48 1030.83 2113.53 972.259L2113.45 972.299Z" fill="#FF6014"/>
<path d="M2077.14 927.828L2038.85 551.43C1867.42 597.96 1727.55 618.433 1586.97 626.076C1548.2 628.175 1508.68 629.442 1472.05 642.233C1435.38 655.024 1401.25 681.674 1390.2 718.898C1379.43 755.093 1392.53 795.287 1416.49 824.432C1440.49 853.578 1474.03 873.22 1508.28 889.06C1672.94 965.092 1862.7 964.062 2077.18 927.828L2077.14 927.828Z" fill="#FB5607"/>
<path d="M2055.28 883.04L2022.77 599.504C1872.09 637.877 1753.41 653.321 1634.09 659.063C1601.19 660.647 1567.68 661.597 1536.56 671.26C1505.47 680.922 1476.49 700.999 1467.1 728.996C1457.95 756.241 1469.08 786.535 1489.44 808.474C1509.79 830.412 1538.26 845.222 1567.33 857.142C1707.04 914.404 1868.05 913.612 2055.28 883.001L2055.28 883.04Z" fill="#FF6014"/>
<path d="M2041.74 861.815L2015.32 631.303C1886.35 665.042 1789.88 677.596 1692.9 682.268C1666.17 683.575 1638.89 684.328 1613.62 692.168C1588.32 700.009 1564.79 716.324 1557.15 739.134C1549.71 761.27 1558.77 785.902 1575.29 803.761C1591.84 821.621 1614.97 833.62 1638.61 843.322C1752.18 889.891 1883.06 889.258 2041.74 861.815Z" fill="#FB5607"/>
<path d="M1175.68 -7.36719e-06L1793.48 0C1792.81 10.4148 1791.27 20.79 1788.85 30.9672C1772.38 100.069 1715.99 158.162 1647.4 176.695C1482.62 221.126 1334.8 51.2028 1175.68 -7.36719e-06Z" fill="#FB5607"/>
<path d="M1120.32 2970L997.286 2970C957.964 2638.59 772.675 2324.8 496.267 2136.54C454.212 2107.91 403.762 2062.96 424.75 2016.59C447.876 1965.43 522.443 1982.49 577.962 1991.01C706.028 2010.61 834.887 1930.98 902.682 1820.57C970.477 1710.17 986.278 1575.09 980.496 1445.68C963.31 1061.12 771.962 688.604 822.69 307.019C839.401 181.645 899.989 43.7976 1014.04 -1.1519e-05L1175.68 -9.59137e-06C1334.8 51.2028 1482.62 221.126 1647.4 176.695C1715.99 158.162 1772.38 100.069 1788.85 30.9672C1791.27 20.79 1792.81 10.4148 1793.48 -2.22418e-06L1862.74 -1.39826e-06C1854.82 59.994 1829.24 117.691 1788.26 162.241C1716.86 239.936 1601.7 274.468 1499.34 248.846C1421.32 229.363 1355.15 179.309 1284.23 141.412C1213.26 103.514 1127.25 77.418 1053.36 109.217C999.464 132.462 961.844 182.833 936.421 235.739C854.053 406.969 877.576 609.959 926.996 793.426C982.397 999.187 1081.28 1211.68 1269.66 1311.24C1432.33 1397.25 1628.07 1381.64 1810.55 1358C1866.15 1350.8 1924.12 1343.43 1980 1346.28L1980 1433.16C1962.69 1428.33 1944.99 1424.85 1927.13 1422.79C1798.95 1407.9 1672.43 1461.2 1543.41 1463.81C1424.25 1466.19 1304.78 1423.3 1214.37 1345.69C1189.5 1324.34 1166.26 1300.15 1136.84 1285.69C1107.41 1271.24 1069.04 1268.78 1044.05 1290.01C1014.47 1315.12 1015.42 1360.26 1019.3 1398.87C1032.37 1528.36 1050.83 1659.87 1026.35 1787.7C1001.88 1915.53 924.739 2041.97 802.256 2085.85C779.764 2093.93 754.499 2100.27 740.401 2119.51C711.85 2158.56 750.341 2210.23 784.278 2244.73C974.952 2438.45 1092.68 2699.93 1120.32 2970Z" fill="#FF6014"/>
</g>
<defs>
<clipPath id="clip0_1_539">
<rect width="2970" height="1980" fill="white" transform="translate(1980) rotate(90)"/>
</clipPath>
</defs>
</svg>
