<svg width="1980" height="2970" viewBox="0 0 1980 2970" fill="none" xmlns="http://www.w3.org/2000/svg">
<g clip-path="url(#clip0_1_539)">
<path d="M1980 2970L1980 0L0 -2.36113e-05L-3.54169e-05 2970L1980 2970Z" fill="#FB5607"/>
<path d="M1372.54 1284.23C1285.77 1254.81 1213.58 1190.89 1161.59 1115.45C1109.59 1040.05 1076.33 953.33 1049.95 865.577C1012.73 741.55 988.456 613.681 977.684 484.664C971.467 410.573 971.863 329.155 1018.04 270.904C1065.64 210.91 1151.05 192.416 1226.81 203.742C1302.56 215.068 1371.98 251.104 1441.4 283.417C1510.86 315.731 1584.67 345.312 1661.22 342.263C1763.03 338.224 1857.4 273.715 1909.2 185.962C1942.38 129.769 1959.21 65.3796 1962.14 -2.12974e-07L1980 0L1980 235.105C1961.31 260.053 1940 282.902 1916.28 303.059C1798.75 402.97 1627.24 431.878 1484.49 375.844C1420.33 350.658 1362.6 310.068 1297.65 287.14C1232.67 264.211 1153.67 262.469 1102.19 308.959C1045.12 360.479 1042.59 449.104 1046.71 526.759C1053.32 651.974 1066.47 778.853 1112.25 895.237C1158.02 1011.62 1240.47 1117.71 1353.57 1166.77C1542.42 1248.71 1760.7 1157.15 1963.65 1188.04C1969.11 1188.87 1974.57 1189.78 1980 1190.85L1980 1265.42C1896.68 1252.98 1808.22 1265.46 1723.99 1279.87C1607.21 1299.83 1484.72 1322.24 1372.54 1284.23V1284.23Z" fill="#FF6014"/>
<path d="M1980 235.105L1980 1190.85C1974.57 1189.78 1969.11 1188.87 1963.65 1188.04C1760.7 1157.15 1542.42 1248.71 1353.57 1166.77C1240.47 1117.71 1158.02 1011.62 1112.25 895.237C1066.47 778.853 1053.32 651.974 1046.71 526.759C1042.59 449.104 1045.12 360.479 1102.19 308.959C1153.67 262.469 1232.67 264.211 1297.65 287.14C1362.6 310.068 1420.33 350.658 1484.49 375.844C1627.24 431.878 1798.75 402.97 1916.28 303.059C1940 282.902 1961.31 260.053 1980 235.105Z" fill="#1C438D"/>
<path d="M1269.66 1311.24C1081.28 1211.68 982.397 999.187 926.996 793.426C877.576 609.959 854.053 406.969 936.421 235.739C961.844 182.833 999.464 132.462 1053.36 109.217C1127.25 77.418 1213.26 103.514 1284.23 141.412C1355.15 179.309 1421.32 229.363 1499.34 248.846C1601.7 274.468 1716.86 239.936 1788.26 162.241C1829.24 117.691 1854.82 59.994 1862.74 -1.39826e-06L1962.14 -2.12974e-07C1959.21 65.3796 1942.38 129.769 1909.2 185.962C1857.4 273.715 1763.03 338.224 1661.22 342.263C1584.67 345.312 1510.86 315.731 1441.4 283.417C1371.98 251.104 1302.56 215.068 1226.81 203.742C1151.05 192.416 1065.64 210.91 1018.04 270.904C971.863 329.155 971.467 410.573 977.684 484.664C988.456 613.681 1012.73 741.55 1049.95 865.577C1076.33 953.33 1109.59 1040.05 1161.59 1115.45C1213.58 1190.89 1285.77 1254.81 1372.54 1284.23C1484.72 1322.24 1607.21 1299.83 1723.99 1279.87C1808.22 1265.46 1896.68 1252.98 1980 1265.42L1980 1346.28C1924.12 1343.43 1866.15 1350.8 1810.55 1358C1628.07 1381.64 1432.33 1397.25 1269.66 1311.24V1311.24Z" fill="#FB5607"/>
<path d="M970.16 3260.07C930.006 2765.51 640.213 2297.63 215.345 2041.38C188.853 2025.42 161.133 2009.54 142.719 1984.71C124.265 1959.88 117.81 1923.17 136.422 1898.5C159.39 1868.09 204.93 1870.58 242.669 1875.77C407.722 1898.5 591.466 1911.25 725.155 1811.82C805.781 1751.82 856.073 1657.42 878.051 1559.37C900.029 1461.32 895.95 1359.23 884.11 1259.44C856.113 1023.07 785.545 792.515 769.468 555.033C753.39 317.552 801.781 59.3998 973.447 -105.495L852.271 -81.6554C691.971 96.1089 665.201 358.38 692.683 596.178C720.166 833.976 793.426 1066.07 802.494 1305.26C806.375 1407.34 797.742 1512.52 754.103 1604.91C710.464 1697.3 626.789 1775.27 525.849 1790.87C440.867 1804.02 355.925 1773.09 270.389 1763.82C184.893 1754.56 82.4077 1778.04 48.7874 1857.24C25.5026 1912.13 44.3521 1977.39 80.1901 2025.02C116.028 2072.66 166.597 2106.6 215.028 2141.33C364.795 2248.69 504.346 2373.03 611.622 2522.84C718.938 2672.64 792.95 2849.42 803.959 3033.36C807.365 3089.95 805.385 3149.23 830.57 3200.04C855.756 3250.8 920.621 3287.79 970.121 3260.11L970.16 3260.07Z" fill="#FF6014"/>
<path d="M231.7 1679.91C306.266 1699.75 375.606 1742.99 452.747 1745.05C535.036 1747.23 613.562 1699.75 662.587 1633.62C711.612 1567.49 734.105 1484.88 741.668 1402.91C770.378 1091.22 598.356 792.277 596.772 479.239C595.743 270.626 671.774 66.6466 785.347 -108.306L727.808 -89.0209C619.423 49.3019 559.39 221.997 542.441 396.911C525.532 571.824 550.202 749.034 598.554 917.967C629.6 1026.47 670.507 1132.72 687.812 1244.23C705.118 1355.75 696.366 1476.45 634.63 1570.89C600.97 1622.37 546.995 1666.13 485.456 1666.13C431.957 1666.13 384.714 1634.01 335.808 1612.35C247.421 1573.15 144.738 1567.25 52.4304 1596.04C-39.8772 1624.83 -120.978 1688.07 -171.389 1770.6L-160.934 1817.64C-73.4184 1699.2 89.3376 1642.09 231.66 1679.95L231.7 1679.91Z" fill="#FF6014"/>
<path d="M252.49 1501.79C299.653 1519.93 344.758 1548.52 395.287 1549.67C459.756 1551.13 518.483 1505.2 547.906 1447.82C577.328 1390.44 582.12 1323.59 579.467 1259.16C570.953 1052.69 492.585 855.162 469.933 649.796C442.53 401.267 499.99 144.144 630.63 -69.0623L598.554 -99.8315C502.168 -67.3595 429.145 16.2757 390.02 110.167C350.935 204.059 342.025 307.732 342.263 409.424C342.659 584.179 368.755 758.855 419.443 926.086C452.866 1036.45 497.376 1145.75 501.376 1260.98C503.118 1311.12 495.356 1365.33 460.825 1401.76C427.284 1437.16 374.616 1448.45 325.987 1444.65C277.358 1440.85 230.828 1424.1 183.784 1411.3C122.562 1394.63 58.4497 1384.5 -4.39546 1393.17C-67.2407 1401.84 -129.056 1431.06 -167.468 1481.59C-205.88 1532.08 -216.77 1605.19 -185.605 1660.47C-103.079 1512.56 94.4064 1441.04 252.529 1501.79L252.49 1501.79Z" fill="#FF6014"/>
<path d="M-36.7487 1286.8C25.3441 1283.12 87.2785 1296.46 146.639 1315.04C187.308 1327.79 227.898 1343.15 270.468 1345.33C313.038 1347.51 359.212 1333.81 383.922 1299.08C407.563 1265.81 406.771 1221.5 402.653 1180.91C388.357 1039.86 264.053 714.661 273.161 361.865C281.754 29.5415 491.317 -107.554 491.317 -107.554L-184.734 -133.927L-205.247 1356.66C-205.247 1356.66 -98.7624 1290.48 -36.6696 1286.84L-36.7487 1286.8Z" fill="#FF6014"/>
<path d="M-23.3244 1200.67C22.0572 1197.35 67.3597 1209.42 110.761 1226.25C140.501 1237.78 170.161 1251.72 201.287 1253.7C232.412 1255.68 266.191 1243.24 284.249 1211.76C301.554 1181.62 300.96 1141.47 297.95 1104.68C287.496 976.893 196.575 682.269 203.227 362.657C209.484 61.5781 362.776 -62.6471 362.776 -62.6471L-131.591 -86.5259L-146.599 1263.87C-146.599 1263.87 -68.7456 1203.92 -23.3244 1200.59L-23.3244 1200.67Z" fill="#FB5607"/>
<path d="M-22.4136 1127.73C14.8104 1124.68 51.9552 1135.77 87.5556 1151.17C111.949 1161.75 136.303 1174.54 161.806 1176.32C187.348 1178.1 215.028 1166.73 229.838 1137.87C244.015 1110.27 243.54 1073.44 241.085 1039.7C232.492 922.561 157.964 652.41 163.429 359.41C168.577 83.358 294.268 -30.4921 294.268 -30.4921L-111.197 -52.3909L-123.512 1185.66C-123.512 1185.66 -59.6376 1130.7 -22.4136 1127.65L-22.4136 1127.73Z" fill="#FF6014"/>
<path d="M35.9569 1087.34C74.5273 1081.4 105.772 1112.4 143.788 1108.01C164.696 1105.59 182.081 1091.26 191.149 1074.27C200.218 1057.28 202.158 1037.88 202.039 1018.99C201.406 931.59 159.984 848.905 136.026 764.003C92.5057 609.761 99.0001 446.49 130.126 290.664C168.775 96.901 237.759 -16.9094 237.759 -16.9094C237.759 -16.9094 -14.533 -26.2154 -69.0226 -28.5518C-107.474 321.552 -100.465 691.693 -103.593 1043.78C-103.791 1066.47 -101.891 1092.96 -81.061 1106.07C-62.3302 1117.87 -36.5507 1113.16 -15.6419 1105.12C1.26726 1098.62 18.0577 1090.15 35.9173 1087.42L35.9569 1087.34Z" fill="#FB5607"/>
<path d="M24.5916 1050.19C53.4204 1044.21 76.4677 1073.56 104.861 1069C120.503 1066.51 133.571 1052.69 140.501 1036.37C147.431 1020.06 149.015 1001.52 149.094 983.466C149.332 899.989 119.156 821.344 102.01 740.441C70.8445 593.446 77.0616 437.501 101.574 288.367C132.026 102.96 184.457 -6.33605 184.457 -6.33605C184.457 -6.33605 -3.68278 -13.1077 -44.3124 -14.8897C-75.9132 319.849 -73.8143 673.358 -79.0811 1009.64C-79.4375 1031.34 -78.2099 1056.61 -62.7659 1068.96C-48.8663 1080.09 -29.6207 1075.34 -13.9391 1067.5C-1.26714 1061.16 11.3257 1052.92 24.6709 1050.15L24.5916 1050.19Z" fill="#FF6014"/>
<path d="M543.154 3324.86C641.876 3241.06 694.544 3110.26 700.524 2980.57C714.582 2674.58 516.305 2375.45 252.885 2231.06C210.83 2208.02 166.676 2188.89 121.136 2173.84C29.7792 2143.59 -70.1712 2129.41 -162.598 2156.14C-282.902 2190.95 -375.962 2292.29 -425.423 2407.32C-474.883 2522.36 -485.773 2650.31 -484.823 2775.52C-483.476 2951.59 -453.895 3140.64 -331.769 3267.48C-220.81 3382.67 -53.5392 3424.61 106.088 3434.51C255.776 3443.81 416.433 3425.91 533.808 3332.54C536.976 3330 540.104 3327.43 543.193 3324.82L543.154 3324.86Z" fill="#FB5607"/>
<path d="M515.473 3290.84C607.9 3212.39 657.241 3089.87 662.825 2968.46C676.012 2681.91 490.327 2401.82 243.619 2266.59C204.257 2245 162.875 2227.1 120.226 2213.01C34.6896 2184.69 -58.9247 2171.39 -145.49 2196.41C-258.152 2229 -345.272 2323.89 -391.604 2431.64C-437.936 2539.39 -448.114 2659.18 -447.242 2776.44C-445.975 2941.29 -418.255 3118.34 -303.93 3237.1C-200.059 3344.97 -43.3619 3384.22 106.088 3393.52C246.273 3402.23 396.713 3385.44 506.603 3298.05C509.573 3295.67 512.503 3293.29 515.394 3290.84L515.473 3290.84Z" fill="#FF6014"/>
<path d="M477.259 3243.75C561.013 3172.67 605.722 3061.67 610.79 2951.63C622.71 2691.97 454.489 2438.17 230.947 2315.65C195.268 2296.09 157.767 2279.85 119.156 2267.1C41.6593 2241.44 -43.164 2229.4 -121.612 2252.09C-223.7 2281.63 -302.663 2367.6 -344.639 2465.26C-386.615 2562.87 -395.842 2671.46 -395.05 2777.7C-393.901 2927.07 -368.795 3087.53 -265.162 3195.13C-171.032 3292.86 -29.0663 3328.46 106.405 3336.85C233.442 3344.77 369.745 3329.53 469.339 3250.33C472.032 3248.19 474.685 3246.01 477.299 3243.79L477.259 3243.75Z" fill="#FB5607"/>
<path d="M447.718 3207.44C524.779 3142.02 565.924 3039.89 570.557 2938.68C581.526 2699.81 426.769 2466.29 221.087 2353.55C188.258 2335.57 153.767 2320.64 118.246 2308.88C46.9261 2285.28 -31.086 2274.19 -103.277 2295.06C-197.208 2322.22 -269.834 2401.34 -308.444 2491.16C-347.054 2580.97 -355.568 2680.84 -354.816 2778.61C-353.786 2916.03 -330.66 3063.65 -235.343 3162.65C-148.737 3252.59 -18.1366 3285.3 106.485 3293.06C223.344 3300.34 348.757 3286.32 440.392 3213.46C442.886 3211.48 445.302 3209.5 447.718 3207.44Z" fill="#FF6014"/>
<path d="M423.997 3178.22C495.673 3117.39 533.927 3022.39 538.243 2928.26C548.46 2706.07 404.474 2488.86 213.206 2384.04C182.675 2367.29 150.599 2353.43 117.533 2342.5C51.2029 2320.56 -21.3838 2310.22 -88.5059 2329.63C-175.863 2354.89 -243.421 2428.47 -279.338 2512.03C-315.255 2595.58 -323.175 2688.44 -322.463 2779.41C-321.512 2907.23 -300.009 3044.53 -211.305 3136.6C-130.759 3220.23 -9.26637 3250.68 106.643 3257.89C215.345 3264.66 331.967 3251.64 417.226 3183.84C419.522 3182.02 421.78 3180.16 424.037 3178.26L423.997 3178.22Z" fill="#FB5607"/>
<path d="M180.18 3209.38C209.524 3205.62 238.432 3199.2 266.112 3190.45C337.273 3168.04 403.128 3130.14 448.233 3076.76C567.112 2935.94 482.17 2747.53 376.636 2618.95C308.761 2536.26 220.532 2466.53 120.978 2414.97C80.6653 2394.1 37.8974 2375.68 -7.88025 2368.52C-53.6578 2361.31 -103.039 2366.26 -141.095 2389.07C-179.19 2411.88 -202.079 2449.66 -219.701 2487.36C-274.071 2603.58 -291.575 2733.59 -269.834 2859.08C-258.43 2924.82 -236.135 2989.88 -197.525 3047.38C-158.915 3104.88 -103.237 3154.54 -35.1251 3183.48C31.6009 3211.84 107.276 3218.77 180.18 3209.38Z" fill="#FF6014"/>
<path d="M172.26 3158.34C198 3155.01 223.304 3149.39 247.619 3141.75C310.028 3122.06 367.765 3088.88 407.286 3042.07C511.513 2918.64 437.065 2753.43 344.52 2640.73C285.001 2568.26 207.662 2507.12 120.384 2461.89C85.0608 2443.6 47.5596 2427.48 7.40521 2421.14C-32.7492 2414.81 -76.0319 2419.16 -109.375 2439.16C-142.797 2459.16 -162.835 2492.27 -178.279 2525.33C-225.918 2627.22 -241.322 2741.19 -222.235 2851.2C-212.256 2908.86 -192.693 2965.88 -158.835 3016.29C-124.977 3066.7 -76.1904 3110.26 -16.4736 3135.61C42.0156 3160.44 108.346 3166.53 172.3 3158.34L172.26 3158.34Z" fill="#FB5607"/>
<path d="M162.796 3097.27C184.18 3094.54 205.247 3089.83 225.443 3083.49C277.319 3067.14 325.354 3039.54 358.222 3000.61C444.906 2897.93 382.972 2760.56 306.029 2666.78C256.529 2606.51 192.179 2555.67 119.632 2518.05C90.2485 2502.8 59.0438 2489.41 25.661 2484.15C-7.72183 2478.88 -43.7182 2482.52 -71.4778 2499.12C-99.277 2515.75 -115.949 2543.31 -128.779 2570.79C-168.419 2655.54 -181.209 2750.34 -165.33 2841.81C-157.014 2889.77 -140.778 2937.21 -112.622 2979.11C-84.4667 3021.04 -43.8767 3057.24 5.7817 3078.35C54.4501 3099.02 109.613 3104.09 162.796 3097.23L162.796 3097.27Z" fill="#FF6014"/>
<path d="M137.372 3069.71C155.074 3067.46 172.498 3063.57 189.209 3058.31C232.135 3044.76 271.894 3021.92 299.059 2989.72C370.775 2904.78 319.532 2791.09 255.856 2713.51C214.909 2663.61 161.687 2621.56 101.614 2590.43C77.2993 2577.84 51.4801 2566.75 23.8789 2562.4C-3.72232 2558.04 -33.5412 2561.05 -56.4696 2574.79C-79.4376 2588.57 -93.2578 2611.34 -103.871 2634.07C-136.659 2704.2 -147.233 2782.65 -134.125 2858.33C-127.235 2898.01 -113.81 2937.25 -90.4858 2971.94C-67.1614 3006.63 -33.5807 3036.61 7.48452 3054.03C47.7577 3071.14 93.3769 3075.34 137.372 3069.67L137.372 3069.71Z" fill="#FB5607"/>
<path d="M127.869 3020.13C141.531 3018.39 154.995 3015.38 167.904 3011.3C201.049 3000.85 231.739 2983.23 252.767 2958.32C308.167 2892.7 268.567 2804.91 219.424 2745.03C187.783 2706.5 146.678 2674.03 100.307 2649.99C81.5365 2640.25 61.5782 2631.7 40.2734 2628.33C18.9686 2624.96 -4.07867 2627.3 -21.7799 2637.91C-39.5207 2648.57 -50.1731 2666.15 -58.4099 2683.69C-83.7143 2737.86 -91.9116 2798.41 -81.774 2856.86C-76.4676 2887.51 -66.0923 2917.81 -48.0743 2944.58C-30.0959 2971.35 -4.15787 2994.51 27.5617 3007.98C58.6477 3021.16 93.8918 3024.41 127.869 3020.05L127.869 3020.13Z" fill="#FF6014"/>
<path d="M118.8 2961.6C128.304 2960.38 137.689 2958.28 146.678 2955.47C169.765 2948.18 191.149 2935.9 205.801 2918.56C244.372 2872.86 216.81 2811.68 182.556 2769.98C160.538 2743.13 131.868 2720.52 99.594 2703.77C86.526 2697 72.6264 2691.02 57.7764 2688.68C42.9264 2686.35 26.8885 2687.97 14.5333 2695.33C2.1781 2702.74 -5.26671 2715.02 -10.9691 2727.25C-28.5911 2764.99 -34.2936 2807.16 -27.2448 2847.91C-23.562 2869.26 -16.3152 2890.36 -3.762 2909.02C8.7912 2927.67 26.8488 2943.78 48.9456 2953.17C70.6068 2962.36 95.1589 2964.61 118.84 2961.57L118.8 2961.6Z" fill="#FB5607"/>
<path d="M1966.14 1192.71C1761.45 1161.55 1541.31 1253.89 1350.84 1171.25C1236.79 1121.75 1153.63 1014.75 1107.45 897.375C1061.28 780.001 1048.01 652.014 1041.36 525.729C1037.2 447.401 1039.78 358.023 1097.32 306.068C1149.23 259.182 1228.91 260.924 1294.44 284.051C1359.94 307.177 1418.16 348.123 1482.86 373.507C1626.85 430.016 1799.82 400.871 1918.34 300.089C1942.26 279.774 1963.76 256.727 1982.61 231.541C2052.67 138.164 2086.21 15.9586 2071.28 -100.822L2299.61 1390.55C2221.72 1289.3 2106.68 1218.73 1982.65 1195.52C1977.19 1194.45 1971.68 1193.54 1966.14 1192.67L1966.14 1192.71Z" fill="#FB5607"/>
<path d="M2204.29 1224.59L2074.8 219.225C2038.69 344.441 1915.25 429.303 1787.54 455.202C1659.83 481.1 1527.65 458.291 1400.34 430.491C1363.82 422.532 1326.92 414.097 1289.61 415.562C1252.27 416.988 1213.78 429.581 1188.95 457.459C1164.83 484.545 1156.6 522.007 1151.37 557.924C1139.61 638.748 1138.62 721.947 1157.82 801.306C1177.03 880.664 1217.46 956.181 1279.28 1009.52C1361.17 1080.17 1472.68 1106.46 1580.67 1113C1688.62 1119.53 1797.13 1108.68 1905 1116.13C2012.91 1123.57 2124.22 1151.88 2204.29 1224.59V1224.59Z" fill="#FF6014"/>
<path d="M2022.41 1052.49C2070.88 1054.35 2120.78 1068.57 2155.67 1102.27L2051.87 371.25C2045.89 424.274 1995.25 460.469 1945.83 480.585C1853.12 518.285 1750.6 523.947 1650.57 521.453C1550.5 518.958 1450.31 508.82 1350.56 516.819C1317.06 519.512 1282.05 524.898 1255.32 545.292C1226.25 567.468 1211.72 604.098 1205.38 640.134C1187.49 742.183 1227.05 849.657 1297.61 925.491C1368.18 1001.36 1466.78 1047.46 1568.48 1067.18C1670.21 1086.9 1775.31 1081.79 1877.83 1066.78C1925.83 1059.77 1973.9 1050.59 2022.37 1052.45L2022.41 1052.49Z" fill="#FB5607"/>
<path d="M2113.45 972.299L2055.4 471.517C2000.12 523.393 1952.56 536.936 1909.71 544.777C1811.11 562.835 1710.52 570.121 1610.33 566.438C1561.31 564.617 1511.97 560.221 1463.38 567.151C1414.83 574.081 1365.96 593.841 1335.11 631.976C1300.86 674.269 1293.73 734.738 1309.93 786.654C1326.12 838.609 1363.47 882.209 1408.02 913.453C1452.57 944.697 1504.17 964.497 1556.44 979.625C1725.81 1028.65 1908.48 1030.83 2113.53 972.259L2113.45 972.299Z" fill="#FF6014"/>
<path d="M2077.14 927.828L2038.85 551.43C1867.42 597.96 1727.55 618.433 1586.97 626.076C1548.2 628.175 1508.68 629.442 1472.05 642.232C1435.38 655.023 1401.25 681.674 1390.2 718.898C1379.43 755.092 1392.53 795.286 1416.49 824.432C1440.49 853.578 1474.03 873.219 1508.28 889.059C1672.94 965.091 1862.7 964.062 2077.18 927.828L2077.14 927.828Z" fill="#FB5607"/>
<path d="M2055.28 883.04L2022.77 599.504C1872.09 637.877 1753.41 653.321 1634.09 659.063C1601.19 660.647 1567.68 661.597 1536.56 671.259C1505.47 680.922 1476.49 700.999 1467.1 728.996C1457.95 756.241 1469.08 786.535 1489.44 808.473C1509.79 830.412 1538.26 845.222 1567.33 857.142C1707.04 914.403 1868.05 913.611 2055.28 883.001L2055.28 883.04Z" fill="#FF6014"/>
<path d="M2041.74 861.815L2015.32 631.303C1886.35 665.042 1789.88 677.595 1692.9 682.268C1666.17 683.575 1638.89 684.327 1613.62 692.168C1588.32 700.009 1564.79 716.324 1557.15 739.134C1549.71 761.27 1558.77 785.901 1575.29 803.761C1591.84 821.621 1614.97 833.619 1638.61 843.321C1752.18 889.891 1883.06 889.257 2041.74 861.815V861.815Z" fill="#FB5607"/>
<path d="M1100.68 3337.41C1126.86 3216.87 1132.88 3092.56 1120.32 2970C1092.68 2699.93 974.952 2438.45 784.278 2244.73C750.341 2210.23 711.85 2158.56 740.401 2119.51C754.499 2100.27 779.764 2093.93 802.256 2085.85C924.739 2041.97 1001.88 1915.53 1026.35 1787.7C1050.83 1659.87 1032.37 1528.36 1019.3 1398.87C1015.42 1360.26 1014.47 1315.12 1044.05 1290.01C1069.04 1268.78 1107.41 1271.24 1136.84 1285.69C1166.26 1300.15 1189.5 1324.34 1214.37 1345.69C1304.78 1423.3 1424.25 1466.19 1543.41 1463.81C1672.43 1461.2 1798.95 1407.9 1927.13 1422.79C1944.99 1424.85 1962.69 1428.33 1980 1433.16C2076.54 1459.89 2161.8 1527.17 2208.29 1616.08L2337.47 3364.73C1925.04 3370.51 1512.4 3361.41 1100.68 3337.41Z" fill="#FB5607"/>
<path d="M2151.86 1653.26C2130.72 1581.94 2061.66 1532.6 1989.11 1516.01C1916.6 1499.41 1840.73 1510.3 1767.9 1525.51C1695.08 1540.72 1622.37 1560.28 1547.96 1560.95C1466.03 1561.71 1383.98 1538.86 1314.24 1495.81C1288.62 1480.01 1264.31 1461.4 1236.11 1450.83C1207.92 1440.25 1173.9 1439.1 1149.75 1457.08C1111.41 1485.51 1115.85 1543.21 1124.2 1590.18C1138.02 1667.83 1151.96 1746.52 1145.63 1825.12C1139.25 1903.73 1110.15 1983.64 1050.59 2035.36C1011.34 2069.42 956.934 2095.39 945.846 2146.16C935.709 2192.57 967.428 2236.53 995.267 2275.02C1189.23 2543.27 1272.19 2889.3 1221.03 3216.35C1553.98 3230.09 1886.98 3243.83 2219.94 3257.58L2151.9 1653.22L2151.86 1653.26Z" fill="#FF6014"/>
<path d="M2204.29 3136.91L2172.5 1659.64C2037.1 1577.7 1924.12 1561.67 1828.21 1577.82C1732.3 1593.98 1640.79 1634.65 1543.73 1640.83C1479.38 1644.94 1414.04 1633.38 1354.99 1607.48C1333.17 1597.9 1309.81 1586.14 1286.72 1591.88C1263.28 1597.7 1247.44 1620.79 1242.49 1644.43C1237.54 1668.07 1241.34 1692.54 1244.47 1716.46C1259.91 1833.48 1256.82 1962.42 1185.19 2056.27C1157.63 2092.35 1119.37 2125.17 1114.74 2170.32C1110.27 2213.92 1138.9 2253 1163.25 2289.43C1322.05 2526.88 1345.92 2827.44 1351.75 3113.04C1608.75 3133.71 1866.78 3140.95 2204.29 3136.87L2204.29 3136.91Z" fill="#FB5607"/>
<path d="M2168.73 1696.38C1987.05 1659.28 1913.39 1656.11 1848.53 1669.18C1783.7 1682.25 1721.97 1709.1 1656.47 1718.48C1590.38 1727.95 1521.75 1719 1460.33 1692.82C1439.26 1683.83 1418.67 1672.78 1396.06 1668.98C1373.49 1665.18 1347.59 1670.21 1333.57 1688.35C1309.49 1719.43 1332.54 1762.95 1346.72 1799.62C1376.26 1875.89 1360.5 1967.8 1307.28 2029.94C1279.28 2062.61 1240.55 2089.89 1230.53 2131.75C1220.12 2175.27 1244.51 2218.59 1266.25 2257.71C1398.47 2495.83 1462.74 2771.25 1449.56 3043.3C1653.54 3047.46 1857.56 3051.62 2193.13 3049.68L2168.69 1696.42L2168.73 1696.38Z" fill="#FF6014"/>
<path d="M1873.95 2987.11C1912.52 2984.22 2183.78 2983.5 2183.78 2983.5L2188.93 1747.59C2188.49 1742.16 1880.52 1766.36 1851.18 1768.65C1743.43 1777.05 1624.59 1801.72 1520.01 1764.69C1490.39 1754.2 1452.21 1741.89 1431.9 1765.84C1411.74 1789.56 1429.48 1824.69 1439.5 1854.15C1453.52 1895.37 1449.72 1942.3 1429.32 1980.79C1407.74 2021.46 1368.26 2053.97 1360.66 2099.39C1354.04 2138.84 1373.37 2177.41 1390.63 2213.48C1477.91 2395.64 1526.62 2596.18 1532.64 2798.06C1534.06 2845.18 1534.78 2896.94 1565.74 2932.5C1592.63 2963.39 1635.68 2973.88 1676.15 2979.9C1741.53 2989.64 1808.02 2992.06 1873.95 2987.07L1873.95 2987.11Z" fill="#FB5607"/>
<path d="M1964.08 2901.97C2013.22 2885.81 2072.7 2883 2124.3 2879.43L2091.95 1800.1C2005.62 1782.32 1923.17 1836.29 1840.21 1865.95C1775.15 1889.2 1704.94 1897.83 1636.19 1891.06C1602.65 1887.77 1564.48 1882.15 1538.97 1904.21C1512.72 1926.9 1513.63 1967.13 1516.68 2001.7C1532.24 2177.84 1547.77 2353.98 1563.33 2530.12C1570.97 2616.69 1579.76 2706.82 1625.3 2780.83C1693.1 2891 1841.2 2942.36 1964.08 2902.01L1964.08 2901.97Z" fill="#FF6014"/>
<path d="M1941.75 2817.42C1983.29 2803.8 2033.54 2801.38 2077.14 2798.37L2049.78 1886.27C1976.83 1871.22 1907.18 1916.88 1837 1941.9C1782.04 1961.55 1722.68 1968.83 1664.59 1963.13C1636.23 1960.32 1603.96 1955.61 1582.42 1974.26C1560.24 1993.42 1560.99 2027.44 1563.57 2056.63C1576.71 2205.48 1589.86 2354.34 1603.01 2503.16C1609.46 2576.3 1616.87 2652.45 1655.36 2715.02C1712.66 2808.12 1837.8 2851.52 1941.67 2817.42L1941.75 2817.42Z" fill="#FB5607"/>
<path d="M1929.27 2731.57C1940.76 2729.19 1952.16 2726.42 1963.49 2723.21C1984.59 2717.23 2006.45 2709.08 2020.51 2691.45C2036.91 2670.9 2039.2 2642.03 2040.39 2615.18C2048.31 2435.52 2038.96 2255.02 2012.23 2077.42C2009.26 2057.77 2005.98 2037.7 1996.83 2020.27C1964.12 1958.02 1902.19 2004.47 1856.61 2020.59C1819.82 2033.58 1779.74 2036.03 1741.77 2027.64C1711.27 2020.87 1678.05 2007.64 1650.65 2023.2C1620.43 2040.39 1614.53 2082.68 1613.11 2118.84C1606.49 2283.85 1618.41 2451.28 1666.61 2608.45C1678.88 2648.45 1695.04 2689.95 1727.35 2714.54C1756.77 2736.95 1794.99 2741.71 1831.3 2741.67C1864.17 2741.63 1897.04 2738.22 1929.31 2731.57L1929.27 2731.57Z" fill="#FF6014"/>
<path d="M1908.17 2655.73C1917.27 2653.87 1926.34 2651.66 1935.29 2649.12C1952.04 2644.37 1969.39 2637.91 1980.51 2623.94C1993.5 2607.62 1995.33 2584.73 1996.28 2563.47C2002.57 2420.99 1995.17 2277.83 1973.94 2136.97C1971.6 2121.37 1968.95 2105.49 1961.7 2091.67C1935.77 2042.33 1886.66 2079.16 1850.51 2091.91C1821.32 2102.21 1789.56 2104.19 1759.47 2097.49C1735.31 2092.15 1708.94 2081.61 1687.2 2093.97C1663.24 2107.59 1658.57 2141.13 1657.42 2169.8C1652.19 2300.64 1661.66 2433.46 1699.83 2558.08C1709.57 2589.8 1722.36 2622.71 1748.02 2642.23C1771.35 2660.01 1801.68 2663.77 1830.47 2663.73C1856.53 2663.73 1882.58 2661 1908.17 2655.73Z" fill="#FB5607"/>
<path d="M1887.65 2582.16C1894.46 2580.77 1901.2 2579.11 1907.89 2577.21C1920.4 2573.68 1933.35 2568.85 1941.67 2558.4C1951.37 2546.2 1952.76 2529.13 1953.43 2513.25C1958.1 2406.89 1952.6 2299.97 1936.76 2194.79C1935.01 2183.15 1933.03 2171.27 1927.61 2160.97C1908.24 2124.1 1871.58 2151.63 1844.57 2161.17C1822.79 2168.85 1799.07 2170.32 1776.57 2165.33C1758.52 2161.33 1738.88 2153.49 1722.64 2162.71C1704.74 2172.89 1701.26 2197.96 1700.38 2219.34C1696.46 2317.04 1703.55 2416.19 1732.06 2509.25C1739.31 2532.93 1748.89 2557.49 1768.06 2572.06C1785.48 2585.33 1808.1 2588.14 1829.6 2588.1C1849.08 2588.1 1868.53 2586.08 1887.61 2582.12L1887.65 2582.16Z" fill="#FF6014"/>
<path d="M1175.68 -7.36719e-06L1793.48 0C1792.81 10.4148 1791.27 20.79 1788.85 30.9672C1772.38 100.069 1715.99 158.162 1647.4 176.695C1482.62 221.126 1334.8 51.2028 1175.68 -7.36719e-06Z" fill="#FB5607"/>
<path d="M1120.32 2970L997.286 2970C957.964 2638.59 772.675 2324.8 496.267 2136.54C454.212 2107.91 403.762 2062.96 424.75 2016.59C447.876 1965.43 522.443 1982.49 577.962 1991.01C706.028 2010.61 834.887 1930.98 902.682 1820.57C970.477 1710.17 986.278 1575.09 980.496 1445.68C963.31 1061.12 771.962 688.604 822.69 307.019C839.401 181.645 899.989 43.7976 1014.04 -1.1519e-05L1175.68 -9.59137e-06C1334.8 51.2028 1482.62 221.126 1647.4 176.695C1715.99 158.162 1772.38 100.069 1788.85 30.9672C1791.27 20.79 1792.81 10.4148 1793.48 -2.22418e-06L1862.74 -1.39826e-06C1854.82 59.994 1829.24 117.691 1788.26 162.241C1716.86 239.936 1601.7 274.468 1499.34 248.846C1421.32 229.363 1355.15 179.309 1284.23 141.412C1213.26 103.514 1127.25 77.418 1053.36 109.217C999.464 132.462 961.844 182.833 936.421 235.739C854.053 406.969 877.576 609.959 926.996 793.426C982.397 999.187 1081.28 1211.68 1269.66 1311.24C1432.33 1397.25 1628.07 1381.64 1810.55 1358C1866.15 1350.8 1924.12 1343.43 1980 1346.28L1980 1433.16C1962.69 1428.33 1944.99 1424.85 1927.13 1422.79C1798.95 1407.9 1672.43 1461.2 1543.41 1463.81C1424.25 1466.19 1304.78 1423.3 1214.37 1345.69C1189.5 1324.34 1166.26 1300.15 1136.84 1285.69C1107.41 1271.24 1069.04 1268.78 1044.05 1290.01C1014.47 1315.12 1015.42 1360.26 1019.3 1398.87C1032.37 1528.36 1050.83 1659.87 1026.35 1787.7C1001.88 1915.53 924.739 2041.97 802.256 2085.85C779.764 2093.93 754.499 2100.27 740.401 2119.51C711.85 2158.56 750.341 2210.23 784.278 2244.73C974.952 2438.45 1092.68 2699.93 1120.32 2970V2970Z" fill="#FF6014"/>
</g>
<defs>
<clipPath id="clip0_1_539">
<rect width="2970" height="1980" fill="white" transform="translate(1980) rotate(90)"/>
</clipPath>
</defs>
</svg>
