<?xml version="1.0" encoding="UTF-8"?><svg id="Layer_2" xmlns="http://www.w3.org/2000/svg" xmlns:xlink="http://www.w3.org/1999/xlink" viewBox="0 0 1980 5940"><defs><style>.cls-1{clip-path:url(#clippath-1);}.cls-2{clip-path:url(#clippath);}.cls-3{fill:none;}.cls-4{fill:#febf10;}.cls-5{fill:#1d458c;}.cls-6{fill:#f4b91a;}</style><clipPath id="clippath"><rect class="cls-3" width="1980" height="2970"/></clipPath><clipPath id="clippath-1"><rect class="cls-3" x="0" y="2970" width="1980" height="2970"/></clipPath></defs><g id="Layer_1-2"><g class="cls-2"><g><path class="cls-6" d="M0,0V2970s1980,0,1980,0V0H0Z"/><path class="cls-4" d="M607.46,1685.77c86.76,29.42,158.95,93.34,210.95,168.78,51.99,75.4,85.26,162.12,111.63,249.87,37.22,124.03,61.5,251.9,72.27,380.92,6.21,74.09,5.82,155.5-40.36,213.76-47.6,59.99-133.02,78.48-208.77,67.16-75.76-11.33-145.17-47.36-214.59-79.68-69.46-32.31-143.27-61.89-219.82-58.84-101.81,4.04-196.18,68.54-247.98,156.3-33.18,56.19-50.01,120.58-52.95,185.96H0v-235.11c18.69-24.94,40-47.79,63.72-67.95,117.53-99.91,289.04-128.82,431.8-72.78,64.15,25.18,121.89,65.77,186.83,88.7,64.98,22.93,143.98,24.67,195.46-21.82,57.06-51.52,59.6-140.14,55.48-217.8-6.61-125.21-19.76-252.09-65.54-368.48-45.78-116.38-128.22-222.47-241.32-271.53-188.85-81.94-407.13,9.62-610.08-21.27-5.46-.83-10.93-1.74-16.35-2.81v-74.57c83.32,12.44,171.78-.04,256.01-14.45,116.78-19.96,239.26-42.37,351.45-4.36Z"/><path class="cls-5" d="M0,2734.89v-955.74c5.43,1.07,10.89,1.98,16.35,2.81,202.95,30.89,421.23-60.67,610.08,21.27,113.1,49.06,195.54,155.15,241.32,271.53,45.78,116.39,58.92,243.27,65.54,368.48,4.12,77.66,1.58,166.28-55.48,217.8-51.48,46.49-130.48,44.75-195.46,21.82-64.94-22.93-122.68-63.52-186.83-88.7-142.76-56.04-314.27-27.13-431.8,72.78-23.72,20.16-45.03,43.01-63.72,67.95Z"/><path class="cls-6" d="M710.34,1658.76c188.38,99.56,287.26,312.05,342.66,517.81,49.42,183.47,72.95,386.46-9.42,557.69-25.42,52.91-63.04,103.28-116.94,126.52-73.89,31.8-159.91,5.71-230.87-32.19-70.92-37.9-137.09-87.95-215.11-107.44-102.37-25.62-217.52,8.91-288.92,86.61-40.99,44.55-66.57,102.25-74.49,162.24H17.86c2.93-65.38,19.76-129.77,52.95-185.96,51.8-87.76,146.16-152.26,247.98-156.3,76.55-3.05,150.36,26.53,219.82,58.84,69.42,32.32,138.84,68.35,214.59,79.68,75.76,11.32,161.17-7.17,208.77-67.16,46.18-58.26,46.57-139.67,40.36-213.76-10.78-129.02-35.05-256.89-72.27-380.92-26.37-87.75-59.64-174.47-111.63-249.87-51.99-75.44-124.18-139.36-210.95-168.78-112.19-38.01-234.67-15.6-351.45,4.36C171.79,1704.54,83.32,1717.02,0,1704.58v-80.86c55.88,2.85,113.85-4.52,169.45-11.72,182.48-23.64,378.22-39.25,540.9,46.76Z"/><path class="cls-4" d="M1009.84-290.07c40.15,494.56,329.95,962.44,754.82,1218.69,26.49,15.96,54.21,31.84,72.62,56.67,18.46,24.83,24.91,61.54,6.3,86.21-22.97,30.41-68.51,27.91-106.25,22.73-165.05-22.73-348.8-35.48-482.49,63.95-80.62,60-130.91,154.4-152.89,252.45-21.98,98.05-17.9,200.14-6.06,299.93,28,236.37,98.56,466.93,114.64,704.41,16.08,237.48-32.31,495.63-203.98,660.52l121.18-23.83c160.3-177.77,187.07-440.04,159.59-677.84-27.49-237.8-100.75-469.89-109.81-709.08-3.88-102.08,4.75-207.26,48.39-299.65s127.31-170.36,228.25-185.96c84.98-13.15,169.93,17.78,255.46,27.05,85.5,9.26,187.98-14.22,221.6-93.42,23.29-54.89,4.44-120.15-31.4-167.79-35.84-47.64-86.41-81.58-134.84-116.3-149.77-107.36-289.32-231.7-396.59-381.51-107.32-149.81-181.33-326.58-192.34-510.52-3.4-56.59-1.42-115.87-26.61-166.68-25.19-50.77-90.05-87.75-139.55-60.07l-.04,.04Z"/><path class="cls-4" d="M1748.3,1290.09c-74.57-19.84-143.91-63.08-221.05-65.14-82.29-2.18-160.81,45.3-209.84,111.43-49.02,66.13-71.52,148.74-79.08,230.71-28.71,311.69,143.31,610.63,144.9,923.67,1.03,208.61-75,412.59-188.58,587.55l57.54-19.29c108.39-138.32,168.42-311.02,185.37-485.93,16.91-174.91-7.76-352.12-56.11-521.06-31.05-108.5-71.96-214.75-89.26-326.26-17.31-111.52-8.56-232.22,53.18-326.66,33.66-51.48,87.63-95.24,149.17-95.24,53.5,0,100.75,32.12,149.65,53.78,88.39,39.2,191.07,45.1,283.38,16.31,92.31-28.79,173.41-92.03,223.82-174.56l-10.46-47.04c-87.51,118.44-250.27,175.55-392.59,137.69l-.04,.04Z"/><path class="cls-4" d="M1727.51,1468.21c-47.16-18.14-92.27-46.73-142.8-47.88-64.47-1.46-123.19,44.47-152.62,101.85-29.42,57.38-34.21,124.23-31.56,188.66,8.52,206.47,86.89,404,109.54,609.36,27.4,248.53-30.06,505.66-160.7,718.86l32.08,30.77c96.38-32.47,169.4-116.11,208.53-210,39.08-93.89,47.99-197.56,47.76-299.25-.4-174.76-26.5-349.43-77.18-516.67-33.43-110.36-77.94-219.66-81.94-334.89-1.74-50.14,6.02-104.35,40.55-140.78,33.55-35.4,86.21-46.69,134.84-42.89,48.63,3.8,95.16,20.55,142.21,33.35,61.22,16.67,125.33,26.8,188.18,18.13,62.84-8.67,124.66-37.89,163.07-88.42,38.41-50.49,49.3-123.6,18.14-178.88-82.53,147.91-280.02,219.43-438.14,158.68h.04Z"/><path class="cls-4" d="M2016.75,1683.2c-62.09,3.68-124.03-9.66-183.39-28.24-40.67-12.75-81.26-28.11-123.83-30.29-42.57-2.18-88.74,11.52-113.45,46.25-23.64,33.27-22.85,77.58-18.73,118.17,14.29,141.05,138.6,466.25,129.49,819.05-8.59,332.32-218.16,469.41-218.16,469.41l676.05,26.38,20.52-1490.59s-106.49,66.18-168.58,69.82l.08,.04Z"/><path class="cls-6" d="M2003.32,1769.33c-45.38,3.32-90.68-8.75-134.08-25.58-29.74-11.53-59.4-25.47-90.53-27.45-31.12-1.98-64.9,10.46-82.96,41.94-17.3,30.14-16.71,70.29-13.7,107.08,10.45,127.79,101.38,422.41,94.72,742.02-6.25,301.08-159.55,425.31-159.55,425.31l494.37,23.88,15.01-1350.4s-77.85,59.95-123.28,63.28v-.08Z"/><path class="cls-4" d="M2002.41,1842.27c-37.22,3.05-74.37-8.04-109.97-23.44-24.39-10.58-48.74-23.37-74.25-25.15-25.54-1.78-53.22,9.59-68.03,38.45-14.18,27.6-13.7,64.43-11.24,98.17,8.59,117.14,83.12,387.29,77.65,680.29-5.15,276.05-130.84,389.9-130.84,389.9l405.47,21.9,12.31-1238.05s-63.87,54.96-101.1,58.01v-.08Z"/><path class="cls-6" d="M1944.04,1882.66c-38.57,5.94-69.81-25.06-107.83-20.67-20.91,2.42-38.29,16.75-47.36,33.74-9.07,16.99-11.01,36.39-10.89,55.28,.63,87.4,42.06,170.08,66.01,254.99,43.52,154.24,37.03,317.51,5.9,473.34-38.65,193.76-107.63,307.57-107.63,307.57,0,0,252.29,9.31,306.78,11.64,38.45-350.1,31.44-720.24,34.57-1072.33,.2-22.69-1.7-49.18-22.53-62.29-18.73-11.8-44.51-7.09-65.42,.95-16.91,6.5-33.7,14.97-51.56,17.7l-.04,.08Z"/><path class="cls-4" d="M1955.41,1919.81c-28.83,5.98-51.88-23.37-80.27-18.81-15.64,2.49-28.71,16.31-35.64,32.63-6.93,16.31-8.52,34.85-8.59,52.9-.24,83.48,29.93,162.13,47.08,243.03,31.17,146.99,24.95,302.94,.44,452.07-30.46,185.41-82.89,294.71-82.89,294.71,0,0,188.14,6.77,228.77,8.55,31.6-334.74,29.5-688.25,34.77-1024.53,.36-21.7-.87-46.97-16.31-59.32-13.9-11.13-33.15-6.38-48.83,1.46-12.67,6.34-25.27,14.58-38.61,17.35l.08-.04Z"/><path class="cls-6" d="M1436.85-354.86c-98.73,83.79-151.39,214.59-157.37,344.28-14.06,305.99,184.22,605.13,447.64,749.51,42.05,23.05,86.2,42.17,131.74,57.22,91.36,30.25,191.31,44.43,283.74,17.7,120.3-34.81,213.36-136.14,262.82-251.18,49.46-115.04,60.35-242.99,59.4-368.2-1.34-176.06-30.92-365.11-153.05-491.95-110.96-115.2-278.23-157.13-437.86-167.03-149.69-9.31-310.34,8.59-427.72,101.97-3.17,2.53-6.29,5.11-9.38,7.72l.04-.04Z"/><path class="cls-4" d="M1464.53-320.84c-92.43,78.45-141.77,200.97-147.35,322.38-13.19,286.55,172.49,566.64,419.2,701.87,39.36,21.58,80.75,39.48,123.39,53.58,85.54,28.31,179.16,41.62,265.72,16.59,112.66-32.59,199.78-127.47,246.11-235.22,46.34-107.75,56.51-227.54,55.64-344.8-1.26-164.85-28.98-341.91-143.31-460.67-103.87-107.87-260.57-147.11-410.02-156.42-140.18-8.71-290.62,8.08-400.51,95.48-2.97,2.38-5.9,4.75-8.79,7.21h-.08Z"/><path class="cls-6" d="M1502.74-273.76c-83.75,71.08-128.46,182.08-133.53,292.13-11.92,259.66,156.3,513.45,379.84,635.98,35.68,19.56,73.18,35.8,111.79,48.55,77.5,25.66,162.32,37.7,240.77,15.01,102.09-29.54,181.05-115.51,223.03-213.17,41.98-97.61,51.2-206.2,50.41-312.44-1.15-149.37-26.25-309.83-129.89-417.42-94.13-97.73-236.09-133.33-371.56-141.73-127.04-7.92-263.34,7.33-362.94,86.53-2.69,2.14-5.34,4.32-7.96,6.53l.04,.04Z"/><path class="cls-4" d="M1532.28-237.44c-77.06,65.42-118.2,167.55-122.84,268.77-10.96,238.87,143.79,472.39,349.47,585.13,32.83,17.98,67.32,32.91,102.85,44.67,71.32,23.6,149.33,34.69,221.52,13.82,93.93-27.17,166.56-106.29,205.17-196.1,38.61-89.81,47.12-189.68,46.37-287.46-1.03-137.41-24.16-285.04-119.48-384.04-86.6-89.93-217.2-122.64-341.82-130.4-116.86-7.29-242.28,6.73-333.91,79.6-2.5,1.98-4.91,3.96-7.33,6.02Z"/><path class="cls-6" d="M1556-208.22c-71.67,60.83-109.93,155.83-114.24,249.96-10.22,222.2,133.77,439.4,325.03,544.22,30.54,16.75,62.61,30.61,95.68,41.54,66.33,21.94,138.91,32.27,206.04,12.87,87.35-25.27,154.91-98.84,190.83-182.4,35.92-83.56,43.84-176.42,43.12-267.38-.95-127.83-22.45-265.12-111.15-357.19-80.55-83.63-202.04-114.09-317.95-121.29-108.7-6.77-225.33,6.26-310.58,74.05-2.3,1.82-4.56,3.68-6.82,5.58l.04,.04Z"/><path class="cls-4" d="M1799.82-239.38c-29.34,3.76-58.25,10.18-85.93,18.93-71.16,22.41-137.02,60.31-182.12,113.69-118.88,140.82-33.94,329.24,71.59,457.82,67.88,82.69,156.11,152.42,255.66,203.98,40.32,20.87,83.08,39.28,128.86,46.45,45.78,7.21,95.16,2.26,133.22-20.55,38.09-22.81,60.98-60.59,78.6-98.29,54.37-116.23,71.88-246.23,50.13-371.72-11.4-65.74-33.69-130.8-72.3-188.3-38.61-57.5-94.29-107.16-162.4-136.11-66.73-28.35-142.41-35.28-215.31-25.9Z"/><path class="cls-6" d="M1807.74-188.34c-25.74,3.33-51.04,8.95-75.36,16.59-62.41,19.68-120.14,52.87-159.67,99.67-104.22,123.43-29.77,288.64,62.77,401.35,59.52,72.47,136.86,133.61,224.14,178.83,35.32,18.3,72.82,34.41,112.98,40.75,40.15,6.34,83.43,1.98,116.78-18.02,33.42-20,53.46-53.1,68.9-86.17,47.64-101.89,63.04-215.86,43.96-325.87-9.98-57.66-29.55-114.68-63.4-165.09-33.86-50.41-82.65-93.97-142.37-119.31-58.49-24.83-124.82-30.93-188.77-22.73h.04Z"/><path class="cls-4" d="M1817.21-127.27c-21.39,2.73-42.46,7.44-62.65,13.78-51.88,16.35-99.91,43.96-132.78,82.88-86.68,102.68-24.75,240.05,52.19,333.83,49.5,60.27,113.85,111.12,186.4,148.74,29.38,15.25,60.59,28.63,93.97,33.9,33.38,5.27,69.38,1.62,97.14-14.97,27.8-16.63,44.47-44.19,57.3-71.67,39.64-84.74,52.43-179.55,36.55-271.02-8.32-47.96-24.55-95.4-52.71-137.29-28.15-41.94-68.74-78.13-118.4-99.24-48.67-20.67-103.83-25.74-157.01-18.89v-.04Z"/><path class="cls-6" d="M1842.63-99.71c-17.7,2.26-35.13,6.14-51.84,11.4-42.92,13.54-82.68,36.39-109.85,68.59-71.71,84.94-20.47,198.63,43.21,276.21,40.94,49.9,94.16,91.95,154.24,123.08,24.31,12.59,50.13,23.68,77.73,28.04,27.6,4.36,57.42,1.35,80.35-12.39,22.97-13.78,36.79-36.55,47.4-59.28,32.79-70.13,43.36-148.58,30.26-224.26-6.89-39.68-20.32-78.92-43.64-113.61-23.33-34.69-56.91-64.67-97.97-82.09-40.28-17.11-85.9-21.3-129.89-15.64v-.04Z"/><path class="cls-4" d="M1852.13-50.13c-13.66,1.74-27.12,4.75-40.03,8.83-33.15,10.45-63.84,28.08-84.87,52.98-55.4,65.62-15.8,153.41,33.35,213.29,31.64,38.53,72.74,71,119.11,95.04,18.77,9.74,38.73,18.3,60.04,21.66,21.3,3.37,44.35,1.03,62.05-9.58,17.74-10.65,28.39-28.23,36.63-45.78,25.31-54.17,33.5-114.72,23.36-173.17-5.3-30.65-15.68-60.94-33.69-87.71-17.98-26.77-43.92-49.94-75.64-63.4-31.09-13.19-66.33-16.43-100.31-12.08v-.08Z"/><path class="cls-6" d="M1861.2,8.4c-9.5,1.23-18.89,3.33-27.88,6.14-23.08,7.29-44.47,19.56-59.12,36.91-38.57,45.7-11.01,106.88,23.24,148.58,22.02,26.85,50.69,49.46,82.97,66.21,13.06,6.77,26.96,12.75,41.81,15.09,14.85,2.34,30.89,.71,43.25-6.65,12.35-7.41,19.8-19.68,25.5-31.92,17.62-37.74,23.32-79.91,16.28-120.66-3.69-21.34-10.93-42.45-23.49-61.1-12.55-18.65-30.61-34.77-52.71-44.15-21.66-9.19-46.21-11.44-69.89-8.4l.04-.04Z"/><path class="cls-6" d="M13.86,1777.29c204.69,31.16,424.83-61.18,615.3,21.46,114.05,49.5,197.21,156.5,243.38,273.87,46.17,117.38,59.44,245.37,66.09,371.65,4.16,78.33,1.58,167.71-55.95,219.66-51.92,46.89-131.59,45.15-197.13,22.02-65.5-23.13-123.71-64.07-188.42-89.46-143.99-56.51-316.96-27.36-435.48,73.42-23.92,20.32-45.42,43.36-64.27,68.55-70.05,93.38-103.59,215.58-88.66,332.36l-228.33-1491.37c77.89,101.25,192.93,171.82,316.96,195.03,5.46,1.07,10.97,1.98,16.51,2.85v-.04Z"/><path class="cls-4" d="M-224.29,1745.41l129.49,1005.36c36.12-125.21,159.55-210.07,287.26-235.97,127.71-25.9,259.9-3.09,387.21,24.71,36.51,7.96,73.42,16.39,110.72,14.93,37.34-1.43,75.83-14.02,100.66-41.9,24.12-27.09,32.35-64.55,37.58-100.46,11.76-80.83,12.75-164.03-6.45-243.39-19.21-79.35-59.64-154.87-121.45-208.21-81.89-70.65-193.41-96.94-301.39-103.48-107.95-6.53-216.45,4.32-324.32-3.13-107.91-7.44-219.23-35.75-299.3-108.46Z"/><path class="cls-6" d="M-42.41,1917.51c-48.47-1.86-98.37-16.08-133.25-49.78l103.79,731.02c5.98-53.02,56.63-89.22,106.05-109.34,92.7-37.69,195.23-43.36,295.26-40.86,100.07,2.49,200.26,12.63,300.01,4.63,33.5-2.69,68.51-8.08,95.24-28.47,29.07-22.18,43.6-58.81,49.93-94.84,17.9-102.05-21.66-209.53-92.23-285.36-70.57-75.88-169.17-121.97-270.86-141.69-101.73-19.72-206.83-14.61-309.35,.4-48,7-96.07,16.19-144.54,14.33l-.04-.04Z"/><path class="cls-4" d="M-133.45,1997.7l58.05,500.78c55.28-51.87,102.84-65.42,145.69-73.26,98.6-18.05,199.19-25.34,299.38-21.66,49.03,1.82,98.37,6.22,146.96-.71,48.55-6.93,97.42-26.69,128.26-64.83,34.25-42.29,41.38-102.76,25.19-154.67-16.2-51.96-53.54-95.56-98.09-126.8-44.55-31.25-96.15-51.05-148.42-66.17-169.37-49.03-352.04-51.21-557.09,7.36l.08-.04Z"/><path class="cls-6" d="M-97.14,2042.17l38.29,376.4c171.43-46.53,311.3-67,451.88-74.65,38.77-2.09,78.29-3.36,114.92-16.15,36.67-12.79,70.8-39.44,81.85-76.67,10.77-36.19-2.34-76.39-26.29-105.53-24-29.15-57.54-48.79-91.79-64.63-164.66-76.03-354.42-75-568.89-38.77h.04Z"/><path class="cls-4" d="M-75.28,2086.96l32.51,283.54c150.68-38.38,269.36-53.82,388.67-59.56,32.91-1.59,66.41-2.54,97.54-12.2,31.09-9.66,60.07-29.74,69.46-57.74,9.15-27.24-1.98-57.54-22.33-79.47-20.35-21.94-48.83-36.75-77.89-48.67-139.71-57.26-300.72-56.47-487.95-25.86v-.04Z"/><path class="cls-6" d="M-61.74,2108.19l26.41,230.51c128.98-33.74,225.44-46.3,322.42-50.97,26.73-1.31,54.01-2.06,79.28-9.9,25.3-7.84,48.83-24.15,56.47-46.96,7.45-22.14-1.62-46.77-18.14-64.63-16.55-17.86-39.68-29.86-63.32-39.56-113.57-46.57-244.45-45.94-403.13-18.49Z"/><path class="cls-6" d="M879.32-367.41C853.14-246.87,847.12-122.56,859.68,0c27.64,270.07,145.37,531.55,336.04,725.27,33.94,34.49,72.43,86.17,43.88,125.22-14.1,19.25-39.36,25.58-61.86,33.66-122.48,43.88-199.62,170.32-224.09,298.15-24.47,127.83-6.02,259.34,7.05,388.83,3.88,38.61,4.83,83.75-24.75,108.86-24.99,21.23-63.36,18.77-92.78,4.32-29.42-14.46-52.67-38.65-77.54-60-90.41-77.61-209.88-120.5-329.04-118.12-129.02,2.61-255.54,55.91-383.72,41.02-17.86-2.06-35.56-5.54-52.87-10.37-96.54-26.73-181.8-94.01-228.29-182.92L-357.47-394.73c412.43-5.78,825.07,3.33,1236.79,27.32Z"/><path class="cls-4" d="M-171.86,1316.74c21.15,71.32,90.21,120.66,162.76,137.25,72.51,16.6,148.38,5.71,221.21-9.5,72.82-15.21,145.53-34.77,219.94-35.44,81.93-.76,163.98,22.09,233.72,65.14,25.62,15.8,49.94,34.41,78.13,44.98,28.19,10.58,62.21,11.73,86.37-6.25,38.33-28.43,33.9-86.13,25.54-133.1-13.82-77.65-27.76-156.34-21.42-234.94,6.38-78.61,35.48-158.52,95.04-210.24,39.24-34.06,93.66-60.03,104.74-110.8,10.14-46.41-21.58-90.37-49.42-128.86C790.77,426.73,707.81,80.7,758.97-246.35c-332.96-13.74-665.95-27.48-998.91-41.22l68.03,1604.36,.04-.04Z"/><path class="cls-6" d="M-224.29-166.91l31.8,1477.27c135.39,81.94,248.37,97.97,344.28,81.82,95.91-16.16,187.43-56.83,284.49-63.01,64.35-4.11,129.69,7.45,188.73,33.35,21.82,9.58,45.18,21.34,68.27,15.6,23.44-5.82,39.28-28.91,44.23-52.55,4.95-23.64,1.15-48.11-1.98-72.03-15.44-117.02-12.35-245.96,59.28-339.81,27.56-36.07,65.82-68.9,70.45-114.05,4.47-43.6-24.16-82.68-48.51-119.12-158.8-237.44-182.67-538.01-188.5-823.6-257-20.67-515.04-27.92-852.55-23.84v-.04Z"/><path class="cls-4" d="M-188.73,1273.62c181.68,37.1,255.34,40.27,320.21,27.2,64.82-13.07,126.56-39.92,192.06-49.3,66.09-9.47,134.72-.52,196.14,25.66,21.07,8.99,41.66,20.04,64.27,23.84,22.57,3.8,48.47-1.23,62.49-19.37,24.08-31.08,1.03-74.6-13.15-111.27-29.54-76.27-13.78-168.18,39.44-230.32,28-32.67,66.73-59.96,76.74-101.81,10.42-43.52-13.98-86.84-35.72-125.97-132.22-238.11-196.5-513.53-183.31-785.58-203.98-4.16-408-8.32-743.57-6.38l24.43,1353.26-.04,.04Z"/><path class="cls-6" d="M106.05-17.11c-38.57,2.89-309.83,3.6-309.83,3.6l-5.15,1235.91c.44,5.43,308.41-18.77,337.75-21.06,107.75-8.4,226.59-33.07,331.17,3.96,29.62,10.49,67.79,22.8,88.11-1.15,20.16-23.72,2.42-58.85-7.6-88.31-14.02-41.22-10.22-88.15,10.18-126.64,21.58-40.67,61.06-73.18,68.67-118.6,6.61-39.44-12.71-78.01-29.98-114.09-87.28-182.16-135.99-382.69-142.01-584.58-1.43-47.12-2.14-98.88-33.11-134.44C387.37,6.61,344.32-3.88,303.85-9.9c-65.38-9.74-131.87-12.16-197.8-7.17v-.04Z"/><path class="cls-4" d="M15.92,68.03c-49.14,16.16-108.62,18.97-160.22,22.53l32.35,1079.33c86.33,17.78,168.78-36.19,251.74-65.85,65.06-23.25,135.27-31.88,204.02-25.11,33.54,3.29,71.71,8.91,97.22-13.15,26.26-22.69,25.34-62.92,22.3-97.49-15.56-176.14-31.09-352.28-46.65-528.42-7.64-86.57-16.43-176.7-61.97-250.71C286.9,79,138.8,27.64,15.92,67.99v.04Z"/><path class="cls-6" d="M38.25,152.58c-41.54,13.62-91.79,16.04-135.39,19.05l27.36,912.1c72.94,15.05,142.6-30.61,212.77-55.63,54.96-19.65,114.33-26.93,172.42-21.23,28.35,2.81,60.63,7.52,82.17-11.13,22.18-19.17,21.42-53.18,18.85-82.37-13.15-148.86-26.29-297.71-39.44-446.53-6.46-73.14-13.86-149.29-52.35-211.86-57.3-93.1-182.44-136.5-286.31-102.41h-.08Z"/><path class="cls-4" d="M50.73,238.43c-11.48,2.38-22.89,5.15-34.21,8.35-21.11,5.98-42.97,14.14-57.02,31.76-16.39,20.55-18.69,49.42-19.88,76.27-7.92,179.67,1.43,360.16,28.16,537.77,2.97,19.64,6.26,39.72,15.4,57.14,32.71,62.25,94.64,15.8,140.22-.32,36.79-12.99,76.86-15.44,114.84-7.05,30.49,6.77,63.72,20,91.12,4.43,30.21-17.19,36.11-59.48,37.54-95.63,6.61-165.01-5.31-332.44-53.5-489.61-12.28-40-28.43-81.5-60.75-106.09-29.42-22.41-67.64-27.17-103.95-27.13-32.87,.04-65.74,3.45-98.01,10.1h.04Z"/><path class="cls-6" d="M71.84,314.27c-9.11,1.86-18.18,4.08-27.13,6.61-16.75,4.75-34.1,11.21-45.22,25.18-12.99,16.32-14.81,39.2-15.76,60.47-6.3,142.48,1.11,285.63,22.33,426.49,2.34,15.6,4.99,31.48,12.24,45.3,25.94,49.34,75.04,12.51,111.2-.24,29.18-10.3,60.94-12.28,91.04-5.58,24.16,5.35,50.53,15.88,72.27,3.52,23.96-13.62,28.63-47.16,29.78-75.83,5.23-130.84-4.24-263.66-42.41-388.28-9.74-31.72-22.53-64.63-48.19-84.15-23.32-17.78-53.66-21.54-82.45-21.5-26.06,0-52.11,2.73-77.69,8Z"/><path class="cls-4" d="M92.35,387.84c-6.81,1.39-13.54,3.05-20.24,4.95-12.51,3.52-25.46,8.36-33.78,18.81-9.7,12.2-11.09,29.27-11.76,45.15-4.67,106.36,.83,213.28,16.67,318.46,1.74,11.64,3.72,23.52,9.15,33.82,19.36,36.87,56.03,9.35,83.04-.2,21.78-7.68,45.5-9.15,67.99-4.16,18.06,4,37.7,11.84,53.93,2.61,17.9-10.18,21.38-35.24,22.26-56.63,3.92-97.69-3.17-196.85-31.68-289.91-7.25-23.68-16.83-48.23-36-62.81-17.42-13.27-40.04-16.08-61.54-16.04-19.48,0-38.93,2.02-58.01,5.98l-.04-.04Z"/><path class="cls-6" d="M804.32,2970H186.52c.67-10.41,2.22-20.79,4.63-30.97,16.47-69.1,72.86-127.19,141.45-145.73,164.78-44.43,312.6,125.5,471.71,176.7Z"/><path class="cls-4" d="M859.68,0h123.04c39.33,331.41,224.61,645.2,501.02,833.46,42.06,28.63,92.51,73.58,71.52,119.95-23.13,51.16-97.69,34.1-153.21,25.58-128.07-19.6-256.93,60.03-324.72,170.44-67.8,110.4-83.6,245.48-77.82,374.89,17.19,384.56,208.54,757.08,157.81,1138.66-16.71,125.37-77.3,263.22-191.35,307.02h-161.65c-159.11-51.2-306.94-221.13-471.72-176.7-68.59,18.54-124.98,76.63-141.45,145.73-2.42,10.18-3.96,20.56-4.63,30.97H117.26c7.92-59.99,33.5-117.69,74.49-162.24,71.4-77.7,186.56-112.23,288.92-86.61,78.01,19.49,144.18,69.54,215.11,107.44,70.96,37.9,156.97,63.99,230.87,32.19,53.9-23.24,91.52-73.61,116.94-126.52,82.37-171.23,58.84-374.22,9.42-557.69-55.4-205.76-154.28-418.25-342.66-517.81-162.68-86.01-358.42-70.4-540.9-46.76C113.85,1619.2,55.88,1626.57,0,1623.72v-86.88c17.31,4.83,35.01,8.31,52.87,10.37,128.18,14.89,254.71-38.41,383.72-41.02,119.16-2.38,238.63,40.51,329.04,118.12,24.87,21.35,48.11,45.54,77.54,60,29.42,14.45,67.8,16.91,92.78-4.32,29.58-25.11,28.63-70.25,24.75-108.86-13.07-129.49-31.52-261-7.05-388.83,24.47-127.83,101.61-254.27,224.09-298.15,22.5-8.08,47.76-14.41,61.86-33.66,28.55-39.05-9.94-90.72-43.88-125.22C1005.05,531.55,887.32,270.07,859.68,0Z"/></g></g><g class="cls-1"><g><path class="cls-6" d="M0,5940V2970s1980,0,1980,0v2970H0Z"/><path class="cls-4" d="M607.46,4254.23c86.76-29.42,158.95-93.34,210.95-168.78,51.99-75.4,85.26-162.12,111.63-249.87,37.22-124.03,61.5-251.9,72.27-380.92,6.21-74.09,5.82-155.5-40.36-213.76-47.6-59.99-133.02-78.48-208.77-67.16-75.76,11.33-145.17,47.36-214.59,79.68-69.46,32.31-143.27,61.89-219.82,58.84-101.81-4.04-196.18-68.54-247.98-156.3-33.18-56.19-50.01-120.58-52.95-185.96H0v235.11c18.69,24.94,40,47.79,63.72,67.95,117.53,99.91,289.04,128.82,431.8,72.78,64.15-25.18,121.89-65.77,186.83-88.7,64.98-22.93,143.98-24.67,195.46,21.82,57.06,51.52,59.6,140.14,55.48,217.8-6.61,125.21-19.76,252.09-65.54,368.48-45.78,116.38-128.22,222.47-241.32,271.53-188.85,81.94-407.13-9.62-610.08,21.27-5.46,.83-10.93,1.74-16.35,2.81v74.57c83.32-12.44,171.78,.04,256.01,14.45,116.78,19.96,239.26,42.37,351.45,4.36Z"/><path class="cls-5" d="M0,3205.11v955.74c5.43-1.07,10.89-1.98,16.35-2.81,202.95-30.89,421.23,60.67,610.08-21.27,113.1-49.06,195.54-155.15,241.32-271.53,45.78-116.39,58.92-243.27,65.54-368.48,4.12-77.66,1.58-166.28-55.48-217.8-51.48-46.49-130.48-44.75-195.46-21.82-64.94,22.93-122.68,63.52-186.83,88.7-142.76,56.04-314.27,27.13-431.8-72.78-23.72-20.16-45.03-43.01-63.72-67.95Z"/><path class="cls-6" d="M710.34,4281.24c188.38-99.56,287.26-312.05,342.66-517.81,49.42-183.47,72.95-386.46-9.42-557.69-25.42-52.91-63.04-103.28-116.94-126.52-73.89-31.8-159.91-5.71-230.87,32.19-70.92,37.9-137.09,87.95-215.11,107.44-102.37,25.62-217.52-8.91-288.92-86.61-40.99-44.55-66.57-102.25-74.49-162.24H17.86c2.93,65.38,19.76,129.77,52.95,185.96,51.8,87.76,146.16,152.26,247.98,156.3,76.55,3.05,150.36-26.53,219.82-58.84,69.42-32.32,138.84-68.35,214.59-79.68,75.76-11.32,161.17,7.17,208.77,67.16,46.18,58.26,46.57,139.67,40.36,213.76-10.78,129.02-35.05,256.89-72.27,380.92-26.37,87.75-59.64,174.47-111.63,249.87-51.99,75.44-124.18,139.36-210.95,168.78-112.19,38.01-234.67,15.6-351.45-4.36-84.23-14.41-172.7-26.89-256.01-14.45v80.86c55.88-2.85,113.85,4.52,169.45,11.72,182.48,23.64,378.22,39.25,540.9-46.76Z"/><path class="cls-4" d="M1009.84,6230.07c40.15-494.56,329.95-962.44,754.82-1218.69,26.49-15.96,54.21-31.84,72.62-56.67,18.46-24.83,24.91-61.54,6.3-86.21-22.97-30.41-68.51-27.91-106.25-22.73-165.05,22.73-348.8,35.48-482.49-63.95-80.62-60-130.91-154.4-152.89-252.45-21.98-98.05-17.9-200.14-6.06-299.93,28-236.37,98.56-466.93,114.64-704.41,16.08-237.48-32.31-495.63-203.98-660.52l121.18,23.83c160.3,177.77,187.07,440.04,159.59,677.84-27.49,237.8-100.75,469.89-109.81,709.08-3.88,102.08,4.75,207.26,48.39,299.65,43.64,92.39,127.31,170.36,228.25,185.96,84.98,13.15,169.93-17.78,255.46-27.05,85.5-9.26,187.98,14.22,221.6,93.42,23.29,54.89,4.44,120.15-31.4,167.79-35.84,47.63-86.41,81.57-134.84,116.3-149.77,107.36-289.32,231.7-396.59,381.51-107.32,149.8-181.33,326.58-192.34,510.52-3.4,56.59-1.42,115.87-26.61,166.68-25.19,50.76-90.05,87.75-139.55,60.07l-.04-.04Z"/><path class="cls-4" d="M1748.3,4649.91c-74.57,19.84-143.91,63.08-221.05,65.14-82.29,2.18-160.81-45.3-209.84-111.43-49.02-66.13-71.52-148.74-79.08-230.71-28.71-311.69,143.31-610.63,144.9-923.67,1.03-208.61-75-412.59-188.58-587.55l57.54,19.29c108.39,138.32,168.42,311.02,185.37,485.93,16.91,174.91-7.76,352.12-56.11,521.06-31.05,108.5-71.96,214.75-89.26,326.26-17.31,111.52-8.56,232.22,53.18,326.66,33.66,51.48,87.63,95.24,149.17,95.24,53.5,0,100.75-32.12,149.65-53.78,88.39-39.2,191.07-45.1,283.38-16.31,92.31,28.79,173.41,92.03,223.82,174.56l-10.46,47.04c-87.51-118.44-250.27-175.55-392.59-137.69l-.04-.04Z"/><path class="cls-4" d="M1727.51,4471.79c-47.16,18.14-92.27,46.73-142.8,47.88-64.47,1.46-123.19-44.47-152.62-101.85-29.42-57.38-34.21-124.23-31.56-188.66,8.52-206.47,86.89-404,109.54-609.36,27.4-248.53-30.06-505.66-160.7-718.86l32.08-30.77c96.38,32.47,169.4,116.11,208.53,210,39.08,93.89,47.99,197.56,47.76,299.25-.4,174.76-26.5,349.43-77.18,516.67-33.43,110.36-77.94,219.66-81.94,334.89-1.74,50.14,6.02,104.35,40.55,140.78,33.55,35.4,86.21,46.69,134.84,42.89,48.63-3.8,95.16-20.55,142.21-33.35,61.22-16.67,125.33-26.8,188.18-18.13,62.84,8.67,124.66,37.89,163.07,88.42,38.41,50.49,49.3,123.6,18.14,178.88-82.53-147.91-280.02-219.43-438.14-158.68h.04Z"/><path class="cls-4" d="M2016.75,4256.8c-62.09-3.68-124.03,9.66-183.39,28.24-40.67,12.75-81.26,28.11-123.83,30.29-42.57,2.18-88.74-11.52-113.45-46.25-23.64-33.27-22.85-77.58-18.73-118.17,14.29-141.05,138.6-466.25,129.49-819.05-8.59-332.32-218.16-469.41-218.16-469.41l676.05-26.38,20.52,1490.59s-106.49-66.18-168.58-69.82l.08-.04Z"/><path class="cls-6" d="M2003.32,4170.67c-45.38-3.32-90.68,8.75-134.08,25.58-29.74,11.53-59.4,25.47-90.53,27.45-31.12,1.98-64.9-10.46-82.96-41.94-17.3-30.14-16.71-70.29-13.7-107.08,10.45-127.79,101.38-422.41,94.72-742.02-6.25-301.08-159.55-425.31-159.55-425.31l494.37-23.88,15.01,1350.4s-77.85-59.95-123.28-63.28v.08Z"/><path class="cls-4" d="M2002.41,4097.73c-37.22-3.05-74.37,8.04-109.97,23.44-24.39,10.58-48.74,23.37-74.25,25.15-25.54,1.78-53.22-9.59-68.03-38.45-14.18-27.6-13.7-64.43-11.24-98.17,8.59-117.14,83.12-387.29,77.65-680.29-5.15-276.05-130.84-389.9-130.84-389.9l405.47-21.9,12.31,1238.05s-63.87-54.96-101.1-58.01v.08Z"/><path class="cls-6" d="M1944.04,4057.34c-38.57-5.94-69.81,25.06-107.83,20.67-20.91-2.42-38.29-16.75-47.36-33.74-9.07-16.99-11.01-36.39-10.89-55.28,.63-87.4,42.06-170.08,66.01-254.99,43.52-154.24,37.03-317.51,5.9-473.34-38.65-193.76-107.63-307.57-107.63-307.57,0,0,252.29-9.31,306.78-11.64,38.45,350.1,31.44,720.24,34.57,1072.33,.2,22.69-1.7,49.18-22.53,62.29-18.73,11.8-44.51,7.09-65.42-.95-16.91-6.5-33.7-14.97-51.56-17.7l-.04-.08Z"/><path class="cls-4" d="M1955.41,4020.19c-28.83-5.98-51.88,23.37-80.27,18.81-15.64-2.49-28.71-16.31-35.64-32.63-6.93-16.31-8.52-34.85-8.59-52.9-.24-83.48,29.93-162.13,47.08-243.03,31.17-146.99,24.95-302.94,.44-452.07-30.46-185.41-82.89-294.71-82.89-294.71,0,0,188.14-6.77,228.77-8.55,31.6,334.74,29.5,688.25,34.77,1024.53,.36,21.7-.87,46.97-16.31,59.32-13.9,11.13-33.15,6.38-48.83-1.46-12.67-6.34-25.27-14.58-38.61-17.35l.08,.04Z"/><path class="cls-6" d="M1436.85,6294.86c-98.73-83.8-151.39-214.6-157.37-344.29-14.06-305.99,184.22-605.12,447.64-749.51,42.05-23.04,86.2-42.17,131.74-57.22,91.36-30.25,191.31-44.43,283.74-17.7,120.3,34.81,213.36,136.15,262.82,251.18,49.46,115.04,60.35,242.99,59.4,368.2-1.34,176.07-30.92,365.12-153.05,491.96-110.96,115.19-278.23,157.13-437.86,167.03-149.69,9.3-310.34-8.6-427.72-101.97-3.17-2.54-6.29-5.11-9.38-7.72l.04,.04Z"/><path class="cls-4" d="M1464.53,6260.84c-92.43-78.45-141.77-200.97-147.35-322.38-13.19-286.55,172.49-566.64,419.2-701.87,39.36-21.59,80.75-39.49,123.39-53.58,85.54-28.32,179.16-41.62,265.72-16.6,112.66,32.59,199.78,127.48,246.11,235.23,46.34,107.75,56.51,227.54,55.64,344.8-1.26,164.85-28.98,341.9-143.31,460.66-103.87,107.87-260.57,147.12-410.02,156.42-140.18,8.71-290.62-8.08-400.51-95.47-2.97-2.38-5.9-4.76-8.79-7.21h-.08Z"/><path class="cls-6" d="M1502.74,6213.75c-83.75-71.08-128.46-182.08-133.53-292.12-11.92-259.66,156.3-513.46,379.84-635.98,35.68-19.56,73.18-35.8,111.79-48.55,77.5-25.66,162.32-37.7,240.77-15.01,102.09,29.54,181.05,115.51,223.03,213.17,41.98,97.61,51.2,206.2,50.41,312.44-1.15,149.37-26.25,309.83-129.89,417.43-94.13,97.73-236.09,133.33-371.56,141.72-127.04,7.92-263.34-7.32-362.94-86.52-2.69-2.14-5.34-4.32-7.96-6.54l.04-.04Z"/><path class="cls-4" d="M1532.28,6177.44c-77.06-65.42-118.2-167.55-122.84-268.76-10.96-238.87,143.79-472.39,349.47-585.13,32.83-17.98,67.32-32.91,102.85-44.67,71.32-23.6,149.33-34.69,221.52-13.82,93.93,27.16,166.56,106.28,205.17,196.1,38.61,89.81,47.12,189.68,46.37,287.45-1.03,137.42-24.16,285.04-119.48,384.04-86.6,89.94-217.2,122.65-341.82,130.41-116.86,7.28-242.28-6.74-333.91-79.6-2.5-1.98-4.91-3.96-7.33-6.02Z"/><path class="cls-6" d="M1556,6148.22c-71.67-60.83-109.93-155.83-114.24-249.96-10.22-222.19,133.77-439.4,325.03-544.22,30.54-16.75,62.61-30.61,95.68-41.54,66.33-21.94,138.91-32.28,206.04-12.87,87.35,25.26,154.91,98.84,190.83,182.4,35.92,83.55,43.84,176.41,43.12,267.38-.95,127.82-22.45,265.12-111.15,357.19-80.55,83.63-202.04,114.08-317.95,121.29-108.7,6.77-225.33-6.25-310.58-74.05-2.3-1.82-4.56-3.68-6.82-5.58l.04-.04Z"/><path class="cls-4" d="M1799.82,6179.38c-29.34-3.76-58.25-10.18-85.93-18.93-71.16-22.41-137.02-60.31-182.12-113.69-118.88-140.82-33.94-329.23,71.59-457.81,67.88-82.69,156.11-152.42,255.66-203.98,40.32-20.87,83.08-39.29,128.86-46.45,45.78-7.21,95.16-2.26,133.22,20.55,38.09,22.81,60.98,60.59,78.6,98.29,54.37,116.22,71.88,246.23,50.13,371.72-11.4,65.74-33.69,130.8-72.3,188.3-38.61,57.5-94.29,107.16-162.4,136.1-66.73,28.36-142.41,35.29-215.31,25.9Z"/><path class="cls-6" d="M1807.74,6128.34c-25.74-3.33-51.04-8.95-75.36-16.59-62.41-19.69-120.14-52.87-159.67-99.68-104.22-123.43-29.77-288.64,62.77-401.34,59.52-72.47,136.86-133.61,224.14-178.84,35.32-18.29,72.82-34.41,112.98-40.75,40.15-6.33,83.43-1.98,116.78,18.02,33.42,20,53.46,53.11,68.9,86.17,47.64,101.89,63.04,215.86,43.96,325.87-9.98,57.66-29.55,114.68-63.4,165.09-33.86,50.41-82.65,93.97-142.37,119.32-58.49,24.83-124.82,30.92-188.77,22.73h.04Z"/><path class="cls-4" d="M1817.21,6067.27c-21.39-2.73-42.46-7.44-62.65-13.78-51.88-16.35-99.91-43.95-132.78-82.88-86.68-102.68-24.75-240.05,52.19-333.83,49.5-60.27,113.85-111.11,186.4-148.73,29.38-15.25,60.59-28.64,93.97-33.9,33.38-5.27,69.38-1.63,97.14,14.97,27.8,16.63,44.47,44.19,57.3,71.67,39.64,84.75,52.43,179.55,36.55,271.02-8.32,47.96-24.55,95.4-52.71,137.3-28.15,41.93-68.74,78.13-118.4,99.24-48.67,20.67-103.83,25.74-157.01,18.88v.04Z"/><path class="cls-6" d="M1842.63,6039.71c-17.7-2.25-35.13-6.14-51.84-11.4-42.92-13.55-82.68-36.39-109.85-68.59-71.71-84.94-20.47-198.63,43.21-276.21,40.94-49.9,94.16-91.95,154.24-123.08,24.31-12.59,50.13-23.68,77.73-28.03,27.6-4.36,57.42-1.35,80.35,12.39,22.97,13.78,36.79,36.55,47.4,59.28,32.79,70.13,43.36,148.58,30.26,224.26-6.89,39.68-20.32,78.92-43.64,113.61-23.33,34.69-56.91,64.67-97.97,82.09-40.28,17.11-85.9,21.31-129.89,15.64v.04Z"/><path class="cls-4" d="M1852.13,5990.13c-13.66-1.74-27.12-4.75-40.03-8.83-33.15-10.45-63.84-28.07-84.87-52.98-55.4-65.62-15.8-153.41,33.35-213.29,31.64-38.53,72.74-71,119.11-95.04,18.77-9.74,38.73-18.29,60.04-21.66,21.3-3.37,44.35-1.03,62.05,9.58,17.74,10.66,28.39,28.24,36.63,45.78,25.31,54.17,33.5,114.72,23.36,173.17-5.3,30.65-15.68,60.95-33.69,87.72-17.98,26.77-43.92,49.93-75.64,63.4-31.09,13.18-66.33,16.43-100.31,12.07v.08Z"/><path class="cls-6" d="M1861.2,5931.6c-9.5-1.22-18.89-3.32-27.88-6.13-23.08-7.29-44.47-19.57-59.12-36.91-38.57-45.7-11.01-106.88,23.24-148.58,22.02-26.85,50.69-49.46,82.97-66.21,13.06-6.77,26.96-12.75,41.81-15.09,14.85-2.33,30.89-.71,43.25,6.65,12.35,7.41,19.8,19.69,25.5,31.92,17.62,37.74,23.32,79.91,16.28,120.66-3.69,21.35-10.93,42.45-23.49,61.11-12.55,18.65-30.61,34.76-52.71,44.15-21.66,9.19-46.21,11.44-69.89,8.4l.04,.03Z"/><path class="cls-6" d="M13.86,4162.71c204.69-31.16,424.83,61.18,615.3-21.46,114.05-49.5,197.21-156.5,243.38-273.87,46.17-117.38,59.44-245.37,66.09-371.65,4.16-78.33,1.58-167.71-55.95-219.66-51.92-46.89-131.59-45.15-197.13-22.02-65.5,23.13-123.71,64.07-188.42,89.46-143.99,56.51-316.96,27.36-435.48-73.42-23.92-20.32-45.42-43.36-64.27-68.55-70.05-93.38-103.59-215.58-88.66-332.36l-228.33,1491.37c77.89-101.25,192.93-171.82,316.96-195.03,5.46-1.07,10.97-1.98,16.51-2.85v.04Z"/><path class="cls-4" d="M-224.29,4194.59l129.49-1005.36c36.12,125.21,159.55,210.07,287.26,235.97,127.71,25.9,259.9,3.09,387.21-24.71,36.51-7.96,73.42-16.39,110.72-14.93,37.34,1.43,75.83,14.02,100.66,41.9,24.12,27.09,32.35,64.55,37.58,100.46,11.76,80.83,12.75,164.03-6.45,243.39-19.21,79.35-59.64,154.87-121.45,208.21-81.89,70.65-193.41,96.94-301.39,103.48-107.95,6.53-216.45-4.32-324.32,3.13-107.91,7.44-219.23,35.75-299.3,108.46Z"/><path class="cls-6" d="M-42.41,4022.49c-48.47,1.86-98.37,16.08-133.25,49.78l103.79-731.02c5.98,53.02,56.63,89.22,106.05,109.34,92.7,37.69,195.23,43.36,295.26,40.86,100.07-2.49,200.26-12.63,300.01-4.63,33.5,2.69,68.51,8.08,95.24,28.47,29.07,22.18,43.6,58.81,49.93,94.84,17.9,102.05-21.66,209.53-92.23,285.36-70.57,75.88-169.17,121.97-270.86,141.69-101.73,19.72-206.83,14.61-309.35-.4-48-7-96.07-16.19-144.54-14.33l-.04,.04Z"/><path class="cls-4" d="M-133.45,3942.3l58.05-500.78c55.28,51.87,102.84,65.42,145.69,73.26,98.6,18.05,199.19,25.34,299.38,21.66,49.03-1.82,98.37-6.22,146.96,.71,48.55,6.93,97.42,26.69,128.26,64.83,34.25,42.29,41.38,102.76,25.19,154.67-16.2,51.96-53.54,95.56-98.09,126.8-44.55,31.25-96.15,51.05-148.42,66.17-169.37,49.03-352.04,51.21-557.09-7.36l.08,.04Z"/><path class="cls-6" d="M-97.14,3897.83l38.29-376.4c171.43,46.53,311.3,67,451.88,74.65,38.77,2.09,78.29,3.36,114.92,16.15,36.67,12.79,70.8,39.44,81.85,76.67,10.77,36.19-2.34,76.39-26.29,105.53-24,29.15-57.54,48.79-91.79,64.63-164.66,76.03-354.42,75-568.89,38.77h.04Z"/><path class="cls-4" d="M-75.28,3853.04l32.51-283.54c150.68,38.38,269.36,53.82,388.67,59.56,32.91,1.59,66.41,2.54,97.54,12.2,31.09,9.66,60.07,29.74,69.46,57.74,9.15,27.24-1.98,57.54-22.33,79.47-20.35,21.94-48.83,36.75-77.89,48.67-139.71,57.26-300.72,56.47-487.95,25.86v.04Z"/><path class="cls-6" d="M-61.74,3831.81l26.41-230.51c128.98,33.74,225.44,46.3,322.42,50.97,26.73,1.31,54.01,2.06,79.28,9.9,25.3,7.84,48.83,24.15,56.47,46.96,7.45,22.14-1.62,46.77-18.14,64.63-16.55,17.86-39.68,29.86-63.32,39.56-113.57,46.57-244.45,45.94-403.13,18.49Z"/><path class="cls-6" d="M879.32,6307.41c-26.18-120.54-32.19-244.85-19.64-367.41,27.64-270.07,145.37-531.55,336.04-725.27,33.94-34.5,72.43-86.17,43.88-125.22-14.1-19.24-39.36-25.58-61.86-33.66-122.48-43.88-199.62-170.32-224.09-298.15-24.47-127.83-6.02-259.34,7.05-388.83,3.88-38.61,4.83-83.75-24.75-108.86-24.99-21.23-63.36-18.77-92.78-4.32-29.42,14.46-52.67,38.65-77.54,60-90.41,77.61-209.88,120.5-329.04,118.12-129.02-2.61-255.54-55.91-383.72-41.02-17.86,2.06-35.56,5.54-52.87,10.37-96.54,26.73-181.8,94.01-228.29,182.92l-129.17,1748.65c412.43,5.78,825.07-3.32,1236.79-27.32Z"/><path class="cls-4" d="M-171.86,4623.26c21.15-71.32,90.21-120.66,162.76-137.25,72.51-16.6,148.38-5.71,221.21,9.5,72.82,15.21,145.53,34.77,219.94,35.44,81.93,.76,163.98-22.09,233.72-65.14,25.62-15.8,49.94-34.41,78.13-44.98,28.19-10.58,62.21-11.73,86.37,6.25,38.33,28.43,33.9,86.13,25.54,133.1-13.82,77.65-27.76,156.34-21.42,234.94,6.38,78.61,35.48,158.52,95.04,210.24,39.24,34.06,93.66,60.03,104.74,110.8,10.14,46.41-21.58,90.37-49.42,128.86-193.96,268.25-276.92,614.28-225.76,941.33-332.96,13.74-665.95,27.48-998.91,41.23l68.03-1604.36,.04,.04Z"/><path class="cls-6" d="M-224.29,6106.91l31.8-1477.27c135.39-81.94,248.37-97.97,344.28-81.82,95.91,16.16,187.43,56.83,284.49,63.01,64.35,4.11,129.69-7.45,188.73-33.35,21.82-9.58,45.18-21.34,68.27-15.6,23.44,5.82,39.28,28.91,44.23,52.55,4.95,23.64,1.15,48.11-1.98,72.03-15.44,117.02-12.35,245.96,59.28,339.81,27.56,36.08,65.82,68.9,70.45,114.05,4.47,43.6-24.16,82.68-48.51,119.11-158.8,237.45-182.67,538.01-188.5,823.61-257,20.67-515.04,27.91-852.55,23.83v.04Z"/><path class="cls-4" d="M-188.73,4666.38c181.68-37.1,255.34-40.27,320.21-27.2,64.82,13.07,126.56,39.92,192.06,49.3,66.09,9.47,134.72,.52,196.14-25.66,21.07-8.99,41.66-20.04,64.27-23.84,22.57-3.8,48.47,1.23,62.49,19.37,24.08,31.08,1.03,74.6-13.15,111.27-29.54,76.27-13.78,168.18,39.44,230.32,28,32.67,66.73,59.95,76.74,101.81,10.42,43.52-13.98,86.84-35.72,125.96-132.22,238.12-196.5,513.54-183.31,785.59-203.98,4.16-408,8.32-743.57,6.38l24.43-1353.26-.04-.04Z"/><path class="cls-6" d="M106.05,5957.11c-38.57-2.89-309.83-3.61-309.83-3.61l-5.15-1235.91c.44-5.43,308.41,18.77,337.75,21.06,107.75,8.4,226.59,33.07,331.17-3.96,29.62-10.49,67.79-22.8,88.11,1.15,20.16,23.72,2.42,58.85-7.6,88.31-14.02,41.22-10.22,88.15,10.18,126.64,21.58,40.67,61.06,73.18,68.67,118.6,6.61,39.45-12.71,78.02-29.98,114.09-87.28,182.16-135.99,382.7-142.01,584.58-1.43,47.12-2.14,98.88-33.11,134.44-26.89,30.89-69.93,41.38-110.4,47.4-65.38,9.74-131.87,12.16-197.8,7.17v.04Z"/><path class="cls-4" d="M15.92,5871.97c-49.14-16.16-108.62-18.97-160.22-22.54l32.35-1079.33c86.33-17.78,168.78,36.19,251.74,65.85,65.06,23.25,135.27,31.88,204.02,25.11,33.54-3.29,71.71-8.91,97.22,13.15,26.26,22.69,25.34,62.92,22.3,97.49-15.56,176.14-31.09,352.28-46.65,528.42-7.64,86.57-16.43,176.7-61.97,250.71-67.79,110.17-215.9,161.53-338.78,121.18v-.04Z"/><path class="cls-6" d="M38.25,5787.42c-41.54-13.62-91.79-16.04-135.39-19.05l27.36-912.1c72.94-15.05,142.6,30.61,212.77,55.63,54.96,19.65,114.33,26.93,172.42,21.23,28.35-2.81,60.63-7.52,82.17,11.13,22.18,19.16,21.42,53.18,18.85,82.37-13.15,148.85-26.29,297.71-39.44,446.53-6.46,73.14-13.86,149.29-52.35,211.86-57.3,93.1-182.44,136.5-286.31,102.4h-.08Z"/><path class="cls-4" d="M50.73,5701.57c-11.48-2.38-22.89-5.15-34.21-8.36-21.11-5.98-42.97-14.13-57.02-31.76-16.39-20.55-18.69-49.42-19.88-76.27-7.92-179.66,1.43-360.16,28.16-537.76,2.97-19.65,6.26-39.72,15.4-57.15,32.71-62.25,94.64-15.8,140.22,.32,36.79,12.99,76.86,15.44,114.84,7.05,30.49-6.77,63.72-20,91.12-4.44,30.21,17.19,36.11,59.48,37.54,95.64,6.61,165.01-5.31,332.44-53.5,489.61-12.28,40-28.43,81.5-60.75,106.09-29.42,22.41-67.64,27.17-103.95,27.13-32.87-.04-65.74-3.45-98.01-10.1h.04Z"/><path class="cls-6" d="M71.84,5625.73c-9.11-1.86-18.18-4.07-27.13-6.61-16.75-4.75-34.1-11.21-45.22-25.18-12.99-16.32-14.81-39.21-15.76-60.47-6.3-142.48,1.11-285.64,22.33-426.5,2.34-15.6,4.99-31.48,12.24-45.3,25.94-49.34,75.04-12.51,111.2,.24,29.18,10.3,60.94,12.28,91.04,5.58,24.16-5.34,50.53-15.88,72.27-3.52,23.96,13.62,28.63,47.16,29.78,75.83,5.23,130.84-4.24,263.66-42.41,388.28-9.74,31.72-22.53,64.63-48.19,84.15-23.32,17.78-53.66,21.54-82.45,21.5-26.06,0-52.11-2.73-77.69-8Z"/><path class="cls-4" d="M92.35,5552.16c-6.81-1.39-13.54-3.05-20.24-4.95-12.51-3.53-25.46-8.36-33.78-18.81-9.7-12.2-11.09-29.27-11.76-45.15-4.67-106.36,.83-213.28,16.67-318.46,1.74-11.64,3.72-23.52,9.15-33.82,19.36-36.87,56.03-9.34,83.04,.2,21.78,7.68,45.5,9.15,67.99,4.16,18.06-4,37.7-11.84,53.93-2.62,17.9,10.18,21.38,35.25,22.26,56.63,3.92,97.7-3.17,196.85-31.68,289.91-7.25,23.68-16.83,48.24-36,62.81-17.42,13.27-40.04,16.08-61.54,16.04-19.48,0-38.93-2.02-58.01-5.98l-.04,.04Z"/><path class="cls-6" d="M804.32,2970H186.52c.67,10.41,2.22,20.79,4.63,30.97,16.47,69.1,72.86,127.19,141.45,145.73,164.78,44.43,312.6-125.5,471.71-176.7Z"/><path class="cls-4" d="M859.68,5940h123.04c39.33-331.41,224.61-645.2,501.02-833.46,42.06-28.63,92.51-73.58,71.52-119.95-23.13-51.16-97.69-34.1-153.21-25.58-128.07,19.6-256.93-60.03-324.72-170.44-67.8-110.4-83.6-245.48-77.82-374.89,17.19-384.56,208.54-757.08,157.81-1138.66-16.71-125.37-77.3-263.22-191.35-307.02h-161.65c-159.11,51.2-306.94,221.13-471.72,176.7-68.59-18.54-124.98-76.63-141.45-145.73-2.42-10.18-3.96-20.56-4.63-30.97H117.26c7.92,59.99,33.5,117.69,74.49,162.24,71.4,77.7,186.56,112.23,288.92,86.61,78.01-19.49,144.18-69.54,215.11-107.44,70.96-37.9,156.97-63.99,230.87-32.19,53.9,23.24,91.52,73.61,116.94,126.52,82.37,171.23,58.84,374.22,9.42,557.69-55.4,205.76-154.28,418.25-342.66,517.81-162.68,86.01-358.42,70.4-540.9,46.76-55.6-7.2-113.57-14.57-169.45-11.72v86.88c17.31-4.83,35.01-8.31,52.87-10.37,128.18-14.89,254.71,38.41,383.72,41.02,119.16,2.38,238.63-40.51,329.04-118.12,24.87-21.35,48.11-45.54,77.54-60,29.42-14.45,67.8-16.91,92.78,4.32,29.58,25.11,28.63,70.25,24.75,108.86-13.07,129.49-31.52,261-7.05,388.83,24.47,127.83,101.61,254.27,224.09,298.15,22.5,8.08,47.76,14.42,61.86,33.66,28.55,39.05-9.94,90.72-43.88,125.22-190.67,193.72-308.4,455.2-336.04,725.27Z"/></g></g></g></svg>