<?xml version="1.0" encoding="UTF-8"?><svg id="Layer_2" xmlns="http://www.w3.org/2000/svg" xmlns:xlink="http://www.w3.org/1999/xlink" viewBox="0 0 1980 5940"><defs><style>.cls-1{fill:#fb5607;}.cls-2{clip-path:url(#clippath-1);}.cls-3{clip-path:url(#clippath);}.cls-4{fill:none;}.cls-5{fill:#1c438d;}.cls-6{fill:#ff6014;}</style><clipPath id="clippath"><rect class="cls-4" x="0" y="0" width="1980" height="2970"/></clipPath><clipPath id="clippath-1"><rect class="cls-4" x="0" y="2970" width="1980" height="2970"/></clipPath></defs><g id="Layer_1-2"><g><g class="cls-3"><g><path class="cls-1" d="M1980,0V2970H0V0S1980,0,1980,0Z"/><path class="cls-6" d="M1372.54,1685.77c-86.77,29.42-158.96,93.34-210.95,168.78-52,75.4-85.26,162.12-111.64,249.87-37.22,124.03-61.49,251.9-72.27,380.92-6.22,74.09-5.82,155.5,40.36,213.76,47.6,59.99,133.01,78.48,208.77,67.16,75.75-11.33,145.17-47.36,214.59-79.68,69.46-32.31,143.27-61.89,219.82-58.84,101.81,4.04,196.18,68.54,247.98,156.3,33.18,56.19,50.01,120.58,52.94,185.96h17.86v-235.11c-18.69-24.94-40-47.79-63.72-67.95-117.53-99.91-289.04-128.82-431.79-72.78-64.16,25.18-121.89,65.77-186.84,88.7-64.98,22.93-143.98,24.67-195.46-21.82-57.07-51.52-59.6-140.14-55.48-217.8,6.61-125.21,19.76-252.09,65.54-368.48,45.77-116.38,128.22-222.47,241.32-271.53,188.85-81.94,407.13,9.62,610.08-21.27,5.46-.83,10.92-1.74,16.35-2.81v-74.57c-83.32,12.44-171.78-.04-256.01-14.45-116.78-19.96-239.27-42.37-351.45-4.36Z"/><path class="cls-5" d="M1980,2734.89v-955.74c-5.43,1.07-10.89,1.98-16.35,2.81-202.95,30.89-421.23-60.67-610.08,21.27-113.1,49.06-195.55,155.15-241.32,271.53-45.78,116.39-58.93,243.27-65.54,368.48-4.12,77.66-1.59,166.28,55.48,217.8,51.48,46.49,130.48,44.75,195.46,21.82,64.95-22.93,122.68-63.52,186.84-88.7,142.75-56.04,314.26-27.13,431.79,72.78,23.72,20.16,45.03,43.01,63.72,67.95Z"/><path class="cls-1" d="M1269.66,1658.76c-188.38,99.56-287.26,312.05-342.66,517.81-49.42,183.47-72.94,386.46,9.43,557.69,25.42,52.91,63.04,103.28,116.94,126.52,73.89,31.8,159.9,5.71,230.87-32.19,70.92-37.9,137.09-87.95,215.11-107.44,102.36-25.62,217.52,8.91,288.92,86.61,40.98,44.55,66.56,102.25,74.48,162.24h99.4c-2.93-65.38-19.76-129.77-52.94-185.96-51.8-87.76-146.17-152.26-247.98-156.3-76.55-3.05-150.36,26.53-219.82,58.84-69.42,32.32-138.84,68.35-214.59,79.68-75.76,11.32-161.17-7.17-208.77-67.16-46.18-58.26-46.57-139.67-40.36-213.76,10.77-129.02,35.05-256.89,72.27-380.92,26.38-87.75,59.64-174.47,111.64-249.87,51.99-75.44,124.18-139.36,210.95-168.78,112.18-38.01,234.67-15.6,351.45,4.36,84.23,14.41,172.69,26.89,256.01,14.45v-80.86c-55.88,2.85-113.85-4.52-169.45-11.72-182.48-23.64-378.22-39.25-540.89,46.76Z"/><path class="cls-6" d="M970.16-290.07c-40.15,494.56-329.95,962.44-754.81,1218.69-26.49,15.96-54.21,31.84-72.63,56.67-18.45,24.83-24.91,61.54-6.3,86.21,22.97,30.41,68.51,27.91,106.25,22.73,165.05-22.73,348.8-35.48,482.49,63.95,80.63,60,130.92,154.4,152.9,252.45,21.98,98.05,17.9,200.14,6.06,299.93-28,236.37-98.57,466.93-114.64,704.41-16.08,237.48,32.31,495.63,203.98,660.52l-121.18-23.83c-160.3-177.77-187.07-440.04-159.59-677.84,27.48-237.8,100.74-469.89,109.81-709.08,3.88-102.08-4.75-207.26-48.39-299.65-43.64-92.39-127.31-170.36-228.25-185.96-84.98-13.15-169.92,17.78-255.46,27.05-85.5,9.26-187.98-14.22-221.6-93.42-23.28-54.89-4.44-120.15,31.4-167.79,35.84-47.63,86.41-81.57,134.84-116.3,149.77-107.36,289.32-231.7,396.59-381.51,107.32-149.81,181.33-326.58,192.34-510.52,3.41-56.59,1.43-115.87,26.61-166.68,25.19-50.77,90.05-87.75,139.55-60.07l.04,.04Z"/><path class="cls-6" d="M231.7,1290.09c74.57-19.84,143.91-63.08,221.05-65.14,82.29-2.18,160.82,45.3,209.84,111.43,49.03,66.13,71.52,148.74,79.08,230.71,28.71,311.69-143.31,610.63-144.9,923.67-1.03,208.61,75,412.59,188.58,587.55l-57.54-19.29c-108.39-138.32-168.42-311.02-185.37-485.93-16.91-174.91,7.76-352.12,56.11-521.06,31.05-108.5,71.95-214.75,89.26-326.26,17.31-111.52,8.55-232.22-53.18-326.66-33.66-51.48-87.64-95.24-149.17-95.24-53.5,0-100.74,32.12-149.65,53.78-88.39,39.2-191.07,45.1-283.38,16.31-92.31-28.79-173.41-92.03-223.82-174.56l10.46-47.04c87.52,118.44,250.27,175.55,392.59,137.69l.04,.04Z"/><path class="cls-6" d="M252.49,1468.21c47.16-18.14,92.27-46.73,142.8-47.88,64.47-1.46,123.2,44.47,152.62,101.85,29.42,57.38,34.21,124.23,31.56,188.66-8.51,206.47-86.88,404-109.53,609.36-27.4,248.53,30.06,505.66,160.7,718.86l-32.08,30.77c-96.39-32.47-169.41-116.11-208.53-210-39.08-93.89-47.99-197.56-47.76-299.25,.4-174.76,26.49-349.43,77.18-516.67,33.42-110.36,77.93-219.66,81.93-334.89,1.74-50.14-6.02-104.35-40.55-140.78-33.54-35.4-86.21-46.69-134.84-42.89-48.63,3.8-95.16,20.55-142.2,33.35-61.22,16.67-125.33,26.8-188.18,18.13-62.85-8.67-124.66-37.89-163.07-88.42-38.41-50.49-49.3-123.6-18.14-178.88,82.53,147.91,280.01,219.43,438.13,158.68h-.04Z"/><path class="cls-6" d="M-36.75,1683.2c62.09,3.68,124.03-9.66,183.39-28.24,40.67-12.75,81.26-28.11,123.83-30.29,42.57-2.18,88.74,11.52,113.45,46.25,23.64,33.27,22.85,77.58,18.73,118.17-14.3,141.05-138.6,466.25-129.49,819.05,8.59,332.32,218.16,469.41,218.16,469.41l-676.05,26.38-20.51-1490.59s106.48,66.18,168.58,69.82l-.08,.04Z"/><path class="cls-1" d="M-23.32,1769.33c45.38,3.32,90.68-8.75,134.09-25.58,29.74-11.53,59.4-25.47,90.53-27.45,31.12-1.98,64.9,10.46,82.96,41.94,17.3,30.14,16.71,70.29,13.7,107.08-10.45,127.79-101.38,422.41-94.72,742.02,6.26,301.08,159.55,425.31,159.55,425.31l-494.37,23.88-15.01-1350.4s77.85,59.95,123.27,63.28v-.08Z"/><path class="cls-6" d="M-22.41,1842.27c37.22,3.05,74.37-8.04,109.97-23.44,24.39-10.58,48.75-23.37,74.25-25.15,25.54-1.78,53.22,9.59,68.03,38.45,14.18,27.6,13.7,64.43,11.25,98.17-8.59,117.14-83.12,387.29-77.66,680.29,5.15,276.05,130.84,389.9,130.84,389.9l-405.47,21.9-12.32-1238.05s63.87,54.96,101.1,58.01v-.08Z"/><path class="cls-1" d="M35.96,1882.66c38.57,5.94,69.82-25.06,107.83-20.67,20.91,2.42,38.29,16.75,47.36,33.74,9.07,16.99,11.01,36.39,10.89,55.28-.63,87.4-42.06,170.08-66.01,254.99-43.52,154.24-37.03,317.51-5.9,473.34,38.65,193.76,107.63,307.57,107.63,307.57,0,0-252.29,9.31-306.78,11.64-38.45-350.1-31.44-720.24-34.57-1072.33-.2-22.69,1.7-49.18,22.53-62.29,18.73-11.8,44.51-7.09,65.42,.95,16.91,6.5,33.7,14.97,51.56,17.7l.04,.08Z"/><path class="cls-6" d="M24.59,1919.81c28.83,5.98,51.88-23.37,80.27-18.81,15.64,2.49,28.71,16.31,35.64,32.63,6.93,16.31,8.51,34.85,8.59,52.9,.24,83.48-29.94,162.13-47.08,243.03-31.17,146.99-24.95,302.94-.44,452.07,30.45,185.41,82.88,294.71,82.88,294.71,0,0-188.14,6.77-228.77,8.55-31.6-334.74-29.5-688.25-34.77-1024.53-.36-21.7,.87-46.97,16.32-59.32,13.9-11.13,33.15-6.38,48.83,1.46,12.67,6.34,25.26,14.58,38.61,17.35l-.08-.04Z"/><path class="cls-1" d="M543.15-354.86c98.72,83.79,151.39,214.59,157.37,344.28,14.06,305.99-184.22,605.13-447.64,749.51-42.05,23.05-86.21,42.17-131.75,57.22-91.36,30.25-191.31,44.43-283.73,17.7-120.3-34.81-213.36-136.14-262.82-251.18-49.46-115.04-60.35-242.99-59.4-368.2,1.35-176.06,30.93-365.11,153.05-491.95C-220.81-412.67-53.54-454.61,106.09-464.51c149.69-9.31,310.35,8.59,427.72,101.97,3.17,2.53,6.3,5.11,9.39,7.72l-.04-.04Z"/><path class="cls-6" d="M515.47-320.84C607.9-242.39,657.24-119.87,662.83,1.55c13.19,286.54-172.5,566.64-419.21,701.87-39.36,21.58-80.74,39.48-123.39,53.58-85.54,28.31-179.15,41.62-265.72,16.59-112.66-32.59-199.78-127.47-246.11-235.22-46.33-107.75-56.51-227.54-55.64-344.8,1.27-164.85,28.99-341.91,143.31-460.67C-200.06-374.97-43.36-414.22,106.09-423.52c140.18-8.71,290.63,8.08,400.51,95.48,2.97,2.38,5.9,4.75,8.79,7.21h.08Z"/><path class="cls-1" d="M477.26-273.75c83.75,71.08,128.46,182.08,133.53,292.13,11.92,259.66-156.3,513.45-379.84,635.98-35.68,19.56-73.18,35.8-111.79,48.55-77.5,25.66-162.32,37.7-240.77,15.01-102.09-29.54-181.05-115.51-223.03-213.17-41.98-97.61-51.2-206.2-50.41-312.44,1.15-149.37,26.25-309.83,129.89-417.42C-171.03-322.86-29.07-358.46,106.4-366.85c127.04-7.92,263.34,7.33,362.93,86.53,2.69,2.14,5.35,4.32,7.96,6.53l-.04,.04Z"/><path class="cls-6" d="M447.72-237.44c77.06,65.42,118.21,167.55,122.84,268.77,10.97,238.87-143.79,472.39-349.47,585.13-32.83,17.98-67.32,32.91-102.84,44.67-71.32,23.6-149.33,34.69-221.52,13.82-93.93-27.17-166.56-106.29-205.17-196.1s-47.12-189.68-46.37-287.46c1.03-137.41,24.16-285.04,119.47-384.04,86.61-89.93,217.21-122.64,341.83-130.4,116.86-7.29,242.27,6.73,333.91,79.6,2.49,1.98,4.91,3.96,7.33,6.02Z"/><path class="cls-1" d="M424-208.22c71.68,60.83,109.93,155.83,114.25,249.95,10.22,222.2-133.77,439.4-325.04,544.22-30.53,16.75-62.61,30.61-95.67,41.54-66.33,21.94-138.92,32.27-206.04,12.87-87.36-25.27-154.92-98.84-190.83-182.4-35.92-83.56-43.84-176.42-43.12-267.38,.95-127.83,22.45-265.12,111.16-357.19C-130.76-250.23-9.27-280.68,106.64-287.89c108.7-6.77,225.32,6.26,310.58,74.05,2.3,1.82,4.55,3.68,6.81,5.58l-.04,.04Z"/><path class="cls-6" d="M180.18-239.38c29.34,3.76,58.25,10.18,85.93,18.93,71.16,22.41,137.02,60.31,182.12,113.69,118.88,140.82,33.94,329.23-71.6,457.82-67.88,82.68-156.1,152.42-255.66,203.98-40.31,20.87-83.08,39.28-128.86,46.45-45.78,7.21-95.16,2.26-133.21-20.55-38.1-22.81-60.98-60.59-78.61-98.29-54.37-116.23-71.87-246.23-50.13-371.73,11.4-65.74,33.7-130.8,72.31-188.3,38.61-57.5,94.29-107.16,162.4-136.11,66.73-28.35,142.4-35.28,215.31-25.9Z"/><path class="cls-1" d="M172.26-188.34c25.74,3.33,51.04,8.95,75.36,16.59,62.41,19.68,120.15,52.87,159.67,99.67,104.23,123.43,29.78,288.64-62.77,401.35-59.52,72.47-136.86,133.61-224.14,178.83-35.32,18.3-72.82,34.41-112.98,40.75-40.15,6.34-83.44,1.98-116.78-18.02-33.42-20-53.46-53.1-68.9-86.17-47.64-101.89-63.04-215.86-43.96-325.87,9.98-57.66,29.54-114.68,63.4-165.09,33.86-50.41,82.64-93.97,142.36-119.31,58.49-24.83,124.82-30.93,188.77-22.73h-.04Z"/><path class="cls-6" d="M162.8-127.27c21.38,2.73,42.45,7.44,62.65,13.78,51.88,16.35,99.91,43.96,132.78,82.88,86.68,102.68,24.75,240.05-52.19,333.83-49.5,60.27-113.85,111.12-186.4,148.74-29.38,15.25-60.59,28.63-93.97,33.9-33.38,5.27-69.38,1.62-97.14-14.97-27.8-16.63-44.47-44.19-57.3-71.67-39.64-84.74-52.43-179.55-36.55-271.02,8.32-47.95,24.55-95.4,52.71-137.29C-84.47-51.04-43.88-87.24,5.78-108.35c48.67-20.67,103.83-25.74,157.01-18.89v-.04Z"/><path class="cls-1" d="M137.37-99.71c17.7,2.26,35.13,6.14,51.84,11.4,42.93,13.54,82.69,36.39,109.85,68.59,71.72,84.94,20.47,198.63-43.2,276.21-40.95,49.9-94.17,91.95-154.24,123.08-24.31,12.59-50.13,23.68-77.74,28.04-27.6,4.36-57.42,1.35-80.35-12.4-22.97-13.78-36.79-36.55-47.4-59.28-32.79-70.13-43.36-148.58-30.25-224.26,6.89-39.68,20.32-78.92,43.64-113.61C-67.16-36.63-33.58-66.61,7.48-84.03c40.27-17.11,85.89-21.3,129.89-15.64v-.04Z"/><path class="cls-6" d="M127.87-50.13c13.66,1.74,27.13,4.75,40.04,8.83,33.14,10.45,63.83,28.08,84.86,52.99,55.4,65.62,15.8,153.41-33.34,213.29-31.64,38.53-72.75,71-119.12,95.04-18.77,9.74-38.73,18.29-60.03,21.66-21.3,3.37-44.35,1.03-62.05-9.58-17.74-10.65-28.39-28.23-36.63-45.78-25.3-54.17-33.5-114.72-23.36-173.17,5.31-30.65,15.68-60.94,33.7-87.71C-30.1-1.35-4.16-24.51,27.56-37.98c31.09-13.19,66.33-16.43,100.31-12.08v-.08Z"/><path class="cls-1" d="M118.8,8.4c9.5,1.23,18.89,3.33,27.88,6.14,23.09,7.29,44.47,19.56,59.12,36.91,38.57,45.7,11.01,106.88-23.24,148.58-22.02,26.85-50.69,49.46-82.96,66.21-13.07,6.77-26.97,12.75-41.82,15.09-14.85,2.34-30.89,.71-43.24-6.65-12.36-7.41-19.8-19.68-25.5-31.92-17.62-37.74-23.32-79.91-16.28-120.66,3.68-21.34,10.93-42.45,23.48-61.1C8.79,42.33,26.85,26.22,48.95,16.83c21.66-9.19,46.21-11.44,69.89-8.4l-.04-.04Z"/><path class="cls-1" d="M1966.14,1777.29c-204.69,31.16-424.83-61.18-615.3,21.46-114.05,49.5-197.21,156.5-243.39,273.87-46.17,117.38-59.44,245.37-66.09,371.65-4.16,78.33-1.58,167.71,55.96,219.66,51.91,46.89,131.59,45.15,197.13,22.02,65.49-23.13,123.71-64.07,188.41-89.46,143.99-56.51,316.96-27.36,435.48,73.42,23.92,20.32,45.42,43.36,64.27,68.55,70.06,93.38,103.6,215.58,88.67,332.36l228.33-1491.37c-77.89,101.25-192.93,171.82-316.96,195.03-5.46,1.07-10.97,1.98-16.51,2.85v-.04Z"/><path class="cls-6" d="M2204.29,1745.41l-129.49,1005.36c-36.11-125.21-159.55-210.07-287.26-235.97-127.71-25.9-259.89-3.09-387.2,24.71-36.52,7.96-73.42,16.39-110.73,14.93-37.34-1.43-75.83-14.02-100.66-41.9-24.12-27.09-32.35-64.55-37.58-100.46-11.76-80.83-12.75-164.03,6.46-243.39,19.2-79.35,59.63-154.87,121.45-208.21,81.89-70.65,193.4-96.94,301.39-103.48,107.95-6.53,216.46,4.32,324.33-3.13,107.91-7.44,219.22-35.75,299.29-108.46Z"/><path class="cls-1" d="M2022.41,1917.51c48.47-1.86,98.37-16.08,133.26-49.78l-103.8,731.02c-5.98-53.02-56.62-89.22-106.04-109.34-92.71-37.69-195.23-43.36-295.26-40.86-100.07,2.49-200.26,12.63-300.01,4.63-33.5-2.69-68.51-8.08-95.24-28.47-29.07-22.18-43.6-58.81-49.94-94.84-17.89-102.05,21.67-209.53,92.23-285.36,70.57-75.88,169.17-121.97,270.87-141.69,101.73-19.72,206.83-14.61,309.35,.4,48,7,96.07,16.19,144.54,14.33l.04-.04Z"/><path class="cls-6" d="M2113.45,1997.7l-58.05,500.78c-55.28-51.87-102.84-65.42-145.69-73.26-98.6-18.05-199.19-25.34-299.38-21.66-49.02,1.82-98.36,6.22-146.95-.71-48.55-6.93-97.42-26.69-128.27-64.83-34.25-42.29-41.38-102.76-25.18-154.67,16.19-51.96,53.54-95.56,98.09-126.8,44.55-31.25,96.15-51.05,148.42-66.17,169.37-49.03,352.04-51.21,557.09,7.36l-.08-.04Z"/><path class="cls-1" d="M2077.14,2042.17l-38.29,376.4c-171.43-46.53-311.3-67-451.88-74.65-38.77-2.09-78.29-3.36-114.92-16.15-36.67-12.79-70.8-39.44-81.85-76.67-10.77-36.19,2.33-76.39,26.29-105.53,24-29.15,57.54-48.79,91.79-64.63,164.66-76.03,354.42-75,568.9-38.77h-.04Z"/><path class="cls-6" d="M2055.28,2086.96l-32.51,283.54c-150.68-38.38-269.36-53.82-388.68-59.56-32.9-1.59-66.41-2.54-97.53-12.2-31.09-9.66-60.07-29.74-69.46-57.74-9.15-27.24,1.98-57.54,22.34-79.47,20.35-21.94,48.82-36.75,77.89-48.67,139.71-57.26,300.72-56.47,487.95-25.86v-.04Z"/><path class="cls-1" d="M2041.74,2108.19l-26.42,230.51c-128.97-33.74-225.44-46.3-322.42-50.97-26.73-1.31-54.01-2.06-79.28-9.9-25.3-7.84-48.83-24.15-56.47-46.96-7.44-22.14,1.62-46.77,18.14-64.63,16.55-17.86,39.68-29.86,63.32-39.56,113.57-46.57,244.45-45.94,403.13-18.49Z"/><path class="cls-1" d="M1100.68-367.41C1126.86-246.87,1132.88-122.56,1120.32,0c-27.64,270.07-145.37,531.55-336.04,725.27-33.94,34.49-72.43,86.17-43.88,125.22,14.1,19.24,39.36,25.58,61.85,33.66,122.48,43.88,199.62,170.32,224.09,298.15,24.48,127.83,6.02,259.34-7.05,388.83-3.88,38.61-4.83,83.75,24.75,108.86,24.99,21.23,63.36,18.77,92.79,4.32,29.42-14.46,52.66-38.65,77.53-60,90.41-77.61,209.88-120.5,329.04-118.12,129.02,2.61,255.54,55.91,383.72,41.02,17.86-2.06,35.56-5.54,52.87-10.37,96.54-26.73,181.8-94.01,228.29-182.92l129.18-1748.65c-412.43-5.78-825.07,3.33-1236.79,27.32Z"/><path class="cls-6" d="M2151.86,1316.74c-21.14,71.32-90.2,120.66-162.75,137.25-72.51,16.6-148.38,5.71-221.21-9.5-72.82-15.21-145.53-34.77-219.94-35.44-81.93-.76-163.98,22.09-233.72,65.14-25.62,15.8-49.93,34.41-78.13,44.98-28.19,10.58-62.21,11.73-86.36-6.25-38.34-28.43-33.9-86.13-25.55-133.1,13.82-77.65,27.76-156.34,21.43-234.94-6.38-78.61-35.48-158.52-95.04-210.24-39.25-34.06-93.66-60.03-104.74-110.8-10.14-46.41,21.58-90.37,49.42-128.86,193.96-268.25,276.92-614.27,225.76-941.33,332.95-13.74,665.95-27.48,998.91-41.22l-68.04,1604.36-.04-.04Z"/><path class="cls-1" d="M2204.29-166.91l-31.79,1477.27c-135.4,81.94-248.38,97.97-344.29,81.82-95.91-16.16-187.42-56.83-284.48-63.01-64.35-4.11-129.69,7.45-188.74,33.35-21.82,9.58-45.18,21.34-68.27,15.6-23.44-5.82-39.28-28.91-44.23-52.55-4.95-23.64-1.15-48.11,1.98-72.03,15.44-117.02,12.35-245.96-59.28-339.81-27.56-36.08-65.82-68.9-70.45-114.05-4.47-43.6,24.16-82.68,48.51-119.12,158.8-237.44,182.67-538.01,188.5-823.6,257-20.67,515.03-27.92,852.54-23.84v-.04Z"/><path class="cls-6" d="M2168.73,1273.62c-181.68,37.1-255.34,40.27-320.2,27.2-64.83-13.07-126.56-39.92-192.06-49.3-66.09-9.47-134.72-.52-196.14,25.66-21.07,8.99-41.66,20.04-64.27,23.84-22.57,3.8-48.47-1.23-62.49-19.37-24.08-31.08-1.03-74.6,13.15-111.27,29.54-76.27,13.78-168.18-39.44-230.32-28-32.67-66.73-59.95-76.75-101.81-10.41-43.52,13.98-86.84,35.72-125.97,132.22-238.11,196.49-513.53,183.31-785.58,203.98-4.16,408-8.32,743.57-6.38l-24.44,1353.25,.04,.04Z"/><path class="cls-1" d="M1873.95-17.11c38.57,2.89,309.83,3.6,309.83,3.6l5.15,1235.91c-.44,5.43-308.41-18.77-337.75-21.06-107.75-8.4-226.59-33.07-331.17,3.96-29.62,10.49-67.8,22.8-88.11-1.15-20.16-23.72-2.42-58.85,7.6-88.31,14.02-41.22,10.22-88.15-10.18-126.64-21.58-40.67-61.06-73.18-68.66-118.6-6.62-39.45,12.71-78.02,29.97-114.09,87.28-182.16,135.99-382.69,142.01-584.58,1.42-47.12,2.14-98.88,33.1-134.44,26.89-30.89,69.94-41.38,110.41-47.4,65.38-9.74,131.87-12.16,197.8-7.17v-.04Z"/><path class="cls-6" d="M1964.08,68.03c49.14,16.16,108.62,18.97,160.22,22.53l-32.35,1079.34c-86.33,17.78-168.78-36.19-251.74-65.85-65.06-23.25-135.27-31.88-204.02-25.11-33.54,3.29-71.71,8.91-97.22-13.15-26.25-22.69-25.34-62.92-22.29-97.49,15.56-176.14,31.09-352.28,46.65-528.42,7.64-86.57,16.43-176.7,61.97-250.71,67.8-110.17,215.9-161.53,338.78-121.18v.04Z"/><path class="cls-1" d="M1941.75,152.58c41.54,13.62,91.79,16.04,135.39,19.05l-27.36,912.1c-72.95,15.05-142.6-30.61-212.78-55.63-54.96-19.65-114.32-26.93-172.41-21.23-28.36,2.81-60.63,7.52-82.17-11.13-22.18-19.16-21.43-53.18-18.85-82.37,13.14-148.85,26.29-297.71,39.44-446.53,6.45-73.14,13.86-149.29,52.35-211.86,57.3-93.1,182.44-136.5,286.31-102.41h.08Z"/><path class="cls-6" d="M1929.27,238.43c11.49,2.38,22.89,5.15,34.22,8.35,21.1,5.98,42.96,14.14,57.02,31.76,16.4,20.55,18.69,49.42,19.88,76.27,7.92,179.67-1.43,360.16-28.16,537.76-2.97,19.65-6.25,39.72-15.4,57.15-32.71,62.25-94.64,15.8-140.22-.32-36.79-12.99-76.87-15.44-114.84-7.05-30.5,6.77-63.72,20-91.12,4.44-30.22-17.19-36.12-59.48-37.54-95.64-6.62-165.01,5.3-332.44,53.5-489.61,12.27-40,28.43-81.5,60.74-106.09,29.42-22.41,67.64-27.17,103.95-27.13,32.87,.04,65.74,3.45,98.01,10.1h-.04Z"/><path class="cls-1" d="M1908.17,314.27c9.1,1.86,18.17,4.08,27.12,6.61,16.75,4.75,34.1,11.21,45.22,25.19,12.99,16.32,14.82,39.2,15.77,60.47,6.29,142.48-1.11,285.63-22.34,426.5-2.34,15.6-4.99,31.48-12.24,45.3-25.93,49.34-75.04,12.51-111.19-.24-29.19-10.3-60.95-12.28-91.04-5.58-24.16,5.34-50.53,15.88-72.27,3.52-23.96-13.62-28.63-47.16-29.78-75.83-5.23-130.84,4.24-263.66,42.41-388.28,9.74-31.72,22.53-64.63,48.19-84.15,23.33-17.78,53.66-21.54,82.45-21.5,26.06,0,52.11,2.73,77.7,8Z"/><path class="cls-6" d="M1887.65,387.84c6.81,1.39,13.55,3.05,20.24,4.95,12.51,3.53,25.46,8.36,33.78,18.81,9.7,12.2,11.09,29.27,11.76,45.15,4.67,106.36-.83,213.28-16.67,318.46-1.75,11.64-3.73,23.52-9.15,33.82-19.37,36.87-56.03,9.34-83.04-.2-21.78-7.68-45.5-9.15-68-4.16-18.05,4-37.69,11.84-53.93,2.61-17.9-10.18-21.38-35.24-22.26-56.63-3.92-97.69,3.17-196.85,31.68-289.91,7.25-23.68,16.83-48.23,36-62.81,17.42-13.27,40.04-16.08,61.54-16.04,19.48,0,38.93,2.02,58.01,5.98l.04-.04Z"/><path class="cls-1" d="M1175.68,2970h617.8c-.67-10.41-2.21-20.79-4.63-30.97-16.47-69.1-72.86-127.19-141.45-145.73-164.78-44.43-312.6,125.5-471.72,176.7Z"/><path class="cls-6" d="M1120.32,0h-123.03c-39.32,331.41-224.61,645.2-501.02,833.46-42.05,28.63-92.51,73.58-71.52,119.95,23.13,51.16,97.69,34.1,153.21,25.58,128.07-19.6,256.93,60.03,324.72,170.44,67.79,110.4,83.6,245.48,77.81,374.89-17.19,384.56-208.53,757.08-157.81,1138.66,16.71,125.37,77.3,263.22,191.35,307.02h161.64c159.12-51.2,306.94-221.13,471.72-176.7,68.59,18.54,124.98,76.63,141.45,145.73,2.42,10.18,3.96,20.56,4.63,30.97h69.26c-7.92-59.99-33.5-117.69-74.48-162.24-71.4-77.7-186.56-112.23-288.92-86.61-78.02,19.49-144.19,69.54-215.11,107.44-70.97,37.9-156.98,63.99-230.87,32.19-53.9-23.24-91.52-73.61-116.94-126.52-82.37-171.23-58.85-374.22-9.43-557.69,55.4-205.76,154.28-418.25,342.66-517.81,162.67-86.01,358.41-70.4,540.89-46.76,55.6,7.2,113.57,14.57,169.45,11.72v-86.88c-17.31,4.83-35.01,8.31-52.87,10.37-128.18,14.89-254.7-38.41-383.72-41.02-119.16-2.38-238.63,40.51-329.04,118.12-24.87,21.35-48.11,45.54-77.53,60-29.43,14.45-67.8,16.91-92.79-4.32-29.58-25.11-28.63-70.25-24.75-108.86,13.07-129.49,31.53-261,7.05-388.83-24.47-127.83-101.61-254.27-224.09-298.15-22.49-8.08-47.76-14.42-61.85-33.66-28.55-39.05,9.94-90.72,43.88-125.22C974.95,531.55,1092.68,270.07,1120.32,0Z"/></g></g><g class="cls-2"><g><path class="cls-1" d="M1980,5940V2970H0v2970s1980,0,1980,0Z"/><path class="cls-6" d="M1372.54,4254.23c-86.77-29.42-158.96-93.34-210.95-168.78-52-75.4-85.26-162.12-111.64-249.87-37.22-124.03-61.49-251.9-72.27-380.92-6.22-74.09-5.82-155.5,40.36-213.76,47.6-59.99,133.01-78.48,208.77-67.16,75.75,11.33,145.17,47.36,214.59,79.68,69.46,32.31,143.27,61.89,219.82,58.84,101.81-4.04,196.18-68.54,247.98-156.3,33.18-56.19,50.01-120.58,52.94-185.96h17.86v235.11c-18.69,24.94-40,47.79-63.72,67.95-117.53,99.91-289.04,128.82-431.79,72.78-64.16-25.18-121.89-65.77-186.84-88.7-64.98-22.93-143.98-24.67-195.46,21.82-57.07,51.52-59.6,140.14-55.48,217.8,6.61,125.21,19.76,252.09,65.54,368.48,45.77,116.38,128.22,222.47,241.32,271.53,188.85,81.94,407.13-9.62,610.08,21.27,5.46,.83,10.92,1.74,16.35,2.81v74.57c-83.32-12.44-171.78,.04-256.01,14.45-116.78,19.96-239.27,42.37-351.45,4.36Z"/><path class="cls-5" d="M1980,3205.11v955.74c-5.43-1.07-10.89-1.98-16.35-2.81-202.95-30.89-421.23,60.67-610.08-21.27-113.1-49.06-195.55-155.15-241.32-271.53-45.78-116.39-58.93-243.27-65.54-368.48-4.12-77.66-1.59-166.28,55.48-217.8,51.48-46.49,130.48-44.75,195.46-21.82,64.95,22.93,122.68,63.52,186.84,88.7,142.75,56.04,314.26,27.13,431.79-72.78,23.72-20.16,45.03-43.01,63.72-67.95Z"/><path class="cls-1" d="M1269.66,4281.24c-188.38-99.56-287.26-312.05-342.66-517.81-49.42-183.47-72.94-386.46,9.43-557.69,25.42-52.91,63.04-103.28,116.94-126.52,73.89-31.8,159.9-5.71,230.87,32.19,70.92,37.9,137.09,87.95,215.11,107.44,102.36,25.62,217.52-8.91,288.92-86.61,40.98-44.55,66.56-102.25,74.48-162.24h99.4c-2.93,65.38-19.76,129.77-52.94,185.96-51.8,87.76-146.17,152.26-247.98,156.3-76.55,3.05-150.36-26.53-219.82-58.84-69.42-32.32-138.84-68.35-214.59-79.68-75.76-11.32-161.17,7.17-208.77,67.16-46.18,58.26-46.57,139.67-40.36,213.76,10.77,129.02,35.05,256.89,72.27,380.92,26.38,87.75,59.64,174.47,111.64,249.87,51.99,75.44,124.18,139.36,210.95,168.78,112.18,38.01,234.67,15.6,351.45-4.36,84.23-14.41,172.69-26.89,256.01-14.45v80.86c-55.88-2.85-113.85,4.52-169.45,11.72-182.48,23.64-378.22,39.25-540.89-46.76Z"/><path class="cls-6" d="M970.16,6230.07c-40.15-494.56-329.95-962.44-754.81-1218.69-26.49-15.96-54.21-31.84-72.63-56.67-18.45-24.83-24.91-61.54-6.3-86.21,22.97-30.41,68.51-27.91,106.25-22.73,165.05,22.73,348.8,35.48,482.49-63.95,80.63-60,130.92-154.4,152.9-252.45,21.98-98.05,17.9-200.14,6.06-299.93-28-236.37-98.57-466.93-114.64-704.41-16.08-237.48,32.31-495.63,203.98-660.52l-121.18,23.83c-160.3,177.77-187.07,440.04-159.59,677.84,27.48,237.8,100.74,469.89,109.81,709.08,3.88,102.08-4.75,207.26-48.39,299.65-43.64,92.39-127.31,170.36-228.25,185.96-84.98,13.15-169.92-17.78-255.46-27.05-85.5-9.26-187.98,14.22-221.6,93.42-23.28,54.89-4.44,120.15,31.4,167.79,35.84,47.63,86.41,81.57,134.84,116.3,149.77,107.36,289.32,231.7,396.59,381.51,107.32,149.8,181.33,326.58,192.34,510.52,3.41,56.59,1.43,115.87,26.61,166.68,25.19,50.76,90.05,87.75,139.55,60.07l.04-.04Z"/><path class="cls-6" d="M231.7,4649.91c74.57,19.84,143.91,63.08,221.05,65.14,82.29,2.18,160.82-45.3,209.84-111.43,49.03-66.13,71.52-148.74,79.08-230.71,28.71-311.69-143.31-610.63-144.9-923.67-1.03-208.61,75-412.59,188.58-587.55l-57.54,19.29c-108.39,138.32-168.42,311.02-185.37,485.93-16.91,174.91,7.76,352.12,56.11,521.06,31.05,108.5,71.95,214.75,89.26,326.26,17.31,111.52,8.55,232.22-53.18,326.66-33.66,51.48-87.64,95.24-149.17,95.24-53.5,0-100.74-32.12-149.65-53.78-88.39-39.2-191.07-45.1-283.38-16.31-92.31,28.79-173.41,92.03-223.82,174.56l10.46,47.04c87.52-118.44,250.27-175.55,392.59-137.69l.04-.04Z"/><path class="cls-6" d="M252.49,4471.79c47.16,18.14,92.27,46.73,142.8,47.88,64.47,1.46,123.2-44.47,152.62-101.85,29.42-57.38,34.21-124.23,31.56-188.66-8.51-206.47-86.88-404-109.53-609.36-27.4-248.53,30.06-505.66,160.7-718.86l-32.08-30.77c-96.39,32.47-169.41,116.11-208.53,210-39.08,93.89-47.99,197.56-47.76,299.25,.4,174.76,26.49,349.43,77.18,516.67,33.42,110.36,77.93,219.66,81.93,334.89,1.74,50.14-6.02,104.35-40.55,140.78-33.54,35.4-86.21,46.69-134.84,42.89-48.63-3.8-95.16-20.55-142.2-33.35-61.22-16.67-125.33-26.8-188.18-18.13-62.85,8.67-124.66,37.89-163.07,88.42-38.41,50.49-49.3,123.6-18.14,178.88,82.53-147.91,280.01-219.43,438.13-158.68h-.04Z"/><path class="cls-6" d="M-36.75,4256.8c62.09-3.68,124.03,9.66,183.39,28.24,40.67,12.75,81.26,28.11,123.83,30.29,42.57,2.18,88.74-11.52,113.45-46.25,23.64-33.27,22.85-77.58,18.73-118.17-14.3-141.05-138.6-466.25-129.49-819.05,8.59-332.32,218.16-469.41,218.16-469.41l-676.05-26.38-20.51,1490.59s106.48-66.18,168.58-69.82l-.08-.04Z"/><path class="cls-1" d="M-23.32,4170.67c45.38-3.32,90.68,8.75,134.09,25.58,29.74,11.53,59.4,25.47,90.53,27.45,31.12,1.98,64.9-10.46,82.96-41.94,17.3-30.14,16.71-70.29,13.7-107.08-10.45-127.79-101.38-422.41-94.72-742.02,6.26-301.08,159.55-425.31,159.55-425.31l-494.37-23.88-15.01,1350.4s77.85-59.95,123.27-63.28v.08Z"/><path class="cls-6" d="M-22.41,4097.73c37.22-3.05,74.37,8.04,109.97,23.44,24.39,10.58,48.75,23.37,74.25,25.15,25.54,1.78,53.22-9.59,68.03-38.45,14.18-27.6,13.7-64.43,11.25-98.17-8.59-117.14-83.12-387.29-77.66-680.29,5.15-276.05,130.84-389.9,130.84-389.9l-405.47-21.9-12.32,1238.05s63.87-54.96,101.1-58.01v.08Z"/><path class="cls-1" d="M35.96,4057.34c38.57-5.94,69.82,25.06,107.83,20.67,20.91-2.42,38.29-16.75,47.36-33.74,9.07-16.99,11.01-36.39,10.89-55.28-.63-87.4-42.06-170.08-66.01-254.99-43.52-154.24-37.03-317.51-5.9-473.34,38.65-193.76,107.63-307.57,107.63-307.57,0,0-252.29-9.31-306.78-11.64-38.45,350.1-31.44,720.24-34.57,1072.33-.2,22.69,1.7,49.18,22.53,62.29,18.73,11.8,44.51,7.09,65.42-.95,16.91-6.5,33.7-14.97,51.56-17.7l.04-.08Z"/><path class="cls-6" d="M24.59,4020.19c28.83-5.98,51.88,23.37,80.27,18.81,15.64-2.49,28.71-16.31,35.64-32.63,6.93-16.31,8.51-34.85,8.59-52.9,.24-83.48-29.94-162.13-47.08-243.03-31.17-146.99-24.95-302.94-.44-452.07,30.45-185.41,82.88-294.71,82.88-294.71,0,0-188.14-6.77-228.77-8.55-31.6,334.74-29.5,688.25-34.77,1024.53-.36,21.7,.87,46.97,16.32,59.32,13.9,11.13,33.15,6.38,48.83-1.46,12.67-6.34,25.26-14.58,38.61-17.35l-.08,.04Z"/><path class="cls-1" d="M1966.14,4162.71c-204.69-31.16-424.83,61.18-615.3-21.46-114.05-49.5-197.21-156.5-243.39-273.87-46.17-117.38-59.44-245.37-66.09-371.65-4.16-78.33-1.58-167.71,55.96-219.66,51.91-46.89,131.59-45.15,197.13-22.02,65.49,23.13,123.71,64.07,188.41,89.46,143.99,56.51,316.96,27.36,435.48-73.42,23.92-20.32,45.42-43.36,64.27-68.55,70.06-93.38,103.6-215.58,88.67-332.36l228.33,1491.37c-77.89-101.25-192.93-171.82-316.96-195.03-5.46-1.07-10.97-1.98-16.51-2.85v.04Z"/><path class="cls-6" d="M2204.29,4194.59l-129.49-1005.36c-36.11,125.21-159.55,210.07-287.26,235.97-127.71,25.9-259.89,3.09-387.2-24.71-36.52-7.96-73.42-16.39-110.73-14.93-37.34,1.43-75.83,14.02-100.66,41.9-24.12,27.09-32.35,64.55-37.58,100.46-11.76,80.83-12.75,164.03,6.46,243.39,19.2,79.35,59.63,154.87,121.45,208.21,81.89,70.65,193.4,96.94,301.39,103.48,107.95,6.53,216.46-4.32,324.33,3.13,107.91,7.44,219.22,35.75,299.29,108.46Z"/><path class="cls-1" d="M2022.41,4022.49c48.47,1.86,98.37,16.08,133.26,49.78l-103.8-731.02c-5.98,53.02-56.62,89.22-106.04,109.34-92.71,37.69-195.23,43.36-295.26,40.86-100.07-2.49-200.26-12.63-300.01-4.63-33.5,2.69-68.51,8.08-95.24,28.47-29.07,22.18-43.6,58.81-49.94,94.84-17.89,102.05,21.67,209.53,92.23,285.36,70.57,75.88,169.17,121.97,270.87,141.69,101.73,19.72,206.83,14.61,309.35-.4,48-7,96.07-16.19,144.54-14.33l.04,.04Z"/><path class="cls-6" d="M2113.45,3942.3l-58.05-500.78c-55.28,51.87-102.84,65.42-145.69,73.26-98.6,18.05-199.19,25.34-299.38,21.66-49.02-1.82-98.36-6.22-146.95,.71-48.55,6.93-97.42,26.69-128.27,64.83-34.25,42.29-41.38,102.76-25.18,154.67,16.19,51.96,53.54,95.56,98.09,126.8,44.55,31.25,96.15,51.05,148.42,66.17,169.37,49.03,352.04,51.21,557.09-7.36l-.08,.04Z"/><path class="cls-1" d="M2077.14,3897.83l-38.29-376.4c-171.43,46.53-311.3,67-451.88,74.65-38.77,2.09-78.29,3.36-114.92,16.15-36.67,12.79-70.8,39.44-81.85,76.67-10.77,36.19,2.33,76.39,26.29,105.53,24,29.15,57.54,48.79,91.79,64.63,164.66,76.03,354.42,75,568.9,38.77h-.04Z"/><path class="cls-6" d="M2055.28,3853.04l-32.51-283.54c-150.68,38.38-269.36,53.82-388.68,59.56-32.9,1.59-66.41,2.54-97.53,12.2-31.09,9.66-60.07,29.74-69.46,57.74-9.15,27.24,1.98,57.54,22.34,79.47,20.35,21.94,48.82,36.75,77.89,48.67,139.71,57.26,300.72,56.47,487.95,25.86v.04Z"/><path class="cls-1" d="M2041.74,3831.81l-26.42-230.51c-128.97,33.74-225.44,46.3-322.42,50.97-26.73,1.31-54.01,2.06-79.28,9.9-25.3,7.84-48.83,24.15-56.47,46.96-7.44,22.14,1.62,46.77,18.14,64.63,16.55,17.86,39.68,29.86,63.32,39.56,113.57,46.57,244.45,45.94,403.13,18.49Z"/><path class="cls-1" d="M1175.68,2970h617.8c-.67,10.41-2.21,20.79-4.63,30.97-16.47,69.1-72.86,127.19-141.45,145.73-164.78,44.43-312.6-125.5-471.72-176.7Z"/><path class="cls-6" d="M1120.32,5940h-123.03c-39.32-331.41-224.61-645.2-501.02-833.46-42.05-28.63-92.51-73.58-71.52-119.95,23.13-51.16,97.69-34.1,153.21-25.58,128.07,19.6,256.93-60.03,324.72-170.44,67.79-110.4,83.6-245.48,77.81-374.89-17.19-384.56-208.53-757.08-157.81-1138.66,16.71-125.37,77.3-263.22,191.35-307.02h161.64c159.12,51.2,306.94,221.13,471.72,176.7,68.59-18.54,124.98-76.63,141.45-145.73,2.42-10.18,3.96-20.56,4.63-30.97h69.26c-7.92,59.99-33.5,117.69-74.48,162.24-71.4,77.7-186.56,112.23-288.92,86.61-78.02-19.49-144.19-69.54-215.11-107.44-70.97-37.9-156.98-63.99-230.87-32.19-53.9,23.24-91.52,73.61-116.94,126.52-82.37,171.23-58.85,374.22-9.43,557.69,55.4,205.76,154.28,418.25,342.66,517.81,162.67,86.01,358.41,70.4,540.89,46.76,55.6-7.2,113.57-14.57,169.45-11.72v86.88c-17.31-4.83-35.01-8.31-52.87-10.37-128.18-14.89-254.7,38.41-383.72,41.02-119.16,2.38-238.63-40.51-329.04-118.12-24.87-21.35-48.11-45.54-77.53-60-29.43-14.45-67.8-16.91-92.79,4.32-29.58,25.11-28.63,70.25-24.75,108.86,13.07,129.49,31.53,261,7.05,388.83-24.47,127.83-101.61,254.27-224.09,298.15-22.49,8.08-47.76,14.42-61.85,33.66-28.55,39.05,9.94,90.72,43.88,125.22,190.67,193.72,308.4,455.2,336.04,725.27Z"/></g></g></g></g></svg>