<svg width="67" height="61" viewBox="0 0 67 61" fill="none" xmlns="http://www.w3.org/2000/svg">
<path d="M32.9982 30.0677V57.0893M32.9982 30.0677L25.4922 36.0725M32.9982 30.0677L40.5042 36.0725M12.0835 21.4117C9.24387 22.1263 6.76289 23.8532 5.10669 26.2679C3.4505 28.6827 2.73308 31.6192 3.08924 34.5256C3.4454 37.432 4.85062 40.1083 7.04087 42.0518C9.23113 43.9952 12.0557 45.0719 14.9838 45.0797H17.9862" stroke="#6330CF" stroke-width="6" stroke-linecap="round" stroke-linejoin="round"/>
<path d="M44.4989 15.47C43.4727 11.4065 40.9398 7.88516 37.4136 5.6199C33.8874 3.35463 29.6318 2.51491 25.5095 3.27096C21.3871 4.027 17.7065 6.32224 15.2137 9.69139C12.7209 13.0605 11.6024 17.2515 12.085 21.4147C12.085 21.4147 12.5444 24.0629 13.4841 25.5641" stroke="#6330CF" stroke-width="6" stroke-linecap="round" stroke-linejoin="round"/>
<path d="M48.0094 45.0798C50.1292 45.0783 52.2247 44.628 54.1579 43.7583C56.0911 42.8886 57.8182 41.6194 59.2256 40.0342C60.6329 38.4489 61.6885 36.5836 62.323 34.561C62.9575 32.5383 63.1564 30.4043 62.9066 28.2992C62.6569 26.1942 61.9642 24.1659 60.8741 22.3478C59.7839 20.5298 58.3212 18.9632 56.582 17.7513C54.8428 16.5393 52.8666 15.7095 50.7836 15.3163C48.7006 14.9231 46.5579 14.9755 44.4966 15.4701L40.5034 16.557" stroke="#6330CF" stroke-width="6" stroke-linecap="round" stroke-linejoin="round"/>
</svg>
