<?xml version="1.0" encoding="utf-8"?>
<!-- Generator: Adobe Illustrator 24.3.0, SVG Export Plug-In . SVG Version: 6.00 Build 0)  -->
<svg version="1.1" id="Layer_2_1_" xmlns="http://www.w3.org/2000/svg" xmlns:xlink="http://www.w3.org/1999/xlink" x="0px" y="0px"
	 viewBox="0 0 1528 401.2" style="enable-background:new 0 0 1528 401.2;" xml:space="preserve">
<style type="text/css">
	.st0{fill:#FB5607;}
	.st1{fill:#FFFFFF;}
	.st2{fill-rule:evenodd;clip-rule:evenodd;fill:#FB5607;}
</style>
<g>
	<path class="st0" d="M279,113.5h1.9v9.3H279V119h-4.1v3.9h-1.9v-9.3h1.9v3.7h4.1V113.5z"/>
	<path class="st0" d="M288.3,122.9l-2.4-3.4h-1.1v3.4h-1.9v-9.3h4c1,0,1.8,0.3,2.3,0.8c0.6,0.5,0.9,1.3,0.9,2.2
		c0,0.7-0.2,1.4-0.5,1.8c-0.4,0.5-0.9,0.8-1.5,1l2.6,3.5H288.3z M284.8,115.3v2.5h1.9c0.5,0,0.9-0.1,1.1-0.3
		c0.2-0.2,0.4-0.5,0.4-0.9c0-0.4-0.1-0.7-0.4-0.9c-0.2-0.2-0.6-0.3-1.1-0.3H284.8z"/>
	<path class="st1" d="M27.9,85.5h8.8v37.4h-7.6V96.1l-10.4,15.7H18L7.6,96.1v26.8H0V85.5h8.8l9.6,14.4L27.9,85.5z"/>
	<path class="st1" d="M44.8,122.9V85.5h7.6v37.4H44.8z"/>
	<path class="st1" d="M91.7,122.9h-9.6l-14-17.5v17.5h-7.6V85.5h7.6v16.5l13.3-16.5h9.4l-14.7,18.1L91.7,122.9z"/>
	<path class="st1" d="M122.4,92.8h-17.5v7.5h16v7.3h-16v8.1h17.5v7.3H97.3V85.5h25.1V92.8z"/>
	<path class="st1" d="M178.2,122.9h-9.7l-2.3-2.3c-3.1,2-6.6,3-10.6,3c-3.8,0-7-0.9-9.5-2.7c-2.5-1.8-3.7-4.5-3.7-8
		c0-2.3,0.6-4.2,1.8-5.7c1.2-1.5,3.1-3,5.7-4.5c-2.3-3-3.5-5.7-3.5-8c0-3.2,1.1-5.6,3.3-7.3c2.2-1.7,4.8-2.5,7.8-2.5
		s5.5,0.9,7.6,2.6c2.1,1.7,3.1,4.1,3.1,7c0,2.3-0.7,4.3-2,5.8c-1.3,1.5-3.2,3-5.6,4.4c1,1.1,2.7,2.9,5.2,5.4
		c0.6-1.5,1.1-2.9,1.3-4.4h7.7c-0.3,3.7-1.5,7-3.6,10C172.2,116.6,174.5,119,178.2,122.9z M157.4,91.8c-2.2,0-3.3,1.1-3.3,3.3
		c0,1.2,0.6,2.6,1.8,4.2c1.7-1,2.9-1.8,3.5-2.4c0.7-0.6,1-1.4,1-2.3c0-0.8-0.3-1.5-0.8-2C159.1,92.1,158.3,91.8,157.4,91.8z
		 M156.1,116.6c1.9,0,3.6-0.4,5.1-1.2c-2.3-2.3-4.6-4.8-6.8-7.3c-1.6,0.9-2.7,1.6-3.4,2.2c-0.6,0.6-1,1.4-1,2.2
		c0,1.2,0.5,2.2,1.5,2.9C152.7,116.2,154.2,116.6,156.1,116.6z"/>
	<path class="st1" d="M227.9,85.5h8.8v37.4h-7.6V96.1l-10.4,15.7H218l-10.4-15.7v26.8H200V85.5h8.8l9.6,14.4L227.9,85.5z"/>
	<path class="st1" d="M269.9,92.8h-17.5v7.5h16v7.3h-16v8.1h17.5v7.3h-25.1V85.5h25.1V92.8z"/>
	<path class="st0" d="M542,113.5h1.9v9.3H542V119h-4.1v3.9h-1.9v-9.3h1.9v3.7h4.1V113.5z"/>
	<path class="st0" d="M551.3,122.9l-2.4-3.4h-1.1v3.4h-1.9v-9.3h4c1,0,1.8,0.3,2.3,0.8c0.6,0.5,0.9,1.3,0.9,2.2
		c0,0.7-0.2,1.4-0.5,1.8c-0.4,0.5-0.9,0.8-1.5,1l2.6,3.5H551.3z M547.8,115.3v2.5h1.9c0.5,0,0.9-0.1,1.1-0.3
		c0.2-0.2,0.4-0.5,0.4-0.9c0-0.4-0.1-0.7-0.4-0.9c-0.2-0.2-0.6-0.3-1.1-0.3H547.8z"/>
	<path class="st1" d="M348,85.5c5.4,0,10,1.8,13.6,5.3c3.7,3.6,5.5,8,5.5,13.3c0,5.3-1.8,9.8-5.5,13.3c-3.6,3.6-8.2,5.3-13.6,5.3
		h-13.5V85.5H348z M348,115.6c3.4,0,6.1-1.1,8.3-3.2c2.1-2.1,3.2-4.9,3.2-8.2c0-3.3-1.1-6.1-3.2-8.2c-2.1-2.1-4.9-3.2-8.3-3.2h-5.9
		v22.8H348z"/>
	<path class="st1" d="M398.4,122.9l-3.1-8.8h-15.1l-3.2,8.8h-8.1l14-37.4h9.7l14,37.4H398.4z M382.8,106.8h9.8l-4.9-13.6
		L382.8,106.8z"/>
	<path class="st1" d="M425.6,85.5c5.4,0,10,1.8,13.6,5.3c3.7,3.6,5.5,8,5.5,13.3c0,5.3-1.8,9.8-5.5,13.3c-3.6,3.6-8.2,5.3-13.6,5.3
		h-13.5V85.5H425.6z M425.6,115.6c3.4,0,6.1-1.1,8.3-3.2c2.1-2.1,3.2-4.9,3.2-8.2c0-3.3-1.1-6.1-3.2-8.2c-2.1-2.1-4.9-3.2-8.3-3.2
		h-5.9v22.8H425.6z"/>
	<path class="st1" d="M455.2,90.4c3.7-3.7,8.4-5.6,13.9-5.6c5.5,0,10.1,1.9,13.9,5.6c3.7,3.7,5.6,8.3,5.6,13.8
		c0,5.5-1.9,10.1-5.6,13.8c-3.7,3.7-8.4,5.6-13.9,5.6c-5.5,0-10.1-1.8-13.9-5.6c-3.7-3.7-5.6-8.3-5.6-13.8
		C449.6,98.7,451.5,94.1,455.2,90.4z M477.4,95.5c-2.2-2.3-5-3.4-8.4-3.4c-3.4,0-6.2,1.1-8.4,3.4c-2.2,2.3-3.3,5.2-3.3,8.6
		s1.1,6.4,3.3,8.6c2.2,2.3,5.1,3.4,8.4,3.4c3.4,0,6.2-1.1,8.4-3.4c2.2-2.3,3.4-5.2,3.4-8.6S479.7,97.8,477.4,95.5z"/>
	<path class="st1" d="M499,90.4c3.7-3.7,8.4-5.6,13.9-5.6c5.5,0,10.1,1.9,13.9,5.6c3.7,3.7,5.6,8.3,5.6,13.8
		c0,5.5-1.9,10.1-5.6,13.8c-3.7,3.7-8.4,5.6-13.9,5.6c-5.5,0-10.1-1.8-13.9-5.6c-3.7-3.7-5.6-8.3-5.6-13.8
		C493.4,98.7,495.3,94.1,499,90.4z M521.2,95.5c-2.2-2.3-5-3.4-8.4-3.4c-3.4,0-6.2,1.1-8.4,3.4c-2.2,2.3-3.3,5.2-3.3,8.6
		s1.1,6.4,3.3,8.6c2.2,2.3,5.1,3.4,8.4,3.4c3.4,0,6.2-1.1,8.4-3.4c2.2-2.3,3.4-5.2,3.4-8.6S523.5,97.8,521.2,95.5z"/>
	<path class="st0" d="M733.9,113.5c1.4,0,2.5,0.4,3.4,1.3c0.9,0.9,1.4,2,1.4,3.3c0,1.3-0.5,2.4-1.4,3.3c-0.9,0.9-2,1.3-3.4,1.3h-3.4
		v-9.3H733.9z M733.9,121.1c0.8,0,1.5-0.3,2.1-0.8c0.5-0.5,0.8-1.2,0.8-2.1c0-0.8-0.3-1.5-0.8-2.1c-0.5-0.5-1.2-0.8-2.1-0.8h-1.5
		v5.7H733.9z"/>
	<path class="st0" d="M746.6,115.3h-4.4v1.9h4v1.8h-4v2h4.4v1.8h-6.3v-9.3h6.3V115.3z"/>
	<path class="st1" d="M619,122.9l-9.7-13.5h-4.2v13.5h-7.6V85.5h16.1c4,0,7.1,1.1,9.3,3.3c2.3,2.2,3.4,5.1,3.4,8.9
		c0,3-0.7,5.4-2.2,7.3c-1.5,1.9-3.5,3.2-6.2,3.8l10.5,14H619z M605.1,92.8v10h7.6c2,0,3.4-0.4,4.4-1.3c1-0.9,1.5-2.1,1.5-3.7
		c0-1.6-0.5-2.8-1.5-3.7c-1-0.9-2.5-1.3-4.4-1.3H605.1z"/>
	<path class="st1" d="M647.4,85.5c5.4,0,10,1.8,13.6,5.3c3.7,3.6,5.5,8,5.5,13.3c0,5.3-1.8,9.8-5.5,13.3c-3.6,3.6-8.2,5.3-13.6,5.3
		h-13.5V85.5H647.4z M647.4,115.6c3.4,0,6.1-1.1,8.3-3.2c2.1-2.1,3.2-4.9,3.2-8.2c0-3.3-1.1-6.1-3.2-8.2c-2.1-2.1-4.9-3.2-8.3-3.2
		h-5.9v22.8H647.4z"/>
	<path class="st1" d="M680.7,115.6h16v7.3H673V85.5h7.6V115.6z"/>
	<path class="st1" d="M727.3,92.8h-17.5v7.8h16v7.3h-16v15h-7.6V85.5h25.1V92.8z"/>
	<path class="st0" d="M985,113.5h1.9v9.3h-2.2l-4.1-6.5l0.2,2.6v3.9H979v-9.3h2.2l4.1,6.5l-0.2-2.6V113.5z"/>
	<path class="st0" d="M990.8,121.1h4v1.8h-5.9v-9.3h1.9V121.1z"/>
	<path class="st1" d="M805.9,102.6h20.4v20.3h-6.5v-6.3c-0.9,2.1-2.5,3.7-4.7,5c-2.2,1.3-4.8,1.9-7.9,1.9c-5.3,0-9.7-1.8-13.2-5.4
		c-3.6-3.7-5.3-8.3-5.3-13.8c0-5.6,1.8-10.2,5.4-13.9c3.7-3.7,8.3-5.5,13.9-5.5c4.4,0,8.2,1.2,11.5,3.6c3.3,2.4,5.5,5.5,6.6,9.4
		h-8.2c-0.9-1.8-2.2-3.2-3.9-4.2c-1.7-1-3.7-1.5-6-1.5c-3.5,0-6.2,1.1-8.4,3.4c-2.1,2.3-3.2,5.2-3.2,8.8c0,3.5,1,6.4,3,8.7
		c2.1,2.3,4.9,3.4,8.4,3.4c2.6,0,4.9-0.7,6.8-2c1.9-1.3,3.2-3.1,3.8-5.5h-12.5V102.6z"/>
	<path class="st1" d="M855.7,122.9l-9.7-13.4h-4.2v13.4h-7.6V85.5h16.1c4,0,7.1,1.1,9.3,3.3c2.3,2.2,3.4,5.1,3.4,8.9
		c0,3-0.7,5.4-2.2,7.3c-1.5,1.9-3.5,3.2-6.2,3.8l10.5,14H855.7z M841.8,92.8v10h7.6c2,0,3.4-0.4,4.4-1.3c1-0.9,1.5-2.1,1.5-3.7
		c0-1.6-0.5-2.8-1.5-3.7c-1-0.9-2.5-1.3-4.4-1.3H841.8z"/>
	<path class="st1" d="M869.7,122.9V85.5h7.6v37.4H869.7z"/>
	<path class="st1" d="M913.1,85.5h8.8v37.4h-7.6V96.1l-10.4,15.7h-0.7l-10.4-15.7v26.8h-7.6V85.5h8.8l9.6,14.4L913.1,85.5z"/>
	<path class="st1" d="M929.9,122.9V85.5h7.6v37.4H929.9z"/>
	<path class="st1" d="M976.6,122.9h-9.1l-7.7-12.9l-7.6,12.9h-9.1l12.1-19.4l-11.5-18h9.1l7.2,12l7.3-12h9.1l-11.7,18.6L976.6,122.9
		z"/>
	<path class="st0" d="M1237.5,113.5h1.9v9.3h-2.2l-4.1-6.5l0.2,2.6v3.9h-1.9v-9.3h2.2l4.1,6.5l-0.2-2.6V113.5z"/>
	<path class="st0" d="M1243.2,121.1h4v1.8h-5.9v-9.3h1.9V121.1z"/>
	<path class="st1" d="M1061.4,102.8c2,0.6,3.4,1.8,4.4,3.5c1,1.6,1.5,3.6,1.5,5.9c0,3.4-1.1,6-3.4,8c-2.2,1.9-5.3,2.8-9.2,2.8h-16.5
		V85.5h16.4c3.5,0,6.3,0.8,8.3,2.5c2.1,1.7,3.1,4.1,3.1,7.2C1066.1,98.7,1064.5,101.2,1061.4,102.8z M1058.4,96.5
		c0-1.4-0.4-2.3-1.2-2.9c-0.8-0.6-1.9-0.9-3.6-0.9h-7.7v7.5h7.9C1056.9,100.3,1058.4,99,1058.4,96.5z M1054.6,115.6
		c1.8,0,3.2-0.4,3.9-1.1c0.8-0.7,1.1-1.7,1.1-3.1c0-1.4-0.4-2.5-1.1-3.1c-0.7-0.7-2.1-1-3.9-1h-8.6v8.3H1054.6z"/>
	<path class="st1" d="M1099.2,122.9l-3.1-8.8h-15.1l-3.2,8.8h-8.1l14-37.4h9.7l14,37.4H1099.2z M1083.6,106.8h9.8l-4.9-13.6
		L1083.6,106.8z"/>
	<path class="st1" d="M1123.7,100.1c2.7,0.6,4.9,1.1,6.6,1.7c1.7,0.6,3.2,1.3,4.6,2.2c1.4,0.9,2.4,1.9,2.9,3.2
		c0.6,1.3,0.9,2.8,0.9,4.6c0,2.1-0.5,3.9-1.3,5.5c-0.8,1.6-2,2.8-3.5,3.6c-1.4,0.9-2.9,1.5-4.5,1.9c-1.6,0.4-3.2,0.6-4.9,0.6
		c-5.1,0-9-1.2-11.6-3.6c-2.6-2.4-4.2-5.4-4.6-9.1h7.7c0.5,1.9,1.4,3.3,2.7,4.2c1.3,0.9,3.2,1.3,5.8,1.3c2.1,0,3.8-0.4,4.8-1.1
		c1.1-0.7,1.7-1.8,1.7-3.1c0-0.9-0.3-1.5-1-2c-0.6-0.5-1.3-0.9-2.2-1.2c-0.9-0.2-2.5-0.6-4.8-1.1c-0.2,0-0.3-0.1-0.4-0.1
		c-0.1,0-0.2-0.1-0.4-0.1c-0.1,0-0.3-0.1-0.4-0.1c-1.9-0.4-3.5-0.8-4.9-1.3c-1.3-0.5-2.6-1.1-3.9-1.9c-1.3-0.8-2.3-1.9-2.9-3.1
		c-0.6-1.3-1-2.8-1-4.6c0-3.7,1.4-6.6,4.2-8.6c2.8-2.1,6.1-3.1,9.9-3.1c4.7,0,8.3,1.1,10.7,3.3c2.4,2.1,3.9,4.9,4.4,8.3h-7.7
		c-0.9-3-3.3-4.5-7.2-4.5c-2.2,0-3.8,0.4-4.9,1.2c-1.1,0.8-1.6,1.8-1.6,3.1c0,1,0.4,1.8,1.3,2.2C1119.2,99,1121,99.5,1123.7,100.1z"
		/>
	<path class="st1" d="M1144.8,122.9V85.5h7.6v37.4H1144.8z"/>
	<path class="st1" d="M1178.5,123.5c-5.5,0-10.2-1.8-13.8-5.5c-3.7-3.7-5.5-8.3-5.5-13.8c0-5.5,1.8-10.1,5.5-13.8
		c3.7-3.7,8.3-5.6,13.8-5.6c4.4,0,8.2,1.2,11.5,3.7c3.3,2.5,5.5,5.7,6.6,9.7h-8.2c-0.9-2-2.2-3.5-3.9-4.5c-1.7-1.1-3.7-1.7-6-1.7
		c-3.4,0-6.2,1.1-8.4,3.4c-2.1,2.2-3.2,5.1-3.2,8.6c0,3.5,1.1,6.4,3.2,8.7c2.2,2.2,5,3.4,8.4,3.4c2.3,0,4.3-0.5,6-1.6
		c1.7-1.1,3.1-2.6,3.9-4.6h8.2c-1.1,4-3.3,7.3-6.6,9.8C1186.7,122.3,1182.9,123.5,1178.5,123.5z"/>
	<path class="st1" d="M1210.1,115.6h18.3v7.3h-27.9v-7.3l18.1-22.8h-17.3v-7.3h26.8l0,7.3L1210.1,115.6z"/>
	<path class="st0" d="M1518.2,113.5h1.9v9.3h-2.2l-4.1-6.5l0.2,2.6v3.9h-1.9v-9.3h2.2l4.1,6.5l-0.2-2.6V113.5z"/>
	<path class="st0" d="M1524,121.1h4v1.8h-5.9v-9.3h1.9V121.1z"/>
	<path class="st1" d="M1314.8,85.5h7.6v37.4h-8.8l-16.2-26.2l0.7,10.5v15.6h-7.6V85.5h8.8l16.3,26.2l-0.7-10.5V85.5z"/>
	<path class="st1" d="M1334.2,90.4c3.7-3.7,8.4-5.6,13.9-5.6c5.5,0,10.2,1.9,13.9,5.6c3.7,3.7,5.6,8.3,5.6,13.8
		c0,5.5-1.9,10.1-5.6,13.8c-3.7,3.7-8.4,5.6-13.9,5.6c-5.5,0-10.1-1.8-13.9-5.6c-3.7-3.7-5.5-8.3-5.5-13.8
		C1328.7,98.7,1330.5,94.1,1334.2,90.4z M1356.5,95.5c-2.2-2.3-5-3.4-8.4-3.4s-6.2,1.1-8.4,3.4c-2.2,2.3-3.3,5.2-3.3,8.6
		s1.1,6.4,3.3,8.6c2.2,2.3,5,3.4,8.4,3.4s6.2-1.1,8.4-3.4c2.2-2.3,3.4-5.2,3.4-8.6S1358.7,97.8,1356.5,95.5z"/>
	<path class="st1" d="M1400.3,85.5v7.3h-10.8v30.1h-7.6V92.8h-10.7v-7.3H1400.3z"/>
	<path class="st1" d="M1428.9,85.5h7.7v22.3c0,5.1-1.4,9-4.3,11.7c-2.8,2.7-6.6,4.1-11.2,4.1c-4.6,0-8.3-1.4-11.2-4.1
		c-2.8-2.7-4.3-6.6-4.3-11.7V85.5h7.7v21.8c0,5.9,2.6,8.9,7.7,8.9c5.1,0,7.7-3,7.7-8.9V85.5z"/>
	<path class="st1" d="M1468.5,85.5h7.6v37.4h-8.8l-16.2-26.2l0.7,10.5v15.6h-7.6V85.5h8.8l16.3,26.2l-0.7-10.5V85.5z"/>
	<path class="st1" d="M1509.1,92.8h-17.4v7.5h16v7.3h-16v8.1h17.4v7.3H1484V85.5h25.1V92.8z"/>
	<circle class="st1" cx="312.6" cy="104.2" r="5.9"/>
	<circle class="st1" cx="575.6" cy="104.2" r="5.9"/>
	<path class="st0" d="M1016.5,92.1l6.9,12h-13.8L1016.5,92.1z"/>
	<path class="st0" d="M1016.5,116l-6.9-12h13.8L1016.5,116z"/>
	<path class="st0" d="M575.6,92.1l6.9,12h-13.8L575.6,92.1z"/>
	<path class="st0" d="M575.6,116l-6.9-12h13.8L575.6,116z"/>
	<path class="st0" d="M312.6,92.1l6.9,12h-13.8L312.6,92.1z"/>
	<path class="st0" d="M312.6,116l-6.9-12h13.8L312.6,116z"/>
	<circle class="st1" cx="767.6" cy="104.2" r="5.9"/>
	<path class="st0" d="M767.6,92.1l6.9,12h-13.8L767.6,92.1z"/>
	<path class="st0" d="M767.6,116l-6.9-12h13.8L767.6,116z"/>
	<circle class="st1" cx="1016.5" cy="104.2" r="5.9"/>
	<path class="st0" d="M1016.5,92.1l6.9,12h-13.8L1016.5,92.1z"/>
	<path class="st0" d="M1016.5,116l-6.9-12h13.8L1016.5,116z"/>
	<circle class="st1" cx="1268.8" cy="104.2" r="5.9"/>
	<path class="st0" d="M1268.8,92.2l6.9,12h-13.8L1268.8,92.2z"/>
	<path class="st0" d="M1268.8,116.2l-6.9-12h13.8L1268.8,116.2z"/>
	<path class="st0" d="M309.2,166.4l6.9,12h-13.8L309.2,166.4z"/>
	<path class="st0" d="M309.2,190.3l-6.9-12h13.8L309.2,190.3z"/>
	<path class="st0" d="M647.1,166.4l6.9,12h-13.8L647.1,166.4z"/>
	<path class="st0" d="M647.1,190.3l-6.9-12H654L647.1,190.3z"/>
	<path class="st0" d="M1100.7,166.4l6.9,12h-13.8L1100.7,166.4z"/>
	<path class="st0" d="M1100.7,190.3l-6.9-12h13.8L1100.7,190.3z"/>
	<path class="st0" d="M1259.6,166.4l6.9,12h-13.8L1259.6,166.4z"/>
	<path class="st0" d="M1259.6,190.3l-6.9-12h13.8L1259.6,190.3z"/>
	<path class="st1" d="M12.7,160.1c5.3,0,9.8,1.7,13.3,5.1c3.5,3.4,5.3,7.8,5.3,13c0,5.2-1.8,9.6-5.4,13c-3.5,3.4-7.9,5.1-13.2,5.1H0
		v-36.4H12.7z M12.8,190.9c3.7,0,6.7-1.2,9.1-3.5c2.4-2.4,3.6-5.4,3.6-9.1c0-3.7-1.2-6.7-3.6-9c-2.4-2.4-5.4-3.5-9.1-3.5H5.9v25.1
		H12.8z"/>
	<path class="st1" d="M38.3,196.5v-36.4h5.9v36.4H38.3z"/>
	<path class="st1" d="M65.5,175.1c2.6,0.6,4.6,1.1,6.1,1.6c1.6,0.5,3,1.1,4.4,2c1.4,0.8,2.3,1.8,2.9,3c0.6,1.2,0.9,2.6,0.9,4.4
		c0,3.7-1.4,6.4-4.1,8.3c-2.7,1.8-5.8,2.8-9.5,2.8c-4.7,0-8.4-1.1-11-3.3c-2.6-2.3-4.1-5.1-4.7-8.6h5.9c0.6,2.1,1.6,3.8,3.1,4.8
		c1.6,1,3.7,1.6,6.5,1.6c2.5,0,4.3-0.5,5.7-1.4c1.4-0.9,2-2.3,2-3.9c0-1.5-0.6-2.6-1.9-3.2c-1.2-0.6-3.7-1.3-7.3-2.1
		c-0.2,0-0.4-0.1-0.5-0.1c-2-0.4-3.7-0.9-5-1.4c-1.3-0.4-2.6-1.1-3.9-1.8c-1.2-0.8-2.2-1.7-2.8-2.9c-0.6-1.2-0.9-2.6-0.9-4.3
		c0-3.4,1.3-6.1,3.9-8.1c2.6-2,5.7-3,9.5-3c4.3,0,7.6,1,10,2.9c2.4,1.9,3.9,4.5,4.4,7.6h-5.9c-1.1-3.3-3.9-5-8.4-5
		c-2.4,0-4.2,0.5-5.6,1.5c-1.3,1-2,2.3-2,3.9c0,1.2,0.6,2.2,1.7,2.8C60.2,173.8,62.4,174.4,65.5,175.1z"/>
	<path class="st1" d="M110.7,160.1h5.9v36.4h-5.9v-15.9H92v15.9h-5.9v-36.4H92V175h18.7V160.1z"/>
	<path class="st1" d="M153.3,160.1c5.3,0,9.8,1.7,13.3,5.1c3.5,3.4,5.3,7.8,5.3,13c0,5.2-1.8,9.6-5.4,13c-3.5,3.4-7.9,5.1-13.2,5.1
		h-12.7v-36.4H153.3z M153.4,190.9c3.7,0,6.7-1.2,9.1-3.5c2.4-2.4,3.6-5.4,3.6-9.1c0-3.7-1.2-6.7-3.6-9s-5.4-3.5-9.1-3.5h-6.9v25.1
		H153.4z"/>
	<path class="st1" d="M203.5,196.5l-3.7-9.8H184l-3.7,9.8h-6.2l14.1-36.4h7.5l14.1,36.4H203.5z M186.2,181.2h11.5l-5.8-15.2
		L186.2,181.2z"/>
	<path class="st1" d="M226.2,175.1c2.6,0.6,4.6,1.1,6.1,1.6c1.6,0.5,3,1.1,4.4,2c1.4,0.8,2.3,1.8,2.9,3c0.6,1.2,0.9,2.6,0.9,4.4
		c0,3.7-1.4,6.4-4.1,8.3c-2.7,1.8-5.8,2.8-9.5,2.8c-4.7,0-8.4-1.1-11-3.3c-2.6-2.3-4.1-5.1-4.7-8.6h5.9c0.6,2.1,1.6,3.8,3.1,4.8
		c1.6,1,3.7,1.6,6.5,1.6c2.5,0,4.3-0.5,5.7-1.4c1.4-0.9,2-2.3,2-3.9c0-1.5-0.6-2.6-1.9-3.2c-1.2-0.6-3.7-1.3-7.3-2.1
		c-0.2,0-0.4-0.1-0.5-0.1c-2-0.4-3.7-0.9-5-1.4c-1.3-0.4-2.6-1.1-3.9-1.8c-1.2-0.8-2.2-1.7-2.8-2.9c-0.6-1.2-0.9-2.6-0.9-4.3
		c0-3.4,1.3-6.1,3.9-8.1c2.6-2,5.7-3,9.5-3c4.3,0,7.6,1,10,2.9c2.4,1.9,3.9,4.5,4.4,7.6h-5.9c-1.1-3.3-3.9-5-8.4-5
		c-2.4,0-4.2,0.5-5.6,1.5c-1.3,1-2,2.3-2,3.9c0,1.2,0.6,2.2,1.7,2.8C220.9,173.8,223.1,174.4,226.2,175.1z"/>
	<path class="st1" d="M271.3,160.1h5.9v36.4h-5.9v-15.9h-18.7v15.9h-5.9v-36.4h5.9V175h18.7V160.1z"/>
	<path class="st1" d="M359.9,197.1c-5.4,0-9.9-1.8-13.5-5.4c-3.5-3.6-5.3-8.1-5.3-13.5s1.8-9.9,5.3-13.5c3.6-3.6,8.1-5.4,13.5-5.4
		c4.2,0,7.8,1.2,11,3.5c3.2,2.3,5.3,5.3,6.4,9.1h-6.3c-1-2.1-2.4-3.8-4.4-5.1c-2-1.3-4.2-1.9-6.8-1.9c-3.7,0-6.8,1.2-9.2,3.7
		c-2.4,2.5-3.6,5.6-3.6,9.5c0,3.8,1.2,7,3.6,9.5c2.4,2.5,5.5,3.7,9.2,3.7c2.5,0,4.8-0.6,6.8-1.9c2-1.3,3.4-3,4.4-5.1h6.3
		c-1.1,3.8-3.3,6.9-6.4,9.2C367.7,196,364.1,197.1,359.9,197.1z"/>
	<path class="st1" d="M387.6,164.9c3.6-3.6,8.1-5.4,13.5-5.4c5.3,0,9.8,1.8,13.4,5.4c3.6,3.6,5.4,8.1,5.5,13.4
		c0,5.3-1.9,9.8-5.5,13.4c-3.6,3.6-8.1,5.4-13.4,5.4c-5.3,0-9.8-1.8-13.5-5.4c-3.6-3.6-5.4-8.1-5.4-13.4
		C382.2,173,384,168.5,387.6,164.9z M401,165.1c-3.7,0-6.8,1.3-9.2,3.8c-2.5,2.5-3.7,5.6-3.7,9.4c0,3.8,1.2,6.9,3.7,9.5
		c2.5,2.5,5.5,3.7,9.2,3.7c3.7,0,6.7-1.2,9.2-3.7c2.5-2.5,3.7-5.7,3.7-9.5c0-3.8-1.2-6.9-3.7-9.4C407.8,166.4,404.7,165.1,401,165.1
		z"/>
	<path class="st1" d="M439.6,175.1c2.6,0.6,4.6,1.1,6.1,1.6c1.6,0.5,3,1.1,4.4,2c1.4,0.8,2.3,1.8,2.9,3c0.6,1.2,0.9,2.6,0.9,4.4
		c0,3.7-1.4,6.4-4.1,8.3c-2.7,1.8-5.8,2.8-9.5,2.8c-4.7,0-8.4-1.1-11-3.3c-2.6-2.3-4.1-5.1-4.7-8.6h5.9c0.6,2.1,1.6,3.8,3.1,4.8
		c1.6,1,3.7,1.6,6.5,1.6c2.5,0,4.3-0.5,5.7-1.4c1.4-0.9,2-2.3,2-3.9c0-1.5-0.6-2.6-1.9-3.2c-1.2-0.6-3.7-1.3-7.3-2.1
		c-0.2,0-0.4-0.1-0.5-0.1c-2-0.4-3.7-0.9-5-1.4c-1.3-0.4-2.6-1.1-3.9-1.8c-1.2-0.8-2.2-1.7-2.8-2.9c-0.6-1.2-0.9-2.6-0.9-4.3
		c0-3.4,1.3-6.1,3.9-8.1c2.6-2,5.7-3,9.5-3c4.3,0,7.6,1,10,2.9c2.4,1.9,3.9,4.5,4.4,7.6h-5.9c-1.1-3.3-3.9-5-8.4-5
		c-2.4,0-4.2,0.5-5.6,1.5c-1.3,1-2,2.3-2,3.9c0,1.2,0.6,2.2,1.7,2.8C434.3,173.8,436.5,174.4,439.6,175.1z"/>
	<path class="st1" d="M487.8,160.1h6.9v36.4h-5.9v-28.4L477.6,185H477l-11.2-16.9v28.4H460v-36.4h6.9l10.4,15.7L487.8,160.1z"/>
	<path class="st1" d="M503.2,196.5v-36.4h5.9v36.4H503.2z"/>
	<path class="st1" d="M535,197.1c-5.4,0-9.9-1.8-13.5-5.4c-3.5-3.6-5.3-8.1-5.3-13.5s1.8-9.9,5.3-13.5c3.6-3.6,8.1-5.4,13.5-5.4
		c4.2,0,7.8,1.2,11,3.5c3.2,2.3,5.3,5.3,6.4,9.1h-6.3c-1-2.1-2.4-3.8-4.4-5.1c-2-1.3-4.2-1.9-6.8-1.9c-3.7,0-6.8,1.2-9.2,3.7
		c-2.4,2.5-3.6,5.6-3.6,9.5c0,3.8,1.2,7,3.6,9.5c2.4,2.5,5.5,3.7,9.2,3.7c2.5,0,4.8-0.6,6.8-1.9c2-1.3,3.4-3,4.4-5.1h6.3
		c-1.1,3.8-3.3,6.9-6.4,9.2C542.8,196,539.1,197.1,535,197.1z"/>
	<path class="st1" d="M584.1,196.5l-3.7-9.8h-15.8l-3.7,9.8h-6.2l14.1-36.4h7.5l14.1,36.4H584.1z M566.8,181.2h11.5l-5.8-15.2
		L566.8,181.2z"/>
	<path class="st1" d="M616.7,160.1v5.6h-11.1v30.8h-5.9v-30.8h-11.1v-5.6H616.7z"/>
	<path class="st1" d="M692.5,175.1c2.6,0.6,4.6,1.1,6.1,1.6c1.6,0.5,3,1.1,4.4,2c1.3,0.8,2.3,1.8,2.9,3c0.6,1.2,0.9,2.6,0.9,4.4
		c0,3.7-1.4,6.4-4.1,8.3c-2.7,1.8-5.8,2.8-9.5,2.8c-4.7,0-8.4-1.1-11-3.3c-2.6-2.3-4.1-5.1-4.7-8.6h5.9c0.6,2.1,1.6,3.8,3.1,4.8
		c1.6,1,3.7,1.6,6.5,1.6c2.5,0,4.3-0.5,5.7-1.4c1.4-0.9,2-2.3,2-3.9c0-1.5-0.6-2.6-1.9-3.2s-3.7-1.3-7.3-2.1c-0.2,0-0.4-0.1-0.5-0.1
		c-2-0.4-3.7-0.9-5-1.4c-1.3-0.4-2.6-1.1-3.9-1.8c-1.2-0.8-2.2-1.7-2.8-2.9c-0.6-1.2-0.9-2.6-0.9-4.3c0-3.4,1.3-6.1,3.9-8.1
		c2.6-2,5.7-3,9.5-3c4.3,0,7.6,1,10,2.9c2.4,1.9,3.9,4.5,4.4,7.6h-5.9c-1.1-3.3-3.9-5-8.4-5c-2.4,0-4.2,0.5-5.6,1.5
		c-1.3,1-2,2.3-2,3.9c0,1.2,0.6,2.2,1.7,2.8C687.2,173.8,689.4,174.4,692.5,175.1z"/>
	<path class="st1" d="M717,164.9c3.6-3.6,8.1-5.4,13.5-5.4s9.8,1.8,13.4,5.4c3.6,3.6,5.4,8.1,5.5,13.4c0,5.3-1.9,9.8-5.5,13.4
		c-3.6,3.6-8.1,5.4-13.4,5.4s-9.8-1.8-13.5-5.4c-3.6-3.6-5.4-8.1-5.4-13.4C711.6,173,713.4,168.5,717,164.9z M730.4,165.1
		c-3.7,0-6.8,1.3-9.2,3.8c-2.5,2.5-3.7,5.6-3.7,9.4c0,3.8,1.2,6.9,3.7,9.5c2.5,2.5,5.5,3.7,9.2,3.7c3.7,0,6.7-1.2,9.2-3.7
		c2.5-2.5,3.7-5.7,3.7-9.5c0-3.8-1.2-6.9-3.7-9.4C737.2,166.4,734.1,165.1,730.4,165.1z"/>
	<path class="st1" d="M779.6,160.1h6V182c0,4.9-1.4,8.6-4.1,11.2c-2.7,2.6-6.2,3.9-10.6,3.9c-4.4,0-7.9-1.3-10.7-3.9
		c-2.7-2.6-4.1-6.3-4.1-11.2v-21.9h6v21.5c0,3.4,0.8,5.9,2.3,7.5c1.6,1.6,3.7,2.4,6.4,2.4c2.7,0,4.8-0.8,6.3-2.4
		c1.6-1.6,2.4-4.1,2.4-7.5V160.1z"/>
	<path class="st1" d="M818.2,160.1h5.9v36.4h-7l-18.2-28.1l0.6,12.9v15.2h-5.9v-36.4h6.9l18.2,28.1l-0.5-12.8V160.1z"/>
	<path class="st1" d="M845,160.1c5.3,0,9.8,1.7,13.3,5.1c3.5,3.4,5.3,7.8,5.3,13c0,5.2-1.8,9.6-5.4,13c-3.5,3.4-7.9,5.1-13.2,5.1
		h-12.7v-36.4H845z M845.1,190.9c3.7,0,6.7-1.2,9.1-3.5c2.4-2.4,3.6-5.4,3.6-9.1c0-3.7-1.2-6.7-3.6-9c-2.4-2.4-5.4-3.5-9.1-3.5h-6.9
		v25.1H845.1z"/>
	<path class="st1" d="M890,164.9c3.6-3.6,8.1-5.4,13.5-5.4c5.3,0,9.8,1.8,13.4,5.4s5.4,8.1,5.5,13.4c0,5.3-1.9,9.8-5.5,13.4
		c-3.6,3.6-8.1,5.4-13.4,5.4c-5.3,0-9.8-1.8-13.5-5.4c-3.6-3.6-5.4-8.1-5.4-13.4C884.6,173,886.4,168.5,890,164.9z M903.5,165.1
		c-3.7,0-6.8,1.3-9.2,3.8c-2.5,2.5-3.7,5.6-3.7,9.4c0,3.8,1.2,6.9,3.7,9.5c2.5,2.5,5.5,3.7,9.2,3.7c3.7,0,6.7-1.2,9.2-3.7
		c2.5-2.5,3.7-5.7,3.7-9.5c0-3.8-1.2-6.9-3.7-9.4C910.2,166.4,907.1,165.1,903.5,165.1z"/>
	<path class="st1" d="M953,165.7h-17.9v9.7h16.6v5.6h-16.6v15.5h-5.9v-36.4H953V165.7z"/>
	<path class="st1" d="M1004.5,160.1L991.4,184l-0.1,12.5h-5.9v-12.4l-13.1-23.9h6.7l9.5,17.4l9.5-17.4H1004.5z"/>
	<path class="st1" d="M1032.2,196.5l-3.7-9.8h-15.8l-3.7,9.8h-6.2l14.1-36.4h7.5l14.1,36.4H1032.2z M1014.9,181.2h11.5l-5.8-15.2
		L1014.9,181.2z"/>
	<path class="st1" d="M1049.5,190.9h19.4v5.6h-26.7v-5.6l19.3-25.1h-18.4v-5.6h25.8v5.6L1049.5,190.9z"/>
	<path class="st1" d="M1154.3,196.5l-10.4-13.6h-5.6v13.6h-5.9v-36.4h15c3.9,0,6.9,1.1,9.1,3.2c2.2,2.1,3.3,4.9,3.3,8.4
		c0,3-0.8,5.4-2.4,7.3c-1.6,1.9-3.9,3.1-6.8,3.6l10.9,13.9H1154.3z M1138.3,165.7v12h8.5c2.3,0,4.1-0.5,5.2-1.6
		c1.2-1.1,1.8-2.6,1.8-4.4s-0.6-3.3-1.8-4.4c-1.2-1.1-2.9-1.6-5.2-1.6H1138.3z"/>
	<path class="st1" d="M1180.1,160.1c5.3,0,9.8,1.7,13.3,5.1c3.5,3.4,5.3,7.8,5.3,13c0,5.2-1.8,9.6-5.3,13c-3.5,3.4-7.9,5.1-13.2,5.1
		h-12.7v-36.4H1180.1z M1180.2,190.9c3.7,0,6.7-1.2,9.1-3.5c2.4-2.4,3.6-5.4,3.6-9.1c0-3.7-1.2-6.7-3.6-9c-2.4-2.4-5.4-3.5-9.1-3.5
		h-6.9v25.1H1180.2z"/>
	<path class="st1" d="M1220.9,160.1h5.9v24.6c0,3.9-1.1,7-3.4,9.1c-2.2,2.1-5.1,3.2-8.6,3.2c-3.5,0-6.3-1.1-8.5-3.2
		c-2.2-2.1-3.3-5.1-3.3-9v-2.1h5.9v2c0,4.5,2,6.7,5.9,6.7c1.8,0,3.3-0.6,4.4-1.7c1.1-1.1,1.7-2.9,1.7-5.2V160.1z"/>
	<path class="st1" d="M1316.1,165.7h-17.9v9.4h16.6v5.6h-16.6v10.1h17.9v5.6h-23.8v-36.4h23.8V165.7z"/>
	<path class="st1" d="M1328.4,190.9h16.6v5.6h-22.4v-36.4h5.9V190.9z"/>
	<path class="st1" d="M1374.5,165.7h-17.9v9.7h16.6v5.6h-16.6v15.5h-5.9v-36.4h23.7V165.7z"/>
	<path class="st1" d="M1404.3,160.1h6V182c0,4.9-1.4,8.6-4.1,11.2c-2.7,2.6-6.2,3.9-10.6,3.9c-4.4,0-7.9-1.3-10.7-3.9
		c-2.7-2.6-4.1-6.3-4.1-11.2v-21.9h6v21.5c0,3.4,0.8,5.9,2.3,7.5c1.6,1.6,3.7,2.4,6.4,2.4c2.7,0,4.8-0.8,6.3-2.4
		c1.6-1.6,2.4-4.1,2.4-7.5V160.1z"/>
	<path class="st1" d="M1442.3,165.7h-17.9v9.4h16.6v5.6h-16.6v10.1h17.9v5.6h-23.7v-36.4h23.7V165.7z"/>
	<path class="st1" d="M1463.9,177.2h19.6v19.3h-5.1v-7.3c-0.9,2.4-2.5,4.3-4.8,5.8c-2.3,1.4-5.1,2.1-8.3,2.1c-5.2,0-9.5-1.8-13-5.3
		c-3.5-3.6-5.2-8.1-5.2-13.5c0-5.4,1.8-9.9,5.3-13.5c3.6-3.6,8-5.4,13.4-5.4c4.2,0,7.8,1.1,11,3.4c3.2,2.3,5.3,5.2,6.5,9h-6.3
		c-1-2.1-2.5-3.8-4.5-4.9c-1.9-1.2-4.2-1.8-6.7-1.8c-3.7,0-6.8,1.3-9.2,3.8c-2.4,2.5-3.6,5.7-3.6,9.6c0,3.8,1.2,6.9,3.5,9.5
		c2.3,2.5,5.4,3.7,9.2,3.7c3.1,0,5.7-0.8,7.9-2.5c2.2-1.7,3.5-4.1,3.9-7h-13.7V177.2z"/>
	<path class="st1" d="M1495.7,164.9c3.6-3.6,8.1-5.4,13.5-5.4s9.8,1.8,13.4,5.4c3.6,3.6,5.4,8.1,5.5,13.4c0,5.3-1.8,9.8-5.5,13.4
		c-3.6,3.6-8.1,5.4-13.4,5.4s-9.8-1.8-13.5-5.4c-3.6-3.6-5.4-8.1-5.4-13.4C1490.3,173,1492.1,168.5,1495.7,164.9z M1509.1,165.1
		c-3.7,0-6.8,1.3-9.2,3.8c-2.5,2.5-3.7,5.6-3.7,9.4c0,3.8,1.2,6.9,3.7,9.5c2.5,2.5,5.5,3.7,9.2,3.7c3.7,0,6.7-1.2,9.2-3.7
		c2.5-2.5,3.7-5.7,3.7-9.5c0-3.8-1.2-6.9-3.7-9.4C1515.9,166.4,1512.8,165.1,1509.1,165.1z"/>
	<path class="st0" d="M1229.5,242l6.9,12h-13.8L1229.5,242z"/>
	<path class="st0" d="M1229.5,265.9l-6.9-12h13.8L1229.5,265.9z"/>
	<path class="st0" d="M941.6,242l6.9,12h-13.8L941.6,242z"/>
	<path class="st0" d="M941.6,265.9l-6.9-12h13.8L941.6,265.9z"/>
	<path class="st0" d="M724,242l6.9,12h-13.8L724,242z"/>
	<path class="st0" d="M724,265.9l-6.9-12h13.8L724,265.9z"/>
	<path class="st0" d="M438.5,242l6.9,12h-13.8L438.5,242z"/>
	<path class="st0" d="M438.5,265.9l-6.9-12h13.8L438.5,265.9z"/>
	<path class="st1" d="M32,273.4l-4-10.6H10.8l-4,10.6H0l15.3-39.6h8.1l15.3,39.6H32z M13.1,256.7h12.6l-6.3-16.6L13.1,256.7z"/>
	<path class="st1" d="M51.6,267.3h18v6.1H45.2v-39.6h6.4V267.3z"/>
	<path class="st1" d="M105.1,273.4l-4-10.6H83.9l-4,10.6h-6.8l15.3-39.6h8.1l15.3,39.6H105.1z M86.2,256.7h12.6l-6.3-16.6
		L86.2,256.7z"/>
	<path class="st1" d="M147.4,273.4l-4-10.6h-17.2l-4,10.6h-6.8l15.3-39.6h8.1l15.3,39.6H147.4z M128.5,256.7H141l-6.3-16.6
		L128.5,256.7z"/>
	<path class="st1" d="M194.1,233.8h6.4v26.8c0,4.3-1.2,7.6-3.7,10c-2.5,2.3-5.6,3.5-9.4,3.5c-3.8,0-6.9-1.1-9.3-3.4
		c-2.4-2.3-3.6-5.6-3.6-9.8v-2.3h6.4v2.1c0,4.9,2.1,7.3,6.4,7.3c2,0,3.6-0.6,4.8-1.8c1.2-1.2,1.8-3.1,1.8-5.7V233.8z"/>
	<path class="st1" d="M236.7,273.4l-4-10.6h-17.2l-4,10.6h-6.8l15.3-39.6h8.1l15.3,39.6H236.7z M217.8,256.7h12.6l-6.3-16.6
		L217.8,256.7z"/>
	<path class="st1" d="M255.5,267.3h21.1v6.1h-29.1v-6.1l21-27.4h-20.1v-6.1h28v6.1L255.5,267.3z"/>
	<path class="st1" d="M312.7,273.4l-4-10.6h-17.2l-4,10.6h-6.8l15.3-39.6h8.1l15.3,39.6H312.7z M293.8,256.7h12.6l-6.3-16.6
		L293.8,256.7z"/>
	<path class="st1" d="M351.7,239.9h-19.5v10.2h18v6.1h-18v11h19.5v6.1h-25.8v-39.6h25.8V239.9z"/>
	<path class="st1" d="M382.8,273.4l-11.3-14.8h-6.1v14.8H359v-39.6h16.3c4.2,0,7.5,1.1,9.9,3.4c2.4,2.3,3.6,5.3,3.6,9.1
		c0,3.2-0.9,5.9-2.6,8c-1.7,2-4.2,3.4-7.4,4l11.8,15.1H382.8z M365.4,239.9V253h9.3c2.5,0,4.4-0.6,5.7-1.8c1.3-1.2,2-2.8,2-4.8
		s-0.7-3.6-2-4.8c-1.3-1.2-3.2-1.8-5.7-1.8H365.4z"/>
	<path class="st1" d="M396.4,273.4v-39.6h6.4v39.6H396.4z"/>
	<path class="st1" d="M488.2,233.8c5.8,0,10.6,1.9,14.5,5.6c3.8,3.7,5.8,8.5,5.8,14.2c0,5.7-1.9,10.4-5.8,14.2
		c-3.8,3.7-8.7,5.6-14.4,5.6h-13.9v-39.6H488.2z M488.2,267.3c4,0,7.3-1.3,9.9-3.8c2.6-2.6,3.9-5.9,3.9-9.9c0-4-1.3-7.3-3.9-9.8
		c-2.6-2.6-5.9-3.8-9.9-3.8h-7.5v27.4H488.2z"/>
	<path class="st1" d="M532.6,233.8h6.4v26.8c0,4.3-1.2,7.6-3.7,10c-2.5,2.3-5.6,3.5-9.4,3.5c-3.8,0-6.9-1.1-9.3-3.4
		c-2.4-2.3-3.6-5.6-3.6-9.8v-2.3h6.4v2.1c0,4.9,2.1,7.3,6.4,7.3c2,0,3.6-0.6,4.8-1.8c1.2-1.2,1.8-3.1,1.8-5.7V233.8z"/>
	<path class="st1" d="M591,233.8h6.8l-13.6,39.6H576l-13.6-39.6h6.8L580,266L591,233.8z"/>
	<path class="st1" d="M604.1,273.4v-39.6h6.4v39.6H604.1z"/>
	<path class="st1" d="M645.5,233.8h6.8l-13.6,39.6h-8.1l-13.6-39.6h6.8l10.9,32.2L645.5,233.8z"/>
	<path class="st1" d="M682.9,273.4l-4-10.6h-17.2l-4,10.6h-6.8l15.3-39.6h8.1l15.3,39.6H682.9z M664,256.7h12.6l-6.3-16.6L664,256.7
		z"/>
	<path class="st1" d="M782.1,273.4l-11.3-14.8h-6.1v14.8h-6.4v-39.6h16.3c4.2,0,7.5,1.2,9.9,3.4c2.4,2.3,3.6,5.3,3.6,9.1
		c0,3.2-0.9,5.9-2.6,8c-1.7,2-4.2,3.4-7.4,4l11.8,15.1H782.1z M764.7,239.9V253h9.3c2.5,0,4.4-0.6,5.7-1.8c1.3-1.2,2-2.8,2-4.8
		s-0.7-3.6-2-4.8c-1.3-1.2-3.2-1.8-5.7-1.8H764.7z"/>
	<path class="st1" d="M825.4,273.4l-4-10.6h-17.2l-4,10.6h-6.8l15.3-39.6h8.1l15.3,39.6H825.4z M806.6,256.7h12.6l-6.3-16.6
		L806.6,256.7z"/>
	<path class="st1" d="M850.2,250.1c2.8,0.6,5,1.2,6.7,1.8c1.7,0.5,3.3,1.2,4.8,2.1c1.5,0.9,2.5,2,3.1,3.3c0.6,1.3,1,2.9,1,4.8
		c0,4-1.5,7-4.4,9c-2.9,2-6.4,3-10.3,3c-5.2,0-9.1-1.2-11.9-3.6c-2.8-2.4-4.5-5.6-5.1-9.3h6.4c0.6,2.3,1.7,4.1,3.4,5.3
		c1.7,1.1,4.1,1.7,7.1,1.7c2.7,0,4.7-0.5,6.2-1.5c1.5-1,2.2-2.4,2.2-4.3c0-1.7-0.7-2.8-2-3.5c-1.4-0.7-4-1.5-8-2.3
		c-0.3,0-0.5-0.1-0.6-0.1c-2.2-0.5-4-1-5.4-1.5c-1.4-0.5-2.8-1.1-4.2-2c-1.4-0.8-2.4-1.9-3.1-3.2c-0.6-1.3-1-2.9-1-4.6
		c0-3.7,1.4-6.7,4.2-8.8c2.8-2.1,6.3-3.2,10.3-3.2c4.7,0,8.3,1.1,10.9,3.2c2.6,2.1,4.2,4.9,4.8,8.3h-6.4c-1.2-3.6-4.3-5.4-9.2-5.4
		c-2.6,0-4.6,0.5-6.1,1.6c-1.4,1.1-2.1,2.5-2.1,4.2c0,1.4,0.6,2.4,1.8,3.1C844.4,248.6,846.7,249.3,850.2,250.1z"/>
	<path class="st1" d="M899.3,233.8h6.4v39.6h-6.4v-17.3H879v17.3h-6.4v-39.6h6.4V250h20.3V233.8z"/>
	<path class="st1" d="M977.5,273.4v-39.6h6.4v39.6H977.5z"/>
	<path class="st1" d="M1009.8,252.3h21.4v21h-5.6v-7.9c-0.9,2.6-2.7,4.7-5.2,6.3c-2.6,1.5-5.6,2.3-9.1,2.3c-5.6,0-10.3-1.9-14.1-5.8
		c-3.8-3.9-5.7-8.8-5.7-14.6c0-5.9,1.9-10.8,5.8-14.7c3.9-3.9,8.7-5.8,14.6-5.8c4.6,0,8.5,1.2,11.9,3.7c3.4,2.5,5.8,5.7,7,9.8h-6.9
		c-1.1-2.3-2.7-4.1-4.9-5.4c-2.1-1.3-4.5-2-7.3-2c-4,0-7.4,1.4-10,4.1c-2.6,2.7-3.9,6.2-3.9,10.4c0,4.1,1.3,7.5,3.8,10.3
		c2.5,2.7,5.9,4.1,10.1,4.1c3.4,0,6.2-0.9,8.6-2.8c2.4-1.9,3.8-4.4,4.3-7.6h-14.9V252.3z"/>
	<path class="st1" d="M1066.6,233.8h6.4v39.6h-7.6l-19.8-30.6l0.6,14v16.6h-6.4v-39.6h7.5l19.8,30.5l-0.6-14V233.8z"/>
	<path class="st1" d="M1082,273.4v-39.6h6.4v39.6H1082z"/>
	<path class="st1" d="M1125.3,233.8v6.1h-12.1v33.5h-6.4v-33.5h-12v-6.1H1125.3z"/>
	<path class="st1" d="M1157.5,239.9h-19.5v10.2h18v6.1h-18v11h19.5v6.1h-25.9v-39.6h25.9V239.9z"/>
	<path class="st1" d="M1188.6,273.4l-11.3-14.8h-6.1v14.8h-6.4v-39.6h16.3c4.2,0,7.5,1.2,9.9,3.4c2.4,2.3,3.6,5.3,3.6,9.1
		c0,3.2-0.9,5.9-2.6,8c-1.7,2-4.2,3.4-7.3,4l11.8,15.1H1188.6z M1171.2,239.9V253h9.3c2.5,0,4.4-0.6,5.7-1.8c1.3-1.2,2-2.8,2-4.8
		s-0.7-3.6-2-4.8c-1.3-1.2-3.2-1.8-5.7-1.8H1171.2z"/>
	<path class="st1" d="M1294.5,273.4l-4-10.6h-17.2l-4,10.6h-6.8l15.3-39.6h8.1l15.3,39.6H1294.5z M1275.6,256.7h12.6l-6.3-16.6
		L1275.6,256.7z"/>
	<path class="st1" d="M1313.3,267.3h21.1v6.1h-29.1v-6.1l21-27.4h-20.1v-6.1h28v6.1L1313.3,267.3z"/>
	<path class="st1" d="M1341.4,273.4v-39.6h6.4v39.6H1341.4z"/>
	<path class="st1" d="M1362.7,267.3h21.1v6.1h-29.1v-6.1l21-27.4h-20.1v-6.1h28v6.1L1362.7,267.3z"/>
	<path class="st1" d="M1391.9,267.2c0.8-0.8,1.8-1.1,3-1.1c1.2,0,2.2,0.4,3,1.1c0.8,0.7,1.2,1.7,1.2,2.8c0,1.2-0.4,2.1-1.2,2.9
		c-0.8,0.8-1.8,1.1-3,1.1c-1.2,0-2.2-0.4-3-1.1c-0.8-0.8-1.1-1.7-1.1-2.9C1390.7,268.9,1391.1,267.9,1391.9,267.2z"/>
	<path class="st1" d="M1448.6,233.8h6.6l-10.5,39.6h-8l-3.8-14.3l-3.8-17.7h-1l-3.8,17.7l-3.8,14.3h-8l-10.5-39.6h6.6l5,18.9l3,14
		l3-14l5-18.9h8.2l5,18.9l3.1,14l3-14L1448.6,233.8z"/>
	<path class="st1" d="M1487.2,273.4l-4-10.6H1466l-4,10.6h-6.8l15.3-39.6h8.1l15.3,39.6H1487.2z M1468.3,256.7h12.6l-6.3-16.6
		L1468.3,256.7z"/>
	<path class="st1" d="M1521.2,233.8h6.8l-13.6,39.6h-8.1l-13.6-39.6h6.8l10.9,32.2L1521.2,233.8z"/>
	<path class="st0" d="M265.6,312.6l6.9,12h-13.8L265.6,312.6z"/>
	<path class="st0" d="M265.6,336.6l-6.9-12h13.8L265.6,336.6z"/>
	<path class="st0" d="M450.9,312.6l6.9,12H444L450.9,312.6z"/>
	<path class="st0" d="M450.9,336.6l-6.9-12h13.8L450.9,336.6z"/>
	<path class="st0" d="M591.7,312.6l6.9,12h-13.8L591.7,312.6z"/>
	<path class="st0" d="M591.7,336.6l-6.9-12h13.8L591.7,336.6z"/>
	<path class="st0" d="M808.6,312.6l6.9,12h-13.8L808.6,312.6z"/>
	<path class="st0" d="M808.6,336.6l-6.9-12h13.8L808.6,336.6z"/>
	<path class="st0" d="M1085.5,312.6l6.9,12h-13.8L1085.5,312.6z"/>
	<path class="st0" d="M1085.5,336.6l-6.9-12h13.8L1085.5,336.6z"/>
	<path class="st0" d="M1327.8,312.6l6.9,12h-13.8L1327.8,312.6z"/>
	<path class="st0" d="M1327.8,336.6l-6.9-12h13.8L1327.8,336.6z"/>
	<path class="st1" d="M1369.8,310.5c4.1,0,7.5,1.3,10.2,3.9c2.7,2.6,4.1,5.9,4.1,10c0,4-1.4,7.3-4.1,10c-2.7,2.6-6.1,3.9-10.2,3.9
		h-9.4v-27.8H1369.8z M1369.8,335.1c3.1,0,5.7-1,7.8-3c2.1-2,3.1-4.6,3.1-7.7c0-3.1-1-5.7-3.1-7.7c-2.1-2-4.7-3.1-7.8-3.1h-6.1v21.5
		H1369.8z"/>
	<path class="st1" d="M1401.7,310.5h3.3v19.1c0,2.9-0.8,5.1-2.4,6.7c-1.6,1.6-3.7,2.4-6.3,2.4c-2.6,0-4.6-0.8-6.2-2.3
		c-1.6-1.6-2.4-3.8-2.4-6.6V328h3.3v1.7c0,2,0.5,3.5,1.4,4.4c0.9,1,2.2,1.5,3.9,1.5c1.6,0,2.9-0.5,3.9-1.5c1-1,1.5-2.5,1.5-4.6
		V310.5z"/>
	<path class="st1" d="M1433.5,322.6c1.9,0.4,3.4,0.8,4.5,1.2c1.1,0.3,2.2,0.8,3.2,1.4c1,0.6,1.8,1.3,2.2,2.2
		c0.4,0.9,0.7,1.9,0.7,3.2c0,2.7-1,4.7-2.9,6.1c-2,1.4-4.4,2.1-7.2,2.1c-3.5,0-6.2-0.8-8.2-2.4c-1.9-1.6-3.1-3.7-3.6-6.4h3.3
		c0.9,3.8,3.7,5.7,8.4,5.7c2.2,0,3.9-0.4,5.1-1.3c1.2-0.9,1.8-2.1,1.8-3.7c0-1.4-0.6-2.4-1.7-3c-1.1-0.6-3.2-1.2-6.3-1.9
		c-1.7-0.4-3-0.7-4.1-1.1c-1-0.3-2-0.8-3-1.4c-1-0.6-1.7-1.3-2.1-2.1c-0.5-0.9-0.7-1.9-0.7-3.1c0-2.5,1-4.5,2.9-5.9
		c1.9-1.4,4.3-2.1,7.1-2.1c3.1,0,5.6,0.7,7.4,2c1.8,1.3,3,3.1,3.5,5.4h-3.3c-1.1-2.9-3.6-4.3-7.5-4.3c-2.1,0-3.7,0.4-4.9,1.3
		c-1.2,0.9-1.8,2.1-1.8,3.6c0,1.1,0.5,2,1.5,2.6C1428.7,321.3,1430.6,321.9,1433.5,322.6z"/>
	<path class="st1" d="M1452.2,314.2c2.8-2.8,6.2-4.1,10.2-4.1c4.1,0,7.4,1.4,10.2,4.1c2.8,2.7,4.1,6.1,4.1,10.2
		c0,4.1-1.4,7.5-4.1,10.2c-2.8,2.7-6.2,4.1-10.2,4.1c-4.1,0-7.5-1.4-10.2-4.1c-2.8-2.8-4.1-6.2-4.1-10.2
		C1448.1,320.3,1449.5,316.9,1452.2,314.2z M1462.4,313.2c-3.1,0-5.7,1.1-7.8,3.2c-2.1,2.1-3.2,4.8-3.2,8s1.1,5.8,3.2,8
		c2.1,2.1,4.7,3.2,7.8,3.2c3.1,0,5.7-1.1,7.8-3.2c2.1-2.1,3.2-4.8,3.2-8c0-3.2-1.1-5.9-3.2-8
		C1468.2,314.3,1465.6,313.2,1462.4,313.2z"/>
	<path class="st1" d="M1501.2,310.5h3.4v16.8c0,3.7-1,6.5-3.1,8.5c-2,2-4.7,2.9-7.9,2.9c-3.3,0-5.9-1-7.9-2.9c-2-2-3.1-4.8-3.1-8.5
		v-16.8h3.4v16.7c0,2.8,0.7,4.9,2.1,6.3c1.4,1.4,3.3,2.1,5.6,2.1c2.3,0,4.1-0.7,5.5-2.1c1.4-1.4,2.1-3.5,2.1-6.3V310.5z"/>
	<path class="st1" d="M1514.6,335.1h13.4v3.1h-16.7v-27.8h3.3V335.1z"/>
	<path class="st1" d="M9.4,310.5c4.1,0,7.5,1.3,10.2,3.9c2.7,2.6,4.1,5.9,4.1,10c0,4-1.4,7.3-4.1,10c-2.7,2.6-6.1,3.9-10.2,3.9H0
		v-27.8H9.4z M9.4,335.1c3.1,0,5.7-1,7.8-3c2.1-2,3.1-4.6,3.1-7.7c0-3.1-1-5.7-3.1-7.7c-2.1-2-4.7-3.1-7.8-3.1H3.3v21.5H9.4z"/>
	<path class="st1" d="M41.3,310.5h3.3v19.1c0,2.9-0.8,5.1-2.4,6.8c-1.6,1.6-3.7,2.4-6.3,2.4c-2.6,0-4.6-0.8-6.2-2.3
		c-1.6-1.6-2.4-3.8-2.4-6.6V328h3.3v1.7c0,2,0.5,3.5,1.4,4.4c1,1,2.2,1.5,3.9,1.5c1.6,0,2.9-0.5,3.9-1.5c1-1,1.5-2.5,1.5-4.6V310.5z
		"/>
	<path class="st1" d="M82.9,310.5h3.3v27.8h-3.3v-12.8H66.8v12.8h-3.3v-27.8h3.3v11.9h16.1V310.5z"/>
	<path class="st1" d="M114,338.3l-3.3-8.3H97.8l-3.3,8.3H91l11.1-27.8h4.2l11.1,27.8H114z M99.1,326.8h10.4l-5.2-13.2L99.1,326.8z"
		/>
	<path class="st1" d="M141.6,310.5h3.3v27.8h-4.1l-15.7-23.4l0.3,11.8v11.6h-3.3v-27.8h4l15.7,23.4l-0.3-11.8V310.5z"/>
	<path class="st1" d="M170.9,310.5h3.3v27.8h-4.1l-15.7-23.4l0.3,11.8v11.6h-3.3v-27.8h4.1l15.7,23.4l-0.3-11.8V310.5z"/>
	<path class="st1" d="M201.8,338.3l-3.3-8.3h-12.9l-3.3,8.3h-3.5l11.1-27.8h4.2l11.1,27.8H201.8z M186.9,326.8h10.4l-5.2-13.2
		L186.9,326.8z"/>
	<path class="st1" d="M229.6,310.5h3.3v27.8h-3.3v-12.8h-16.1v12.8h-3.3v-27.8h3.3v11.9h16.1V310.5z"/>
	<path class="st1" d="M314.3,323.5c3.2,0.9,4.8,3.3,4.8,7.1c0,2.4-0.8,4.3-2.3,5.7c-1.5,1.3-3.8,2-6.8,2h-11.7v-27.8h11.5
		c2.8,0,4.9,0.6,6.3,1.9c1.4,1.2,2.1,3,2.1,5.2C318.2,320.4,316.9,322.4,314.3,323.5z M314.9,318c0-1.5-0.4-2.6-1.3-3.3
		c-0.8-0.7-2.2-1.1-4.2-1.1h-7.8v8.8h7.7c2,0,3.4-0.4,4.3-1.1C314.4,320.5,314.9,319.5,314.9,318z M309.9,335.1
		c3.9,0,5.8-1.6,5.8-4.8c0-1.6-0.5-2.8-1.4-3.7c-0.9-0.8-2.4-1.3-4.5-1.3h-8.3v9.7H309.9z"/>
	<path class="st1" d="M324.3,338.3v-27.8h3.3v27.8H324.3z"/>
	<path class="st1" d="M346.3,323.8h14.8v14.5h-2.9v-6.5c-0.7,2.1-2,3.8-3.9,5.1c-1.9,1.2-4.2,1.9-6.8,1.9c-4,0-7.3-1.4-10-4.1
		c-2.7-2.7-4-6.1-4-10.2c0-4.1,1.4-7.5,4.1-10.2c2.7-2.7,6.1-4.1,10.2-4.1c3.1,0,5.9,0.8,8.2,2.5c2.4,1.6,4,3.9,5,6.7h-3.5
		c-0.8-1.9-2.1-3.3-3.9-4.4c-1.7-1.1-3.7-1.6-5.8-1.6c-3.1,0-5.8,1.1-7.8,3.2c-2.1,2.1-3.1,4.8-3.1,8.1c0,3.2,1,5.9,3.1,8
		c2,2.1,4.7,3.2,7.9,3.2c2.8,0,5.1-0.8,6.9-2.5c1.9-1.6,2.9-3.8,3.2-6.6h-11.4V323.8z"/>
	<path class="st1" d="M379.6,323.8h14.8v14.5h-2.9v-6.5c-0.7,2.1-2,3.8-3.9,5.1c-1.9,1.2-4.2,1.9-6.8,1.9c-4,0-7.3-1.4-10-4.1
		c-2.7-2.7-4-6.1-4-10.2c0-4.1,1.4-7.5,4.1-10.2c2.7-2.7,6.1-4.1,10.2-4.1c3.1,0,5.9,0.8,8.2,2.5c2.4,1.6,4,3.9,5,6.7h-3.5
		c-0.8-1.9-2.1-3.3-3.9-4.4c-1.7-1.1-3.7-1.6-5.8-1.6c-3.1,0-5.8,1.1-7.8,3.2c-2.1,2.1-3.1,4.8-3.1,8.1c0,3.2,1,5.9,3.1,8
		c2,2.1,4.7,3.2,7.9,3.2c2.8,0,5.1-0.8,6.9-2.5c1.9-1.6,2.9-3.8,3.2-6.6h-11.4V323.8z"/>
	<path class="st1" d="M415.3,323.6c1.6,0.5,2.8,1.3,3.6,2.5c0.9,1.2,1.3,2.6,1.3,4.3c0,2.5-0.9,4.5-2.7,6c-1.8,1.5-4.2,2.2-7.2,2.2
		c-2.9,0-5.3-0.7-7.3-2.1c-2-1.4-3.2-3.5-3.6-6.2h3.3c0.8,3.5,3.3,5.2,7.5,5.2c2.1,0,3.7-0.5,4.8-1.4c1.2-1,1.8-2.2,1.8-3.9
		c0-1.5-0.5-2.7-1.5-3.5c-1-0.9-2.5-1.3-4.7-1.3h-3.9v-2.9h2.9c4.2,0,6.2-1.4,6.2-4.3c0-1.5-0.6-2.8-1.7-3.7
		c-1.1-0.9-2.6-1.4-4.4-1.4c-1.7,0-3.2,0.4-4.3,1.2c-1.1,0.7-1.9,2-2.3,3.7h-3.3c0.5-2.7,1.6-4.7,3.4-6c1.8-1.3,4-2,6.6-2
		c2.7,0,4.9,0.7,6.7,2.2c1.8,1.4,2.7,3.3,2.7,5.6c0,1.3-0.3,2.5-1,3.6C417.5,322.4,416.6,323.2,415.3,323.6z"/>
	<path class="st1" d="M504.7,338.3l-3.3-8.3h-12.9l-3.3,8.3h-3.5l11.1-27.8h4.2l11.1,27.8H504.7z M489.8,326.8h10.4l-5.2-13.2
		L489.8,326.8z"/>
	<path class="st1" d="M530.4,338.3l-8.7-10.8h-5.4v10.8H513v-27.8h11c3,0,5.3,0.8,6.9,2.4c1.6,1.6,2.5,3.6,2.5,6.2
		c0,2.3-0.7,4.2-2.1,5.7c-1.3,1.5-3.3,2.4-5.8,2.7l8.9,10.8H530.4z M516.3,313.6v11h7.4c2.1,0,3.7-0.5,4.8-1.5c1.1-1,1.6-2.4,1.6-4
		c0-1.6-0.5-2.9-1.6-3.9c-1.1-1-2.7-1.5-4.8-1.5H516.3z"/>
	<path class="st1" d="M560.1,338.3h-3.9l-7.3-11.5l-7.3,11.5h-3.9l9.2-14.3l-8.8-13.5h3.9l6.9,10.9l6.9-10.9h3.9l-8.9,13.7
		L560.1,338.3z"/>
	<path class="st1" d="M639.3,323.5c3.2,0.9,4.8,3.3,4.8,7.1c0,2.4-0.8,4.3-2.3,5.7c-1.5,1.3-3.8,2-6.8,2h-11.7v-27.8h11.5
		c2.8,0,4.9,0.6,6.3,1.9c1.4,1.2,2.1,3,2.1,5.2C643.2,320.4,641.9,322.4,639.3,323.5z M639.9,318c0-1.5-0.4-2.6-1.3-3.3
		s-2.2-1.1-4.2-1.1h-7.8v8.8h7.7c2,0,3.4-0.4,4.3-1.1S639.9,319.5,639.9,318z M635,335.1c3.9,0,5.8-1.6,5.8-4.8
		c0-1.6-0.5-2.8-1.4-3.7c-0.9-0.8-2.4-1.3-4.5-1.3h-8.3v9.7H635z"/>
	<path class="st1" d="M652.7,335.1H666v3.1h-16.7v-27.8h3.3V335.1z"/>
	<path class="st1" d="M691.7,338.3l-3.3-8.3h-12.9l-3.3,8.3h-3.5l11.1-27.8h4.2l11.1,27.8H691.7z M676.8,326.8h10.4l-5.2-13.2
		L676.8,326.8z"/>
	<path class="st1" d="M711.5,338.7c-4.1,0-7.5-1.4-10.2-4.1c-2.7-2.7-4-6.1-4-10.2c0-4.1,1.3-7.5,4-10.2c2.7-2.7,6.1-4.1,10.2-4.1
		c3.1,0,5.8,0.8,8.2,2.5c2.4,1.7,4.1,3.9,5,6.7h-3.5c-0.8-1.9-2.1-3.4-3.9-4.5c-1.7-1.1-3.6-1.7-5.8-1.7c-3.1,0-5.7,1.1-7.8,3.2
		c-2.1,2.1-3.1,4.8-3.1,8c0,3.2,1,5.9,3.1,8c2.1,2.1,4.7,3.2,7.8,3.2c2.2,0,4.1-0.6,5.8-1.7c1.7-1.1,3-2.6,3.9-4.5h3.5
		c-1,2.8-2.6,5.1-5,6.8C717.4,337.9,714.6,338.7,711.5,338.7z"/>
	<path class="st1" d="M750.6,338.3h-4.2l-13.1-13.5v13.5H730v-27.8h3.3v13l12.6-13h4.2L737,324.1L750.6,338.3z"/>
	<path class="st1" d="M777.1,310.5l-10.3,17.8v10h-3.3v-9.9l-10.3-17.9h3.7l8.2,14.2l8.2-14.2H777.1z"/>
	<path class="st1" d="M849.5,310.5c4.1,0,7.5,1.3,10.2,3.9c2.7,2.6,4.1,5.9,4.1,10c0,4-1.4,7.3-4.1,10c-2.7,2.6-6.1,3.9-10.2,3.9
		h-9.4v-27.8H849.5z M849.5,335.1c3.1,0,5.7-1,7.8-3c2.1-2,3.1-4.6,3.1-7.7c0-3.1-1-5.7-3.1-7.7c-2.1-2-4.7-3.1-7.8-3.1h-6.2v21.5
		H849.5z"/>
	<path class="st1" d="M881.4,310.5h3.3v19.1c0,2.9-0.8,5.1-2.4,6.7c-1.6,1.6-3.7,2.4-6.3,2.4c-2.6,0-4.6-0.8-6.2-2.3
		c-1.6-1.6-2.4-3.8-2.4-6.6V328h3.3v1.7c0,2,0.5,3.5,1.4,4.4c1,1,2.2,1.5,3.9,1.5s2.9-0.5,3.9-1.5c1-1,1.5-2.5,1.5-4.6V310.5z"/>
	<path class="st1" d="M921.2,313.6h-14.3v9h13.4v3.1h-13.4v12.5h-3.3v-27.8h17.6V313.6z"/>
	<path class="st1" d="M943.8,338.3l-8.7-10.8h-5.4v10.8h-3.3v-27.8h11c3,0,5.3,0.8,6.9,2.4c1.6,1.6,2.5,3.6,2.5,6.2
		c0,2.3-0.7,4.2-2.1,5.7c-1.4,1.5-3.3,2.4-5.8,2.7l8.9,10.8H943.8z M929.7,313.6v11h7.4c2.1,0,3.7-0.5,4.8-1.5c1.1-1,1.6-2.4,1.6-4
		c0-1.6-0.5-2.9-1.6-3.9c-1.1-1-2.7-1.5-4.8-1.5H929.7z"/>
	<path class="st1" d="M954.7,314.2c2.8-2.8,6.2-4.1,10.2-4.1c4.1,0,7.4,1.4,10.2,4.1c2.8,2.7,4.1,6.1,4.1,10.2
		c0,4.1-1.4,7.5-4.1,10.2c-2.8,2.7-6.2,4.1-10.2,4.1c-4,0-7.5-1.4-10.2-4.1c-2.8-2.8-4.1-6.2-4.1-10.2
		C950.6,320.3,952,316.9,954.7,314.2z M964.9,313.2c-3.1,0-5.7,1.1-7.8,3.2c-2.1,2.1-3.2,4.8-3.2,8s1.1,5.8,3.2,8
		c2.1,2.1,4.7,3.2,7.8,3.2c3.1,0,5.7-1.1,7.8-3.2c2.1-2.1,3.2-4.8,3.2-8c0-3.2-1.1-5.9-3.2-8C970.6,314.3,968,313.2,964.9,313.2z"/>
	<path class="st1" d="M986.3,335.1h16v3.1h-20.1v-3.1l16-21.5h-15.4v-3.1h19.4v3.1L986.3,335.1z"/>
	<path class="st1" d="M1025.2,313.6h-14.3v8.8h13.4v3.1h-13.4v9.6h14.3v3.1h-17.6v-27.8h17.6V313.6z"/>
	<path class="st1" d="M1049.7,310.5h3.3v27.8h-4.1l-15.7-23.4l0.3,11.8v11.6h-3.3v-27.8h4l15.7,23.4l-0.3-11.8V310.5z"/>
	<path class="st1" d="M1127.3,310.5c4.1,0,7.5,1.3,10.2,3.9c2.7,2.6,4.1,5.9,4.1,10c0,4-1.4,7.3-4.1,10c-2.7,2.6-6.1,3.9-10.2,3.9
		h-9.4v-27.8H1127.3z M1127.3,335.1c3.1,0,5.7-1,7.8-3c2.1-2,3.1-4.6,3.1-7.7c0-3.1-1-5.7-3.1-7.7c-2.1-2-4.7-3.1-7.8-3.1h-6.2v21.5
		H1127.3z"/>
	<path class="st1" d="M1159.2,310.5h3.3v19.1c0,2.9-0.8,5.1-2.4,6.7c-1.6,1.6-3.7,2.4-6.3,2.4c-2.6,0-4.6-0.8-6.2-2.3
		c-1.6-1.6-2.4-3.8-2.4-6.6V328h3.3v1.7c0,2,0.5,3.5,1.4,4.4c0.9,1,2.2,1.5,3.9,1.5c1.6,0,2.9-0.5,3.9-1.5c1-1,1.5-2.5,1.5-4.6
		V310.5z"/>
	<path class="st1" d="M1202.8,310.5h4v27.8h-3.3v-23.5l-9.4,14.2h-0.3l-9.4-14.2v23.5h-3.3v-27.8h4.1l8.8,13.3L1202.8,310.5z"/>
	<path class="st1" d="M1216.8,314.2c2.8-2.8,6.2-4.1,10.2-4.1c4,0,7.4,1.4,10.2,4.1c2.8,2.7,4.1,6.1,4.1,10.2
		c0,4.1-1.4,7.5-4.1,10.2c-2.8,2.7-6.1,4.1-10.2,4.1s-7.4-1.4-10.2-4.1c-2.8-2.8-4.1-6.2-4.1-10.2
		C1212.7,320.3,1214,316.9,1216.8,314.2z M1227,313.2c-3.1,0-5.7,1.1-7.8,3.2s-3.2,4.8-3.2,8s1.1,5.8,3.2,8c2.1,2.1,4.7,3.2,7.8,3.2
		c3.1,0,5.7-1.1,7.8-3.2c2.1-2.1,3.2-4.8,3.2-8c0-3.2-1.1-5.9-3.2-8C1232.7,314.3,1230.1,313.2,1227,313.2z"/>
	<path class="st1" d="M1256.8,322.6c1.9,0.4,3.4,0.8,4.5,1.2c1.1,0.3,2.2,0.8,3.2,1.4c1,0.6,1.8,1.3,2.2,2.2
		c0.4,0.9,0.7,1.9,0.7,3.2c0,2.7-1,4.7-2.9,6.1c-2,1.4-4.4,2.1-7.2,2.1c-3.5,0-6.2-0.8-8.2-2.4c-1.9-1.6-3.1-3.7-3.6-6.4h3.3
		c0.9,3.8,3.7,5.7,8.4,5.7c2.2,0,3.9-0.4,5.1-1.3c1.2-0.9,1.8-2.1,1.8-3.7c0-1.4-0.6-2.4-1.7-3c-1.1-0.6-3.2-1.2-6.3-1.9
		c-1.7-0.4-3-0.7-4.1-1.1c-1-0.3-2-0.8-3-1.4c-1-0.6-1.7-1.3-2.1-2.1c-0.5-0.9-0.7-1.9-0.7-3.1c0-2.5,0.9-4.5,2.9-5.9
		c1.9-1.4,4.3-2.1,7.1-2.1c3.1,0,5.5,0.7,7.3,2c1.8,1.4,3,3.1,3.5,5.4h-3.3c-1.1-2.9-3.6-4.3-7.5-4.3c-2.1,0-3.7,0.5-4.9,1.3
		c-1.2,0.9-1.8,2.1-1.8,3.6c0,1.1,0.5,2,1.5,2.6C1252,321.3,1253.9,321.9,1256.8,322.6z"/>
	<path class="st1" d="M1292,310.5h3.3v27.8h-3.3v-12.8h-16.1v12.8h-3.3v-27.8h3.3v11.9h16.1V310.5z"/>
	<path class="st0" d="M1432,376l6.9,12h-13.8L1432,376z"/>
	<path class="st0" d="M1432,399.9l-6.9-12h13.8L1432,399.9z"/>
	<path class="st0" d="M1192.1,376l6.9,12h-13.8L1192.1,376z"/>
	<path class="st0" d="M1192.1,399.9l-6.9-12h13.8L1192.1,399.9z"/>
	<path class="st0" d="M1003.6,376l6.9,12h-13.8L1003.6,376z"/>
	<path class="st0" d="M1003.6,399.9l-6.9-12h13.8L1003.6,399.9z"/>
	<path class="st0" d="M688.6,376l6.9,12h-13.8L688.6,376z"/>
	<path class="st0" d="M688.6,399.9l-6.9-12h13.8L688.6,399.9z"/>
	<path class="st0" d="M516.8,376l6.9,12h-13.8L516.8,376z"/>
	<path class="st0" d="M516.8,399.9l-6.9-12h13.8L516.8,399.9z"/>
	<path class="st0" d="M258.2,376l6.9,12h-13.8L258.2,376z"/>
	<path class="st0" d="M258.2,399.9l-6.9-12h13.8L258.2,399.9z"/>
	<path class="st1" d="M1043.3,375.1c2.8,0,5,0.8,6.5,2.3c1.6,1.5,2.3,3.5,2.3,5.9c0,2.4-0.8,4.4-2.4,6c-1.6,1.6-3.7,2.3-6.5,2.3
		h-7.3v9.1h-3v-25.7H1043.3z M1043.2,388.8c1.9,0,3.4-0.5,4.4-1.5c1-1,1.5-2.3,1.5-3.9c0-1.6-0.5-2.8-1.5-3.9c-1-1-2.5-1.5-4.4-1.5
		h-7.2v10.8H1043.2z"/>
	<path class="st1" d="M1073.6,400.8l-8-9.9h-5v9.9h-3v-25.7h10.2c2.8,0,4.9,0.7,6.4,2.2c1.5,1.4,2.3,3.3,2.3,5.7
		c0,2.2-0.6,3.9-1.9,5.3c-1.2,1.4-3,2.2-5.3,2.5l8.2,10H1073.6z M1060.6,378v10.1h6.8c2,0,3.4-0.5,4.4-1.4c1-1,1.5-2.2,1.5-3.7
		c0-1.5-0.5-2.7-1.5-3.6c-1-0.9-2.5-1.4-4.4-1.4H1060.6z"/>
	<path class="st1" d="M1081.5,400.8v-25.7h3v25.7H1081.5z"/>
	<path class="st1" d="M1108.8,375.1h3v25.7h-3.8l-14.5-21.6l0.3,10.9v10.7h-3.1v-25.7h3.7l14.5,21.6l-0.3-10.9V375.1z"/>
	<path class="st1" d="M1130.3,401.2c-3.8,0-6.9-1.3-9.5-3.8c-2.5-2.5-3.7-5.7-3.7-9.5s1.2-6.9,3.7-9.5c2.5-2.5,5.7-3.8,9.5-3.8
		c2.9,0,5.4,0.8,7.6,2.3c2.2,1.5,3.7,3.6,4.6,6.2h-3.3c-0.8-1.7-2-3.1-3.6-4.1c-1.6-1-3.4-1.5-5.4-1.5c-2.9,0-5.3,1-7.2,3
		c-1.9,2-2.9,4.4-2.9,7.4c0,3,1,5.4,2.9,7.4c1.9,2,4.3,2.9,7.2,2.9c2,0,3.8-0.5,5.4-1.5c1.6-1,2.8-2.4,3.6-4.1h3.3
		c-0.9,2.6-2.4,4.7-4.6,6.3C1135.7,400.4,1133.1,401.2,1130.3,401.2z"/>
	<path class="st1" d="M1163.6,378h-13.2v8.1h12.4v2.9h-12.4v8.8h13.2v2.9h-16.3v-25.7h16.3V378z"/>
	<path class="st1" d="M1240.2,375.1v2.9h-8.3v22.8h-3.1V378h-8.2v-2.9H1240.2z"/>
	<path class="st1" d="M1260.1,400.8l-3-7.7h-11.9l-3,7.7h-3.2l10.3-25.7h3.9l10.3,25.7H1260.1z M1246.3,390.2h9.6l-4.8-12.2
		L1246.3,390.2z"/>
	<path class="st1" d="M1270.8,397.9h12.4v2.9h-15.4v-25.7h3V397.9z"/>
	<path class="st1" d="M1287.7,400.8v-25.7h3v25.7H1287.7z"/>
	<path class="st1" d="M1322.9,387.1c3,0.8,4.4,3,4.4,6.5c0,2.2-0.7,4-2.2,5.2c-1.4,1.2-3.5,1.9-6.2,1.9h-10.8v-25.7h10.6
		c2.6,0,4.5,0.6,5.8,1.7c1.3,1.1,2,2.7,2,4.8C1326.5,384.3,1325.3,386.1,1322.9,387.1z M1323.4,382.1c0-1.3-0.4-2.4-1.2-3
		c-0.8-0.7-2.1-1-3.9-1h-7.2v8.1h7.1c1.9,0,3.2-0.3,4-1C1323.1,384.4,1323.4,383.4,1323.4,382.1z M1318.9,397.9
		c3.6,0,5.4-1.5,5.4-4.4c0-1.5-0.4-2.6-1.3-3.4c-0.8-0.8-2.2-1.2-4.2-1.2h-7.6v9H1318.9z"/>
	<path class="st1" d="M1350.5,400.8l-3-7.7h-11.9l-3,7.7h-3.2l10.3-25.7h3.9l10.3,25.7H1350.5z M1336.7,390.2h9.6l-4.8-12.2
		L1336.7,390.2z"/>
	<path class="st1" d="M1372.9,387.1c3,0.8,4.4,3,4.4,6.5c0,2.2-0.7,4-2.2,5.2c-1.4,1.2-3.5,1.9-6.2,1.9h-10.8v-25.7h10.6
		c2.6,0,4.5,0.6,5.8,1.7c1.3,1.1,2,2.7,2,4.8C1376.6,384.3,1375.3,386.1,1372.9,387.1z M1373.5,382.1c0-1.3-0.4-2.4-1.2-3
		c-0.8-0.7-2.1-1-3.9-1h-7.2v8.1h7.1c1.8,0,3.2-0.3,4-1C1373.1,384.4,1373.5,383.4,1373.5,382.1z M1368.9,397.9
		c3.6,0,5.4-1.5,5.4-4.4c0-1.5-0.4-2.6-1.3-3.4c-0.9-0.8-2.2-1.2-4.2-1.2h-7.6v9H1368.9z"/>
	<path class="st1" d="M1400.5,400.8l-3-7.7h-11.9l-3,7.7h-3.2l10.3-25.7h3.9l10.3,25.7H1400.5z M1386.7,390.2h9.6l-4.8-12.2
		L1386.7,390.2z"/>
	<path class="st1" d="M1479.5,375.1h3.2l-9.2,25.7h-3.9l-9.2-25.7h3.2l7.9,22.3L1479.5,375.1z"/>
	<path class="st1" d="M1503.3,400.8l-3-7.7h-11.9l-3,7.7h-3.2l10.3-25.7h3.9l10.3,25.7H1503.3z M1489.5,390.2h9.6l-4.8-12.2
		L1489.5,390.2z"/>
	<path class="st1" d="M1513.2,397.9h14.8v2.9h-18.6v-2.9l14.8-19.9H1510v-2.9h17.9v2.9L1513.2,397.9z"/>
	<path class="st1" d="M8.7,375.1c3.8,0,6.9,1.2,9.4,3.6c2.5,2.4,3.8,5.5,3.8,9.2c0,3.7-1.3,6.8-3.8,9.2c-2.5,2.4-5.6,3.6-9.4,3.6H0
		v-25.7H8.7z M8.7,397.9c2.9,0,5.3-0.9,7.2-2.8c1.9-1.9,2.9-4.3,2.9-7.2c0-2.9-1-5.3-2.9-7.1C14,379,11.6,378,8.7,378H3v19.9H8.7z"
		/>
	<path class="st1" d="M43.2,400.8l-8-9.9h-5v9.9h-3v-25.7h10.2c2.8,0,4.9,0.7,6.4,2.2c1.5,1.4,2.3,3.3,2.3,5.7
		c0,2.2-0.6,3.9-1.9,5.3c-1.2,1.4-3,2.2-5.3,2.5l8.2,10H43.2z M30.2,378v10.1H37c2,0,3.4-0.5,4.4-1.4c1-1,1.5-2.2,1.5-3.7
		c0-1.5-0.5-2.7-1.5-3.6c-1-0.9-2.5-1.4-4.4-1.4H30.2z"/>
	<path class="st1" d="M52.1,397.7c0.4-0.4,0.9-0.6,1.5-0.6c0.6,0,1.1,0.2,1.5,0.6c0.4,0.4,0.6,0.9,0.6,1.5c0,0.6-0.2,1.1-0.6,1.5
		c-0.4,0.4-0.9,0.6-1.5,0.6c-0.6,0-1.1-0.2-1.5-0.6c-0.4-0.4-0.6-0.9-0.6-1.5C51.5,398.5,51.7,398.1,52.1,397.7z"/>
	<path class="st1" d="M71.1,386.3c1.8,0.4,3.1,0.7,4.1,1.1c1,0.3,2,0.8,3,1.3c1,0.5,1.6,1.2,2,2c0.4,0.8,0.6,1.8,0.6,3
		c0,2.5-0.9,4.4-2.7,5.6c-1.8,1.3-4,1.9-6.7,1.9c-3.2,0-5.7-0.7-7.6-2.2c-1.8-1.5-2.9-3.4-3.3-5.9h3.1c0.9,3.5,3.4,5.2,7.7,5.2
		c2,0,3.6-0.4,4.7-1.2c1.1-0.8,1.7-1.9,1.7-3.4c0-1.3-0.5-2.2-1.5-2.8c-1-0.5-3-1.1-5.8-1.8c-1.5-0.3-2.8-0.7-3.8-1
		c-1-0.3-1.9-0.7-2.8-1.2c-0.9-0.5-1.5-1.2-1.9-2c-0.4-0.8-0.6-1.8-0.6-2.9c0-2.3,0.9-4.1,2.6-5.5c1.8-1.3,4-2,6.6-2
		c2.9,0,5.1,0.6,6.8,1.9c1.7,1.2,2.7,2.9,3.2,4.9h-3.1c-1-2.6-3.3-4-6.9-4c-1.9,0-3.4,0.4-4.5,1.2c-1.1,0.8-1.7,1.9-1.7,3.3
		c0,1.1,0.5,1.8,1.4,2.4C66.7,385.1,68.5,385.7,71.1,386.3z"/>
	<path class="st1" d="M103.6,375.1h3v25.7h-3V389H88.7v11.8h-3v-25.7h3v11h14.9V375.1z"/>
	<path class="st1" d="M132.4,400.8l-3-7.7h-11.9l-3,7.7h-3.2l10.3-25.7h3.9l10.3,25.7H132.4z M118.6,390.2h9.6l-4.8-12.2
		L118.6,390.2z"/>
	<path class="st1" d="M148.8,375.1c3.8,0,6.9,1.2,9.4,3.6c2.5,2.4,3.8,5.5,3.8,9.2c0,3.7-1.3,6.8-3.8,9.2c-2.5,2.4-5.6,3.6-9.4,3.6
		h-8.7v-25.7H148.8z M148.8,397.9c2.9,0,5.3-0.9,7.2-2.8c1.9-1.9,2.9-4.3,2.9-7.2c0-2.9-1-5.3-2.9-7.1c-1.9-1.9-4.3-2.8-7.2-2.8
		h-5.7v19.9H148.8z"/>
	<path class="st1" d="M170,378.5c2.6-2.5,5.7-3.8,9.5-3.8c3.7,0,6.9,1.3,9.4,3.8c2.5,2.5,3.8,5.7,3.8,9.4c0,3.8-1.3,6.9-3.8,9.5
		c-2.5,2.5-5.7,3.8-9.4,3.8c-3.7,0-6.9-1.3-9.4-3.8c-2.5-2.5-3.8-5.7-3.8-9.5C166.2,384.2,167.4,381,170,378.5z M179.4,377.6
		c-2.9,0-5.3,1-7.2,3c-2,2-2.9,4.4-2.9,7.4c0,2.9,1,5.4,2.9,7.4c2,2,4.4,3,7.2,3c2.9,0,5.3-1,7.2-2.9c2-2,2.9-4.5,2.9-7.4
		c0-3-1-5.4-2.9-7.4C184.7,378.6,182.3,377.6,179.4,377.6z"/>
	<path class="st1" d="M225.8,375.1h3.2l-7.2,25.7H218l-2.6-9.3l-3.2-12.7h-0.6l-3.2,12.7l-2.6,9.3h-3.9l-7.2-25.7h3.2l3.4,12.3
		l2.6,10.3l2.5-10.3l3.4-12.3h3.9l3.4,12.3l2.6,10.3l2.6-10.3L225.8,375.1z"/>
	<path class="st1" d="M287.4,400.8v-25.7h3v25.7H287.4z"/>
	<path class="st1" d="M314.7,375.1h3v25.7h-3.8l-14.5-21.6l0.3,10.9v10.7h-3v-25.7h3.7l14.5,21.6l-0.3-10.9V375.1z"/>
	<path class="st1" d="M336.1,401.2c-3.8,0-6.9-1.3-9.5-3.8c-2.5-2.5-3.7-5.7-3.7-9.5s1.2-6.9,3.7-9.5c2.5-2.5,5.7-3.8,9.5-3.8
		c2.9,0,5.4,0.8,7.6,2.3c2.2,1.5,3.7,3.6,4.6,6.2H345c-0.8-1.7-2-3.1-3.6-4.1c-1.6-1-3.4-1.5-5.4-1.5c-2.9,0-5.3,1-7.2,3
		c-1.9,2-2.9,4.4-2.9,7.4c0,3,1,5.4,2.9,7.4c1.9,2,4.3,2.9,7.2,2.9c2,0,3.8-0.5,5.4-1.5c1.6-1,2.8-2.4,3.6-4.1h3.3
		c-0.9,2.6-2.4,4.7-4.6,6.3C341.5,400.4,339,401.2,336.1,401.2z"/>
	<path class="st1" d="M369.2,400.8l-8-9.9h-5v9.9h-3v-25.7h10.2c2.8,0,4.9,0.7,6.4,2.2c1.5,1.4,2.3,3.3,2.3,5.7
		c0,2.2-0.6,3.9-1.9,5.3c-1.2,1.4-3,2.2-5.3,2.5l8.2,10H369.2z M356.2,378v10.1h6.8c2,0,3.4-0.5,4.4-1.4c1-1,1.5-2.2,1.5-3.7
		c0-1.5-0.5-2.7-1.5-3.6c-1-0.9-2.5-1.4-4.4-1.4H356.2z"/>
	<path class="st1" d="M393.7,378h-13.2v8.1h12.4v2.9h-12.4v8.8h13.2v2.9h-16.3v-25.7h16.3V378z"/>
	<path class="st1" d="M417.8,400.8l-3-7.7h-11.9l-3,7.7h-3.2l10.3-25.7h3.9l10.3,25.7H417.8z M404.1,390.2h9.6l-4.8-12.2
		L404.1,390.2z"/>
	<path class="st1" d="M433.1,386.3c1.8,0.4,3.1,0.7,4.1,1.1c1,0.3,2,0.8,3,1.3c1,0.5,1.6,1.2,2,2c0.4,0.8,0.6,1.8,0.6,3
		c0,2.5-0.9,4.4-2.7,5.6c-1.8,1.3-4,1.9-6.7,1.9c-3.2,0-5.7-0.7-7.6-2.2c-1.8-1.5-2.9-3.4-3.3-5.9h3.1c0.9,3.5,3.4,5.2,7.7,5.2
		c2,0,3.6-0.4,4.7-1.2c1.1-0.8,1.7-1.9,1.7-3.4c0-1.3-0.5-2.2-1.5-2.8c-1-0.5-3-1.1-5.8-1.8c-1.5-0.3-2.8-0.7-3.8-1
		c-1-0.3-1.9-0.7-2.8-1.2c-0.9-0.5-1.5-1.2-1.9-2c-0.4-0.8-0.6-1.8-0.6-2.9c0-2.3,0.9-4.1,2.6-5.5c1.8-1.3,4-2,6.6-2
		c2.9,0,5.1,0.6,6.8,1.9c1.7,1.2,2.7,2.9,3.2,4.9h-3.1c-1-2.6-3.3-4-6.9-4c-1.9,0-3.4,0.4-4.5,1.2c-1.1,0.8-1.6,1.9-1.6,3.3
		c0,1.1,0.5,1.8,1.4,2.4C428.6,385.1,430.4,385.7,433.1,386.3z"/>
	<path class="st1" d="M463.9,378h-13.2v8.1h12.4v2.9h-12.4v8.8h13.2v2.9h-16.3v-25.7h16.3V378z"/>
	<path class="st1" d="M477.7,386.3c1.8,0.4,3.1,0.7,4.1,1.1c1,0.3,2,0.8,3,1.3c1,0.5,1.6,1.2,2,2c0.4,0.8,0.6,1.8,0.6,3
		c0,2.5-0.9,4.4-2.7,5.6c-1.8,1.3-4,1.9-6.7,1.9c-3.2,0-5.7-0.7-7.6-2.2c-1.8-1.5-2.9-3.4-3.3-5.9h3.1c0.9,3.5,3.4,5.2,7.7,5.2
		c2,0,3.6-0.4,4.7-1.2c1.1-0.8,1.7-1.9,1.7-3.4c0-1.3-0.5-2.2-1.5-2.8c-1-0.5-3-1.1-5.8-1.8c-1.5-0.3-2.8-0.7-3.8-1
		c-1-0.3-1.9-0.7-2.8-1.2c-0.9-0.5-1.5-1.2-1.9-2c-0.4-0.8-0.6-1.8-0.6-2.9c0-2.3,0.9-4.1,2.6-5.5c1.8-1.3,4-2,6.6-2
		c2.9,0,5.1,0.6,6.8,1.9c1.7,1.2,2.7,2.9,3.2,4.9H484c-1-2.6-3.3-4-6.9-4c-1.9,0-3.4,0.4-4.5,1.2c-1.1,0.8-1.7,1.9-1.7,3.3
		c0,1.1,0.5,1.8,1.4,2.4C473.3,385.1,475.1,385.7,477.7,386.3z"/>
	<path class="st1" d="M549.1,397.9h12.4v2.9h-15.4v-25.7h3V397.9z"/>
	<path class="st1" d="M582.3,378H569v8.1h12.4v2.9H569v8.8h13.2v2.9H566v-25.7h16.3V378z"/>
	<path class="st1" d="M596,386.3c1.8,0.4,3.1,0.7,4.1,1.1c1,0.3,2,0.8,3,1.3c1,0.5,1.6,1.2,2,2c0.4,0.8,0.6,1.8,0.6,3
		c0,2.5-0.9,4.4-2.7,5.6c-1.8,1.3-4,1.9-6.7,1.9c-3.2,0-5.7-0.7-7.6-2.2c-1.8-1.5-2.9-3.4-3.3-5.9h3.1c0.9,3.5,3.4,5.2,7.7,5.2
		c2,0,3.6-0.4,4.7-1.2c1.1-0.8,1.7-1.9,1.7-3.4c0-1.3-0.5-2.2-1.5-2.8c-1-0.5-3-1.1-5.8-1.8c-1.5-0.3-2.8-0.7-3.8-1
		c-1-0.3-1.9-0.7-2.8-1.2c-0.9-0.5-1.5-1.2-1.9-2c-0.4-0.8-0.6-1.8-0.6-2.9c0-2.3,0.9-4.1,2.6-5.5c1.8-1.3,4-2,6.6-2
		c2.9,0,5.1,0.6,6.8,1.9c1.7,1.2,2.7,2.9,3.2,4.9h-3.1c-1-2.6-3.3-4-6.9-4c-1.9,0-3.4,0.4-4.5,1.2c-1.1,0.8-1.7,1.9-1.7,3.3
		c0,1.1,0.5,1.8,1.4,2.4C591.6,385.1,593.4,385.7,596,386.3z"/>
	<path class="st1" d="M629.6,400.8l-3-7.7h-11.9l-3,7.7h-3.2l10.3-25.7h3.9l10.3,25.7H629.6z M615.8,390.2h9.6l-4.8-12.2
		L615.8,390.2z"/>
	<path class="st1" d="M646,375.1c3.8,0,6.9,1.2,9.4,3.6c2.5,2.4,3.8,5.5,3.8,9.2c0,3.7-1.3,6.8-3.8,9.2c-2.5,2.4-5.6,3.6-9.4,3.6
		h-8.7v-25.7H646z M646,397.9c2.9,0,5.3-0.9,7.2-2.8c1.9-1.9,2.9-4.3,2.9-7.2c0-2.9-1-5.3-2.9-7.1c-1.9-1.9-4.3-2.8-7.2-2.8h-5.7
		v19.9H646z"/>
	<path class="st1" d="M738,375.1h3.7v25.7h-3V379l-8.7,13.1h-0.3L721,379v21.7h-3v-25.7h3.7l8.1,12.2L738,375.1z"/>
	<path class="st1" d="M767.5,400.8l-3-7.7h-11.9l-3,7.7h-3.2l10.3-25.7h3.9l10.3,25.7H767.5z M753.7,390.2h9.6l-4.8-12.2
		L753.7,390.2z"/>
	<path class="st1" d="M791.3,400.8l-8-9.9h-5v9.9h-3v-25.7h10.2c2.8,0,4.9,0.7,6.4,2.2c1.5,1.4,2.3,3.3,2.3,5.7
		c0,2.2-0.6,3.9-1.9,5.3c-1.2,1.4-3,2.2-5.3,2.5l8.2,10H791.3z M778.2,378v10.1h6.8c2,0,3.4-0.5,4.4-1.4c1-1,1.5-2.2,1.5-3.7
		c0-1.5-0.5-2.7-1.5-3.6c-1-0.9-2.5-1.4-4.4-1.4H778.2z"/>
	<path class="st1" d="M799.2,400.8v-25.7h3v25.7H799.2z"/>
	<path class="st1" d="M828,400.8l-3-7.7H813l-3,7.7h-3.2l10.3-25.7h3.9l10.3,25.7H828z M814.2,390.2h9.6L819,378L814.2,390.2z"/>
	<path class="st1" d="M855.5,375.1h3.7v25.7h-3V379l-8.7,13.1h-0.3l-8.7-13.1v21.7h-3v-25.7h3.7l8.1,12.2L855.5,375.1z"/>
	<path class="st1" d="M896,400.8l-3-7.7H881l-3,7.7h-3.2l10.3-25.7h3.9l10.3,25.7H896z M882.2,390.2h9.6L887,378L882.2,390.2z"/>
	<path class="st1" d="M919.7,400.8l-8-9.9h-5v9.9h-3v-25.7h10.2c2.8,0,4.9,0.7,6.4,2.2c1.5,1.4,2.3,3.3,2.3,5.7
		c0,2.2-0.6,3.9-1.9,5.3c-1.2,1.4-3,2.2-5.3,2.5l8.2,10H919.7z M906.7,378v10.1h6.8c2,0,3.4-0.5,4.4-1.4c1-1,1.5-2.2,1.5-3.7
		c0-1.5-0.5-2.7-1.5-3.6c-1-0.9-2.5-1.4-4.4-1.4H906.7z"/>
	<path class="st1" d="M947.3,400.8l-3-7.7h-11.9l-3,7.7H926l10.3-25.7h3.9l10.3,25.7H947.3z M933.5,390.2h9.6l-4.8-12.2L933.5,390.2
		z"/>
	<path class="st1" d="M969.7,387.1c3,0.8,4.4,3,4.4,6.5c0,2.2-0.7,4-2.2,5.2c-1.4,1.2-3.5,1.9-6.2,1.9H955v-25.7h10.6
		c2.6,0,4.5,0.6,5.8,1.7c1.3,1.1,2,2.7,2,4.8C973.3,384.3,972.1,386.1,969.7,387.1z M970.3,382.1c0-1.3-0.4-2.4-1.2-3
		c-0.8-0.7-2.1-1-3.9-1H958v8.1h7.1c1.9,0,3.2-0.3,4-1C969.9,384.4,970.3,383.4,970.3,382.1z M965.7,397.9c3.6,0,5.4-1.5,5.4-4.4
		c0-1.5-0.4-2.6-1.3-3.4c-0.9-0.8-2.2-1.2-4.2-1.2H958v9H965.7z"/>
	<path class="st1" d="M19.5,19.2c3.5,0.7,6.3,1.4,8.4,2.2c2.1,0.7,4.1,1.6,5.8,2.8c1.8,1.1,3,2.4,3.7,4.1c0.8,1.6,1.1,3.6,1.1,5.9
		c0,2.6-0.6,4.9-1.7,7c-1.1,2-2.5,3.5-4.4,4.6c-1.8,1.1-3.7,1.9-5.7,2.4c-2,0.5-4,0.8-6.1,0.8c-6.4,0-11.3-1.5-14.7-4.5
		C2.5,41.3,0.6,37.5,0,32.9h9.7c0.7,2.4,1.8,4.2,3.4,5.3c1.7,1.1,4.1,1.7,7.4,1.7c2.7,0,4.7-0.5,6.1-1.4c1.4-0.9,2.2-2.3,2.2-4
		c0-1.1-0.4-1.9-1.2-2.6c-0.8-0.7-1.7-1.2-2.8-1.5c-1.1-0.3-3.1-0.8-6-1.4c-0.2,0-0.4-0.1-0.5-0.1c-0.1,0-0.2-0.1-0.5-0.1
		c-0.2,0-0.4-0.1-0.5-0.1c-2.4-0.5-4.5-1-6.1-1.6c-1.7-0.6-3.3-1.4-4.9-2.4c-1.6-1-2.9-2.4-3.7-4c-0.8-1.6-1.2-3.6-1.2-5.8
		c0-4.7,1.8-8.3,5.3-10.9C10,1.3,14.2,0,19,0C25,0,29.5,1.4,32.5,4.1c3.1,2.7,5,6.2,5.5,10.5h-9.8C27.1,10.9,24.1,9,19.1,9
		c-2.7,0-4.8,0.5-6.1,1.6c-1.4,1-2,2.3-2,3.9c0,1.3,0.6,2.3,1.7,2.8C13.8,17.9,16.1,18.5,19.5,19.2z"/>
	<path class="st1" d="M77.9,10H55.9v9.5h20.3v9.2H55.9v10.2h22.1v9.2H46.2V0.8h31.7V10z"/>
	<path class="st1" d="M119.3,0.8V10h-13.6v38.1H96V10H82.4V0.8H119.3z"/>
	<path class="st1" d="M156.9,0.8h9.7v47.3h-9.7V28.5h-21v19.6h-9.7V0.8h9.7v18.5h21V0.8z"/>
	<path class="st1" d="M227.7,0.8h9.7v47.3h-9.7V28.5h-21v19.6H197V0.8h9.7v18.5h21V0.8z"/>
	<path class="st1" d="M247.6,48.1V0.8h9.7v47.3H247.6z"/>
	<path class="st1" d="M277.1,38.9h20.3v9.2h-29.9V0.8h9.7V38.9z"/>
	<path class="st1" d="M314,38.9h20.3v9.2h-29.9V0.8h9.7V38.9z"/>
	<path class="st1" d="M357.8,19.2c3.5,0.7,6.3,1.4,8.4,2.2c2.1,0.7,4.1,1.6,5.8,2.8c1.8,1.1,3,2.4,3.7,4.1c0.8,1.6,1.1,3.6,1.1,5.9
		c0,2.6-0.6,4.9-1.7,7c-1.1,2-2.5,3.5-4.4,4.6c-1.8,1.1-3.7,1.9-5.7,2.4c-2,0.5-4,0.8-6.1,0.8c-6.4,0-11.3-1.5-14.7-4.5
		c-3.3-3.1-5.3-6.9-5.9-11.5h9.7c0.7,2.4,1.8,4.2,3.4,5.3c1.7,1.1,4.1,1.7,7.4,1.7c2.7,0,4.7-0.5,6.1-1.4c1.4-0.9,2.2-2.3,2.2-4
		c0-1.1-0.4-1.9-1.2-2.6c-0.8-0.7-1.7-1.2-2.8-1.5c-1.1-0.3-3.1-0.8-6-1.4c-0.2,0-0.4-0.1-0.5-0.1c-0.1,0-0.2-0.1-0.5-0.1
		c-0.2,0-0.4-0.1-0.5-0.1c-2.4-0.5-4.5-1-6.1-1.6c-1.7-0.6-3.3-1.4-4.9-2.4c-1.6-1-2.9-2.4-3.7-4c-0.8-1.6-1.2-3.6-1.2-5.8
		c0-4.7,1.8-8.3,5.3-10.9c3.5-2.6,7.7-3.9,12.6-3.9c5.9,0,10.4,1.4,13.5,4.1c3.1,2.7,5,6.2,5.5,10.5h-9.8c-1.2-3.8-4.2-5.7-9.2-5.7
		c-2.7,0-4.8,0.5-6.1,1.6c-1.4,1-2,2.3-2,3.9c0,1.3,0.6,2.3,1.7,2.8C352.1,17.9,354.4,18.5,357.8,19.2z"/>
	<path class="st0" d="M388.6,36.3h2.4v11.8h-2.8l-5.1-8.3l0.2,3.3v4.9h-2.4V36.3h2.8l5.1,8.3l-0.2-3.3V36.3z"/>
	<path class="st0" d="M395.9,45.8h5.1v2.3h-7.5V36.3h2.4V45.8z"/>
	<path class="st1" d="M490.2,0.8h11.1v47.3h-9.7V14.2l-13.2,19.9h-0.9l-13.1-19.9v33.9h-9.7V0.8H466L478.2,19L490.2,0.8z"/>
	<path class="st1" d="M543.3,10h-22.1v9.5h20.3v9.2h-20.3v10.2h22.1v9.2h-31.7V0.8h31.7V10z"/>
	<path class="st1" d="M567.9,19.2c3.5,0.7,6.3,1.4,8.4,2.2s4,1.6,5.8,2.8c1.8,1.1,3,2.4,3.7,4.1c0.8,1.6,1.1,3.6,1.1,5.9
		c0,2.6-0.6,4.9-1.7,7c-1.1,2-2.5,3.5-4.4,4.6c-1.8,1.1-3.7,1.9-5.7,2.4c-2,0.5-4,0.8-6.1,0.8c-6.4,0-11.3-1.5-14.7-4.5
		c-3.3-3.1-5.3-6.9-5.9-11.5h9.7c0.7,2.4,1.8,4.2,3.4,5.3c1.7,1.1,4.1,1.7,7.4,1.7c2.7,0,4.7-0.5,6.1-1.4c1.4-0.9,2.2-2.3,2.2-4
		c0-1.1-0.4-1.9-1.2-2.6c-0.8-0.7-1.7-1.2-2.8-1.5c-1.1-0.3-3.1-0.8-6-1.4c-0.2,0-0.4-0.1-0.5-0.1c-0.1,0-0.2-0.1-0.5-0.1
		c-0.2,0-0.4-0.1-0.5-0.1c-2.4-0.5-4.5-1-6.1-1.6c-1.7-0.6-3.3-1.4-4.9-2.4c-1.6-1-2.9-2.4-3.7-4c-0.8-1.6-1.2-3.6-1.2-5.8
		c0-4.7,1.8-8.3,5.3-10.9c3.5-2.6,7.7-3.9,12.6-3.9c5.9,0,10.4,1.4,13.5,4.1c3.1,2.7,5,6.2,5.5,10.5h-9.8c-1.2-3.8-4.2-5.7-9.2-5.7
		c-2.7,0-4.8,0.5-6.1,1.6c-1.4,1-2,2.3-2,3.9c0,1.3,0.6,2.3,1.7,2.8C562.2,17.9,564.5,18.5,567.9,19.2z"/>
	<path class="st1" d="M628,0.8V10h-13.6v38.1h-9.7V10h-13.6V0.8H628z"/>
	<path class="st1" d="M639.5,7c4.7-4.7,10.6-7,17.6-7s12.8,2.3,17.6,7c4.7,4.7,7.1,10.5,7.1,17.4c0,6.9-2.4,12.7-7.1,17.4
		c-4.7,4.7-10.6,7-17.6,7s-12.8-2.3-17.6-7c-4.7-4.7-7-10.5-7-17.4C632.5,17.5,634.8,11.7,639.5,7z M667.7,13.5
		c-2.8-2.9-6.3-4.3-10.6-4.3c-4.3,0-7.8,1.4-10.7,4.3c-2.8,2.9-4.2,6.5-4.2,10.9c0,4.4,1.4,8.1,4.2,10.9c2.8,2.9,6.4,4.3,10.7,4.3
		c4.3,0,7.8-1.4,10.6-4.3c2.8-2.9,4.3-6.5,4.3-10.9C671.9,20,670.5,16.4,667.7,13.5z"/>
	<path class="st0" d="M693.8,36.3h2.4v11.8h-2.8l-5.1-8.3l0.2,3.3v4.9h-2.4V36.3h2.8l5.1,8.3l-0.2-3.3V36.3z"/>
	<path class="st0" d="M701.1,45.8h5.1v2.3h-7.5V36.3h2.4V45.8z"/>
	<path class="st1" d="M798.2,48.1h-9.7l-20-22.5v22.5H761V0.8h7.6v21.6l19.1-21.6h9.6l-20.4,23L798.2,48.1z"/>
	<path class="st1" d="M840.6,48.1l-4.8-12.7h-20.5l-4.8,12.7h-8.1l18.3-47.3h9.7l18.3,47.3H840.6z M818.1,28.2h15l-7.5-19.8
		L818.1,28.2z"/>
	<path class="st1" d="M891.1,48.1l-4.8-12.7h-20.5L861,48.1h-8.1l18.3-47.3h9.7l18.3,47.3H891.1z M868.6,28.2h15l-7.5-19.8
		L868.6,28.2z"/>
	<path class="st1" d="M913.6,40.8h25.2v7.3h-34.7v-7.3l25.1-32.7h-24V0.8h33.5v7.3L913.6,40.8z"/>
	<path class="st1" d="M977.9,8.1h-23.2v12.2h21.5v7.3h-21.5v13.2h23.2v7.3h-30.9V0.8h30.9V8.1z"/>
	<path class="st0" d="M986.5,41.1c0.8,0.2,1.5,0.4,2,0.5c0.5,0.2,1,0.4,1.4,0.6c0.4,0.3,0.7,0.6,0.9,1c0.2,0.4,0.3,0.9,0.3,1.4
		c0,1.2-0.4,2.1-1.3,2.7c-0.9,0.6-1.9,0.9-3.1,0.9c-1.5,0-2.7-0.4-3.6-1.1c-0.8-0.7-1.3-1.7-1.5-2.8h1.9c0.2,0.7,0.5,1.2,1,1.6
		c0.5,0.3,1.2,0.5,2.1,0.5c0.8,0,1.4-0.1,1.8-0.4c0.4-0.3,0.7-0.7,0.7-1.3c0-0.5-0.2-0.8-0.6-1c-0.4-0.2-1.2-0.4-2.4-0.7
		c-0.1,0-0.1,0-0.2,0c-0.7-0.1-1.2-0.3-1.6-0.4c-0.4-0.1-0.8-0.3-1.3-0.6c-0.4-0.2-0.7-0.6-0.9-0.9c-0.2-0.4-0.3-0.9-0.3-1.4
		c0-1.1,0.4-2,1.3-2.6c0.8-0.6,1.9-1,3.1-1c1.4,0,2.5,0.3,3.2,0.9c0.8,0.6,1.3,1.5,1.4,2.5H989c-0.4-1.1-1.3-1.6-2.7-1.6
		c-0.8,0-1.4,0.2-1.8,0.5c-0.4,0.3-0.6,0.7-0.6,1.3c0,0.4,0.2,0.7,0.5,0.9C984.8,40.7,985.5,40.9,986.5,41.1z"/>
	<path class="st0" d="M1000.9,38.1h-5.8v3.1h5.4V43h-5.4v3.3h5.8v1.8h-7.7V36.3h7.7V38.1z"/>
	<path class="st1" d="M1089.6,0.8V10H1076v38.1h-9.7V10h-13.6V0.8H1089.6z"/>
	<path class="st1" d="M1101.1,7c4.7-4.7,10.6-7,17.6-7c7,0,12.8,2.3,17.5,7c4.7,4.7,7.1,10.5,7.1,17.4s-2.4,12.7-7.1,17.4
		c-4.7,4.7-10.6,7-17.5,7c-7,0-12.8-2.3-17.6-7c-4.7-4.7-7-10.5-7-17.4S1096.4,11.7,1101.1,7z M1129.3,13.5
		c-2.8-2.9-6.3-4.3-10.6-4.3c-4.3,0-7.8,1.4-10.7,4.3c-2.8,2.9-4.2,6.5-4.2,10.9c0,4.4,1.4,8.1,4.2,10.9c2.8,2.9,6.4,4.3,10.7,4.3
		c4.3,0,7.8-1.4,10.6-4.3c2.8-2.9,4.2-6.5,4.2-10.9C1133.5,20,1132.1,16.4,1129.3,13.5z"/>
	<path class="st1" d="M1180.8,22.6c2.5,0.8,4.3,2.3,5.6,4.4c1.3,2.1,1.9,4.5,1.9,7.4c0,4.3-1.4,7.6-4.3,10.1
		c-2.8,2.4-6.7,3.6-11.6,3.6h-20.9V0.8h20.7c4.5,0,8,1.1,10.5,3.2c2.6,2.1,3.9,5.2,3.9,9.1C1186.7,17.5,1184.7,20.6,1180.8,22.6z
		 M1177,14.7c0-1.7-0.5-2.9-1.5-3.6c-0.9-0.7-2.5-1.1-4.5-1.1h-9.8v9.5h10C1175,19.5,1177,17.9,1177,14.7z M1172.2,38.9
		c2.3,0,4-0.5,4.9-1.4c0.9-0.9,1.4-2.2,1.4-3.9c0-1.8-0.5-3.1-1.4-4c-0.9-0.9-2.6-1.3-5-1.3h-10.9v10.5H1172.2z"/>
	<path class="st1" d="M1233.9,0.8l-16.7,31.7v15.6h-9.7l0.1-15.5l-16.7-31.7h10.9l10.7,20.9l10.7-20.9H1233.9z"/>
	<path class="st1" d="M1288.4,48.1l-12.2-17h-5.3v17h-9.7V0.8h20.3c5,0,9,1.4,11.8,4.2c2.9,2.7,4.3,6.5,4.3,11.2
		c0,3.8-0.9,6.9-2.8,9.2c-1.8,2.4-4.5,4-7.8,4.9l13.2,17.8H1288.4z M1270.9,10v12.6h9.6c2.5,0,4.3-0.5,5.5-1.6
		c1.3-1.1,1.9-2.7,1.9-4.7s-0.6-3.5-1.9-4.7c-1.3-1.1-3.1-1.7-5.5-1.7H1270.9z"/>
	<path class="st1" d="M1310.3,7c4.7-4.7,10.6-7,17.5-7c7,0,12.8,2.3,17.6,7c4.7,4.7,7.1,10.5,7.1,17.4s-2.4,12.7-7.1,17.4
		c-4.7,4.7-10.6,7-17.6,7c-7,0-12.8-2.3-17.5-7c-4.7-4.7-7-10.5-7-17.4S1305.6,11.7,1310.3,7z M1338.5,13.5
		c-2.8-2.9-6.3-4.3-10.6-4.3c-4.3,0-7.8,1.4-10.7,4.3c-2.8,2.9-4.2,6.5-4.2,10.9c0,4.4,1.4,8.1,4.2,10.9c2.8,2.9,6.4,4.3,10.7,4.3
		c4.3,0,7.8-1.4,10.6-4.3c2.8-2.9,4.3-6.5,4.3-10.9C1342.7,20,1341.3,16.4,1338.5,13.5z"/>
	<path class="st1" d="M1395.7,0.8h11.1v47.3h-9.7V14.2L1384,34.1h-0.9L1370,14.2v33.9h-9.7V0.8h11.1l12.1,18.2L1395.7,0.8z"/>
	<path class="st1" d="M1448.7,10h-22.1v9.5h20.2v9.2h-20.2v10.2h22.1v9.2H1417V0.8h31.7V10z"/>
	<path class="st1" d="M1461.4,7c4.7-4.7,10.6-7,17.6-7c7,0,12.8,2.3,17.6,7c4.7,4.7,7.1,10.5,7.1,17.4s-2.4,12.7-7.1,17.4
		c-4.7,4.7-10.6,7-17.6,7c-7,0-12.8-2.3-17.6-7c-4.7-4.7-7-10.5-7-17.4S1456.7,11.7,1461.4,7z M1489.6,13.5
		c-2.8-2.9-6.3-4.3-10.6-4.3c-4.3,0-7.8,1.4-10.7,4.3c-2.8,2.9-4.2,6.5-4.2,10.9c0,4.4,1.4,8.1,4.2,10.9c2.8,2.9,6.4,4.3,10.7,4.3
		c4.3,0,7.8-1.4,10.6-4.3c2.8-2.9,4.3-6.5,4.3-10.9C1493.8,20,1492.4,16.4,1489.6,13.5z"/>
	<path class="st0" d="M1516.8,48.1l-1-2.8h-4.8l-1,2.8h-2.5l4.4-11.8h3.1l4.4,11.8H1516.8z M1511.8,43h3.1l-1.6-4.3L1511.8,43z"/>
	<path class="st0" d="M1528,36.3v2.3h-3.4v9.5h-2.4v-9.5h-3.4v-2.3H1528z"/>
	<circle class="st1" cx="730.5" cy="24.4" r="5.9"/>
	<circle class="st1" cx="1026.8" cy="24.4" r="5.9"/>
	<path class="st2" d="M433.4,24.4l-5.5-9.6l-5.5,9.6H433.4z M422.4,24.4l5.5,9.6l5.5-9.6H422.4z"/>
	<path class="st2" d="M737.4,24.4l-6.9-12l-6.9,12H737.4z M723.6,24.4l6.9,12l6.9-12H723.6z"/>
	<path class="st2" d="M1033.7,24.4l-6.9-12l-6.9,12H1033.7z M1019.9,24.4l6.9,12l6.9-12H1019.9z"/>
</g>
</svg>
