<?xml version="1.0" encoding="utf-8"?>
<!-- Generator: Adobe Illustrator 24.3.0, SVG Export Plug-In . SVG Version: 6.00 Build 0)  -->
<svg version="1.1" id="Layer_1" xmlns="http://www.w3.org/2000/svg" xmlns:xlink="http://www.w3.org/1999/xlink" x="0px" y="0px"
	 viewBox="0 0 2050 1114" style="enable-background:new 0 0 2050 1114;" xml:space="preserve">
<style type="text/css">
	.st0{fill:url(#SVGID_1_);stroke:#010202;stroke-width:4;}
</style>
<linearGradient id="SVGID_1_" gradientUnits="userSpaceOnUse" x1="1025" y1="1113.1152" x2="1025" y2="201.0013" gradientTransform="matrix(1 0 0 -1 8.410366e-06 1115.1152)">
	<stop  offset="0" style="stop-color:#E8D100;stop-opacity:0.83"/>
	<stop  offset="0.5052" style="stop-color:#EA581B"/>
</linearGradient>
<path class="st0" d="M81.5,70.7h-31H22c-11,0-20,9-20,20v823.4v78.9c0,11,9,20,20,20h78.5c11,0,20,9,20,20v42.7c0,11,9,20,20,20H174
	c11,0,20-9,20-20v-42.7c0-11,9-20,20-20h38.5c11,0,20,9,20,20v42.7c0,11,9,20,20,20h80c11,0,20-9,20-20v-10.3c0-11,9-20,20-20h9
	c11,0,20-9,20-20v-53c0-11,9-20,20-20h70c8.8,0,16,7.1,16,16c0,8.8-7.1,15.9-16,15.9H526c-11,0-20,9-20,20v21.1c0,11,9,20,20,20h63
	c11,0,20,9,20,20v10.3c0,11,9,20,20,20h71.7c7.6,0,13.8-6.2,13.8-13.8c0-7.6-6.2-13.8-13.8-13.8h-17.2c-11,0-20-8.9-20-20v-33.5
	c0-11,9-20,20-20h48.3c10.9,0,19.7,8.8,19.7,19.7s8.8,19.7,19.7,19.7h132.3c11,0,20,8.9,20,20v6c0,11-9,20-20,20h-18
	c-8.8,0-16,7.1-16,15.9c0,8.8,7.1,16,16,16h158.1c8.8,0,15.9-7.2,15.9-16c0-8.8-7.1-15.9-15.9-15.9h-50.1c-11,0-20-9-20-20v-39.5
	c0-11.1,9-20,20-20h56.5c11.1,0,20,8.9,20,20v4.9c0,11,9,20,20,20h49c11.1,0,20-9,20-20v-4.9c0-11.1,8.9-20,20-20h38
	c11.1,0,20,8.9,20,20v35.8c0,6.5-5.3,11.8-11.8,11.8s-11.8,5.3-11.8,11.8v2c0,7.6,6.2,13.8,13.8,13.8h62.4c7.6,0,13.8-6.2,13.8-13.8
	c0-7.6-6.2-13.8-13.8-13.8H1279c-9.4,0-17-7.6-17-17c0-9.4,7.6-17,17-17h24c11.1,0,20-9,20-20V992c0-11,8.9-20,20-20h49
	c11.1,0,20,9,20,20v1.1c0,11,8.9,20,20,20h125.5c11.1,0,20,9,20,20v15.2c0,11.1-8.9,20-20,20h-5.5c-11.1,0-20,9-20,20v3.8
	c0,11,8.9,20,20,20h51.5c11.1,0,20-9,20-20v-59c0-11,8.9-20,20-20h21.5c11.1,0,20,9,20,20v0.6c0,11.1,8.9,20,20,20h24.5
	c11.1,0,20-8.9,20-20v-13c0-11.1,8.9-20,20-20h26c11.1,0,20,8.9,20,20v14.4c0,5.8-4.7,10.5-10.5,10.5s-10.5,4.7-10.5,10.5v19.8
	c0,11,8.9,20,20,20h67c11.1,0,20-9,20-20v-10.3c0-11-8.9-20-20-20h-1.5c-11.1,0-20-9-20-20v-82.7c0-11,8.9-20,20-20h30.5
	c11.1,0,20,9,20,20v27c0,11,8.9,20,20,20h19.5c11.1,0,20-9,20-20v-35.7c0-11,8.9-20,20-20h18c11.1,0,20-9,20-20V155
	c0-11-8.9-20-20-20h-18c-11.1,0-20-9-20-20v-13c0-11-8.9-20-20-20h-20.3c-10.6,0-19.2,8.6-19.2,19.2c0,10.6-8.6,19.2-19.2,19.2
	h-15.8c-7.8,0-14.1-6.3-14.1-14.1v-3.8c0-5.7,4.6-10.2,10.2-10.2S1902,87.7,1902,82v-6.8c0-9.4-7.6-17-17-17H1842
	c-9.4,0-17,7.6-17,17c0,9.4,7.6,17,17,17h5c11.1,0,20,9,20,20v20.6c0,11-8.9,20-20,20h-14.3c-9,0-16.2-7.3-16.2-16.2
	c0-9-7.3-16.2-16.2-16.2h-21.2c-6.4,0-11.6,5.2-11.6,11.6s-5.2,11.6-11.6,11.6h-52.6c-9.3,0-16.8-7.5-16.8-16.8v-6.8
	c0-5.5,4.5-10,10-10h1.1c4.9,0,8.9-4,8.9-8.9c0-4.9-4-8.9-8.9-8.9h-49.2c-4.9,0-8.9,4-8.9,8.9c0,4.9,4,8.9,8.9,8.9h3.6
	c6.9,0,12.5,5.6,12.5,12.5v28.6c0,11-8.9,20-20,20h-28c-11.1,0-20-9-20-20V102c0-11-8.9-20-20-20h-15.8c-10.6,0-19.2,8.6-19.2,19.2
	c0,10.6-8.6,19.2-19.2,19.2H1499c-11.1,0-20-9-20-20v-14c0-8.7-7.1-15.8-15.8-15.8s-15.8,7.1-15.8,15.8v0.5c0,9-7.3,16.2-16.2,16.2
	h-36.7c-5.8,0-10.5-4.7-10.5-10.5s-4.7-10.5-10.5-10.5h-17c-8.8,0-15.9-7.1-15.9-15.9c0-8.8-7.1-15.9-15.9-15.9h-58.3
	c-5.7,0-10.3,4.6-10.3,10.3s4.6,10.3,10.3,10.3h1.7c6.6,0,12,5.4,12,12v4.2c0,9-7.3,16.2-16.2,16.2h-76.1c-9,0-16.2-7.3-16.2-16.2
	v-5.2c0-6.1,4.9-11,11-11h0.7c5.7,0,10.3-4.6,10.3-10.3s-4.6-10.3-10.3-10.3h-37.8c-8.8,0-15.9,7.1-15.9,15.9
	c0,8.8-7.1,15.9-15.9,15.9h-48.4c-10.3,0-18.7-8.4-18.7-18.7v-8.9c0-5.4,4.4-9.8,9.8-9.8c5.4,0,9.8-4.4,9.8-9.8v-2.7
	c0-6.9-5.6-12.4-12.4-12.4h-43.6c-6.9,0-12.4,5.6-12.4,12.4v5.2c0,4,3.2,7.2,7.2,7.2s7.2,3.2,7.2,7.2v5.7c0,7.2-5.8,13-13,13h-4.3
	c-9.5,0-17.2,7.7-17.2,17.2v2.5c0,10.9-8.8,19.7-19.7,19.7h-22.7c-7.8,0-14.1-6.3-14.1-14.1c0-7.8-6.3-14.1-14.1-14.1h-23
	c-8.8,0-16-7.1-16-15.9v-2.9c0-7.2-5.8-13-13-13s-13,5.8-13,13v9.2c0,11-9,20-20,20h-32.7c-6,0-10.8-4.8-10.8-10.8v-1.1
	c0-5.4,4.4-9.8,9.8-9.8s9.8-4.4,9.8-9.8v-0.5c0-5.7-4.6-10.3-10.3-10.3h-68c-5.7,0-10.3,4.6-10.3,10.3s4.6,10.3,10.3,10.3h5.2
	c8.6,0,15.5,6.9,15.5,15.5v0.7c0,9-7.3,16.2-16.2,16.2H652c-5.8,0-10.5-4.7-10.5-10.5S646.2,82,652,82h4.1c6.6,0,11.9-5.3,11.9-11.9
	s-5.3-11.9-11.9-11.9h-14.2c-6.6,0-11.9-5.3-11.9-11.9s-5.3-11.9-11.9-11.9h-44.7c-6.6,0-11.9,5.3-11.9,11.9s5.3,11.9,11.9,11.9h4.9
	c9.3,0,16.8,7.5,16.8,16.8v25.4c0,11-9,20-20,20h-17.5c-11,0-20-9-20-20V83.2c0-6.9-5.6-12.5-12.5-12.5s-12.5,5.6-12.5,12.5v3.7
	c0,9-7.3,16.2-16.2,16.2h-6.8c-11,0-20-9-20-20V64.7c0-11-9-20-20-20h-12.1c-6.9,0-12.4-5.6-12.4-12.4s-5.6-12.4-12.4-12.4H299.4
	c-6.9,0-12.4,5.6-12.4,12.4v2.9c0,5.2,4.3,9.5,9.5,9.5s9.5,4.3,9.5,9.5v3.5c0,7.2-5.8,13-13,13h-58.5c-7.2,0-13-5.8-13-13v-0.5
	c0-6.9,5.6-12.5,12.5-12.5c6.9,0,12.5-5.6,12.5-12.4s-5.6-12.4-12.4-12.4h-13.1c-4.9,0-8.9-4-8.9-8.9c0-4.9-4-8.9-8.9-8.9h-33.2
	c-4.9,0-8.9,4-8.9,8.9c0,4.9,4,8.9,8.9,8.9h4.1c7.2,0,13,5.8,13,13V39c0,10.6-8.6,19.2-19.2,19.2h-28c-3.7,0-6.8-3-6.8-6.8
	c0-3.7-3-6.8-6.8-6.8h-18.8c-7.2,0-13,5.8-13,13C94.5,64.9,88.7,70.7,81.5,70.7z"/>
</svg>
