<svg xmlns="http://www.w3.org/2000/svg" width="526.526" height="70.04" viewBox="0 0 526.526 70.04">
  <g id="Group_6" data-name="Group 6" transform="translate(-0.601 -7.24)">
    <path id="Path_370" data-name="Path 370" d="M39.44,21.8q2.736,17.708,12.616,49.172a2.5,2.5,0,0,1-.3,2.356,2.476,2.476,0,0,1-2.052,1.14l-11.552.76A2.719,2.719,0,0,1,36.4,74.62a2.808,2.808,0,0,1-.912-1.748l-1.064-6.916-10.64.076L22.72,71.884a3.19,3.19,0,0,1-1.064,1.6,1.947,1.947,0,0,1-1.672.456L8.128,73.48a2.277,2.277,0,0,1-2.052-1.064,2.188,2.188,0,0,1-.3-2.2l14.06-49.02a2.828,2.828,0,0,1,2.736-1.9l14.364.152a2.467,2.467,0,0,1,1.14.456,2.1,2.1,0,0,1,.912.836A2.018,2.018,0,0,1,39.44,21.8Zm-9.8,13.452-3.952,21.2q2.128-.152,7.3-.152Zm25.276,36.48L53.165,21.8a2.26,2.26,0,0,1,.608-1.748,2.808,2.808,0,0,1,1.748-.912,72.921,72.921,0,0,1,8.208-.456,66.724,66.724,0,0,1,8.816.608,42.609,42.609,0,0,1,8.284,1.748,19.35,19.35,0,0,1,6.612,3.572,12.361,12.361,0,0,1,3.952,5.4q1.216,3.116,0,7.828a35.46,35.46,0,0,1-4.864,10.412,12.978,12.978,0,0,1,5.32,4.788A14.2,14.2,0,0,1,94.356,59.8a9.92,9.92,0,0,1-1.824,6.612,12.875,12.875,0,0,1-3.8,3.268,23.453,23.453,0,0,1-5.7,2.2q-3.268.836-6.308,1.368a59.014,59.014,0,0,1-6.992.76q-3.952.152-6.384.228-2.356.076-5.776.076a2.747,2.747,0,0,1-1.9-.76A2.488,2.488,0,0,1,54.912,71.732ZM66.921,30.388,67.909,44.3q.3-.076.836-.228a16.645,16.645,0,0,0,2.052-.76,15.465,15.465,0,0,0,2.584-1.368,7.908,7.908,0,0,0,2.052-2.356,6.957,6.957,0,0,0,.988-3.344,5.1,5.1,0,0,0-.988-3.192,4.369,4.369,0,0,0-2.356-1.824,13.578,13.578,0,0,0-2.812-.76,9.955,9.955,0,0,0-2.356-.152Zm1.292,22.268.912,12.312h.3q.228-.076.76-.228.608-.152,1.14-.3A10.76,10.76,0,0,0,72.7,63.98q.76-.38,1.444-.76a10.689,10.689,0,0,0,1.368-.912,6.068,6.068,0,0,0,1.14-1.14,5.543,5.543,0,0,0,.836-1.52,6.85,6.85,0,0,0,.38-1.824,4.142,4.142,0,0,0-.988-2.812,5.249,5.249,0,0,0-2.432-1.6,13.251,13.251,0,0,0-2.812-.608A16.044,16.044,0,0,0,69.2,52.58ZM120.68,17.24A21.6,21.6,0,0,1,133.3,21.268a27.743,27.743,0,0,1,9.12,10.944,34.285,34.285,0,0,1,3.344,15.124,34.114,34.114,0,0,1-3.344,15.048,27.743,27.743,0,0,1-9.12,10.944,22.182,22.182,0,0,1-25.384-.076,27.621,27.621,0,0,1-9.2-10.868A34.281,34.281,0,0,1,95.372,47.26a34.4,34.4,0,0,1,1.976-11.628,30.1,30.1,0,0,1,5.32-9.576,25.561,25.561,0,0,1,8.132-6.384A21.261,21.261,0,0,1,120.68,17.24Zm10.564,30.02a26.6,26.6,0,0,0-1.444-8.892,15.74,15.74,0,0,0-3.8-6.46,7.515,7.515,0,0,0-5.32-2.356q-4.483,0-7.676,5.168a23.861,23.861,0,0,0-3.116,12.54A24.269,24.269,0,0,0,113,59.876q3.192,5.244,7.676,5.244,4.332,0,7.448-5.244A24.269,24.269,0,0,0,131.244,47.26ZM169.6,73.784a20.33,20.33,0,0,1-7.144-1.216,18.1,18.1,0,0,1-5.472-3.192,19.241,19.241,0,0,1-4.028-5.016,38.7,38.7,0,0,1-2.736-6.156,41.166,41.166,0,0,1-1.672-7.144q-.609-4.1-.836-7.524-.228-3.5-.228-7.752.075-4.332.228-7.3.151-3.04.456-6.688a3.1,3.1,0,0,1,.38-1.216,2.61,2.61,0,0,1,.912-.912,2.276,2.276,0,0,1,1.216-.38l9.8-.456a3.558,3.558,0,0,1,2.052.76,3.559,3.559,0,0,1,.76,2.052,205.705,205.705,0,0,0,0,28.652q.912,9.88,4.94,11.172,2.28.684,4.028-1.672a5.379,5.379,0,0,0,.684-1.444q1.063-3.648-.76-36.708a3.552,3.552,0,0,1,.76-2.052,3.553,3.553,0,0,1,2.052-.76l9.956.456a2.6,2.6,0,0,1,2.508,2.508q1.14,22.268.684,34.5-.456,8.056-5.624,12.768A18.924,18.924,0,0,1,169.6,73.784Zm34.372-38.836H192.12a3.553,3.553,0,0,1-2.052-.76,3.379,3.379,0,0,1-.608-1.9l.3-10.108a2.486,2.486,0,0,1,.76-1.824,2.84,2.84,0,0,1,1.976-.76l40.432-1.216a3.553,3.553,0,0,1,2.052.76,2.577,2.577,0,0,1,.76,1.9V32.288a2.62,2.62,0,0,1-.836,1.9,2.489,2.489,0,0,1-1.824.76h-12.92l.76,36.632a1.972,1.972,0,0,1-.608,1.9,2.619,2.619,0,0,1-1.9.836h-11.7a2.606,2.606,0,0,1-2.736-2.736ZM253.96,71.124,252.668,21.04a2.672,2.672,0,0,1,.76-1.976,3.205,3.205,0,0,1,1.9-.912,42.468,42.468,0,0,1,11.932,1.14,27.769,27.769,0,0,1,9.2,3.8,26.25,26.25,0,0,1,10.26,13.072,29.706,29.706,0,0,1,1.52,7.98,26.584,26.584,0,0,1-.76,7.524,23.074,23.074,0,0,1-3.116,7.144,27.073,27.073,0,0,1-5.776,6.308,36.62,36.62,0,0,1-9.044,5.092,55.7,55.7,0,0,1-12.464,3.42,2.468,2.468,0,0,1-2.052-.456A3.012,3.012,0,0,1,253.96,71.124Zm11.02-35.416.988,20.444a10.278,10.278,0,0,0,7.448-6.612,11.24,11.24,0,0,0-.076-9.956Q270.984,35.024,264.98,35.708ZM290.829,71.58V20.736a2.241,2.241,0,0,1,.912-1.9,2.192,2.192,0,0,1,1.9-.836l10.488.532a2.6,2.6,0,0,1,2.508,2.508l1.292,50.54a2.462,2.462,0,0,1-.836,1.9,2.192,2.192,0,0,1-1.9.836h-11.7a2.747,2.747,0,0,1-1.9-.76A2.672,2.672,0,0,1,290.829,71.58Zm53.152-33.972a22.652,22.652,0,0,0-6.612-5.016,9.96,9.96,0,0,0-6.08-1.292q-6.689,1.52,11.248,11.856a28.627,28.627,0,0,1,9.12,8.436,17.461,17.461,0,0,1,3.572,10.032,10.523,10.523,0,0,1-2.964,7.524,16.806,16.806,0,0,1-7.752,4.484,32.339,32.339,0,0,1-10.336.988,35.367,35.367,0,0,1-12.236-2.66,27.8,27.8,0,0,1-9.88-6.992,2.246,2.246,0,0,1-.76-1.748,2.746,2.746,0,0,1,.76-1.9l6.156-6.764a2.4,2.4,0,0,1,1.748-.912,2.238,2.238,0,0,1,1.9.608q1.368,1.14,2.736,2.2a39.479,39.479,0,0,0,3.344,2.128,20.811,20.811,0,0,0,3.724,1.672,8.9,8.9,0,0,0,3.42.38,4.5,4.5,0,0,0,2.888-1.52A2.009,2.009,0,0,0,337.9,56a16.1,16.1,0,0,0-5.016-3.268q-3.5-1.748-7.448-3.648a46.192,46.192,0,0,1-7.9-5.092,20.455,20.455,0,0,1-5.624-6.84q-3.115-6.688-.912-11.1t8.132-6.384a33.6,33.6,0,0,1,14.06-1.292,32.369,32.369,0,0,1,6.384,1.216,26.323,26.323,0,0,1,5.092,1.9,22.006,22.006,0,0,1,3.952,2.356,20.749,20.749,0,0,1,2.964,2.356,23.924,23.924,0,0,1,1.9,2.128,2.606,2.606,0,0,1,.608,1.9,2.569,2.569,0,0,1-.76,1.672l-5.4,5.7a2.91,2.91,0,0,1-2.052.988A2.184,2.184,0,0,1,343.981,37.608Zm14.248,33.06-.76-49.476a2.633,2.633,0,0,1,.684-1.824,2.78,2.78,0,0,1,1.824-.836q24.4-1.9,32.68,8.056,4.939,6,2.584,14.06a16.4,16.4,0,0,1-6.536,9.5,8.6,8.6,0,0,1-4.712,1.672,7.938,7.938,0,0,0,2.052,3.648,5.991,5.991,0,0,0,3.192,1.6,15.013,15.013,0,0,0,3.344.076,15.677,15.677,0,0,0,3.268-.684,1.705,1.705,0,0,1,1.748.38,2.16,2.16,0,0,1,.836,1.748L397.9,70.212a3.877,3.877,0,0,1-.912,1.748,2.749,2.749,0,0,1-1.9.76,27.773,27.773,0,0,1-6.612-1.216,22.272,22.272,0,0,1-5.168-2.356,28.16,28.16,0,0,1-3.724-3.116,18.356,18.356,0,0,1-2.66-3.268q-.988-1.6-1.672-2.888a14.564,14.564,0,0,1-.912-2.128l-.3-.836.3,13.3a2.58,2.58,0,0,1-.76,1.9,2.945,2.945,0,0,1-1.9.912l-10.564.3a2.577,2.577,0,0,1-1.9-.76A2.309,2.309,0,0,1,358.229,70.668ZM374.189,29.1V43.46q.379-.076.912-.152a19.86,19.86,0,0,0,2.128-.76,12.04,12.04,0,0,0,2.66-1.444,8.869,8.869,0,0,0,2.28-2.432,7.355,7.355,0,0,0,1.216-3.572,4.858,4.858,0,0,0-.76-3.268,4.057,4.057,0,0,0-2.2-1.824,13.589,13.589,0,0,0-2.812-.76,14.644,14.644,0,0,0-2.356-.228Zm47.536,44.688a20.331,20.331,0,0,1-7.144-1.216,18.1,18.1,0,0,1-5.472-3.192,19.241,19.241,0,0,1-4.028-5.016,38.7,38.7,0,0,1-2.736-6.156,41.166,41.166,0,0,1-1.672-7.144q-.609-4.1-.836-7.524-.228-3.5-.228-7.752.075-4.332.228-7.3.151-3.04.456-6.688a3.1,3.1,0,0,1,.38-1.216,2.611,2.611,0,0,1,.912-.912,2.276,2.276,0,0,1,1.216-.38l9.8-.456a3.558,3.558,0,0,1,2.052.76,3.559,3.559,0,0,1,.76,2.052,205.71,205.71,0,0,0,0,28.652q.912,9.88,4.94,11.172,2.28.684,4.028-1.672a5.38,5.38,0,0,0,.684-1.444q1.064-3.648-.76-36.708a3.552,3.552,0,0,1,.76-2.052,3.553,3.553,0,0,1,2.052-.76l9.956.456a2.6,2.6,0,0,1,2.508,2.508q1.14,22.268.684,34.5-.456,8.056-5.624,12.768A18.924,18.924,0,0,1,421.725,73.784Zm23.58-2.2-1.9-51.3a3.324,3.324,0,0,1,.76-2.052,2.619,2.619,0,0,1,1.9-.836q2.356,0,4.636.076t5.928.532a57.9,57.9,0,0,1,6.688,1.064,38.341,38.341,0,0,1,6.46,1.9,23.978,23.978,0,0,1,5.7,2.888,13.778,13.778,0,0,1,4.028,4.332,11.434,11.434,0,0,1,1.824,5.776,19.264,19.264,0,0,1-.836,7.144,14.9,14.9,0,0,1-2.964,5.4,25.432,25.432,0,0,1-4.18,3.876,20.16,20.16,0,0,1-4.636,2.584q-2.357.912-4.332,1.52a27.076,27.076,0,0,1-3.116.836l-1.292.152,1.14,15.808a2.777,2.777,0,0,1-.608,2.052,2.619,2.619,0,0,1-1.9.836l-10.64.152a2.747,2.747,0,0,1-1.9-.76A2.672,2.672,0,0,1,445.3,71.58Zm11.856-40.128,1.064,14.516a3.412,3.412,0,0,0,.912-.152,16.693,16.693,0,0,0,2.052-.76,10.834,10.834,0,0,0,2.508-1.444,7.668,7.668,0,0,0,2.052-2.432,6.512,6.512,0,0,0,.988-3.5,5.2,5.2,0,0,0-.912-3.344,4.772,4.772,0,0,0-2.356-1.9,15.2,15.2,0,0,0-2.888-.76,8.836,8.836,0,0,0-2.432-.228Zm38.2,3.5H483.5a3.553,3.553,0,0,1-2.052-.76,3.372,3.372,0,0,1-.608-1.9l.3-10.108a2.486,2.486,0,0,1,.76-1.824,2.84,2.84,0,0,1,1.976-.76l40.432-1.216a3.558,3.558,0,0,1,2.052.76,2.581,2.581,0,0,1,.76,1.9V32.288a2.62,2.62,0,0,1-.836,1.9,2.489,2.489,0,0,1-1.824.76h-12.92l.76,36.632a1.973,1.973,0,0,1-.608,1.9,2.621,2.621,0,0,1-1.9.836H498.1a2.606,2.606,0,0,1-2.736-2.736Z"/>
    <path id="Path_371" data-name="Path 371" d="M34.44,11.8q2.736,17.708,12.616,49.172a2.5,2.5,0,0,1-.3,2.356,2.476,2.476,0,0,1-2.052,1.14l-11.552.76A2.719,2.719,0,0,1,31.4,64.62a2.808,2.808,0,0,1-.912-1.748l-1.064-6.916-10.64.076L17.72,61.884a3.19,3.19,0,0,1-1.064,1.6,1.947,1.947,0,0,1-1.672.456L3.128,63.48a2.277,2.277,0,0,1-2.052-1.064,2.188,2.188,0,0,1-.3-2.2l14.06-49.02a2.828,2.828,0,0,1,2.736-1.9l14.364.152a2.466,2.466,0,0,1,1.14.456,2.1,2.1,0,0,1,.912.836A2.018,2.018,0,0,1,34.44,11.8Zm-9.8,13.452-3.952,21.2q2.128-.152,7.3-.152Zm25.276,36.48L48.165,11.8a2.26,2.26,0,0,1,.608-1.748,2.808,2.808,0,0,1,1.748-.912,72.92,72.92,0,0,1,8.208-.456,66.718,66.718,0,0,1,8.816.608,42.606,42.606,0,0,1,8.284,1.748,19.35,19.35,0,0,1,6.612,3.572,12.361,12.361,0,0,1,3.952,5.4q1.216,3.116,0,7.828a35.46,35.46,0,0,1-4.864,10.412,12.978,12.978,0,0,1,5.32,4.788A14.2,14.2,0,0,1,89.356,49.8a9.92,9.92,0,0,1-1.824,6.612,12.875,12.875,0,0,1-3.8,3.268,23.453,23.453,0,0,1-5.7,2.2q-3.268.836-6.308,1.368a59.013,59.013,0,0,1-6.992.76q-3.952.152-6.384.228-2.356.076-5.776.076a2.747,2.747,0,0,1-1.9-.76A2.488,2.488,0,0,1,49.912,61.732ZM61.921,20.388,62.909,34.3q.3-.076.836-.228a16.645,16.645,0,0,0,2.052-.76,15.465,15.465,0,0,0,2.584-1.368,7.909,7.909,0,0,0,2.052-2.356,6.957,6.957,0,0,0,.988-3.344,5.1,5.1,0,0,0-.988-3.192,4.369,4.369,0,0,0-2.356-1.824,13.578,13.578,0,0,0-2.812-.76,9.955,9.955,0,0,0-2.356-.152Zm1.292,22.268.912,12.312h.3q.228-.076.76-.228.608-.152,1.14-.3A10.761,10.761,0,0,0,67.7,53.98q.76-.38,1.444-.76a10.689,10.689,0,0,0,1.368-.912,6.068,6.068,0,0,0,1.14-1.14,5.543,5.543,0,0,0,.836-1.52,6.85,6.85,0,0,0,.38-1.824,4.142,4.142,0,0,0-.988-2.812,5.249,5.249,0,0,0-2.432-1.6,13.251,13.251,0,0,0-2.812-.608A16.044,16.044,0,0,0,64.2,42.58ZM115.68,7.24A21.6,21.6,0,0,1,128.3,11.268a27.743,27.743,0,0,1,9.12,10.944,34.285,34.285,0,0,1,3.344,15.124,34.114,34.114,0,0,1-3.344,15.048,27.743,27.743,0,0,1-9.12,10.944,22.182,22.182,0,0,1-25.384-.076,27.619,27.619,0,0,1-9.2-10.868A34.281,34.281,0,0,1,90.372,37.26a34.4,34.4,0,0,1,1.976-11.628,30.1,30.1,0,0,1,5.32-9.576A25.562,25.562,0,0,1,105.8,9.672,21.261,21.261,0,0,1,115.68,7.24Zm10.564,30.02a26.6,26.6,0,0,0-1.444-8.892,15.74,15.74,0,0,0-3.8-6.46,7.515,7.515,0,0,0-5.32-2.356q-4.483,0-7.676,5.168a23.861,23.861,0,0,0-3.116,12.54A24.269,24.269,0,0,0,108,49.876q3.192,5.244,7.676,5.244,4.332,0,7.448-5.244A24.269,24.269,0,0,0,126.244,37.26ZM164.6,63.784a20.33,20.33,0,0,1-7.144-1.216,18.1,18.1,0,0,1-5.472-3.192,19.241,19.241,0,0,1-4.028-5.016,38.7,38.7,0,0,1-2.736-6.156,41.166,41.166,0,0,1-1.672-7.144q-.609-4.1-.836-7.524-.228-3.5-.228-7.752.075-4.332.228-7.3.151-3.04.456-6.688a3.1,3.1,0,0,1,.38-1.216,2.61,2.61,0,0,1,.912-.912,2.276,2.276,0,0,1,1.216-.38l9.8-.456a3.558,3.558,0,0,1,2.052.76,3.559,3.559,0,0,1,.76,2.052,205.705,205.705,0,0,0,0,28.652q.912,9.88,4.94,11.172,2.28.684,4.028-1.672a5.379,5.379,0,0,0,.684-1.444q1.063-3.648-.76-36.708a3.552,3.552,0,0,1,.76-2.052A3.553,3.553,0,0,1,170,8.836l9.956.456a2.247,2.247,0,0,1,1.748.76,2.249,2.249,0,0,1,.76,1.748q1.14,22.268.684,34.5-.456,8.056-5.624,12.768A18.924,18.924,0,0,1,164.6,63.784Zm34.372-38.836H187.12a3.553,3.553,0,0,1-2.052-.76,3.379,3.379,0,0,1-.608-1.9l.3-10.108a2.486,2.486,0,0,1,.76-1.824A2.84,2.84,0,0,1,187.5,9.6L227.932,8.38a3.553,3.553,0,0,1,2.052.76,2.577,2.577,0,0,1,.76,1.9V22.288a2.62,2.62,0,0,1-.836,1.9,2.489,2.489,0,0,1-1.824.76h-12.92l.76,36.632a1.972,1.972,0,0,1-.608,1.9,2.619,2.619,0,0,1-1.9.836h-11.7a2.606,2.606,0,0,1-2.736-2.736ZM248.96,61.124,247.668,11.04a2.672,2.672,0,0,1,.76-1.976,3.206,3.206,0,0,1,1.9-.912,42.468,42.468,0,0,1,11.932,1.14,27.769,27.769,0,0,1,9.2,3.8,26.25,26.25,0,0,1,10.26,13.072,29.706,29.706,0,0,1,1.52,7.98,26.584,26.584,0,0,1-.76,7.524,23.074,23.074,0,0,1-3.116,7.144,27.072,27.072,0,0,1-5.776,6.308,36.62,36.62,0,0,1-9.044,5.092,55.705,55.705,0,0,1-12.464,3.42,2.468,2.468,0,0,1-2.052-.456A3.012,3.012,0,0,1,248.96,61.124Zm11.02-35.416.988,20.444a10.278,10.278,0,0,0,7.448-6.612,11.24,11.24,0,0,0-.076-9.956Q265.984,25.024,259.98,25.708ZM285.829,61.58V10.736a2.241,2.241,0,0,1,.912-1.9,2.191,2.191,0,0,1,1.9-.836l10.488.532a2.247,2.247,0,0,1,1.748.76,2.246,2.246,0,0,1,.76,1.748l1.292,50.54a2.462,2.462,0,0,1-.836,1.9,2.192,2.192,0,0,1-1.9.836h-11.7a2.747,2.747,0,0,1-1.9-.76A2.672,2.672,0,0,1,285.829,61.58Zm53.152-33.972a22.652,22.652,0,0,0-6.612-5.016,9.96,9.96,0,0,0-6.08-1.292q-6.689,1.52,11.248,11.856a28.627,28.627,0,0,1,9.12,8.436,17.461,17.461,0,0,1,3.572,10.032,10.523,10.523,0,0,1-2.964,7.524,16.806,16.806,0,0,1-7.752,4.484,32.339,32.339,0,0,1-10.336.988,35.367,35.367,0,0,1-12.236-2.66,27.8,27.8,0,0,1-9.88-6.992,2.246,2.246,0,0,1-.76-1.748,2.746,2.746,0,0,1,.76-1.9l6.156-6.764a2.4,2.4,0,0,1,1.748-.912,2.238,2.238,0,0,1,1.9.608q1.368,1.14,2.736,2.2a39.479,39.479,0,0,0,3.344,2.128,20.811,20.811,0,0,0,3.724,1.672,8.9,8.9,0,0,0,3.42.38,4.5,4.5,0,0,0,2.888-1.52A2.009,2.009,0,0,0,332.9,46a16.1,16.1,0,0,0-5.016-3.268q-3.5-1.748-7.448-3.648a46.192,46.192,0,0,1-7.9-5.092,20.455,20.455,0,0,1-5.624-6.84q-3.115-6.688-.912-11.1t8.132-6.384a33.6,33.6,0,0,1,14.06-1.292A32.366,32.366,0,0,1,334.573,9.6a26.323,26.323,0,0,1,5.092,1.9,22.006,22.006,0,0,1,3.952,2.356,20.749,20.749,0,0,1,2.964,2.356,23.924,23.924,0,0,1,1.9,2.128,2.606,2.606,0,0,1,.608,1.9,2.569,2.569,0,0,1-.76,1.672l-5.4,5.7a2.91,2.91,0,0,1-2.052.988A2.184,2.184,0,0,1,338.981,27.608Zm14.248,33.06-.76-49.476a2.632,2.632,0,0,1,.684-1.824,2.78,2.78,0,0,1,1.824-.836q24.4-1.9,32.68,8.056,4.939,6,2.584,14.06a16.4,16.4,0,0,1-6.536,9.5,8.6,8.6,0,0,1-4.712,1.672,7.938,7.938,0,0,0,2.052,3.648,5.991,5.991,0,0,0,3.192,1.6,15.013,15.013,0,0,0,3.344.076,15.677,15.677,0,0,0,3.268-.684,1.705,1.705,0,0,1,1.748.38,2.16,2.16,0,0,1,.836,1.748L392.9,60.212a3.877,3.877,0,0,1-.912,1.748,2.749,2.749,0,0,1-1.9.76,27.773,27.773,0,0,1-6.612-1.216,22.272,22.272,0,0,1-5.168-2.356,28.16,28.16,0,0,1-3.724-3.116,18.356,18.356,0,0,1-2.66-3.268q-.988-1.6-1.672-2.888a14.564,14.564,0,0,1-.912-2.128l-.3-.836.3,13.3a2.58,2.58,0,0,1-.76,1.9,2.945,2.945,0,0,1-1.9.912l-10.564.3a2.577,2.577,0,0,1-1.9-.76A2.309,2.309,0,0,1,353.229,60.668ZM369.189,19.1V33.46q.379-.076.912-.152a19.86,19.86,0,0,0,2.128-.76,12.04,12.04,0,0,0,2.66-1.444,8.869,8.869,0,0,0,2.28-2.432,7.355,7.355,0,0,0,1.216-3.572,4.858,4.858,0,0,0-.76-3.268,4.057,4.057,0,0,0-2.2-1.824,13.589,13.589,0,0,0-2.812-.76,14.644,14.644,0,0,0-2.356-.228Zm47.536,44.688a20.331,20.331,0,0,1-7.144-1.216,18.1,18.1,0,0,1-5.472-3.192,19.241,19.241,0,0,1-4.028-5.016,38.7,38.7,0,0,1-2.736-6.156,41.166,41.166,0,0,1-1.672-7.144q-.609-4.1-.836-7.524-.228-3.5-.228-7.752.075-4.332.228-7.3.151-3.04.456-6.688a3.1,3.1,0,0,1,.38-1.216,2.61,2.61,0,0,1,.912-.912,2.276,2.276,0,0,1,1.216-.38l9.8-.456a3.558,3.558,0,0,1,2.052.76,3.559,3.559,0,0,1,.76,2.052,205.71,205.71,0,0,0,0,28.652q.912,9.88,4.94,11.172,2.28.684,4.028-1.672a5.38,5.38,0,0,0,.684-1.444q1.064-3.648-.76-36.708a3.552,3.552,0,0,1,.76-2.052,3.553,3.553,0,0,1,2.052-.76l9.956.456a2.247,2.247,0,0,1,1.748.76,2.249,2.249,0,0,1,.76,1.748q1.14,22.268.684,34.5-.456,8.056-5.624,12.768A18.924,18.924,0,0,1,416.725,63.784Zm23.58-2.2-1.9-51.3a3.324,3.324,0,0,1,.76-2.052,2.619,2.619,0,0,1,1.9-.836q2.356,0,4.636.076T451.629,8a57.905,57.905,0,0,1,6.688,1.064,38.344,38.344,0,0,1,6.46,1.9,23.978,23.978,0,0,1,5.7,2.888,13.778,13.778,0,0,1,4.028,4.332,11.434,11.434,0,0,1,1.824,5.776,19.264,19.264,0,0,1-.836,7.144,14.9,14.9,0,0,1-2.964,5.4,25.432,25.432,0,0,1-4.18,3.876,20.16,20.16,0,0,1-4.636,2.584q-2.357.912-4.332,1.52a27.076,27.076,0,0,1-3.116.836l-1.292.152,1.14,15.808a2.777,2.777,0,0,1-.608,2.052,2.619,2.619,0,0,1-1.9.836l-10.64.152a2.747,2.747,0,0,1-1.9-.76A2.672,2.672,0,0,1,440.3,61.58Zm11.856-40.128,1.064,14.516a3.412,3.412,0,0,0,.912-.152,16.693,16.693,0,0,0,2.052-.76,10.834,10.834,0,0,0,2.508-1.444,7.668,7.668,0,0,0,2.052-2.432,6.512,6.512,0,0,0,.988-3.5,5.2,5.2,0,0,0-.912-3.344,4.772,4.772,0,0,0-2.356-1.9,15.2,15.2,0,0,0-2.888-.76,8.836,8.836,0,0,0-2.432-.228Zm38.2,3.5H478.5a3.553,3.553,0,0,1-2.052-.76,3.372,3.372,0,0,1-.608-1.9l.3-10.108a2.486,2.486,0,0,1,.76-1.824,2.84,2.84,0,0,1,1.976-.76L519.315,8.38a3.558,3.558,0,0,1,2.052.76,2.581,2.581,0,0,1,.76,1.9V22.288a2.62,2.62,0,0,1-.836,1.9,2.489,2.489,0,0,1-1.824.76h-12.92l.76,36.632a1.972,1.972,0,0,1-.608,1.9,2.621,2.621,0,0,1-1.9.836H493.1a2.606,2.606,0,0,1-2.736-2.736Z" fill="#fff"/>
  </g>
</svg>
