<svg xmlns="http://www.w3.org/2000/svg" width="437.945" height="70.04" viewBox="0 0 437.945 70.04">
  <g id="Group_7" data-name="Group 7" transform="translate(-0.522 -7.24)">
    <path id="Path_372" data-name="Path 372" d="M45.508,52.656,52.5,56.608a2.323,2.323,0,0,1,1.216,1.52,2.664,2.664,0,0,1,0,1.976A23.839,23.839,0,0,1,44.14,71.2a25.783,25.783,0,0,1-13.452,3.876,26.206,26.206,0,0,1-7.372-1.064,23.822,23.822,0,0,1-6.764-3.268A27.963,27.963,0,0,1,11,65.348,25.975,25.975,0,0,1,7.052,57.9a31.888,31.888,0,0,1-1.52-9.5A36.635,36.635,0,0,1,7.508,35.176,25.692,25.692,0,0,1,13.436,25.6a27.281,27.281,0,0,1,8.284-5.624A24.191,24.191,0,0,1,31.3,18a22.723,22.723,0,0,1,9.88,2.2,21.261,21.261,0,0,1,7.98,6.232,2.751,2.751,0,0,1,.456,1.976,2.651,2.651,0,0,1-.912,1.824l-5.4,4.256a2.427,2.427,0,0,1-1.672.608,2.5,2.5,0,0,1-1.6-.76A11.677,11.677,0,0,0,34.868,31.6a8.794,8.794,0,0,0-5.244.38,12.683,12.683,0,0,0-4.636,3.04,15.337,15.337,0,0,0-3.5,5.548,24.021,24.021,0,0,0-1.6,7.676,18.24,18.24,0,0,0,.684,6.08,12.11,12.11,0,0,0,2.356,4.56,14.458,14.458,0,0,0,3.5,2.812,9.134,9.134,0,0,0,4.256,1.064,13.516,13.516,0,0,0,4.256-.836A10.618,10.618,0,0,0,38.82,59.04a15.309,15.309,0,0,0,2.888-4.94,3.055,3.055,0,0,1,1.6-1.6A3.136,3.136,0,0,1,45.508,52.656ZM79.379,17.24A21.6,21.6,0,0,1,92,21.268a27.748,27.748,0,0,1,9.12,10.944,34.285,34.285,0,0,1,3.344,15.124,34.114,34.114,0,0,1-3.344,15.048A27.748,27.748,0,0,1,92,73.328a22.182,22.182,0,0,1-25.384-.076,27.618,27.618,0,0,1-9.2-10.868A34.28,34.28,0,0,1,54.071,47.26a34.4,34.4,0,0,1,1.976-11.628,30.094,30.094,0,0,1,5.32-9.576A25.557,25.557,0,0,1,69.5,19.672,21.261,21.261,0,0,1,79.379,17.24ZM89.943,47.26A26.612,26.612,0,0,0,88.5,38.368a15.737,15.737,0,0,0-3.8-6.46,7.515,7.515,0,0,0-5.32-2.356q-4.484,0-7.676,5.168a23.857,23.857,0,0,0-3.116,12.54A24.265,24.265,0,0,0,71.7,59.876Q74.9,65.12,79.379,65.12q4.332,0,7.448-5.244A24.266,24.266,0,0,0,89.943,47.26Zm17.384,23.864L107.175,21.5a2.486,2.486,0,0,1,.76-1.824,2.462,2.462,0,0,1,1.9-.836l11.324-.152a3.2,3.2,0,0,1,3.268,2.2Q134.535,47.032,140.691,56.3l-.836-34.96a2.151,2.151,0,0,1,.684-1.9,3.4,3.4,0,0,1,1.9-.76l8.816-.152a2.462,2.462,0,0,1,1.9.836,2.486,2.486,0,0,1,.76,1.824L152.851,71.58a2.62,2.62,0,0,1-.836,1.9,2.382,2.382,0,0,1-1.824.836l-12.616-.152a2.986,2.986,0,0,1-2.736-1.52q-12.161-20.52-15.048-29.184l2.888,27.968a2.528,2.528,0,0,1-.684,2.2,3.151,3.151,0,0,1-2.052.836l-10.108-.608a2.784,2.784,0,0,1-1.824-.836A2.919,2.919,0,0,1,107.327,71.124Zm62.547-36.176H158.018a3.558,3.558,0,0,1-2.052-.76,3.379,3.379,0,0,1-.608-1.9l.3-10.108a2.49,2.49,0,0,1,.76-1.824,2.841,2.841,0,0,1,1.976-.76L198.83,18.38a3.553,3.553,0,0,1,2.052.76,2.577,2.577,0,0,1,.76,1.9V32.288a2.616,2.616,0,0,1-.836,1.9,2.485,2.485,0,0,1-1.824.76h-12.92l.76,36.632a1.97,1.97,0,0,1-.608,1.9,2.617,2.617,0,0,1-1.9.836h-11.7a2.606,2.606,0,0,1-2.736-2.736ZM230.147,21.8q2.736,17.708,12.616,49.172a2.5,2.5,0,0,1-.3,2.356,2.475,2.475,0,0,1-2.052,1.14l-11.552.76a2.719,2.719,0,0,1-1.748-.608,2.8,2.8,0,0,1-.912-1.748l-1.064-6.916-10.64.076-1.064,5.852a3.19,3.19,0,0,1-1.064,1.6,1.947,1.947,0,0,1-1.672.456l-11.856-.456a2.277,2.277,0,0,1-2.052-1.064,2.187,2.187,0,0,1-.3-2.2l14.06-49.02a2.828,2.828,0,0,1,2.736-1.9l14.364.152a2.469,2.469,0,0,1,1.14.456,2.1,2.1,0,0,1,.912.836A2.022,2.022,0,0,1,230.147,21.8Zm-9.8,13.452-3.952,21.2q2.128-.152,7.3-.152Zm60.438,17.4,6.992,3.952a2.321,2.321,0,0,1,1.216,1.52,2.657,2.657,0,0,1,0,1.976,23.836,23.836,0,0,1-9.576,11.1,25.779,25.779,0,0,1-13.452,3.876,26.209,26.209,0,0,1-7.372-1.064,23.826,23.826,0,0,1-6.764-3.268,27.99,27.99,0,0,1-5.548-5.4,26,26,0,0,1-3.952-7.448,31.92,31.92,0,0,1-1.52-9.5,36.657,36.657,0,0,1,1.976-13.224,25.71,25.71,0,0,1,5.928-9.576,27.284,27.284,0,0,1,8.284-5.624A24.193,24.193,0,0,1,266.569,18a22.721,22.721,0,0,1,9.88,2.2,21.25,21.25,0,0,1,7.98,6.232,2.745,2.745,0,0,1,.456,1.976,2.645,2.645,0,0,1-.912,1.824l-5.4,4.256a2.427,2.427,0,0,1-1.672.608,2.5,2.5,0,0,1-1.6-.76,11.676,11.676,0,0,0-5.168-2.736,8.794,8.794,0,0,0-5.244.38,12.685,12.685,0,0,0-4.636,3.04,15.346,15.346,0,0,0-3.5,5.548,24.021,24.021,0,0,0-1.6,7.676,18.255,18.255,0,0,0,.684,6.08,12.124,12.124,0,0,0,2.356,4.56,14.477,14.477,0,0,0,3.5,2.812,9.135,9.135,0,0,0,4.256,1.064,13.512,13.512,0,0,0,4.256-.836,10.618,10.618,0,0,0,3.876-2.888,15.3,15.3,0,0,0,2.888-4.94,3.06,3.06,0,0,1,1.6-1.6A3.136,3.136,0,0,1,280.781,52.656Zm21.574-17.708H290.5a3.553,3.553,0,0,1-2.052-.76,3.372,3.372,0,0,1-.608-1.9l.3-10.108a2.486,2.486,0,0,1,.76-1.824,2.84,2.84,0,0,1,1.976-.76l40.432-1.216a3.558,3.558,0,0,1,2.052.76,2.581,2.581,0,0,1,.76,1.9V32.288a2.62,2.62,0,0,1-.836,1.9,2.489,2.489,0,0,1-1.824.76h-12.92l.76,36.632a1.973,1.973,0,0,1-.608,1.9,2.621,2.621,0,0,1-1.9.836h-11.7a2.606,2.606,0,0,1-2.736-2.736Zm70.276,38.836a20.334,20.334,0,0,1-7.144-1.216,18.1,18.1,0,0,1-5.472-3.192,19.241,19.241,0,0,1-4.028-5.016,38.7,38.7,0,0,1-2.736-6.156,41.256,41.256,0,0,1-1.672-7.144q-.607-4.1-.836-7.524-.228-3.5-.228-7.752.076-4.332.228-7.3.151-3.04.456-6.688a3.116,3.116,0,0,1,.38-1.216,2.61,2.61,0,0,1,.912-.912,2.279,2.279,0,0,1,1.216-.38l9.8-.456a3.553,3.553,0,0,1,2.052.76,3.552,3.552,0,0,1,.76,2.052,205.71,205.71,0,0,0,0,28.652q.912,9.88,4.94,11.172,2.28.684,4.028-1.672a5.379,5.379,0,0,0,.684-1.444q1.063-3.648-.76-36.708a3.552,3.552,0,0,1,.76-2.052,3.553,3.553,0,0,1,2.052-.76l9.956.456a2.6,2.6,0,0,1,2.508,2.508q1.14,22.268.684,34.5-.456,8.056-5.624,12.768A18.922,18.922,0,0,1,372.631,73.784Zm54.588-36.176a22.626,22.626,0,0,0-6.612-5.016,9.959,9.959,0,0,0-6.08-1.292q-6.687,1.52,11.248,11.856a28.606,28.606,0,0,1,9.12,8.436,17.454,17.454,0,0,1,3.572,10.032,10.522,10.522,0,0,1-2.964,7.524,16.806,16.806,0,0,1-7.752,4.484,32.336,32.336,0,0,1-10.336.988,35.368,35.368,0,0,1-12.236-2.66,27.807,27.807,0,0,1-9.88-6.992,2.249,2.249,0,0,1-.76-1.748,2.75,2.75,0,0,1,.76-1.9l6.156-6.764a2.4,2.4,0,0,1,1.748-.912,2.237,2.237,0,0,1,1.9.608q1.368,1.14,2.736,2.2a39.485,39.485,0,0,0,3.344,2.128,20.843,20.843,0,0,0,3.724,1.672,8.9,8.9,0,0,0,3.42.38,4.5,4.5,0,0,0,2.888-1.52A2.008,2.008,0,0,0,421.139,56a16.07,16.07,0,0,0-5.016-3.268q-3.495-1.748-7.448-3.648a46.231,46.231,0,0,1-7.9-5.092,20.466,20.466,0,0,1-5.624-6.84q-3.115-6.688-.912-11.1t8.132-6.384a33.6,33.6,0,0,1,14.06-1.292,32.341,32.341,0,0,1,6.384,1.216,26.323,26.323,0,0,1,5.092,1.9,22.007,22.007,0,0,1,3.952,2.356,20.751,20.751,0,0,1,2.964,2.356,23.776,23.776,0,0,1,1.9,2.128,2.606,2.606,0,0,1,.608,1.9,2.564,2.564,0,0,1-.76,1.672l-5.4,5.7a2.906,2.906,0,0,1-2.052.988A2.185,2.185,0,0,1,427.219,37.608Z"/>
    <path id="Path_373" data-name="Path 373" d="M40.508,42.656,47.5,46.608a2.323,2.323,0,0,1,1.216,1.52,2.664,2.664,0,0,1,0,1.976A23.839,23.839,0,0,1,39.14,61.2a25.783,25.783,0,0,1-13.452,3.876,26.206,26.206,0,0,1-7.372-1.064,23.822,23.822,0,0,1-6.764-3.268A27.963,27.963,0,0,1,6,55.348,25.975,25.975,0,0,1,2.052,47.9a31.887,31.887,0,0,1-1.52-9.5A36.635,36.635,0,0,1,2.508,25.176,25.693,25.693,0,0,1,8.436,15.6,27.281,27.281,0,0,1,16.72,9.976,24.19,24.19,0,0,1,26.3,8a22.722,22.722,0,0,1,9.88,2.2,21.261,21.261,0,0,1,7.98,6.232,2.751,2.751,0,0,1,.456,1.976,2.651,2.651,0,0,1-.912,1.824l-5.4,4.256a2.427,2.427,0,0,1-1.672.608,2.5,2.5,0,0,1-1.6-.76A11.677,11.677,0,0,0,29.868,21.6a8.794,8.794,0,0,0-5.244.38,12.683,12.683,0,0,0-4.636,3.04,15.337,15.337,0,0,0-3.5,5.548,24.021,24.021,0,0,0-1.6,7.676,18.24,18.24,0,0,0,.684,6.08,12.11,12.11,0,0,0,2.356,4.56,14.458,14.458,0,0,0,3.5,2.812,9.134,9.134,0,0,0,4.256,1.064,13.516,13.516,0,0,0,4.256-.836A10.618,10.618,0,0,0,33.82,49.04a15.309,15.309,0,0,0,2.888-4.94,3.055,3.055,0,0,1,1.6-1.6A3.136,3.136,0,0,1,40.508,42.656ZM74.379,7.24A21.6,21.6,0,0,1,87,11.268a27.749,27.749,0,0,1,9.12,10.944,34.281,34.281,0,0,1,3.344,15.124,34.11,34.11,0,0,1-3.344,15.048A27.749,27.749,0,0,1,87,63.328a22.182,22.182,0,0,1-25.384-.076,27.618,27.618,0,0,1-9.2-10.868A34.28,34.28,0,0,1,49.071,37.26a34.4,34.4,0,0,1,1.976-11.628,30.094,30.094,0,0,1,5.32-9.576A25.557,25.557,0,0,1,64.5,9.672,21.261,21.261,0,0,1,74.379,7.24ZM84.943,37.26A26.612,26.612,0,0,0,83.5,28.368a15.737,15.737,0,0,0-3.8-6.46,7.515,7.515,0,0,0-5.32-2.356q-4.484,0-7.676,5.168a23.858,23.858,0,0,0-3.116,12.54A24.265,24.265,0,0,0,66.7,49.876Q69.9,55.12,74.379,55.12q4.332,0,7.448-5.244A24.266,24.266,0,0,0,84.943,37.26Zm17.384,23.864L102.175,11.5a2.486,2.486,0,0,1,.76-1.824,2.462,2.462,0,0,1,1.9-.836l11.324-.152a3.2,3.2,0,0,1,3.268,2.2Q129.535,37.032,135.691,46.3l-.836-34.96a2.151,2.151,0,0,1,.684-1.9,3.4,3.4,0,0,1,1.9-.76l8.816-.152a2.462,2.462,0,0,1,1.9.836,2.486,2.486,0,0,1,.76,1.824L147.851,61.58a2.62,2.62,0,0,1-.836,1.9,2.382,2.382,0,0,1-1.824.836l-12.616-.152a2.986,2.986,0,0,1-2.736-1.52q-12.161-20.52-15.048-29.184l2.888,27.968a2.528,2.528,0,0,1-.684,2.2,3.151,3.151,0,0,1-2.052.836l-10.108-.608a2.784,2.784,0,0,1-1.824-.836A2.919,2.919,0,0,1,102.327,61.124Zm62.547-36.176H153.018a3.558,3.558,0,0,1-2.052-.76,3.379,3.379,0,0,1-.608-1.9l.3-10.108a2.49,2.49,0,0,1,.76-1.824A2.842,2.842,0,0,1,153.4,9.6L193.83,8.38a3.553,3.553,0,0,1,2.052.76,2.577,2.577,0,0,1,.76,1.9V22.288a2.616,2.616,0,0,1-.836,1.9,2.485,2.485,0,0,1-1.824.76h-12.92l.76,36.632a1.97,1.97,0,0,1-.608,1.9,2.617,2.617,0,0,1-1.9.836h-11.7a2.606,2.606,0,0,1-2.736-2.736ZM225.147,11.8q2.736,17.708,12.616,49.172a2.5,2.5,0,0,1-.3,2.356,2.475,2.475,0,0,1-2.052,1.14l-11.552.76a2.719,2.719,0,0,1-1.748-.608,2.8,2.8,0,0,1-.912-1.748l-1.064-6.916-10.64.076-1.064,5.852a3.19,3.19,0,0,1-1.064,1.6,1.947,1.947,0,0,1-1.672.456l-11.856-.456a2.277,2.277,0,0,1-2.052-1.064,2.187,2.187,0,0,1-.3-2.2l14.06-49.02a2.828,2.828,0,0,1,2.736-1.9l14.364.152a2.469,2.469,0,0,1,1.14.456,2.1,2.1,0,0,1,.912.836A2.022,2.022,0,0,1,225.147,11.8Zm-9.8,13.452-3.952,21.2q2.128-.152,7.3-.152Zm60.438,17.4,6.992,3.952a2.321,2.321,0,0,1,1.216,1.52,2.657,2.657,0,0,1,0,1.976,23.836,23.836,0,0,1-9.576,11.1,25.779,25.779,0,0,1-13.452,3.876,26.209,26.209,0,0,1-7.372-1.064,23.826,23.826,0,0,1-6.764-3.268,27.99,27.99,0,0,1-5.548-5.4,26,26,0,0,1-3.952-7.448,31.92,31.92,0,0,1-1.52-9.5,36.657,36.657,0,0,1,1.976-13.224,25.71,25.71,0,0,1,5.928-9.576,27.284,27.284,0,0,1,8.284-5.624A24.192,24.192,0,0,1,261.569,8a22.72,22.72,0,0,1,9.88,2.2,21.25,21.25,0,0,1,7.98,6.232,2.745,2.745,0,0,1,.456,1.976,2.645,2.645,0,0,1-.912,1.824l-5.4,4.256a2.427,2.427,0,0,1-1.672.608,2.5,2.5,0,0,1-1.6-.76,11.676,11.676,0,0,0-5.168-2.736,8.794,8.794,0,0,0-5.244.38,12.685,12.685,0,0,0-4.636,3.04,15.346,15.346,0,0,0-3.5,5.548,24.021,24.021,0,0,0-1.6,7.676,18.255,18.255,0,0,0,.684,6.08,12.124,12.124,0,0,0,2.356,4.56,14.477,14.477,0,0,0,3.5,2.812,9.135,9.135,0,0,0,4.256,1.064,13.512,13.512,0,0,0,4.256-.836,10.618,10.618,0,0,0,3.876-2.888,15.3,15.3,0,0,0,2.888-4.94,3.06,3.06,0,0,1,1.6-1.6A3.136,3.136,0,0,1,275.781,42.656Zm21.574-17.708H285.5a3.553,3.553,0,0,1-2.052-.76,3.372,3.372,0,0,1-.608-1.9l.3-10.108a2.486,2.486,0,0,1,.76-1.824,2.84,2.84,0,0,1,1.976-.76L326.311,8.38a3.558,3.558,0,0,1,2.052.76,2.581,2.581,0,0,1,.76,1.9V22.288a2.62,2.62,0,0,1-.836,1.9,2.488,2.488,0,0,1-1.824.76h-12.92l.76,36.632a1.973,1.973,0,0,1-.608,1.9,2.621,2.621,0,0,1-1.9.836h-11.7a2.606,2.606,0,0,1-2.736-2.736Zm70.276,38.836a20.334,20.334,0,0,1-7.144-1.216,18.1,18.1,0,0,1-5.472-3.192,19.241,19.241,0,0,1-4.028-5.016,38.7,38.7,0,0,1-2.736-6.156,41.256,41.256,0,0,1-1.672-7.144q-.607-4.1-.836-7.524-.228-3.5-.228-7.752.076-4.332.228-7.3.151-3.04.456-6.688a3.116,3.116,0,0,1,.38-1.216,2.61,2.61,0,0,1,.912-.912,2.278,2.278,0,0,1,1.216-.38l9.8-.456a3.553,3.553,0,0,1,2.052.76,3.552,3.552,0,0,1,.76,2.052,205.71,205.71,0,0,0,0,28.652q.912,9.88,4.94,11.172,2.28.684,4.028-1.672a5.379,5.379,0,0,0,.684-1.444q1.063-3.648-.76-36.708a3.552,3.552,0,0,1,.76-2.052,3.553,3.553,0,0,1,2.052-.76l9.956.456a2.247,2.247,0,0,1,1.748.76,2.246,2.246,0,0,1,.76,1.748q1.14,22.268.684,34.5-.456,8.056-5.624,12.768A18.922,18.922,0,0,1,367.631,63.784Zm54.588-36.176a22.626,22.626,0,0,0-6.612-5.016,9.959,9.959,0,0,0-6.08-1.292q-6.687,1.52,11.248,11.856a28.606,28.606,0,0,1,9.12,8.436,17.454,17.454,0,0,1,3.572,10.032,10.522,10.522,0,0,1-2.964,7.524,16.806,16.806,0,0,1-7.752,4.484,32.336,32.336,0,0,1-10.336.988,35.368,35.368,0,0,1-12.236-2.66,27.807,27.807,0,0,1-9.88-6.992,2.249,2.249,0,0,1-.76-1.748,2.75,2.75,0,0,1,.76-1.9l6.156-6.764a2.4,2.4,0,0,1,1.748-.912,2.237,2.237,0,0,1,1.9.608q1.368,1.14,2.736,2.2a39.485,39.485,0,0,0,3.344,2.128,20.843,20.843,0,0,0,3.724,1.672,8.9,8.9,0,0,0,3.42.38,4.5,4.5,0,0,0,2.888-1.52A2.008,2.008,0,0,0,416.139,46a16.07,16.07,0,0,0-5.016-3.268q-3.495-1.748-7.448-3.648a46.231,46.231,0,0,1-7.9-5.092,20.466,20.466,0,0,1-5.624-6.84q-3.115-6.688-.912-11.1t8.132-6.384a33.6,33.6,0,0,1,14.06-1.292A32.338,32.338,0,0,1,417.811,9.6a26.323,26.323,0,0,1,5.092,1.9,22.007,22.007,0,0,1,3.952,2.356,20.751,20.751,0,0,1,2.964,2.356,23.776,23.776,0,0,1,1.9,2.128,2.606,2.606,0,0,1,.608,1.9,2.564,2.564,0,0,1-.76,1.672l-5.4,5.7a2.906,2.906,0,0,1-2.052.988A2.185,2.185,0,0,1,422.219,27.608Z" fill="#fff"/>
  </g>
</svg>
