<svg width="743" height="180" viewBox="0 0 743 180" fill="none" xmlns="http://www.w3.org/2000/svg">
<path d="M89.0597 38.9931C86.8934 32.4941 83.5236 26.4766 78.9502 21.1812C74.1362 16.1264 68.6001 12.0344 62.1011 9.38671C54.6394 6.25759 46.6962 4.81341 38.5123 5.05411H0V17.5706H38.5123C44.2891 17.5706 50.066 18.5334 55.3614 20.6997C60.1755 22.6253 64.2674 25.7545 67.8779 29.365C71.4885 33.4569 73.8955 38.0302 75.5804 43.085C77.2653 48.6211 78.2281 54.6387 78.2281 60.4155C78.2281 66.1924 77.506 71.9692 75.5804 77.5054C73.8955 82.5601 71.4885 87.1334 68.1187 91.2253C64.7488 95.0766 60.4162 98.2057 55.8429 100.372C50.5474 102.538 44.7706 103.742 38.753 103.742H0.240717V116.499H38.753C46.4555 116.499 53.9173 115.055 61.1383 112.407C67.6373 109.759 73.4141 106.149 78.2281 101.094C83.0421 96.0394 86.6527 90.0219 89.0597 83.5229C91.7074 76.0612 92.9109 68.3587 92.9109 60.6562C92.4295 53.1945 91.226 45.7327 89.0597 38.9931Z" fill="black"/>
<path d="M131.423 116.259H145.624V57.7686C141.051 61.6198 136.237 65.2303 131.423 68.6001V116.259Z" fill="black"/>
<path d="M119.388 0V63.786C124.202 60.4162 129.016 56.8056 133.59 52.9544V0H119.388Z" fill="black"/>
<path d="M258.995 73.6544C257.31 70.2845 254.662 67.1554 251.533 64.9891C247.923 62.3414 243.831 60.4158 239.498 58.9715C234.444 57.2866 229.148 55.8424 223.853 54.6389C218.798 53.4354 214.465 52.4726 210.855 51.2691C207.726 50.3063 204.597 49.1028 201.708 47.6586C199.542 46.4551 197.616 44.7702 196.413 42.6038C195.209 40.1968 194.487 37.5491 194.728 34.9014C194.728 32.2536 195.209 29.8466 196.172 27.4396C197.135 25.0326 198.82 23.107 200.745 21.422C204.837 18.2929 211.095 16.608 219.761 16.608C222.408 16.608 224.815 16.8488 227.463 17.3302V4.57291C225.056 4.33221 222.649 4.09155 220.242 4.09155C214.947 4.09155 209.411 4.81364 204.356 6.25785C199.782 7.46136 195.45 9.62769 191.599 12.5161C187.988 15.4045 185.1 18.7743 183.174 22.8663C181.248 27.1989 180.045 32.0129 180.286 37.0677C180.286 40.9189 181.008 44.7701 182.452 48.3807C183.896 51.5098 186.062 54.3982 188.951 56.3238C192.321 58.7308 195.931 60.6565 199.782 62.1007C204.596 63.7856 209.651 65.2298 214.706 66.4333C219.761 67.6368 224.334 68.8403 228.426 70.0438C231.796 71.0067 235.166 72.4509 238.295 74.1358C240.702 75.58 242.868 77.2649 244.553 79.6719C245.997 82.0789 246.719 84.7266 246.719 87.615C246.96 90.0221 246.238 92.6698 245.275 94.8361C244.072 97.0024 242.387 98.9281 240.22 100.372C236.369 102.539 232.036 103.983 227.704 104.224V116.981C231.074 116.74 234.203 116.259 237.573 115.536C242.146 114.574 246.479 112.648 250.33 110C253.94 107.353 256.829 104.224 258.754 100.372C260.921 96.0397 262.124 91.2256 261.884 86.4115C261.643 81.8382 260.68 77.5056 258.995 73.6544Z" fill="black"/>
<path d="M353.832 73.6554C357.202 72.6926 360.572 71.2484 363.46 69.0821C366.349 66.9158 368.756 64.5088 370.922 61.6203C373.088 58.7319 374.533 55.3621 375.736 51.7516C376.699 48.141 377.421 44.2898 377.421 40.4386C377.421 36.106 376.699 31.5326 375.014 27.4407C373.329 23.3487 370.922 19.4975 368.034 15.887C365.145 12.5172 361.535 9.62876 357.443 7.70315C353.11 5.77753 348.537 4.574 343.963 4.8147H296.064V116.019H310.024V17.0905H342.76C345.408 17.0905 348.055 17.8126 350.462 19.0161C352.869 20.2196 355.036 21.9045 356.961 24.0708C358.887 26.2372 360.331 28.8849 361.294 31.5326C362.497 34.421 362.979 37.5501 362.979 40.6793C362.979 43.5677 362.497 46.6968 361.535 49.3445C360.572 51.9923 359.368 54.64 357.683 56.8063C355.998 58.9726 354.073 60.6575 351.666 61.8611C349.259 63.0646 346.611 63.7866 343.723 63.7866H339.871V76.5439L365.145 116.26H381.032L353.832 73.6554Z" fill="black"/>
<path d="M493.68 35.1422V61.3787C493.68 66.6741 493.198 71.9695 491.995 77.0243C491.032 81.8383 489.347 86.6524 486.699 90.7443C484.052 94.8362 480.682 98.2061 476.349 100.613C466.24 105.668 454.445 105.668 444.336 100.613C440.244 98.2061 436.633 95.077 434.226 90.985C431.579 86.8931 429.653 82.079 428.69 77.265C427.487 71.9696 427.005 66.6741 427.005 61.1379V5.05444H412.804V61.3787C412.804 68.359 413.526 75.3394 415.211 82.079C416.655 88.578 419.543 94.5955 423.154 99.891C427.005 105.186 432.06 109.519 437.837 112.407C444.817 115.777 452.52 117.462 460.222 117.222C467.684 117.462 475.146 115.777 482.126 112.648C487.903 109.76 492.958 105.668 496.809 100.613C500.66 95.3177 503.548 89.3001 504.993 82.8011C506.678 75.8208 507.64 68.5997 507.64 61.3787V35.1422H493.68Z" fill="black"/>
<path d="M626.306 27.6804C624.622 23.5885 622.214 19.4966 619.326 16.1267C616.438 12.7569 612.827 9.86851 608.735 7.9429C604.403 6.01728 599.829 4.81374 595.015 5.05444H548.56V116.259H562.761V17.3303H595.737C597.904 17.571 600.07 18.0523 602.236 19.0151C604.643 20.2186 606.81 21.9035 608.735 23.8292C612.827 28.4025 614.994 34.42 614.753 40.6783C614.753 43.8074 614.271 46.6959 613.309 49.5843C612.346 52.232 611.142 54.8797 609.457 57.046C607.772 59.2124 605.847 60.8973 603.44 62.1008C601.033 63.3043 598.626 63.7857 595.978 64.0264V76.5429H596.219C600.792 76.5429 605.365 75.5801 609.698 73.6545C613.549 71.7288 617.16 69.0812 620.048 65.7113C622.937 62.3415 625.103 58.4902 626.788 54.1576C628.473 49.825 629.195 45.2516 629.195 40.919C628.954 36.105 627.991 31.7723 626.306 27.6804Z" fill="black"/>
<path d="M689.852 53.9169V116.499H704.053V53.9169H689.852ZM651.339 5.05444V17.571H742.325V5.05444H651.339Z" fill="black"/>
<path d="M222.7 156.75H217.252V154.926H230.116V156.75H224.668V171.414H222.7V156.75ZM237.454 154.47H238.246L245.326 171.414H243.238L240.982 166.11H234.718L232.51 171.414H230.422L237.454 154.47ZM238.174 159.198L237.982 158.574L237.838 158.022L237.67 158.55L237.478 159.198L235.462 164.334H240.214L238.174 159.198ZM248.366 154.926H250.334V169.59H258.422V171.414H248.366V154.926ZM261.538 154.926H272.29V156.75H263.458V161.766H269.962V163.59H263.458V169.59H272.746V171.414H261.538V154.926ZM276.116 154.686H276.956L287.252 167.55L287.588 168.15L287.564 167.478L287.54 154.902H289.484V171.414H288.476L287.084 170.046L278.9 160.206L277.964 158.958L278.084 160.542V171.414H276.116V154.686ZM298.052 156.75H292.604V154.926H305.468V156.75H300.02V171.414H298.052V156.75ZM312.314 171.894C311.354 171.894 310.45 171.71 309.602 171.342C308.754 170.974 308.034 170.462 307.442 169.806C306.866 169.15 306.49 168.406 306.314 167.574L308.09 166.83C308.346 167.838 308.882 168.63 309.698 169.206C310.514 169.782 311.386 170.07 312.314 170.07C313.306 170.07 314.146 169.766 314.834 169.158C315.522 168.534 315.866 167.726 315.866 166.734C315.866 166.046 315.666 165.478 315.266 165.03C314.866 164.582 314.162 164.118 313.154 163.638C311.874 163.014 310.898 162.51 310.226 162.126C309.57 161.726 309.018 161.238 308.57 160.662C308.138 160.07 307.922 159.366 307.922 158.55C307.922 157.766 308.13 157.07 308.546 156.462C308.978 155.838 309.546 155.358 310.25 155.022C310.97 154.67 311.738 154.494 312.554 154.494C313.242 154.494 313.882 154.638 314.474 154.926C315.082 155.198 315.562 155.566 315.914 156.03C316.282 156.494 316.466 156.99 316.466 157.518C316.466 157.598 316.45 157.734 316.418 157.926L314.546 157.806C314.61 157.55 314.538 157.31 314.33 157.086C314.138 156.846 313.866 156.662 313.514 156.534C313.162 156.39 312.826 156.318 312.506 156.318C311.802 156.318 311.186 156.534 310.658 156.966C310.146 157.382 309.89 157.886 309.89 158.478C309.89 158.958 310.058 159.39 310.394 159.774C310.746 160.158 311.154 160.494 311.618 160.782C312.082 161.054 312.682 161.374 313.418 161.742L314.282 162.174C315.546 162.862 316.45 163.55 316.994 164.238C317.554 164.926 317.834 165.766 317.834 166.758C317.834 167.75 317.578 168.638 317.066 169.422C316.57 170.206 315.898 170.814 315.05 171.246C314.202 171.678 313.29 171.894 312.314 171.894Z" fill="black"/>
<path d="M121.829 154.71L128.525 163.11L135.221 154.71H136.061V171.414H134.093V160.542C134.093 160.302 134.117 159.886 134.165 159.294C133.397 160.286 132.469 161.414 131.381 162.678C130.309 163.926 129.349 164.998 128.501 165.894L127.541 164.814C125.605 162.606 124.421 161.254 123.989 160.758C123.845 160.582 123.701 160.398 123.557 160.206C123.429 160.014 123.301 159.838 123.173 159.678L122.885 159.27C122.933 159.718 122.957 160.142 122.957 160.542V171.414H120.989V154.71H121.829ZM146.842 171.63C145.546 171.63 144.41 171.342 143.434 170.766C142.458 170.174 141.706 169.366 141.178 168.342C140.65 167.318 140.386 166.174 140.386 164.91V154.926H142.354V164.91C142.354 165.902 142.546 166.774 142.93 167.526C143.314 168.278 143.842 168.862 144.514 169.278C145.202 169.678 145.994 169.878 146.89 169.878C148.266 169.878 149.362 169.422 150.178 168.51C151.01 167.598 151.426 166.398 151.426 164.91V154.926H153.394V164.91C153.394 166.238 153.114 167.414 152.554 168.438C151.994 169.446 151.218 170.23 150.226 170.79C149.234 171.35 148.106 171.63 146.842 171.63ZM161.921 171.894C160.961 171.894 160.057 171.71 159.209 171.342C158.361 170.974 157.641 170.462 157.049 169.806C156.473 169.15 156.097 168.406 155.921 167.574L157.697 166.83C157.953 167.838 158.489 168.63 159.305 169.206C160.121 169.782 160.993 170.07 161.921 170.07C162.913 170.07 163.753 169.766 164.441 169.158C165.129 168.534 165.473 167.726 165.473 166.734C165.473 166.046 165.273 165.478 164.873 165.03C164.473 164.582 163.769 164.118 162.761 163.638C161.481 163.014 160.505 162.51 159.833 162.126C159.177 161.726 158.625 161.238 158.177 160.662C157.745 160.07 157.529 159.366 157.529 158.55C157.529 157.766 157.737 157.07 158.153 156.462C158.585 155.838 159.153 155.358 159.857 155.022C160.577 154.67 161.345 154.494 162.161 154.494C162.849 154.494 163.489 154.638 164.081 154.926C164.689 155.198 165.169 155.566 165.521 156.03C165.889 156.494 166.073 156.99 166.073 157.518C166.073 157.598 166.057 157.734 166.025 157.926L164.153 157.806C164.217 157.55 164.145 157.31 163.937 157.086C163.745 156.846 163.473 156.662 163.121 156.534C162.769 156.39 162.433 156.318 162.113 156.318C161.409 156.318 160.793 156.534 160.265 156.966C159.753 157.382 159.497 157.886 159.497 158.478C159.497 158.958 159.665 159.39 160.001 159.774C160.353 160.158 160.761 160.494 161.225 160.782C161.689 161.054 162.289 161.374 163.025 161.742L163.889 162.174C165.153 162.862 166.057 163.55 166.601 164.238C167.161 164.926 167.441 165.766 167.441 166.758C167.441 167.75 167.185 168.638 166.673 169.422C166.177 170.206 165.505 170.814 164.657 171.246C163.809 171.678 162.897 171.894 161.921 171.894ZM170.816 154.926H172.784V171.414H170.816V154.926ZM184.529 171.798C182.993 171.798 181.601 171.422 180.353 170.67C179.121 169.902 178.153 168.87 177.449 167.574C176.745 166.278 176.393 164.854 176.393 163.302C176.393 161.718 176.761 160.246 177.497 158.886C178.249 157.526 179.249 156.446 180.497 155.646C181.761 154.83 183.137 154.422 184.625 154.422C186.081 154.422 187.409 154.75 188.609 155.406C189.809 156.046 190.393 157.214 190.361 158.91H188.465C188.513 157.902 188.113 157.206 187.265 156.822C186.433 156.438 185.513 156.246 184.505 156.246C183.385 156.246 182.353 156.582 181.409 157.254C180.465 157.91 179.713 158.79 179.153 159.894C178.593 160.982 178.313 162.142 178.313 163.374C178.313 164.558 178.577 165.654 179.105 166.662C179.649 167.67 180.393 168.478 181.337 169.086C182.281 169.678 183.353 169.974 184.553 169.974C185.673 169.974 186.705 169.718 187.649 169.206C188.609 168.694 189.369 167.966 189.929 167.022L191.537 168.126C190.785 169.342 189.777 170.262 188.513 170.886C187.265 171.494 185.937 171.798 184.529 171.798Z" fill="black"/>
<path d="M355.265 154.926C356.209 154.926 357.041 155.15 357.761 155.598C358.497 156.046 359.065 156.67 359.465 157.47C359.865 158.27 360.065 159.174 360.065 160.182C360.065 161.83 359.521 163.126 358.433 164.07C357.345 165.014 355.753 165.486 353.657 165.486L351.881 165.438V171.414H349.913V154.926H355.265ZM353.945 163.662C355.305 163.662 356.337 163.358 357.041 162.75C357.745 162.126 358.097 161.246 358.097 160.11C358.097 159.054 357.809 158.23 357.233 157.638C356.657 157.046 355.897 156.75 354.953 156.75H351.881V163.59L352.721 163.614C353.329 163.646 353.737 163.662 353.945 163.662ZM375.747 171.15C375.459 171.47 374.995 171.63 374.355 171.63C373.523 171.63 372.851 171.294 372.339 170.622L369.555 166.806C369.251 166.406 368.979 166.086 368.739 165.846C368.515 165.606 368.203 165.406 367.803 165.246C367.419 165.07 366.939 164.974 366.363 164.958V163.11H368.667C369.611 163.11 370.355 162.838 370.899 162.294C371.443 161.734 371.715 160.974 371.715 160.014C371.715 159.054 371.451 158.27 370.923 157.662C370.411 157.054 369.747 156.75 368.931 156.75H365.475V171.414H363.507V154.926H369.027C369.891 154.926 370.675 155.15 371.379 155.598C372.099 156.046 372.659 156.646 373.059 157.398C373.475 158.134 373.683 158.926 373.683 159.774C373.683 160.798 373.411 161.718 372.867 162.534C372.323 163.35 371.659 163.87 370.875 164.094C370.491 164.206 369.851 164.262 368.955 164.262C369.419 164.39 369.755 164.526 369.963 164.67C370.187 164.798 370.427 165.022 370.683 165.342L371.571 166.542C372.819 168.222 373.523 169.166 373.683 169.374C373.827 169.55 373.947 169.678 374.043 169.758C374.155 169.822 374.267 169.854 374.379 169.854C374.571 169.854 374.739 169.782 374.883 169.638L375.747 171.15Z" fill="black"/>
<path d="M8.736 154.806C10.224 154.902 11.544 155.318 12.696 156.054C13.864 156.79 14.768 157.782 15.408 159.03C16.048 160.262 16.368 161.646 16.368 163.182C16.368 164.814 16.008 166.27 15.288 167.55C14.584 168.83 13.6 169.83 12.336 170.55C11.072 171.27 9.632 171.63 8.016 171.63H6.816C6.688 171.63 6.408 171.63 5.976 171.63C5.544 171.63 4.776 171.582 3.672 171.486L2.328 171.366V154.782L8.736 154.806ZM7.248 169.83C9.552 169.83 11.32 169.262 12.552 168.126C13.784 166.99 14.4 165.366 14.4 163.254C14.4 161.27 13.872 159.694 12.816 158.526C11.776 157.358 10.328 156.726 8.472 156.63H4.296V169.71C5.384 169.79 6.368 169.83 7.248 169.83ZM19.9764 154.926H21.9444V171.414H19.9764V154.926ZM40.5773 164.694C40.5773 166.038 40.2493 167.238 39.5933 168.294C38.9533 169.35 38.0893 170.174 37.0013 170.766C35.9293 171.358 34.7773 171.654 33.5453 171.654C31.8653 171.654 30.4253 171.286 29.2253 170.55C28.0253 169.798 27.1133 168.798 26.4893 167.55C25.8813 166.302 25.5773 164.926 25.5773 163.422C25.5773 161.822 25.9293 160.358 26.6333 159.03C27.3373 157.702 28.3213 156.654 29.5853 155.886C30.8493 155.118 32.2893 154.734 33.9053 154.734C34.8013 154.734 35.6893 154.902 36.5693 155.238C37.4653 155.574 38.1933 156.054 38.7533 156.678C39.3133 157.302 39.5773 158.022 39.5453 158.838L37.7453 158.862C37.7453 158.366 37.5453 157.95 37.1453 157.614C36.7453 157.262 36.2413 156.998 35.6333 156.822C35.0413 156.646 34.4493 156.558 33.8573 156.558C32.6893 156.558 31.6173 156.878 30.6413 157.518C29.6813 158.158 28.9213 159.006 28.3613 160.062C27.8173 161.118 27.5453 162.246 27.5453 163.446C27.5453 164.598 27.7613 165.662 28.1933 166.638C28.6413 167.598 29.3133 168.374 30.2093 168.966C31.1213 169.542 32.2493 169.83 33.5933 169.83C34.4413 169.83 35.2573 169.614 36.0413 169.182C36.8253 168.75 37.4573 168.158 37.9373 167.406C38.4333 166.654 38.6813 165.838 38.6813 164.958V164.502H33.0173V162.678H40.5773V164.694ZM44.1405 154.926H46.1085V171.414H44.1405V154.926ZM54.6853 156.75H49.2373V154.926H62.1013V156.75H56.6533V171.414H54.6853V156.75ZM69.4395 154.47H70.2315L77.3115 171.414H75.2235L72.9675 166.11H66.7035L64.4955 171.414H62.4075L69.4395 154.47ZM70.1595 159.198L69.9675 158.574L69.8235 158.022L69.6555 158.55L69.4635 159.198L67.4475 164.334H72.1995L70.1595 159.198ZM80.3514 154.926H82.3194V169.59H90.4074V171.414H80.3514V154.926Z" fill="black"/>
<path d="M393.621 154.926H404.373V156.75H395.541V161.766H402.045V163.59H395.541V169.59H404.829V171.414H393.621V154.926ZM408.199 154.686H409.039L419.335 167.55L419.671 168.15L419.647 167.478L419.623 154.902H421.567V171.414H420.559L419.167 170.046L410.983 160.206L410.047 158.958L410.167 160.542V171.414H408.199V154.686ZM430.135 156.75H424.687V154.926H437.551V156.75H432.103V171.414H430.135V156.75ZM440.66 154.926H451.412V156.75H442.58V161.766H449.084V163.59H442.58V169.59H451.868V171.414H440.66V154.926ZM467.478 171.15C467.19 171.47 466.726 171.63 466.086 171.63C465.254 171.63 464.582 171.294 464.07 170.622L461.286 166.806C460.982 166.406 460.71 166.086 460.47 165.846C460.246 165.606 459.934 165.406 459.534 165.246C459.15 165.07 458.67 164.974 458.094 164.958V163.11H460.398C461.342 163.11 462.086 162.838 462.63 162.294C463.174 161.734 463.446 160.974 463.446 160.014C463.446 159.054 463.182 158.27 462.654 157.662C462.142 157.054 461.478 156.75 460.662 156.75H457.206V171.414H455.238V154.926H460.758C461.622 154.926 462.406 155.15 463.11 155.598C463.83 156.046 464.39 156.646 464.79 157.398C465.206 158.134 465.414 158.926 465.414 159.774C465.414 160.798 465.142 161.718 464.598 162.534C464.054 163.35 463.39 163.87 462.606 164.094C462.222 164.206 461.582 164.262 460.686 164.262C461.15 164.39 461.486 164.526 461.694 164.67C461.918 164.798 462.158 165.022 462.414 165.342L463.302 166.542C464.55 168.222 465.254 169.166 465.414 169.374C465.558 169.55 465.678 169.678 465.774 169.758C465.886 169.822 465.998 169.854 466.11 169.854C466.302 169.854 466.47 169.782 466.614 169.638L467.478 171.15ZM472.439 156.75H466.991V154.926H479.855V156.75H474.407V171.414H472.439V156.75ZM487.194 154.47H487.986L495.066 171.414H492.978L490.722 166.11H484.458L482.25 171.414H480.162L487.194 154.47ZM487.914 159.198L487.722 158.574L487.578 158.022L487.41 158.55L487.218 159.198L485.202 164.334H489.954L487.914 159.198ZM498.105 154.926H500.073V171.414H498.105V154.926ZM504.738 154.686H505.578L515.874 167.55L516.21 168.15L516.186 167.478L516.162 154.902H518.106V171.414H517.098L515.706 170.046L507.522 160.206L506.586 158.958L506.706 160.542V171.414H504.738V154.686ZM523.626 154.71L530.322 163.11L537.018 154.71H537.858V171.414H535.89V160.542C535.89 160.302 535.914 159.886 535.962 159.294C535.194 160.286 534.266 161.414 533.178 162.678C532.106 163.926 531.146 164.998 530.298 165.894L529.338 164.814C527.402 162.606 526.218 161.254 525.786 160.758C525.642 160.582 525.498 160.398 525.354 160.206C525.226 160.014 525.098 159.838 524.97 159.678L524.682 159.27C524.73 159.718 524.754 160.142 524.754 160.542V171.414H522.786V154.71H523.626ZM542.543 154.926H553.295V156.75H544.463V161.766H550.967V163.59H544.463V169.59H553.751V171.414H542.543V154.926ZM557.121 154.686H557.961L568.257 167.55L568.593 168.15L568.569 167.478L568.545 154.902H570.489V171.414H569.481L568.089 170.046L559.905 160.206L558.969 158.958L559.089 160.542V171.414H557.121V154.686ZM579.057 156.75H573.609V154.926H586.473V156.75H581.025V171.414H579.057V156.75Z" fill="black"/>
<path d="M636.098 154.926H646.85V156.75H638.018V161.766H644.522V163.59H638.018V169.59H647.306V171.414H636.098V154.926ZM649.956 157.014C649.908 156.902 649.844 156.83 649.764 156.798C649.684 156.766 649.492 156.726 649.188 156.678V154.806C649.828 154.806 650.364 154.942 650.796 155.214C651.228 155.47 651.556 155.894 651.78 156.486L656.052 168.222L660.684 154.902H662.676L656.94 171.414H655.188L649.956 157.014ZM665.817 154.926H676.569V156.75H667.737V161.766H674.241V163.59H667.737V169.59H677.025V171.414H665.817V154.926ZM680.395 154.686H681.235L691.531 167.55L691.867 168.15L691.843 167.478L691.819 154.902H693.763V171.414H692.755L691.363 170.046L683.179 160.206L682.243 158.958L682.363 160.542V171.414H680.395V154.686ZM702.33 156.75H696.882V154.926H709.746V156.75H704.298V171.414H702.33V156.75ZM716.593 171.894C715.633 171.894 714.729 171.71 713.881 171.342C713.033 170.974 712.313 170.462 711.721 169.806C711.145 169.15 710.769 168.406 710.593 167.574L712.369 166.83C712.625 167.838 713.161 168.63 713.977 169.206C714.793 169.782 715.665 170.07 716.593 170.07C717.585 170.07 718.425 169.766 719.113 169.158C719.801 168.534 720.145 167.726 720.145 166.734C720.145 166.046 719.945 165.478 719.545 165.03C719.145 164.582 718.441 164.118 717.433 163.638C716.153 163.014 715.177 162.51 714.505 162.126C713.849 161.726 713.297 161.238 712.849 160.662C712.417 160.07 712.201 159.366 712.201 158.55C712.201 157.766 712.409 157.07 712.825 156.462C713.257 155.838 713.825 155.358 714.529 155.022C715.249 154.67 716.017 154.494 716.833 154.494C717.521 154.494 718.161 154.638 718.753 154.926C719.361 155.198 719.841 155.566 720.193 156.03C720.561 156.494 720.745 156.99 720.745 157.518C720.745 157.598 720.729 157.734 720.697 157.926L718.825 157.806C718.889 157.55 718.817 157.31 718.609 157.086C718.417 156.846 718.145 156.662 717.793 156.534C717.441 156.39 717.105 156.318 716.785 156.318C716.081 156.318 715.465 156.534 714.937 156.966C714.425 157.382 714.169 157.886 714.169 158.478C714.169 158.958 714.337 159.39 714.673 159.774C715.025 160.158 715.433 160.494 715.897 160.782C716.361 161.054 716.961 161.374 717.697 161.742L718.561 162.174C719.825 162.862 720.729 163.55 721.273 164.238C721.833 164.926 722.113 165.766 722.113 166.758C722.113 167.75 721.857 168.638 721.345 169.422C720.849 170.206 720.177 170.814 719.329 171.246C718.481 171.678 717.569 171.894 716.593 171.894Z" fill="black"/>
</svg>
