<svg width="47" height="35" viewBox="0 0 47 35" fill="none" xmlns="http://www.w3.org/2000/svg">
<path d="M44.3132 0.0153551C44.1145 -0.00511837 43.9143 -0.00511837 43.7156 0.0153551H2.90074C2.63915 0.0193858 2.3793 0.0586091 2.12817 0.131969L23.1915 21.1079L44.3132 0.0153551Z" fill="black"/>
<path d="M46.4706 2.04199L25.2469 23.1782C24.7007 23.7212 23.9618 24.026 23.1916 24.026C22.4214 24.026 21.6825 23.7212 21.1363 23.1782L0.102037 2.20234C0.0373739 2.44 0.00308835 2.68489 0 2.93117V32.0846C0 32.8578 0.307152 33.5994 0.853885 34.1461C1.40062 34.6928 2.14215 35 2.91535 35H43.7302C44.5034 35 45.2449 34.6928 45.7916 34.1461C46.3384 33.5994 46.6455 32.8578 46.6455 32.0846V2.93117C46.6339 2.62747 46.5749 2.32746 46.4706 2.04199V2.04199ZM4.91236 32.0846H2.88619V30.0002L13.4835 19.4903L15.5388 21.5457L4.91236 32.0846ZM43.701 32.0846H41.6603L31.0338 21.5457L33.0892 19.4903L43.6864 30.0002L43.701 32.0846Z" fill="black"/>
</svg>
